# Rhino

g object_1
v 34.732940673828125 0 76.592048645019531
v 34.554645538330078 0 76.592048645019531
v 34.554645538330078 0 76.624687194824219
v 34.554645538330078 0 79.739662170410156
v 33.284358978271484 0 79.739662170410156
v 33.284358978271484 0 79.536857604980469
v 32.938137054443359 0 79.536857604980469
v 32.938137054443359 0 76.892127990722656
v 33.27685546875 0 76.892127990722656
v 33.27685546875 0 72.196990966796875
v 34.679180145263672 0 72.196990966796875
v 34.679180145263672 0 71.721534729003906
v 34.351543426513672 0 71.721534729003906
v 34.351543426513672 0 71.421531677246094
v 34.051540374755859 0 71.421531677246094
v 34.051540374755859 0 71.721534729003906
v 32.653717041015625 0 71.721534729003906
v 32.653717041015625 0 72.196990966796875
v 33.005672454833984 0 72.196990966796875
v 33.005672454833984 0 76.592048645019531
v 31.522161483764648 0 76.592048645019531
v 31.522161483764648 0 78.196014404296875
v 31.699804306030273 0 78.196014404296875
v 31.699804306030273 0 77.61181640625
v 32.689708709716797 0 77.61181640625
v 32.689708709716797 0 79.536857604980469
v 31.665012359619141 0 79.536857604980469
v 31.665012359619141 0 79.091117858886719
v 31.553323745727539 0 79.091117858886719
v 31.553323745727539 0 79.863739013671875
v 33.016620635986328 0 79.863739013671875
v 33.016620635986328 0 84.974899291992188
v 32.441074371337891 0 84.974899291992188
v 32.441074371337891 0 85.446846008300781
v 31.315597534179688 0 85.448745727539062
v 31.315593719482422 0 84.974899291992188
v 30.186384201049805 0 84.974899291992188
v 30.186384201049805 0 85.443344116210938
v 30.947296142578125 0 85.449363708496094
v 30.947296142578125 0 87.544143676757812
v 27.926931381225586 0 87.544143676757812
v 27.926931381225586 0 85.443344116210938
v 28.582155227661133 0 85.443344116210938
v 28.582155227661133 0 84.974899291992188
v 28.045051574707031 0 84.974899291992188
v 28.045051574707031 0 79.393096923828125
v 30.342763900756836 0 79.393096923828125
v 30.342763900756836 0 78.790023803710938
v 30.156667709350586 0 78.790023803710938
v 30.156667709350586 0 79.26324462890625
v 28.045051574707031 0 79.26324462890625
v 28.045051574707031 0 76.739242553710938
v 30.169342041015625 0 76.739242553710938
v 30.169342041015625 0 77.843040466308594
v 30.347358703613281 0 77.843040466308594
v 30.347358703613281 0 76.592048645019531
v 28.045051574707031 0 76.592048645019531
v 28.045051574707031 0 72.196990966796875
v 28.644878387451172 0 72.196990966796875
v 28.644878387451172 0 71.721534729003906
v 28.017543792724609 0 71.721534729003906
v 28.017543792724609 0 71.421531677246094
v 27.717544555664062 0 71.421531677246094
v 27.717544555664062 0 71.721534729003906
v 27.095912933349609 0 71.721534729003906
v 27.095912933349609 0 72.35504150390625
v 27.500478744506836 0 72.35504150390625
v 27.500478744506836 0 74.492019653320312
v 25.751213073730469 0 74.492019653320312
v 25.751213073730469 0 72.35504150390625
v 25.847837448120117 0 72.35504150390625
v 25.847837448120117 0 71.721534729003906
v 25.579505920410156 0 71.721534729003906
v 25.579505920410156 0 71.421531677246094
v 25.279506683349609 0 71.421531677246094
v 25.279506683349609 0 71.721534729003906
v 24.923221588134766 0 71.721534729003906
v 24.923221588134766 0 72.196990966796875
v 25.253517150878906 0 72.196990966796875
v 25.253517150878906 0 74.930870056152344
v 27.749666213989258 0 74.930870056152344
v 27.749666213989258 0 76.463584899902344
v 24.275606155395508 0 76.463584899902344
v 24.275606155395508 0 76.691734313964844
v 24.454916000366211 0 76.691734313964844
v 24.454916000366211 0 76.632354736328125
v 26.374595642089844 0 76.632354736328125
v 26.374595642089844 0 77.629104614257812
v 24.454916000366211 0 77.629104614257812
v 24.454916000366211 0 77.549369812011719
v 24.275606155395508 0 77.549369812011719
v 24.275606155395508 0 78.582138061523438
v 24.454916000366211 0 78.582138061523438
v 24.454916000366211 0 77.760955810546875
v 27.749666213989258 0 77.760955810546875
v 27.749666213989258 0 79.494979858398438
v 24.454916000366211 0 79.494979858398438
v 24.454916000366211 0 79.397735595703125
v 24.275606155395508 0 79.397735595703125
v 24.275606155395508 0 79.863739013671875
v 24.776290893554688 0 79.863739013671875
v 24.776290893554688 0 83.439567565917969
v 24.956356048583984 0 83.439567565917969
v 24.956356048583984 0 79.982597351074219
v 27.749666213989258 0 79.982597351074219
v 27.749666213989258 0 84.974899291992188
v 26.204431533813477 0 84.974899291992188
v 26.204431533813477 0 85.443344116210938
v 26.774908065795898 0 85.446022033691406
v 26.774908065795898 0 87.544143676757812
v 21.618207931518555 0 87.544143676757812
v 21.618207931518555 0 85.443344116210938
v 21.988479614257812 0 85.443344116210938
v 21.988479614257812 0 84.974899291992188
v 20.677242279052734 0 84.974899291992188
v 20.677242279052734 0 84.083419799804688
v 20.491584777832031 0 84.083419799804688
v 20.491584777832031 0 85.443344116210938
v 19.4053955078125 0 85.443344116210938
v 19.4053955078125 0 84.974899291992188
v 17.883932113647461 0 84.974899291992188
v 17.883932113647461 0 72.201126098632812
v 18.151376724243164 0 72.196990966796875
v 18.151376724243164 0 71.721534729003906
v 17.22722053527832 0 71.721534729003906
v 17.22722053527832 0 72.196990966796875
v 17.619977951049805 0 72.20526123046875
v 17.618232727050781 0 76.599273681640625
v 16.457561492919922 0 76.599273681640625
v 16.457561492919922 0 77.6134033203125
v 17.619977951049805 0 77.6134033203125
v 17.619977951049805 0 79.556915283203125
v 16.600236892700195 0 79.556915283203125
v 16.600236892700195 0 79.865676879882812
v 17.619977951049805 0 79.865676879882812
v 17.619977951049805 0 84.974899291992188
v 17.319326400756836 0 84.977493286132812
v 17.319326400756836 0 85.443344116210938
v 16.219833374023438 0 85.443344116210938
v 16.219833374023438 0 84.974899291992188
v 14.971757888793945 0 84.974899291992188
v 14.971757888793945 0 85.443344116210938
v 15.30706787109375 0 85.443344116210938
v 15.30706787109375 0 87.544143676757812
v 10.614775657653809 0 87.544143676757812
v 10.614775657653809 0 85.443344116210938
v 10.930373191833496 0 85.443344116210938
v 10.930373191833496 0 84.974899291992188
v 9.5321540832519531 0 84.974899291992188
v 9.5321540832519531 0 79.863739013671875
v 12.595141410827637 0 79.863739013671875
v 12.595141410827637 0 80.517486572265625
v 12.734458923339844 0 80.517486572265625
v 12.734458923339844 0 79.091117858886719
v 12.595141410827637 0 79.091117858886719
v 12.595141410827637 0 79.53045654296875
v 9.5321540832519531 0 79.53045654296875
v 9.5326118469238281 0 77.250900268554688
v 11.405829429626465 0 77.250900268554688
v 11.405829429626465 0 77.605316162109375
v 12.595141410827637 0 77.605316162109375
v 12.595141410827637 0 78.206649780273438
v 12.734458923339844 0 78.206649780273438
v 12.734458923339844 0 76.060081481933594
v 12.595141410827637 0 76.060081481933594
v 12.595141410827637 0 76.594970703125
v 11.405829429626465 0 76.594970703125
v 11.405829429626465 0 76.981277465820312
v 9.5326662063598633 0 76.981277465820312
v 9.5329360961914062 0 75.639472961425781
v 10.695079803466797 0 75.639472961425781
v 10.695079803466797 0 74.494773864746094
v 12.595141410827637 0 74.494773864746094
v 12.595141410827637 0 75.175209045410156
v 12.734458923339844 0 75.175209045410156
v 12.734458923339844 0 74.306831359863281
v 10.388300895690918 0 74.306831359863281
v 10.388300895690918 0 74.480850219726562
v 10.490281105041504 0 74.480850219726562
v 10.490281105041504 0 75.436042785644531
v 9.5329360961914062 0 75.436042785644531
v 9.532684326171875 0 74.481056213378906
v 9.6346435546875 0 74.481056213378906
v 9.6346435546875 0 74.307037353515625
v 9.5326633453369141 0 74.307037353515625
v 9.5321540832519531 0 72.196990966796875
v 10.344534873962402 0 72.196990966796875
v 10.344534873962402 0 71.721534729003906
v 10.228760719299316 0 71.721534729003906
v 10.228760719299316 0 71.421531677246094
v 9.9287605285644531 0 71.421531677246094
v 9.9287605285644531 0 71.721534729003906
v 7.3012819290161133 0 71.721534729003906
v 7.3012819290161133 0 72.196990966796875
v 9.2684183120727539 0 72.196990966796875
v 9.2684183120727539 0 77.866706848144531
v 7.9699540138244629 0 77.866706848144531
v 7.9699540138244629 0 75.436042785644531
v 8.2856426239013672 0 75.436042785644531
v 8.2856426239013672 0 75.257743835449219
v 5.501835823059082 0 75.257743835449219
v 5.501835823059082 0 75.221626281738281
v 5.343752384185791 0 75.221626281738281
v 5.343752384185791 0 75.436042785644531
v 5.9028968811035156 0 75.436042785644531
v 5.9028968811035156 0 75.531532287597656
v 6.0959787368774414 0 75.531532287597656
v 6.0959787368774414 0 75.436042785644531
v 7.6783456802368164 0 75.436042785644531
v 7.6783456802368164 0 76.54156494140625
v 6.0959787368774414 0 76.54156494140625
v 6.0959787368774414 0 76.448104858398438
v 5.9028968811035156 0 76.448104858398438
v 5.9028968811035156 0 76.54156494140625
v 3.889873743057251 0 76.54156494140625
v 3.889873743057251 0 79.588218688964844
v 3.8579490184783936 0 79.588218688964844
v 3.8579490184783936 0 79.952880859375
v 4.8926982879638672 0 79.952880859375
v 4.8926982879638672 0 79.588218688964844
v 4.2411189079284668 0 79.588218688964844
v 4.2411189079284668 0 76.860626220703125
v 6.1039447784423828 0 76.860626220703125
v 6.1039447784423828 0 77.902473449707031
v 5.5220484733581543 0 77.902473449707031
v 5.5220484733581543 0 78.080772399902344
v 6.1039447784423828 0 78.080772399902344
v 6.3535394668579102 0 78.076644897460938
v 7.3594551086425781 0 78.072532653808594
v 7.3594551086425781 0 79.588218688964844
v 5.7917046546936035 0 79.588218688964844
v 5.7917046546936035 0 79.952880859375
v 5.9421877861022949 0 79.952880859375
v 5.9421877861022949 0 80.536979675292969
v 6.1179862022399902 0 80.536979675292969
v 6.1179862022399902 0 79.952880859375
v 7.8101859092712402 0 79.952880859375
v 7.8101859092712402 0 78.080772399902344
v 9.2684183120727539 0 78.080772399902344
v 9.2684183120727539 0 81.465606689453125
v 7.6393928527832031 0 81.465606689453125
v 7.6393928527832031 0 81.683769226074219
v 9.2684183120727539 0 81.683769226074219
v 9.2684183120727539 0 84.974899291992188
v 7.3644447326660156 0 84.974899291992188
v 7.3644447326660156 0 85.443344116210938
v 6.2114615440368652 0 85.443344116210938
v 6.2114615440368652 0 84.974899291992188
v 6.1179862022399902 0 84.974899291992188
v 6.1179862022399902 0 81.408973693847656
v 5.9421877861022949 0 81.408973693847656
v 5.9421877861022949 0 84.974899291992188
v 4.1264266967773438 0 84.974899291992188
v 4.1264266967773438 0 85.443344116210938
v 3.0258989334106445 0 85.443344116210938
v 3.0258989334106445 0 84.974899291992188
v 1.5940381288528442 0 84.974899291992188
v 1.5940381288528442 0 85.443344116210938
v 2.6871652603149414 0 85.443344116210938
v 2.6871652603149414 0 87.544143676757812
v -1.0154860019683838 0 87.544143676757812
v -1.0154860019683838 0 85.443344116210938
v -0.36173254251480103 0 85.443344116210938
v -0.36173254251480103 0 84.974899291992188
v -0.54002892971038818 0 84.974899291992188
v -0.54002892971038818 0 84.388038635253906
v -1.0154860019683838 0 84.388038635253906
v -1.0154860019683838 0 83.301544189453125
v -0.54002892971038818 0 83.301544189453125
v -0.54002892971038818 0 81.977928161621094
v -1.0154860019683838 0 81.977928161621094
v -1.0154860019683838 0 82.587715148925781
v -3.0371315479278564 0 82.587715148925781
v -3.0673441886901855 0 76.741706848144531
v -1.0154860019683838 0 76.741706848144531
v -1.0154860019683838 0 77.541107177734375
v -0.54002892971038818 0 77.541107177734375
v -0.54002892971038818 0 76.06707763671875
v -1.0154860019683838 0 76.06707763671875
v -1.0154860019683838 0 74.693389892578125
v -0.54002892971038818 0 74.693389892578125
v -0.54002892971038818 0 73.953628540039062
v -1.0154860019683838 0 73.953628540039062
v -1.0154860019683838 0 72.853294372558594
v -0.54002892971038818 0 72.853294372558594
v -0.54002892971038818 0 72.196990966796875
v 2.488267183303833 0 72.196990966796875
v 2.488267183303833 0 74.306831359863281
v 2.6395902633666992 0 74.306831359863281
v 2.6395902633666992 0 72.196990966796875
v 3.204195499420166 0 72.196990966796875
v 3.204195499420166 0 71.721534729003906
v -0.58665704727172852 0 71.721534729003906
v -0.58665704727172852 0 71.421531677246094
v -0.88665705919265747 0 71.421531677246094
v -0.88665705919265747 0 71.721534729003906
v -1.0154860019683838 0 71.721534729003906
v -1.0154860019683838 0 68.708251953125
v 0.1677834540605545 0 68.708251953125
v 0.1677834540605545 0 70.051284790039062
v 4.4708404541015625 0 70.051284790039062
v 4.4708404541015625 0 70.351280212402344
v 4.7708406448364258 0 70.351280212402344
v 4.7708406448364258 0 70.051284790039062
v 5.8827428817749023 0 70.051284790039062
v 5.8827428817749023 0 68.708251953125
v 10.228760719299316 0 68.708251953125
v 10.228760719299316 0 69.016654968261719
v 15.566108703613281 0 69.016654968261719
v 15.566108703613281 0 70.034538269042969
v 15.266108512878418 0 70.034538269042969
v 15.266108512878418 0 70.051284790039062
v 15.266108512878418 0 70.351280212402344
v 15.566108703613281 0 70.351280212402344
v 15.582855224609375 0 70.351280212402344
v 15.582855224609375 0 70.051284790039062
v 20.271152496337891 0 70.051284790039062
v 20.271152496337891 0 70.351280212402344
v 20.287899017333984 0 70.351280212402344
v 20.587898254394531 0 70.351280212402344
v 20.587898254394531 0 70.051284790039062
v 20.587898254394531 0 70.034538269042969
v 20.287899017333984 0 70.034538269042969
v 20.287899017333984 0 69.016654968261719
v 28.017543792724609 0 69.016654968261719
v 28.017543792724609 0 70.034538269042969
v 27.717544555664062 0 70.034538269042969
v 27.717544555664062 0 70.051284790039062
v 27.717544555664062 0 70.351280212402344
v 28.017543792724609 0 70.351280212402344
v 28.034290313720703 0 70.351280212402344
v 28.034290313720703 0 70.051284790039062
v 34.034793853759766 0 70.051284790039062
v 34.034793853759766 0 70.351280212402344
v 34.051540374755859 0 70.351280212402344
v 34.351543426513672 0 70.351280212402344
v 34.351543426513672 0 70.051284790039062
v 34.351543426513672 0 70.034538269042969
v 34.051540374755859 0 70.034538269042969
v 34.051540374755859 0 69.016654968261719
v 39.408653259277344 0 69.016654968261719
v 39.408653259277344 0 70.034538269042969
v 39.108654022216797 0 70.034538269042969
v 39.108654022216797 0 70.051284790039062
v 39.108654022216797 0 70.351280212402344
v 39.408653259277344 0 70.351280212402344
v 39.425399780273438 0 70.351280212402344
v 39.425399780273438 0 70.051284790039062
v 44.384532928466797 0 70.051284790039062
v 44.384532928466797 0 70.351280212402344
v 44.401279449462891 0 70.351280212402344
v 44.701278686523438 0 70.351280212402344
v 44.701278686523438 0 70.051284790039062
v 44.701278686523438 0 70.034538269042969
v 44.401279449462891 0 70.034538269042969
v 44.401279449462891 0 69.016654968261719
v 49.600772857666016 0 69.016654968261719
v 49.600772857666016 0 68.693199157714844
v 53.469470977783203 0 68.693199157714844
v 53.469470977783203 0 70.051284790039062
v 54.803855895996094 0 70.051284790039062
v 54.803855895996094 0 70.351280212402344
v 55.103855133056641 0 70.351280212402344
v 55.103855133056641 0 70.051284790039062
v 59.240692138671875 0 70.051284790039062
v 59.240692138671875 0 68.693199157714844
v 60.379447937011719 0 68.693199157714844
v 60.379447937011719 0 71.721534729003906
v 60.291816711425781 0 71.721534729003906
v 60.291816711425781 0 71.421531677246094
v 59.991813659667969 0 71.421531677246094
v 59.991813659667969 0 71.721534729003906
v 56.619834899902344 0 71.721534729003906
v 56.619834899902344 0 72.196990966796875
v 56.803447723388672 0 72.196990966796875
v 56.803447723388672 0 74.158248901367188
v 56.981742858886719 0 74.158248901367188
v 56.981742858886719 0 72.200996398925781
v 60.015644073486328 0 72.196990966796875
v 60.015644073486328 0 72.613014221191406
v 60.37939453125 0 72.613014221191406
v 60.379310607910156 0 74.046401977539062
v 60.015644073486328 0 74.046401977539062
v 60.015644073486328 0 75.762916564941406
v 56.986015319824219 0 75.762870788574219
v 56.986015319824219 0 75.109123229980469
v 56.833164215087891 0 75.109161376953125
v 56.833164215087891 0 76.565254211425781
v 56.987071990966797 0 76.565208435058594
v 56.987071990966797 0 75.911453247070312
v 60.015644073486328 0 75.9114990234375
v 60.015644073486328 0 77.427017211914062
v 60.379112243652344 0 77.427017211914062
v 60.379032135009766 0 78.800971984863281
v 60.015644073486328 0 78.800971984863281
v 60.015644073486328 0 79.589073181152344
v 56.991016387939453 0 79.589149475097656
v 56.991016387939453 0 78.911819458007812
v 56.833164215087891 0 78.9117431640625
v 56.833164215087891 0 79.685440063476562
v 56.833164215087891 0 79.90167236328125
v 57.206207275390625 0 79.90167236328125
v 57.206207275390625 0 79.737655639648438
v 60.015644073486328 0 79.737655639648438
v 60.015644073486328 0 80.220329284667969
v 60.378677368164062 0 80.220329284667969
v 60.378978729248047 0 79.663909912109375
v 62.408565521240234 0 79.663909912109375
v 62.408565521240234 0 85.443344116210938
v 60.379447937011719 0 85.443344116210938
v 60.379447937011719 0 84.974899291992188
v 60.378677368164062 0 84.601730346679688
v 60.015644073486328 0 84.601730346679688
v 60.015644073486328 0 84.974899291992188
v 59.245559692382812 0 84.974899291992188
v 59.245559692382812 0 85.443344116210938
v 58.119487762451172 0 85.443344116210938
v 58.119487762451172 0 84.974899291992188
v 56.581264495849609 0 84.974899291992188
v 56.581264495849609 0 85.443344116210938
v 57.306556701660156 0 85.443344116210938
v 57.306556701660156 0 87.544143676757812
v 54.711917877197266 0 87.544143676757812
v 54.711917877197266 0 85.443344116210938
v 55.504470825195312 0 85.443344116210938
v 55.504470825195312 0 84.974899291992188
v 53.919364929199219 0 84.974899291992188
v 53.919364929199219 0 85.443344116210938
v 52.41400146484375 0 85.443344116210938
v 52.41400146484375 0 84.974899291992188
v 51.818458557128906 0 84.974899291992188
v 51.818458557128906 0 79.982597351074219
v 55.504470825195312 0 79.982597351074219
v 55.504470825195312 0 79.143020629882812
v 55.216770172119141 0 79.143020629882812
v 55.216770172119141 0 79.525405883789062
v 52.026046752929688 0 79.525405883789062
v 52.026046752929688 0 77.635032653808594
v 52.948890686035156 0 77.635032653808594
v 52.948890686035156 0 77.93218994140625
v 52.948890686035156 0 78.080772399902344
v 55.228336334228516 0 78.080772399902344
v 55.228336334228516 0 78.167129516601562
v 55.504470825195312 0 78.167129516601562
v 55.504470825195312 0 77.93218994140625
v 53.186618804931641 0 77.93218994140625
v 53.186618804931641 0 76.951560974121094
v 55.504470825195312 0 76.951560974121094
v 55.504470825195312 0 76.464057922363281
v 54.258094787597656 0 76.464057922363281
v 54.258094787597656 0 75.285682678222656
v 55.326175689697266 0 75.285682678222656
v 55.326175689697266 0 75.46575927734375
v 55.504470825195312 0 75.46575927734375
v 55.504470825195312 0 75.198310852050781
v 54.862621307373047 0 75.198310852050781
v 54.862621307373047 0 75.081108093261719
v 54.697071075439453 0 75.081108093261719
v 54.697071075439453 0 75.198310852050781
v 54.057060241699219 0 75.198310852050781
v 54.057060241699219 0 76.464057922363281
v 51.818458557128906 0 76.464057922363281
v 51.818458557128906 0 72.196990966796875
v 52.757877349853516 0 72.196990966796875
v 52.757877349853516 0 71.721534729003906
v 51.225357055664062 0 71.721534729003906
v 51.225357055664062 0 72.196990966796875
v 51.521884918212891 0 72.196990966796875
v 51.521884918212891 0 79.566375732421875
v 50.386547088623047 0 79.566375732421875
v 50.386547088623047 0 78.741401672363281
v 50.241306304931641 0 78.741401672363281
v 50.241306304931641 0 79.566375732421875
v 48.038303375244141 0 79.566375732421875
v 48.038303375244141 0 76.738471984863281
v 50.241306304931641 0 76.738471984863281
v 50.241306304931641 0 77.921211242675781
v 50.386547088623047 0 77.921211242675781
v 50.386547088623047 0 76.599098205566406
v 48.038303375244141 0 76.599098205566406
v 48.038303375244141 0 72.196990966796875
v 48.1348876953125 0 72.196990966796875
v 48.1348876953125 0 71.721534729003906
v 46.538486480712891 0 71.721534729003906
v 46.538486480712891 0 72.196990966796875
v 47.718864440917969 0 72.196990966796875
v 47.718864440917969 0 76.599098205566406
v 44.752887725830078 0 76.599098205566406
v 44.752887725830078 0 75.346893310546875
v 44.568958282470703 0 75.346893310546875
v 44.568958282470703 0 76.738471984863281
v 46.505214691162109 0 76.738471984863281
v 46.505214691162109 0 77.783607482910156
v 47.718864440917969 0 77.783607482910156
v 47.718864440917969 0 79.566375732421875
v 46.792655944824219 0 79.566375732421875
v 46.792655944824219 0 79.924209594726562
v 47.718864440917969 0 79.924209594726562
v 47.718864440917969 0 80.615653991699219
v 48.038303375244141 0 80.615653991699219
v 48.038303375244141 0 79.924209594726562
v 51.521884918212891 0 79.924209594726562
v 51.521884918212891 0 84.974899291992188
v 50.718166351318359 0 84.974899291992188
v 50.718166351318359 0 85.443344116210938
v 51.082820892333984 0 85.443344116210938
v 51.082820892333984 0 87.544143676757812
v 48.436508178710938 0 87.544143676757812
v 48.436508178710938 0 85.443344116210938
v 48.729209899902344 0 85.443344116210938
v 48.729209899902344 0 84.974899291992188
v 48.017818450927734 0 84.974899291992188
v 48.017818450927734 0 81.498115539550781
v 47.748580932617188 0 81.498115539550781
v 47.748580932617188 0 84.974899291992188
v 47.141700744628906 0 84.974899291992188
v 47.141700744628906 0 85.443344116210938
v 47.401142120361328 0 85.443344116210938
v 47.401142120361328 0 87.555320739746094
v 43.229331970214844 0 87.555320739746094
v 43.229331970214844 0 85.443344116210938
v 43.320884704589844 0 85.443344116210938
v 43.320884704589844 0 84.974899291992188
v 41.412223815917969 0 84.974899291992188
v 41.412223815917969 0 85.444068908691406
v 39.998527526855469 0 85.44464111328125
v 39.998527526855469 0 84.974899291992188
v 39.338932037353516 0 84.974899291992188
v 39.338932037353516 0 79.677894592285156
v 41.759754180908203 0 79.677894592285156
v 41.759754180908203 0 79.834022521972656
v 42.869426727294922 0 79.834022521972656
v 42.869426727294922 0 78.556228637695312
v 42.7265625 0 78.556228637695312
v 42.7265625 0 79.516166687011719
v 39.456127166748047 0 79.516166687011719
v 39.456127166748047 0 76.7838134765625
v 40.603164672851562 0 76.7838134765625
v 40.603164672851562 0 77.217666625976562
v 41.639354705810547 0 77.217666625976562
v 41.639354705810547 0 77.545883178710938
v 42.845428466796875 0 77.545883178710938
v 42.845428466796875 0 76.553436279296875
v 41.641925811767578 0 76.553436279296875
v 41.640640258789062 0 76.7838134765625
v 40.869632720947266 0 76.7838134765625
v 40.869632720947266 0 75.554908752441406
v 42.845584869384766 0 75.554908752441406
v 42.845584869384766 0 74.158248901367188
v 42.7265625 0 74.158248901367188
v 42.7265625 0 75.346893310546875
v 40.527576446533203 0 75.346893310546875
v 40.527576446533203 0 76.594970703125
v 39.338932037353516 0 76.594970703125
v 39.338932037353516 0 72.196990966796875
v 39.514572143554688 0 72.196990966796875
v 39.514572143554688 0 71.721534729003906
v 39.408653259277344 0 71.721534729003906
v 39.408653259277344 0 71.421531677246094
v 39.108654022216797 0 71.421531677246094
v 39.108654022216797 0 71.721534729003906
v 38.791893005371094 0 71.721534729003906
v 38.791893005371094 0 72.196990966796875
v 39.044239044189453 0 72.196990966796875
v 39.044239044189453 0 79.683448791503906
v 38.919223785400391 0 79.683448791503906
v 38.919223785400391 0 79.863739013671875
v 39.044239044189453 0 79.863739013671875
v 39.044239044189453 0 84.974899291992188
v 38.506881713867188 0 84.974899291992188
v 38.506881713867188 0 85.445243835449219
v 36.902214050292969 0 85.445892333984375
v 36.902214050292969 0 84.974899291992188
v 36.129596710205078 0 84.974899291992188
v 36.129596710205078 0 85.443344116210938
v 36.562099456787109 0 85.446022033691406
v 36.562099456787109 0 87.544143676757812
v 32.92999267578125 0 87.544143676757812
v 32.926460266113281 0 85.446029663085938
v 34.524929046630859 0 85.443344116210938
v 34.524929046630859 0 84.974899291992188
v 33.27685546875 0 84.974899291992188
v 33.27685546875 0 79.863739013671875
v 38.031425476074219 0 79.863739013671875
v 38.031425476074219 0 79.683448791503906
v 37.853130340576172 0 79.683448791503906
v 37.853130340576172 0 79.091117858886719
v 37.674831390380859 0 79.091117858886719
v 37.674831390380859 0 79.536857604980469
v 36.682929992675781 0 79.536857604980469
v 36.682929992675781 0 79.739662170410156
v 34.732940673828125 0 79.739662170410156
v 34.732940673828125 0 76.868148803710938
v 36.551609039306641 0 76.868148803710938
v 36.551609039306641 0 78.229354858398438
v 36.694202423095703 0 78.229354858398438
v 36.694202423095703 0 77.601173400878906
v 37.763328552246094 0 77.601173400878906
v 37.763328552246094 0 78.202896118164062
v 37.882846832275391 0 78.202896118164062
v 37.882846832275391 0 76.592048645019531
v 37.001487731933594 0 76.592048645019531
v 37.001487731933594 0 76.494239807128906
v 36.864456176757812 0 76.494239807128906
v 36.864456176757812 0 76.592048645019531
v 22.757577896118164 0 77.579368591308594
v 22.762195587158203 0 76.921844482421875
v 22.767023086547852 0 76.594970703125
v 21.512907028198242 0 76.594970703125
v 21.512907028198242 0 76.921844482421875
v 21.512907028198242 0 77.579368591308594
v 41.110767364501953 0 72.196990966796875
v 42.7265625 0 72.196990966796875
v 42.7265625 0 73.266769409179688
v 42.845428466796875 0 73.266769409179688
v 42.845428466796875 0 72.196990966796875
v 43.017559051513672 0 72.196990966796875
v 43.017559051513672 0 71.721534729003906
v 41.110767364501953 0 71.721534729003906
v 36.248462677001953 0 72.196990966796875
v 36.783351898193359 0 72.196990966796875
v 36.783351898193359 0 75.584625244140625
v 36.961647033691406 0 75.584625244140625
v 36.961647033691406 0 72.196990966796875
v 37.737995147705078 0 72.196990966796875
v 37.737995147705078 0 71.721534729003906
v 36.248462677001953 0 71.721534729003906
v 11.359114646911621 0 72.196990966796875
v 13.069929122924805 0 72.198623657226562
v 13.069929122924805 0 71.721534729003906
v 11.359114646911621 0 71.721534729003906
v 23.912443161010742 0 72.196990966796875
v 23.912443161010742 0 71.721534729003906
v 23.232824325561523 0 71.721534729003906
v 23.240367889404297 0 72.196990966796875
v 23.24791145324707 0 74.049293518066406
v 23.411121368408203 0 74.049293518066406
v 23.411121368408203 0 72.196990966796875
v 31.025447845458984 0 72.196990966796875
v 31.557052612304688 0 72.196990966796875
v 31.557052612304688 0 71.721534729003906
v 31.025447845458984 0 71.721534729003906
v 15.566108703613281 0 71.721534729003906
v 15.566108703613281 0 71.421531677246094
v 15.266108512878418 0 71.421531677246094
v 15.266108512878418 0 71.721534729003906
v 14.674596786499023 0 71.721534729003906
v 14.674596786499023 0 72.20025634765625
v 15.566108703613281 0 72.196990966796875
v 55.103855133056641 0 71.721534729003906
v 55.103855133056641 0 71.421531677246094
v 54.803855895996094 0 71.421531677246094
v 54.803855895996094 0 71.721534729003906
v 53.849079132080078 0 71.721534729003906
v 53.849079132080078 0 72.196990966796875
v 54.697071075439453 0 72.196990966796875
v 54.697071075439453 0 74.158248901367188
v 54.862152099609375 0 74.158248901367188
v 54.862152099609375 0 72.196990966796875
v 55.613780975341797 0 72.196990966796875
v 55.613780975341797 0 71.721534729003906
v 25.10223388671875 0 84.974899291992188
v 24.362033843994141 0 84.974899291992188
v 24.362033843994141 0 85.443344116210938
v 25.10223388671875 0 85.443344116210938
v 45.519874572753906 0 84.974899291992188
v 44.932567596435547 0 84.974899291992188
v 44.932567596435547 0 85.443344116210938
v 45.519874572753906 0 85.443344116210938
v 19.782768249511719 0 79.685440063476562
v 19.782768249511719 0 79.872535705566406
v 20.498945236206055 0 79.872535705566406
v 20.498945236206055 0 83.251365661621094
v 20.677242279052734 0 83.251365661621094
v 20.677242279052734 0 79.872535705566406
v 23.035022735595703 0 79.872535705566406
v 23.035022735595703 0 79.685440063476562
v 19.960878372192383 0 79.685440063476562
v 19.960878372192383 0 75.886619567871094
v 20.697494506835938 0 75.886619567871094
v 20.697494506835938 0 75.525177001953125
v 20.468528747558594 0 75.525177001953125
v 20.468528747558594 0 75.703483581542969
v 19.785760879516602 0 75.703483581542969
v 12.352913856506348 0 84.974899291992188
v 12.352913856506348 0 85.443344116210938
v 13.069929122924805 0 85.443344116210938
v 13.069929122924805 0 84.974899291992188
v 12.734458923339844 0 84.974899291992188
v 12.734458923339844 0 81.408973693847656
v 12.595141410827637 0 81.408973693847656
v 12.595141410827637 0 84.974899291992188
v 2.1229538917541504 0 77.443161010742188
v 2.5544073581695557 0 77.443161010742188
v 2.5544073581695557 0 76.567436218261719
v 2.1229538917541504 0 76.567436218261719
v 2.1229538917541504 0 79.952880859375
v 2.5512626171112061 0 79.952880859375
v 2.5512626171112061 0 79.57183837890625
v 2.1229538917541504 0 79.57183837890625
v -1.0154860019683838 0 80.021614074707031
v -0.54002892971038818 0 80.021614074707031
v -0.54002892971038818 0 78.585945129394531
v -1.0154860019683838 0 78.585945129394531
v -0.88665705919265747 0 70.351280212402344
v -0.58665704727172852 0 70.351280212402344
v -0.58665704727172852 0 70.051284790039062
v -0.88665705919265747 0 70.051284790039062
v 9.9287605285644531 0 70.351280212402344
v 10.228760719299316 0 70.351280212402344
v 10.228760719299316 0 70.051284790039062
v 9.9287605285644531 0 70.051284790039062
v 25.279506683349609 0 70.351280212402344
v 25.579505920410156 0 70.351280212402344
v 25.579505920410156 0 70.051284790039062
v 25.279506683349609 0 70.051284790039062
v 49.600772857666016 0 70.351280212402344
v 49.900772094726562 0 70.351280212402344
v 49.900772094726562 0 70.051284790039062
v 49.600772857666016 0 70.051284790039062
v 59.991813659667969 0 70.351280212402344
v 60.291816711425781 0 70.351280212402344
v 60.291816711425781 0 70.051284790039062
v 59.991813659667969 0 70.051284790039062
v 4.7708406448364258 0 71.721534729003906
v 4.7708406448364258 0 71.421531677246094
v 4.4708404541015625 0 71.421531677246094
v 4.4708404541015625 0 71.721534729003906
v 4.2145419120788574 0 71.721534729003906
v 4.2145419120788574 0 72.196990966796875
v 5.343752384185791 0 72.196990966796875
v 5.343752384185791 0 74.290237426757812
v 5.501835823059082 0 74.290237426757812
v 5.501835823059082 0 72.196990966796875
v 6.1670961380004883 0 72.196990966796875
v 6.1670961380004883 0 71.721534729003906
v 20.587898254394531 0 71.721534729003906
v 20.587898254394531 0 71.421531677246094
v 20.287899017333984 0 71.421531677246094
v 20.287899017333984 0 71.721534729003906
v 19.20250129699707 0 71.721534729003906
v 19.20250129699707 0 72.196990966796875
v 20.528661727905273 0 72.197013854980469
v 20.528661727905273 0 74.64361572265625
v 20.677242279052734 0 74.64361572265625
v 20.677242279052734 0 72.197013854980469
v 20.922609329223633 0 72.196990966796875
v 20.922609329223633 0 71.721534729003906
v 44.701278686523438 0 71.721534729003906
v 44.701278686523438 0 71.421531677246094
v 44.401279449462891 0 71.421531677246094
v 44.401279449462891 0 71.721534729003906
v 44.034069061279297 0 71.721534729003906
v 44.034069061279297 0 72.196990966796875
v 44.568958282470703 0 72.196990966796875
v 44.568958282470703 0 74.508750915527344
v 44.714374542236328 0 74.508750915527344
v 44.714374542236328 0 72.196990966796875
v 45.163280487060547 0 72.196990966796875
v 45.163280487060547 0 71.721534729003906
v 49.900772094726562 0 71.721534729003906
v 49.900772094726562 0 71.421531677246094
v 49.600772857666016 0 71.421531677246094
v 49.600772857666016 0 71.721534729003906
v 49.474830627441406 0 71.721534729003906
v 49.474830627441406 0 72.196990966796875
v 50.215011596679688 0 72.196990966796875
v 50.215011596679688 0 71.721534729003906
v 60.015644073486328 0 82.122154235839844
v 60.015644073486328 0 82.709465026855469
v 60.378677368164062 0 82.709465026855469
v 60.378677368164062 0 82.122154235839844
v 56.803447723388672 0 77.446830749511719
v 56.803447723388672 0 77.974884033203125
v 56.989017486572266 0 77.974906921386719
v 56.989017486572266 0 77.446846008300781
f 708 298 707
f 298 299 300 707
f 705 298 708
f 705 706 294 295
f 297 298 705
f 706 707 300
f 295 297 705
f 300 301 302 706
f 706 302 727 294
f 727 302 303 726
f 296 297 295
f 285 286 287
f 729 292 727
f 292 293 294 727
f 728 729 727
f 292 729 730 291
f 289 291 730
f 289 290 291
f 712 305 308
f 306 308 305
f 305 709 303
f 304 305 303
f 193 726 303
f 193 303 709
f 709 191 193
f 709 305 712
f 711 712 308
f 308 311 711
f 710 630 190
f 709 710 190 191
f 190 630 631
f 710 711 312 313
f 307 308 306
f 726 736 725
f 726 193 736
f 194 735 736 193
f 733 734 735
f 190 188 189
f 188 631 628 187
f 631 188 190
f 192 193 191
f 733 735 194
f 732 730 731
f 282 283 284 285
f 282 288 281
f 281 278 280
f 288 282 285
f 288 285 287
f 732 733 202 203
f 289 732 203
f 288 289 203
f 281 288 203
f 289 730 732
f 203 204 281
f 278 281 204
f 280 278 279
f 696 278 204
f 204 695 696
f 204 215 695
f 277 278 696
f 215 204 206
f 204 205 206
f 206 207 213
f 213 214 215
f 206 213 215
f 201 202 200
f 200 202 733
f 184 185 186
f 187 184 186
f 184 178 183
f 183 181 182
f 177 184 187
f 195 200 733
f 187 628 177
f 184 177 178
f 174 172 173
f 628 176 177
f 180 183 178
f 179 180 178
f 208 209 207
f 199 197 198
f 210 212 207
f 213 207 212
f 209 210 207
f 211 212 210
f 195 196 200
f 183 180 181
f 167 170 171
f 171 174 165
f 170 167 169
f 165 174 175
f 200 196 199
f 172 174 171
f 171 165 167
f 733 194 195
f 310 311 309
f 311 312 711
f 314 644 645 313
f 710 313 630
f 322 323 324
f 317 318 315 316
f 124 315 318
f 644 314 315
f 645 647 630
f 645 630 313
f 645 646 647
f 643 644 125
f 629 630 647
f 124 125 644
f 124 644 315
f 738 739 319 320
f 124 318 739
f 124 741 742 123
f 739 741 124
f 739 740 741
f 739 318 319
f 643 125 126 649
f 309 311 308
f 716 321 322
f 325 715 716
f 321 716 713 320
f 634 320 713
f 716 322 324
f 326 327 325
f 327 328 715
f 328 329 714 715
f 334 331 332 333
f 325 327 715
f 716 324 325
f 714 74 75 713
f 748 737 738
f 634 713 75
f 634 738 320
f 748 634 635 747
f 738 634 748
f 75 633 634
f 77 633 75
f 330 62 63 329
f 62 330 331
f 329 63 74 714
f 74 63 65 72
f 60 62 642
f 642 62 331
f 647 648 629
f 649 126 176
f 176 648 649
f 684 122 744
f 176 629 648
f 176 126 127
f 123 742 744
f 747 636 746
f 745 746 636
f 122 123 744
f 635 636 747
f 122 684 670
f 744 682 684
f 165 175 164
f 128 175 176
f 164 175 129
f 683 684 682
f 176 127 128
f 80 681 745
f 744 745 681 682
f 681 83 680
f 636 80 745
f 742 743 744
f 679 680 609
f 629 176 628
f 75 76 77
f 78 79 637
f 78 632 633 77
f 637 638 632
f 74 72 73
f 62 60 61
f 64 65 63
f 72 65 66 71
f 69 70 71
f 637 632 78
f 82 83 80 81
f 80 83 681
f 79 80 637
f 71 66 68 69
f 637 80 636
f 57 58 59
f 66 67 68
f 608 680 83
f 59 639 56 57
f 60 642 639 59
f 275 276 274
f 704 276 277 703
f 274 276 704
f 703 277 693
f 701 274 704
f 693 277 696
f 222 225 226
f 694 695 215
f 226 221 222
f 227 231 226
f 215 216 694
f 225 222 223
f 693 694 703
f 694 699 703
f 703 699 700
f 694 217 699
f 217 698 699
f 251 697 698
f 217 218 698
f 234 698 218
f 700 702 703
f 694 216 217
f 232 219 220 231
f 234 219 232
f 221 226 220
f 220 226 231
f 234 218 219
f 697 702 700
f 197 199 196
f 158 160 157
f 158 159 160
f 167 168 169
f 161 162 160
f 230 231 228
f 229 230 228
f 238 239 237
f 231 227 228
f 162 157 160
f 155 156 157
f 155 157 162
f 151 152 150
f 223 224 225
f 165 166 167
f 234 232 233
f 271 273 701
f 274 701 273
f 270 271 701
f 272 273 271
f 267 268 269 266
f 270 702 697
f 251 698 234
f 251 269 270
f 266 269 256
f 264 265 266
f 269 252 253
f 270 701 702
f 266 257 264
f 264 257 258 263
f 258 261 263
f 262 263 261
f 260 261 258
f 269 253 256
f 256 253 254 255
f 258 259 260
f 256 257 266
f 697 251 270
f 234 235 250 251
f 240 241 235
f 250 242 249
f 235 241 250
f 241 242 250
f 237 235 236
f 237 239 240
f 150 152 691
f 153 691 152
f 150 691 149
f 269 251 252
f 242 243 244 245
f 237 240 235
f 148 691 685
f 249 242 248
f 248 242 245
f 248 245 246 247
f 148 685 686 147
f 147 145 146
f 145 147 686
f 687 145 686
f 148 149 691
f 691 692 685
f 129 130 164
f 611 679 610
f 129 175 128
f 678 679 611
f 130 131 132 133
f 84 607 608
f 84 608 83
f 91 607 84
f 91 606 607
f 606 92 611
f 670 121 122
f 91 84 85 90
f 609 680 608
f 678 611 92
f 154 155 162 163
f 133 154 163
f 134 154 133
f 130 133 163
f 153 154 134
f 670 671 121
f 673 671 672
f 690 134 135
f 677 678 92
f 163 164 130
f 85 86 87
f 90 85 87
f 90 88 89
f 87 88 90
f 606 91 92
f 53 54 52
f 52 54 51
f 93 94 95
f 54 22 49
f 49 51 54
f 92 93 98 99
f 677 92 99
f 99 100 677
f 96 97 98
f 95 96 93
f 50 51 49
f 98 93 96
f 30 46 47
f 100 676 677
f 679 609 610
f 690 691 153
f 688 141 142 687
f 690 141 688
f 135 136 690
f 690 153 134
f 688 689 690
f 117 121 673
f 676 674 675
f 673 674 116 117
f 137 140 690
f 141 690 140
f 116 674 102
f 121 671 673
f 137 690 136
f 144 687 142
f 142 143 144
f 145 687 144
f 139 140 137 138
f 117 120 121
f 120 118 119
f 118 120 117
f 674 676 102
f 101 102 100
f 663 116 102
f 114 115 116
f 663 114 116
f 114 663 664 113
f 663 102 662
f 100 102 676
f 107 662 103
f 104 105 103
f 102 103 662
f 103 106 107
f 105 106 103
f 37 44 30
f 662 107 108 665
f 111 112 113
f 111 113 664
f 664 665 110
f 111 664 110
f 108 110 665
f 45 30 44
f 44 37 38 43
f 108 109 110
f 43 38 40 41
f 41 42 43
f 338 339 340
f 15 334 335
f 15 335 336 14
f 641 334 15
f 331 334 641 642
f 337 338 343 344
f 343 338 340 341
f 344 345 336 337
f 345 627 336
f 641 15 17
f 641 17 18 640
f 16 17 15
f 640 21 639
f 13 14 12
f 14 336 627
f 12 14 627
f 12 627 620 11
f 560 626 627
f 560 562 626
f 562 560 561
f 627 345 560
f 626 562 563 625
f 559 560 345 346
f 348 349 350 347
f 559 346 347
f 355 356 354
f 357 354 356
f 751 350 351
f 352 353 720 717
f 619 347 350
f 557 558 559
f 559 619 557
f 619 751 618
f 557 619 612 556
f 619 559 347
f 352 750 751 351
f 618 751 753
f 750 760 749
f 618 753 754 617
f 751 752 753
f 751 619 350
f 484 750 352
f 341 342 343
f 19 20 18
f 622 10 11
f 622 11 620
f 10 622 9
f 623 563 564
f 563 623 625
f 620 621 622
f 20 21 640 18
f 1 2 622
f 2 3 9
f 622 2 9
f 639 21 56
f 603 604 623
f 622 604 1
f 601 603 623
f 603 601 602
f 601 623 564
f 1 604 605
f 622 623 604
f 614 555 556
f 614 556 612
f 612 613 614
f 614 615 549 550
f 555 550 552
f 554 555 552
f 615 616 617
f 615 617 754
f 757 758 759
f 754 755 615
f 551 552 550
f 547 548 543 544
f 624 625 623
f 552 553 554
f 546 547 544
f 615 756 549
f 756 615 755
f 756 757 489 490
f 756 490 548 549
f 491 548 490
f 766 767 479
f 485 757 759
f 550 555 614
f 354 720 353
f 357 720 354
f 359 360 357
f 719 720 357
f 484 485 759 760
f 750 484 760
f 484 763 483
f 484 352 717
f 357 360 719
f 360 718 719
f 762 763 717 718
f 718 465 762
f 765 483 763
f 465 718 360
f 484 717 763
f 359 357 358
f 483 765 766 482
f 482 480 481
f 766 480 482
f 762 768 761
f 768 466 467 767
f 762 465 466
f 466 768 762
f 764 765 763
f 467 479 767
f 465 360 362
f 757 485 486
f 360 361 362
f 364 365 363
f 362 363 651 652
f 362 652 465
f 723 724 367
f 366 724 365
f 722 723 367
f 365 724 721
f 721 722 370 371
f 363 365 721
f 722 367 368
f 367 724 366
f 373 363 721
f 652 653 654
f 652 654 465
f 651 661 650
f 661 651 373
f 654 655 464 465
f 371 372 373
f 363 373 651
f 370 368 369
f 368 370 722
f 661 373 374 660
f 373 721 371
f 657 463 464
f 657 464 655
f 463 657 460
f 655 656 657
f 457 458 657 658
f 658 376 457
f 660 658 659
f 462 463 460
f 458 460 657
f 489 487 488
f 489 757 487
f 469 479 468
f 476 477 475
f 486 487 757
f 543 548 491
f 458 459 460
f 453 450 451
f 460 461 462
f 766 479 480
f 468 479 467
f 376 660 374
f 375 376 374
f 380 377 378
f 377 387 376
f 376 387 457
f 382 380 381
f 380 383 377
f 383 384 386
f 383 386 377
f 380 382 383
f 379 380 378
f 377 386 387
f 456 457 455
f 451 452 453
f 453 454 449
f 387 388 449 454
f 453 449 450
f 454 455 387
f 384 385 386
f 392 389 391
f 390 391 389
f 449 388 448
f 457 387 455
f 660 376 658
f 389 448 388
f 8 9 6 7
f 23 24 25
f 21 22 55
f 23 48 22
f 49 22 48
f 6 9 4
f 588 590 595
f 590 592 595
f 597 599 596
f 4 9 3
f 593 594 595
f 29 48 28
f 28 48 23
f 26 27 28
f 47 29 30
f 23 26 28
f 46 30 45
f 23 25 26
f 596 599 588
f 592 593 595
f 588 589 590
f 596 588 595
f 597 598 599
f 47 48 29
f 539 537 538
f 541 536 539
f 540 541 539
f 536 537 539
f 544 545 546
f 492 493 491
f 542 534 541
f 491 493 542
f 493 494 495 496
f 543 491 542
f 493 533 542
f 566 585 587
f 599 600 587
f 565 600 601
f 566 587 565
f 585 586 587
f 566 567 584 585
f 587 600 565
f 535 536 534
f 534 536 541
f 496 532 533
f 496 533 493
f 534 542 533
f 530 531 529
f 599 587 588
f 565 601 564
f 33 31 32
f 34 36 33
f 36 37 30
f 33 36 30
f 4 5 6
f 583 581 582
f 574 581 583
f 583 584 574
f 592 590 591
f 35 36 34
f 38 39 40
f 575 580 581 574
f 577 580 575
f 578 580 577
f 576 577 575
f 579 580 578
f 33 30 31
f 573 584 570
f 567 570 584
f 567 569 570
f 571 573 570
f 569 567 568
f 574 584 573
f 528 529 531
f 528 531 514
f 514 527 528
f 514 531 532
f 514 524 527
f 532 496 497
f 527 525 526
f 571 572 573
f 527 524 525
f 523 667 668 522
f 523 514 667
f 667 514 666
f 668 520 522
f 522 520 521
f 520 668 669
f 519 520 669
f 666 516 517 669
f 514 523 524
f 532 497 499
f 54 55 22
f 474 475 477 472
f 478 471 472 477
f 438 440 441
f 438 439 440
f 437 441 435
f 448 445 446 447
f 441 437 438
f 441 443 435
f 473 474 472
f 498 499 497
f 436 437 435
f 471 469 470
f 500 501 502
f 478 469 471
f 479 469 478
f 442 443 441
f 445 448 773
f 776 773 448
f 774 445 773
f 774 444 445
f 774 399 444
f 444 434 443
f 392 775 776
f 389 776 448
f 392 776 389
f 393 394 392
f 775 392 395
f 394 395 392
f 775 399 774
f 775 395 398
f 444 399 434
f 775 398 399
f 433 434 399 400
f 397 398 395 396
f 402 403 404
f 404 405 402
f 408 406 407
f 400 401 433
f 435 443 434
f 402 433 401
f 513 514 499 500
f 666 514 516
f 514 515 516
f 512 513 511
f 514 532 499
f 513 504 511
f 504 513 503
f 511 504 505 510
f 430 770 427
f 503 513 502
f 770 430 431
f 519 517 518
f 510 508 509
f 510 505 507 508
f 669 517 519
f 507 505 506
f 428 429 430 427
f 500 502 513
f 433 402 769
f 769 402 405
f 769 405 406 772
f 426 427 770
f 426 419 420 425
f 426 770 419
f 419 413 418
f 431 432 769 770
f 772 406 408
f 771 772 408
f 413 770 412
f 771 412 770
f 415 418 413
f 419 770 413
f 412 771 409
f 423 424 425
f 422 425 420
f 423 425 422
f 421 422 420
f 413 414 415
f 415 416 417 418
f 411 409 410
f 409 411 412
f 408 409 771
f 769 432 433
f 56 21 55
