# Rhino

g object_1
v -0.87283790111541748 0 22.846294403076172
v 19.883106231689453 0 21.167224884033203
v 22.198114395141602 0 21.167224884033203
v 22.198114395141602 0 20.667224884033203
v 22.824804306030273 0 20.667224884033203
v 22.824804306030273 0 21.167224884033203
v 25.163503646850586 0 21.167224884033203
v 25.163503646850586 0 19.271980285644531
v 25.497701644897461 0 19.271980285644531
v 25.497701644897461 0 20.667224884033203
v 25.843503952026367 0 20.667224884033203
v 25.843503952026367 0 21.167224884033203
v 28.137914657592773 0 21.167224884033203
v 28.137914657592773 0 20.667224884033203
v 28.972461700439453 0 20.667224884033203
v 28.972461700439453 0 21.167224884033203
v 31.193166732788086 0 21.167224884033203
v 31.193166732788086 0 20.667224884033203
v 32.044357299804688 0 20.667224884033203
v 32.044357299804688 0 21.167224884033203
v 34.295970916748047 0 21.167224884033203
v 34.295970916748047 0 20.667224884033203
v 35.071075439453125 0 20.667224884033203
v 35.071075439453125 0 21.167224884033203
v 37.363109588623047 0 21.167224884033203
v 37.363109588623047 0 20.667224884033203
v 38.185768127441406 0 20.667224884033203
v 38.185768127441406 0 21.167224884033203
v 40.435005187988281 0 21.167224884033203
v 40.435005187988281 0 20.667224884033203
v 40.977104187011719 0 20.667224884033203
v 40.977104187011719 0 21.167224884033203
v 42.198661804199219 0 21.167224884033203
v 42.198661804199219 0 20.667224884033203
v 42.800743103027344 0 20.667224884033203
v 42.800743103027344 0 21.167224884033203
v 44.017044067382812 0 21.167224884033203
v 44.017044067382812 0 20.667224884033203
v 45.438312530517578 0 20.667224884033203
v 45.438312530517578 0 15.553656578063965
v 42.417572021484375 0 15.553656578063965
v 42.417572021484375 0 19.734462738037109
v 42.198661804199219 0 19.734462738037109
v 42.198661804199219 0 15.29025936126709
v 47.718864440917969 0 15.29025936126709
v 47.718864440917969 0 13.393447875976562
v 46.505214691162109 0 13.393447875976562
v 46.505214691162109 0 12.593419075012207
v 42.976455688476562 0 12.593419075012207
v 42.976455688476562 0 13.393447875976562
v 41.486640930175781 0 13.393447875976562
v 41.486640930175781 0 12.098340034484863
v 48.234664916992188 0 12.098340034484863
v 48.234664916992188 0 15.648090362548828
v 45.865222930908203 0 15.648090362548828
v 45.865222930908203 0 21.167224884033203
v 47.741405487060547 0 21.167224884033203
v 47.741405487060547 0 20.667224884033203
v 48.241405487060547 0 20.667224884033203
v 48.241405487060547 0 21.167224884033203
v 51.42919921875 0 21.167224884033203
v 51.42919921875 0 20.667224884033203
v 51.92919921875 0 20.667224884033203
v 51.92919921875 0 20.991388320922852
v 52.853126525878906 0 20.991388320922852
v 52.853126525878906 0 21.167224884033203
v 54.490280151367188 0 21.167224884033203
v 54.490280151367188 0 20.667224884033203
v 54.990280151367188 0 20.667224884033203
v 54.990280151367188 0 20.991388320922852
v 55.411205291748047 0 20.991388320922852
v 55.411205291748047 0 15.648090362548828
v 51.550514221191406 0 15.648090362548828
v 51.550514221191406 0 19.316932678222656
v 51.42919921875 0 19.316932678222656
v 51.42919921875 0 14.523755073547363
v 51.576057434082031 0 14.523755073547363
v 51.576057434082031 0 15.201574325561523
v 53.854354858398438 0 15.201574325561523
v 53.854354858398438 0 14.384820938110352
v 54.010944366455078 0 14.384820938110352
v 54.010944366455078 0 15.201574325561523
v 55.411205291748047 0 15.201574325561523
v 55.411205291748047 0 13.335420608520508
v 54.988014221191406 0 13.335420608520508
v 54.988014221191406 0 12.716880798339844
v 54.233386993408203 0 12.716880798339844
v 54.233386993408203 0 12.358087539672852
v 54.010944366455078 0 12.358087539672852
v 54.010944366455078 0 13.463191986083984
v 53.858829498291016 0 13.463191986083984
v 53.858829498291016 0 12.098340034484863
v 55.536922454833984 0 12.098340034484863
v 55.536922454833984 0 20.991388320922852
v 56.691452026367188 0 20.991388320922852
v 56.691452026367188 0 20.667224884033203
v 57.191452026367188 0 20.667224884033203
v 57.191452026367188 0 21.167224884033203
v 59.240917205810547 0 21.167224884033203
v 59.240917205810547 0 20.991388320922852
v 59.879447937011719 0 20.991388320922852
v 59.879447937011719 0 20.667224884033203
v 60.035175323486328 0 20.667224884033203
v 60.035175323486328 0 15.648090362548828
v 59.612598419189453 0 15.648090362548828
v 59.612598419189453 0 15.201574325561523
v 60.035175323486328 0 15.201574325561523
v 60.035175323486328 0 13.750584602355957
v 59.653408050537109 0 13.750584602355957
v 59.653408050537109 0 12.098340034484863
v 60.243515014648438 0 12.098340034484863
v 60.243515014648438 0 7.9454174041748047
v 59.879447937011719 0 7.9454174041748047
v 59.879447937011719 0 7.4454174041748047
v 60.243515014648438 0 7.4454174041748047
v 60.243515014648438 0 6.0990438461303711
v 51.722724914550781 0 6.0944628715515137
v 51.722724914550781 0 7.3020920753479004
v 52.138256072998047 0 7.3020920753479004
v 52.138256072998047 0 7.9454174041748047
v 51.722724914550781 0 7.9454174041748047
v 51.722724914550781 0 12.098340034484863
v 53.165168762207031 0 12.098340034484863
v 53.165168762207031 0 13.344226837158203
v 51.576057434082031 0 13.344226837158203
v 51.576057434082031 0 13.446690559387207
v 51.42919921875 0 13.446690559387207
v 51.42919921875 0 12.098340034484863
v 51.49493408203125 0 12.098340034484863
v 51.49493408203125 0 5.9504828453063965
v 51.751712799072266 0 5.9506969451904297
v 51.751712799072266 0 4.4297518730163574
v 7.9415545463562012 0 4.4321389198303223
v 7.9415545463562012 0 5.7751679420471191
v 7.9415545463562012 0 12.098340034484863
v 14.063998222351074 0 12.098340034484863
v 14.063998222351074 0 13.362581253051758
v 8.8664369583129883 0 13.362581253051758
v 8.8664369583129883 0 12.598340034484863
v 7.9699540138244629 0 12.598340034484863
v 7.9699540138244629 0 13.892379760742188
v 6.1039447784423828 0 13.892379760742188
v 6.1039447784423828 0 12.598340034484863
v 4.447446346282959 0 12.598340034484863
v 4.447446346282959 0 13.167043685913086
v 3.889873743057251 0 13.167043685913086
v 3.889873743057251 0 12.598340034484863
v 3.7417285442352295 0 12.598340034484863
v 2.7625598907470703 0 12.598340034484863
v 2.7625598907470703 0 13.167043685913086
v 2.1229538917541504 0 13.167043685913086
v 2.1229538917541504 0 12.098340034484863
v 7.7586469650268555 0 12.098340034484863
v 7.7586469650268555 0 7.9454174041748047
v 7.3012819290161133 0 7.9454174041748047
v 7.3012819290161133 0 7.4454174041748047
v 7.7586469650268555 0 7.4454174041748047
v 7.7586469650268555 0 5.9580755233764648
v 5.1194615364074707 0 5.9580755233764648
v 5.1194615364074707 0 6.0943613052368164
v -0.83669358491897583 0 6.0943613052368164
v -0.83669358491897583 0 7.4454174041748047
v -0.51548600196838379 0 7.4454174041748047
v -0.51548600196838379 0 7.9454174041748047
v -0.83669358491897583 0 7.9454174041748047
v -0.83669358491897583 0 12.098340034484863
v -0.33336484432220459 0 12.098340034484863
v -0.33336484432220459 0 12.598340034484863
v -0.87283790111541748 0 12.598340034484863
v -0.87283790111541748 0 15.245498657226562
v -0.51548600196838379 0 15.245498657226562
v -0.51548600196838379 0 15.745498657226562
v -0.87283790111541748 0 15.745498657226562
v -0.87283790111541748 0 17.994743347167969
v -0.51548600196838379 0 17.994743347167969
v -0.51548600196838379 0 18.494743347167969
v -0.87283790111541748 0 18.494743347167969
v -0.87283790111541748 0 20.667224884033203
v -0.51548600196838379 0 20.667224884033203
v -0.51548600196838379 0 21.167224884033203
v -0.87283790111541748 0 21.167224884033203
v 14.218829154968262 0 22.846294403076172
v 14.218829154968262 0 21.167224884033203
v 13.797967910766602 0 21.167224884033203
v 13.797967910766602 0 20.667224884033203
v 19.883106231689453 0 20.667224884033203
v 56.577461242675781 0 12.098340034484863
v 57.363842010498047 0 12.098340034484863
v 57.363842010498047 0 13.290095329284668
v 56.577461242675781 0 13.290095329284668
v 41.350021362304688 0 7.4454174041748047
v 41.850021362304688 0 7.4454174041748047
v 41.850021362304688 0 7.9454174041748047
v 41.350021362304688 0 7.9454174041748047
v 46.85064697265625 0 7.9454174041748047
v 46.85064697265625 0 7.4454174041748047
v 47.35064697265625 0 7.4454174041748047
v 47.35064697265625 0 7.9454174041748047
v 36.318733215332031 0 7.4454174041748047
v 36.818733215332031 0 7.4454174041748047
v 36.818733215332031 0 7.9454174041748047
v 36.318733215332031 0 7.9454174041748047
v 37.382625579833984 0 15.680685043334961
v 37.382625579833984 0 15.179956436157227
v 37.885276794433594 0 15.179956436157227
v 37.885276794433594 0 15.680685043334961
v 39.230571746826172 0 12.098340034484863
v 39.230571746826172 0 12.598340034484863
v 39.230571746826172 0 13.588746070861816
v 39.081974029541016 0 13.588746070861816
v 39.081974029541016 0 12.598340034484863
v 37.959568023681641 0 12.598340034484863
v 37.959568023681641 0 13.424924850463867
v 36.436126708984375 0 13.424924850463867
v 36.436126708984375 0 12.098340034484863
v 25.253517150878906 0 7.4454174041748047
v 25.847837448120117 0 7.4454174041748047
v 25.847837448120117 0 8.0789241790771484
v 25.751213073730469 0 8.0789241790771484
v 25.751213073730469 0 10.215902328491211
v 27.500478744506836 0 10.215902328491211
v 27.500478744506836 0 8.0789241790771484
v 27.095912933349609 0 8.0789241790771484
v 27.095912933349609 0 7.4454174041748047
v 28.045051574707031 0 7.4454174041748047
v 28.045051574707031 0 10.654752731323242
v 25.253517150878906 0 10.654752731323242
v 25.253517150878906 0 7.9208745956420898
v 31.057052612304688 0 7.9454174041748047
v 31.057052612304688 0 7.4454174041748047
v 31.557052612304688 0 7.4454174041748047
v 31.557052612304688 0 7.9454174041748047
v 25.497701644897461 0 15.820981025695801
v 25.497701644897461 0 17.346590042114258
v 25.163503646850586 0 17.346590042114258
v 25.163503646850586 0 14.993849754333496
v 25.497701644897461 0 14.993849754333496
v 25.497701644897461 0 15.199105262756348
v 27.492464065551758 0 15.199105262756348
v 27.492464065551758 0 15.001662254333496
v 28.109384536743164 0 15.001662254333496
v 28.109384536743164 0 15.820981025695801
v 25.497701644897461 0 12.598340034484863
v 25.497701644897461 0 13.914637565612793
v 25.192783355712891 0 13.914637565612793
v 25.192783355712891 0 12.098340034484863
v 34.203792572021484 0 12.098340034484863
v 34.203792572021484 0 13.424924850463867
v 30.169342041015625 0 13.424924850463867
v 30.169342041015625 0 12.598340034484863
v 28.109384536743164 0 12.598340034484863
v 28.109384536743164 0 13.931674003601074
v 27.485334396362305 0 13.931674003601074
v 27.485334396362305 0 13.22833251953125
v 26.481975555419922 0 13.22833251953125
v 26.481975555419922 0 12.598340034484863
v 2.1229538917541504 0 15.295718193054199
v 2.7944674491882324 0 15.295718193054199
v 2.7944674491882324 0 15.569601058959961
v 2.1229538917541504 0 15.569601058959961
v 11.56382942199707 0 15.587619781494141
v 11.56382942199707 0 15.254338264465332
v 12.734458923339844 0 15.254338264465332
v 12.734458923339844 0 15.587619781494141
v 3.8579490184783936 0 15.832073211669922
v 3.8579490184783936 0 15.168612480163574
v 7.9699540138244629 0 15.168612480163574
v 7.9699540138244629 0 15.832073211669922
v 10.110527992248535 0 21.167224884033203
v 10.110527992248535 0 20.667224884033203
v 10.610527992248535 0 20.667224884033203
v 10.610527992248535 0 21.167224884033203
v 16.600236892700195 0 15.587619781494141
v 16.600236892700195 0 15.28079891204834
v 17.728954315185547 0 15.28079891204834
v 17.728954315185547 0 15.587619781494141
v 2.683795690536499 0 21.167224884033203
v 2.683795690536499 0 20.667224884033203
v 3.183795690536499 0 20.667224884033203
v 3.183795690536499 0 21.167224884033203
v 13.870455741882324 0 7.9454174041748047
v 13.870455741882324 0 7.4454174041748047
v 14.370455741882324 0 7.4454174041748047
v 14.370455741882324 0 7.9454174041748047
v 6.421478271484375 0 21.167224884033203
v 6.421478271484375 0 20.667224884033203
v 6.921478271484375 0 20.667224884033203
v 6.921478271484375 0 21.167224884033203
v 22.706026077270508 0 15.589564323425293
v 21.567581176757812 0 15.589564323425293
v 21.567581176757812 0 15.28079891204834
v 22.706026077270508 0 15.28079891204834
v 16.395423889160156 0 13.362581253051758
v 16.395423889160156 0 12.598340034484863
v 16.395423889160156 0 12.098340034484863
v 19.79058837890625 0 12.098340034484863
v 19.79058837890625 0 7.9454174041748047
v 19.683609008789062 0 7.9454174041748047
v 19.683609008789062 0 7.6525635719299316
v 19.683609008789062 0 7.3003225326538086
v 21.64735221862793 0 7.3003225326538086
v 21.64735221862793 0 7.6525635719299316
v 21.64735221862793 0 7.9454174041748047
v 21.540372848510742 0 7.9454174041748047
v 21.540372848510742 0 12.098340034484863
v 22.921514511108398 0 12.098340034484863
v 22.921514511108398 0 12.598340034484863
v 22.921514511108398 0 13.362581253051758
v 21.385948181152344 0 13.362581253051758
v 21.385948181152344 0 12.598340034484863
v 21.385948181152344 0 7.9454174041748047
v 21.278968811035156 0 7.9454174041748047
v 21.278968811035156 0 7.6525635719299316
v 20.051992416381836 0 7.6525635719299316
v 20.051992416381836 0 7.9454174041748047
v 19.945013046264648 0 7.9454174041748047
v 19.945013046264648 0 12.598340034484863
v 19.945013046264648 0 13.362581253051758
f 180 181 1
f 180 277 278 179
f 1 277 180
f 277 1 280
f 178 179 176 177
f 176 179 278
f 279 176 278
f 280 285 286 279
f 1 285 280
f 269 270 287 288
f 288 182 269
f 269 182 272
f 288 285 1
f 176 279 286
f 268 176 287
f 270 268 287
f 176 286 287
f 264 271 185
f 1 182 288
f 271 268 270
f 175 173 174
f 265 260 172
f 173 175 172
f 265 259 260
f 171 172 260 257
f 171 151 170
f 266 258 259
f 257 151 171
f 258 266 257
f 175 265 172
f 175 268 265
f 271 261 268
f 262 137 141
f 267 268 261
f 268 175 176
f 261 262 267
f 151 257 266
f 267 142 266
f 267 262 141
f 137 138 141
f 141 138 140
f 142 267 141
f 259 265 266
f 271 264 261
f 150 266 142
f 271 272 184 185
f 182 183 184
f 272 182 184
f 3 4 186 2
f 4 8 186
f 5 8 4
f 186 273 185
f 5 6 7
f 185 273 264
f 186 8 235
f 5 7 8
f 11 14 9
f 11 9 10
f 234 235 8 9
f 234 242 233
f 234 9 19
f 234 203 242
f 235 273 186
f 11 12 13 14
f 264 274 263
f 290 291 276
f 235 276 273
f 235 289 290
f 276 235 290
f 262 263 137
f 137 263 274
f 318 293 275 291
f 293 137 274
f 276 291 275
f 293 274 275
f 294 137 293
f 274 264 273
f 292 289 236
f 289 235 236
f 252 253 240 241
f 238 239 240
f 240 237 238
f 292 236 245
f 236 237 244 245
f 244 237 253
f 240 253 237
f 255 243 244
f 292 245 308
f 291 292 308 309
f 253 255 244
f 241 242 204
f 150 151 266
f 148 149 150 146
f 146 147 148
f 167 168 152
f 152 168 151
f 164 167 152
f 168 169 151
f 164 166 167
f 170 151 169
f 145 146 142
f 145 143 144
f 142 143 145
f 294 136 137
f 295 136 294
f 281 135 136
f 140 138 139
f 150 142 146
f 152 153 155 164
f 154 155 153
f 164 155 156 163
f 165 166 164
f 160 161 163 156
f 162 163 161
f 158 159 160
f 156 158 160
f 298 284 295
f 136 284 281
f 295 296 298
f 134 281 282
f 283 284 298 299
f 156 157 158
f 133 134 283
f 283 300 133
f 282 283 134
f 134 135 281
f 136 295 284
f 317 318 309 310
f 309 318 291
f 310 315 317
f 304 305 227
f 306 307 246
f 246 307 308
f 227 306 246
f 227 305 306
f 308 245 246
f 227 246 226
f 243 255 256
f 297 298 296
f 218 219 220
f 220 221 223 218
f 255 253 254
f 312 315 310
f 315 312 313 314
f 310 311 312
f 283 299 300
f 317 315 316
f 228 302 303
f 228 303 227
f 221 222 223
f 216 302 228
f 304 227 303
f 217 301 216
f 302 216 301
f 217 224 133
f 223 224 217 218
f 224 225 133
f 217 133 301
f 133 300 301
f 232 229 226
f 230 133 225
f 18 16 17
f 19 22 234
f 21 22 19 20
f 234 22 203
f 18 15 16
f 29 27 28
f 43 23 26
f 26 23 24 25
f 36 37 38 35
f 32 33 34 31
f 203 22 23
f 15 18 9
f 30 43 27
f 19 9 18
f 27 43 26
f 23 43 203
f 203 204 242
f 44 205 206
f 203 43 206
f 31 34 43
f 31 43 30
f 205 210 204
f 29 30 27
f 241 204 248
f 42 43 34
f 42 35 38
f 42 38 39
f 42 34 35
f 44 206 43
f 41 42 39 40
f 44 209 205
f 58 75 55
f 44 45 47
f 55 56 58
f 15 9 14
f 60 61 62 59
f 59 75 58
f 68 63 65
f 75 59 62
f 65 63 64
f 62 63 74
f 65 66 67
f 56 57 58
f 99 100 98
f 94 96 105
f 69 70 71
f 95 96 94
f 98 100 97
f 101 102 100
f 65 67 68
f 74 63 68
f 75 54 55
f 62 74 75
f 73 74 72
f 74 68 69
f 76 77 126 127
f 77 78 79
f 80 77 79
f 76 127 54
f 69 71 72
f 54 75 76
f 105 96 97
f 105 97 102
f 69 72 74
f 100 102 97
f 103 104 102
f 105 106 190
f 190 106 109
f 104 105 102
f 83 81 82
f 190 94 105
f 106 107 108 109
f 249 252 241
f 248 204 214
f 213 214 204
f 214 215 247 248
f 249 241 248
f 246 247 226
f 249 250 251
f 202 247 215
f 247 202 226
f 212 213 210 211
f 249 251 252
f 205 209 210
f 44 51 209
f 47 50 44
f 49 50 47
f 47 45 46
f 51 208 209
f 49 47 48
f 52 208 51
f 44 50 51
f 204 210 213
f 226 229 225
f 202 215 201
f 202 232 226
f 201 194 191 200
f 207 201 215
f 231 232 202 199
f 231 132 230
f 132 199 200
f 132 200 191
f 199 132 231
f 194 201 207
f 229 230 225
f 193 194 52
f 207 52 194
f 52 53 195 193
f 127 128 53
f 198 53 128
f 196 192 193 195
f 130 198 129
f 130 196 197
f 198 195 53
f 130 192 196
f 198 128 129
f 52 207 208
f 132 191 192
f 53 54 127
f 90 91 81
f 80 81 91
f 84 90 81
f 91 126 80
f 91 92 124
f 91 124 126
f 126 124 125
f 90 85 87
f 84 85 90
f 83 84 81
f 189 190 109
f 109 110 189
f 93 94 190
f 88 89 87
f 85 86 87
f 87 89 90
f 92 120 123
f 122 120 121
f 123 124 92
f 114 119 120
f 120 122 123
f 198 130 197
f 116 117 119
f 130 131 132
f 117 118 119
f 192 130 132
f 92 93 120
f 113 93 187
f 113 188 110
f 189 110 188
f 113 110 111
f 190 187 93
f 113 187 188
f 113 114 120
f 114 115 116
f 112 113 111
f 114 116 119
f 113 120 93
f 126 77 80
f 133 230 132
