
CASCADE Topology V3, (c) Open Cascade
Locations 0
Curve2ds 248
1 -30.432788545958378 -1.6836989008352141 -1 0 
1 -30.432788545958378 -1.6836989008352141 -1 0 
1 -31.104301545958378 -1.6836989008352141 0 1 
1 -31.104301545958378 -1.6836989008352141 0 1 
1 -31.104301545958378 -1.4098159008352145 1 0 
1 -31.104301545958378 -1.4098159008352145 1 0 
1 -30.432788545958378 -1.4098159008352145 0 -1 
1 -30.432788545958378 -1.4098159008352145 0 -1 
1 8.6227654540416196 5.9404850991647864 -1 0 
1 8.6227654540416196 5.9404850991647864 -1 0 
1 8.1227654540416196 5.9404850991647864 0 1 
1 8.1227654540416196 5.9404850991647864 0 1 
1 8.1227654540416196 6.4404850991647864 1 0 
1 8.1227654540416196 6.4404850991647864 1 0 
1 8.6227654540416196 6.4404850991647864 0 -1 
1 8.6227654540416196 6.4404850991647864 0 -1 
1 3.0914774540416232 6.4404850991647864 1 0 
1 3.0914774540416232 6.4404850991647864 1 0 
1 3.5914774540416232 6.4404850991647864 0 -1 
1 3.5914774540416232 6.4404850991647864 0 -1 
1 3.5914774540416232 5.9404850991647864 -1 0 
1 3.5914774540416232 5.9404850991647864 -1 0 
1 3.0914774540416232 5.9404850991647864 0 1 
1 3.0914774540416232 5.9404850991647864 0 1 
1 -2.1702025459583787 6.4404850991647864 1 0 
1 -2.1702025459583787 6.4404850991647864 1 0 
1 -1.6702025459583787 6.4404850991647864 0 -1 
1 -1.6702025459583787 6.4404850991647864 0 -1 
1 -1.6702025459583787 5.9404850991647864 -1 0 
1 -1.6702025459583787 5.9404850991647864 -1 0 
1 -2.1702025459583787 5.9404850991647864 0 1 
1 -2.1702025459583787 5.9404850991647864 0 1 
1 -26.805777545958378 -7.2813229008352121 0 1 
1 -26.805777545958378 -7.2813229008352121 0 1 
1 -26.805777545958378 -6.7813229008352121 1 0 
1 -26.805777545958378 -6.7813229008352121 1 0 
1 -26.305777545958378 -6.7813229008352121 0 -1 
1 -26.305777545958378 -6.7813229008352121 0 -1 
1 -26.305777545958378 -7.2813229008352121 -1 0 
1 -26.305777545958378 -7.2813229008352121 -1 0 
1 -30.043459545958378 -6.7813229008352121 0 -1 
1 -30.043459545958378 -6.7813229008352121 0 -1 
1 -30.043459545958378 -7.2813229008352121 -1 0 
1 -30.043459545958378 -7.2813229008352121 -1 0 
1 -30.543459545958378 -7.2813229008352121 0 1 
1 -30.543459545958378 -7.2813229008352121 0 1 
1 -30.543459545958378 -6.7813229008352121 1 0 
1 -30.543459545958378 -6.7813229008352121 1 0 
1 -23.116727545958376 -7.2813229008352121 0 1 
1 -23.116727545958376 -7.2813229008352121 0 1 
1 -23.116727545958376 -6.7813229008352121 1 0 
1 -23.116727545958376 -6.7813229008352121 1 0 
1 -22.616727545958376 -6.7813229008352121 0 -1 
1 -22.616727545958376 -6.7813229008352121 0 -1 
1 -22.616727545958376 -7.2813229008352121 -1 0 
1 -22.616727545958376 -7.2813229008352121 -1 0 
1 -18.856799545958378 6.4404850991647864 0 -1 
1 -18.856799545958378 6.4404850991647864 0 -1 
1 -18.856799545958378 5.9404850991647864 -1 0 
1 -18.856799545958378 5.9404850991647864 -1 0 
1 -19.356799545958378 5.9404850991647864 0 1 
1 -19.356799545958378 5.9404850991647864 0 1 
1 -19.356799545958378 6.4404850991647864 1 0 
1 -19.356799545958378 6.4404850991647864 1 0 
1 13.623391454041624 5.9404850991647864 0 1 
1 13.623391454041624 5.9404850991647864 0 1 
1 13.623391454041624 6.4404850991647864 1 0 
1 13.623391454041624 6.4404850991647864 1 0 
1 14.123391454041624 6.4404850991647864 0 -1 
1 14.123391454041624 6.4404850991647864 0 -1 
1 14.123391454041624 5.9404850991647864 -1 0 
1 14.123391454041624 5.9404850991647864 -1 0 
1 4.6580214540416236 -1.2940539008352143 0 -1 
1 4.6580214540416236 -1.2940539008352143 0 -1 
1 4.6580214540416236 -1.7947829008352141 -1 0 
1 4.6580214540416236 -1.7947829008352141 -1 0 
1 4.1553704540416234 -1.7947829008352141 0 1 
1 4.1553704540416234 -1.7947829008352141 0 1 
1 4.1553704540416234 -1.2940539008352143 1 0 
1 4.1553704540416234 -1.2940539008352143 1 0 
1 -15.498301545958377 -1.701717900835213 -1 0 
1 -15.498301545958377 -1.701717900835213 -1 0 
1 -16.627018545958379 -1.701717900835213 0 1 
1 -16.627018545958379 -1.701717900835213 0 1 
1 -16.627018545958379 -1.3948969008352137 1 0 
1 -16.627018545958379 -1.3948969008352137 1 0 
1 -15.498301545958377 -1.3948969008352137 0 -1 
1 -15.498301545958377 -1.3948969008352137 0 -1 
1 -10.521229545958377 -1.703661900835213 -1 0 
1 -10.521229545958377 -1.703661900835213 -1 0 
1 -11.659674545958378 -1.703661900835213 0 1 
1 -11.659674545958378 -1.703661900835213 0 1 
1 -11.659674545958378 -1.3948969008352137 1 0 
1 -11.659674545958378 -1.3948969008352137 1 0 
1 -10.521229545958377 -1.3948969008352137 0 -1 
1 -10.521229545958377 -1.3948969008352137 0 -1 
1 -20.492796545958377 -1.701717900835213 -1 0 
1 -20.492796545958377 -1.701717900835213 -1 0 
1 -21.66342654595838 -1.701717900835213 0 1 
1 -21.66342654595838 -1.701717900835213 0 1 
1 -21.66342654595838 -1.3684359008352143 1 0 
1 -21.66342654595838 -1.3684359008352143 1 0 
1 -20.492796545958377 -1.3684359008352143 0 -1 
1 -20.492796545958377 -1.3684359008352143 0 -1 
1 23.350205454041621 0.59580709916478547 0 1 
1 23.350205454041621 0.59580709916478547 0 1 
1 23.350205454041621 1.787562099164786 1 0 
1 23.350205454041621 1.787562099164786 1 0 
1 24.13658645404162 1.787562099164786 0 -1 
1 24.13658645404162 1.787562099164786 0 -1 
1 24.13658645404162 0.59580709916478547 -1 0 
1 24.13658645404162 0.59580709916478547 -1 0 
1 -29.369306545958377 -1.2827099008352132 1 0 
1 -29.369306545958377 -1.2827099008352132 1 0 
1 -25.257301545958377 -1.2827099008352132 0 -1 
1 -25.257301545958377 -1.2827099008352132 0 -1 
1 -25.257301545958377 -1.946170900835213 -1 0 
1 -25.257301545958377 -1.946170900835213 -1 0 
1 -29.369306545958377 -1.946170900835213 0 1 
1 -29.369306545958377 -1.946170900835213 0 1 
1 4.7323124540416188 0.46097709916478635 -1 0 
1 4.7323124540416188 0.46097709916478635 -1 0 
1 3.2088714540416206 0.46097709916478635 0 1 
1 3.2088714540416206 0.46097709916478635 0 1 
1 3.2088714540416206 1.787562099164786 1 0 
1 3.2088714540416206 1.787562099164786 1 0 
1 6.0033164540416237 1.787562099164786 0 -1 
1 6.0033164540416237 1.787562099164786 0 -1 
1 6.0033164540416237 0.29715609916478591 -1 0 
1 6.0033164540416237 0.29715609916478591 -1 0 
1 5.8547184540416239 0.29715609916478591 0 1 
1 5.8547184540416239 0.29715609916478591 0 1 
1 5.8547184540416239 1.287562099164786 -1 0 
1 5.8547184540416239 1.287562099164786 -1 0 
1 4.7323124540416188 1.287562099164786 0 -1 
1 4.7323124540416188 1.287562099164786 0 -1 
1 -5.1178705459583789 -1.1157599008352133 0 -1 
1 -5.1178705459583789 -1.1157599008352133 0 -1 
1 -5.1178705459583789 -1.9350789008352134 -1 0 
1 -5.1178705459583789 -1.9350789008352134 -1 0 
1 -7.7295535459583782 -1.9350789008352134 0 -1 
1 -7.7295535459583782 -1.9350789008352134 0 -1 
1 -7.7295535459583782 -3.4606879008352127 -1 0 
1 -7.7295535459583782 -3.4606879008352127 -1 0 
1 -8.0637515459583788 -3.4606879008352127 0 1 
1 -8.0637515459583788 -3.4606879008352127 0 1 
1 -8.0637515459583788 -1.1079479008352138 1 0 
1 -8.0637515459583788 -1.1079479008352138 1 0 
1 -7.7295535459583782 -1.1079479008352138 0 -1 
1 -7.7295535459583782 -1.1079479008352138 0 -1 
1 -7.7295535459583782 -1.3132029008352131 1 0 
1 -7.7295535459583782 -1.3132029008352131 1 0 
1 -5.7347915459583803 -1.3132029008352131 0 1 
1 -5.7347915459583803 -1.3132029008352131 0 1 
1 -5.7347915459583803 -1.1157599008352133 1 0 
1 -5.7347915459583803 -1.1157599008352133 1 0 
1 -5.1822035459583802 6.4404850991647864 0 -1 
1 -5.1822035459583802 6.4404850991647864 0 -1 
1 -5.1822035459583802 3.2311490991647869 -1 0 
1 -5.1822035459583802 3.2311490991647869 -1 0 
1 -7.9737385459583798 3.2311490991647869 0 1 
1 -7.9737385459583798 3.2311490991647869 0 1 
1 -7.9737385459583798 6.4404850991647864 1 0 
1 -7.9737385459583798 6.4404850991647864 1 0 
1 -7.3794185459583801 6.4404850991647864 0 -1 
1 -7.3794185459583801 6.4404850991647864 0 -1 
1 -7.3794185459583801 5.8069780991647857 -1 0 
1 -7.3794185459583801 5.8069780991647857 -1 0 
1 -7.4760425459583786 5.8069780991647857 0 -1 
1 -7.4760425459583786 5.8069780991647857 0 -1 
1 -7.4760425459583786 3.6700000991647865 1 0 
1 -7.4760425459583786 3.6700000991647865 1 0 
1 -5.7267765459583799 3.6700000991647865 0 1 
1 -5.7267765459583799 3.6700000991647865 0 1 
1 -5.7267765459583799 5.8069780991647857 -1 0 
1 -5.7267765459583799 5.8069780991647857 -1 0 
1 -6.131342545958379 5.8069780991647857 0 1 
1 -6.131342545958379 5.8069780991647857 0 1 
1 -6.131342545958379 6.4404850991647864 1 0 
1 -6.131342545958379 6.4404850991647864 1 0 
1 -3.0579135459583782 0.46097709916478635 0 1 
1 -3.0579135459583782 0.46097709916478635 0 1 
1 -3.0579135459583782 1.287562099164786 -1 0 
1 -3.0579135459583782 1.287562099164786 -1 0 
1 -5.1178705459583789 1.287562099164786 0 -1 
1 -5.1178705459583789 1.287562099164786 0 -1 
1 -5.1178705459583789 -0.045771900835212875 -1 0 
1 -5.1178705459583789 -0.045771900835212875 -1 0 
1 -5.7419215459583768 -0.045771900835212875 0 1 
1 -5.7419215459583768 -0.045771900835212875 0 1 
1 -5.7419215459583768 0.65756909916478712 -1 0 
1 -5.7419215459583768 0.65756909916478712 -1 0 
1 -6.745279545958379 0.65756909916478712 0 1 
1 -6.745279545958379 0.65756909916478712 0 1 
1 -6.745279545958379 1.287562099164786 -1 0 
1 -6.745279545958379 1.287562099164786 -1 0 
1 -7.7295535459583782 1.287562099164786 0 -1 
1 -7.7295535459583782 1.287562099164786 0 -1 
1 -7.7295535459583782 -0.028735900835213712 -1 0 
1 -7.7295535459583782 -0.028735900835213712 -1 0 
1 -8.0344725459583799 -0.028735900835213712 0 1 
1 -8.0344725459583799 -0.028735900835213712 0 1 
1 -8.0344725459583799 1.787562099164786 1 0 
1 -8.0344725459583799 1.787562099164786 1 0 
1 0.97653745404161896 1.787562099164786 0 -1 
1 0.97653745404161896 1.787562099164786 0 -1 
1 0.97653745404161896 0.46097709916478635 -1 0 
1 0.97653745404161896 0.46097709916478635 -1 0 
1 -13.282242545958379 0.52332109916478586 -1 0 
1 -13.282242545958379 0.52332109916478586 -1 0 
1 -16.83183154595838 0.52332109916478586 0 1 
1 -16.83183154595838 0.52332109916478586 0 1 
1 -16.83183154595838 1.787562099164786 1 0 
1 -16.83183154595838 1.787562099164786 1 0 
1 -13.436667545958379 1.787562099164786 0 1 
1 -13.436667545958379 1.787562099164786 0 1 
1 -13.436667545958379 5.9404850991647864 -1 0 
1 -13.436667545958379 5.9404850991647864 -1 0 
1 -13.543646545958378 5.9404850991647864 0 1 
1 -13.543646545958378 5.9404850991647864 0 1 
1 -13.543646545958378 6.5855790991647867 1 0 
1 -13.543646545958378 6.5855790991647867 1 0 
1 -11.579903545958377 6.5855790991647867 0 -1 
1 -11.579903545958377 6.5855790991647867 0 -1 
1 -11.579903545958377 5.9404850991647864 -1 0 
1 -11.579903545958377 5.9404850991647864 -1 0 
1 -11.68688254595838 5.9404850991647864 0 -1 
1 -11.68688254595838 5.9404850991647864 0 -1 
1 -11.68688254595838 1.787562099164786 1 0 
1 -11.68688254595838 1.787562099164786 1 0 
1 -10.305740545958379 1.787562099164786 0 -1 
1 -10.305740545958379 1.787562099164786 0 -1 
1 -10.305740545958379 0.52332109916478586 -1 0 
1 -10.305740545958379 0.52332109916478586 -1 0 
1 -11.841307545958379 0.52332109916478586 0 1 
1 -11.841307545958379 0.52332109916478586 0 1 
1 -11.841307545958379 5.9404850991647864 -1 0 
1 -11.841307545958379 5.9404850991647864 -1 0 
1 -11.948286545958378 5.9404850991647864 0 1 
1 -11.948286545958378 5.9404850991647864 0 1 
1 -11.948286545958378 6.2333380991647864 -1 0 
1 -11.948286545958378 6.2333380991647864 -1 0 
1 -13.17526354595838 6.2333380991647864 0 -1 
1 -13.17526354595838 6.2333380991647864 0 -1 
1 -13.17526354595838 5.9404850991647864 -1 0 
1 -13.17526354595838 5.9404850991647864 -1 0 
1 -13.282242545958379 5.9404850991647864 0 -1 
1 -13.282242545958379 5.9404850991647864 0 -1 
Curves 308
1 54.990279999999998 -20.667224999999998 0 0 -1 0 
1 54.990279999999998 -20.991388000000001 0 1 0 0 
1 55.411205000000002 -20.991388000000001 0 0 1 0 
1 55.411205000000002 -15.64809 0 -1 0 0 
1 51.550514 -15.64809 0 0 -1 0 
1 51.550514 -19.316932999999999 0 -1 0 0 
1 51.429198999999997 -19.316932999999999 0 0 1 0 
1 51.429198999999997 -14.523755 0 1 0 0 
1 51.576056999999999 -14.523755 0 0 -1 0 
1 51.576056999999999 -15.201574000000001 0 1 0 0 
1 53.854354999999998 -15.201574000000001 0 0 1 0 
1 53.854354999999998 -14.384821000000001 0 1 0 0 
1 54.010944000000002 -14.384821000000001 0 0 -1 0 
1 54.010944000000002 -15.201574000000001 0 1 0 0 
1 55.411205000000002 -15.201574000000001 0 0 1 0 
1 55.411205000000002 -13.335421 0 -1 0 0 
1 54.988014 -13.335421 0 0 1 0 
1 54.988014 -12.716881000000001 0 -1 0 0 
1 54.233387 -12.716881000000001 0 0 1 0 
1 54.233387 -12.358088 0 -1 0 0 
1 54.010944000000002 -12.358088 0 0 -1 0 
1 54.010944000000002 -13.463191999999999 0 -1 0 0 
1 53.858829 -13.463191999999999 0 0 1 0 
1 53.858829 -12.09834 0 1 0 0 
1 55.536921999999997 -12.09834 0 0 -1 0 
1 55.536921999999997 -20.991388000000001 0 1 0 0 
1 56.691451999999998 -20.991388000000001 0 0 1 0 
1 56.691451999999998 -20.667224999999998 0 1 0 0 
1 57.191451999999998 -20.667224999999998 0 0 -1 0 
1 57.191451999999998 -21.167224999999998 0 1 0 0 
1 59.240917000000003 -21.167224999999998 0 0 1 0 
1 59.240917000000003 -20.991388000000001 0 1 0 0 
1 59.879447999999996 -20.991388000000001 0 0 1 0 
1 59.879447999999996 -20.667224999999998 0 1 0 0 
1 60.035175000000002 -20.667224999999998 0 0 1 0 
1 60.035175000000002 -15.64809 0 -1 0 0 
1 59.612597999999998 -15.64809 0 0 1 0 
1 59.612597999999998 -15.201574000000001 0 1 0 0 
1 60.035175000000002 -15.201574000000001 0 0 1 0 
1 60.035175000000002 -13.750584999999999 0 -1 0 0 
1 59.653407999999999 -13.750584999999999 0 0 1 0 
1 59.653407999999999 -12.09834 0 1 0 0 
1 60.243515000000002 -12.09834 0 0 1 0 
1 60.243515000000002 -7.945417 0 -1 0 0 
1 59.879447999999996 -7.945417 0 0 1 0 
1 59.879447999999996 -7.445417 0 1 0 0 
1 60.243515000000002 -7.445417 0 0 1 0 
1 60.243515000000002 -6.0990440000000001 0 -0.99999985547906267 0.00053762612832255335 0 
1 51.722724999999997 -6.0944630000000002 0 0 -1 0 
1 51.722724999999997 -7.302092 0 1 0 0 
1 52.138255999999998 -7.302092 0 0 -1 0 
1 52.138255999999998 -7.945417 0 -1 0 0 
1 51.722724999999997 -7.945417 0 0 -1 0 
1 51.722724999999997 -12.09834 0 1 0 0 
1 53.165168999999999 -12.09834 0 0 -1 0 
1 53.165168999999999 -13.344227 0 -1 0 0 
1 51.576056999999999 -13.344227 0 0 -1 0 
1 51.576056999999999 -13.446691 0 -1 0 0 
1 51.429198999999997 -13.446691 0 0 1 0 
1 51.429198999999997 -12.09834 0 1 0 0 
1 51.494934000000001 -12.09834 0 0 1 0 
1 51.494934000000001 -5.9504830000000002 0 0.99999965272116298 -0.00083340119590013953 0 
1 51.751713000000002 -5.9506969999999999 0 0 1 0 
1 51.751713000000002 -4.4297519999999997 0 -0.9999999985156881 -5.4485080753589855e-05 0 
1 7.9415550000000001 -4.4321390000000003 0 0 -1 0 
1 7.9415550000000001 -12.09834 0 1 0 0 
1 14.063998 -12.09834 0 0 -1 0 
1 14.063998 -13.362581 0 -1 0 0 
1 8.8664369999999995 -13.362581 0 0 1 0 
1 8.8664369999999995 -12.59834 0 -1 0 0 
1 7.9699540000000004 -12.59834 0 0 -1 0 
1 7.9699540000000004 -13.892379999999999 0 -1 0 0 
1 6.1039450000000004 -13.892379999999999 0 0 1 0 
1 6.1039450000000004 -12.59834 0 -1 0 0 
1 4.4474460000000002 -12.59834 0 0 -1 0 
1 4.4474460000000002 -13.167044000000001 0 -1 0 0 
1 3.8898739999999998 -13.167044000000001 0 0 1 0 
1 3.8898739999999998 -12.59834 0 -1 0 0 
1 2.7625600000000001 -12.59834 0 0 -1 0 
1 2.7625600000000001 -13.167044000000001 0 -1 0 0 
1 2.122954 -13.167044000000001 0 0 1 0 
1 2.122954 -12.09834 0 1 0 0 
1 7.7586469999999998 -12.09834 0 0 1 0 
1 7.7586469999999998 -7.945417 0 -1 0 0 
1 7.3012819999999996 -7.945417 0 0 1 0 
1 7.3012819999999996 -7.445417 0 1 0 0 
1 7.7586469999999998 -7.445417 0 0 1 0 
1 7.7586469999999998 -5.9580760000000001 0 -1 0 0 
1 5.1194620000000004 -5.9580760000000001 0 0 -1 0 
1 5.1194620000000004 -6.0943610000000001 0 -1 0 0 
1 -0.83669400000000005 -6.0943610000000001 0 0 -1 0 
1 -0.83669400000000005 -7.445417 0 1 0 0 
1 -0.515486 -7.445417 0 0 -1 0 
1 -0.515486 -7.945417 0 -1 0 0 
1 -0.83669400000000005 -7.945417 0 0 -1 0 
1 -0.83669400000000005 -12.09834 0 1 0 0 
1 -0.33336500000000002 -12.09834 0 0 -1 0 
1 -0.33336500000000002 -12.59834 0 -1 0 0 
1 -0.872838 -12.59834 0 0 -1 0 
1 -0.872838 -15.245499000000001 0 1 0 0 
1 -0.515486 -15.245499000000001 0 0 -1 0 
1 -0.515486 -15.745499000000001 0 -1 0 0 
1 -0.872838 -15.745499000000001 0 0 -1 0 
1 -0.872838 -17.994743 0 1 0 0 
1 -0.515486 -17.994743 0 0 -1 0 
1 -0.515486 -18.494743 0 -1 0 0 
1 -0.872838 -18.494743 0 0 -1 0 
1 -0.872838 -20.667224999999998 0 1 0 0 
1 -0.515486 -20.667224999999998 0 0 -1 0 
1 -0.515486 -21.167224999999998 0 -1 0 0 
1 -0.872838 -21.167224999999998 0 0 -1 0 
1 -0.872838 -22.846294 0 1 0 0 
1 14.218828999999999 -22.846294 0 0 1 0 
1 14.218828999999999 -21.167224999999998 0 -1 0 0 
1 13.797967999999999 -21.167224999999998 0 0 1 0 
1 13.797967999999999 -20.667224999999998 0 1 0 0 
1 19.883106000000002 -20.667224999999998 0 0 -1 0 
1 19.883106000000002 -21.167224999999998 0 1 0 0 
1 22.198114 -21.167224999999998 0 0 1 0 
1 22.198114 -20.667224999999998 0 1 0 0 
1 22.824804 -20.667224999999998 0 0 -1 0 
1 22.824804 -21.167224999999998 0 1 0 0 
1 25.163504 -21.167224999999998 0 0 1 0 
1 25.163504 -19.271979999999999 0 1 0 0 
1 25.497702 -19.271979999999999 0 0 -1 0 
1 25.497702 -20.667224999999998 0 1 0 0 
1 25.843503999999999 -20.667224999999998 0 0 -1 0 
1 25.843503999999999 -21.167224999999998 0 1 0 0 
1 28.137915 -21.167224999999998 0 0 1 0 
1 28.137915 -20.667224999999998 0 1 0 0 
1 28.972462 -20.667224999999998 0 0 -1 0 
1 28.972462 -21.167224999999998 0 1 0 0 
1 31.193166999999999 -21.167224999999998 0 0 1 0 
1 31.193166999999999 -20.667224999999998 0 1 0 0 
1 32.044356999999998 -20.667224999999998 0 0 -1 0 
1 32.044356999999998 -21.167224999999998 0 1 0 0 
1 34.295971000000002 -21.167224999999998 0 0 1 0 
1 34.295971000000002 -20.667224999999998 0 1 0 0 
1 35.071075 -20.667224999999998 0 0 -1 0 
1 35.071075 -21.167224999999998 0 1 0 0 
1 37.363109999999999 -21.167224999999998 0 0 1 0 
1 37.363109999999999 -20.667224999999998 0 1 0 0 
1 38.185768000000003 -20.667224999999998 0 0 -1 0 
1 38.185768000000003 -21.167224999999998 0 1 0 0 
1 40.435004999999997 -21.167224999999998 0 0 1 0 
1 40.435004999999997 -20.667224999999998 0 1 0 0 
1 40.977103999999997 -20.667224999999998 0 0 -1 0 
1 40.977103999999997 -21.167224999999998 0 1 0 0 
1 42.198661999999999 -21.167224999999998 0 0 1 0 
1 42.198661999999999 -20.667224999999998 0 1 0 0 
1 42.800742999999997 -20.667224999999998 0 0 -1 0 
1 42.800742999999997 -21.167224999999998 0 1 0 0 
1 44.017043999999999 -21.167224999999998 0 0 1 0 
1 44.017043999999999 -20.667224999999998 0 1 0 0 
1 45.438313000000001 -20.667224999999998 0 0 1 0 
1 45.438313000000001 -15.553656999999999 0 -1 0 0 
1 42.417572 -15.553656999999999 0 0 -1 0 
1 42.417572 -19.734463000000002 0 -1 0 0 
1 42.198661999999999 -19.734463000000002 0 0 1 0 
1 42.198661999999999 -15.290259000000001 0 1 0 0 
1 47.718864000000004 -15.290259000000001 0 0 1 0 
1 47.718864000000004 -13.393447999999999 0 -1 0 0 
1 46.505215 -13.393447999999999 0 0 1 0 
1 46.505215 -12.593419000000001 0 -1 0 0 
1 42.976455999999999 -12.593419000000001 0 0 -1 0 
1 42.976455999999999 -13.393447999999999 0 -1 0 0 
1 41.486640999999999 -13.393447999999999 0 0 1 0 
1 41.486640999999999 -12.09834 0 1 0 0 
1 48.234665 -12.09834 0 0 -1 0 
1 48.234665 -15.64809 0 -1 0 0 
1 45.865223 -15.64809 0 0 -1 0 
1 45.865223 -21.167224999999998 0 1 0 0 
1 47.741405 -21.167224999999998 0 0 1 0 
1 47.741405 -20.667224999999998 0 1 0 0 
1 48.241405 -20.667224999999998 0 0 -1 0 
1 48.241405 -21.167224999999998 0 1 0 0 
1 51.429198999999997 -21.167224999999998 0 0 1 0 
1 51.429198999999997 -20.667224999999998 0 1 0 0 
1 51.929198999999997 -20.667224999999998 0 0 -1 0 
1 51.929198999999997 -20.991388000000001 0 1 0 0 
1 52.853127000000001 -20.991388000000001 0 0 -1 0 
1 52.853127000000001 -21.167224999999998 0 1 0 0 
1 54.490279999999998 -21.167224999999998 0 0 1 0 
1 54.490279999999998 -20.667224999999998 0 1 0 0 
1 2.794467 -15.569601 0 -1 0 0 
1 2.122954 -15.569601 0 0 1 0 
1 2.122954 -15.295718000000001 0 1 0 0 
1 2.794467 -15.295718000000001 0 0 -1 0 
1 41.850020999999998 -7.945417 0 -1 0 0 
1 41.350020999999998 -7.945417 0 0 1 0 
1 41.350020999999998 -7.445417 0 1 0 0 
1 41.850020999999998 -7.445417 0 0 -1 0 
1 36.318733000000002 -7.445417 0 1 0 0 
1 36.818733000000002 -7.445417 0 0 -1 0 
1 36.818733000000002 -7.945417 0 -1 0 0 
1 36.318733000000002 -7.945417 0 0 1 0 
1 31.057053 -7.445417 0 1 0 0 
1 31.557053 -7.445417 0 0 -1 0 
1 31.557053 -7.945417 0 -1 0 0 
1 31.057053 -7.945417 0 0 1 0 
1 6.4214779999999996 -21.167224999999998 0 0 1 0 
1 6.4214779999999996 -20.667224999999998 0 1 0 0 
1 6.9214779999999996 -20.667224999999998 0 0 -1 0 
1 6.9214779999999996 -21.167224999999998 0 -1 0 0 
1 3.1837960000000001 -20.667224999999998 0 0 -1 0 
1 3.1837960000000001 -21.167224999999998 0 -1 0 0 
1 2.6837960000000001 -21.167224999999998 0 0 1 0 
1 2.6837960000000001 -20.667224999999998 0 1 0 0 
1 10.110528 -21.167224999999998 0 0 1 0 
1 10.110528 -20.667224999999998 0 1 0 0 
1 10.610528 -20.667224999999998 0 0 -1 0 
1 10.610528 -21.167224999999998 0 -1 0 0 
1 14.370456000000001 -7.445417 0 0 -1 0 
1 14.370456000000001 -7.945417 0 -1 0 0 
1 13.870456000000001 -7.945417 0 0 1 0 
1 13.870456000000001 -7.445417 0 1 0 0 
1 46.850647000000002 -7.945417 0 0 1 0 
1 46.850647000000002 -7.445417 0 1 0 0 
1 47.350647000000002 -7.445417 0 0 -1 0 
1 47.350647000000002 -7.945417 0 -1 0 0 
1 37.885277000000002 -15.179956000000001 0 0 -1 0 
1 37.885277000000002 -15.680685 0 -1 0 0 
1 37.382626000000002 -15.680685 0 0 1 0 
1 37.382626000000002 -15.179956000000001 0 1 0 0 
1 17.728954000000002 -15.587619999999999 0 -1 0 0 
1 16.600237 -15.587619999999999 0 0 1 0 
1 16.600237 -15.280799 0 1 0 0 
1 17.728954000000002 -15.280799 0 0 -1 0 
1 22.706026000000001 -15.589563999999999 0 -1 0 0 
1 21.567581000000001 -15.589563999999999 0 0 1 0 
1 21.567581000000001 -15.280799 0 1 0 0 
1 22.706026000000001 -15.280799 0 0 -1 0 
1 12.734458999999999 -15.587619999999999 0 -1 0 0 
1 11.563829 -15.587619999999999 0 0 1 0 
1 11.563829 -15.254338000000001 0 1 0 0 
1 12.734458999999999 -15.254338000000001 0 0 -1 0 
1 56.577461 -13.290095000000001 0 0 1 0 
1 56.577461 -12.09834 0 1 0 0 
1 57.363841999999998 -12.09834 0 0 -1 0 
1 57.363841999999998 -13.290095000000001 0 -1 0 0 
1 3.8579490000000001 -15.168612 0 1 0 0 
1 7.9699540000000004 -15.168612 0 0 -1 0 
1 7.9699540000000004 -15.832072999999999 0 -1 0 0 
1 3.8579490000000001 -15.832072999999999 0 0 1 0 
1 37.959567999999997 -13.424925 0 -1 0 0 
1 36.436126999999999 -13.424925 0 0 1 0 
1 36.436126999999999 -12.09834 0 1 0 0 
1 39.230572000000002 -12.09834 0 0 -1 0 
1 39.230572000000002 -13.588746 0 -1 0 0 
1 39.081974000000002 -13.588746 0 0 1 0 
1 39.081974000000002 -12.59834 0 -1 0 0 
1 37.959567999999997 -12.59834 0 0 -1 0 
1 28.109385 -15.001662 0 0 -1 0 
1 28.109385 -15.820981 0 -1 0 0 
1 25.497702 -15.820981 0 0 -1 0 
1 25.497702 -17.346589999999999 0 -1 0 0 
1 25.163504 -17.346589999999999 0 0 1 0 
1 25.163504 -14.99385 0 1 0 0 
1 25.497702 -14.99385 0 0 -1 0 
1 25.497702 -15.199104999999999 0 1 0 0 
1 27.492463999999998 -15.199104999999999 0 0 1 0 
1 27.492463999999998 -15.001662 0 1 0 0 
1 28.045051999999998 -7.445417 0 0 -1 0 
1 28.045051999999998 -10.654752999999999 0 -1 0 0 
1 25.253516999999999 -10.654752999999999 0 0 1 0 
1 25.253516999999999 -7.445417 0 1 0 0 
1 25.847836999999998 -7.445417 0 0 -1 0 
1 25.847836999999998 -8.0789240000000007 0 -1 0 0 
1 25.751213 -8.0789240000000007 0 0 -1 0 
1 25.751213 -10.215902 0 1 0 0 
1 27.500478999999999 -10.215902 0 0 1 0 
1 27.500478999999999 -8.0789240000000007 0 -1 0 0 
1 27.095912999999999 -8.0789240000000007 0 0 1 0 
1 27.095912999999999 -7.445417 0 1 0 0 
1 30.169342 -13.424925 0 0 1 0 
1 30.169342 -12.59834 0 -1 0 0 
1 28.109385 -12.59834 0 0 -1 0 
1 28.109385 -13.931673999999999 0 -1 0 0 
1 27.485334000000002 -13.931673999999999 0 0 1 0 
1 27.485334000000002 -13.228332999999999 0 -1 0 0 
1 26.481976 -13.228332999999999 0 0 1 0 
1 26.481976 -12.59834 0 -1 0 0 
1 25.497702 -12.59834 0 0 -1 0 
1 25.497702 -13.914638 0 -1 0 0 
1 25.192782999999999 -13.914638 0 0 1 0 
1 25.192782999999999 -12.09834 0 1 0 0 
1 34.203792999999997 -12.09834 0 0 -1 0 
1 34.203792999999997 -13.424925 0 -1 0 0 
1 19.945012999999999 -13.362581 0 -1 0 0 
1 16.395423999999998 -13.362581 0 0 1 0 
1 16.395423999999998 -12.09834 0 1 0 0 
1 19.790588 -12.09834 0 0 1 0 
1 19.790588 -7.945417 0 -1 0 0 
1 19.683609000000001 -7.945417 0 0 1 0 
1 19.683609000000001 -7.3003229999999997 0 1 0 0 
1 21.647352000000001 -7.3003229999999997 0 0 -1 0 
1 21.647352000000001 -7.945417 0 -1 0 0 
1 21.540372999999999 -7.945417 0 0 -1 0 
1 21.540372999999999 -12.09834 0 1 0 0 
1 22.921514999999999 -12.09834 0 0 -1 0 
1 22.921514999999999 -13.362581 0 -1 0 0 
1 21.385947999999999 -13.362581 0 0 1 0 
1 21.385947999999999 -7.945417 0 -1 0 0 
1 21.278969 -7.945417 0 0 1 0 
1 21.278969 -7.6525639999999999 0 -1 0 0 
1 20.051991999999998 -7.6525639999999999 0 0 -1 0 
1 20.051991999999998 -7.945417 0 -1 0 0 
1 19.945012999999999 -7.945417 0 0 -1 0 
Polygon3D 0
PolygonOnTriangulations 0
Surfaces 41
1 33.227255545958378 -13.885902099164786 0 0 0 1 1 0 -0 -0 1 0 
1 33.227255545958378 -13.885902099164786 0 0 0 1 1 0 -0 -0 1 0 
1 33.227255545958378 -13.885902099164786 0 0 0 1 1 0 -0 -0 1 0 
1 33.227255545958378 -13.885902099164786 0 0 0 1 1 0 -0 -0 1 0 
1 33.227255545958378 -13.885902099164786 0 0 0 1 1 0 -0 -0 1 0 
1 33.227255545958378 -13.885902099164786 0 0 0 1 1 0 -0 -0 1 0 
1 33.227255545958378 -13.885902099164786 0 0 0 1 1 0 -0 -0 1 0 
1 33.227255545958378 -13.885902099164786 0 0 0 1 1 0 -0 -0 1 0 
1 33.227255545958378 -13.885902099164786 0 0 0 1 1 0 -0 -0 1 0 
1 33.227255545958378 -13.885902099164786 0 0 0 1 1 0 -0 -0 1 0 
1 33.227255545958378 -13.885902099164786 0 0 0 1 1 0 -0 -0 1 0 
1 33.227255545958378 -13.885902099164786 0 0 0 1 1 0 -0 -0 1 0 
1 33.227255545958378 -13.885902099164786 0 0 0 1 1 0 -0 -0 1 0 
1 33.227255545958378 -13.885902099164786 0 0 0 1 1 0 -0 -0 1 0 
1 33.227255545958378 -13.885902099164786 0 0 0 1 1 0 -0 -0 1 0 
1 33.227255545958378 -13.885902099164786 0 0 0 1 1 0 -0 -0 1 0 
1 33.227255545958378 -13.885902099164786 0 0 0 1 1 0 -0 -0 1 0 
1 33.227255545958378 -13.885902099164786 0 0 0 1 1 0 -0 -0 1 0 
1 33.227255545958378 -13.885902099164786 0 0 0 1 1 0 -0 -0 1 0 
1 33.227255545958378 -13.885902099164786 0 0 0 1 1 0 -0 -0 1 0 
1 33.227255545958378 -13.885902099164786 0 0 0 1 1 0 -0 -0 1 0 
1 33.227255545958378 -13.885902099164786 0 0 0 1 1 0 -0 -0 1 0 
1 33.227255545958378 -13.885902099164786 0 0 0 1 1 0 -0 -0 1 0 
1 33.227255545958378 -13.885902099164786 0 0 0 1 1 0 -0 -0 1 0 
1 33.227255545958378 -13.885902099164786 0 0 0 1 1 0 -0 -0 1 0 
1 33.227255545958378 -13.885902099164786 0 0 0 1 1 0 -0 -0 1 0 
1 33.227255545958378 -13.885902099164786 0 0 0 1 1 0 -0 -0 1 0 
1 33.227255545958378 -13.885902099164786 0 0 0 1 1 0 -0 -0 1 0 
1 33.227255545958378 -13.885902099164786 0 0 0 1 1 0 -0 -0 1 0 
1 33.227255545958378 -13.885902099164786 0 0 0 1 1 0 -0 -0 1 0 
1 33.227255545958378 -13.885902099164786 0 0 0 1 1 0 -0 -0 1 0 
1 33.227255545958378 -13.885902099164786 0 0 0 1 1 0 -0 -0 1 0 
1 33.227255545958378 -13.885902099164786 0 0 0 1 1 0 -0 -0 1 0 
1 33.227255545958378 -13.885902099164786 0 0 0 1 1 0 -0 -0 1 0 
1 33.227255545958378 -13.885902099164786 0 0 0 1 1 0 -0 -0 1 0 
1 33.227255545958378 -13.885902099164786 0 0 0 1 1 0 -0 -0 1 0 
1 33.227255545958378 -13.885902099164786 0 0 0 1 1 0 -0 -0 1 0 
1 33.227255545958378 -13.885902099164786 0 0 0 1 1 0 -0 -0 1 0 
1 33.227255545958378 -13.885902099164786 0 0 0 1 1 0 -0 -0 1 0 
1 33.227255545958378 -13.885902099164786 0 0 0 1 1 0 -0 -0 1 0 
1 33.227255545958378 -13.885902099164786 0 0 0 1 1 0 -0 -0 1 0 
Triangulations 0

TShapes 638
Ve
1e-07
54.99028 -20.667225 0
0 0

0101101
*
Ve
1e-07
54.99028 -20.991388 0
0 0

0101101
*
Ed
 1e-07 1 1 0
1  1 0 0 0.324163000000002
0

0101000
+638 0 -637 0 *
Ve
1e-07
55.411205 -20.991388 0
0 0

0101101
*
Ed
 1e-07 1 1 0
1  2 0 0 0.420925000000004
0

0101000
+637 0 -635 0 *
Ve
1e-07
55.411205 -15.64809 0
0 0

0101101
*
Ed
 1e-07 1 1 0
1  3 0 0 5.343298
0

0101000
+635 0 -633 0 *
Ve
1e-07
51.550514 -15.64809 0
0 0

0101101
*
Ed
 1e-07 1 1 0
1  4 0 0 3.860691
0

0101000
+633 0 -631 0 *
Ve
1e-07
51.550514 -19.316933 0
0 0

0101101
*
Ed
 1e-07 1 1 0
1  5 0 0 3.668843
0

0101000
+631 0 -629 0 *
Ve
1e-07
51.429199 -19.316933 0
0 0

0101101
*
Ed
 1e-07 1 1 0
1  6 0 0 0.121315000000003
0

0101000
+629 0 -627 0 *
Ve
1e-07
51.429199 -14.523755 0
0 0

0101101
*
Ed
 1e-07 1 1 0
1  7 0 0 4.793178
0

0101000
+627 0 -625 0 *
Ve
1e-07
51.576057 -14.523755 0
0 0

0101101
*
Ed
 1e-07 1 1 0
1  8 0 0 0.146858000000002
0

0101000
+625 0 -623 0 *
Ve
1e-07
51.576057 -15.201574 0
0 0

0101101
*
Ed
 1e-07 1 1 0
1  9 0 0 0.677819000000001
0

0101000
+623 0 -621 0 *
Ve
1e-07
53.854355 -15.201574 0
0 0

0101101
*
Ed
 1e-07 1 1 0
1  10 0 0 2.278298
0

0101000
+621 0 -619 0 *
Ve
1e-07
53.854355 -14.384821 0
0 0

0101101
*
Ed
 1e-07 1 1 0
1  11 0 0 0.816753
0

0101000
+619 0 -617 0 *
Ve
1e-07
54.010944 -14.384821 0
0 0

0101101
*
Ed
 1e-07 1 1 0
1  12 0 0 0.156589000000004
0

0101000
+617 0 -615 0 *
Ve
1e-07
54.010944 -15.201574 0
0 0

0101101
*
Ed
 1e-07 1 1 0
1  13 0 0 0.816753
0

0101000
+615 0 -613 0 *
Ve
1e-07
55.411205 -15.201574 0
0 0

0101101
*
Ed
 1e-07 1 1 0
1  14 0 0 1.400261
0

0101000
+613 0 -611 0 *
Ve
1e-07
55.411205 -13.335421 0
0 0

0101101
*
Ed
 1e-07 1 1 0
1  15 0 0 1.866153
0

0101000
+611 0 -609 0 *
Ve
1e-07
54.988014 -13.335421 0
0 0

0101101
*
Ed
 1e-07 1 1 0
1  16 0 0 0.423191000000003
0

0101000
+609 0 -607 0 *
Ve
1e-07
54.988014 -12.716881 0
0 0

0101101
*
Ed
 1e-07 1 1 0
1  17 0 0 0.618539999999999
0

0101000
+607 0 -605 0 *
Ve
1e-07
54.233387 -12.716881 0
0 0

0101101
*
Ed
 1e-07 1 1 0
1  18 0 0 0.754626999999999
0

0101000
+605 0 -603 0 *
Ve
1e-07
54.233387 -12.358088 0
0 0

0101101
*
Ed
 1e-07 1 1 0
1  19 0 0 0.358793
0

0101000
+603 0 -601 0 *
Ve
1e-07
54.010944 -12.358088 0
0 0

0101101
*
Ed
 1e-07 1 1 0
1  20 0 0 0.222442999999998
0

0101000
+601 0 -599 0 *
Ve
1e-07
54.010944 -13.463192 0
0 0

0101101
*
Ed
 1e-07 1 1 0
1  21 0 0 1.105104
0

0101000
+599 0 -597 0 *
Ve
1e-07
53.858829 -13.463192 0
0 0

0101101
*
Ed
 1e-07 1 1 0
1  22 0 0 0.152115000000002
0

0101000
+597 0 -595 0 *
Ve
1e-07
53.858829 -12.09834 0
0 0

0101101
*
Ed
 1e-07 1 1 0
1  23 0 0 1.364852
0

0101000
+595 0 -593 0 *
Ve
1e-07
55.536922 -12.09834 0
0 0

0101101
*
Ed
 1e-07 1 1 0
1  24 0 0 1.678093
0

0101000
+593 0 -591 0 *
Ve
1e-07
55.536922 -20.991388 0
0 0

0101101
*
Ed
 1e-07 1 1 0
1  25 0 0 8.893048
0

0101000
+591 0 -589 0 *
Ve
1e-07
56.691452 -20.991388 0
0 0

0101101
*
Ed
 1e-07 1 1 0
1  26 0 0 1.15453
0

0101000
+589 0 -587 0 *
Ve
1e-07
56.691452 -20.667225 0
0 0

0101101
*
Ed
 1e-07 1 1 0
1  27 0 0 0.324163000000002
0

0101000
+587 0 -585 0 *
Ve
1e-07
57.191452 -20.667225 0
0 0

0101101
*
Ed
 1e-07 1 1 0
1  28 0 0 0.5
0

0101000
+585 0 -583 0 *
Ve
1e-07
57.191452 -21.167225 0
0 0

0101101
*
Ed
 1e-07 1 1 0
1  29 0 0 0.5
0

0101000
+583 0 -581 0 *
Ve
1e-07
59.240917 -21.167225 0
0 0

0101101
*
Ed
 1e-07 1 1 0
1  30 0 0 2.049465
0

0101000
+581 0 -579 0 *
Ve
1e-07
59.240917 -20.991388 0
0 0

0101101
*
Ed
 1e-07 1 1 0
1  31 0 0 0.175836999999998
0

0101000
+579 0 -577 0 *
Ve
1e-07
59.879448 -20.991388 0
0 0

0101101
*
Ed
 1e-07 1 1 0
1  32 0 0 0.638530999999993
0

0101000
+577 0 -575 0 *
Ve
1e-07
59.879448 -20.667225 0
0 0

0101101
*
Ed
 1e-07 1 1 0
1  33 0 0 0.324163000000002
0

0101000
+575 0 -573 0 *
Ve
1e-07
60.035175 -20.667225 0
0 0

0101101
*
Ed
 1e-07 1 1 0
1  34 0 0 0.155727000000006
0

0101000
+573 0 -571 0 *
Ve
1e-07
60.035175 -15.64809 0
0 0

0101101
*
Ed
 1e-07 1 1 0
1  35 0 0 5.019135
0

0101000
+571 0 -569 0 *
Ve
1e-07
59.612598 -15.64809 0
0 0

0101101
*
Ed
 1e-07 1 1 0
1  36 0 0 0.422577000000004
0

0101000
+569 0 -567 0 *
Ve
1e-07
59.612598 -15.201574 0
0 0

0101101
*
Ed
 1e-07 1 1 0
1  37 0 0 0.446515999999999
0

0101000
+567 0 -565 0 *
Ve
1e-07
60.035175 -15.201574 0
0 0

0101101
*
Ed
 1e-07 1 1 0
1  38 0 0 0.422577000000004
0

0101000
+565 0 -563 0 *
Ve
1e-07
60.035175 -13.750585 0
0 0

0101101
*
Ed
 1e-07 1 1 0
1  39 0 0 1.450989
0

0101000
+563 0 -561 0 *
Ve
1e-07
59.653408 -13.750585 0
0 0

0101101
*
Ed
 1e-07 1 1 0
1  40 0 0 0.381767000000004
0

0101000
+561 0 -559 0 *
Ve
1e-07
59.653408 -12.09834 0
0 0

0101101
*
Ed
 1e-07 1 1 0
1  41 0 0 1.652245
0

0101000
+559 0 -557 0 *
Ve
1e-07
60.243515 -12.09834 0
0 0

0101101
*
Ed
 1e-07 1 1 0
1  42 0 0 0.590107000000003
0

0101000
+557 0 -555 0 *
Ve
1e-07
60.243515 -7.945417 0
0 0

0101101
*
Ed
 1e-07 1 1 0
1  43 0 0 4.152923
0

0101000
+555 0 -553 0 *
Ve
1e-07
59.879448 -7.945417 0
0 0

0101101
*
Ed
 1e-07 1 1 0
1  44 0 0 0.364067000000006
0

0101000
+553 0 -551 0 *
Ve
1e-07
59.879448 -7.445417 0
0 0

0101101
*
Ed
 1e-07 1 1 0
1  45 0 0 0.5
0

0101000
+551 0 -549 0 *
Ve
1e-07
60.243515 -7.445417 0
0 0

0101101
*
Ed
 1e-07 1 1 0
1  46 0 0 0.364067000000006
0

0101000
+549 0 -547 0 *
Ve
1e-07
60.243515 -6.099044 0
0 0

0101101
*
Ed
 1e-07 1 1 0
1  47 0 0 1.346373
0

0101000
+547 0 -545 0 *
Ve
1e-07
51.722725 -6.094463 0
0 0

0101101
*
Ed
 1e-07 1 1 0
1  48 0 0 8.52079123143274
0

0101000
+545 0 -543 0 *
Ve
1e-07
51.722725 -7.302092 0
0 0

0101101
*
Ed
 1e-07 1 1 0
1  49 0 0 1.207629
0

0101000
+543 0 -541 0 *
Ve
1e-07
52.138256 -7.302092 0
0 0

0101101
*
Ed
 1e-07 1 1 0
1  50 0 0 0.415531000000001
0

0101000
+541 0 -539 0 *
Ve
1e-07
52.138256 -7.945417 0
0 0

0101101
*
Ed
 1e-07 1 1 0
1  51 0 0 0.643325
0

0101000
+539 0 -537 0 *
Ve
1e-07
51.722725 -7.945417 0
0 0

0101101
*
Ed
 1e-07 1 1 0
1  52 0 0 0.415531000000001
0

0101000
+537 0 -535 0 *
Ve
1e-07
51.722725 -12.09834 0
0 0

0101101
*
Ed
 1e-07 1 1 0
1  53 0 0 4.152923
0

0101000
+535 0 -533 0 *
Ve
1e-07
53.165169 -12.09834 0
0 0

0101101
*
Ed
 1e-07 1 1 0
1  54 0 0 1.442444
0

0101000
+533 0 -531 0 *
Ve
1e-07
53.165169 -13.344227 0
0 0

0101101
*
Ed
 1e-07 1 1 0
1  55 0 0 1.245887
0

0101000
+531 0 -529 0 *
Ve
1e-07
51.576057 -13.344227 0
0 0

0101101
*
Ed
 1e-07 1 1 0
1  56 0 0 1.589112
0

0101000
+529 0 -527 0 *
Ve
1e-07
51.576057 -13.446691 0
0 0

0101101
*
Ed
 1e-07 1 1 0
1  57 0 0 0.102463999999999
0

0101000
+527 0 -525 0 *
Ve
1e-07
51.429199 -13.446691 0
0 0

0101101
*
Ed
 1e-07 1 1 0
1  58 0 0 0.146858000000002
0

0101000
+525 0 -523 0 *
Ve
1e-07
51.429199 -12.09834 0
0 0

0101101
*
Ed
 1e-07 1 1 0
1  59 0 0 1.348351
0

0101000
+523 0 -521 0 *
Ve
1e-07
51.494934 -12.09834 0
0 0

0101101
*
Ed
 1e-07 1 1 0
1  60 0 0 0.0657350000000037
0

0101000
+521 0 -519 0 *
Ve
1e-07
51.494934 -5.950483 0
0 0

0101101
*
Ed
 1e-07 1 1 0
1  61 0 0 6.147857
0

0101000
+519 0 -517 0 *
Ve
1e-07
51.751713 -5.950697 0
0 0

0101101
*
Ed
 1e-07 1 1 0
1  62 0 0 0.256779089173945
0

0101000
+517 0 -515 0 *
Ve
1e-07
51.751713 -4.429752 0
0 0

0101101
*
Ed
 1e-07 1 1 0
1  63 0 0 1.520945
0

0101000
+515 0 -513 0 *
Ve
1e-07
7.941555 -4.432139 0
0 0

0101101
*
Ed
 1e-07 1 1 0
1  64 0 0 43.8101580650279
0

0101000
+513 0 -511 0 *
Ve
1e-07
7.941555 -12.09834 0
0 0

0101101
*
Ed
 1e-07 1 1 0
1  65 0 0 7.666201
0

0101000
+511 0 -509 0 *
Ve
1e-07
14.063998 -12.09834 0
0 0

0101101
*
Ed
 1e-07 1 1 0
1  66 0 0 6.122443
0

0101000
+509 0 -507 0 *
Ve
1e-07
14.063998 -13.362581 0
0 0

0101101
*
Ed
 1e-07 1 1 0
1  67 0 0 1.264241
0

0101000
+507 0 -505 0 *
Ve
1e-07
8.866437 -13.362581 0
0 0

0101101
*
Ed
 1e-07 1 1 0
1  68 0 0 5.197561
0

0101000
+505 0 -503 0 *
Ve
1e-07
8.866437 -12.59834 0
0 0

0101101
*
Ed
 1e-07 1 1 0
1  69 0 0 0.764241
0

0101000
+503 0 -501 0 *
Ve
1e-07
7.969954 -12.59834 0
0 0

0101101
*
Ed
 1e-07 1 1 0
1  70 0 0 0.896482999999999
0

0101000
+501 0 -499 0 *
Ve
1e-07
7.969954 -13.89238 0
0 0

0101101
*
Ed
 1e-07 1 1 0
1  71 0 0 1.29404
0

0101000
+499 0 -497 0 *
Ve
1e-07
6.103945 -13.89238 0
0 0

0101101
*
Ed
 1e-07 1 1 0
1  72 0 0 1.866009
0

0101000
+497 0 -495 0 *
Ve
1e-07
6.103945 -12.59834 0
0 0

0101101
*
Ed
 1e-07 1 1 0
1  73 0 0 1.29404
0

0101000
+495 0 -493 0 *
Ve
1e-07
4.447446 -12.59834 0
0 0

0101101
*
Ed
 1e-07 1 1 0
1  74 0 0 1.656499
0

0101000
+493 0 -491 0 *
Ve
1e-07
4.447446 -13.167044 0
0 0

0101101
*
Ed
 1e-07 1 1 0
1  75 0 0 0.568704
0

0101000
+491 0 -489 0 *
Ve
1e-07
3.889874 -13.167044 0
0 0

0101101
*
Ed
 1e-07 1 1 0
1  76 0 0 0.557572
0

0101000
+489 0 -487 0 *
Ve
1e-07
3.889874 -12.59834 0
0 0

0101101
*
Ed
 1e-07 1 1 0
1  77 0 0 0.568704
0

0101000
+487 0 -485 0 *
Ve
1e-07
2.76256 -12.59834 0
0 0

0101101
*
Ed
 1e-07 1 1 0
1  78 0 0 1.127314
0

0101000
+485 0 -483 0 *
Ve
1e-07
2.76256 -13.167044 0
0 0

0101101
*
Ed
 1e-07 1 1 0
1  79 0 0 0.568704
0

0101000
+483 0 -481 0 *
Ve
1e-07
2.122954 -13.167044 0
0 0

0101101
*
Ed
 1e-07 1 1 0
1  80 0 0 0.639606
0

0101000
+481 0 -479 0 *
Ve
1e-07
2.122954 -12.09834 0
0 0

0101101
*
Ed
 1e-07 1 1 0
1  81 0 0 1.068704
0

0101000
+479 0 -477 0 *
Ve
1e-07
7.758647 -12.09834 0
0 0

0101101
*
Ed
 1e-07 1 1 0
1  82 0 0 5.635693
0

0101000
+477 0 -475 0 *
Ve
1e-07
7.758647 -7.945417 0
0 0

0101101
*
Ed
 1e-07 1 1 0
1  83 0 0 4.152923
0

0101000
+475 0 -473 0 *
Ve
1e-07
7.301282 -7.945417 0
0 0

0101101
*
Ed
 1e-07 1 1 0
1  84 0 0 0.457365
0

0101000
+473 0 -471 0 *
Ve
1e-07
7.301282 -7.445417 0
0 0

0101101
*
Ed
 1e-07 1 1 0
1  85 0 0 0.5
0

0101000
+471 0 -469 0 *
Ve
1e-07
7.758647 -7.445417 0
0 0

0101101
*
Ed
 1e-07 1 1 0
1  86 0 0 0.457365
0

0101000
+469 0 -467 0 *
Ve
1e-07
7.758647 -5.958076 0
0 0

0101101
*
Ed
 1e-07 1 1 0
1  87 0 0 1.487341
0

0101000
+467 0 -465 0 *
Ve
1e-07
5.119462 -5.958076 0
0 0

0101101
*
Ed
 1e-07 1 1 0
1  88 0 0 2.639185
0

0101000
+465 0 -463 0 *
Ve
1e-07
5.119462 -6.094361 0
0 0

0101101
*
Ed
 1e-07 1 1 0
1  89 0 0 0.136285
0

0101000
+463 0 -461 0 *
Ve
1e-07
-0.836694 -6.094361 0
0 0

0101101
*
Ed
 1e-07 1 1 0
1  90 0 0 5.956156
0

0101000
+461 0 -459 0 *
Ve
1e-07
-0.836694 -7.445417 0
0 0

0101101
*
Ed
 1e-07 1 1 0
1  91 0 0 1.351056
0

0101000
+459 0 -457 0 *
Ve
1e-07
-0.515486 -7.445417 0
0 0

0101101
*
Ed
 1e-07 1 1 0
1  92 0 0 0.321208
0

0101000
+457 0 -455 0 *
Ve
1e-07
-0.515486 -7.945417 0
0 0

0101101
*
Ed
 1e-07 1 1 0
1  93 0 0 0.5
0

0101000
+455 0 -453 0 *
Ve
1e-07
-0.836694 -7.945417 0
0 0

0101101
*
Ed
 1e-07 1 1 0
1  94 0 0 0.321208
0

0101000
+453 0 -451 0 *
Ve
1e-07
-0.836694 -12.09834 0
0 0

0101101
*
Ed
 1e-07 1 1 0
1  95 0 0 4.152923
0

0101000
+451 0 -449 0 *
Ve
1e-07
-0.333365 -12.09834 0
0 0

0101101
*
Ed
 1e-07 1 1 0
1  96 0 0 0.503329
0

0101000
+449 0 -447 0 *
Ve
1e-07
-0.333365 -12.59834 0
0 0

0101101
*
Ed
 1e-07 1 1 0
1  97 0 0 0.5
0

0101000
+447 0 -445 0 *
Ve
1e-07
-0.872838 -12.59834 0
0 0

0101101
*
Ed
 1e-07 1 1 0
1  98 0 0 0.539473
0

0101000
+445 0 -443 0 *
Ve
1e-07
-0.872838 -15.245499 0
0 0

0101101
*
Ed
 1e-07 1 1 0
1  99 0 0 2.647159
0

0101000
+443 0 -441 0 *
Ve
1e-07
-0.515486 -15.245499 0
0 0

0101101
*
Ed
 1e-07 1 1 0
1  100 0 0 0.357352
0

0101000
+441 0 -439 0 *
Ve
1e-07
-0.515486 -15.745499 0
0 0

0101101
*
Ed
 1e-07 1 1 0
1  101 0 0 0.5
0

0101000
+439 0 -437 0 *
Ve
1e-07
-0.872838 -15.745499 0
0 0

0101101
*
Ed
 1e-07 1 1 0
1  102 0 0 0.357352
0

0101000
+437 0 -435 0 *
Ve
1e-07
-0.872838 -17.994743 0
0 0

0101101
*
Ed
 1e-07 1 1 0
1  103 0 0 2.249244
0

0101000
+435 0 -433 0 *
Ve
1e-07
-0.515486 -17.994743 0
0 0

0101101
*
Ed
 1e-07 1 1 0
1  104 0 0 0.357352
0

0101000
+433 0 -431 0 *
Ve
1e-07
-0.515486 -18.494743 0
0 0

0101101
*
Ed
 1e-07 1 1 0
1  105 0 0 0.5
0

0101000
+431 0 -429 0 *
Ve
1e-07
-0.872838 -18.494743 0
0 0

0101101
*
Ed
 1e-07 1 1 0
1  106 0 0 0.357352
0

0101000
+429 0 -427 0 *
Ve
1e-07
-0.872838 -20.667225 0
0 0

0101101
*
Ed
 1e-07 1 1 0
1  107 0 0 2.172482
0

0101000
+427 0 -425 0 *
Ve
1e-07
-0.515486 -20.667225 0
0 0

0101101
*
Ed
 1e-07 1 1 0
1  108 0 0 0.357352
0

0101000
+425 0 -423 0 *
Ve
1e-07
-0.515486 -21.167225 0
0 0

0101101
*
Ed
 1e-07 1 1 0
1  109 0 0 0.5
0

0101000
+423 0 -421 0 *
Ve
1e-07
-0.872838 -21.167225 0
0 0

0101101
*
Ed
 1e-07 1 1 0
1  110 0 0 0.357352
0

0101000
+421 0 -419 0 *
Ve
1e-07
-0.872838 -22.846294 0
0 0

0101101
*
Ed
 1e-07 1 1 0
1  111 0 0 1.679069
0

0101000
+419 0 -417 0 *
Ve
1e-07
14.218829 -22.846294 0
0 0

0101101
*
Ed
 1e-07 1 1 0
1  112 0 0 15.091667
0

0101000
+417 0 -415 0 *
Ve
1e-07
14.218829 -21.167225 0
0 0

0101101
*
Ed
 1e-07 1 1 0
1  113 0 0 1.679069
0

0101000
+415 0 -413 0 *
Ve
1e-07
13.797968 -21.167225 0
0 0

0101101
*
Ed
 1e-07 1 1 0
1  114 0 0 0.420861
0

0101000
+413 0 -411 0 *
Ve
1e-07
13.797968 -20.667225 0
0 0

0101101
*
Ed
 1e-07 1 1 0
1  115 0 0 0.5
0

0101000
+411 0 -409 0 *
Ve
1e-07
19.883106 -20.667225 0
0 0

0101101
*
Ed
 1e-07 1 1 0
1  116 0 0 6.085138
0

0101000
+409 0 -407 0 *
Ve
1e-07
19.883106 -21.167225 0
0 0

0101101
*
Ed
 1e-07 1 1 0
1  117 0 0 0.5
0

0101000
+407 0 -405 0 *
Ve
1e-07
22.198114 -21.167225 0
0 0

0101101
*
Ed
 1e-07 1 1 0
1  118 0 0 2.315008
0

0101000
+405 0 -403 0 *
Ve
1e-07
22.198114 -20.667225 0
0 0

0101101
*
Ed
 1e-07 1 1 0
1  119 0 0 0.5
0

0101000
+403 0 -401 0 *
Ve
1e-07
22.824804 -20.667225 0
0 0

0101101
*
Ed
 1e-07 1 1 0
1  120 0 0 0.62669
0

0101000
+401 0 -399 0 *
Ve
1e-07
22.824804 -21.167225 0
0 0

0101101
*
Ed
 1e-07 1 1 0
1  121 0 0 0.5
0

0101000
+399 0 -397 0 *
Ve
1e-07
25.163504 -21.167225 0
0 0

0101101
*
Ed
 1e-07 1 1 0
1  122 0 0 2.3387
0

0101000
+397 0 -395 0 *
Ve
1e-07
25.163504 -19.27198 0
0 0

0101101
*
Ed
 1e-07 1 1 0
1  123 0 0 1.895245
0

0101000
+395 0 -393 0 *
Ve
1e-07
25.497702 -19.27198 0
0 0

0101101
*
Ed
 1e-07 1 1 0
1  124 0 0 0.334198000000001
0

0101000
+393 0 -391 0 *
Ve
1e-07
25.497702 -20.667225 0
0 0

0101101
*
Ed
 1e-07 1 1 0
1  125 0 0 1.395245
0

0101000
+391 0 -389 0 *
Ve
1e-07
25.843504 -20.667225 0
0 0

0101101
*
Ed
 1e-07 1 1 0
1  126 0 0 0.345801999999999
0

0101000
+389 0 -387 0 *
Ve
1e-07
25.843504 -21.167225 0
0 0

0101101
*
Ed
 1e-07 1 1 0
1  127 0 0 0.5
0

0101000
+387 0 -385 0 *
Ve
1e-07
28.137915 -21.167225 0
0 0

0101101
*
Ed
 1e-07 1 1 0
1  128 0 0 2.294411
0

0101000
+385 0 -383 0 *
Ve
1e-07
28.137915 -20.667225 0
0 0

0101101
*
Ed
 1e-07 1 1 0
1  129 0 0 0.5
0

0101000
+383 0 -381 0 *
Ve
1e-07
28.972462 -20.667225 0
0 0

0101101
*
Ed
 1e-07 1 1 0
1  130 0 0 0.834547000000001
0

0101000
+381 0 -379 0 *
Ve
1e-07
28.972462 -21.167225 0
0 0

0101101
*
Ed
 1e-07 1 1 0
1  131 0 0 0.5
0

0101000
+379 0 -377 0 *
Ve
1e-07
31.193167 -21.167225 0
0 0

0101101
*
Ed
 1e-07 1 1 0
1  132 0 0 2.220705
0

0101000
+377 0 -375 0 *
Ve
1e-07
31.193167 -20.667225 0
0 0

0101101
*
Ed
 1e-07 1 1 0
1  133 0 0 0.5
0

0101000
+375 0 -373 0 *
Ve
1e-07
32.044357 -20.667225 0
0 0

0101101
*
Ed
 1e-07 1 1 0
1  134 0 0 0.851189999999999
0

0101000
+373 0 -371 0 *
Ve
1e-07
32.044357 -21.167225 0
0 0

0101101
*
Ed
 1e-07 1 1 0
1  135 0 0 0.5
0

0101000
+371 0 -369 0 *
Ve
1e-07
34.295971 -21.167225 0
0 0

0101101
*
Ed
 1e-07 1 1 0
1  136 0 0 2.251614
0

0101000
+369 0 -367 0 *
Ve
1e-07
34.295971 -20.667225 0
0 0

0101101
*
Ed
 1e-07 1 1 0
1  137 0 0 0.5
0

0101000
+367 0 -365 0 *
Ve
1e-07
35.071075 -20.667225 0
0 0

0101101
*
Ed
 1e-07 1 1 0
1  138 0 0 0.775103999999999
0

0101000
+365 0 -363 0 *
Ve
1e-07
35.071075 -21.167225 0
0 0

0101101
*
Ed
 1e-07 1 1 0
1  139 0 0 0.5
0

0101000
+363 0 -361 0 *
Ve
1e-07
37.36311 -21.167225 0
0 0

0101101
*
Ed
 1e-07 1 1 0
1  140 0 0 2.292035
0

0101000
+361 0 -359 0 *
Ve
1e-07
37.36311 -20.667225 0
0 0

0101101
*
Ed
 1e-07 1 1 0
1  141 0 0 0.5
0

0101000
+359 0 -357 0 *
Ve
1e-07
38.185768 -20.667225 0
0 0

0101101
*
Ed
 1e-07 1 1 0
1  142 0 0 0.822658000000004
0

0101000
+357 0 -355 0 *
Ve
1e-07
38.185768 -21.167225 0
0 0

0101101
*
Ed
 1e-07 1 1 0
1  143 0 0 0.5
0

0101000
+355 0 -353 0 *
Ve
1e-07
40.435005 -21.167225 0
0 0

0101101
*
Ed
 1e-07 1 1 0
1  144 0 0 2.24923699999999
0

0101000
+353 0 -351 0 *
Ve
1e-07
40.435005 -20.667225 0
0 0

0101101
*
Ed
 1e-07 1 1 0
1  145 0 0 0.5
0

0101000
+351 0 -349 0 *
Ve
1e-07
40.977104 -20.667225 0
0 0

0101101
*
Ed
 1e-07 1 1 0
1  146 0 0 0.542099
0

0101000
+349 0 -347 0 *
Ve
1e-07
40.977104 -21.167225 0
0 0

0101101
*
Ed
 1e-07 1 1 0
1  147 0 0 0.5
0

0101000
+347 0 -345 0 *
Ve
1e-07
42.198662 -21.167225 0
0 0

0101101
*
Ed
 1e-07 1 1 0
1  148 0 0 1.221558
0

0101000
+345 0 -343 0 *
Ve
1e-07
42.198662 -20.667225 0
0 0

0101101
*
Ed
 1e-07 1 1 0
1  149 0 0 0.5
0

0101000
+343 0 -341 0 *
Ve
1e-07
42.800743 -20.667225 0
0 0

0101101
*
Ed
 1e-07 1 1 0
1  150 0 0 0.602080999999998
0

0101000
+341 0 -339 0 *
Ve
1e-07
42.800743 -21.167225 0
0 0

0101101
*
Ed
 1e-07 1 1 0
1  151 0 0 0.5
0

0101000
+339 0 -337 0 *
Ve
1e-07
44.017044 -21.167225 0
0 0

0101101
*
Ed
 1e-07 1 1 0
1  152 0 0 1.216301
0

0101000
+337 0 -335 0 *
Ve
1e-07
44.017044 -20.667225 0
0 0

0101101
*
Ed
 1e-07 1 1 0
1  153 0 0 0.5
0

0101000
+335 0 -333 0 *
Ve
1e-07
45.438313 -20.667225 0
0 0

0101101
*
Ed
 1e-07 1 1 0
1  154 0 0 1.421269
0

0101000
+333 0 -331 0 *
Ve
1e-07
45.438313 -15.553657 0
0 0

0101101
*
Ed
 1e-07 1 1 0
1  155 0 0 5.113568
0

0101000
+331 0 -329 0 *
Ve
1e-07
42.417572 -15.553657 0
0 0

0101101
*
Ed
 1e-07 1 1 0
1  156 0 0 3.020741
0

0101000
+329 0 -327 0 *
Ve
1e-07
42.417572 -19.734463 0
0 0

0101101
*
Ed
 1e-07 1 1 0
1  157 0 0 4.180806
0

0101000
+327 0 -325 0 *
Ve
1e-07
42.198662 -19.734463 0
0 0

0101101
*
Ed
 1e-07 1 1 0
1  158 0 0 0.218910000000001
0

0101000
+325 0 -323 0 *
Ve
1e-07
42.198662 -15.290259 0
0 0

0101101
*
Ed
 1e-07 1 1 0
1  159 0 0 4.444204
0

0101000
+323 0 -321 0 *
Ve
1e-07
47.718864 -15.290259 0
0 0

0101101
*
Ed
 1e-07 1 1 0
1  160 0 0 5.520202
0

0101000
+321 0 -319 0 *
Ve
1e-07
47.718864 -13.393448 0
0 0

0101101
*
Ed
 1e-07 1 1 0
1  161 0 0 1.896811
0

0101000
+319 0 -317 0 *
Ve
1e-07
46.505215 -13.393448 0
0 0

0101101
*
Ed
 1e-07 1 1 0
1  162 0 0 1.213649
0

0101000
+317 0 -315 0 *
Ve
1e-07
46.505215 -12.593419 0
0 0

0101101
*
Ed
 1e-07 1 1 0
1  163 0 0 0.800028999999999
0

0101000
+315 0 -313 0 *
Ve
1e-07
42.976456 -12.593419 0
0 0

0101101
*
Ed
 1e-07 1 1 0
1  164 0 0 3.528759
0

0101000
+313 0 -311 0 *
Ve
1e-07
42.976456 -13.393448 0
0 0

0101101
*
Ed
 1e-07 1 1 0
1  165 0 0 0.800028999999999
0

0101000
+311 0 -309 0 *
Ve
1e-07
41.486641 -13.393448 0
0 0

0101101
*
Ed
 1e-07 1 1 0
1  166 0 0 1.489815
0

0101000
+309 0 -307 0 *
Ve
1e-07
41.486641 -12.09834 0
0 0

0101101
*
Ed
 1e-07 1 1 0
1  167 0 0 1.295108
0

0101000
+307 0 -305 0 *
Ve
1e-07
48.234665 -12.09834 0
0 0

0101101
*
Ed
 1e-07 1 1 0
1  168 0 0 6.748024
0

0101000
+305 0 -303 0 *
Ve
1e-07
48.234665 -15.64809 0
0 0

0101101
*
Ed
 1e-07 1 1 0
1  169 0 0 3.54975
0

0101000
+303 0 -301 0 *
Ve
1e-07
45.865223 -15.64809 0
0 0

0101101
*
Ed
 1e-07 1 1 0
1  170 0 0 2.369442
0

0101000
+301 0 -299 0 *
Ve
1e-07
45.865223 -21.167225 0
0 0

0101101
*
Ed
 1e-07 1 1 0
1  171 0 0 5.519135
0

0101000
+299 0 -297 0 *
Ve
1e-07
47.741405 -21.167225 0
0 0

0101101
*
Ed
 1e-07 1 1 0
1  172 0 0 1.876182
0

0101000
+297 0 -295 0 *
Ve
1e-07
47.741405 -20.667225 0
0 0

0101101
*
Ed
 1e-07 1 1 0
1  173 0 0 0.5
0

0101000
+295 0 -293 0 *
Ve
1e-07
48.241405 -20.667225 0
0 0

0101101
*
Ed
 1e-07 1 1 0
1  174 0 0 0.5
0

0101000
+293 0 -291 0 *
Ve
1e-07
48.241405 -21.167225 0
0 0

0101101
*
Ed
 1e-07 1 1 0
1  175 0 0 0.5
0

0101000
+291 0 -289 0 *
Ve
1e-07
51.429199 -21.167225 0
0 0

0101101
*
Ed
 1e-07 1 1 0
1  176 0 0 3.187794
0

0101000
+289 0 -287 0 *
Ve
1e-07
51.429199 -20.667225 0
0 0

0101101
*
Ed
 1e-07 1 1 0
1  177 0 0 0.5
0

0101000
+287 0 -285 0 *
Ve
1e-07
51.929199 -20.667225 0
0 0

0101101
*
Ed
 1e-07 1 1 0
1  178 0 0 0.5
0

0101000
+285 0 -283 0 *
Ve
1e-07
51.929199 -20.991388 0
0 0

0101101
*
Ed
 1e-07 1 1 0
1  179 0 0 0.324163000000002
0

0101000
+283 0 -281 0 *
Ve
1e-07
52.853127 -20.991388 0
0 0

0101101
*
Ed
 1e-07 1 1 0
1  180 0 0 0.923928000000004
0

0101000
+281 0 -279 0 *
Ve
1e-07
52.853127 -21.167225 0
0 0

0101101
*
Ed
 1e-07 1 1 0
1  181 0 0 0.175836999999998
0

0101000
+279 0 -277 0 *
Ve
1e-07
54.49028 -21.167225 0
0 0

0101101
*
Ed
 1e-07 1 1 0
1  182 0 0 1.637153
0

0101000
+277 0 -275 0 *
Ve
1e-07
54.49028 -20.667225 0
0 0

0101101
*
Ed
 1e-07 1 1 0
1  183 0 0 0.5
0

0101000
+275 0 -273 0 *
Ed
 1e-07 1 1 0
1  184 0 0 0.5
0

0101000
+273 0 -638 0 *
Wi

0101100
+636 0 +634 0 +632 0 +630 0 +628 0 +626 0 +624 0 +622 0 +620 0 +618 0 
+616 0 +614 0 +612 0 +610 0 +608 0 +606 0 +604 0 +602 0 +600 0 +598 0 
+596 0 +594 0 +592 0 +590 0 +588 0 +586 0 +584 0 +582 0 +580 0 +578 0 
+576 0 +574 0 +572 0 +570 0 +568 0 +566 0 +564 0 +562 0 +560 0 +558 0 
+556 0 +554 0 +552 0 +550 0 +548 0 +546 0 +544 0 +542 0 +540 0 +538 0 
+536 0 +534 0 +532 0 +530 0 +528 0 +526 0 +524 0 +522 0 +520 0 +518 0 
+516 0 +514 0 +512 0 +510 0 +508 0 +506 0 +504 0 +502 0 +500 0 +498 0 
+496 0 +494 0 +492 0 +490 0 +488 0 +486 0 +484 0 +482 0 +480 0 +478 0 
+476 0 +474 0 +472 0 +470 0 +468 0 +466 0 +464 0 +462 0 +460 0 +458 0 
+456 0 +454 0 +452 0 +450 0 +448 0 +446 0 +444 0 +442 0 +440 0 +438 0 
+436 0 +434 0 +432 0 +430 0 +428 0 +426 0 +424 0 +422 0 +420 0 +418 0 
+416 0 +414 0 +412 0 +410 0 +408 0 +406 0 +404 0 +402 0 +400 0 +398 0 
+396 0 +394 0 +392 0 +390 0 +388 0 +386 0 +384 0 +382 0 +380 0 +378 0 
+376 0 +374 0 +372 0 +370 0 +368 0 +366 0 +364 0 +362 0 +360 0 +358 0 
+356 0 +354 0 +352 0 +350 0 +348 0 +346 0 +344 0 +342 0 +340 0 +338 0 
+336 0 +334 0 +332 0 +330 0 +328 0 +326 0 +324 0 +322 0 +320 0 +318 0 
+316 0 +314 0 +312 0 +310 0 +308 0 +306 0 +304 0 +302 0 +300 0 +298 0 
+296 0 +294 0 +292 0 +290 0 +288 0 +286 0 +284 0 +282 0 +280 0 +278 0 
+276 0 +274 0 +272 0 +271 0 *
Ve
1e-07
2.794467 -15.569601 0
0 0

0101101
*
Ve
1e-07
2.122954 -15.569601 0
0 0

0101101
*
Ed
 1e-07 1 1 0
1  185 0 0 0.671513
2  1 2 0 0 0.671513
2  2 3 0 0 0.671513
0

0101000
+269 0 -268 0 *
Ve
1e-07
2.122954 -15.295718 0
0 0

0101101
*
Ed
 1e-07 1 1 0
1  186 0 0 0.273883
2  3 2 0 0 0.273883
2  4 3 0 0 0.273883
0

0101000
+268 0 -266 0 *
Ve
1e-07
2.794467 -15.295718 0
0 0

0101101
*
Ed
 1e-07 1 1 0
1  187 0 0 0.671513
2  5 2 0 0 0.671513
2  6 3 0 0 0.671513
0

0101000
+266 0 -264 0 *
Ed
 1e-07 1 1 0
1  188 0 0 0.273883
2  7 2 0 0 0.273883
2  8 3 0 0 0.273883
0

0101000
+264 0 -269 0 *
Wi

0101100
+267 0 +265 0 +263 0 +262 0 *
Ve
1e-07
41.850021 -7.945417 0
0 0

0101101
*
Ve
1e-07
41.350021 -7.945417 0
0 0

0101101
*
Ed
 1e-07 1 1 0
1  189 0 0 0.5
2  9 4 0 0 0.5
2  10 5 0 0 0.5
0

0101000
+260 0 -259 0 *
Ve
1e-07
41.350021 -7.445417 0
0 0

0101101
*
Ed
 1e-07 1 1 0
1  190 0 0 0.5
2  11 4 0 0 0.5
2  12 5 0 0 0.5
0

0101000
+259 0 -257 0 *
Ve
1e-07
41.850021 -7.445417 0
0 0

0101101
*
Ed
 1e-07 1 1 0
1  191 0 0 0.5
2  13 4 0 0 0.5
2  14 5 0 0 0.5
0

0101000
+257 0 -255 0 *
Ed
 1e-07 1 1 0
1  192 0 0 0.5
2  15 4 0 0 0.5
2  16 5 0 0 0.5
0

0101000
+255 0 -260 0 *
Wi

0101100
+258 0 +256 0 +254 0 +253 0 *
Ve
1e-07
36.318733 -7.445417 0
0 0

0101101
*
Ve
1e-07
36.818733 -7.445417 0
0 0

0101101
*
Ed
 1e-07 1 1 0
1  193 0 0 0.5
2  17 6 0 0 0.5
2  18 7 0 0 0.5
0

0101000
+251 0 -250 0 *
Ve
1e-07
36.818733 -7.945417 0
0 0

0101101
*
Ed
 1e-07 1 1 0
1  194 0 0 0.5
2  19 6 0 0 0.5
2  20 7 0 0 0.5
0

0101000
+250 0 -248 0 *
Ve
1e-07
36.318733 -7.945417 0
0 0

0101101
*
Ed
 1e-07 1 1 0
1  195 0 0 0.5
2  21 6 0 0 0.5
2  22 7 0 0 0.5
0

0101000
+248 0 -246 0 *
Ed
 1e-07 1 1 0
1  196 0 0 0.5
2  23 6 0 0 0.5
2  24 7 0 0 0.5
0

0101000
+246 0 -251 0 *
Wi

0101100
+249 0 +247 0 +245 0 +244 0 *
Ve
1e-07
31.057053 -7.445417 0
0 0

0101101
*
Ve
1e-07
31.557053 -7.445417 0
0 0

0101101
*
Ed
 1e-07 1 1 0
1  197 0 0 0.5
2  25 8 0 0 0.5
2  26 9 0 0 0.5
0

0101000
+242 0 -241 0 *
Ve
1e-07
31.557053 -7.945417 0
0 0

0101101
*
Ed
 1e-07 1 1 0
1  198 0 0 0.5
2  27 8 0 0 0.5
2  28 9 0 0 0.5
0

0101000
+241 0 -239 0 *
Ve
1e-07
31.057053 -7.945417 0
0 0

0101101
*
Ed
 1e-07 1 1 0
1  199 0 0 0.5
2  29 8 0 0 0.5
2  30 9 0 0 0.5
0

0101000
+239 0 -237 0 *
Ed
 1e-07 1 1 0
1  200 0 0 0.5
2  31 8 0 0 0.5
2  32 9 0 0 0.5
0

0101000
+237 0 -242 0 *
Wi

0101100
+240 0 +238 0 +236 0 +235 0 *
Ve
1e-07
6.421478 -21.167225 0
0 0

0101101
*
Ve
1e-07
6.421478 -20.667225 0
0 0

0101101
*
Ed
 1e-07 1 1 0
1  201 0 0 0.5
2  33 10 0 0 0.5
2  34 11 0 0 0.5
0

0101000
+233 0 -232 0 *
Ve
1e-07
6.921478 -20.667225 0
0 0

0101101
*
Ed
 1e-07 1 1 0
1  202 0 0 0.5
2  35 10 0 0 0.5
2  36 11 0 0 0.5
0

0101000
+232 0 -230 0 *
Ve
1e-07
6.921478 -21.167225 0
0 0

0101101
*
Ed
 1e-07 1 1 0
1  203 0 0 0.5
2  37 10 0 0 0.5
2  38 11 0 0 0.5
0

0101000
+230 0 -228 0 *
Ed
 1e-07 1 1 0
1  204 0 0 0.5
2  39 10 0 0 0.5
2  40 11 0 0 0.5
0

0101000
+228 0 -233 0 *
Wi

0101100
+231 0 +229 0 +227 0 +226 0 *
Ve
1e-07
3.183796 -20.667225 0
0 0

0101101
*
Ve
1e-07
3.183796 -21.167225 0
0 0

0101101
*
Ed
 1e-07 1 1 0
1  205 0 0 0.5
2  41 12 0 0 0.5
2  42 13 0 0 0.5
0

0101000
+224 0 -223 0 *
Ve
1e-07
2.683796 -21.167225 0
0 0

0101101
*
Ed
 1e-07 1 1 0
1  206 0 0 0.5
2  43 12 0 0 0.5
2  44 13 0 0 0.5
0

0101000
+223 0 -221 0 *
Ve
1e-07
2.683796 -20.667225 0
0 0

0101101
*
Ed
 1e-07 1 1 0
1  207 0 0 0.5
2  45 12 0 0 0.5
2  46 13 0 0 0.5
0

0101000
+221 0 -219 0 *
Ed
 1e-07 1 1 0
1  208 0 0 0.5
2  47 12 0 0 0.5
2  48 13 0 0 0.5
0

0101000
+219 0 -224 0 *
Wi

0101100
+222 0 +220 0 +218 0 +217 0 *
Ve
1e-07
10.110528 -21.167225 0
0 0

0101101
*
Ve
1e-07
10.110528 -20.667225 0
0 0

0101101
*
Ed
 1e-07 1 1 0
1  209 0 0 0.5
2  49 14 0 0 0.5
2  50 15 0 0 0.5
0

0101000
+215 0 -214 0 *
Ve
1e-07
10.610528 -20.667225 0
0 0

0101101
*
Ed
 1e-07 1 1 0
1  210 0 0 0.5
2  51 14 0 0 0.5
2  52 15 0 0 0.5
0

0101000
+214 0 -212 0 *
Ve
1e-07
10.610528 -21.167225 0
0 0

0101101
*
Ed
 1e-07 1 1 0
1  211 0 0 0.5
2  53 14 0 0 0.5
2  54 15 0 0 0.5
0

0101000
+212 0 -210 0 *
Ed
 1e-07 1 1 0
1  212 0 0 0.5
2  55 14 0 0 0.5
2  56 15 0 0 0.5
0

0101000
+210 0 -215 0 *
Wi

0101100
+213 0 +211 0 +209 0 +208 0 *
Ve
1e-07
14.370456 -7.445417 0
0 0

0101101
*
Ve
1e-07
14.370456 -7.945417 0
0 0

0101101
*
Ed
 1e-07 1 1 0
1  213 0 0 0.5
2  57 16 0 0 0.5
2  58 17 0 0 0.5
0

0101000
+206 0 -205 0 *
Ve
1e-07
13.870456 -7.945417 0
0 0

0101101
*
Ed
 1e-07 1 1 0
1  214 0 0 0.5
2  59 16 0 0 0.5
2  60 17 0 0 0.5
0

0101000
+205 0 -203 0 *
Ve
1e-07
13.870456 -7.445417 0
0 0

0101101
*
Ed
 1e-07 1 1 0
1  215 0 0 0.5
2  61 16 0 0 0.5
2  62 17 0 0 0.5
0

0101000
+203 0 -201 0 *
Ed
 1e-07 1 1 0
1  216 0 0 0.5
2  63 16 0 0 0.5
2  64 17 0 0 0.5
0

0101000
+201 0 -206 0 *
Wi

0101100
+204 0 +202 0 +200 0 +199 0 *
Ve
1e-07
46.850647 -7.945417 0
0 0

0101101
*
Ve
1e-07
46.850647 -7.445417 0
0 0

0101101
*
Ed
 1e-07 1 1 0
1  217 0 0 0.5
2  65 18 0 0 0.5
2  66 19 0 0 0.5
0

0101000
+197 0 -196 0 *
Ve
1e-07
47.350647 -7.445417 0
0 0

0101101
*
Ed
 1e-07 1 1 0
1  218 0 0 0.5
2  67 18 0 0 0.5
2  68 19 0 0 0.5
0

0101000
+196 0 -194 0 *
Ve
1e-07
47.350647 -7.945417 0
0 0

0101101
*
Ed
 1e-07 1 1 0
1  219 0 0 0.5
2  69 18 0 0 0.5
2  70 19 0 0 0.5
0

0101000
+194 0 -192 0 *
Ed
 1e-07 1 1 0
1  220 0 0 0.5
2  71 18 0 0 0.5
2  72 19 0 0 0.5
0

0101000
+192 0 -197 0 *
Wi

0101100
+195 0 +193 0 +191 0 +190 0 *
Ve
1e-07
37.885277 -15.179956 0
0 0

0101101
*
Ve
1e-07
37.885277 -15.680685 0
0 0

0101101
*
Ed
 1e-07 1 1 0
1  221 0 0 0.500729
2  73 20 0 0 0.500729
2  74 21 0 0 0.500729
0

0101000
+188 0 -187 0 *
Ve
1e-07
37.382626 -15.680685 0
0 0

0101101
*
Ed
 1e-07 1 1 0
1  222 0 0 0.502651
2  75 20 0 0 0.502651
2  76 21 0 0 0.502651
0

0101000
+187 0 -185 0 *
Ve
1e-07
37.382626 -15.179956 0
0 0

0101101
*
Ed
 1e-07 1 1 0
1  223 0 0 0.500729
2  77 20 0 0 0.500729
2  78 21 0 0 0.500729
0

0101000
+185 0 -183 0 *
Ed
 1e-07 1 1 0
1  224 0 0 0.502651
2  79 20 0 0 0.502651
2  80 21 0 0 0.502651
0

0101000
+183 0 -188 0 *
Wi

0101100
+186 0 +184 0 +182 0 +181 0 *
Ve
1e-07
17.728954 -15.58762 0
0 0

0101101
*
Ve
1e-07
16.600237 -15.58762 0
0 0

0101101
*
Ed
 1e-07 1 1 0
1  225 0 0 1.128717
2  81 22 0 0 1.128717
2  82 23 0 0 1.128717
0

0101000
+179 0 -178 0 *
Ve
1e-07
16.600237 -15.280799 0
0 0

0101101
*
Ed
 1e-07 1 1 0
1  226 0 0 0.306820999999999
2  83 22 0 0 0.306820999999999
2  84 23 0 0 0.306820999999999
0

0101000
+178 0 -176 0 *
Ve
1e-07
17.728954 -15.280799 0
0 0

0101101
*
Ed
 1e-07 1 1 0
1  227 0 0 1.128717
2  85 22 0 0 1.128717
2  86 23 0 0 1.128717
0

0101000
+176 0 -174 0 *
Ed
 1e-07 1 1 0
1  228 0 0 0.306820999999999
2  87 22 0 0 0.306820999999999
2  88 23 0 0 0.306820999999999
0

0101000
+174 0 -179 0 *
Wi

0101100
+177 0 +175 0 +173 0 +172 0 *
Ve
1e-07
22.706026 -15.589564 0
0 0

0101101
*
Ve
1e-07
21.567581 -15.589564 0
0 0

0101101
*
Ed
 1e-07 1 1 0
1  229 0 0 1.138445
2  89 24 0 0 1.138445
2  90 25 0 0 1.138445
0

0101000
+170 0 -169 0 *
Ve
1e-07
21.567581 -15.280799 0
0 0

0101101
*
Ed
 1e-07 1 1 0
1  230 0 0 0.308764999999999
2  91 24 0 0 0.308764999999999
2  92 25 0 0 0.308764999999999
0

0101000
+169 0 -167 0 *
Ve
1e-07
22.706026 -15.280799 0
0 0

0101101
*
Ed
 1e-07 1 1 0
1  231 0 0 1.138445
2  93 24 0 0 1.138445
2  94 25 0 0 1.138445
0

0101000
+167 0 -165 0 *
Ed
 1e-07 1 1 0
1  232 0 0 0.308764999999999
2  95 24 0 0 0.308764999999999
2  96 25 0 0 0.308764999999999
0

0101000
+165 0 -170 0 *
Wi

0101100
+168 0 +166 0 +164 0 +163 0 *
Ve
1e-07
12.734459 -15.58762 0
0 0

0101101
*
Ve
1e-07
11.563829 -15.58762 0
0 0

0101101
*
Ed
 1e-07 1 1 0
1  233 0 0 1.17063
2  97 26 0 0 1.17063
2  98 27 0 0 1.17063
0

0101000
+161 0 -160 0 *
Ve
1e-07
11.563829 -15.254338 0
0 0

0101101
*
Ed
 1e-07 1 1 0
1  234 0 0 0.333281999999999
2  99 26 0 0 0.333281999999999
2  100 27 0 0 0.333281999999999
0

0101000
+160 0 -158 0 *
Ve
1e-07
12.734459 -15.254338 0
0 0

0101101
*
Ed
 1e-07 1 1 0
1  235 0 0 1.17063
2  101 26 0 0 1.17063
2  102 27 0 0 1.17063
0

0101000
+158 0 -156 0 *
Ed
 1e-07 1 1 0
1  236 0 0 0.333281999999999
2  103 26 0 0 0.333281999999999
2  104 27 0 0 0.333281999999999
0

0101000
+156 0 -161 0 *
Wi

0101100
+159 0 +157 0 +155 0 +154 0 *
Ve
1e-07
56.577461 -13.290095 0
0 0

0101101
*
Ve
1e-07
56.577461 -12.09834 0
0 0

0101101
*
Ed
 1e-07 1 1 0
1  237 0 0 1.191755
2  105 28 0 0 1.191755
2  106 29 0 0 1.191755
0

0101000
+152 0 -151 0 *
Ve
1e-07
57.363842 -12.09834 0
0 0

0101101
*
Ed
 1e-07 1 1 0
1  238 0 0 0.786380999999999
2  107 28 0 0 0.786380999999999
2  108 29 0 0 0.786380999999999
0

0101000
+151 0 -149 0 *
Ve
1e-07
57.363842 -13.290095 0
0 0

0101101
*
Ed
 1e-07 1 1 0
1  239 0 0 1.191755
2  109 28 0 0 1.191755
2  110 29 0 0 1.191755
0

0101000
+149 0 -147 0 *
Ed
 1e-07 1 1 0
1  240 0 0 0.786380999999999
2  111 28 0 0 0.786380999999999
2  112 29 0 0 0.786380999999999
0

0101000
+147 0 -152 0 *
Wi

0101100
+150 0 +148 0 +146 0 +145 0 *
Ve
1e-07
3.857949 -15.168612 0
0 0

0101101
*
Ve
1e-07
7.969954 -15.168612 0
0 0

0101101
*
Ed
 1e-07 1 1 0
1  241 0 0 4.112005
2  113 30 0 0 4.112005
2  114 31 0 0 4.112005
0

0101000
+143 0 -142 0 *
Ve
1e-07
7.969954 -15.832073 0
0 0

0101101
*
Ed
 1e-07 1 1 0
1  242 0 0 0.663461
2  115 30 0 0 0.663461
2  116 31 0 0 0.663461
0

0101000
+142 0 -140 0 *
Ve
1e-07
3.857949 -15.832073 0
0 0

0101101
*
Ed
 1e-07 1 1 0
1  243 0 0 4.112005
2  117 30 0 0 4.112005
2  118 31 0 0 4.112005
0

0101000
+140 0 -138 0 *
Ed
 1e-07 1 1 0
1  244 0 0 0.663461
2  119 30 0 0 0.663461
2  120 31 0 0 0.663461
0

0101000
+138 0 -143 0 *
Wi

0101100
+141 0 +139 0 +137 0 +136 0 *
Ve
1e-07
37.959568 -13.424925 0
0 0

0101101
*
Ve
1e-07
36.436127 -13.424925 0
0 0

0101101
*
Ed
 1e-07 1 1 0
1  245 0 0 1.523441
2  121 32 0 0 1.523441
2  122 33 0 0 1.523441
0

0101000
+134 0 -133 0 *
Ve
1e-07
36.436127 -12.09834 0
0 0

0101101
*
Ed
 1e-07 1 1 0
1  246 0 0 1.326585
2  123 32 0 0 1.326585
2  124 33 0 0 1.326585
0

0101000
+133 0 -131 0 *
Ve
1e-07
39.230572 -12.09834 0
0 0

0101101
*
Ed
 1e-07 1 1 0
1  247 0 0 2.794445
2  125 32 0 0 2.794445
2  126 33 0 0 2.794445
0

0101000
+131 0 -129 0 *
Ve
1e-07
39.230572 -13.588746 0
0 0

0101101
*
Ed
 1e-07 1 1 0
1  248 0 0 1.490406
2  127 32 0 0 1.490406
2  128 33 0 0 1.490406
0

0101000
+129 0 -127 0 *
Ve
1e-07
39.081974 -13.588746 0
0 0

0101101
*
Ed
 1e-07 1 1 0
1  249 0 0 0.148598
2  129 32 0 0 0.148598
2  130 33 0 0 0.148598
0

0101000
+127 0 -125 0 *
Ve
1e-07
39.081974 -12.59834 0
0 0

0101101
*
Ed
 1e-07 1 1 0
1  250 0 0 0.990406
2  131 32 0 0 0.990406
2  132 33 0 0 0.990406
0

0101000
+125 0 -123 0 *
Ve
1e-07
37.959568 -12.59834 0
0 0

0101101
*
Ed
 1e-07 1 1 0
1  251 0 0 1.12240600000001
2  133 32 0 0 1.12240600000001
2  134 33 0 0 1.12240600000001
0

0101000
+123 0 -121 0 *
Ed
 1e-07 1 1 0
1  252 0 0 0.826585
2  135 32 0 0 0.826585
2  136 33 0 0 0.826585
0

0101000
+121 0 -134 0 *
Wi

0101100
+132 0 +130 0 +128 0 +126 0 +124 0 +122 0 +120 0 +119 0 *
Ve
1e-07
28.109385 -15.001662 0
0 0

0101101
*
Ve
1e-07
28.109385 -15.820981 0
0 0

0101101
*
Ed
 1e-07 1 1 0
1  253 0 0 0.819319
2  137 34 0 0 0.819319
2  138 35 0 0 0.819319
0

0101000
+117 0 -116 0 *
Ve
1e-07
25.497702 -15.820981 0
0 0

0101101
*
Ed
 1e-07 1 1 0
1  254 0 0 2.611683
2  139 34 0 0 2.611683
2  140 35 0 0 2.611683
0

0101000
+116 0 -114 0 *
Ve
1e-07
25.497702 -17.34659 0
0 0

0101101
*
Ed
 1e-07 1 1 0
1  255 0 0 1.525609
2  141 34 0 0 1.525609
2  142 35 0 0 1.525609
0

0101000
+114 0 -112 0 *
Ve
1e-07
25.163504 -17.34659 0
0 0

0101101
*
Ed
 1e-07 1 1 0
1  256 0 0 0.334198000000001
2  143 34 0 0 0.334198000000001
2  144 35 0 0 0.334198000000001
0

0101000
+112 0 -110 0 *
Ve
1e-07
25.163504 -14.99385 0
0 0

0101101
*
Ed
 1e-07 1 1 0
1  257 0 0 2.35274
2  145 34 0 0 2.35274
2  146 35 0 0 2.35274
0

0101000
+110 0 -108 0 *
Ve
1e-07
25.497702 -14.99385 0
0 0

0101101
*
Ed
 1e-07 1 1 0
1  258 0 0 0.334198000000001
2  147 34 0 0 0.334198000000001
2  148 35 0 0 0.334198000000001
0

0101000
+108 0 -106 0 *
Ve
1e-07
25.497702 -15.199105 0
0 0

0101101
*
Ed
 1e-07 1 1 0
1  259 0 0 0.205254999999999
2  149 34 0 0 0.205254999999999
2  150 35 0 0 0.205254999999999
0

0101000
+106 0 -104 0 *
Ve
1e-07
27.492464 -15.199105 0
0 0

0101101
*
Ed
 1e-07 1 1 0
1  260 0 0 1.994762
2  151 34 0 0 1.994762
2  152 35 0 0 1.994762
0

0101000
+104 0 -102 0 *
Ve
1e-07
27.492464 -15.001662 0
0 0

0101101
*
Ed
 1e-07 1 1 0
1  261 0 0 0.197443
2  153 34 0 0 0.197443
2  154 35 0 0 0.197443
0

0101000
+102 0 -100 0 *
Ed
 1e-07 1 1 0
1  262 0 0 0.616921000000001
2  155 34 0 0 0.616921000000001
2  156 35 0 0 0.616921000000001
0

0101000
+100 0 -117 0 *
Wi

0101100
+115 0 +113 0 +111 0 +109 0 +107 0 +105 0 +103 0 +101 0 +99 0 +98 0 
*
Ve
1e-07
28.045052 -7.445417 0
0 0

0101101
*
Ve
1e-07
28.045052 -10.654753 0
0 0

0101101
*
Ed
 1e-07 1 1 0
1  263 0 0 3.209336
2  157 36 0 0 3.209336
2  158 37 0 0 3.209336
0

0101000
+96 0 -95 0 *
Ve
1e-07
25.253517 -10.654753 0
0 0

0101101
*
Ed
 1e-07 1 1 0
1  264 0 0 2.791535
2  159 36 0 0 2.791535
2  160 37 0 0 2.791535
0

0101000
+95 0 -93 0 *
Ve
1e-07
25.253517 -7.445417 0
0 0

0101101
*
Ed
 1e-07 1 1 0
1  265 0 0 3.209336
2  161 36 0 0 3.209336
2  162 37 0 0 3.209336
0

0101000
+93 0 -91 0 *
Ve
1e-07
25.847837 -7.445417 0
0 0

0101101
*
Ed
 1e-07 1 1 0
1  266 0 0 0.59432
2  163 36 0 0 0.59432
2  164 37 0 0 0.59432
0

0101000
+91 0 -89 0 *
Ve
1e-07
25.847837 -8.078924 0
0 0

0101101
*
Ed
 1e-07 1 1 0
1  267 0 0 0.633507000000001
2  165 36 0 0 0.633507000000001
2  166 37 0 0 0.633507000000001
0

0101000
+89 0 -87 0 *
Ve
1e-07
25.751213 -8.078924 0
0 0

0101101
*
Ed
 1e-07 1 1 0
1  268 0 0 0.0966239999999985
2  167 36 0 0 0.0966239999999985
2  168 37 0 0 0.0966239999999985
0

0101000
+87 0 -85 0 *
Ve
1e-07
25.751213 -10.215902 0
0 0

0101101
*
Ed
 1e-07 1 1 0
1  269 0 0 2.136978
2  169 36 0 0 2.136978
2  170 37 0 0 2.136978
0

0101000
+85 0 -83 0 *
Ve
1e-07
27.500479 -10.215902 0
0 0

0101101
*
Ed
 1e-07 1 1 0
1  270 0 0 1.749266
2  171 36 0 0 1.749266
2  172 37 0 0 1.749266
0

0101000
+83 0 -81 0 *
Ve
1e-07
27.500479 -8.078924 0
0 0

0101101
*
Ed
 1e-07 1 1 0
1  271 0 0 2.136978
2  173 36 0 0 2.136978
2  174 37 0 0 2.136978
0

0101000
+81 0 -79 0 *
Ve
1e-07
27.095913 -8.078924 0
0 0

0101101
*
Ed
 1e-07 1 1 0
1  272 0 0 0.404565999999999
2  175 36 0 0 0.404565999999999
2  176 37 0 0 0.404565999999999
0

0101000
+79 0 -77 0 *
Ve
1e-07
27.095913 -7.445417 0
0 0

0101101
*
Ed
 1e-07 1 1 0
1  273 0 0 0.633507000000001
2  177 36 0 0 0.633507000000001
2  178 37 0 0 0.633507000000001
0

0101000
+77 0 -75 0 *
Ed
 1e-07 1 1 0
1  274 0 0 0.949138999999999
2  179 36 0 0 0.949138999999999
2  180 37 0 0 0.949138999999999
0

0101000
+75 0 -96 0 *
Wi

0101100
+94 0 +92 0 +90 0 +88 0 +86 0 +84 0 +82 0 +80 0 +78 0 +76 0 
+74 0 +73 0 *
Ve
1e-07
30.169342 -13.424925 0
0 0

0101101
*
Ve
1e-07
30.169342 -12.59834 0
0 0

0101101
*
Ed
 1e-07 1 1 0
1  275 0 0 0.826585
2  181 38 0 0 0.826585
2  182 39 0 0 0.826585
0

0101000
+71 0 -70 0 *
Ve
1e-07
28.109385 -12.59834 0
0 0

0101101
*
Ed
 1e-07 1 1 0
1  276 0 0 2.059957
2  183 38 0 0 2.059957
2  184 39 0 0 2.059957
0

0101000
+70 0 -68 0 *
Ve
1e-07
28.109385 -13.931674 0
0 0

0101101
*
Ed
 1e-07 1 1 0
1  277 0 0 1.333334
2  185 38 0 0 1.333334
2  186 39 0 0 1.333334
0

0101000
+68 0 -66 0 *
Ve
1e-07
27.485334 -13.931674 0
0 0

0101101
*
Ed
 1e-07 1 1 0
1  278 0 0 0.624050999999998
2  187 38 0 0 0.624050999999998
2  188 39 0 0 0.624050999999998
0

0101000
+66 0 -64 0 *
Ve
1e-07
27.485334 -13.228333 0
0 0

0101101
*
Ed
 1e-07 1 1 0
1  279 0 0 0.703341
2  189 38 0 0 0.703341
2  190 39 0 0 0.703341
0

0101000
+64 0 -62 0 *
Ve
1e-07
26.481976 -13.228333 0
0 0

0101101
*
Ed
 1e-07 1 1 0
1  280 0 0 1.003358
2  191 38 0 0 1.003358
2  192 39 0 0 1.003358
0

0101000
+62 0 -60 0 *
Ve
1e-07
26.481976 -12.59834 0
0 0

0101101
*
Ed
 1e-07 1 1 0
1  281 0 0 0.629992999999999
2  193 38 0 0 0.629992999999999
2  194 39 0 0 0.629992999999999
0

0101000
+60 0 -58 0 *
Ve
1e-07
25.497702 -12.59834 0
0 0

0101101
*
Ed
 1e-07 1 1 0
1  282 0 0 0.984273999999999
2  195 38 0 0 0.984273999999999
2  196 39 0 0 0.984273999999999
0

0101000
+58 0 -56 0 *
Ve
1e-07
25.497702 -13.914638 0
0 0

0101101
*
Ed
 1e-07 1 1 0
1  283 0 0 1.316298
2  197 38 0 0 1.316298
2  198 39 0 0 1.316298
0

0101000
+56 0 -54 0 *
Ve
1e-07
25.192783 -13.914638 0
0 0

0101101
*
Ed
 1e-07 1 1 0
1  284 0 0 0.304919000000002
2  199 38 0 0 0.304919000000002
2  200 39 0 0 0.304919000000002
0

0101000
+54 0 -52 0 *
Ve
1e-07
25.192783 -12.09834 0
0 0

0101101
*
Ed
 1e-07 1 1 0
1  285 0 0 1.816298
2  201 38 0 0 1.816298
2  202 39 0 0 1.816298
0

0101000
+52 0 -50 0 *
Ve
1e-07
34.203793 -12.09834 0
0 0

0101101
*
Ed
 1e-07 1 1 0
1  286 0 0 9.01101
2  203 38 0 0 9.01101
2  204 39 0 0 9.01101
0

0101000
+50 0 -48 0 *
Ve
1e-07
34.203793 -13.424925 0
0 0

0101101
*
Ed
 1e-07 1 1 0
1  287 0 0 1.326585
2  205 38 0 0 1.326585
2  206 39 0 0 1.326585
0

0101000
+48 0 -46 0 *
Ed
 1e-07 1 1 0
1  288 0 0 4.034451
2  207 38 0 0 4.034451
2  208 39 0 0 4.034451
0

0101000
+46 0 -71 0 *
Wi

0101100
+69 0 +67 0 +65 0 +63 0 +61 0 +59 0 +57 0 +55 0 +53 0 +51 0 
+49 0 +47 0 +45 0 +44 0 *
Ve
1e-07
19.945013 -13.362581 0
0 0

0101101
*
Ve
1e-07
16.395424 -13.362581 0
0 0

0101101
*
Ed
 1e-07 1 1 0
1  289 0 0 3.549589
2  209 40 0 0 3.549589
2  210 41 0 0 3.549589
0

0101000
+42 0 -41 0 *
Ve
1e-07
16.395424 -12.09834 0
0 0

0101101
*
Ed
 1e-07 1 1 0
1  290 0 0 1.264241
2  211 40 0 0 1.264241
2  212 41 0 0 1.264241
0

0101000
+41 0 -39 0 *
Ve
1e-07
19.790588 -12.09834 0
0 0

0101101
*
Ed
 1e-07 1 1 0
1  291 0 0 3.395164
2  213 40 0 0 3.395164
2  214 41 0 0 3.395164
0

0101000
+39 0 -37 0 *
Ve
1e-07
19.790588 -7.945417 0
0 0

0101101
*
Ed
 1e-07 1 1 0
1  292 0 0 4.152923
2  215 40 0 0 4.152923
2  216 41 0 0 4.152923
0

0101000
+37 0 -35 0 *
Ve
1e-07
19.683609 -7.945417 0
0 0

0101101
*
Ed
 1e-07 1 1 0
1  293 0 0 0.106978999999999
2  217 40 0 0 0.106978999999999
2  218 41 0 0 0.106978999999999
0

0101000
+35 0 -33 0 *
Ve
1e-07
19.683609 -7.300323 0
0 0

0101101
*
Ed
 1e-07 1 1 0
1  294 0 0 0.645094
2  219 40 0 0 0.645094
2  220 41 0 0 0.645094
0

0101000
+33 0 -31 0 *
Ve
1e-07
21.647352 -7.300323 0
0 0

0101101
*
Ed
 1e-07 1 1 0
1  295 0 0 1.963743
2  221 40 0 0 1.963743
2  222 41 0 0 1.963743
0

0101000
+31 0 -29 0 *
Ve
1e-07
21.647352 -7.945417 0
0 0

0101101
*
Ed
 1e-07 1 1 0
1  296 0 0 0.645094
2  223 40 0 0 0.645094
2  224 41 0 0 0.645094
0

0101000
+29 0 -27 0 *
Ve
1e-07
21.540373 -7.945417 0
0 0

0101101
*
Ed
 1e-07 1 1 0
1  297 0 0 0.106979000000003
2  225 40 0 0 0.106979000000003
2  226 41 0 0 0.106979000000003
0

0101000
+27 0 -25 0 *
Ve
1e-07
21.540373 -12.09834 0
0 0

0101101
*
Ed
 1e-07 1 1 0
1  298 0 0 4.152923
2  227 40 0 0 4.152923
2  228 41 0 0 4.152923
0

0101000
+25 0 -23 0 *
Ve
1e-07
22.921515 -12.09834 0
0 0

0101101
*
Ed
 1e-07 1 1 0
1  299 0 0 1.381142
2  229 40 0 0 1.381142
2  230 41 0 0 1.381142
0

0101000
+23 0 -21 0 *
Ve
1e-07
22.921515 -13.362581 0
0 0

0101101
*
Ed
 1e-07 1 1 0
1  300 0 0 1.264241
2  231 40 0 0 1.264241
2  232 41 0 0 1.264241
0

0101000
+21 0 -19 0 *
Ve
1e-07
21.385948 -13.362581 0
0 0

0101101
*
Ed
 1e-07 1 1 0
1  301 0 0 1.535567
2  233 40 0 0 1.535567
2  234 41 0 0 1.535567
0

0101000
+19 0 -17 0 *
Ve
1e-07
21.385948 -7.945417 0
0 0

0101101
*
Ed
 1e-07 1 1 0
1  302 0 0 5.417164
2  235 40 0 0 5.417164
2  236 41 0 0 5.417164
0

0101000
+17 0 -15 0 *
Ve
1e-07
21.278969 -7.945417 0
0 0

0101101
*
Ed
 1e-07 1 1 0
1  303 0 0 0.106978999999999
2  237 40 0 0 0.106978999999999
2  238 41 0 0 0.106978999999999
0

0101000
+15 0 -13 0 *
Ve
1e-07
21.278969 -7.652564 0
0 0

0101101
*
Ed
 1e-07 1 1 0
1  304 0 0 0.292853
2  239 40 0 0 0.292853
2  240 41 0 0 0.292853
0

0101000
+13 0 -11 0 *
Ve
1e-07
20.051992 -7.652564 0
0 0

0101101
*
Ed
 1e-07 1 1 0
1  305 0 0 1.226977
2  241 40 0 0 1.226977
2  242 41 0 0 1.226977
0

0101000
+11 0 -9 0 *
Ve
1e-07
20.051992 -7.945417 0
0 0

0101101
*
Ed
 1e-07 1 1 0
1  306 0 0 0.292853
2  243 40 0 0 0.292853
2  244 41 0 0 0.292853
0

0101000
+9 0 -7 0 *
Ve
1e-07
19.945013 -7.945417 0
0 0

0101101
*
Ed
 1e-07 1 1 0
1  307 0 0 0.106978999999999
2  245 40 0 0 0.106978999999999
2  246 41 0 0 0.106978999999999
0

0101000
+7 0 -5 0 *
Ed
 1e-07 1 1 0
1  308 0 0 5.417164
2  247 40 0 0 5.417164
2  248 41 0 0 5.417164
0

0101000
+5 0 -42 0 *
Wi

0101100
+40 0 +38 0 +36 0 +34 0 +32 0 +30 0 +28 0 +26 0 +24 0 +22 0 
+20 0 +18 0 +16 0 +14 0 +12 0 +10 0 +8 0 +6 0 +4 0 +3 0 
*
Fa
0  1e-07 1 0

1111000
+270 0 +261 0 +252 0 +243 0 +234 0 +225 0 +216 0 +207 0 +198 0 +189 0 
+180 0 +171 0 +162 0 +153 0 +144 0 +135 0 +118 0 +97 0 +72 0 +43 0 
+2 0 *

+1 0 