# Rhino

g object_1
v 53.469470977783203 0 142.05097961425781
v 53.469470977783203 0 141.2509765625
v 53.469470977783203 2.0999999046325684 142.05097961425781
v 53.469470977783203 2.0999999046325684 141.2509765625
f 4 2 1 3
g object_2
v 5.8827428817749023 0 142.05850219726562
v 5.8827428817749023 0 141.25849914550781
v 5.8827428817749023 2.0999999046325684 142.05850219726562
v 5.8827428817749023 2.0999999046325684 141.25849914550781
f 8 6 5 7
g object_3
v 12.959278106689453 0 148.84513854980469
v 13.759278297424316 0 148.84513854980469
v 12.959278106689453 2.0999999046325684 148.84513854980469
v 13.759278297424316 2.0999999046325684 148.84513854980469
f 12 10 9 11
g object_4
v 14.326350212097168 0 152.03526306152344
v 13.526350975036621 0 152.03526306152344
v 14.326350212097168 2.0999999046325684 152.03526306152344
v 13.526350975036621 2.0999999046325684 152.03526306152344
f 16 14 13 15
g object_5
v 18.431655883789062 0 152.03526306152344
v 19.231655120849609 0 152.03526306152344
v 18.431655883789062 2.0999999046325684 152.03526306152344
v 19.231655120849609 2.0999999046325684 152.03526306152344
f 20 18 17 19
g object_6
v 19.231655120849609 0 148.05575561523438
v 18.431655883789062 0 148.05575561523438
v 19.231655120849609 2.0999999046325684 148.05575561523438
v 18.431655883789062 2.0999999046325684 148.05575561523438
f 24 22 21 23
g object_7
v 56.556625366210938 0 151.98210144042969
v 55.756626129150391 0 151.98210144042969
v 56.556625366210938 2.0999999046325684 151.98210144042969
v 55.756626129150391 2.0999999046325684 151.98210144042969
f 28 26 25 27
g object_8
v 50.654487609863281 0 151.98210144042969
v 51.454490661621094 0 151.98210144042969
v 50.654487609863281 2.0999999046325684 151.98210144042969
v 51.454490661621094 2.0999999046325684 151.98210144042969
f 32 30 29 31
g object_9
v 50.654487609863281 0 148.96481323242188
v 51.454490661621094 0 148.96481323242188
v 50.654487609863281 2.0999999046325684 148.96481323242188
v 51.454490661621094 2.0999999046325684 148.96481323242188
f 36 34 33 35
g object_10
v 44.160896301269531 0 151.98210144042969
v 43.360897064208984 0 151.98210144042969
v 44.160896301269531 2.0999999046325684 151.98210144042969
v 43.360897064208984 2.0999999046325684 151.98210144042969
f 40 38 37 39
g object_11
v 38.917221069335938 0 148.93827819824219
v 38.117221832275391 0 148.93827819824219
v 38.917221069335938 2.0999999046325684 148.93827819824219
v 38.117221832275391 2.0999999046325684 148.93827819824219
f 44 42 41 43
g object_12
v 33.541877746582031 0 151.98210144042969
v 34.341880798339844 0 151.98210144042969
v 33.541877746582031 2.0999999046325684 151.98210144042969
v 34.341880798339844 2.0999999046325684 151.98210144042969
f 48 46 45 47
g object_13
v 33.562664031982422 0 148.93827819824219
v 34.362667083740234 0 148.93827819824219
v 33.562664031982422 2.0999999046325684 148.93827819824219
v 34.362667083740234 2.0999999046325684 148.93827819824219
f 52 50 49 51
g object_14
v 30.520841598510742 0 151.60325622558594
v 31.320840835571289 0 151.60325622558594
v 30.520841598510742 2.0999999046325684 151.60325622558594
v 31.320840835571289 2.0999999046325684 151.60325622558594
f 56 54 53 55
g object_15
v 30.520841598510742 0 148.93827819824219
v 31.320840835571289 0 148.93827819824219
v 30.520841598510742 2.0999999046325684 148.93827819824219
v 31.320840835571289 2.0999999046325684 148.93827819824219
f 60 58 57 59
g object_16
v 23.26441764831543 0 152.03529357910156
v 24.064416885375977 0 152.03529357910156
v 23.26441764831543 2.0999999046325684 152.03529357910156
v 24.064416885375977 2.0999999046325684 152.03529357910156
f 64 62 61 63
g object_17
v 21.453369140625 0 148.93827819824219
v 20.653369903564453 0 148.93827819824219
v 21.453369140625 2.0999999046325684 148.93827819824219
v 20.653369903564453 2.0999999046325684 148.93827819824219
f 68 66 65 67
g object_18
v 23.822893142700195 0 148.93827819824219
v 23.022893905639648 0 148.93827819824219
v 23.822893142700195 2.0999999046325684 148.93827819824219
v 23.022893905639648 2.0999999046325684 148.93827819824219
f 72 70 69 71
g object_19
v 1.0928647518157959 0 148.99002075195312
v 0.29286479949951172 0 148.99002075195312
v 1.0928647518157959 2.0999999046325684 148.99002075195312
v 0.29286479949951172 2.0999999046325684 148.99002075195312
f 76 74 73 75
g object_20
v 3.5768358707427979 0 148.99002075195312
v 2.7768359184265137 0 148.99002075195312
v 3.5768358707427979 2.0999999046325684 148.99002075195312
v 2.7768359184265137 2.0999999046325684 148.99002075195312
f 80 78 77 79
g object_21
v 3.446216344833374 0 152.03509521484375
v 2.6462163925170898 0 152.03509521484375
v 3.446216344833374 2.0999999046325684 152.03509521484375
v 2.6462163925170898 2.0999999046325684 152.03509521484375
f 84 82 81 83
g object_22
v -0.013181408867239952 0 152.03509521484375
v 0.78681856393814087 0 152.03509521484375
v -0.013181408867239952 2.0999999046325684 152.03509521484375
v 0.78681856393814087 2.0999999046325684 152.03509521484375
f 88 86 85 87
