# Rhino

v 15.75 6 -18.25
v 15.75 9 -18.25
v 15.75 6 -19.75
v 15.75 9 -19.75
v 15.75 6 -19.75
v 15.75 9 -19.75
v 14.25 6 -19.75
v 14.25 9 -19.75
v 14.25 6 -19.75
v 14.25 9 -19.75
v 14.25 6 -18.25
v 14.25 9 -18.25
v 14.25 6 -18.25
v 14.25 9 -18.25
v 15.75 6 -18.25
v 15.75 9 -18.25
v 15.75 6 -18.25
v 15.75 6 -19.75
v 14.25 6 -19.75
v 14.25 6 -18.25
v 15.75 9 -18.25
v 15.75 9 -19.75
v 14.25 9 -19.75
v 14.25 9 -18.25
vt 0 0
vt 0 0.74999946355819702
vt 0.25 0
vt 0.25 0.74999946355819702
vt 0.25 0
vt 0.25 0.74999946355819702
vt 0.5 0
vt 0.5 0.74999946355819702
vt 0.5 0
vt 0.5 0.74999946355819702
vt 0.75 0
vt 0.75 0.74999946355819702
vt 0.75 0
vt 0.75 0.74999946355819702
vt 1 0
vt 1 0.74999946355819702
vt 0 1
vt 0.25 1
vt 0.25 0.75000017881393433
vt 0 0.75000017881393433
vt 0.75 0.75000017881393433
vt 1 0.75000017881393433
vt 1 1
vt 0.75 1
vn 1 0 0
vn 1 0 0
vn 1 0 0
vn 1 0 0
vn 0 0 -1
vn 0 0 -1
vn 0 0 -1
vn 0 0 -1
vn -1 0 0
vn -1 0 0
vn -1 0 0
vn -1 0 0
vn 0 0 1
vn 0 0 1
vn 0 0 1
vn 0 0 1
vn 0 -1 0
vn 0 -1 0
vn 0 -1 0
vn 0 -1 0
vn 0 1 0
vn 0 1 0
vn 0 1 0
vn 0 1 0
f 1/1/1 3/3/3 4/4/4 2/2/2
f 5/5/5 7/7/7 8/8/8 6/6/6
f 9/9/9 11/11/11 12/12/12 10/10/10
f 13/13/13 15/15/15 16/16/16 14/14/14
f 18/18/18 17/17/17 20/20/20
f 20/20/20 19/19/19 18/18/18
f 22/22/22 24/24/24 21/21/21
f 24/24/24 22/22/22 23/23/23
v 15.75 6 -10.25
v 15.75 9 -10.25
v 15.75 6 -11.75
v 15.75 9 -11.75
v 15.75 6 -11.75
v 15.75 9 -11.75
v 14.25 6 -11.75
v 14.25 9 -11.75
v 14.25 6 -11.75
v 14.25 9 -11.75
v 14.25 6 -10.25
v 14.25 9 -10.25
v 14.25 6 -10.25
v 14.25 9 -10.25
v 15.75 6 -10.25
v 15.75 9 -10.25
v 15.75 6 -10.25
v 15.75 6 -11.75
v 14.25 6 -11.75
v 14.25 6 -10.25
v 15.75 9 -10.25
v 15.75 9 -11.75
v 14.25 9 -11.75
v 14.25 9 -10.25
vt 0 0
vt 0 0.74999946355819702
vt 0.25 0
vt 0.25 0.74999946355819702
vt 0.25 0
vt 0.25 0.74999946355819702
vt 0.5 0
vt 0.5 0.74999946355819702
vt 0.5 0
vt 0.5 0.74999946355819702
vt 0.75 0
vt 0.75 0.74999946355819702
vt 0.75 0
vt 0.75 0.74999946355819702
vt 1 0
vt 1 0.74999946355819702
vt 0 1
vt 0.25 1
vt 0.25 0.75000017881393433
vt 0 0.75000017881393433
vt 0.75 0.75000017881393433
vt 1 0.75000017881393433
vt 1 1
vt 0.75 1
vn 1 0 0
vn 1 0 0
vn 1 0 0
vn 1 0 0
vn 0 0 -1
vn 0 0 -1
vn 0 0 -1
vn 0 0 -1
vn -1 0 0
vn -1 0 0
vn -1 0 0
vn -1 0 0
vn 0 0 1
vn 0 0 1
vn 0 0 1
vn 0 0 1
vn 0 -1 0
vn 0 -1 0
vn 0 -1 0
vn 0 -1 0
vn 0 1 0
vn 0 1 0
vn 0 1 0
vn 0 1 0
f 25/25/25 27/27/27 28/28/28 26/26/26
f 29/29/29 31/31/31 32/32/32 30/30/30
f 33/33/33 35/35/35 36/36/36 34/34/34
f 37/37/37 39/39/39 40/40/40 38/38/38
f 42/42/42 41/41/41 44/44/44
f 44/44/44 43/43/43 42/42/42
f 46/46/46 48/48/48 45/45/45
f 48/48/48 46/46/46 47/47/47
v 9.75 6 -18.25
v 9.75 9 -18.25
v 9.75 6 -19.75
v 9.75 9 -19.75
v 9.75 6 -19.75
v 9.75 9 -19.75
v 8.25 6 -19.75
v 8.25 9 -19.75
v 8.25 6 -19.75
v 8.25 9 -19.75
v 8.25 6 -18.25
v 8.25 9 -18.25
v 8.25 6 -18.25
v 8.25 9 -18.25
v 9.75 6 -18.25
v 9.75 9 -18.25
v 9.75 6 -18.25
v 9.75 6 -19.75
v 8.25 6 -19.75
v 8.25 6 -18.25
v 9.75 9 -18.25
v 9.75 9 -19.75
v 8.25 9 -19.75
v 8.25 9 -18.25
vt 0 0
vt 0 0.74999946355819702
vt 0.25 0
vt 0.25 0.74999946355819702
vt 0.25 0
vt 0.25 0.74999946355819702
vt 0.5 0
vt 0.5 0.74999946355819702
vt 0.5 0
vt 0.5 0.74999946355819702
vt 0.75 0
vt 0.75 0.74999946355819702
vt 0.75 0
vt 0.75 0.74999946355819702
vt 1 0
vt 1 0.74999946355819702
vt 0 1
vt 0.25 1
vt 0.25 0.75000017881393433
vt 0 0.75000017881393433
vt 0.75 0.75000017881393433
vt 1 0.75000017881393433
vt 1 1
vt 0.75 1
vn 1 0 0
vn 1 0 0
vn 1 0 0
vn 1 0 0
vn 0 0 -1
vn 0 0 -1
vn 0 0 -1
vn 0 0 -1
vn -1 0 0
vn -1 0 0
vn -1 0 0
vn -1 0 0
vn 0 0 1
vn 0 0 1
vn 0 0 1
vn 0 0 1
vn 0 -1 0
vn 0 -1 0
vn 0 -1 0
vn 0 -1 0
vn 0 1 0
vn 0 1 0
vn 0 1 0
vn 0 1 0
f 49/49/49 51/51/51 52/52/52 50/50/50
f 53/53/53 55/55/55 56/56/56 54/54/54
f 57/57/57 59/59/59 60/60/60 58/58/58
f 61/61/61 63/63/63 64/64/64 62/62/62
f 66/66/66 65/65/65 68/68/68
f 68/68/68 67/67/67 66/66/66
f 70/70/70 72/72/72 69/69/69
f 72/72/72 70/70/70 71/71/71
v 9.75 6 -10.25
v 9.75 9 -10.25
v 9.75 6 -11.75
v 9.75 9 -11.75
v 9.75 6 -11.75
v 9.75 9 -11.75
v 8.25 6 -11.75
v 8.25 9 -11.75
v 8.25 6 -11.75
v 8.25 9 -11.75
v 8.25 6 -10.25
v 8.25 9 -10.25
v 8.25 6 -10.25
v 8.25 9 -10.25
v 9.75 6 -10.25
v 9.75 9 -10.25
v 9.75 6 -10.25
v 9.75 6 -11.75
v 8.25 6 -11.75
v 8.25 6 -10.25
v 9.75 9 -10.25
v 9.75 9 -11.75
v 8.25 9 -11.75
v 8.25 9 -10.25
vt 0 0
vt 0 0.74999946355819702
vt 0.25 0
vt 0.25 0.74999946355819702
vt 0.25 0
vt 0.25 0.74999946355819702
vt 0.5 0
vt 0.5 0.74999946355819702
vt 0.5 0
vt 0.5 0.74999946355819702
vt 0.75 0
vt 0.75 0.74999946355819702
vt 0.75 0
vt 0.75 0.74999946355819702
vt 1 0
vt 1 0.74999946355819702
vt 0 1
vt 0.25 1
vt 0.25 0.75000017881393433
vt 0 0.75000017881393433
vt 0.75 0.75000017881393433
vt 1 0.75000017881393433
vt 1 1
vt 0.75 1
vn 1 0 0
vn 1 0 0
vn 1 0 0
vn 1 0 0
vn 0 0 -1
vn 0 0 -1
vn 0 0 -1
vn 0 0 -1
vn -1 0 0
vn -1 0 0
vn -1 0 0
vn -1 0 0
vn 0 0 1
vn 0 0 1
vn 0 0 1
vn 0 0 1
vn 0 -1 0
vn 0 -1 0
vn 0 -1 0
vn 0 -1 0
vn 0 1 0
vn 0 1 0
vn 0 1 0
vn 0 1 0
f 73/73/73 75/75/75 76/76/76 74/74/74
f 77/77/77 79/79/79 80/80/80 78/78/78
f 81/81/81 83/83/83 84/84/84 82/82/82
f 85/85/85 87/87/87 88/88/88 86/86/86
f 90/90/90 89/89/89 92/92/92
f 92/92/92 91/91/91 90/90/90
f 94/94/94 96/96/96 93/93/93
f 96/96/96 94/94/94 95/95/95
v -6.25 6 -33.75
v -6.25 9 -33.75
v -7.75 6 -33.75
v -7.75 9 -33.75
v -7.75 6 -33.75
v -7.75 9 -33.75
v -7.75 6 -32.25
v -7.75 9 -32.25
v -7.75 6 -32.25
v -7.75 9 -32.25
v -6.25 6 -32.25
v -6.25 9 -32.25
v -6.25 6 -32.25
v -6.25 9 -32.25
v -6.25 6 -33.75
v -6.25 9 -33.75
v -6.25 6 -33.75
v -7.75 6 -33.75
v -7.75 6 -32.25
v -6.25 6 -32.25
v -6.25 9 -33.75
v -7.75 9 -33.75
v -7.75 9 -32.25
v -6.25 9 -32.25
vt 0 0
vt 0 0.74999946355819702
vt 0.25 0
vt 0.25 0.74999946355819702
vt 0.25 0
vt 0.25 0.74999946355819702
vt 0.5 0
vt 0.5 0.74999946355819702
vt 0.5 0
vt 0.5 0.74999946355819702
vt 0.75 0
vt 0.75 0.74999946355819702
vt 0.75 0
vt 0.75 0.74999946355819702
vt 1 0
vt 1 0.74999946355819702
vt 0 1
vt 0.25 1
vt 0.25 0.75000017881393433
vt 0 0.75000017881393433
vt 0.75 0.75000017881393433
vt 1 0.75000017881393433
vt 1 1
vt 0.75 1
vn 0 0 -1
vn 0 0 -1
vn 0 0 -1
vn 0 0 -1
vn -1 0 0
vn -1 0 0
vn -1 0 0
vn -1 0 0
vn 0 0 1
vn 0 0 1
vn 0 0 1
vn 0 0 1
vn 1 0 0
vn 1 0 0
vn 1 0 0
vn 1 0 0
vn 0 -1 0
vn 0 -1 0
vn 0 -1 0
vn 0 -1 0
vn 0 1 0
vn 0 1 0
vn 0 1 0
vn 0 1 0
f 97/97/97 99/99/99 100/100/100 98/98/98
f 101/101/101 103/103/103 104/104/104 102/102/102
f 105/105/105 107/107/107 108/108/108 106/106/106
f 109/109/109 111/111/111 112/112/112 110/110/110
f 114/114/114 113/113/113 116/116/116
f 116/116/116 115/115/115 114/114/114
f 118/118/118 120/120/120 117/117/117
f 120/120/120 118/118/118 119/119/119
v 1.75 6 -33.75
v 1.75 9 -33.75
v 0.25 6 -33.75
v 0.25 9 -33.75
v 0.25 6 -33.75
v 0.25 9 -33.75
v 0.25 6 -32.25
v 0.25 9 -32.25
v 0.25 6 -32.25
v 0.25 9 -32.25
v 1.75 6 -32.25
v 1.75 9 -32.25
v 1.75 6 -32.25
v 1.75 9 -32.25
v 1.75 6 -33.75
v 1.75 9 -33.75
v 1.75 6 -33.75
v 0.25 6 -33.75
v 0.25 6 -32.25
v 1.75 6 -32.25
v 1.75 9 -33.75
v 0.25 9 -33.75
v 0.25 9 -32.25
v 1.75 9 -32.25
vt 0 0
vt 0 0.74999946355819702
vt 0.25 0
vt 0.25 0.74999946355819702
vt 0.25 0
vt 0.25 0.74999946355819702
vt 0.5 0
vt 0.5 0.74999946355819702
vt 0.5 0
vt 0.5 0.74999946355819702
vt 0.75 0
vt 0.75 0.74999946355819702
vt 0.75 0
vt 0.75 0.74999946355819702
vt 1 0
vt 1 0.74999946355819702
vt 0 1
vt 0.25 1
vt 0.25 0.75000017881393433
vt 0 0.75000017881393433
vt 0.75 0.75000017881393433
vt 1 0.75000017881393433
vt 1 1
vt 0.75 1
vn 0 0 -1
vn 0 0 -1
vn 0 0 -1
vn 0 0 -1
vn -1 0 0
vn -1 0 0
vn -1 0 0
vn -1 0 0
vn 0 0 1
vn 0 0 1
vn 0 0 1
vn 0 0 1
vn 1 0 0
vn 1 0 0
vn 1 0 0
vn 1 0 0
vn 0 -1 0
vn 0 -1 0
vn 0 -1 0
vn 0 -1 0
vn 0 1 0
vn 0 1 0
vn 0 1 0
vn 0 1 0
f 121/121/121 123/123/123 124/124/124 122/122/122
f 125/125/125 127/127/127 128/128/128 126/126/126
f 129/129/129 131/131/131 132/132/132 130/130/130
f 133/133/133 135/135/135 136/136/136 134/134/134
f 138/138/138 137/137/137 140/140/140
f 140/140/140 139/139/139 138/138/138
f 142/142/142 144/144/144 141/141/141
f 144/144/144 142/142/142 143/143/143
v -6.25 6 -27.75
v -6.25 9 -27.75
v -7.75 6 -27.75
v -7.75 9 -27.75
v -7.75 6 -27.75
v -7.75 9 -27.75
v -7.75 6 -26.25
v -7.75 9 -26.25
v -7.75 6 -26.25
v -7.75 9 -26.25
v -6.25 6 -26.25
v -6.25 9 -26.25
v -6.25 6 -26.25
v -6.25 9 -26.25
v -6.25 6 -27.75
v -6.25 9 -27.75
v -6.25 6 -27.75
v -7.75 6 -27.75
v -7.75 6 -26.25
v -6.25 6 -26.25
v -6.25 9 -27.75
v -7.75 9 -27.75
v -7.75 9 -26.25
v -6.25 9 -26.25
vt 0 0
vt 0 0.74999946355819702
vt 0.25 0
vt 0.25 0.74999946355819702
vt 0.25 0
vt 0.25 0.74999946355819702
vt 0.5 0
vt 0.5 0.74999946355819702
vt 0.5 0
vt 0.5 0.74999946355819702
vt 0.75 0
vt 0.75 0.74999946355819702
vt 0.75 0
vt 0.75 0.74999946355819702
vt 1 0
vt 1 0.74999946355819702
vt 0 1
vt 0.25 1
vt 0.25 0.75000017881393433
vt 0 0.75000017881393433
vt 0.75 0.75000017881393433
vt 1 0.75000017881393433
vt 1 1
vt 0.75 1
vn 0 0 -1
vn 0 0 -1
vn 0 0 -1
vn 0 0 -1
vn -1 0 0
vn -1 0 0
vn -1 0 0
vn -1 0 0
vn 0 0 1
vn 0 0 1
vn 0 0 1
vn 0 0 1
vn 1 0 0
vn 1 0 0
vn 1 0 0
vn 1 0 0
vn 0 -1 0
vn 0 -1 0
vn 0 -1 0
vn 0 -1 0
vn 0 1 0
vn 0 1 0
vn 0 1 0
vn 0 1 0
f 145/145/145 147/147/147 148/148/148 146/146/146
f 149/149/149 151/151/151 152/152/152 150/150/150
f 153/153/153 155/155/155 156/156/156 154/154/154
f 157/157/157 159/159/159 160/160/160 158/158/158
f 162/162/162 161/161/161 164/164/164
f 164/164/164 163/163/163 162/162/162
f 166/166/166 168/168/168 165/165/165
f 168/168/168 166/166/166 167/167/167
v 1.75 6 -27.75
v 1.75 9 -27.75
v 0.25 6 -27.75
v 0.25 9 -27.75
v 0.25 6 -27.75
v 0.25 9 -27.75
v 0.25 6 -26.25
v 0.25 9 -26.25
v 0.25 6 -26.25
v 0.25 9 -26.25
v 1.75 6 -26.25
v 1.75 9 -26.25
v 1.75 6 -26.25
v 1.75 9 -26.25
v 1.75 6 -27.75
v 1.75 9 -27.75
v 1.75 6 -27.75
v 0.25 6 -27.75
v 0.25 6 -26.25
v 1.75 6 -26.25
v 1.75 9 -27.75
v 0.25 9 -27.75
v 0.25 9 -26.25
v 1.75 9 -26.25
vt 0 0
vt 0 0.74999946355819702
vt 0.25 0
vt 0.25 0.74999946355819702
vt 0.25 0
vt 0.25 0.74999946355819702
vt 0.5 0
vt 0.5 0.74999946355819702
vt 0.5 0
vt 0.5 0.74999946355819702
vt 0.75 0
vt 0.75 0.74999946355819702
vt 0.75 0
vt 0.75 0.74999946355819702
vt 1 0
vt 1 0.74999946355819702
vt 0 1
vt 0.25 1
vt 0.25 0.75000017881393433
vt 0 0.75000017881393433
vt 0.75 0.75000017881393433
vt 1 0.75000017881393433
vt 1 1
vt 0.75 1
vn 0 0 -1
vn 0 0 -1
vn 0 0 -1
vn 0 0 -1
vn -1 0 0
vn -1 0 0
vn -1 0 0
vn -1 0 0
vn 0 0 1
vn 0 0 1
vn 0 0 1
vn 0 0 1
vn 1 0 0
vn 1 0 0
vn 1 0 0
vn 1 0 0
vn 0 -1 0
vn 0 -1 0
vn 0 -1 0
vn 0 -1 0
vn 0 1 0
vn 0 1 0
vn 0 1 0
vn 0 1 0
f 169/169/169 171/171/171 172/172/172 170/170/170
f 173/173/173 175/175/175 176/176/176 174/174/174
f 177/177/177 179/179/179 180/180/180 178/178/178
f 181/181/181 183/183/183 184/184/184 182/182/182
f 186/186/186 185/185/185 188/188/188
f 188/188/188 187/187/187 186/186/186
f 190/190/190 192/192/192 189/189/189
f 192/192/192 190/190/190 191/191/191
