# Rhino

g outdated door
v 16310 0 3440
v 16310 2340.324462890625 3440
v 16310 0 2260
v 16310 2340.324462890625 2260
vt 0 0
vt 0 1
vt 1 0
vt 1 1
vn 1 0 0
vn 1 0 0
vn 1 0 0
vn 1 0 0
f 4/4/4 2/2/2 1/1/1 3/3/3
v 8217.8125 2045.2042236328125 -2240
v 8217.8125 0 -2240
v 7310 2045.2042236328125 -2240
v 7310 0 -2240
vt 0 0
vt 0 1
vt 1 0
vt 1 1
vn 0 0 1
vn 0 0 1
vn 0 0 1
vn 0 0 1
f 8/8/8 6/6/6 5/5/5 7/7/7
v 8217.8125 2045.2042236328125 760
v 8217.8125 0 760
v 7310 2045.2042236328125 760
v 7310 0 760
vt 0 0
vt 0 1
vt 1 0
vt 1 1
vn 0 0 1
vn 0 0 1
vn 0 0 1
vn 0 0 1
f 12/12/12 10/10/10 9/9/9 11/11/11
v 7310 0 2801.122802734375
v 7310 2340.324462890625 2801.122802734375
v 7310 0 1621.1226806640625
v 7310 2340.324462890625 1621.1226806640625
vt 0 0
vt 0 1
vt 1 0
vt 1 1
vn 1 0 0
vn 1 0 0
vn 1 0 0
vn 1 0 0
f 16/16/16 14/14/14 13/13/13 15/15/15
v 14810 2045.2042236328125 3760
v 14810 0 3760
v 13902.1875 2045.2042236328125 3760
v 13902.1875 0 3760
vt 0 0
vt 0 1
vt 1 0
vt 1 1
vn 0 0 1
vn 0 0 1
vn 0 0 1
vn 0 0 1
f 20/20/20 18/18/18 17/17/17 19/19/19
v 18097.400390625 2045.2042236328125 3760
v 18097.400390625 0 3760
v 17189.587890625 2045.2042236328125 3760
v 17189.587890625 0 3760
vt 0 0
vt 0 1
vt 1 0
vt 1 1
vn 0 0 1
vn 0 0 1
vn 0 0 1
vn 0 0 1
f 24/24/24 22/22/22 21/21/21 23/23/23
v 7310 0 -740
v 7310 2340.324462890625 -740
v 7310 0 -1920
v 7310 2340.324462890625 -1920
vt 0 0
vt 0 1
vt 1 0
vt 1 1
vn 1 0 0
vn 1 0 0
vn 1 0 0
vn 1 0 0
f 28/28/28 26/26/26 25/25/25 27/27/27
v 10310 0 2801.122802734375
v 10310 2340.324462890625 2801.122802734375
v 10310 0 1621.1226806640625
v 10310 2340.324462890625 1621.1226806640625
vt 0 0
vt 0 1
vt 1 0
vt 1 1
vn 1 0 0
vn 1 0 0
vn 1 0 0
vn 1 0 0
f 32/32/32 30/30/30 29/29/29 31/31/31
v 19310 0 3317.522705078125
v 19310 2340.324462890625 3317.522705078125
v 19310 0 2137.522705078125
v 19310 2340.324462890625 2137.522705078125
vt 0 0
vt 0 1
vt 1 0
vt 1 1
vn 1 0 0
vn 1 0 0
vn 1 0 0
vn 1 0 0
f 36/36/36 34/34/34 33/33/33 35/35/35
g outdated entrance_door
v 14193.462890625 2045.2042236328125 760
v 14193.462890625 0 760
v 12063.6884765625 2045.2042236328125 760
v 12063.6884765625 0 760
vt 0 0
vt 0 1
vt 1 0
vt 1 1
vn 0 0 1
vn 0 0 1
vn 0 0 1
vn 0 0 1
f 40/40/40 38/38/38 37/37/37 39/39/39
v 5511.986328125 0 -3170.1591796875
v 5511.986328125 2030 -3170.1591796875
v 5511.986328125 0 -4613.9716796875
v 5511.986328125 2030 -4613.9716796875
vt 0 0
vt 0 1
vt 1 0
vt 1 1
vn 1 0 0
vn 1 0 0
vn 1 0 0
vn 1 0 0
f 44/44/44 42/42/42 41/41/41 43/43/43
v 4310 0 4280
v 4310 2030 4280
v 4310 0 2836.187744140625
v 4310 2030 2836.187744140625
vt 0 0
vt 0 1
vt 1 0
vt 1 1
vn 1 0 0
vn 1 0 0
vn 1 0 0
vn 1 0 0
f 48/48/48 46/46/46 45/45/45 47/47/47
