# Rhino

g rooms bedroom
v 11511.986328125 0 -2240
v 11511.986328125 0 -5240
v 5511.986328125 0 -2240
v 5511.986328125 0 -5240
v 8511.986328125 0 -2240
v 5511.986328125 0 -3740
v 8511.986328125 0 -5240
v 11511.986328125 0 -3740
v 5511.986328125 0 -2240
v 5511.986328125 0 -5240
v 5511.986328125 3000 -2240
v 5511.986328125 3000 -5240
v 5511.986328125 0 -3740
v 5511.986328125 1500 -2240
v 5511.986328125 3000 -3740
v 5511.986328125 1500 -5240
v 5511.986328125 3000 -2240
v 5511.986328125 3000 -5240
v 11511.986328125 3000 -2240
v 11511.986328125 3000 -5240
v 5511.986328125 3000 -3740
v 11511.986328125 3000 -3740
v 8511.986328125 3000 -5240
v 8511.986328125 3000 -2240
v 11511.986328125 3000 -2240
v 11511.986328125 3000 -5240
v 11511.986328125 0 -2240
v 11511.986328125 0 -5240
v 11511.986328125 0 -3740
v 11511.986328125 3000 -3740
v 11511.986328125 1500 -2240
v 11511.986328125 1500 -5240
v 11511.986328125 0 -2240
v 11511.986328125 3000 -2240
v 5511.986328125 0 -2240
v 5511.986328125 3000 -2240
v 8511.986328125 0 -2240
v 5511.986328125 1500 -2240
v 8511.986328125 3000 -2240
v 11511.986328125 1500 -2240
v 11511.986328125 0 -5240
v 11511.986328125 3000 -5240
v 5511.986328125 0 -5240
v 5511.986328125 3000 -5240
v 8511.986328125 0 -5240
v 5511.986328125 1500 -5240
v 8511.986328125 3000 -5240
v 11511.986328125 1500 -5240
vt 0.5 0.5
vt 0.5 0.74853515625
vt 0.99853515625 0.5
vt 0.99853515625 0.74853515625
vt 0.749267578125 0.5
vt 0.99853515625 0.624267578125
vt 0.749267578125 0.74853515625
vt 0.5 0.624267578125
vt 0.75 0
vt 0.75 0.24853515625
vt 0.99853515625 0
vt 0.99853515625 0.24853515625
vt 0.75 0.124267578125
vt 0.874267578125 0
vt 0.99853515625 0.124267578125
vt 0.874267578125 0.24853515625
vt 0.5 0.25
vt 0.5 0.49853515625
vt 0.99853515625 0.25
vt 0.99853515625 0.49853515625
vt 0.5 0.374267578125
vt 0.99853515625 0.374267578125
vt 0.749267578125 0.49853515625
vt 0.749267578125 0.25
vt 0.5 0
vt 0.5 0.24853515625
vt 0.74853515625 0
vt 0.74853515625 0.24853515625
vt 0.74853515625 0.124267578125
vt 0.5 0.124267578125
vt 0.624267578125 0
vt 0.624267578125 0.24853515625
vt 0.49853515625 0
vt 0.25 0
vt 0.49853515625 0.5
vt 0.25 0.5
vt 0.49853515625 0.25
vt 0.374267578125 0.5
vt 0.25 0.25
vt 0.374267578125 0
vt 0.24853515625 0
vt 0 0
vt 0.24853515625 0.5
vt 0 0.5
vt 0.24853515625 0.25
vt 0.124267578125 0.5
vt 0 0.25
vt 0.124267578125 0
vn 0 -1 0
vn 0 -1 0
vn 0 -1 0
vn 0 -1 0
vn 0 -1 0
vn 0 -1 0
vn 0 -1 0
vn 0 -1 0
vn -1 0 0
vn -1 0 0
vn -1 0 0
vn -1 0 0
vn -1 0 0
vn -1 0 0
vn -1 0 0
vn -1 0 0
vn 0 1 0
vn 0 1 0
vn 0 1 0
vn 0 1 0
vn 0 1 0
vn 0 1 0
vn 0 1 0
vn 0 1 0
vn 1 0 0
vn 1 0 0
vn 1 0 0
vn 1 0 0
vn 1 0 0
vn 1 0 0
vn 1 0 0
vn 1 0 0
vn 0 0 1
vn 0 0 1
vn 0 0 1
vn 0 0 1
vn 0 0 1
vn 0 0 1
vn 0 0 1
vn 0 0 1
vn 0 0 -1
vn 0 0 -1
vn 0 0 -1
vn 0 0 -1
vn 0 0 -1
vn 0 0 -1
vn 0 0 -1
vn 0 0 -1
f 8/8/8 1/1/1 5/5/5
f 8/8/8 7/7/7 2/2/2
f 6/6/6 8/8/8 5/5/5
f 8/8/8 6/6/6 7/7/7
f 6/6/6 4/4/4 7/7/7
f 3/3/3 6/6/6 5/5/5
f 13/13/13 9/9/9 14/14/14
f 13/13/13 16/16/16 10/10/10
f 15/15/15 13/13/13 14/14/14
f 13/13/13 15/15/15 16/16/16
f 15/15/15 12/12/12 16/16/16
f 11/11/11 15/15/15 14/14/14
f 21/21/21 17/17/17 24/24/24
f 21/21/21 23/23/23 18/18/18
f 22/22/22 21/21/21 24/24/24
f 21/21/21 22/22/22 23/23/23
f 22/22/22 20/20/20 23/23/23
f 19/19/19 22/22/22 24/24/24
f 30/30/30 25/25/25 31/31/31
f 30/30/30 32/32/32 26/26/26
f 29/29/29 30/30/30 31/31/31
f 30/30/30 29/29/29 32/32/32
f 29/29/29 28/28/28 32/32/32
f 27/27/27 29/29/29 31/31/31
f 40/40/40 37/37/37 33/33/33
f 40/40/40 34/34/34 39/39/39
f 38/38/38 37/37/37 40/40/40
f 40/40/40 39/39/39 38/38/38
f 38/38/38 39/39/39 36/36/36
f 35/35/35 37/37/37 38/38/38
f 48/48/48 41/41/41 45/45/45
f 48/48/48 47/47/47 42/42/42
f 46/46/46 48/48/48 45/45/45
f 48/48/48 46/46/46 47/47/47
f 46/46/46 44/44/44 47/47/47
f 43/43/43 46/46/46 45/45/45
v 7310 3000 760
v 7310 3000 6760
v 4310 3000 760
v 4310 3000 6760
v 5810 3000 760
v 4310 3000 3760
v 5810 3000 6760
v 7310 3000 3760
v 4310 3000 760
v 4310 3000 6760
v 4310 0 760
v 4310 0 6760
v 4310 3000 3760
v 4310 1500 760
v 4310 0 3760
v 4310 1500 6760
v 4310 0 760
v 4310 0 6760
v 7310 0 760
v 7310 0 6760
v 4310 0 3760
v 5810 0 760
v 7310 0 3760
v 5810 0 6760
v 7310 0 760
v 7310 0 6760
v 7310 3000 760
v 7310 3000 6760
v 7310 3000 3760
v 7310 0 3760
v 7310 1500 760
v 7310 1500 6760
v 7310 3000 760
v 7310 0 760
v 4310 3000 760
v 4310 0 760
v 5810 3000 760
v 4310 1500 760
v 5810 0 760
v 7310 1500 760
v 7310 3000 6760
v 7310 0 6760
v 4310 3000 6760
v 4310 0 6760
v 5810 3000 6760
v 4310 1500 6760
v 5810 0 6760
v 7310 1500 6760
vt 0.99853515625 0.5
vt 0.5 0.5
vt 0.99853515625 0.74853515625
vt 0.5 0.74853515625
vt 0.99853515625 0.624267578125
vt 0.749267578125 0.74853515625
vt 0.5 0.624267578125
vt 0.749267578125 0.5
vt 0.99853515625 0.25
vt 0.5 0.25
vt 0.99853515625 0.49853515625
vt 0.5 0.49853515625
vt 0.749267578125 0.25
vt 0.99853515625 0.374267578125
vt 0.749267578125 0.49853515625
vt 0.5 0.374267578125
vt 0.25 0
vt 0.25 0.5
vt 0.49853515625 0
vt 0.49853515625 0.5
vt 0.25 0.25
vt 0.374267578125 0
vt 0.49853515625 0.25
vt 0.374267578125 0.5
vt 0 0
vt 0 0.5
vt 0.24853515625 0
vt 0.24853515625 0.5
vt 0.24853515625 0.25
vt 0 0.25
vt 0.124267578125 0
vt 0.124267578125 0.5
vt 0.75 0
vt 0.75 0.24853515625
vt 0.99853515625 0
vt 0.99853515625 0.24853515625
vt 0.874267578125 0
vt 0.99853515625 0.124267578125
vt 0.874267578125 0.24853515625
vt 0.75 0.124267578125
vt 0.5 0
vt 0.5 0.24853515625
vt 0.74853515625 0
vt 0.74853515625 0.24853515625
vt 0.624267578125 0
vt 0.74853515625 0.124267578125
vt 0.624267578125 0.24853515625
vt 0.5 0.124267578125
vn 0 1 0
vn 0 1 0
vn 0 1 0
vn 0 1 0
vn 0 1 0
vn 0 1 0
vn 0 1 0
vn 0 1 0
vn -1 0 0
vn -1 0 0
vn -1 0 0
vn -1 0 0
vn -1 0 0
vn -1 0 0
vn -1 0 0
vn -1 0 0
vn 0 -1 0
vn 0 -1 0
vn 0 -1 0
vn 0 -1 0
vn 0 -1 0
vn 0 -1 0
vn 0 -1 0
vn 0 -1 0
vn 1 0 0
vn 1 0 0
vn 1 0 0
vn 1 0 0
vn 1 0 0
vn 1 0 0
vn 1 0 0
vn 1 0 0
vn 0 0 -1
vn 0 0 -1
vn 0 0 -1
vn 0 0 -1
vn 0 0 -1
vn 0 0 -1
vn 0 0 -1
vn 0 0 -1
vn 0 0 1
vn 0 0 1
vn 0 0 1
vn 0 0 1
vn 0 0 1
vn 0 0 1
vn 0 0 1
vn 0 0 1
f 56/56/56 49/49/49 53/53/53
f 56/56/56 55/55/55 50/50/50
f 54/54/54 56/56/56 53/53/53
f 56/56/56 54/54/54 55/55/55
f 54/54/54 52/52/52 55/55/55
f 51/51/51 54/54/54 53/53/53
f 61/61/61 57/57/57 62/62/62
f 61/61/61 64/64/64 58/58/58
f 63/63/63 61/61/61 62/62/62
f 61/61/61 63/63/63 64/64/64
f 63/63/63 60/60/60 64/64/64
f 59/59/59 63/63/63 62/62/62
f 69/69/69 65/65/65 70/70/70
f 69/69/69 72/72/72 66/66/66
f 71/71/71 69/69/69 70/70/70
f 69/69/69 71/71/71 72/72/72
f 71/71/71 68/68/68 72/72/72
f 67/67/67 71/71/71 70/70/70
f 78/78/78 73/73/73 79/79/79
f 78/78/78 80/80/80 74/74/74
f 77/77/77 78/78/78 79/79/79
f 78/78/78 77/77/77 80/80/80
f 77/77/77 76/76/76 80/80/80
f 75/75/75 77/77/77 79/79/79
f 88/88/88 85/85/85 81/81/81
f 88/88/88 82/82/82 87/87/87
f 86/86/86 85/85/85 88/88/88
f 88/88/88 87/87/87 86/86/86
f 86/86/86 87/87/87 84/84/84
f 83/83/83 85/85/85 86/86/86
f 96/96/96 89/89/89 93/93/93
f 96/96/96 95/95/95 90/90/90
f 94/94/94 96/96/96 93/93/93
f 96/96/96 94/94/94 95/95/95
f 94/94/94 92/92/92 95/95/95
f 91/91/91 94/94/94 93/93/93
v 22310 0 1961.9864501953125
v 22310 0 7961.986328125
v 22310 3000 1961.9864501953125
v 22310 3000 7961.986328125
v 22310 1500 1961.9864501953125
v 22310 3000 4961.986328125
v 22310 1500 7961.986328125
v 22310 0 4961.986328125
v 22310 3000 1961.9864501953125
v 22310 3000 7961.986328125
v 19310 3000 1961.9864501953125
v 19310 3000 7961.986328125
v 22310 3000 4961.986328125
v 20810 3000 1961.9864501953125
v 19310 3000 4961.986328125
v 20810 3000 7961.986328125
v 19310 3000 1961.9864501953125
v 19310 3000 7961.986328125
v 19310 0 1961.9864501953125
v 19310 0 7961.986328125
v 19310 3000 4961.986328125
v 19310 1500 1961.9864501953125
v 19310 0 4961.986328125
v 19310 1500 7961.986328125
v 19310 0 1961.9864501953125
v 19310 0 7961.986328125
v 22310 0 1961.9864501953125
v 22310 0 7961.986328125
v 22310 0 4961.986328125
v 19310 0 4961.986328125
v 20810 0 1961.9864501953125
v 20810 0 7961.986328125
v 22310 0 1961.9864501953125
v 19310 0 1961.9864501953125
v 22310 3000 1961.9864501953125
v 19310 3000 1961.9864501953125
v 22310 1500 1961.9864501953125
v 20810 3000 1961.9864501953125
v 19310 1500 1961.9864501953125
v 20810 0 1961.9864501953125
v 22310 0 7961.986328125
v 19310 0 7961.986328125
v 22310 3000 7961.986328125
v 19310 3000 7961.986328125
v 22310 1500 7961.986328125
v 20810 3000 7961.986328125
v 19310 1500 7961.986328125
v 20810 0 7961.986328125
vt 0.25 0.25
vt 0.25 0.74853515625
vt 0.49853515625 0.25
vt 0.49853515625 0.74853515625
vt 0.374267578125 0.25
vt 0.49853515625 0.499267578125
vt 0.374267578125 0.74853515625
vt 0.25 0.499267578125
vt 0 0.25
vt 0 0.74853515625
vt 0.24853515625 0.25
vt 0.24853515625 0.74853515625
vt 0 0.499267578125
vt 0.124267578125 0.25
vt 0.24853515625 0.499267578125
vt 0.124267578125 0.74853515625
vt 0.75 0
vt 0.75 0.5
vt 0.99853515625 0
vt 0.99853515625 0.5
vt 0.75 0.25
vt 0.874267578125 0
vt 0.99853515625 0.25
vt 0.874267578125 0.5
vt 0.5 0
vt 0.5 0.5
vt 0.74853515625 0
vt 0.74853515625 0.5
vt 0.74853515625 0.25
vt 0.5 0.25
vt 0.624267578125 0
vt 0.624267578125 0.5
vt 0.25 0
vt 0.25 0.24853515625
vt 0.49853515625 0
vt 0.49853515625 0.24853515625
vt 0.374267578125 0
vt 0.49853515625 0.124267578125
vt 0.374267578125 0.24853515625
vt 0.25 0.124267578125
vt 0 0
vt 0 0.24853515625
vt 0.24853515625 0
vt 0.24853515625 0.24853515625
vt 0.124267578125 0
vt 0.24853515625 0.124267578125
vt 0.124267578125 0.24853515625
vt 0 0.124267578125
vn 1 0 0
vn 1 0 0
vn 1 0 0
vn 1 0 0
vn 1 0 0
vn 1 0 0
vn 1 0 0
vn 1 0 0
vn 0 1 0
vn 0 1 0
vn 0 1 0
vn 0 1 0
vn 0 1 0
vn 0 1 0
vn 0 1 0
vn 0 1 0
vn -1 0 0
vn -1 0 0
vn -1 0 0
vn -1 0 0
vn -1 0 0
vn -1 0 0
vn -1 0 0
vn -1 0 0
vn 0 -1 0
vn 0 -1 0
vn 0 -1 0
vn 0 -1 0
vn 0 -1 0
vn 0 -1 0
vn 0 -1 0
vn 0 -1 0
vn 0 0 -1
vn 0 0 -1
vn 0 0 -1
vn 0 0 -1
vn 0 0 -1
vn 0 0 -1
vn 0 0 -1
vn 0 0 -1
vn 0 0 1
vn 0 0 1
vn 0 0 1
vn 0 0 1
vn 0 0 1
vn 0 0 1
vn 0 0 1
vn 0 0 1
f 104/104/104 97/97/97 101/101/101
f 104/104/104 103/103/103 98/98/98
f 102/102/102 104/104/104 101/101/101
f 104/104/104 102/102/102 103/103/103
f 102/102/102 100/100/100 103/103/103
f 99/99/99 102/102/102 101/101/101
f 109/109/109 105/105/105 110/110/110
f 109/109/109 112/112/112 106/106/106
f 111/111/111 109/109/109 110/110/110
f 109/109/109 111/111/111 112/112/112
f 111/111/111 108/108/108 112/112/112
f 107/107/107 111/111/111 110/110/110
f 117/117/117 113/113/113 118/118/118
f 117/117/117 120/120/120 114/114/114
f 119/119/119 117/117/117 118/118/118
f 117/117/117 119/119/119 120/120/120
f 119/119/119 116/116/116 120/120/120
f 115/115/115 119/119/119 118/118/118
f 126/126/126 121/121/121 127/127/127
f 126/126/126 128/128/128 122/122/122
f 125/125/125 126/126/126 127/127/127
f 126/126/126 125/125/125 128/128/128
f 125/125/125 124/124/124 128/128/128
f 123/123/123 125/125/125 127/127/127
f 136/136/136 133/133/133 129/129/129
f 136/136/136 130/130/130 135/135/135
f 134/134/134 133/133/133 136/136/136
f 136/136/136 135/135/135 134/134/134
f 134/134/134 135/135/135 132/132/132
f 131/131/131 133/133/133 134/134/134
f 144/144/144 137/137/137 141/141/141
f 144/144/144 143/143/143 138/138/138
f 142/142/142 144/144/144 141/141/141
f 144/144/144 142/142/142 143/143/143
f 142/142/142 140/140/140 143/143/143
f 139/139/139 142/142/142 141/141/141
g rooms livingroom
v 16310 3000 3760
v 16310 3000 760
v 16310 0 3760
v 16310 0 760
v 16310 1500 3760
v 16310 0 2260
v 16310 1500 760
v 16310 3000 2260
v 16310 0 3760
v 16310 0 760
v 10310 0 3760
v 10310 0 760
v 16310 0 2260
v 10310 0 2260
v 13310 0 760
v 13310 0 3760
v 10310 0 3760
v 10310 0 760
v 10310 3000 3760
v 10310 3000 760
v 10310 0 2260
v 10310 1500 3760
v 10310 3000 2260
v 10310 1500 760
v 10310 3000 3760
v 10310 3000 760
v 16310 3000 3760
v 16310 3000 760
v 16310 3000 2260
v 13310 3000 760
v 10310 3000 2260
v 13310 3000 3760
v 16310 3000 3760
v 10310 3000 3760
v 16310 0 3760
v 10310 0 3760
v 16310 1500 3760
v 13310 0 3760
v 10310 1500 3760
v 13310 3000 3760
v 16310 3000 760
v 10310 3000 760
v 16310 0 760
v 10310 0 760
v 16310 1500 760
v 13310 0 760
v 10310 1500 760
v 13310 3000 760
vt 0.75 0
vt 0.75 0.24853515625
vt 0.99853515625 0
vt 0.99853515625 0.24853515625
vt 0.874267578125 0
vt 0.99853515625 0.124267578125
vt 0.874267578125 0.24853515625
vt 0.75 0.124267578125
vt 0.5 0.5
vt 0.5 0.74853515625
vt 0.99853515625 0.5
vt 0.99853515625 0.74853515625
vt 0.5 0.624267578125
vt 0.99853515625 0.624267578125
vt 0.749267578125 0.74853515625
vt 0.749267578125 0.5
vt 0.5 0
vt 0.5 0.24853515625
vt 0.74853515625 0
vt 0.74853515625 0.24853515625
vt 0.5 0.124267578125
vt 0.624267578125 0
vt 0.74853515625 0.124267578125
vt 0.624267578125 0.24853515625
vt 0.5 0.25
vt 0.5 0.49853515625
vt 0.99853515625 0.25
vt 0.99853515625 0.49853515625
vt 0.99853515625 0.374267578125
vt 0.749267578125 0.49853515625
vt 0.5 0.374267578125
vt 0.749267578125 0.25
vt 0.25 0
vt 0.25 0.5
vt 0.49853515625 0
vt 0.49853515625 0.5
vt 0.374267578125 0
vt 0.49853515625 0.25
vt 0.374267578125 0.5
vt 0.25 0.25
vt 0 0
vt 0 0.5
vt 0.24853515625 0
vt 0.24853515625 0.5
vt 0.124267578125 0
vt 0.24853515625 0.25
vt 0.124267578125 0.5
vt 0 0.25
vn 1 0 0
vn 1 0 0
vn 1 0 0
vn 1 0 0
vn 1 0 0
vn 1 0 0
vn 1 0 0
vn 1 0 0
vn 0 -1 0
vn 0 -1 0
vn 0 -1 0
vn 0 -1 0
vn 0 -1 0
vn 0 -1 0
vn 0 -1 0
vn 0 -1 0
vn -1 0 0
vn -1 0 0
vn -1 0 0
vn -1 0 0
vn -1 0 0
vn -1 0 0
vn -1 0 0
vn -1 0 0
vn 0 1 0
vn 0 1 0
vn 0 1 0
vn 0 1 0
vn 0 1 0
vn 0 1 0
vn 0 1 0
vn 0 1 0
vn 0 0 1
vn 0 0 1
vn 0 0 1
vn 0 0 1
vn 0 0 1
vn 0 0 1
vn 0 0 1
vn 0 0 1
vn 0 0 -1
vn 0 0 -1
vn 0 0 -1
vn 0 0 -1
vn 0 0 -1
vn 0 0 -1
vn 0 0 -1
vn 0 0 -1
f 152/152/152 145/145/145 149/149/149
f 152/152/152 151/151/151 146/146/146
f 150/150/150 152/152/152 149/149/149
f 152/152/152 150/150/150 151/151/151
f 150/150/150 148/148/148 151/151/151
f 147/147/147 150/150/150 149/149/149
f 157/157/157 153/153/153 160/160/160
f 157/157/157 159/159/159 154/154/154
f 158/158/158 157/157/157 160/160/160
f 157/157/157 158/158/158 159/159/159
f 158/158/158 156/156/156 159/159/159
f 155/155/155 158/158/158 160/160/160
f 165/165/165 161/161/161 166/166/166
f 165/165/165 168/168/168 162/162/162
f 167/167/167 165/165/165 166/166/166
f 165/165/165 167/167/167 168/168/168
f 167/167/167 164/164/164 168/168/168
f 163/163/163 167/167/167 166/166/166
f 175/175/175 169/169/169 176/176/176
f 175/175/175 174/174/174 170/170/170
f 173/173/173 175/175/175 176/176/176
f 175/175/175 173/173/173 174/174/174
f 173/173/173 172/172/172 174/174/174
f 171/171/171 173/173/173 176/176/176
f 184/184/184 181/181/181 177/177/177
f 184/184/184 178/178/178 183/183/183
f 182/182/182 181/181/181 184/184/184
f 184/184/184 183/183/183 182/182/182
f 182/182/182 183/183/183 180/180/180
f 179/179/179 181/181/181 182/182/182
f 192/192/192 185/185/185 189/189/189
f 192/192/192 191/191/191 186/186/186
f 190/190/190 192/192/192 189/189/189
f 192/192/192 190/190/190 191/191/191
f 190/190/190 188/188/188 191/191/191
f 187/187/187 190/190/190 189/189/189
g rooms kitchen
v 16310 0 6760
v 16310 0 3760
v 13310 0 6760
v 13310 0 3760
v 14810 0 6760
v 13310 0 5260
v 14810 0 3760
v 16310 0 5260
v 13310 0 6760
v 13310 0 3760
v 13310 3000 6760
v 13310 3000 3760
v 13310 0 5260
v 13310 1500 6760
v 13310 3000 5260
v 13310 1500 3760
v 13310 3000 6760
v 13310 3000 3760
v 16310 3000 6760
v 16310 3000 3760
v 13310 3000 5260
v 14810 3000 6760
v 16310 3000 5260
v 14810 3000 3760
v 16310 3000 6760
v 16310 3000 3760
v 16310 0 6760
v 16310 0 3760
v 16310 0 5260
v 16310 3000 5260
v 16310 1500 6760
v 16310 1500 3760
v 16310 0 6760
v 16310 3000 6760
v 13310 0 6760
v 13310 3000 6760
v 14810 0 6760
v 13310 1500 6760
v 14810 3000 6760
v 16310 1500 6760
v 16310 0 3760
v 16310 3000 3760
v 13310 0 3760
v 13310 3000 3760
v 14810 0 3760
v 13310 1500 3760
v 14810 3000 3760
v 16310 1500 3760
vt 0.66520184278488159 0.3333333432674408
vt 0.3333333432674408 0.3333333432674408
vt 0.66520184278488159 0.66520184278488159
vt 0.3333333432674408 0.66520184278488159
vt 0.66520184278488159 0.499267578125
vt 0.499267578125 0.66520184278488159
vt 0.3333333432674408 0.499267578125
vt 0.499267578125 0.3333333432674408
vt 0.66520184278488159 0
vt 0.3333333432674408 0
vt 0.66520184278488159 0.3318684995174408
vt 0.3333333432674408 0.3318684995174408
vt 0.499267578125 0
vt 0.66520184278488159 0.1659342497587204
vt 0.499267578125 0.3318684995174408
vt 0.3333333432674408 0.1659342497587204
vt 0.99853515625 0.3333333432674408
vt 0.66666668653488159 0.3333333432674408
vt 0.99853515625 0.66520184278488159
vt 0.66666668653488159 0.66520184278488159
vt 0.83260089159011841 0.3333333432674408
vt 0.99853515625 0.499267578125
vt 0.83260089159011841 0.66520184278488159
vt 0.66666668653488159 0.499267578125
vt 0.99853515625 0
vt 0.66666668653488159 0
vt 0.99853515625 0.3318684995174408
vt 0.66666668653488159 0.3318684995174408
vt 0.83260089159011841 0.3318684995174408
vt 0.83260089159011841 0
vt 0.99853515625 0.1659342497587204
vt 0.66666668653488159 0.1659342497587204
vt 0.3318684995174408 0.3333333432674408
vt 0 0.3333333432674408
vt 0.3318684995174408 0.66520184278488159
vt 0 0.66520184278488159
vt 0.3318684995174408 0.499267578125
vt 0.1659342497587204 0.66520184278488159
vt 0 0.499267578125
vt 0.1659342497587204 0.3333333432674408
vt 0.3318684995174408 0
vt 0 0
vt 0.3318684995174408 0.3318684995174408
vt 0 0.3318684995174408
vt 0.3318684995174408 0.1659342497587204
vt 0.1659342497587204 0.3318684995174408
vt 0 0.1659342497587204
vt 0.1659342497587204 0
vn 0 -1 0
vn 0 -1 0
vn 0 -1 0
vn 0 -1 0
vn 0 -1 0
vn 0 -1 0
vn 0 -1 0
vn 0 -1 0
vn -1 0 0
vn -1 0 0
vn -1 0 0
vn -1 0 0
vn -1 0 0
vn -1 0 0
vn -1 0 0
vn -1 0 0
vn 0 1 0
vn 0 1 0
vn 0 1 0
vn 0 1 0
vn 0 1 0
vn 0 1 0
vn 0 1 0
vn 0 1 0
vn 1 0 0
vn 1 0 0
vn 1 0 0
vn 1 0 0
vn 1 0 0
vn 1 0 0
vn 1 0 0
vn 1 0 0
vn 0 0 1
vn 0 0 1
vn 0 0 1
vn 0 0 1
vn 0 0 1
vn 0 0 1
vn 0 0 1
vn 0 0 1
vn 0 0 -1
vn 0 0 -1
vn 0 0 -1
vn 0 0 -1
vn 0 0 -1
vn 0 0 -1
vn 0 0 -1
vn 0 0 -1
f 200/200/200 193/193/193 197/197/197
f 200/200/200 199/199/199 194/194/194
f 198/198/198 200/200/200 197/197/197
f 200/200/200 198/198/198 199/199/199
f 198/198/198 196/196/196 199/199/199
f 195/195/195 198/198/198 197/197/197
f 205/205/205 201/201/201 206/206/206
f 205/205/205 208/208/208 202/202/202
f 207/207/207 205/205/205 206/206/206
f 205/205/205 207/207/207 208/208/208
f 207/207/207 204/204/204 208/208/208
f 203/203/203 207/207/207 206/206/206
f 213/213/213 209/209/209 214/214/214
f 213/213/213 216/216/216 210/210/210
f 215/215/215 213/213/213 214/214/214
f 213/213/213 215/215/215 216/216/216
f 215/215/215 212/212/212 216/216/216
f 211/211/211 215/215/215 214/214/214
f 222/222/222 217/217/217 223/223/223
f 222/222/222 224/224/224 218/218/218
f 221/221/221 222/222/222 223/223/223
f 222/222/222 221/221/221 224/224/224
f 221/221/221 220/220/220 224/224/224
f 219/219/219 221/221/221 223/223/223
f 232/232/232 229/229/229 225/225/225
f 232/232/232 226/226/226 231/231/231
f 230/230/230 229/229/229 232/232/232
f 232/232/232 231/231/231 230/230/230
f 230/230/230 231/231/231 228/228/228
f 227/227/227 229/229/229 230/230/230
f 240/240/240 233/233/233 237/237/237
f 240/240/240 239/239/239 234/234/234
f 238/238/238 240/240/240 237/237/237
f 240/240/240 238/238/238 239/239/239
f 238/238/238 236/236/236 239/239/239
f 235/235/235 238/238/238 237/237/237
g rooms bathroom
v 7310 3000 760
v 7310 3000 -2240
v 7310 0 760
v 7310 0 -2240
v 7310 1500 760
v 7310 0 -740
v 7310 1500 -2240
v 7310 3000 -740
v 7310 0 760
v 7310 0 -2240
v 5511.986328125 0 760
v 5511.986328125 0 -2240
v 7310 0 -740
v 5511.986328125 0 -740
v 5511.986328125 0 760
v 5511.986328125 0 -2240
v 5511.986328125 3000 760
v 5511.986328125 3000 -2240
v 5511.986328125 0 -740
v 5511.986328125 1500 760
v 5511.986328125 3000 -740
v 5511.986328125 1500 -2240
v 5511.986328125 3000 760
v 5511.986328125 3000 -2240
v 7310 3000 760
v 7310 3000 -2240
v 7310 3000 -740
v 5511.986328125 3000 -740
v 7310 3000 760
v 5511.986328125 3000 760
v 7310 0 760
v 5511.986328125 0 760
v 7310 1500 760
v 5511.986328125 1500 760
v 7310 3000 -2240
v 5511.986328125 3000 -2240
v 7310 0 -2240
v 5511.986328125 0 -2240
v 7310 1500 -2240
v 5511.986328125 1500 -2240
vt 0.45335438847541809 0.45481923222541809
vt 0 0.45481923222541809
vt 0.45335438847541809 0.90817362070083618
vt 0 0.90817362070083618
vt 0.45335438847541809 0.68149644136428833
vt 0.22667719423770905 0.90817362070083618
vt 0 0.68149644136428833
vt 0.22667719423770905 0.45481923222541809
vt 0.72740960121154785 0
vt 0.72740960121154785 0.45335438847541809
vt 0.99853515625 0
vt 0.99853515625 0.45335438847541809
vt 0.72740960121154785 0.22667719423770905
vt 0.99853515625 0.22667719423770905
vt 0.45335438847541809 0
vt 0 0
vt 0.45335438847541809 0.45335438847541809
vt 0 0.45335438847541809
vt 0.22667719423770905 0
vt 0.45335438847541809 0.22667719423770905
vt 0.22667719423770905 0.45335438847541809
vt 0 0.22667719423770905
vt 0.45481923222541809 0
vt 0.45481923222541809 0.45335438847541809
vt 0.72594475746154785 0
vt 0.72594475746154785 0.45335438847541809
vt 0.72594475746154785 0.22667719423770905
vt 0.45481923222541809 0.22667719423770905
vt 0.99853515625 0.45481923222541809
vt 0.72740960121154785 0.45481923222541809
vt 0.99853515625 0.90817362070083618
vt 0.72740960121154785 0.90817362070083618
vt 0.99853515625 0.68149644136428833
vt 0.72740960121154785 0.68149644136428833
vt 0.72594475746154785 0.45481923222541809
vt 0.45481923222541809 0.45481923222541809
vt 0.72594475746154785 0.90817362070083618
vt 0.45481923222541809 0.90817362070083618
vt 0.72594475746154785 0.68149644136428833
vt 0.45481923222541809 0.68149644136428833
vn 1 0 0
vn 1 0 0
vn 1 0 0
vn 1 0 0
vn 1 0 0
vn 1 0 0
vn 1 0 0
vn 1 0 0
vn 0 -1 0
vn 0 -1 0
vn 0 -1 0
vn 0 -1 0
vn 0 -1 0
vn 0 -1 0
vn -1 0 0
vn -1 0 0
vn -1 0 0
vn -1 0 0
vn -1 0 0
vn -1 0 0
vn -1 0 0
vn -1 0 0
vn 0 1 0
vn 0 1 0
vn 0 1 0
vn 0 1 0
vn 0 1 0
vn 0 1 0
vn 0 0 1
vn 0 0 1
vn 0 0 1
vn 0 0 1
vn 0 0 1
vn 0 0 1
vn 0 0 -1
vn 0 0 -1
vn 0 0 -1
vn 0 0 -1
vn 0 0 -1
vn 0 0 -1
f 248/248/248 241/241/241 245/245/245
f 248/248/248 247/247/247 242/242/242
f 246/246/246 248/248/248 245/245/245
f 248/248/248 246/246/246 247/247/247
f 246/246/246 244/244/244 247/247/247
f 243/243/243 246/246/246 245/245/245
f 253/253/253 249/249/249 251/251/251 254/254/254
f 250/250/250 253/253/253 254/254/254 252/252/252
f 259/259/259 255/255/255 260/260/260
f 259/259/259 262/262/262 256/256/256
f 261/261/261 259/259/259 260/260/260
f 259/259/259 261/261/261 262/262/262
f 261/261/261 258/258/258 262/262/262
f 257/257/257 261/261/261 260/260/260
f 268/268/268 263/263/263 265/265/265 267/267/267
f 264/264/264 268/268/268 267/267/267 266/266/266
f 270/270/270 274/274/274 273/273/273 269/269/269
f 271/271/271 273/273/273 274/274/274 272/272/272
f 276/276/276 275/275/275 279/279/279 280/280/280
f 277/277/277 278/278/278 280/280/280 279/279/279
v 19310 3000 3760
v 19310 3000 6760
v 16310 3000 3760
v 16310 3000 6760
v 17810 3000 3760
v 16310 3000 5260
v 17810 3000 6760
v 19310 3000 5260
v 16310 3000 3760
v 16310 3000 6760
v 16310 0 3760
v 16310 0 6760
v 16310 3000 5260
v 16310 1500 3760
v 16310 0 5260
v 16310 1500 6760
v 16310 0 3760
v 16310 0 6760
v 19310 0 3760
v 19310 0 6760
v 16310 0 5260
v 17810 0 3760
v 19310 0 5260
v 17810 0 6760
v 19310 0 3760
v 19310 0 6760
v 19310 3000 3760
v 19310 3000 6760
v 19310 3000 5260
v 19310 0 5260
v 19310 1500 3760
v 19310 1500 6760
v 19310 3000 3760
v 19310 0 3760
v 16310 3000 3760
v 16310 0 3760
v 17810 3000 3760
v 16310 1500 3760
v 17810 0 3760
v 19310 1500 3760
v 19310 3000 6760
v 19310 0 6760
v 16310 3000 6760
v 16310 0 6760
v 17810 3000 6760
v 16310 1500 6760
v 17810 0 6760
v 19310 1500 6760
vt 0.66520184278488159 0.3333333432674408
vt 0.3333333432674408 0.3333333432674408
vt 0.66520184278488159 0.66520184278488159
vt 0.3333333432674408 0.66520184278488159
vt 0.66520184278488159 0.499267578125
vt 0.499267578125 0.66520184278488159
vt 0.3333333432674408 0.499267578125
vt 0.499267578125 0.3333333432674408
vt 0.66520184278488159 0
vt 0.3333333432674408 0
vt 0.66520184278488159 0.3318684995174408
vt 0.3333333432674408 0.3318684995174408
vt 0.499267578125 0
vt 0.66520184278488159 0.1659342497587204
vt 0.499267578125 0.3318684995174408
vt 0.3333333432674408 0.1659342497587204
vt 0.99853515625 0.3333333432674408
vt 0.66666668653488159 0.3333333432674408
vt 0.99853515625 0.66520184278488159
vt 0.66666668653488159 0.66520184278488159
vt 0.83260089159011841 0.3333333432674408
vt 0.99853515625 0.499267578125
vt 0.83260089159011841 0.66520184278488159
vt 0.66666668653488159 0.499267578125
vt 0.99853515625 0
vt 0.66666668653488159 0
vt 0.99853515625 0.3318684995174408
vt 0.66666668653488159 0.3318684995174408
vt 0.83260089159011841 0.3318684995174408
vt 0.83260089159011841 0
vt 0.99853515625 0.1659342497587204
vt 0.66666668653488159 0.1659342497587204
vt 0.3318684995174408 0.3333333432674408
vt 0 0.3333333432674408
vt 0.3318684995174408 0.66520184278488159
vt 0 0.66520184278488159
vt 0.3318684995174408 0.499267578125
vt 0.1659342497587204 0.66520184278488159
vt 0 0.499267578125
vt 0.1659342497587204 0.3333333432674408
vt 0.3318684995174408 0
vt 0 0
vt 0.3318684995174408 0.3318684995174408
vt 0 0.3318684995174408
vt 0.3318684995174408 0.1659342497587204
vt 0.1659342497587204 0.3318684995174408
vt 0 0.1659342497587204
vt 0.1659342497587204 0
vn 0 1 0
vn 0 1 0
vn 0 1 0
vn 0 1 0
vn 0 1 0
vn 0 1 0
vn 0 1 0
vn 0 1 0
vn -1 0 0
vn -1 0 0
vn -1 0 0
vn -1 0 0
vn -1 0 0
vn -1 0 0
vn -1 0 0
vn -1 0 0
vn 0 -1 0
vn 0 -1 0
vn 0 -1 0
vn 0 -1 0
vn 0 -1 0
vn 0 -1 0
vn 0 -1 0
vn 0 -1 0
vn 1 0 0
vn 1 0 0
vn 1 0 0
vn 1 0 0
vn 1 0 0
vn 1 0 0
vn 1 0 0
vn 1 0 0
vn 0 0 -1
vn 0 0 -1
vn 0 0 -1
vn 0 0 -1
vn 0 0 -1
vn 0 0 -1
vn 0 0 -1
vn 0 0 -1
vn 0 0 1
vn 0 0 1
vn 0 0 1
vn 0 0 1
vn 0 0 1
vn 0 0 1
vn 0 0 1
vn 0 0 1
f 288/288/288 281/281/281 285/285/285
f 288/288/288 287/287/287 282/282/282
f 286/286/286 288/288/288 285/285/285
f 288/288/288 286/286/286 287/287/287
f 286/286/286 284/284/284 287/287/287
f 283/283/283 286/286/286 285/285/285
f 293/293/293 289/289/289 294/294/294
f 293/293/293 296/296/296 290/290/290
f 295/295/295 293/293/293 294/294/294
f 293/293/293 295/295/295 296/296/296
f 295/295/295 292/292/292 296/296/296
f 291/291/291 295/295/295 294/294/294
f 301/301/301 297/297/297 302/302/302
f 301/301/301 304/304/304 298/298/298
f 303/303/303 301/301/301 302/302/302
f 301/301/301 303/303/303 304/304/304
f 303/303/303 300/300/300 304/304/304
f 299/299/299 303/303/303 302/302/302
f 310/310/310 305/305/305 311/311/311
f 310/310/310 312/312/312 306/306/306
f 309/309/309 310/310/310 311/311/311
f 310/310/310 309/309/309 312/312/312
f 309/309/309 308/308/308 312/312/312
f 307/307/307 309/309/309 311/311/311
f 320/320/320 317/317/317 313/313/313
f 320/320/320 314/314/314 319/319/319
f 318/318/318 317/317/317 320/320/320
f 320/320/320 319/319/319 318/318/318
f 318/318/318 319/319/319 316/316/316
f 315/315/315 317/317/317 318/318/318
f 328/328/328 321/321/321 325/325/325
f 328/328/328 327/327/327 322/322/322
f 326/326/326 328/328/328 325/325/325
f 328/328/328 326/326/326 327/327/327
f 326/326/326 324/324/324 327/327/327
f 323/323/323 326/326/326 325/325/325
g rooms corridor
v 10310 3000 760
v 10310 3000 -2240
v 10310 0 760
v 10310 0 -2240
v 10310 1500 760
v 10310 0 -740
v 10310 1500 -2240
v 10310 3000 -740
v 10310 0 760
v 10310 0 -2240
v 7310 0 760
v 7310 0 -2240
v 10310 0 -740
v 8810 0 760
v 7310 0 -740
v 8810 0 -2240
v 7310 0 760
v 7310 0 -2240
v 7310 3000 760
v 7310 3000 -2240
v 7310 0 -740
v 7310 1500 760
v 7310 3000 -740
v 7310 1500 -2240
v 7310 3000 760
v 7310 3000 -2240
v 10310 3000 760
v 10310 3000 -2240
v 10310 3000 -740
v 7310 3000 -740
v 8810 3000 760
v 8810 3000 -2240
v 10310 3000 760
v 7310 3000 760
v 10310 0 760
v 7310 0 760
v 10310 1500 760
v 8810 0 760
v 7310 1500 760
v 8810 3000 760
v 10310 3000 -2240
v 7310 3000 -2240
v 10310 0 -2240
v 7310 0 -2240
v 10310 1500 -2240
v 8810 0 -2240
v 7310 1500 -2240
v 8810 3000 -2240
vt 0.66520184278488159 0.3333333432674408
vt 0.3333333432674408 0.3333333432674408
vt 0.66520184278488159 0.66520184278488159
vt 0.3333333432674408 0.66520184278488159
vt 0.66520184278488159 0.499267578125
vt 0.499267578125 0.66520184278488159
vt 0.3333333432674408 0.499267578125
vt 0.499267578125 0.3333333432674408
vt 0.66520184278488159 0
vt 0.3333333432674408 0
vt 0.66520184278488159 0.3318684995174408
vt 0.3333333432674408 0.3318684995174408
vt 0.499267578125 0
vt 0.66520184278488159 0.1659342497587204
vt 0.499267578125 0.3318684995174408
vt 0.3333333432674408 0.1659342497587204
vt 0.99853515625 0.3333333432674408
vt 0.66666668653488159 0.3333333432674408
vt 0.99853515625 0.66520184278488159
vt 0.66666668653488159 0.66520184278488159
vt 0.83260089159011841 0.3333333432674408
vt 0.99853515625 0.499267578125
vt 0.83260089159011841 0.66520184278488159
vt 0.66666668653488159 0.499267578125
vt 0.99853515625 0
vt 0.66666668653488159 0
vt 0.99853515625 0.3318684995174408
vt 0.66666668653488159 0.3318684995174408
vt 0.83260089159011841 0.3318684995174408
vt 0.83260089159011841 0
vt 0.99853515625 0.1659342497587204
vt 0.66666668653488159 0.1659342497587204
vt 0.3318684995174408 0.3333333432674408
vt 0 0.3333333432674408
vt 0.3318684995174408 0.66520184278488159
vt 0 0.66520184278488159
vt 0.3318684995174408 0.499267578125
vt 0.1659342497587204 0.66520184278488159
vt 0 0.499267578125
vt 0.1659342497587204 0.3333333432674408
vt 0.3318684995174408 0
vt 0 0
vt 0.3318684995174408 0.3318684995174408
vt 0 0.3318684995174408
vt 0.3318684995174408 0.1659342497587204
vt 0.1659342497587204 0.3318684995174408
vt 0 0.1659342497587204
vt 0.1659342497587204 0
vn 1 0 0
vn 1 0 0
vn 1 0 0
vn 1 0 0
vn 1 0 0
vn 1 0 0
vn 1 0 0
vn 1 0 0
vn 0 -1 0
vn 0 -1 0
vn 0 -1 0
vn 0 -1 0
vn 0 -1 0
vn 0 -1 0
vn 0 -1 0
vn 0 -1 0
vn -1 0 0
vn -1 0 0
vn -1 0 0
vn -1 0 0
vn -1 0 0
vn -1 0 0
vn -1 0 0
vn -1 0 0
vn 0 1 0
vn 0 1 0
vn 0 1 0
vn 0 1 0
vn 0 1 0
vn 0 1 0
vn 0 1 0
vn 0 1 0
vn 0 0 1
vn 0 0 1
vn 0 0 1
vn 0 0 1
vn 0 0 1
vn 0 0 1
vn 0 0 1
vn 0 0 1
vn 0 0 -1
vn 0 0 -1
vn 0 0 -1
vn 0 0 -1
vn 0 0 -1
vn 0 0 -1
vn 0 0 -1
vn 0 0 -1
f 336/336/336 329/329/329 333/333/333
f 336/336/336 335/335/335 330/330/330
f 334/334/334 336/336/336 333/333/333
f 336/336/336 334/334/334 335/335/335
f 334/334/334 332/332/332 335/335/335
f 331/331/331 334/334/334 333/333/333
f 341/341/341 337/337/337 342/342/342
f 341/341/341 344/344/344 338/338/338
f 343/343/343 341/341/341 342/342/342
f 341/341/341 343/343/343 344/344/344
f 343/343/343 340/340/340 344/344/344
f 339/339/339 343/343/343 342/342/342
f 349/349/349 345/345/345 350/350/350
f 349/349/349 352/352/352 346/346/346
f 351/351/351 349/349/349 350/350/350
f 349/349/349 351/351/351 352/352/352
f 351/351/351 348/348/348 352/352/352
f 347/347/347 351/351/351 350/350/350
f 358/358/358 353/353/353 359/359/359
f 358/358/358 360/360/360 354/354/354
f 357/357/357 358/358/358 359/359/359
f 358/358/358 357/357/357 360/360/360
f 357/357/357 356/356/356 360/360/360
f 355/355/355 357/357/357 359/359/359
f 368/368/368 365/365/365 361/361/361
f 368/368/368 362/362/362 367/367/367
f 366/366/366 365/365/365 368/368/368
f 368/368/368 367/367/367 366/366/366
f 366/366/366 367/367/367 364/364/364
f 363/363/363 365/365/365 366/366/366
f 376/376/376 369/369/369 373/373/373
f 376/376/376 375/375/375 370/370/370
f 374/374/374 376/376/376 373/373/373
f 376/376/376 374/374/374 375/375/375
f 374/374/374 372/372/372 375/375/375
f 371/371/371 374/374/374 373/373/373
v 19310 3000 3760
v 19310 3000 1961.9864501953125
v 19310 0 3760
v 19310 0 1961.9864501953125
v 19310 1500 3760
v 19310 1500 1961.9864501953125
v 19310 0 3760
v 19310 0 1961.9864501953125
v 16310 0 3760
v 16310 0 1961.9864501953125
v 17810 0 3760
v 17810 0 1961.9864501953125
v 16310 0 3760
v 16310 0 1961.9864501953125
v 16310 3000 3760
v 16310 3000 1961.9864501953125
v 16310 1500 3760
v 16310 1500 1961.9864501953125
v 16310 3000 3760
v 16310 3000 1961.9864501953125
v 19310 3000 3760
v 19310 3000 1961.9864501953125
v 17810 3000 3760
v 17810 3000 1961.9864501953125
v 19310 3000 3760
v 16310 3000 3760
v 19310 0 3760
v 16310 0 3760
v 19310 1500 3760
v 17810 0 3760
v 16310 1500 3760
v 17810 3000 3760
v 19310 3000 1961.9864501953125
v 16310 3000 1961.9864501953125
v 19310 0 1961.9864501953125
v 16310 0 1961.9864501953125
v 19310 1500 1961.9864501953125
v 17810 0 1961.9864501953125
v 16310 1500 1961.9864501953125
v 17810 3000 1961.9864501953125
vt 0.99853515625 0
vt 0.72740960121154785 0
vt 0.99853515625 0.45335438847541809
vt 0.72740960121154785 0.45335438847541809
vt 0.99853515625 0.22667719423770905
vt 0.72740960121154785 0.22667719423770905
vt 0.72594475746154785 0
vt 0.45481923222541809 0
vt 0.72594475746154785 0.45335438847541809
vt 0.45481923222541809 0.45335438847541809
vt 0.72594475746154785 0.22667719423770905
vt 0.45481923222541809 0.22667719423770905
vt 0.99853515625 0.45481923222541809
vt 0.72740960121154785 0.45481923222541809
vt 0.99853515625 0.90817362070083618
vt 0.72740960121154785 0.90817362070083618
vt 0.99853515625 0.68149644136428833
vt 0.72740960121154785 0.68149644136428833
vt 0.72594475746154785 0.45481923222541809
vt 0.45481923222541809 0.45481923222541809
vt 0.72594475746154785 0.90817362070083618
vt 0.45481923222541809 0.90817362070083618
vt 0.72594475746154785 0.68149644136428833
vt 0.45481923222541809 0.68149644136428833
vt 0.45335438847541809 0.45481923222541809
vt 0 0.45481923222541809
vt 0.45335438847541809 0.90817362070083618
vt 0 0.90817362070083618
vt 0.45335438847541809 0.68149644136428833
vt 0.22667719423770905 0.90817362070083618
vt 0 0.68149644136428833
vt 0.22667719423770905 0.45481923222541809
vt 0.45335438847541809 0
vt 0 0
vt 0.45335438847541809 0.45335438847541809
vt 0 0.45335438847541809
vt 0.45335438847541809 0.22667719423770905
vt 0.22667719423770905 0.45335438847541809
vt 0 0.22667719423770905
vt 0.22667719423770905 0
vn 1 0 0
vn 1 0 0
vn 1 0 0
vn 1 0 0
vn 1 0 0
vn 1 0 0
vn 0 -1 0
vn 0 -1 0
vn 0 -1 0
vn 0 -1 0
vn 0 -1 0
vn 0 -1 0
vn -1 0 0
vn -1 0 0
vn -1 0 0
vn -1 0 0
vn -1 0 0
vn -1 0 0
vn 0 1 0
vn 0 1 0
vn 0 1 0
vn 0 1 0
vn 0 1 0
vn 0 1 0
vn 0 0 1
vn 0 0 1
vn 0 0 1
vn 0 0 1
vn 0 0 1
vn 0 0 1
vn 0 0 1
vn 0 0 1
vn 0 0 -1
vn 0 0 -1
vn 0 0 -1
vn 0 0 -1
vn 0 0 -1
vn 0 0 -1
vn 0 0 -1
vn 0 0 -1
f 378/378/378 377/377/377 381/381/381 382/382/382
f 379/379/379 380/380/380 382/382/382 381/381/381
f 384/384/384 383/383/383 387/387/387 388/388/388
f 385/385/385 386/386/386 388/388/388 387/387/387
f 390/390/390 389/389/389 393/393/393 394/394/394
f 391/391/391 392/392/392 394/394/394 393/393/393
f 396/396/396 395/395/395 399/399/399 400/400/400
f 397/397/397 398/398/398 400/400/400 399/399/399
f 408/408/408 405/405/405 401/401/401
f 408/408/408 402/402/402 407/407/407
f 406/406/406 405/405/405 408/408/408
f 408/408/408 407/407/407 406/406/406
f 406/406/406 407/407/407 404/404/404
f 403/403/403 405/405/405 406/406/406
f 416/416/416 409/409/409 413/413/413
f 416/416/416 415/415/415 410/410/410
f 414/414/414 416/416/416 413/413/413
f 416/416/416 414/414/414 415/415/415
f 414/414/414 412/412/412 415/415/415
f 411/411/411 414/414/414 413/413/413
g rooms dining
v 10310 0 3760
v 10310 0 760
v 7310 0 3760
v 7310 0 760
v 8810 0 3760
v 7310 0 2260
v 8810 0 760
v 10310 0 2260
v 7310 0 3760
v 7310 0 760
v 7310 3000 3760
v 7310 3000 760
v 7310 0 2260
v 7310 1500 3760
v 7310 3000 2260
v 7310 1500 760
v 7310 3000 3760
v 7310 3000 760
v 10310 3000 3760
v 10310 3000 760
v 7310 3000 2260
v 8810 3000 3760
v 10310 3000 2260
v 8810 3000 760
v 10310 3000 3760
v 10310 3000 760
v 10310 0 3760
v 10310 0 760
v 10310 0 2260
v 10310 3000 2260
v 10310 1500 3760
v 10310 1500 760
v 10310 0 3760
v 10310 3000 3760
v 7310 0 3760
v 7310 3000 3760
v 8810 0 3760
v 7310 1500 3760
v 8810 3000 3760
v 10310 1500 3760
v 10310 0 760
v 10310 3000 760
v 7310 0 760
v 7310 3000 760
v 8810 0 760
v 7310 1500 760
v 8810 3000 760
v 10310 1500 760
vt 0.66520184278488159 0.3333333432674408
vt 0.3333333432674408 0.3333333432674408
vt 0.66520184278488159 0.66520184278488159
vt 0.3333333432674408 0.66520184278488159
vt 0.66520184278488159 0.499267578125
vt 0.499267578125 0.66520184278488159
vt 0.3333333432674408 0.499267578125
vt 0.499267578125 0.3333333432674408
vt 0.66520184278488159 0
vt 0.3333333432674408 0
vt 0.66520184278488159 0.3318684995174408
vt 0.3333333432674408 0.3318684995174408
vt 0.499267578125 0
vt 0.66520184278488159 0.1659342497587204
vt 0.499267578125 0.3318684995174408
vt 0.3333333432674408 0.1659342497587204
vt 0.99853515625 0.3333333432674408
vt 0.66666668653488159 0.3333333432674408
vt 0.99853515625 0.66520184278488159
vt 0.66666668653488159 0.66520184278488159
vt 0.83260089159011841 0.3333333432674408
vt 0.99853515625 0.499267578125
vt 0.83260089159011841 0.66520184278488159
vt 0.66666668653488159 0.499267578125
vt 0.99853515625 0
vt 0.66666668653488159 0
vt 0.99853515625 0.3318684995174408
vt 0.66666668653488159 0.3318684995174408
vt 0.83260089159011841 0.3318684995174408
vt 0.83260089159011841 0
vt 0.99853515625 0.1659342497587204
vt 0.66666668653488159 0.1659342497587204
vt 0.3318684995174408 0.3333333432674408
vt 0 0.3333333432674408
vt 0.3318684995174408 0.66520184278488159
vt 0 0.66520184278488159
vt 0.3318684995174408 0.499267578125
vt 0.1659342497587204 0.66520184278488159
vt 0 0.499267578125
vt 0.1659342497587204 0.3333333432674408
vt 0.3318684995174408 0
vt 0 0
vt 0.3318684995174408 0.3318684995174408
vt 0 0.3318684995174408
vt 0.3318684995174408 0.1659342497587204
vt 0.1659342497587204 0.3318684995174408
vt 0 0.1659342497587204
vt 0.1659342497587204 0
vn 0 -1 0
vn 0 -1 0
vn 0 -1 0
vn 0 -1 0
vn 0 -1 0
vn 0 -1 0
vn 0 -1 0
vn 0 -1 0
vn -1 0 0
vn -1 0 0
vn -1 0 0
vn -1 0 0
vn -1 0 0
vn -1 0 0
vn -1 0 0
vn -1 0 0
vn 0 1 0
vn 0 1 0
vn 0 1 0
vn 0 1 0
vn 0 1 0
vn 0 1 0
vn 0 1 0
vn 0 1 0
vn 1 0 0
vn 1 0 0
vn 1 0 0
vn 1 0 0
vn 1 0 0
vn 1 0 0
vn 1 0 0
vn 1 0 0
vn 0 0 1
vn 0 0 1
vn 0 0 1
vn 0 0 1
vn 0 0 1
vn 0 0 1
vn 0 0 1
vn 0 0 1
vn 0 0 -1
vn 0 0 -1
vn 0 0 -1
vn 0 0 -1
vn 0 0 -1
vn 0 0 -1
vn 0 0 -1
vn 0 0 -1
f 424/424/424 417/417/417 421/421/421
f 424/424/424 423/423/423 418/418/418
f 422/422/422 424/424/424 421/421/421
f 424/424/424 422/422/422 423/423/423
f 422/422/422 420/420/420 423/423/423
f 419/419/419 422/422/422 421/421/421
f 429/429/429 425/425/425 430/430/430
f 429/429/429 432/432/432 426/426/426
f 431/431/431 429/429/429 430/430/430
f 429/429/429 431/431/431 432/432/432
f 431/431/431 428/428/428 432/432/432
f 427/427/427 431/431/431 430/430/430
f 437/437/437 433/433/433 438/438/438
f 437/437/437 440/440/440 434/434/434
f 439/439/439 437/437/437 438/438/438
f 437/437/437 439/439/439 440/440/440
f 439/439/439 436/436/436 440/440/440
f 435/435/435 439/439/439 438/438/438
f 446/446/446 441/441/441 447/447/447
f 446/446/446 448/448/448 442/442/442
f 445/445/445 446/446/446 447/447/447
f 446/446/446 445/445/445 448/448/448
f 445/445/445 444/444/444 448/448/448
f 443/443/443 445/445/445 447/447/447
f 456/456/456 453/453/453 449/449/449
f 456/456/456 450/450/450 455/455/455
f 454/454/454 453/453/453 456/456/456
f 456/456/456 455/455/455 454/454/454
f 454/454/454 455/455/455 452/452/452
f 451/451/451 453/453/453 454/454/454
f 464/464/464 457/457/457 461/461/461
f 464/464/464 463/463/463 458/458/458
f 462/462/462 464/464/464 461/461/461
f 464/464/464 462/462/462 463/463/463
f 462/462/462 460/460/460 463/463/463
f 459/459/459 462/462/462 461/461/461
