# Rhino

v 7310 6000 760
v 10310 6000 760
v 7310 6000 3760
v 10310 6000 3760
v 8810 6000 3760
v 7310 3000 3760
v 7310 6000 3760
v 10310 3000 3760
v 10310 6000 3760
v 8810 6000 3760
vt 0.5 0
vt 0.5 0.49853515625
vt 0.99853515625 0
vt 0.99853515625 0.49853515625
vt 0.99853515625 0.249267578125
vt 0 0
vt 0 0.49853515625
vt 0.49853515625 0
vt 0.49853515625 0.49853515625
vt 0.249267578125 0.49853515625
vn 0 1 0
vn 0 1 0
vn 0 1 0
vn 0 1 0
vn 0 1 0
vn 0 0 1
vn 0 0 1
vn 0 0 1
vn 0 0 1
vn 0 0 1
f 5/5/5 2/2/2 1/1/1
f 1/1/1 3/3/3 5/5/5
f 2/2/2 5/5/5 4/4/4
f 10/10/10 7/7/7 6/6/6
f 9/9/9 10/10/10 8/8/8
f 6/6/6 8/8/8 10/10/10
v 19310 6000 1961.9864501953125
v 19310 6000 3760
v 16310 6000 1961.9864501953125
v 16310 6000 3760
v 17810 6000 1961.9864501953125
v 19310 3000 1961.9864501953125
v 19310 6000 1961.9864501953125
v 16310 3000 1961.9864501953125
v 16310 6000 1961.9864501953125
v 17810 6000 1961.9864501953125
v 19310 4500 1961.9864501953125
v 19310 3000 1961.9864501953125
v 19310 6000 1961.9864501953125
v 19310 3000 3760
v 19310 6000 3760
v 19310 4500 1961.9864501953125
vt 0.5 0.29966893792152405
vt 0.5 0.5978730320930481
vt 0.99853515625 0.29966893792152405
vt 0.99853515625 0.5978730320930481
vt 0.749267578125 0.29966893792152405
vt 0 0
vt 0 0.5
vt 0.49853515625 0
vt 0.49853515625 0.5
vt 0.249267578125 0.5
vt 0 0.25
vt 0.99853515625 0
vt 0.5 0
vt 0.99853515625 0.29820409417152405
vt 0.5 0.29820409417152405
vt 0.749267578125 0
vn 0 1 0
vn 0 1 0
vn 0 1 0
vn 0 1 0
vn 0 1 0
vn 0 0 -1
vn 0 0 -1
vn 0 0 -1
vn 0 0 -1
vn 0 0 -1
vn 0 0 -1
vn 1 0 0
vn 1 0 0
vn 1 0 0
vn 1 0 0
vn 1 0 0
f 15/15/15 12/12/12 11/11/11
f 14/14/14 15/15/15 13/13/13
f 12/12/12 15/15/15 14/14/14
f 18/18/18 21/21/21 16/16/16
f 20/20/20 17/17/17 21/21/21
f 19/19/19 20/20/20 18/18/18
f 21/21/21 18/18/18 20/20/20
f 24/24/24 22/22/22 26/26/26
f 23/23/23 25/25/25 26/26/26
f 24/24/24 26/26/26 25/25/25
v 16310 6000 3760
v 16310 6000 6760
v 13310 6000 3760
v 13310 6000 6760
v 13310 6000 5260
v 14810 6000 6760
v 13310 3000 6760
v 13310 6000 6760
v 16310 3000 6760
v 16310 6000 6760
v 14810 6000 6760
v 13310 4500 6760
v 13310 3000 3760
v 13310 6000 3760
v 13310 3000 6760
v 13310 6000 6760
v 13310 6000 5260
v 13310 4500 6760
vt 0 0
vt 0 0.5
vt 0.49853515625 0
vt 0.49853515625 0.5
vt 0.49853515625 0.25
vt 0.249267578125 0.5
vt 0.99853515625 0.5
vt 0.5 0.5
vt 0.99853515625 0.99853515625
vt 0.5 0.99853515625
vt 0.5 0.749267578125
vt 0.749267578125 0.5
vt 0.99853515625 0
vt 0.5 0
vt 0.99853515625 0.49853515625
vt 0.5 0.49853515625
vt 0.5 0.249267578125
vt 0.749267578125 0.49853515625
vn 0 1 0
vn 0 1 0
vn 0 1 0
vn 0 1 0
vn 0 1 0
vn 0 1 0
vn 0 0 1
vn 0 0 1
vn 0 0 1
vn 0 0 1
vn 0 0 1
vn 0 0 1
vn -1 0 0
vn -1 0 0
vn -1 0 0
vn -1 0 0
vn -1 0 0
vn -1 0 0
f 28/28/28 27/27/27 32/32/32
f 31/31/31 32/32/32 27/27/27
f 27/27/27 29/29/29 31/31/31
f 32/32/32 31/31/31 30/30/30
f 35/35/35 38/38/38 33/33/33
f 37/37/37 34/34/34 38/38/38
f 36/36/36 37/37/37 35/35/35
f 38/38/38 35/35/35 37/37/37
f 40/40/40 39/39/39 43/43/43
f 44/44/44 43/43/43 39/39/39
f 39/39/39 41/41/41 44/44/44
f 43/43/43 44/44/44 42/42/42
v 19310 6000 3760
v 19310 6000 6760
v 16310 6000 3760
v 16310 6000 6760
v 17810 6000 6760
v 19310 6000 5260
v 16310 3000 6760
v 16310 6000 6760
v 19310 3000 6760
v 19310 6000 6760
v 17810 6000 6760
v 19310 4500 6760
v 19310 3000 3760
v 19310 6000 3760
v 19310 3000 6760
v 19310 6000 6760
v 19310 6000 5260
v 19310 4500 6760
vt 0 0
vt 0 0.5
vt 0.49853515625 0
vt 0.49853515625 0.5
vt 0.249267578125 0.5
vt 0 0.25
vt 0.99853515625 0.5
vt 0.5 0.5
vt 0.99853515625 0.99853515625
vt 0.5 0.99853515625
vt 0.5 0.749267578125
vt 0.749267578125 0.99853515625
vt 0.99853515625 0
vt 0.5 0
vt 0.99853515625 0.49853515625
vt 0.5 0.49853515625
vt 0.5 0.249267578125
vt 0.749267578125 0.49853515625
vn 0 1 0
vn 0 1 0
vn 0 1 0
vn 0 1 0
vn 0 1 0
vn 0 1 0
vn 0 0 1
vn 0 0 1
vn 0 0 1
vn 0 0 1
vn 0 0 1
vn 0 0 1
vn 1 0 0
vn 1 0 0
vn 1 0 0
vn 1 0 0
vn 1 0 0
vn 1 0 0
f 47/47/47 50/50/50 45/45/45
f 49/49/49 46/46/46 50/50/50
f 48/48/48 49/49/49 47/47/47
f 50/50/50 47/47/47 49/49/49
f 52/52/52 51/51/51 55/55/55
f 56/56/56 55/55/55 51/51/51
f 51/51/51 53/53/53 56/56/56
f 55/55/55 56/56/56 54/54/54
f 58/58/58 61/61/61 57/57/57
f 62/62/62 57/57/57 61/61/61
f 57/57/57 62/62/62 59/59/59
f 61/61/61 60/60/60 62/62/62
v 16310 3000 3760
v 16310 6000 3760
v 16310 3000 6760
v 16310 6000 6760
vt 0 0
vt 0 1
vt 1 0
vt 1 1
vn -1 0 0
vn -1 0 0
vn -1 0 0
vn -1 0 0
f 66/66/66 64/64/64 63/63/63 65/65/65
v 16310 3000 1961.9864501953125
v 16310 6000 1961.9864501953125
v 16310 3000 3760
v 16310 6000 3760
vt 0 0
vt 0 1
vt 1 0
vt 1 1
vn -1 0 0
vn -1 0 0
vn -1 0 0
vn -1 0 0
f 70/70/70 68/68/68 67/67/67 69/69/69
v 16310 3000 3760
v 16310 6000 3760
v 19310 3000 3760
v 19310 6000 3760
vt 0 0
vt 0 1
vt 1 0
vt 1 1
vn 0 0 1
vn 0 0 1
vn 0 0 1
vn 0 0 1
f 74/74/74 72/72/72 71/71/71 73/73/73
v 16310 3000 3760
v 16310 6000 3760
v 13310 3000 3760
v 13310 6000 3760
vt 0 0
vt 0 1
vt 1 0
vt 1 1
vn 0 0 -1
vn 0 0 -1
vn 0 0 -1
vn 0 0 -1
f 78/78/78 76/76/76 75/75/75 77/77/77
v 19310 0 1961.9864501953125
v 19310 0 3760
v 16310 0 1961.9864501953125
v 16310 0 3760
v 17810 0 1961.9864501953125
v 19310 0 1961.9864501953125
v 19310 3000 1961.9864501953125
v 16310 0 1961.9864501953125
v 16310 3000 1961.9864501953125
v 17810 0 1961.9864501953125
vt 0.37327641248703003 0
vt 0 0
vt 0.37327641248703003 0.62379390001296997
vt 0 0.62379390001296997
vt 0.37327641248703003 0.31189695000648499
vt 0.37474125623703003 0
vt 0.37474125623703003 0.62379390001296997
vt 0.99853515625 0
vt 0.99853515625 0.62379390001296997
vt 0.68663817644119263 0
vn 0 -1 0
vn 0 -1 0
vn 0 -1 0
vn 0 -1 0
vn 0 -1 0
vn 0 0 -1
vn 0 0 -1
vn 0 0 -1
vn 0 0 -1
vn 0 0 -1
f 83/83/83 79/79/79 80/80/80
f 82/82/82 81/81/81 83/83/83
f 80/80/80 82/82/82 83/83/83
f 88/88/88 85/85/85 84/84/84
f 87/87/87 88/88/88 86/86/86
f 85/85/85 88/88/88 87/87/87
v 19310 3000 1961.9864501953125
v 19310 3000 3760
v 16310 3000 1961.9864501953125
v 16310 3000 3760
vt 0 0
vt 0 1
vt 1 0
vt 1 1
vn 0 1 0
vn 0 1 0
vn 0 1 0
vn 0 1 0
f 92/92/92 90/90/90 89/89/89 91/91/91
v 19310 0 7961.986328125
v 19310 3000 7961.986328125
v 19310 0 6760
v 19310 3000 6760
v 19310 1500 7961.986328125
v 22310 3000 1961.9864501953125
v 22310 3000 7961.986328125
v 19310 3000 1961.9864501953125
v 19310 3000 7961.986328125
v 19310 3000 6760
v 19310 3000 4961.986328125
v 20810 3000 7961.986328125
v 22310 3000 4961.986328125
v 20810 3000 1961.9864501953125
v 22310 0 1961.9864501953125
v 22310 0 7961.986328125
v 19310 0 1961.9864501953125
v 19310 0 7961.986328125
v 19310 0 6760
v 19310 0 4961.986328125
v 20810 0 7961.986328125
v 22310 0 4961.986328125
v 20810 0 1961.9864501953125
v 22310 0 7961.986328125
v 22310 3000 7961.986328125
v 22310 0 1961.9864501953125
v 22310 3000 1961.9864501953125
v 22310 3000 4961.986328125
v 22310 0 4961.986328125
v 22310 1500 1961.9864501953125
v 22310 1500 7961.986328125
v 19310 0 7961.986328125
v 19310 3000 7961.986328125
v 22310 0 7961.986328125
v 22310 3000 7961.986328125
v 19310 1500 7961.986328125
v 20810 3000 7961.986328125
v 20810 0 7961.986328125
v 22310 1500 7961.986328125
v 22310 0 1961.9864501953125
v 22310 3000 1961.9864501953125
v 19310 0 1961.9864501953125
v 19310 3000 1961.9864501953125
v 20810 3000 1961.9864501953125
v 20810 0 1961.9864501953125
v 22310 1500 1961.9864501953125
vt 0.24853515625 0
vt 0 0
vt 0.24853515625 0.10016553848981857
vt 0 0.10016553848981857
vt 0.124267578125 0
vt 0.99853515625 0
vt 0.5 0
vt 0.99853515625 0.24853515625
vt 0.5 0.24853515625
vt 0.59987211227416992 0.24853515625
vt 0.749267578125 0.24853515625
vt 0.5 0.124267578125
vt 0.749267578125 0
vt 0.99853515625 0.124267578125
vt 0.25 0
vt 0.25 0.5
vt 0.49853515625 0
vt 0.49853515625 0.5
vt 0.49853515625 0.39983445405960083
vt 0.49853515625 0.25
vt 0.374267578125 0.5
vt 0.25 0.25
vt 0.374267578125 0
vt 0.5 0.5
vt 0.5 0.74853515625
vt 0.99853515625 0.5
vt 0.99853515625 0.74853515625
vt 0.749267578125 0.74853515625
vt 0.749267578125 0.5
vt 0.99853515625 0.624267578125
vt 0.5 0.624267578125
vt 0.75 0.25
vt 0.5 0.25
vt 0.75 0.49853515625
vt 0.5 0.49853515625
vt 0.625 0.25
vt 0.5 0.374267578125
vt 0.75 0.374267578125
vt 0.625 0.49853515625
vt 0.24853515625 0.21453896164894104
vt 0 0.21453896164894104
vt 0.24853515625 0.46453896164894104
vt 0 0.46453896164894104
vt 0 0.33953896164894104
vt 0.24853515625 0.33953896164894104
vt 0.124267578125 0.21453896164894104
vn 1 0 0
vn 1 0 0
vn 1 0 0
vn 1 0 0
vn 1 0 0
vn 0 -1 0
vn 0 -1 0
vn 0 -1 0
vn 0 -1 0
vn 0 -1 0
vn 0 -1 0
vn 0 -1 0
vn 0 -1 0
vn 0 -1 0
vn 0 1 0
vn 0 1 0
vn 0 1 0
vn 0 1 0
vn 0 1 0
vn 0 1 0
vn 0 1 0
vn 0 1 0
vn 0 1 0
vn -1 0 0
vn -1 0 0
vn -1 0 0
vn -1 0 0
vn -1 0 0
vn -1 0 0
vn -1 0 0
vn -1 0 0
vn 0 0 -1
vn 0 0 -1
vn 0 0 -1
vn 0 0 -1
vn 0 0 -1
vn 0 0 -1
vn 0 0 -1
vn 0 0 -1
vn 0 0 1
vn 0 0 1
vn 0 0 1
vn 0 0 1
vn 0 0 1
vn 0 0 1
vn 0 0 1
f 95/95/95 97/97/97 93/93/93
f 94/94/94 97/97/97 96/96/96
f 95/95/95 96/96/96 97/97/97
f 105/105/105 106/106/106 98/98/98
f 105/105/105 99/99/99 104/104/104
f 103/103/103 106/106/106 105/105/105
f 105/105/105 104/104/104 103/103/103
f 101/101/101 102/102/102 104/104/104
f 103/103/103 104/104/104 102/102/102
f 100/100/100 106/106/106 103/103/103
f 114/114/114 107/107/107 115/115/115
f 114/114/114 113/113/113 108/108/108
f 112/112/112 114/114/114 115/115/115
f 114/114/114 112/112/112 113/113/113
f 110/110/110 113/113/113 111/111/111
f 112/112/112 111/111/111 113/113/113
f 109/109/109 112/112/112 115/115/115
f 123/123/123 121/121/121 116/116/116
f 123/123/123 117/117/117 120/120/120
f 122/122/122 121/121/121 123/123/123
f 123/123/123 120/120/120 122/122/122
f 122/122/122 120/120/120 119/119/119
f 118/118/118 121/121/121 122/122/122
f 128/128/128 130/130/130 124/124/124
f 128/128/128 125/125/125 129/129/129
f 131/131/131 130/130/130 128/128/128
f 128/128/128 129/129/129 131/131/131
f 131/131/131 129/129/129 127/127/127
f 126/126/126 130/130/130 131/131/131
f 137/137/137 132/132/132 138/138/138
f 136/136/136 138/138/138 133/133/133
f 134/134/134 137/137/137 136/136/136 135/135/135
f 138/138/138 136/136/136 137/137/137
v 16310 3000 3760
v 10310 3000 3760
v 16310 3000 760
v 10310 3000 760
v 10310 3000 2260
v 13310 3000 760
v 13310 3000 3760
v 11810 3000 3760
v 16310 3000 1961.9864501953125
v 13310 3000 3760
v 13310 6000 3760
v 10310 3000 3760
v 10310 6000 3760
v 11810 3000 3760
v 10310 4500 3760
v 11810 6000 3760
v 16310 3000 760
v 16310 6000 760
v 16310 3000 1961.9864501953125
v 16310 6000 1961.9864501953125
v 16310 4500 760
v 16310 6000 3760
v 10310 6000 3760
v 16310 6000 760
v 10310 6000 760
v 11810 6000 3760
v 13310 6000 3760
v 13310 6000 760
v 10310 6000 2260
v 16310 6000 1961.9864501953125
v 10310 3000 760
v 10310 6000 760
v 10310 3000 3760
v 10310 6000 3760
v 10310 3000 2260
v 10310 4500 3760
v 10310 6000 2260
v 10310 4500 760
v 16310 3000 760
v 16310 6000 760
v 10310 3000 760
v 10310 6000 760
v 16310 4500 760
v 10310 4500 760
v 13310 6000 760
v 13310 3000 760
vt 0.99853515625 0
vt 0.5 0
vt 0.99853515625 0.24853515625
vt 0.5 0.24853515625
vt 0.5 0.124267578125
vt 0.749267578125 0.24853515625
vt 0.749267578125 0
vt 0.6246337890625 0
vt 0.99853515625 0.1489565372467041
vt 0.75 0.25
vt 0.5 0.25
vt 0.75 0.49853515625
vt 0.5 0.49853515625
vt 0.75 0.374267578125
vt 0.625 0.49853515625
vt 0.5 0.374267578125
vt 0.24853515625 0
vt 0 0
vt 0.24853515625 0.10016553848981857
vt 0 0.10016553848981857
vt 0.124267578125 0
vt 0.25 0
vt 0.25 0.5
vt 0.49853515625 0
vt 0.49853515625 0.5
vt 0.25 0.375
vt 0.25 0.25
vt 0.49853515625 0.25
vt 0.374267578125 0.5
vt 0.3989565372467041 0
vt 0.24853515625 0.21453896164894104
vt 0 0.21453896164894104
vt 0.24853515625 0.46453896164894104
vt 0 0.46453896164894104
vt 0.24853515625 0.33953896164894104
vt 0.124267578125 0.46453896164894104
vt 0 0.33953896164894104
vt 0.124267578125 0.21453896164894104
vt 0.5 0.5
vt 0.5 0.74853515625
vt 0.99853515625 0.5
vt 0.99853515625 0.74853515625
vt 0.5 0.624267578125
vt 0.99853515625 0.624267578125
vt 0.749267578125 0.74853515625
vt 0.749267578125 0.5
vn 0 -1 0
vn 0 -1 0
vn 0 -1 0
vn 0 -1 0
vn 0 -1 0
vn 0 -1 0
vn 0 -1 0
vn 0 -1 0
vn 0 -1 0
vn 0 0 1
vn 0 0 1
vn 0 0 1
vn 0 0 1
vn 0 0 1
vn 0 0 1
vn 0 0 1
vn 1 0 0
vn 1 0 0
vn 1 0 0
vn 1 0 0
vn 1 0 0
vn 0 1 0
vn 0 1 0
vn 0 1 0
vn 0 1 0
vn 0 1 0
vn 0 1 0
vn 0 1 0
vn 0 1 0
vn 0 1 0
vn -1 0 0
vn -1 0 0
vn -1 0 0
vn -1 0 0
vn -1 0 0
vn -1 0 0
vn -1 0 0
vn -1 0 0
vn 0 0 -1
vn 0 0 -1
vn 0 0 -1
vn 0 0 -1
vn 0 0 -1
vn 0 0 -1
vn 0 0 -1
vn 0 0 -1
f 147/147/147 139/139/139 145/145/145
f 143/143/143 146/146/146 140/140/140
f 146/146/146 143/143/143 145/145/145
f 144/144/144 141/141/141 147/147/147
f 142/142/142 144/144/144 143/143/143
f 144/144/144 145/145/145 143/143/143
f 147/147/147 145/145/145 144/144/144
f 149/149/149 154/154/154 152/152/152 148/148/148
f 152/152/152 154/154/154 153/153/153
f 153/153/153 154/154/154 151/151/151
f 150/150/150 152/152/152 153/153/153
f 157/157/157 155/155/155 159/159/159
f 156/156/156 158/158/158 159/159/159
f 157/157/157 159/159/159 158/158/158
f 168/168/168 165/165/165 160/160/160
f 167/167/167 161/161/161 164/164/164
f 164/164/164 165/165/165 167/167/167
f 166/166/166 168/168/168 162/162/162
f 163/163/163 167/167/167 166/166/166
f 166/166/166 167/167/167 165/165/165
f 168/168/168 166/166/166 165/165/165
f 176/176/176 169/169/169 173/173/173
f 176/176/176 175/175/175 170/170/170
f 174/174/174 176/176/176 173/173/173
f 176/176/176 174/174/174 175/175/175
f 174/174/174 172/172/172 175/175/175
f 171/171/171 174/174/174 173/173/173
f 181/181/181 177/177/177 184/184/184
f 181/181/181 183/183/183 178/178/178
f 182/182/182 181/181/181 184/184/184
f 181/181/181 182/182/182 183/183/183
f 182/182/182 180/180/180 183/183/183
f 179/179/179 182/182/182 184/184/184
v 13310 0 3760
v 13310 3000 3760
v 10310 0 3760
v 10310 3000 3760
v 11810 0 3760
v 16310 0 760
v 16310 3000 760
v 16310 0 1961.9864501953125
v 16310 3000 1961.9864501953125
v 16310 1500 760
v 16310 0 3760
v 10310 0 3760
v 16310 0 760
v 10310 0 760
v 11810 0 3760
v 13310 0 3760
v 13310 0 760
v 10310 0 2260
v 16310 0 1961.9864501953125
v 16310 0 760
v 16310 3000 760
v 10310 0 760
v 10310 3000 760
v 16310 1500 760
v 10310 1500 760
v 13310 3000 760
v 13310 0 760
v 13310 1500 760
vt 0.3333333432674408 0
vt 0 0
vt 0.3333333432674408 0.3318684995174408
vt 0 0.3318684995174408
vt 0.3333333432674408 0.1659342497587204
vt 0 0.3333333432674408
vt 0 0.66666668653488159
vt 0.13208921253681183 0.3333333432674408
vt 0.13208921253681183 0.66666668653488159
vt 0 0.5
vt 0.46688738465309143 0
vt 0.46688738465309143 0.66666668653488159
vt 0.79875588417053223 0
vt 0.79875588417053223 0.66666668653488159
vt 0.46688738465309143 0.5
vt 0.46688738465309143 0.3333333432674408
vt 0.79875588417053223 0.3333333432674408
vt 0.63282161951065063 0.66666668653488159
vt 0.66578871011734009 0
vt 0.46542254090309143 0.3333333432674408
vt 0.13355405628681183 0.3333333432674408
vt 0.46542254090309143 0.99853515625
vt 0.13355405628681183 0.99853515625
vt 0.29948830604553223 0.3333333432674408
vt 0.29948830604553223 0.99853515625
vt 0.13355405628681183 0.66593426465988159
vt 0.46542254090309143 0.66593426465988159
vt 0.29948830604553223 0.66593426465988159
vn 0 0 -1
vn 0 0 -1
vn 0 0 -1
vn 0 0 -1
vn 0 0 -1
vn -1 0 0
vn -1 0 0
vn -1 0 0
vn -1 0 0
vn -1 0 0
vn 0 1 0
vn 0 1 0
vn 0 1 0
vn 0 1 0
vn 0 1 0
vn 0 1 0
vn 0 1 0
vn 0 1 0
vn 0 1 0
vn 0 0 1
vn 0 0 1
vn 0 0 1
vn 0 0 1
vn 0 0 1
vn 0 0 1
vn 0 0 1
vn 0 0 1
vn 0 0 1
f 189/189/189 186/186/186 185/185/185
f 188/188/188 189/189/189 187/187/187
f 186/186/186 189/189/189 188/188/188
f 192/192/192 194/194/194 190/190/190
f 191/191/191 194/194/194 193/193/193
f 192/192/192 193/193/193 194/194/194
f 203/203/203 200/200/200 195/195/195
f 202/202/202 196/196/196 199/199/199
f 199/199/199 200/200/200 202/202/202
f 201/201/201 203/203/203 197/197/197
f 198/198/198 202/202/202 201/201/201
f 201/201/201 202/202/202 200/200/200
f 203/203/203 201/201/201 200/200/200
f 207/207/207 209/209/209 212/212/212 210/210/210
f 208/208/208 212/212/212 211/211/211 204/204/204
f 205/205/205 210/210/210 212/212/212 208/208/208
f 206/206/206 211/211/211 212/212/212 209/209/209
v 16310 3000 3760
v 16310 3000 6760
v 13310 3000 3760
v 13310 3000 6760
vt 0 0
vt 0 1
vt 1 0
vt 1 1
vn 0 1 0
vn 0 1 0
vn 0 1 0
vn 0 1 0
f 216/216/216 214/214/214 213/213/213 215/215/215
v 16310 0 3760
v 16310 0 6760
v 13310 0 3760
v 13310 0 6760
v 13310 0 5260
v 14810 0 6760
v 13310 0 6760
v 13310 3000 6760
v 16310 0 6760
v 16310 3000 6760
v 14810 0 6760
v 13310 1500 6760
v 13310 0 3760
v 13310 3000 3760
v 13310 0 6760
v 13310 3000 6760
v 13310 0 5260
v 13310 1500 6760
vt 0 0
vt 0 0.5
vt 0.49853515625 0
vt 0.49853515625 0.5
vt 0.49853515625 0.25
vt 0.249267578125 0.5
vt 0.99853515625 0.5
vt 0.5 0.5
vt 0.99853515625 0.99853515625
vt 0.5 0.99853515625
vt 0.99853515625 0.749267578125
vt 0.749267578125 0.5
vt 0.99853515625 0
vt 0.5 0
vt 0.99853515625 0.49853515625
vt 0.5 0.49853515625
vt 0.99853515625 0.249267578125
vt 0.749267578125 0.49853515625
vn 0 -1 0
vn 0 -1 0
vn 0 -1 0
vn 0 -1 0
vn 0 -1 0
vn 0 -1 0
vn 0 0 1
vn 0 0 1
vn 0 0 1
vn 0 0 1
vn 0 0 1
vn 0 0 1
vn -1 0 0
vn -1 0 0
vn -1 0 0
vn -1 0 0
vn -1 0 0
vn -1 0 0
f 218/218/218 222/222/222 217/217/217
f 221/221/221 217/217/217 222/222/222
f 217/217/217 221/221/221 219/219/219
f 222/222/222 220/220/220 221/221/221
f 227/227/227 228/228/228 223/223/223
f 226/226/226 224/224/224 228/228/228
f 226/226/226 227/227/227 225/225/225
f 228/228/228 227/227/227 226/226/226
f 230/230/230 229/229/229 233/233/233
f 234/234/234 230/230/230 233/233/233
f 233/233/233 231/231/231 234/234/234
f 230/230/230 234/234/234 232/232/232
v 19310 0 3760
v 19310 0 6760
v 16310 0 3760
v 16310 0 6760
v 17810 0 6760
v 16310 0 6760
v 16310 3000 6760
v 19310 0 6760
v 19310 3000 6760
v 17810 0 6760
vt 0.5 0
vt 0.5 0.49853515625
vt 0.99853515625 0
vt 0.99853515625 0.49853515625
vt 0.749267578125 0.49853515625
vt 0 0
vt 0 0.49853515625
vt 0.49853515625 0
vt 0.49853515625 0.49853515625
vt 0.249267578125 0
vn 0 -1 0
vn 0 -1 0
vn 0 -1 0
vn 0 -1 0
vn 0 -1 0
vn 0 0 1
vn 0 0 1
vn 0 0 1
vn 0 0 1
vn 0 0 1
f 239/239/239 235/235/235 236/236/236
f 238/238/238 237/237/237 239/239/239
f 235/235/235 239/239/239 237/237/237
f 244/244/244 241/241/241 240/240/240
f 243/243/243 244/244/244 242/242/242
f 241/241/241 244/244/244 243/243/243
v 19310 3000 3760
v 19310 3000 6760
v 16310 3000 3760
v 16310 3000 6760
vt 0 0
vt 0 1
vt 1 0
vt 1 1
vn 0 1 0
vn 0 1 0
vn 0 1 0
vn 0 1 0
f 248/248/248 246/246/246 245/245/245 247/247/247
v 16310 0 3760
v 16310 3000 3760
v 16310 0 6760
v 16310 3000 6760
vt 0 0
vt 0 1
vt 1 0
vt 1 1
vn -1 0 0
vn -1 0 0
vn -1 0 0
vn -1 0 0
f 252/252/252 250/250/250 249/249/249 251/251/251
v 19310 0 6760
v 19310 3000 6760
v 19310 0 3760
v 19310 3000 3760
vt 0 0
vt 0 1
vt 1 0
vt 1 1
vn 1 0 0
vn 1 0 0
vn 1 0 0
vn 1 0 0
f 256/256/256 254/254/254 253/253/253 255/255/255
v 16310 0 1961.9864501953125
v 16310 3000 1961.9864501953125
v 16310 0 3760
v 16310 3000 3760
vt 0 0
vt 0 1
vt 1 0
vt 1 1
vn -1 0 0
vn -1 0 0
vn -1 0 0
vn -1 0 0
f 260/260/260 258/258/258 257/257/257 259/259/259
v 16310 0 3760
v 16310 3000 3760
v 19310 0 3760
v 19310 3000 3760
vt 0 0
vt 0 1
vt 1 0
vt 1 1
vn 0 0 1
vn 0 0 1
vn 0 0 1
vn 0 0 1
f 264/264/264 262/262/262 261/261/261 263/263/263
v 19310 0 3760
v 19310 3000 3760
v 19310 0 1961.9864501953125
v 19310 3000 1961.9864501953125
vt 0 0
vt 0 1
vt 1 0
vt 1 1
vn 1 0 0
vn 1 0 0
vn 1 0 0
vn 1 0 0
f 268/268/268 266/266/266 265/265/265 267/267/267
v 16310 0 3760
v 16310 3000 3760
v 13310 0 3760
v 13310 3000 3760
vt 0 0
vt 0 1
vt 1 0
vt 1 1
vn 0 0 -1
vn 0 0 -1
vn 0 0 -1
vn 0 0 -1
f 272/272/272 270/270/270 269/269/269 271/271/271
v 5511.986328125 6000 -2240
v 7310 6000 -2240
v 5511.986328125 6000 760
v 7310 6000 760
v 5511.986328125 6000 -740
v 5511.986328125 3000 -2240
v 5511.986328125 6000 -2240
v 5511.986328125 3000 760
v 5511.986328125 6000 760
v 5511.986328125 6000 -740
v 5511.986328125 4500 -2240
v 5511.986328125 3000 -2240
v 5511.986328125 6000 -2240
v 7310 3000 -2240
v 7310 6000 -2240
v 5511.986328125 4500 -2240
vt 0.5 0.29966893792152405
vt 0.5 0.5978730320930481
vt 0.99853515625 0.29966893792152405
vt 0.99853515625 0.5978730320930481
vt 0.749267578125 0.29966893792152405
vt 0 0
vt 0 0.5
vt 0.49853515625 0
vt 0.49853515625 0.5
vt 0.249267578125 0.5
vt 0 0.25
vt 0.99853515625 0
vt 0.5 0
vt 0.99853515625 0.29820409417152405
vt 0.5 0.29820409417152405
vt 0.749267578125 0
vn 0 1 0
vn 0 1 0
vn 0 1 0
vn 0 1 0
vn 0 1 0
vn -1 0 0
vn -1 0 0
vn -1 0 0
vn -1 0 0
vn -1 0 0
vn -1 0 0
vn 0 0 -1
vn 0 0 -1
vn 0 0 -1
vn 0 0 -1
vn 0 0 -1
f 277/277/277 274/274/274 273/273/273
f 276/276/276 277/277/277 275/275/275
f 274/274/274 277/277/277 276/276/276
f 280/280/280 283/283/283 278/278/278
f 282/282/282 279/279/279 283/283/283
f 281/281/281 282/282/282 280/280/280
f 283/283/283 280/280/280 282/282/282
f 286/286/286 284/284/284 288/288/288
f 285/285/285 287/287/287 288/288/288
f 286/286/286 288/288/288 287/287/287
v 7310 3000 3760
v 7310 6000 3760
v 7310 3000 6760
v 7310 6000 6760
v 7310 4500 6760
v 7310 6000 5260
v 4310 3000 760
v 4310 6000 760
v 5511.986328125 3000 760
v 5511.986328125 6000 760
v 4310 4500 760
v 7310 6000 760
v 7310 6000 6760
v 4310 6000 760
v 4310 6000 6760
v 7310 6000 5260
v 7310 6000 3760
v 4310 6000 3760
v 5810 6000 6760
v 5511.986328125 6000 760
v 4310 3000 6760
v 4310 6000 6760
v 7310 3000 6760
v 7310 6000 6760
v 7310 4500 6760
v 5810 6000 6760
v 4310 4500 6760
v 4310 3000 760
v 4310 6000 760
v 4310 3000 6760
v 4310 6000 6760
v 4310 4500 760
v 4310 4500 6760
v 4310 6000 3760
v 4310 3000 3760
vt 0.3333333432674408 0.3333333432674408
vt 0 0.3333333432674408
vt 0.3333333432674408 0.66520184278488159
vt 0 0.66520184278488159
vt 0.1666666716337204 0.66520184278488159
vt 0 0.499267578125
vt 0 0
vt 0 0.3318684995174408
vt 0.13355405628681183 0
vt 0.13355405628681183 0.3318684995174408
vt 0 0.1659342497587204
vt 0.66666668653488159 0
vt 0.66666668653488159 0.66666668653488159
vt 0.99853515625 0
vt 0.99853515625 0.66666668653488159
vt 0.66666668653488159 0.5
vt 0.66666668653488159 0.3333333432674408
vt 0.99853515625 0.3333333432674408
vt 0.83260089159011841 0.66666668653488159
vt 0.86556804180145264 0
vt 0.19070130586624146 0
vt 0.19070130586624146 0.3318684995174408
vt 0.52403461933135986 0
vt 0.52403461933135986 0.3318684995174408
vt 0.52403461933135986 0.1659342497587204
vt 0.35736796259880066 0.3318684995174408
vt 0.19070130586624146 0.1659342497587204
vt 0 0.66666668653488159
vt 0 0.99853515625
vt 0.66520184278488159 0.66666668653488159
vt 0.66520184278488159 0.99853515625
vt 0 0.83260089159011841
vt 0.66520184278488159 0.83260089159011841
vt 0.3326009213924408 0.99853515625
vt 0.3326009213924408 0.66666668653488159
vn -1 0 0
vn -1 0 0
vn -1 0 0
vn -1 0 0
vn -1 0 0
vn -1 0 0
vn 0 0 1
vn 0 0 1
vn 0 0 1
vn 0 0 1
vn 0 0 1
vn 0 -1 0
vn 0 -1 0
vn 0 -1 0
vn 0 -1 0
vn 0 -1 0
vn 0 -1 0
vn 0 -1 0
vn 0 -1 0
vn 0 -1 0
vn 0 0 -1
vn 0 0 -1
vn 0 0 -1
vn 0 0 -1
vn 0 0 -1
vn 0 0 -1
vn 0 0 -1
vn 1 0 0
vn 1 0 0
vn 1 0 0
vn 1 0 0
vn 1 0 0
vn 1 0 0
vn 1 0 0
vn 1 0 0
f 290/290/290 289/289/289 294/294/294
f 293/293/293 294/294/294 289/289/289
f 289/289/289 291/291/291 293/293/293
f 294/294/294 293/293/293 292/292/292
f 297/297/297 299/299/299 295/295/295
f 296/296/296 299/299/299 298/298/298
f 297/297/297 298/298/298 299/299/299
f 308/308/308 300/300/300 305/305/305
f 307/307/307 304/304/304 301/301/301
f 304/304/304 307/307/307 305/305/305
f 306/306/306 302/302/302 308/308/308
f 303/303/303 306/306/306 307/307/307
f 306/306/306 305/305/305 307/307/307
f 308/308/308 305/305/305 306/306/306
f 315/315/315 313/313/313 311/311/311 309/309/309
f 314/314/314 315/315/315 310/310/310
f 315/315/315 314/314/314 313/313/313
f 313/313/313 314/314/314 312/312/312
f 320/320/320 323/323/323 316/316/316
f 320/320/320 317/317/317 322/322/322
f 321/321/321 323/323/323 320/320/320
f 320/320/320 322/322/322 321/321/321
f 321/321/321 322/322/322 319/319/319
f 318/318/318 323/323/323 321/321/321
v 7310 3000 760
v 7310 6000 760
v 10310 3000 760
v 10310 6000 760
v 10310 4500 760
v 8810 6000 760
v 7310 6000 -2240
v 10310 6000 -2240
v 7310 6000 760
v 10310 6000 760
v 8810 6000 760
v 10310 6000 -740
v 8810 6000 -2240
v 10310 3000 760
v 10310 6000 760
v 10310 3000 -2240
v 10310 6000 -2240
v 10310 4500 760
v 10310 6000 -740
v 10310 4500 -2240
v 7310 3000 -2240
v 7310 6000 -2240
v 10310 3000 -2240
v 10310 6000 -2240
v 8810 6000 -2240
v 10310 4500 -2240
vt 0.99853515625 0.5
vt 0.5 0.5
vt 0.99853515625 0.99853515625
vt 0.5 0.99853515625
vt 0.749267578125 0.99853515625
vt 0.5 0.749267578125
vt 0.99853515625 0
vt 0.5 0
vt 0.99853515625 0.49853515625
vt 0.5 0.49853515625
vt 0.749267578125 0.49853515625
vt 0.5 0.249267578125
vt 0.749267578125 0
vt 0.49853515625 0.5
vt 0 0.5
vt 0.49853515625 0.99853515625
vt 0 0.99853515625
vt 0.249267578125 0.5
vt 0 0.749267578125
vt 0.249267578125 0.99853515625
vt 0.49853515625 0
vt 0 0
vt 0.49853515625 0.49853515625
vt 0 0.49853515625
vt 0 0.249267578125
vt 0.249267578125 0.49853515625
vn 0 0 1
vn 0 0 1
vn 0 0 1
vn 0 0 1
vn 0 0 1
vn 0 0 1
vn 0 1 0
vn 0 1 0
vn 0 1 0
vn 0 1 0
vn 0 1 0
vn 0 1 0
vn 0 1 0
vn 1 0 0
vn 1 0 0
vn 1 0 0
vn 1 0 0
vn 1 0 0
vn 1 0 0
vn 1 0 0
vn 0 0 -1
vn 0 0 -1
vn 0 0 -1
vn 0 0 -1
vn 0 0 -1
vn 0 0 -1
f 325/325/325 324/324/324 329/329/329
f 328/328/328 329/329/329 324/324/324
f 324/324/324 326/326/326 328/328/328
f 329/329/329 328/328/328 327/327/327
f 336/336/336 330/330/330 332/332/332 334/334/334
f 335/335/335 331/331/331 336/336/336
f 336/336/336 334/334/334 335/335/335
f 334/334/334 333/333/333 335/335/335
f 341/341/341 337/337/337 339/339/339 343/343/343
f 342/342/342 338/338/338 341/341/341
f 341/341/341 343/343/343 342/342/342
f 343/343/343 340/340/340 342/342/342
f 345/345/345 348/348/348 344/344/344
f 349/349/349 344/344/344 348/348/348
f 344/344/344 349/349/349 346/346/346
f 348/348/348 347/347/347 349/349/349
v 5511.986328125 3000 760
v 5511.986328125 6000 760
v 7310 3000 760
v 7310 6000 760
vt 0 0
vt 0 1
vt 1 0
vt 1 1
vn 0 0 1
vn 0 0 1
vn 0 0 1
vn 0 0 1
f 353/353/353 351/351/351 350/350/350 352/352/352
v 7310 3000 760
v 7310 6000 760
v 7310 3000 -2240
v 7310 6000 -2240
vt 0 0
vt 0 1
vt 1 0
vt 1 1
vn 1 0 0
vn 1 0 0
vn 1 0 0
vn 1 0 0
f 357/357/357 355/355/355 354/354/354 356/356/356
v 7310 3000 760
v 7310 6000 760
v 7310 3000 3760
v 7310 6000 3760
vt 0 0
vt 0 1
vt 1 0
vt 1 1
vn -1 0 0
vn -1 0 0
vn -1 0 0
vn -1 0 0
f 361/361/361 359/359/359 358/358/358 360/360/360
v 7310 0 760
v 7310 3000 760
v 10310 0 760
v 10310 3000 760
vt 0 0
vt 0 1
vt 1 0
vt 1 1
vn 0 0 1
vn 0 0 1
vn 0 0 1
vn 0 0 1
f 365/365/365 363/363/363 362/362/362 364/364/364
v 10310 0 -2240
v 10310 3000 -2240
v 7310 0 -2240
v 7310 3000 -2240
vt 0 0
vt 0 1
vt 1 0
vt 1 1
vn 0 0 -1
vn 0 0 -1
vn 0 0 -1
vn 0 0 -1
f 369/369/369 367/367/367 366/366/366 368/368/368
v 5511.986328125 0 760
v 5511.986328125 3000 760
v 7310 0 760
v 7310 3000 760
vt 0 0
vt 0 1
vt 1 0
vt 1 1
vn 0 0 1
vn 0 0 1
vn 0 0 1
vn 0 0 1
f 373/373/373 371/371/371 370/370/370 372/372/372
v 7310 0 760
v 7310 3000 760
v 7310 0 -2240
v 7310 3000 -2240
vt 0 0
vt 0 1
vt 1 0
vt 1 1
vn 1 0 0
vn 1 0 0
vn 1 0 0
vn 1 0 0
f 377/377/377 375/375/375 374/374/374 376/376/376
v 7310 0 -2240
v 7310 3000 -2240
v 5511.986328125 0 -2240
v 5511.986328125 3000 -2240
vt 0 0
vt 0 1
vt 1 0
vt 1 1
vn 0 0 -1
vn 0 0 -1
vn 0 0 -1
vn 0 0 -1
f 381/381/381 379/379/379 378/378/378 380/380/380
v 5511.986328125 3000 -2240
v 7310 3000 -2240
v 5511.986328125 3000 760
v 7310 3000 760
v 5511.986328125 3000 -740
v 5511.986328125 0 -2240
v 7310 0 -2240
v 5511.986328125 0 760
v 7310 0 760
v 5511.986328125 0 -740
v 5511.986328125 0 -2240
v 5511.986328125 3000 -2240
v 5511.986328125 0 760
v 5511.986328125 3000 760
v 5511.986328125 3000 -740
v 5511.986328125 0 -740
vt 0.5 0.29966893792152405
vt 0.5 0.5978730320930481
vt 0.99853515625 0.29966893792152405
vt 0.99853515625 0.5978730320930481
vt 0.749267578125 0.29966893792152405
vt 0.5 0
vt 0.5 0.29820409417152405
vt 0.99853515625 0
vt 0.99853515625 0.29820409417152405
vt 0.749267578125 0
vt 0 0
vt 0 0.5
vt 0.49853515625 0
vt 0.49853515625 0.5
vt 0.249267578125 0.5
vt 0.249267578125 0
vn 0 1 0
vn 0 1 0
vn 0 1 0
vn 0 1 0
vn 0 1 0
vn 0 -1 0
vn 0 -1 0
vn 0 -1 0
vn 0 -1 0
vn 0 -1 0
vn -1 0 0
vn -1 0 0
vn -1 0 0
vn -1 0 0
vn -1 0 0
vn -1 0 0
f 386/386/386 383/383/383 382/382/382
f 385/385/385 386/386/386 384/384/384
f 383/383/383 386/386/386 385/385/385
f 391/391/391 387/387/387 388/388/388
f 390/390/390 389/389/389 391/391/391
f 388/388/388 390/390/390 391/391/391
f 393/393/393 392/392/392 397/397/397 396/396/396
f 394/394/394 395/395/395 396/396/396 397/397/397
v 11511.986328125 0 -2240
v 11511.986328125 3000 -2240
v 10310 0 -2240
v 10310 3000 -2240
v 11511.986328125 1500 -2240
v 5511.986328125 3000 -5240
v 11511.986328125 3000 -5240
v 5511.986328125 3000 -2240
v 11511.986328125 3000 -2240
v 10310 3000 -2240
v 8511.986328125 3000 -2240
v 11511.986328125 3000 -3740
v 8511.986328125 3000 -5240
v 5511.986328125 3000 -3740
v 5511.986328125 0 -5240
v 11511.986328125 0 -5240
v 5511.986328125 0 -2240
v 11511.986328125 0 -2240
v 10310 0 -2240
v 8511.986328125 0 -2240
v 11511.986328125 0 -3740
v 8511.986328125 0 -5240
v 5511.986328125 0 -3740
v 11511.986328125 0 -5240
v 11511.986328125 3000 -5240
v 5511.986328125 0 -5240
v 5511.986328125 3000 -5240
v 8511.986328125 3000 -5240
v 8511.986328125 0 -5240
v 5511.986328125 1500 -5240
v 11511.986328125 1500 -5240
v 11511.986328125 0 -2240
v 11511.986328125 3000 -2240
v 11511.986328125 0 -5240
v 11511.986328125 3000 -5240
v 11511.986328125 1500 -2240
v 11511.986328125 3000 -3740
v 11511.986328125 0 -3740
v 11511.986328125 1500 -5240
v 5511.986328125 0 -5240
v 5511.986328125 3000 -5240
v 5511.986328125 0 -2240
v 5511.986328125 3000 -2240
v 5511.986328125 3000 -3740
v 5511.986328125 0 -3740
v 5511.986328125 1500 -5240
vt 0.24853515625 0
vt 0 0
vt 0.24853515625 0.10016553848981857
vt 0 0.10016553848981857
vt 0.124267578125 0
vt 0.99853515625 0
vt 0.5 0
vt 0.99853515625 0.24853515625
vt 0.5 0.24853515625
vt 0.59987211227416992 0.24853515625
vt 0.749267578125 0.24853515625
vt 0.5 0.124267578125
vt 0.749267578125 0
vt 0.99853515625 0.124267578125
vt 0.25 0
vt 0.25 0.5
vt 0.49853515625 0
vt 0.49853515625 0.5
vt 0.49853515625 0.39983445405960083
vt 0.49853515625 0.25
vt 0.374267578125 0.5
vt 0.25 0.25
vt 0.374267578125 0
vt 0.5 0.5
vt 0.5 0.74853515625
vt 0.99853515625 0.5
vt 0.99853515625 0.74853515625
vt 0.749267578125 0.74853515625
vt 0.749267578125 0.5
vt 0.99853515625 0.624267578125
vt 0.5 0.624267578125
vt 0.75 0.25
vt 0.5 0.25
vt 0.75 0.49853515625
vt 0.5 0.49853515625
vt 0.625 0.25
vt 0.5 0.374267578125
vt 0.75 0.374267578125
vt 0.625 0.49853515625
vt 0.24853515625 0.21453896164894104
vt 0 0.21453896164894104
vt 0.24853515625 0.46453896164894104
vt 0 0.46453896164894104
vt 0 0.33953896164894104
vt 0.24853515625 0.33953896164894104
vt 0.124267578125 0.21453896164894104
vn 0 0 -1
vn 0 0 -1
vn 0 0 -1
vn 0 0 -1
vn 0 0 -1
vn 0 -1 0
vn 0 -1 0
vn 0 -1 0
vn 0 -1 0
vn 0 -1 0
vn 0 -1 0
vn 0 -1 0
vn 0 -1 0
vn 0 -1 0
vn 0 1 0
vn 0 1 0
vn 0 1 0
vn 0 1 0
vn 0 1 0
vn 0 1 0
vn 0 1 0
vn 0 1 0
vn 0 1 0
vn 0 0 1
vn 0 0 1
vn 0 0 1
vn 0 0 1
vn 0 0 1
vn 0 0 1
vn 0 0 1
vn 0 0 1
vn -1 0 0
vn -1 0 0
vn -1 0 0
vn -1 0 0
vn -1 0 0
vn -1 0 0
vn -1 0 0
vn -1 0 0
vn 1 0 0
vn 1 0 0
vn 1 0 0
vn 1 0 0
vn 1 0 0
vn 1 0 0
vn 1 0 0
f 400/400/400 402/402/402 398/398/398
f 399/399/399 402/402/402 401/401/401
f 400/400/400 401/401/401 402/402/402
f 410/410/410 411/411/411 403/403/403
f 410/410/410 404/404/404 409/409/409
f 408/408/408 411/411/411 410/410/410
f 410/410/410 409/409/409 408/408/408
f 406/406/406 407/407/407 409/409/409
f 408/408/408 409/409/409 407/407/407
f 405/405/405 411/411/411 408/408/408
f 419/419/419 412/412/412 420/420/420
f 419/419/419 418/418/418 413/413/413
f 417/417/417 419/419/419 420/420/420
f 419/419/419 417/417/417 418/418/418
f 415/415/415 418/418/418 416/416/416
f 417/417/417 416/416/416 418/418/418
f 414/414/414 417/417/417 420/420/420
f 428/428/428 426/426/426 421/421/421
f 428/428/428 422/422/422 425/425/425
f 427/427/427 426/426/426 428/428/428
f 428/428/428 425/425/425 427/427/427
f 427/427/427 425/425/425 424/424/424
f 423/423/423 426/426/426 427/427/427
f 433/433/433 435/435/435 429/429/429
f 433/433/433 430/430/430 434/434/434
f 436/436/436 435/435/435 433/433/433
f 433/433/433 434/434/434 436/436/436
f 436/436/436 434/434/434 432/432/432
f 431/431/431 435/435/435 436/436/436
f 442/442/442 437/437/437 443/443/443
f 441/441/441 443/443/443 438/438/438
f 439/439/439 442/442/442 441/441/441 440/440/440
f 443/443/443 441/441/441 442/442/442
v 7310 0 3760
v 7310 3000 3760
v 7310 0 6760
v 7310 3000 6760
v 7310 0 5260
v 7310 1500 6760
v 7310 3000 5260
v 4310 0 760
v 4310 3000 760
v 5511.986328125 0 760
v 5511.986328125 3000 760
v 4310 1500 760
v 7310 3000 760
v 7310 3000 6760
v 4310 3000 760
v 4310 3000 6760
v 7310 3000 5260
v 7310 3000 3760
v 4310 3000 3760
v 5810 3000 6760
v 5511.986328125 3000 760
v 7310 0 760
v 7310 0 6760
v 4310 0 760
v 4310 0 6760
v 7310 0 5260
v 7310 0 3760
v 4310 0 3760
v 5810 0 6760
v 5511.986328125 0 760
v 4310 0 6760
v 4310 3000 6760
v 7310 0 6760
v 7310 3000 6760
v 7310 1500 6760
v 5810 3000 6760
v 5810 0 6760
v 4310 1500 6760
v 4310 0 760
v 4310 3000 760
v 4310 0 6760
v 4310 3000 6760
v 4310 1500 760
v 4310 1500 6760
v 4310 3000 3760
v 4310 0 3760
vt 0.75 0.25
vt 0.5 0.25
vt 0.75 0.49853515625
vt 0.5 0.49853515625
vt 0.75 0.374267578125
vt 0.625 0.49853515625
vt 0.5 0.374267578125
vt 0.24853515625 0
vt 0 0
vt 0.24853515625 0.10016553848981857
vt 0 0.10016553848981857
vt 0.124267578125 0
vt 0.99853515625 0
vt 0.5 0
vt 0.99853515625 0.24853515625
vt 0.5 0.24853515625
vt 0.6246337890625 0
vt 0.749267578125 0
vt 0.749267578125 0.24853515625
vt 0.5 0.124267578125
vt 0.99853515625 0.1489565372467041
vt 0.25 0
vt 0.25 0.5
vt 0.49853515625 0
vt 0.49853515625 0.5
vt 0.25 0.375
vt 0.25 0.25
vt 0.49853515625 0.25
vt 0.374267578125 0.5
vt 0.3989565372467041 0
vt 0.24853515625 0.21453896164894104
vt 0 0.21453896164894104
vt 0.24853515625 0.46453896164894104
vt 0 0.46453896164894104
vt 0.124267578125 0.46453896164894104
vt 0 0.33953896164894104
vt 0.24853515625 0.33953896164894104
vt 0.124267578125 0.21453896164894104
vt 0.5 0.5
vt 0.5 0.74853515625
vt 0.99853515625 0.5
vt 0.99853515625 0.74853515625
vt 0.5 0.624267578125
vt 0.99853515625 0.624267578125
vt 0.749267578125 0.74853515625
vt 0.749267578125 0.5
vn -1 0 0
vn -1 0 0
vn -1 0 0
vn -1 0 0
vn -1 0 0
vn -1 0 0
vn -1 0 0
vn 0 0 1
vn 0 0 1
vn 0 0 1
vn 0 0 1
vn 0 0 1
vn 0 -1 0
vn 0 -1 0
vn 0 -1 0
vn 0 -1 0
vn 0 -1 0
vn 0 -1 0
vn 0 -1 0
vn 0 -1 0
vn 0 -1 0
vn 0 1 0
vn 0 1 0
vn 0 1 0
vn 0 1 0
vn 0 1 0
vn 0 1 0
vn 0 1 0
vn 0 1 0
vn 0 1 0
vn 0 0 -1
vn 0 0 -1
vn 0 0 -1
vn 0 0 -1
vn 0 0 -1
vn 0 0 -1
vn 0 0 -1
vn 0 0 -1
vn 1 0 0
vn 1 0 0
vn 1 0 0
vn 1 0 0
vn 1 0 0
vn 1 0 0
vn 1 0 0
vn 1 0 0
f 445/445/445 444/444/444 448/448/448 450/450/450
f 448/448/448 449/449/449 450/450/450
f 449/449/449 447/447/447 450/450/450
f 446/446/446 449/449/449 448/448/448
f 453/453/453 455/455/455 451/451/451
f 452/452/452 455/455/455 454/454/454
f 453/453/453 454/454/454 455/455/455
f 464/464/464 456/456/456 461/461/461
f 463/463/463 460/460/460 457/457/457
f 460/460/460 463/463/463 461/461/461
f 462/462/462 458/458/458 464/464/464
f 459/459/459 462/462/462 463/463/463
f 462/462/462 461/461/461 463/463/463
f 464/464/464 461/461/461 462/462/462
f 473/473/473 470/470/470 465/465/465
f 472/472/472 466/466/466 469/469/469
f 469/469/469 470/470/470 472/472/472
f 471/471/471 473/473/473 467/467/467
f 468/468/468 472/472/472 471/471/471
f 471/471/471 472/472/472 470/470/470
f 473/473/473 471/471/471 470/470/470
f 481/481/481 480/480/480 474/474/474
f 481/481/481 475/475/475 479/479/479
f 478/478/478 480/480/480 481/481/481
f 481/481/481 479/479/479 478/478/478
f 478/478/478 479/479/479 477/477/477
f 476/476/476 480/480/480 478/478/478
f 486/486/486 489/489/489 482/482/482
f 486/486/486 483/483/483 488/488/488
f 487/487/487 489/489/489 486/486/486
f 486/486/486 488/488/488 487/487/487
f 487/487/487 488/488/488 485/485/485
f 484/484/484 489/489/489 487/487/487
v 7310 0 760
v 10310 0 760
v 7310 0 3760
v 10310 0 3760
v 8810 0 3760
v 10310 0 2260
v 7310 3000 760
v 10310 3000 760
v 7310 3000 3760
v 10310 3000 3760
v 8810 3000 3760
v 10310 3000 2260
v 10310 0 3760
v 10310 3000 3760
v 10310 0 760
v 10310 3000 760
v 10310 0 2260
v 10310 3000 2260
v 10310 1500 3760
v 7310 0 3760
v 7310 3000 3760
v 10310 0 3760
v 10310 3000 3760
v 8810 0 3760
v 8810 3000 3760
v 10310 1500 3760
vt 0.49853515625 0.5
vt 0 0.5
vt 0.49853515625 0.99853515625
vt 0 0.99853515625
vt 0.249267578125 0.99853515625
vt 0 0.749267578125
vt 0.49853515625 0
vt 0 0
vt 0.49853515625 0.49853515625
vt 0 0.49853515625
vt 0.249267578125 0.49853515625
vt 0 0.249267578125
vt 0.99853515625 0.5
vt 0.5 0.5
vt 0.99853515625 0.99853515625
vt 0.5 0.99853515625
vt 0.99853515625 0.749267578125
vt 0.5 0.749267578125
vt 0.749267578125 0.5
vt 0.99853515625 0
vt 0.5 0
vt 0.99853515625 0.49853515625
vt 0.5 0.49853515625
vt 0.99853515625 0.249267578125
vt 0.5 0.249267578125
vt 0.749267578125 0.49853515625
vn 0 -1 0
vn 0 -1 0
vn 0 -1 0
vn 0 -1 0
vn 0 -1 0
vn 0 -1 0
vn 0 1 0
vn 0 1 0
vn 0 1 0
vn 0 1 0
vn 0 1 0
vn 0 1 0
vn 1 0 0
vn 1 0 0
vn 1 0 0
vn 1 0 0
vn 1 0 0
vn 1 0 0
vn 1 0 0
vn 0 0 1
vn 0 0 1
vn 0 0 1
vn 0 0 1
vn 0 0 1
vn 0 0 1
vn 0 0 1
f 491/491/491 495/495/495 490/490/490
f 494/494/494 490/490/490 495/495/495
f 490/490/490 494/494/494 492/492/492
f 495/495/495 493/493/493 494/494/494
f 497/497/497 496/496/496 501/501/501
f 500/500/500 501/501/501 496/496/496
f 496/496/496 498/498/498 500/500/500
f 501/501/501 500/500/500 499/499/499
f 506/506/506 508/508/508 502/502/502
f 507/507/507 503/503/503 508/508/508
f 504/504/504 505/505/505 507/507/507 506/506/506
f 508/508/508 506/506/506 507/507/507
f 510/510/510 509/509/509 513/513/513 514/514/514
f 513/513/513 515/515/515 514/514/514
f 515/515/515 512/512/512 514/514/514
f 511/511/511 515/515/515 513/513/513
v 7310 0 760
v 7310 3000 760
v 7310 0 3760
v 7310 3000 3760
vt 0 0
vt 0 1
vt 1 0
vt 1 1
vn -1 0 0
vn -1 0 0
vn -1 0 0
vn -1 0 0
f 519/519/519 517/517/517 516/516/516 518/518/518
v 7310 3000 -2240
v 10310 3000 -2240
v 7310 3000 760
v 10310 3000 760
v 10310 3000 -740
v 7310 0 -2240
v 10310 0 -2240
v 7310 0 760
v 10310 0 760
v 10310 0 -740
v 10310 0 760
v 10310 3000 760
v 10310 0 -2240
v 10310 3000 -2240
v 10310 3000 -740
v 10310 0 -740
vt 0 0
vt 0 0.5
vt 0.49853515625 0
vt 0.49853515625 0.5
vt 0.249267578125 0.5
vt 0.99853515625 0.5
vt 0.5 0.5
vt 0.99853515625 0.99853515625
vt 0.5 0.99853515625
vt 0.5 0.749267578125
vt 0.99853515625 0
vt 0.5 0
vt 0.99853515625 0.49853515625
vt 0.5 0.49853515625
vt 0.5 0.249267578125
vt 0.99853515625 0.249267578125
vn 0 1 0
vn 0 1 0
vn 0 1 0
vn 0 1 0
vn 0 1 0
vn 0 -1 0
vn 0 -1 0
vn 0 -1 0
vn 0 -1 0
vn 0 -1 0
vn 1 0 0
vn 1 0 0
vn 1 0 0
vn 1 0 0
vn 1 0 0
vn 1 0 0
f 524/524/524 521/521/521 520/520/520
f 523/523/523 524/524/524 522/522/522
f 520/520/520 522/522/522 524/524/524
f 529/529/529 525/525/525 526/526/526
f 528/528/528 527/527/527 529/529/529
f 525/525/525 529/529/529 527/527/527
f 531/531/531 530/530/530 535/535/535 534/534/534
f 532/532/532 533/533/533 534/534/534 535/535/535
