# Rhino

v 21954.75 2007.434814453125 1961.9864501953125
v 21954.75 838.37078857421875 1961.9864501953125
v 19954.75 2007.434814453125 1961.9864501953125
v 19954.75 838.37078857421875 1961.9864501953125
vt 0 0
vt 0 1
vt 1 0
vt 1 1
vn 0 0 1
vn 0 0 1
vn 0 0 1
vn 0 0 1
f 4/4/4 2/2/2 1/1/1 3/3/3
v 15670.0380859375 5399.06396484375 760
v 15670.0380859375 4230 760
v 13670.0380859375 5399.06396484375 760
v 13670.0380859375 4230 760
vt 0 0
vt 0 1
vt 1 0
vt 1 1
vn 0 0 1
vn 0 0 1
vn 0 0 1
vn 0 0 1
f 8/8/8 6/6/6 5/5/5 7/7/7
v 15670.0380859375 2338.128173828125 760
v 15670.0380859375 1169.0640869140625 760
v 13670.0380859375 2338.128173828125 760
v 13670.0380859375 1169.0640869140625 760
vt 0 0
vt 0 1
vt 1 0
vt 1 1
vn 0 0 1
vn 0 0 1
vn 0 0 1
vn 0 0 1
f 12/12/12 10/10/10 9/9/9 11/11/11
v 8070 2045.2042236328125 -5240
v 8070 876.14019775390625 -5240
v 6070 2045.2042236328125 -5240
v 6070 876.14019775390625 -5240
vt 0 0
vt 0 1
vt 1 0
vt 1 1
vn 0 0 1
vn 0 0 1
vn 0 0 1
vn 0 0 1
f 16/16/16 14/14/14 13/13/13 15/15/15
v 10721.49609375 2045.2042236328125 -5240
v 10721.49609375 876.14019775390625 -5240
v 8721.49609375 2045.2042236328125 -5240
v 8721.49609375 876.14019775390625 -5240
vt 0 0
vt 0 1
vt 1 0
vt 1 1
vn 0 0 1
vn 0 0 1
vn 0 0 1
vn 0 0 1
f 20/20/20 18/18/18 17/17/17 19/19/19
v 22310 1043.8177490234375 4820
v 22310 2300.31103515625 4820
v 22310 1043.8177490234375 3376.187744140625
v 22310 2300.31103515625 3376.187744140625
vt 0 0
vt 0 1
vt 1 0
vt 1 1
vn 1 0 0
vn 1 0 0
vn 1 0 0
vn 1 0 0
f 24/24/24 22/22/22 21/21/21 23/23/23
v 22310 1043.8177490234375 7240.080078125
v 22310 2300.31103515625 7240.080078125
v 22310 1043.8177490234375 5796.26806640625
v 22310 2300.31103515625 5796.26806640625
vt 0 0
vt 0 1
vt 1 0
vt 1 1
vn 1 0 0
vn 1 0 0
vn 1 0 0
vn 1 0 0
f 28/28/28 26/26/26 25/25/25 27/27/27
v 4310 4082.48828125 5783.8125
v 4310 5338.98193359375 5783.8125
v 4310 4082.48828125 4340
v 4310 5338.98193359375 4340
vt 0 0
vt 0 1
vt 1 0
vt 1 1
vn 1 0 0
vn 1 0 0
vn 1 0 0
vn 1 0 0
f 32/32/32 30/30/30 29/29/29 31/31/31
v 4310 4082.48828125 2765.65185546875
v 4310 5338.98193359375 2765.65185546875
v 4310 4082.48828125 1321.8394775390625
v 4310 5338.98193359375 1321.8394775390625
vt 0 0
vt 0 1
vt 1 0
vt 1 1
vn 1 0 0
vn 1 0 0
vn 1 0 0
vn 1 0 0
f 36/36/36 34/34/34 33/33/33 35/35/35
v 5511.986328125 3680 166.8985595703125
v 5511.986328125 4936.49365234375 166.8985595703125
v 5511.986328125 3680 -1276.9136962890625
v 5511.986328125 4936.49365234375 -1276.9136962890625
vt 0 0
vt 0 1
vt 1 0
vt 1 1
vn 1 0 0
vn 1 0 0
vn 1 0 0
vn 1 0 0
f 40/40/40 38/38/38 37/37/37 39/39/39
v 7310 973.506591796875 5943.33642578125
v 7310 2230 5943.33642578125
v 7310 973.506591796875 4499.52392578125
v 7310 2230 4499.52392578125
vt 0 0
vt 0 1
vt 1 0
vt 1 1
vn 1 0 0
vn 1 0 0
vn 1 0 0
vn 1 0 0
f 44/44/44 42/42/42 41/41/41 43/43/43
v 5511.986328125 773.506591796875 166.8985595703125
v 5511.986328125 2030 166.8985595703125
v 5511.986328125 773.506591796875 -1276.9136962890625
v 5511.986328125 2030 -1276.9136962890625
vt 0 0
vt 0 1
vt 1 0
vt 1 1
vn 1 0 0
vn 1 0 0
vn 1 0 0
vn 1 0 0
f 48/48/48 46/46/46 45/45/45 47/47/47
