# Rhino

v 12971.5009765625 5045.2041015625 760
v 12971.5009765625 3000 760
v 12063.6884765625 5045.2041015625 760
v 12063.6884765625 3000 760
vt 0 0
vt 0 1
vt 1 0
vt 1 1
vn 0 0 1
vn 0 0 1
vn 0 0 1
vn 0 0 1
f 4/4/4 2/2/2 1/1/1 3/3/3
v 12971.5009765625 2045.2042236328125 760
v 12971.5009765625 0 760
v 12063.6884765625 2045.2042236328125 760
v 12063.6884765625 0 760
vt 0 0
vt 0 1
vt 1 0
vt 1 1
vn 0 0 1
vn 0 0 1
vn 0 0 1
vn 0 0 1
f 8/8/8 6/6/6 5/5/5 7/7/7
v 8217.8125 5045.2041015625 -2240
v 8217.8125 3000 -2240
v 7310 5045.2041015625 -2240
v 7310 3000 -2240
vt 0 0
vt 0 1
vt 1 0
vt 1 1
vn 0 0 1
vn 0 0 1
vn 0 0 1
vn 0 0 1
f 12/12/12 10/10/10 9/9/9 11/11/11
v 16310 0 3504.363037109375
v 16310 2340.324462890625 3504.363037109375
v 16310 0 2324.363037109375
v 16310 2340.324462890625 2324.363037109375
vt 0 0
vt 0 1
vt 1 0
vt 1 1
vn 1 0 0
vn 1 0 0
vn 1 0 0
vn 1 0 0
f 16/16/16 14/14/14 13/13/13 15/15/15
v 8217.8125 2045.2042236328125 -2240
v 8217.8125 0 -2240
v 7310 2045.2042236328125 -2240
v 7310 0 -2240
vt 0 0
vt 0 1
vt 1 0
vt 1 1
vn 0 0 1
vn 0 0 1
vn 0 0 1
vn 0 0 1
f 20/20/20 18/18/18 17/17/17 19/19/19
v 8217.8125 2045.2042236328125 760
v 8217.8125 0 760
v 7310 2045.2042236328125 760
v 7310 0 760
vt 0 0
vt 0 1
vt 1 0
vt 1 1
vn 0 0 1
vn 0 0 1
vn 0 0 1
vn 0 0 1
f 24/24/24 22/22/22 21/21/21 23/23/23
v 7310 0 2801.122802734375
v 7310 2340.324462890625 2801.122802734375
v 7310 0 1621.1226806640625
v 7310 2340.324462890625 1621.1226806640625
vt 0 0
vt 0 1
vt 1 0
vt 1 1
vn 1 0 0
vn 1 0 0
vn 1 0 0
vn 1 0 0
f 28/28/28 26/26/26 25/25/25 27/27/27
v 14810 2045.2042236328125 3760
v 14810 0 3760
v 13902.1875 2045.2042236328125 3760
v 13902.1875 0 3760
vt 0 0
vt 0 1
vt 1 0
vt 1 1
vn 0 0 1
vn 0 0 1
vn 0 0 1
vn 0 0 1
f 32/32/32 30/30/30 29/29/29 31/31/31
v 18097.400390625 2045.2042236328125 3760
v 18097.400390625 0 3760
v 17189.587890625 2045.2042236328125 3760
v 17189.587890625 0 3760
vt 0 0
vt 0 1
vt 1 0
vt 1 1
vn 0 0 1
vn 0 0 1
vn 0 0 1
vn 0 0 1
f 36/36/36 34/34/34 33/33/33 35/35/35
v 7310 3000 415.63626098632812
v 7310 5340.32470703125 415.63626098632812
v 7310 3000 -764.36370849609375
v 7310 5340.32470703125 -764.36370849609375
vt 0 0
vt 0 1
vt 1 0
vt 1 1
vn 1 0 0
vn 1 0 0
vn 1 0 0
vn 1 0 0
f 40/40/40 38/38/38 37/37/37 39/39/39
v 7310 3000 3473.8583984375
v 7310 5340.32470703125 3473.8583984375
v 7310 3000 2293.8583984375
v 7310 5340.32470703125 2293.8583984375
vt 0 0
vt 0 1
vt 1 0
vt 1 1
vn 1 0 0
vn 1 0 0
vn 1 0 0
vn 1 0 0
f 44/44/44 42/42/42 41/41/41 43/43/43
v 7016.1357421875 5045.2041015625 760
v 7016.1357421875 3000 760
v 6108.32373046875 5045.2041015625 760
v 6108.32373046875 3000 760
vt 0 0
vt 0 1
vt 1 0
vt 1 1
vn 0 0 1
vn 0 0 1
vn 0 0 1
vn 0 0 1
f 48/48/48 46/46/46 45/45/45 47/47/47
v 9445.982421875 5045.2041015625 760
v 9445.982421875 3000 760
v 8538.1708984375 5045.2041015625 760
v 8538.1708984375 3000 760
vt 0 0
vt 0 1
vt 1 0
vt 1 1
vn 0 0 1
vn 0 0 1
vn 0 0 1
vn 0 0 1
f 52/52/52 50/50/50 49/49/49 51/51/51
v 18576.611328125 5045.2041015625 3760
v 18576.611328125 3000 3760
v 17668.798828125 5045.2041015625 3760
v 17668.798828125 3000 3760
vt 0 0
vt 0 1
vt 1 0
vt 1 1
vn 0 0 1
vn 0 0 1
vn 0 0 1
vn 0 0 1
f 56/56/56 54/54/54 53/53/53 55/55/55
v 15656.7802734375 5045.2041015625 3760
v 15656.7802734375 3000 3760
v 14748.9677734375 5045.2041015625 3760
v 14748.9677734375 3000 3760
vt 0 0
vt 0 1
vt 1 0
vt 1 1
vn 0 0 1
vn 0 0 1
vn 0 0 1
vn 0 0 1
f 60/60/60 58/58/58 57/57/57 59/59/59
v 16310 3000 5260
v 16310 5340.32470703125 5260
v 16310 3000 4080
v 16310 5340.32470703125 4080
vt 0 0
vt 0 1
vt 1 0
vt 1 1
vn 1 0 0
vn 1 0 0
vn 1 0 0
vn 1 0 0
f 64/64/64 62/62/62 61/61/61 63/63/63
v 10310 3000 2674.341796875
v 10310 5340.32470703125 2674.341796875
v 10310 3000 1494.341796875
v 10310 5340.32470703125 1494.341796875
vt 0 0
vt 0 1
vt 1 0
vt 1 1
vn 1 0 0
vn 1 0 0
vn 1 0 0
vn 1 0 0
f 68/68/68 66/66/66 65/65/65 67/67/67
v 7310 0 -740
v 7310 2340.324462890625 -740
v 7310 0 -1920
v 7310 2340.324462890625 -1920
vt 0 0
vt 0 1
vt 1 0
vt 1 1
vn 1 0 0
vn 1 0 0
vn 1 0 0
vn 1 0 0
f 72/72/72 70/70/70 69/69/69 71/71/71
v 10310 0 2801.122802734375
v 10310 2340.324462890625 2801.122802734375
v 10310 0 1621.1226806640625
v 10310 2340.324462890625 1621.1226806640625
vt 0 0
vt 0 1
vt 1 0
vt 1 1
vn 1 0 0
vn 1 0 0
vn 1 0 0
vn 1 0 0
f 76/76/76 74/74/74 73/73/73 75/75/75
v 19310 0 3317.522705078125
v 19310 2340.324462890625 3317.522705078125
v 19310 0 2137.522705078125
v 19310 2340.324462890625 2137.522705078125
vt 0 0
vt 0 1
vt 1 0
vt 1 1
vn 1 0 0
vn 1 0 0
vn 1 0 0
vn 1 0 0
f 80/80/80 78/78/78 77/77/77 79/79/79
v 16310 0 5403.4345703125
v 16310 2340.324462890625 5403.4345703125
v 16310 0 4223.4345703125
v 16310 2340.324462890625 4223.4345703125
vt 0 0
vt 0 1
vt 1 0
vt 1 1
vn 1 0 0
vn 1 0 0
vn 1 0 0
vn 1 0 0
f 84/84/84 82/82/82 81/81/81 83/83/83
v 19310 3000 5403.4345703125
v 19310 5340.32470703125 5403.4345703125
v 19310 3000 4223.4345703125
v 19310 5340.32470703125 4223.4345703125
vt 0 0
vt 0 1
vt 1 0
vt 1 1
vn 1 0 0
vn 1 0 0
vn 1 0 0
vn 1 0 0
f 88/88/88 86/86/86 85/85/85 87/87/87
v 5511.986328125 0 -3170.1591796875
v 5511.986328125 2030 -3170.1591796875
v 5511.986328125 0 -4613.9716796875
v 5511.986328125 2030 -4613.9716796875
vt 0 0
vt 0 1
vt 1 0
vt 1 1
vn 1 0 0
vn 1 0 0
vn 1 0 0
vn 1 0 0
f 92/92/92 90/90/90 89/89/89 91/91/91
v 4310 0 4280
v 4310 2030 4280
v 4310 0 2836.187744140625
v 4310 2030 2836.187744140625
vt 0 0
vt 0 1
vt 1 0
vt 1 1
vn 1 0 0
vn 1 0 0
vn 1 0 0
vn 1 0 0
f 96/96/96 94/94/94 93/93/93 95/95/95
