# Rhino

g object_1
v 39.028118133544922 0 -22.061977386474609
v 39.028118133544922 0 -21.261978149414062
v 39.028118133544922 2.0999999046325684 -22.061977386474609
v 39.028118133544922 2.0999999046325684 -21.261978149414062
f 4 2 1 3
g object_2
v 91.292976379394531 0 3.3767523765563965
v 91.292976379394531 0 2.5767524242401123
v 91.292976379394531 2.0999999046325684 3.3767523765563965
v 91.292976379394531 2.0999999046325684 2.5767524242401123
f 8 6 5 7
g object_3
v 94.322776794433594 0 -6.3964719772338867
v 93.522773742675781 0 -6.3964719772338867
v 94.322776794433594 2.0999999046325684 -6.3964719772338867
v 93.522773742675781 2.0999999046325684 -6.3964719772338867
f 12 10 9 11
g object_4
v 91.555030822753906 0 -55.270282745361328
v 91.555030822753906 0 -54.470283508300781
v 91.555030822753906 2.0999999046325684 -55.270282745361328
v 91.555030822753906 2.0999999046325684 -54.470283508300781
f 16 14 13 15
g object_5
v 86.929679870605469 0 -47.416412353515625
v 86.129684448242188 0 -47.416412353515625
v 86.929679870605469 2.0999999046325684 -47.416412353515625
v 86.129684448242188 2.0999999046325684 -47.416412353515625
f 20 18 17 19
g object_6
v 94.593124389648438 0 -40.877998352050781
v 95.39312744140625 0 -40.877998352050781
v 94.593124389648438 2.0999999046325684 -40.877998352050781
v 95.39312744140625 2.0999999046325684 -40.877998352050781
f 24 22 21 23
g object_7
v 75.695228576660156 0 -40.877998352050781
v 74.895225524902344 0 -40.877998352050781
v 75.695228576660156 2.0999999046325684 -40.877998352050781
v 74.895225524902344 2.0999999046325684 -40.877998352050781
f 28 26 25 27
g object_8
v 91.055030822753906 0 -36.413154602050781
v 91.055030822753906 0 -37.213153839111328
v 91.055030822753906 2.0999999046325684 -36.413154602050781
v 91.055030822753906 2.0999999046325684 -37.213153839111328
f 32 30 29 31
g object_9
v 78.688003540039062 0 -36.413154602050781
v 78.688003540039062 0 -37.213153839111328
v 78.688003540039062 2.0999999046325684 -36.413154602050781
v 78.688003540039062 2.0999999046325684 -37.213153839111328
f 36 34 33 35
g object_10
v 57.946022033691406 0 -7.781585693359375
v 58.746021270751953 0 -7.781585693359375
v 57.946022033691406 2.0999999046325684 -7.781585693359375
v 58.746021270751953 2.0999999046325684 -7.781585693359375
f 40 38 37 39
g object_11
v 70.750205993652344 0 -12.809332847595215
v 70.750205993652344 0 -13.609333038330078
v 70.750205993652344 2.0999999046325684 -12.809332847595215
v 70.750205993652344 2.0999999046325684 -13.609333038330078
f 44 42 41 43
g object_12
v 14.257289886474609 0 -40.630828857421875
v 13.457290649414062 0 -40.630828857421875
v 14.257289886474609 2.0999999046325684 -40.630828857421875
v 13.457290649414062 2.0999999046325684 -40.630828857421875
f 48 46 45 47
g object_13
v 20.965229034423828 0 -34.974334716796875
v 20.965229034423828 0 -35.774333953857422
v 20.965229034423828 2.0999999046325684 -34.974334716796875
v 20.965229034423828 2.0999999046325684 -35.774333953857422
f 52 50 49 51
g object_14
v -18.069686889648438 0 -22.061977386474609
v -18.069686889648438 0 -21.261978149414062
v -18.069686889648438 2.0999999046325684 -22.061977386474609
v -18.069686889648438 2.0999999046325684 -21.261978149414062
f 56 54 53 55
g object_15
v 26.928329467773438 0 7.4000000953674316
v 26.928329467773438 0 6.5999999046325684
v 26.928329467773438 2.0999999046325684 7.4000000953674316
v 26.928329467773438 2.0999999046325684 6.5999999046325684
f 60 58 57 59
g object_16
v 14.600000381469727 0 0.7091904878616333
v 15.399999618530273 0 0.7091904878616333
v 14.600000381469727 2.0999999046325684 0.7091904878616333
v 15.399999618530273 2.0999999046325684 0.7091904878616333
f 64 62 61 63
g object_17
v 24.399999618530273 0 -6.6067628860473633
v 23.600000381469727 0 -6.6067628860473633
v 24.399999618530273 2.0999999046325684 -6.6067628860473633
v 23.600000381469727 2.0999999046325684 -6.6067628860473633
f 68 66 65 67
g object_18
v -20.399999618530273 0 -41.722633361816406
v -19.600000381469727 0 -41.722633361816406
v -20.399999618530273 2.0999999046325684 -41.722633361816406
v -19.600000381469727 2.0999999046325684 -41.722633361816406
f 72 70 69 71
g object_19
v -41.144401550292969 0 -44.400001525878906
v -41.144401550292969 0 -43.599998474121094
v -41.144401550292969 2.0999999046325684 -44.400001525878906
v -41.144401550292969 2.0999999046325684 -43.599998474121094
f 76 74 73 75
g object_20
v -51.599998474121094 0 -41.722633361816406
v -52.400001525878906 0 -41.722633361816406
v -51.599998474121094 2.0999999046325684 -41.722633361816406
v -52.400001525878906 2.0999999046325684 -41.722633361816406
f 80 78 77 79
g object_21
v -38.860309600830078 0 -35.400001525878906
v -38.860309600830078 0 -34.599998474121094
v -38.860309600830078 2.0999999046325684 -35.400001525878906
v -38.860309600830078 2.0999999046325684 -34.599998474121094
f 84 82 81 83
g object_22
v -24.463459014892578 0 -35.400001525878906
v -24.463459014892578 0 -34.599998474121094
v -24.463459014892578 2.0999999046325684 -35.400001525878906
v -24.463459014892578 2.0999999046325684 -34.599998474121094
f 88 86 85 87
g object_23
v -40.599998474121094 0 -4.8289151191711426
v -41.400001525878906 0 -4.8289151191711426
v -40.599998474121094 2.0999999046325684 -4.8289151191711426
v -41.400001525878906 2.0999999046325684 -4.8289151191711426
f 92 90 89 91
g object_24
v -38.601734161376953 0 3.4000000953674316
v -38.601734161376953 0 2.5999999046325684
v -38.601734161376953 2.0999999046325684 3.4000000953674316
v -38.601734161376953 2.0999999046325684 2.5999999046325684
f 96 94 93 95
