# Rhino

g Cells::wc_04
v 67.691787719726562 0 -40.877998352050781
v 67.691787719726562 0 -30.117837905883789
v 67.691787719726562 3 -40.877998352050781
v 67.691787719726562 3 -30.117837905883789
v 71.902458190917969 0 -30.117837905883789
v 71.902458190917969 3 -30.117837905883789
v 71.902458190917969 0 -40.877998352050781
v 71.902458190917969 3 -40.877998352050781
f 2 4 3 1
f 5 6 4 2
f 7 8 6 5
f 1 3 8 7
f 3 4 6 8
f 2 1 7 5
g Cells::wc_03
v 86.894737243652344 0 -18.107887268066406
v 86.894737243652344 0 -7.781585693359375
v 86.894737243652344 3 -18.107887268066406
v 86.894737243652344 3 -7.781585693359375
v 91.292976379394531 0 -7.781585693359375
v 91.292976379394531 3 -7.781585693359375
v 91.292976379394531 0 -18.107887268066406
v 91.292976379394531 3 -18.107887268066406
f 10 12 11 9
f 13 14 12 10
f 15 16 14 13
f 9 11 16 15
f 11 12 14 16
f 10 9 15 13
g Cells::wc_02
v 33.072074890136719 0 -40.630828857421875
v 33.072074890136719 0 -30.117837905883789
v 33.072074890136719 3 -40.630828857421875
v 33.072074890136719 3 -30.117837905883789
v 37.457450866699219 0 -30.117837905883789
v 37.457450866699219 3 -30.117837905883789
v 37.457450866699219 0 -40.630828857421875
v 37.457450866699219 3 -40.630828857421875
f 18 20 19 17
f 21 22 20 18
f 23 24 22 21
f 17 19 24 23
f 19 20 22 24
f 18 17 23 21
g Cells::wc_01
v -38.860309600830078 0 -41.722633361816406
v -38.860309600830078 0 -37.027294158935547
v -38.860309600830078 3 -41.722633361816406
v -38.860309600830078 3 -37.027294158935547
v -24.463459014892578 0 -37.027294158935547
v -24.463459014892578 3 -37.027294158935547
v -24.463459014892578 0 -41.722633361816406
v -24.463459014892578 3 -41.722633361816406
f 26 28 27 25
f 29 30 28 26
f 31 32 30 29
f 25 27 32 31
f 27 28 30 32
f 26 25 31 29
g Cells::wc_00
v -38.601734161376953 0 -17.684419631958008
v -38.601734161376953 0 -10.526923179626465
v -38.601734161376953 3 -17.684419631958008
v -38.601734161376953 3 -10.526923179626465
v -34.3311767578125 0 -10.526923179626465
v -34.3311767578125 3 -10.526923179626465
v -34.3311767578125 0 -17.684419631958008
v -34.3311767578125 3 -17.684419631958008
f 34 36 35 33
f 37 38 36 34
f 39 40 38 37
f 33 35 40 39
f 35 36 38 40
f 34 33 39 37
g Cells::storeroom_03
v -24.463459014892578 0 -10.526923179626465
v -38.601734161376953 0 -10.526923179626465
v -24.463459014892578 3 -10.526923179626465
v -38.601734161376953 3 -10.526923179626465
v -38.601734161376953 0 -4.8289151191711426
v -38.601734161376953 3 -4.8289151191711426
v -24.463459014892578 0 -4.8289151191711426
v -24.463459014892578 3 -4.8289151191711426
f 42 44 43 41
f 45 46 44 42
f 47 48 46 45
f 41 43 48 47
f 44 46 48 43
f 45 42 41 47
g Cells::storeroom_02
v 78.688003540039062 0 -40.877998352050781
v 78.688003540039062 0 -32.748313903808594
v 78.688003540039062 3 -40.877998352050781
v 78.688003540039062 3 -32.748313903808594
v 91.055030822753906 0 -32.748313903808594
v 91.055030822753906 3 -32.748313903808594
v 91.055030822753906 0 -40.877998352050781
v 91.055030822753906 3 -40.877998352050781
f 50 52 51 49
f 53 54 52 50
f 55 56 54 53
f 49 51 56 55
f 51 52 54 56
f 50 49 55 53
g Cells::storeroom_01
v 12.387041091918945 0 -18.637079238891602
v 12.387041091918945 0 -6.6067628860473633
v 12.387041091918945 3 -18.637079238891602
v 12.387041091918945 3 -6.6067628860473633
v 20.293128967285156 0 -6.6067628860473633
v 20.293128967285156 3 -6.6067628860473633
v 20.293128967285156 0 -18.637079238891602
v 20.293128967285156 3 -18.637079238891602
f 58 60 59 57
f 61 62 60 58
f 63 64 62 61
f 57 59 64 63
f 59 60 62 64
f 58 57 63 61
g Cells::storeroom_00
v -38.860309600830078 0 -37.027294158935547
v -38.860309600830078 0 -30.117837905883789
v -38.860309600830078 3 -37.027294158935547
v -38.860309600830078 3 -30.117837905883789
v -24.463459014892578 0 -30.117837905883789
v -24.463459014892578 3 -30.117837905883789
v -24.463459014892578 0 -37.027294158935547
v -24.463459014892578 3 -37.027294158935547
f 66 68 67 65
f 69 70 68 66
f 71 72 70 69
f 65 67 72 71
f 67 68 70 72
f 66 65 71 69
g Cells::stairs_02
v -18.069686889648438 0 -24.68687629699707
v -18.069686889648438 0 -18.637079238891602
v -18.069686889648438 3 -24.68687629699707
v -18.069686889648438 3 -18.637079238891602
v 2.1681208610534668 0 -18.637079238891602
v 2.1681208610534668 3 -18.637079238891602
v 2.1681208610534668 0 -24.68687629699707
v 2.1681208610534668 3 -24.68687629699707
f 74 76 75 73
f 77 78 76 74
f 79 80 78 77
f 73 75 80 79
f 75 76 78 80
f 74 73 79 77
g Cells::stairs_01
v 39.028118133544922 0 -24.68687629699707
v 39.028118133544922 0 -18.637079238891602
v 39.028118133544922 3 -24.68687629699707
v 39.028118133544922 3 -18.637079238891602
v 62.804660797119141 0 -18.637079238891602
v 62.804660797119141 3 -18.637079238891602
v 62.804660797119141 0 -24.68687629699707
v 62.804660797119141 3 -24.68687629699707
f 82 84 83 81
f 85 86 84 82
f 87 88 86 85
f 81 83 88 87
f 83 84 86 88
f 82 81 87 85
g Cells::stairs_00
v 3.9181208610534668 0 -18.637079238891602
v 3.9181208610534668 0 -6.6067628860473633
v 3.9181208610534668 3 -18.637079238891602
v 3.9181208610534668 3 -6.6067628860473633
v 12.387041091918945 0 -6.6067628860473633
v 12.387041091918945 3 -6.6067628860473633
v 12.387041091918945 0 -18.637079238891602
v 12.387041091918945 3 -18.637079238891602
f 90 92 91 89
f 93 94 92 90
f 95 96 94 93
f 89 91 96 95
f 91 92 94 96
f 90 89 95 93
g Cells::livingroom_06
v 6.7493510246276855 0 -62.322254180908203
v 6.7493510246276855 0 -40.630828857421875
v 6.7493510246276855 3 -62.322254180908203
v 6.7493510246276855 3 -40.630828857421875
v 26.495328903198242 0 -40.630828857421875
v 26.495328903198242 3 -40.630828857421875
v 26.495328903198242 0 -62.322254180908203
v 26.495328903198242 3 -62.322254180908203
f 98 100 99 97
f 101 102 100 98
f 103 104 102 101
f 97 99 104 103
f 99 100 102 104
f 98 97 103 101
g Cells::livingroom_05
v -60.956172943115234 0 -62.322254180908203
v -60.956172943115234 0 -41.722633361816406
v -60.956172943115234 3 -62.322254180908203
v -60.956172943115234 3 -41.722633361816406
v -41.144401550292969 0 -41.722633361816406
v -41.144401550292969 3 -41.722633361816406
v -41.144401550292969 0 -62.322254180908203
v -41.144401550292969 3 -62.322254180908203
f 106 108 107 105
f 109 110 108 106
f 111 112 110 109
f 105 107 112 111
f 107 108 110 112
f 106 105 111 109
g Cells::livingroom_04
v 91.555030822753906 0 -62.324153900146484
v 91.555030822753906 0 -47.416412353515625
v 91.555030822753906 3 -62.324153900146484
v 91.555030822753906 3 -47.416412353515625
v 115.55201721191406 0 -47.416412353515625
v 115.55201721191406 3 -47.416412353515625
v 115.55201721191406 0 -62.324153900146484
v 115.55201721191406 3 -62.324153900146484
f 114 116 115 113
f 117 118 116 114
f 119 120 118 117
f 113 115 120 119
f 115 116 118 120
f 114 113 119 117
g Cells::livingroom_03
v 91.292976379394531 0 -6.3964719772338867
v 91.292976379394531 0 13.735090255737305
v 91.292976379394531 3 -6.3964719772338867
v 91.292976379394531 3 13.735090255737305
v 115.55201721191406 0 13.735090255737305
v 115.55201721191406 3 13.735090255737305
v 115.55201721191406 0 -6.3964719772338867
v 115.55201721191406 3 -6.3964719772338867
f 122 124 123 121
f 125 126 124 122
f 127 128 126 125
f 121 123 128 127
f 123 124 126 128
f 122 121 127 125
g Cells::livingroom_02
v 50.018325805664062 0 -7.781585693359375
v 50.018325805664062 0 13.735090255737305
v 50.018325805664062 3 -7.781585693359375
v 50.018325805664062 3 13.735090255737305
v 66.673721313476562 0 13.735090255737305
v 66.673721313476562 3 13.735090255737305
v 66.673721313476562 0 -7.781585693359375
v 66.673721313476562 3 -7.781585693359375
f 130 132 131 129
f 133 134 132 130
f 135 136 134 133
f 129 131 136 135
f 131 132 134 136
f 130 129 135 133
g Cells::livingroom_01
v 3.9181208610534668 0 0.7091904878616333
v 3.9181208610534668 0 13.735090255737305
v 3.9181208610534668 3 0.7091904878616333
v 3.9181208610534668 3 13.735090255737305
v 26.928329467773438 0 13.735090255737305
v 26.928329467773438 3 13.735090255737305
v 26.928329467773438 0 0.7091904878616333
v 26.928329467773438 3 0.7091904878616333
f 138 140 139 137
f 141 142 140 138
f 143 144 142 141
f 137 139 144 143
f 139 140 142 144
f 138 137 143 141
g Cells::livingroom_00
v -60.956172943115234 0 -4.8289151191711426
v -60.956172943115234 0 13.735090255737305
v -60.956172943115234 3 -4.8289151191711426
v -60.956172943115234 3 13.735090255737305
v -38.601734161376953 0 13.735090255737305
v -38.601734161376953 3 13.735090255737305
v -38.601734161376953 0 -4.8289151191711426
v -38.601734161376953 3 -4.8289151191711426
f 146 148 147 145
f 149 150 148 146
f 151 152 150 149
f 145 147 152 151
f 147 148 150 152
f 146 145 151 149
g Cells::kitchen_06
v 81.50433349609375 0 -62.324153900146484
v 81.50433349609375 0 -47.416412353515625
v 81.50433349609375 3 -62.324153900146484
v 81.50433349609375 3 -47.416412353515625
v 91.555030822753906 0 -47.416412353515625
v 91.555030822753906 3 -47.416412353515625
v 91.555030822753906 0 -62.324153900146484
v 91.555030822753906 3 -62.324153900146484
f 154 156 155 153
f 157 158 156 154
f 159 160 158 157
f 153 155 160 159
f 155 156 158 160
f 154 153 159 157
g Cells::kitchen_05
v -38.601734161376953 0 -4.8289151191711426
v -38.601734161376953 0 13.735090255737305
v -38.601734161376953 3 -4.8289151191711426
v -38.601734161376953 3 13.735090255737305
v -24.463459014892578 0 13.735090255737305
v -24.463459014892578 3 13.735090255737305
v -24.463459014892578 0 -4.8289151191711426
v -24.463459014892578 3 -4.8289151191711426
f 162 164 163 161
f 165 166 164 162
f 167 168 166 165
f 161 163 168 167
f 163 164 166 168
f 162 161 167 165
g Cells::kitchen_04
v 78.688003540039062 0 -7.781585693359375
v 78.688003540039062 0 13.735090255737305
v 78.688003540039062 3 -7.781585693359375
v 78.688003540039062 3 13.735090255737305
v 91.292976379394531 0 13.735090255737305
v 91.292976379394531 3 13.735090255737305
v 91.292976379394531 0 -7.781585693359375
v 91.292976379394531 3 -7.781585693359375
f 170 172 171 169
f 173 174 172 170
f 175 176 174 173
f 169 171 176 175
f 171 172 174 176
f 170 169 175 173
g Cells::kitchen_03
v -60.956172943115234 0 -41.722633361816406
v -60.956172943115234 0 -30.117837905883789
v -60.956172943115234 3 -41.722633361816406
v -60.956172943115234 3 -30.117837905883789
v -38.860309600830078 0 -30.117837905883789
v -38.860309600830078 3 -30.117837905883789
v -38.860309600830078 0 -41.722633361816406
v -38.860309600830078 3 -41.722633361816406
f 178 180 179 177
f 181 182 180 178
f 183 184 182 181
f 177 179 184 183
f 179 180 182 184
f 178 177 183 181
g Cells::kitchen_02
v 50.018325805664062 0 -18.637079238891602
v 50.018325805664062 0 -7.781585693359375
v 50.018325805664062 3 -18.637079238891602
v 50.018325805664062 3 -7.781585693359375
v 70.750205993652344 0 -7.781585693359375
v 70.750205993652344 3 -7.781585693359375
v 70.750205993652344 0 -18.637079238891602
v 70.750205993652344 3 -18.637079238891602
f 186 188 187 185
f 189 190 188 186
f 191 192 190 189
f 185 187 192 191
f 187 188 190 192
f 186 185 191 189
g Cells::kitchen_01
v 6.7493510246276855 0 -40.630828857421875
v 6.75 0 -30.117837905883789
v 6.7493510246276855 3 -40.630828857421875
v 6.75 3 -30.117837905883789
v 20.965229034423828 0 -30.117837905883789
v 20.965229034423828 3 -30.117837905883789
v 20.965229034423828 0 -40.630828857421875
v 20.965229034423828 3 -40.630828857421875
f 194 196 195 193
f 197 198 196 194
f 199 200 198 197
f 193 195 200 199
f 200 195 196 198
f 193 199 197 194
g Cells::kitchen_00
v 3.9181208610534668 0 -6.6067628860473633
v 3.9181208610534668 0 0.7091904878616333
v 3.9181208610534668 3 -6.6067628860473633
v 3.9181208610534668 3 0.7091904878616333
v 26.928329467773438 0 0.7091904878616333
v 26.928329467773438 3 0.7091904878616333
v 26.928329467773438 0 -6.6067628860473633
v 26.928329467773438 3 -6.6067628860473633
f 202 204 203 201
f 205 206 204 202
f 207 208 206 205
f 201 203 208 207
f 203 204 206 208
f 202 201 207 205
g Cells::corridor_10
v 91.055030822753906 0 -40.877998352050781
v 91.055030822753906 0 -25.268569946289062
v 91.055030822753906 3 -40.877998352050781
v 91.055030822753906 3 -25.268569946289062
v 96.552574157714844 0 -25.268569946289062
v 96.552574157714844 3 -25.268569946289062
v 96.552574157714844 0 -33.019058227539062
v 96.552574157714844 3 -33.019058227539062
v 98.931221008300781 0 -33.019058227539062
v 98.931221008300781 3 -33.019058227539062
v 98.931221008300781 0 -40.877998352050781
v 98.931221008300781 3 -40.877998352050781
f 211 212 214 216 218 220
f 210 209 219 217 215 213
f 210 212 211 209
f 213 214 212 210
f 215 216 214 213
f 217 218 216 215
f 219 220 218 217
f 209 211 220 219
g Cells::corridor_09
v 67.691787719726562 0 -47.416412353515625
v 67.691787719726562 0 -40.877998352050781
v 67.691787719726562 3 -47.416412353515625
v 67.691787719726562 3 -40.877998352050781
v 98.931221008300781 0 -40.877998352050781
v 98.931221008300781 3 -40.877998352050781
v 98.931221008300781 0 -47.416412353515625
v 98.931221008300781 3 -47.416412353515625
f 222 224 223 221
f 225 226 224 222
f 227 228 226 225
f 221 223 228 227
f 223 224 226 228
f 222 221 227 225
g Cells::corridor_08
v 71.902458190917969 0 -40.877998352050781
v 71.902458190917969 0 -30.117837905883789
v 71.902458190917969 3 -40.877998352050781
v 71.902458190917969 3 -30.117837905883789
v 78.688003540039062 0 -30.117837905883789
v 78.688003540039062 3 -30.117837905883789
v 78.688003540039062 0 -40.877998352050781
v 78.688003540039062 3 -40.877998352050781
f 230 232 231 229
f 233 234 232 230
f 235 236 234 233
f 229 231 236 235
f 231 232 234 236
f 230 229 235 233
g Cells::corridor_07
v 96.552574157714844 0 -25.268569946289062
v 96.552574157714844 0 -6.3964719772338867
v 96.552574157714844 3 -25.268569946289062
v 96.552574157714844 3 -6.3964719772338867
v 91.292976379394531 0 -6.3964719772338867
v 91.292976379394531 3 -6.3964719772338867
v 91.292976379394531 0 -18.107887268066406
v 91.292976379394531 3 -18.107887268066406
v 78.688003540039062 0 -18.107887268066406
v 78.688003540039062 3 -18.107887268066406
v 78.688003540039062 0 -25.268569946289062
v 78.688003540039062 3 -25.268569946289062
f 246 244 242 240 239 248
f 243 245 247 237 238 241
f 238 237 239 240
f 241 238 240 242
f 243 241 242 244
f 245 243 244 246
f 247 245 246 248
f 237 247 248 239
g Cells::corridor_06
v 70.750205993652344 0 -18.637079238891602
v 70.750205993652344 0 -7.781585693359375
v 70.750205993652344 3 -18.637079238891602
v 70.750205993652344 3 -7.781585693359375
v 78.688003540039062 0 -7.781585693359375
v 78.688003540039062 3 -7.781585693359375
v 78.688003540039062 0 -18.637079238891602
v 78.688003540039062 3 -18.637079238891602
f 250 252 251 249
f 253 254 252 250
f 255 256 254 253
f 249 251 256 255
f 251 252 254 256
f 250 249 255 253
g Cells::corridor_05
v 78.688003540039062 0 -30.117837905883789
v 78.688003540039062 0 -18.637079238891602
v 78.688003540039062 3 -30.117837905883789
v 78.688003540039062 3 -18.637079238891602
v 62.804660797119141 0 -18.637079238891602
v 62.804660797119141 3 -18.637079238891602
v 62.804660797119141 0 -24.68687629699707
v 62.804660797119141 3 -24.68687629699707
v 39.028118133544922 0 -24.68687629699707
v 39.028118133544922 3 -24.68687629699707
v 39.028118133544922 0 -18.637079238891602
v 39.028118133544922 3 -18.637079238891602
v 2.1681208610534668 0 -18.637079238891602
v 2.1681208610534668 3 -18.637079238891602
v 2.1681208610534668 0 -24.68687629699707
v 2.1681208610534668 3 -24.68687629699707
v -18.069686889648438 0 -24.68687629699707
v -18.069686889648438 3 -24.68687629699707
v -18.069686889648438 0 -18.637079238891602
v -18.069686889648438 3 -18.637079238891602
v -24.463459014892578 0 -18.637079238891602
v -24.463459014892578 3 -18.637079238891602
v -24.463459014892578 0 -30.117837905883789
v -24.463459014892578 3 -30.117837905883789
f 274 272 270 268 266 264 262 260 259 280 278 276
f 273 275 277 279 257 258 261 263 265 267 269 271
f 258 257 259 260
f 261 258 260 262
f 263 261 262 264
f 265 263 264 266
f 267 265 266 268
f 269 267 268 270
f 271 269 270 272
f 273 271 272 274
f 275 273 274 276
f 277 275 276 278
f 279 277 278 280
f 257 279 280 259
g Cells::corridor_04
v 20.293128967285156 0 -18.637079238891602
v 20.293128967285156 0 -6.6067628860473633
v 20.293128967285156 3 -18.637079238891602
v 20.293128967285156 3 -6.6067628860473633
v 26.928329467773438 0 -6.6067628860473633
v 26.928329467773438 3 -6.6067628860473633
v 26.928329467773438 0 -18.637079238891602
v 26.928329467773438 3 -18.637079238891602
f 282 284 283 281
f 285 286 284 282
f 287 288 286 285
f 281 283 288 287
f 283 284 286 288
f 282 281 287 285
g Cells::corridor_03
v 20.964580535888672 0 -40.630828857421875
v 20.964580535888672 0 -30.117837905883789
v 20.964580535888672 3 -40.630828857421875
v 20.964580535888672 3 -30.117837905883789
v 33.072074890136719 0 -30.117837905883789
v 33.072074890136719 3 -30.117837905883789
v 33.072074890136719 0 -40.630828857421875
v 33.072074890136719 3 -40.630828857421875
f 290 292 291 289
f 293 294 292 290
f 295 296 294 293
f 289 291 296 295
f 291 292 294 296
f 290 289 295 293
g Cells::corridor_02
v -24.463459014892578 0 -41.722633361816406
v -24.463459014892578 0 -30.117837905883789
v -24.463459014892578 3 -41.722633361816406
v -24.463459014892578 3 -30.117837905883789
v -16.458881378173828 0 -30.117837905883789
v -16.458881378173828 3 -30.117837905883789
v -16.458881378173828 0 -41.722633361816406
v -16.458881378173828 3 -41.722633361816406
f 298 300 299 297
f 301 302 300 298
f 303 304 302 301
f 297 299 304 303
f 299 300 302 304
f 298 297 303 301
g Cells::corridor_01
v -41.144401550292969 0 -46.734287261962891
v -41.144401550292969 0 -41.722633361816406
v -41.144401550292969 3 -46.734287261962891
v -41.144401550292969 3 -41.722633361816406
v -16.458881378173828 0 -41.722633361816406
v -16.458881378173828 3 -41.722633361816406
v -16.458881378173828 0 -46.734287261962891
v -16.458881378173828 3 -46.734287261962891
f 306 308 307 305
f 309 310 308 306
f 311 312 310 309
f 305 307 312 311
f 307 308 310 312
f 306 305 311 309
g Cells::corridor_00
v -38.601734161376953 0 -4.8289151191711426
v -43.861721038818359 0 -4.8289151191711426
v -38.601734161376953 3 -4.8289151191711426
v -43.861721038818359 3 -4.8289151191711426
v -43.861721038818359 0 -30.117837905883789
v -43.861721038818359 3 -30.117837905883789
v -24.463459014892578 0 -30.117837905883789
v -24.463459014892578 3 -30.117837905883789
v -24.463459014892578 0 -21.215681076049805
v -24.463459014892578 3 -21.215681076049805
v -38.601734161376953 0 -21.215681076049805
v -38.601734161376953 3 -21.215681076049805
f 318 316 315 324 322 320
f 314 317 319 321 323 313
f 314 313 315 316
f 317 314 316 318
f 319 317 318 320
f 321 319 320 322
f 323 321 322 324
f 313 323 324 315
g Cells::bedroom_14
v 26.495328903198242 0 -62.322254180908203
v 26.495328903198242 0 -51.05474853515625
v 26.495328903198242 3 -62.322254180908203
v 26.495328903198242 3 -51.05474853515625
v 37.457450866699219 0 -51.05474853515625
v 37.457450866699219 3 -51.05474853515625
v 37.457450866699219 0 -62.322254180908203
v 37.457450866699219 3 -62.322254180908203
f 326 328 327 325
f 329 330 328 326
f 331 332 330 329
f 325 327 332 331
f 327 328 330 332
f 326 325 331 329
g Cells::bedroom_13
v -4.8475861549377441 0 -62.322254180908203
v -4.8475861549377441 0 -40.630828857421875
v -4.8475861549377441 3 -62.322254180908203
v -4.8475861549377441 3 -40.630828857421875
v 6.7493510246276855 0 -40.630828857421875
v 6.7493510246276855 3 -40.630828857421875
v 6.7493510246276855 0 -62.322254180908203
v 6.7493510246276855 3 -62.322254180908203
f 334 336 335 333
f 337 338 336 334
f 339 340 338 337
f 333 335 340 339
f 335 336 338 340
f 334 333 339 337
g Cells::bedroom_12
v -4.8475861549377441 0 -62.322254180908203
v -18.718111038208008 0 -62.322254180908203
v -4.8475861549377441 3 -62.322254180908203
v -18.718111038208008 3 -62.322254180908203
v -18.718111038208008 0 -46.734287261962891
v -18.718111038208008 3 -46.734287261962891
v -16.458881378173828 0 -46.734287261962891
v -16.458881378173828 3 -46.734287261962891
v -16.458881378173828 0 -40.630828857421875
v -16.458881378173828 3 -40.630828857421875
v -4.8475861549377441 0 -40.630828857421875
v -4.8475861549377441 3 -40.630828857421875
f 346 348 350 352 343 344
f 345 342 341 351 349 347
f 342 344 343 341
f 345 346 344 342
f 347 348 346 345
f 349 350 348 347
f 351 352 350 349
f 341 343 352 351
g Cells::bedroom_11
v -29.985727310180664 0 -62.322254180908203
v -29.985727310180664 0 -46.734287261962891
v -29.985727310180664 3 -62.322254180908203
v -29.985727310180664 3 -46.734287261962891
v -18.718111038208008 0 -46.734287261962891
v -18.718111038208008 3 -46.734287261962891
v -18.718111038208008 0 -62.322254180908203
v -18.718111038208008 3 -62.322254180908203
f 354 356 355 353
f 357 358 356 354
f 359 360 358 357
f 353 355 360 359
f 355 356 358 360
f 354 353 359 357
g Cells::bedroom_10
v -41.144401550292969 0 -62.322254180908203
v -41.144401550292969 0 -46.734287261962891
v -41.144401550292969 3 -62.322254180908203
v -41.144401550292969 3 -46.734287261962891
v -29.985727310180664 0 -46.734287261962891
v -29.985727310180664 3 -46.734287261962891
v -29.985727310180664 0 -62.322254180908203
v -29.985727310180664 3 -62.322254180908203
f 362 364 363 361
f 365 366 364 362
f 367 368 366 365
f 361 363 368 367
f 363 364 366 368
f 362 361 367 365
g Cells::bedroom_09
v 67.691787719726562 0 -62.324153900146484
v 67.691787719726562 0 -47.416412353515625
v 67.691787719726562 3 -62.324153900146484
v 67.691787719726562 3 -47.416412353515625
v 81.50433349609375 0 -47.416412353515625
v 81.50433349609375 3 -47.416412353515625
v 81.50433349609375 0 -62.324153900146484
v 81.50433349609375 3 -62.324153900146484
f 370 372 371 369
f 373 374 372 370
f 375 376 374 373
f 369 371 376 375
f 371 372 374 376
f 370 369 375 373
g Cells::bedroom_08
v 98.931221008300781 0 -47.416412353515625
v 98.931221008300781 0 -33.019058227539062
v 98.931221008300781 3 -47.416412353515625
v 98.931221008300781 3 -33.019058227539062
v 115.55201721191406 0 -33.019058227539062
v 115.55201721191406 3 -33.019058227539062
v 115.55201721191406 0 -47.416412353515625
v 115.55201721191406 3 -47.416412353515625
f 378 380 379 377
f 381 382 380 378
f 383 384 382 381
f 377 379 384 383
f 379 380 382 384
f 378 377 383 381
g Cells::bedroom_07
v 96.552574157714844 0 -33.019058227539062
v 96.552574157714844 0 -19.561904907226562
v 96.552574157714844 3 -33.019058227539062
v 96.552574157714844 3 -19.561904907226562
v 115.55201721191406 0 -19.561904907226562
v 115.55201721191406 3 -19.561904907226562
v 115.55201721191406 0 -33.019058227539062
v 115.55201721191406 3 -33.019058227539062
f 386 388 387 385
f 389 390 388 386
f 391 392 390 389
f 385 387 392 391
f 387 388 390 392
f 386 385 391 389
g Cells::bedroom_06
v 96.552574157714844 0 -19.561904907226562
v 96.552574157714844 0 -6.3964719772338867
v 96.552574157714844 3 -19.561904907226562
v 96.552574157714844 3 -6.3964719772338867
v 115.55201721191406 0 -6.3964719772338867
v 115.55201721191406 3 -6.3964719772338867
v 115.55201721191406 0 -19.561904907226562
v 115.55201721191406 3 -19.561904907226562
f 394 396 395 393
f 397 398 396 394
f 399 400 398 397
f 393 395 400 399
f 395 396 398 400
f 394 393 399 397
g Cells::bedroom_05
v 66.673721313476562 0 -7.781585693359375
v 66.673721313476562 0 13.735090255737305
v 66.673721313476562 3 -7.781585693359375
v 66.673721313476562 3 13.735090255737305
v 78.688003540039062 0 13.735090255737305
v 78.688003540039062 3 13.735090255737305
v 78.688003540039062 0 -7.781585693359375
v 78.688003540039062 3 -7.781585693359375
f 402 404 403 401
f 405 406 404 402
f 407 408 406 405
f 401 403 408 407
f 403 404 406 408
f 402 401 407 405
g Cells::bedroom_04
v 38.502140045166016 0 -7.781585693359375
v 38.502140045166016 0 13.735090255737305
v 38.502140045166016 3 -7.781585693359375
v 38.502140045166016 3 13.735090255737305
v 50.018325805664062 0 13.735090255737305
v 50.018325805664062 3 13.735090255737305
v 50.018325805664062 0 -7.781585693359375
v 50.018325805664062 3 -7.781585693359375
f 410 412 411 409
f 413 414 412 410
f 415 416 414 413
f 409 411 416 415
f 411 412 414 416
f 410 409 415 413
g Cells::bedroom_03
v 26.928329467773438 0 -7.781585693359375
v 26.928329467773438 0 13.735090255737305
v 26.928329467773438 3 -7.781585693359375
v 26.928329467773438 3 13.735090255737305
v 38.502140045166016 0 13.735090255737305
v 38.502140045166016 3 13.735090255737305
v 38.502140045166016 0 -7.781585693359375
v 38.502140045166016 3 -7.781585693359375
f 418 420 419 417
f 421 422 420 418
f 423 424 422 421
f 417 419 424 423
f 419 420 422 424
f 418 417 423 421
g Cells::bedroom_02
v -60.956172943115234 0 -30.117837905883789
v -60.956172943115234 0 -16.444250106811523
v -60.956172943115234 3 -30.117837905883789
v -60.956172943115234 3 -16.444250106811523
v -43.861721038818359 0 -16.444250106811523
v -43.861721038818359 3 -16.444250106811523
v -43.861721038818359 0 -30.117837905883789
v -43.861721038818359 3 -30.117837905883789
f 426 428 427 425
f 429 430 428 426
f 431 432 430 429
f 425 427 432 431
f 427 428 430 432
f 426 425 431 429
g Cells::bedroom_01
v -60.956172943115234 0 -16.444250106811523
v -60.956172943115234 0 -4.8289151191711426
v -60.956172943115234 3 -16.444250106811523
v -60.956172943115234 3 -4.8289151191711426
v -43.861721038818359 0 -4.8289151191711426
v -43.861721038818359 3 -4.8289151191711426
v -43.861721038818359 0 -16.444250106811523
v -43.861721038818359 3 -16.444250106811523
f 434 436 435 433
f 437 438 436 434
f 439 440 438 437
f 433 435 440 439
f 435 436 438 440
f 434 433 439 437
g Cells::bedroom_00
v 26.495328903198242 0 -51.05474853515625
v 26.495328903198242 0 -40.630828857421875
v 26.495328903198242 3 -51.05474853515625
v 26.495328903198242 3 -40.630828857421875
v 37.457450866699219 0 -40.630828857421875
v 37.457450866699219 3 -40.630828857421875
v 37.457450866699219 0 -51.05474853515625
v 37.457450866699219 3 -51.05474853515625
f 442 444 443 441
f 445 446 444 442
f 447 448 446 445
f 441 443 448 447
f 443 444 446 448
f 442 441 447 445
g Cells::bath_06
v 78.688003540039062 0 -32.748313903808594
v 78.688003540039062 0 -25.268569946289062
v 78.688003540039062 3 -32.748313903808594
v 78.688003540039062 3 -25.268569946289062
v 91.055030822753906 0 -25.268569946289062
v 91.055030822753906 3 -25.268569946289062
v 91.055030822753906 0 -32.748313903808594
v 91.055030822753906 3 -32.748313903808594
f 450 452 451 449
f 453 454 452 450
f 455 456 454 453
f 449 451 456 455
f 451 452 454 456
f 450 449 455 453
g Cells::bath_05
v 78.688003540039062 0 -18.107887268066406
v 78.688003540039062 0 -7.781585693359375
v 78.688003540039062 3 -18.107887268066406
v 78.688003540039062 3 -7.781585693359375
v 86.894737243652344 0 -7.781585693359375
v 86.894737243652344 3 -7.781585693359375
v 86.894737243652344 0 -18.107887268066406
v 86.894737243652344 3 -18.107887268066406
f 458 460 459 457
f 461 462 460 458
f 463 464 462 461
f 457 459 464 463
f 459 460 462 464
f 458 457 463 461
g Cells::bath_04
v 38.502140045166016 0 -18.637079238891602
v 38.502140045166016 0 -7.781585693359375
v 38.502140045166016 3 -18.637079238891602
v 38.502140045166016 3 -7.781585693359375
v 50.018325805664062 0 -7.781585693359375
v 50.018325805664062 3 -7.781585693359375
v 50.018325805664062 0 -18.637079238891602
v 50.018325805664062 3 -18.637079238891602
f 466 468 467 465
f 469 470 468 466
f 471 472 470 469
f 465 467 472 471
f 467 468 470 472
f 466 465 471 469
g Cells::bath_03
v 26.928329467773438 0 -18.637079238891602
v 26.928329467773438 0 -7.781585693359375
v 26.928329467773438 3 -18.637079238891602
v 26.928329467773438 3 -7.781585693359375
v 38.502140045166016 0 -7.781585693359375
v 38.502140045166016 3 -7.781585693359375
v 38.502140045166016 0 -18.637079238891602
v 38.502140045166016 3 -18.637079238891602
f 474 476 475 473
f 477 478 476 474
f 479 480 478 477
f 473 475 480 479
f 475 476 478 480
f 474 473 479 477
g Cells::bath_02
v -4.8475861549377441 0 -40.630828857421875
v -4.8475861549377441 0 -30.117837905883789
v -4.8475861549377441 3 -40.630828857421875
v -4.8475861549377441 3 -30.117837905883789
v 6.7493510246276855 0 -30.117837905883789
v 6.7493510246276855 3 -30.117837905883789
v 6.7493510246276855 0 -40.630828857421875
v 6.7493510246276855 3 -40.630828857421875
f 482 484 483 481
f 485 486 484 482
f 487 488 486 485
f 481 483 488 487
f 483 484 486 488
f 482 481 487 485
g Cells::bath_01
v -16.458881378173828 0 -40.630828857421875
v -16.458881378173828 0 -30.117837905883789
v -16.458881378173828 3 -40.630828857421875
v -16.458881378173828 3 -30.117837905883789
v -4.8475861549377441 0 -30.117837905883789
v -4.8475861549377441 3 -30.117837905883789
v -4.8475861549377441 0 -40.630828857421875
v -4.8475861549377441 3 -40.630828857421875
f 490 492 491 489
f 493 494 492 490
f 495 496 494 493
f 489 491 496 495
f 491 492 494 496
f 490 489 495 493
g Cells::bath_00
v -24.463459014892578 0 -21.215681076049805
v -38.601734161376953 0 -21.215681076049805
v -24.463459014892578 3 -21.215681076049805
v -38.601734161376953 3 -21.215681076049805
v -38.601734161376953 0 -17.684419631958008
v -38.601734161376953 3 -17.684419631958008
v -34.3311767578125 0 -17.684419631958008
v -34.3311767578125 3 -17.684419631958008
v -34.3311767578125 0 -10.526923179626465
v -34.3311767578125 3 -10.526923179626465
v -24.463459014892578 0 -10.526923179626465
v -24.463459014892578 3 -10.526923179626465
f 500 502 504 506 508 499
f 501 498 497 507 505 503
f 498 500 499 497
f 501 502 500 498
f 503 504 502 501
f 505 506 504 503
f 507 508 506 505
f 497 499 508 507
g Cells::balcony_08
v -60.956172943115234 0 -71.417137145996094
v -60.956172943115234 0 -62.322254180908203
v -60.956172943115234 3 -71.417137145996094
v -60.956172943115234 3 -62.322254180908203
v -29.985727310180664 0 -62.322254180908203
v -29.985727310180664 3 -62.322254180908203
v -29.985727310180664 0 -71.417137145996094
v -29.985727310180664 3 -71.417137145996094
f 510 512 511 509
f 513 514 512 510
f 515 516 514 513
f 509 511 516 515
f 511 512 514 516
f 510 509 515 513
g Cells::balcony_07
v -5.4373178482055664 0 -71.417144775390625
v -5.4373178482055664 0 -62.322254180908203
v -5.4373178482055664 3 -71.417144775390625
v -5.4373178482055664 3 -62.322254180908203
v 26.679544448852539 0 -62.322254180908203
v 26.679544448852539 3 -62.322254180908203
v 26.679544448852539 0 -71.417144775390625
v 26.679544448852539 3 -71.417144775390625
f 518 520 519 517
f 521 522 520 518
f 523 524 522 521
f 517 519 524 523
f 519 520 522 524
f 518 517 523 521
g Cells::balcony_06
v 78.7027587890625 0 -71.417137145996094
v 78.7027587890625 0 -62.324153900146484
v 78.7027587890625 3 -71.417137145996094
v 78.7027587890625 3 -62.324153900146484
v 115.55201721191406 0 -62.324153900146484
v 115.55201721191406 3 -62.324153900146484
v 115.55201721191406 0 -71.417137145996094
v 115.55201721191406 3 -71.417137145996094
f 526 528 527 525
f 529 530 528 526
f 531 532 530 529
f 525 527 532 531
f 527 528 530 532
f 526 525 531 529
g Cells::balcony_05
v 78.117469787597656 0 22.902870178222656
v 78.117469787597656 0 13.735090255737305
v 78.117469787597656 3 22.902870178222656
v 78.117469787597656 3 13.735090255737305
v 115.55201721191406 0 13.735090255737305
v 115.55201721191406 3 13.735090255737305
v 115.55201721191406 0 -1.5975800752639771
v 115.55201721191406 3 -1.5975800752639771
v 124.52848052978516 0 -1.5975800752639771
v 124.52848052978516 3 -1.5975800752639771
v 124.52848052978516 0 22.902870178222656
v 124.52848052978516 3 22.902870178222656
f 538 536 535 544 542 540
f 534 537 539 541 543 533
f 534 533 535 536
f 537 534 536 538
f 539 537 538 540
f 541 539 540 542
f 543 541 542 544
f 533 543 544 535
g Cells::balcony_04
v 115.55201721191406 0 -56.512943267822266
v 115.55201721191406 0 -32.4466552734375
v 115.55201721191406 3 -56.512943267822266
v 115.55201721191406 3 -32.4466552734375
v 124.53044891357422 0 -32.4466552734375
v 124.53044891357422 3 -32.4466552734375
v 124.53044891357422 0 -56.512943267822266
v 124.53044891357422 3 -56.512943267822266
f 546 548 547 545
f 549 550 548 546
f 551 552 550 549
f 545 547 552 551
f 547 548 550 552
f 546 545 551 549
g Cells::balcony_03
v 41.796146392822266 0 13.735090255737305
v 41.796146392822266 0 22.867763519287109
v 41.796146392822266 3 13.735090255737305
v 41.796146392822266 3 22.867763519287109
v 74.547538757324219 0 22.867763519287109
v 74.547538757324219 3 22.867763519287109
v 74.547538757324219 0 13.735090255737305
v 74.547538757324219 3 13.735090255737305
f 554 556 555 553
f 557 558 556 554
f 559 560 558 557
f 553 555 560 559
f 555 556 558 560
f 554 553 559 557
g Cells::balcony_02
v 11.726085662841797 0 13.735090255737305
v 11.726085662841797 0 22.903055191040039
v 11.726085662841797 3 13.735090255737305
v 11.726085662841797 3 22.903055191040039
v 39.037826538085938 0 22.903055191040039
v 39.037826538085938 3 22.903055191040039
v 39.037826538085938 0 13.735090255737305
v 39.037826538085938 3 13.735090255737305
f 562 564 563 561
f 565 566 564 562
f 567 568 566 565
f 561 563 568 567
f 563 564 566 568
f 562 561 567 565
g Cells::balcony_01
v -69.931381225585938 0 -54.969482421875
v -69.931381225585938 0 -4.8289151191711426
v -69.931381225585938 3 -54.969482421875
v -69.931381225585938 3 -4.8289151191711426
v -60.956172943115234 0 -4.8289151191711426
v -60.956172943115234 3 -4.8289151191711426
v -60.956172943115234 0 -54.969482421875
v -60.956172943115234 3 -54.969482421875
f 570 572 571 569
f 573 574 572 570
f 575 576 574 573
f 569 571 576 575
f 571 572 574 576
f 570 569 575 573
g Cells::balcony_00
v -60.956172943115234 0 13.735090255737305
v -60.956172943115234 0 22.867259979248047
v -60.956172943115234 3 13.735090255737305
v -60.956172943115234 3 22.867259979248047
v -36.504318237304688 0 22.867259979248047
v -36.504318237304688 3 22.867259979248047
v -36.504318237304688 0 13.735090255737305
v -36.504318237304688 3 13.735090255737305
f 578 580 579 577
f 581 582 580 578
f 583 584 582 581
f 577 579 584 583
f 579 580 582 584
f 578 577 583 581
