# Rhino

v 13310 3000 760
v 13310 6000 760
v 10310 3000 760
v 10310 6000 760
vt 0 0
vt 0 1
vt 1 0
vt 1 1
vn 0 0 -1
vn 0 0 -1
vn 0 0 -1
vn 0 0 -1
f 4/4/4 2/2/2 1/1/1 3/3/3
v 13310 0 760
v 13310 3000 760
v 10310 0 760
v 10310 3000 760
vt 0 0
vt 0 1
vt 1 0
vt 1 1
vn 0 0 1
vn 0 0 1
vn 0 0 1
vn 0 0 1
f 8/8/8 7/7/7 5/5/5 6/6/6
v 10310 0 760
v 10310 3000 760
v 10310 0 -740
v 10310 3000 -740
vt 0 0
vt 0 1
vt 1 0
vt 1 1
vn 1 0 0
vn 1 0 0
vn 1 0 0
vn 1 0 0
f 12/12/12 10/10/10 9/9/9 11/11/11
v 10310 3000 760
v 10310 6000 760
v 10310 3000 -740
v 10310 6000 -740
vt 0 0
vt 0 1
vt 1 0
vt 1 1
vn 1 0 0
vn 1 0 0
vn 1 0 0
vn 1 0 0
f 16/16/16 14/14/14 13/13/13 15/15/15
v 13310 3000 3760
v 13310 6000 3760
v 10310 3000 3760
v 10310 6000 3760
v 11810 6000 3760
v 16310 3000 760
v 16310 6000 760
v 16310 3000 1961.9864501953125
v 16310 6000 1961.9864501953125
v 16310 4500 760
v 16310 6000 3760
v 10310 6000 3760
v 16310 6000 760
v 10310 6000 760
v 11810 6000 3760
v 13310 6000 3760
v 13310 6000 760
v 10310 6000 2260
v 16310 6000 1961.9864501953125
v 14810 6000 760
v 16310 3000 760
v 16310 6000 760
v 13310 3000 760
v 13310 6000 760
v 16310 4500 760
v 14810 6000 760
vt 0.41508689522743225 0.41655173897743225
vt 0 0.41655173897743225
vt 0.41508689522743225 0.8316386342048645
vt 0 0.8316386342048645
vt 0 0.62409520149230957
vt 0.41655173897743225 0
vt 0.41655173897743225 0.41655173897743225
vt 0.58198338747024536 0
vt 0.58198338747024536 0.41655173897743225
vt 0.41655173897743225 0.20827586948871613
vt 0.58344823122024536 0
vt 0.58344823122024536 0.8316386342048645
vt 0.99853515625 0
vt 0.99853515625 0.8316386342048645
vt 0.58344823122024536 0.62372899055480957
vt 0.58344823122024536 0.41581931710243225
vt 0.99853515625 0.41581931710243225
vt 0.79099172353744507 0.8316386342048645
vt 0.83222556114196777 0
vt 0.99853515625 0.20790965855121613
vt 0.41508689522743225 0
vt 0 0
vt 0.41508689522743225 0.41508689522743225
vt 0 0.41508689522743225
vt 0.20754344761371613 0
vt 0 0.20754344761371613
vn 0 0 1
vn 0 0 1
vn 0 0 1
vn 0 0 1
vn 0 0 1
vn 1 0 0
vn 1 0 0
vn 1 0 0
vn 1 0 0
vn 1 0 0
vn 0 1 0
vn 0 1 0
vn 0 1 0
vn 0 1 0
vn 0 1 0
vn 0 1 0
vn 0 1 0
vn 0 1 0
vn 0 1 0
vn 0 1 0
vn 0 0 -1
vn 0 0 -1
vn 0 0 -1
vn 0 0 -1
vn 0 0 -1
vn 0 0 -1
f 21/21/21 17/17/17 18/18/18
f 20/20/20 19/19/19 21/21/21
f 17/17/17 21/21/21 19/19/19
f 24/24/24 22/22/22 26/26/26
f 23/23/23 25/25/25 26/26/26
f 24/24/24 26/26/26 25/25/25
f 33/33/33 34/34/34 32/32/32
f 28/28/28 31/31/31 34/34/34
f 32/32/32 34/34/34 31/31/31
f 35/35/35 32/32/32 27/27/27
f 36/36/36 35/35/35 29/29/29
f 35/35/35 36/36/36 33/33/33
f 33/33/33 30/30/30 34/34/34
f 35/35/35 33/33/33 32/32/32
f 39/39/39 41/41/41 37/37/37
f 42/42/42 38/38/38 41/41/41
f 40/40/40 42/42/42 39/39/39
f 41/41/41 39/39/39 42/42/42
v 16310 3000 3760
v 10310 3000 3760
v 16310 3000 760
v 10310 3000 760
v 10310 3000 2260
v 13310 3000 760
v 13310 3000 3760
v 16310 3000 2260
v 13310 3000 2260
v 10310 3000 760
v 10310 6000 760
v 10310 3000 3760
v 10310 6000 3760
v 10310 3000 2260
vt 0.5 0
vt 0.5 0.99853515625
vt 0.99853515625 0
vt 0.99853515625 0.99853515625
vt 0.749267578125 0.99853515625
vt 0.99853515625 0.499267578125
vt 0.5 0.499267578125
vt 0.749267578125 0
vt 0.749267578125 0.499267578125
vt 0 0
vt 0 0.5
vt 0.49853515625 0
vt 0.49853515625 0.5
vt 0.249267578125 0
vn 0 -1 0
vn 0 -1 0
vn 0 -1 0
vn 0 -1 0
vn 0 -1 0
vn 0 -1 0
vn 0 -1 0
vn 0 -1 0
vn 0 -1 0
vn -1 0 0
vn -1 0 0
vn -1 0 0
vn -1 0 0
vn -1 0 0
f 51/51/51 50/50/50 43/43/43 49/49/49
f 48/48/48 45/45/45 50/50/50 51/51/51
f 44/44/44 47/47/47 51/51/51 49/49/49
f 48/48/48 51/51/51 47/47/47 46/46/46
f 56/56/56 53/53/53 52/52/52
f 55/55/55 56/56/56 54/54/54
f 53/53/53 56/56/56 55/55/55
v 13310 0 3760
v 13310 3000 3760
v 10310 0 3760
v 10310 3000 3760
v 11810 0 3760
v 16310 0 760
v 16310 3000 760
v 16310 0 1961.9864501953125
v 16310 3000 1961.9864501953125
v 16310 1500 760
v 16310 0 3760
v 10310 0 3760
v 16310 0 760
v 10310 0 760
v 11810 0 3760
v 13310 0 3760
v 13310 0 760
v 10310 0 2260
v 16310 0 1961.9864501953125
v 14810 0 760
v 16310 0 760
v 16310 3000 760
v 13310 0 760
v 13310 3000 760
v 16310 1500 760
v 14810 0 760
vt 0.41508689522743225 0.41655173897743225
vt 0 0.41655173897743225
vt 0.41508689522743225 0.8316386342048645
vt 0 0.8316386342048645
vt 0.41508689522743225 0.62409520149230957
vt 0.41655173897743225 0
vt 0.41655173897743225 0.41655173897743225
vt 0.58198338747024536 0
vt 0.58198338747024536 0.41655173897743225
vt 0.41655173897743225 0.20827586948871613
vt 0.58344823122024536 0
vt 0.58344823122024536 0.8316386342048645
vt 0.99853515625 0
vt 0.99853515625 0.8316386342048645
vt 0.58344823122024536 0.62372899055480957
vt 0.58344823122024536 0.41581931710243225
vt 0.99853515625 0.41581931710243225
vt 0.79099172353744507 0.8316386342048645
vt 0.83222556114196777 0
vt 0.99853515625 0.20790965855121613
vt 0.41508689522743225 0
vt 0 0
vt 0.41508689522743225 0.41508689522743225
vt 0 0.41508689522743225
vt 0.20754344761371613 0
vt 0.41508689522743225 0.20754344761371613
vn 0 0 -1
vn 0 0 -1
vn 0 0 -1
vn 0 0 -1
vn 0 0 -1
vn -1 0 0
vn -1 0 0
vn -1 0 0
vn -1 0 0
vn -1 0 0
vn 0 1 0
vn 0 1 0
vn 0 1 0
vn 0 1 0
vn 0 1 0
vn 0 1 0
vn 0 1 0
vn 0 1 0
vn 0 1 0
vn 0 1 0
vn 0 0 1
vn 0 0 1
vn 0 0 1
vn 0 0 1
vn 0 0 1
vn 0 0 1
f 61/61/61 58/58/58 57/57/57
f 60/60/60 61/61/61 59/59/59
f 58/58/58 61/61/61 60/60/60
f 64/64/64 66/66/66 62/62/62
f 63/63/63 66/66/66 65/65/65
f 64/64/64 65/65/65 66/66/66
f 73/73/73 74/74/74 72/72/72
f 68/68/68 71/71/71 74/74/74
f 72/72/72 74/74/74 71/71/71
f 75/75/75 72/72/72 67/67/67
f 76/76/76 75/75/75 69/69/69
f 75/75/75 76/76/76 73/73/73
f 73/73/73 70/70/70 74/74/74
f 75/75/75 73/73/73 72/72/72
f 82/82/82 77/77/77 81/81/81
f 80/80/80 81/81/81 78/78/78
f 80/80/80 79/79/79 82/82/82
f 81/81/81 80/80/80 82/82/82
v 7310 6000 -2240
v 10310 6000 -2240
v 7310 6000 760
v 10310 6000 760
v 8810 6000 -2240
v 10310 6000 -740
v 7310 3000 -2240
v 7310 6000 -2240
v 10310 3000 -2240
v 10310 6000 -2240
v 8810 6000 -2240
v 10310 4500 -2240
v 10310 3000 -740
v 10310 6000 -740
v 10310 3000 -2240
v 10310 6000 -2240
v 10310 4500 -2240
vt 0 0
vt 0 0.5
vt 0.49853515625 0
vt 0.49853515625 0.5
vt 0 0.25
vt 0.249267578125 0.5
vt 0.99853515625 0.25
vt 0.5 0.25
vt 0.99853515625 0.74853515625
vt 0.5 0.74853515625
vt 0.5 0.499267578125
vt 0.749267578125 0.74853515625
vt 0.99853515625 0
vt 0.5 0
vt 0.99853515625 0.24853515625
vt 0.5 0.24853515625
vt 0.749267578125 0.24853515625
vn 0 1 0
vn 0 1 0
vn 0 1 0
vn 0 1 0
vn 0 1 0
vn 0 1 0
vn 0 0 -1
vn 0 0 -1
vn 0 0 -1
vn 0 0 -1
vn 0 0 -1
vn 0 0 -1
vn 1 0 0
vn 1 0 0
vn 1 0 0
vn 1 0 0
vn 1 0 0
f 85/85/85 87/87/87 83/83/83
f 88/88/88 84/84/84 87/87/87
f 86/86/86 88/88/88 85/85/85
f 87/87/87 85/85/85 88/88/88
f 90/90/90 93/93/93 89/89/89
f 94/94/94 89/89/89 93/93/93
f 89/89/89 94/94/94 91/91/91
f 93/93/93 92/92/92 94/94/94
f 99/99/99 96/96/96 95/95/95
f 95/95/95 97/97/97 99/99/99
f 96/96/96 99/99/99 98/98/98
v 7310 3000 760
v 7310 6000 760
v 10310 3000 760
v 10310 6000 760
vt 0 0
vt 0 1
vt 1 0
vt 1 1
vn 0 0 1
vn 0 0 1
vn 0 0 1
vn 0 0 1
f 103/103/103 101/101/101 100/100/100 102/102/102
v 7310 0 -2240
v 10310 0 -2240
v 7310 0 760
v 10310 0 760
v 10310 0 -740
v 10310 0 -740
v 10310 3000 -740
v 10310 0 -2240
v 10310 3000 -2240
vt 0.3333333432674408 0
vt 0.3333333432674408 0.66520184278488159
vt 0.99853515625 0
vt 0.99853515625 0.66520184278488159
vt 0.66593426465988159 0.66520184278488159
vt 0 0
vt 0 0.66520184278488159
vt 0.3318684995174408 0
vt 0.3318684995174408 0.66520184278488159
vn 0 -1 0
vn 0 -1 0
vn 0 -1 0
vn 0 -1 0
vn 0 -1 0
vn 1 0 0
vn 1 0 0
vn 1 0 0
vn 1 0 0
f 108/108/108 104/104/104 105/105/105
f 107/107/107 106/106/106 108/108/108
f 104/104/104 108/108/108 106/106/106
f 110/110/110 109/109/109 111/111/111 112/112/112
v 7310 3000 -2240
v 10310 3000 -2240
v 7310 3000 760
v 10310 3000 760
vt 0 0
vt 0 1
vt 1 0
vt 1 1
vn 0 1 0
vn 0 1 0
vn 0 1 0
vn 0 1 0
f 116/116/116 114/114/114 113/113/113 115/115/115
v 10310 6000 760
v 10310 6000 -740
v 13310 6000 760
v 13310 6000 -740
v 11810 6000 -740
v 13310 0 -740
v 13310 6000 -740
v 10310 0 -740
v 10310 6000 -740
v 11810 6000 -740
v 10310 3000 -740
v 13310 3000 -740
v 11810 0 -740
v 13310 0 760
v 13310 6000 760
v 13310 0 -740
v 13310 6000 -740
v 13310 3000 -740
v 13310 0 760
v 10310 0 760
v 13310 0 -740
v 10310 0 -740
v 11810 0 -740
vt 0.39853516221046448 0
vt 0.20000000298023224 0
vt 0.39853516221046448 0.40000000596046448
vt 0.20000000298023224 0.40000000596046448
vt 0.20000000298023224 0.20000000298023224
vt 0.60000002384185791 0
vt 0.60000002384185791 0.79853516817092896
vt 0.99853515625 0
vt 0.99853515625 0.79853516817092896
vt 0.79926759004592896 0.79853516817092896
vt 0.99853515625 0.39926758408546448
vt 0.60000002384185791 0.39926758408546448
vt 0.79926759004592896 0
vt 0.40000000596046448 0
vt 0.40000000596046448 0.79853516817092896
vt 0.59853518009185791 0
vt 0.59853518009185791 0.79853516817092896
vt 0.59853518009185791 0.39926758408546448
vt 0 0
vt 0 0.40000000596046448
vt 0.19853515923023224 0
vt 0.19853515923023224 0.40000000596046448
vt 0.19853515923023224 0.20000000298023224
vn 0 1 0
vn 0 1 0
vn 0 1 0
vn 0 1 0
vn 0 1 0
vn 0 0 -1
vn 0 0 -1
vn 0 0 -1
vn 0 0 -1
vn 0 0 -1
vn 0 0 -1
vn 0 0 -1
vn 0 0 -1
vn 1 0 0
vn 1 0 0
vn 1 0 0
vn 1 0 0
vn 1 0 0
vn 0 -1 0
vn 0 -1 0
vn 0 -1 0
vn 0 -1 0
vn 0 -1 0
f 121/121/121 118/118/118 117/117/117
f 120/120/120 121/121/121 119/119/119
f 117/117/117 119/119/119 121/121/121
f 128/128/128 122/122/122 129/129/129
f 128/128/128 126/126/126 123/123/123
f 127/127/127 128/128/128 129/129/129
f 128/128/128 127/127/127 126/126/126
f 127/127/127 125/125/125 126/126/126
f 124/124/124 127/127/127 129/129/129
f 134/134/134 131/131/131 130/130/130
f 130/130/130 132/132/132 134/134/134
f 131/131/131 134/134/134 133/133/133
f 139/139/139 135/135/135 136/136/136
f 135/135/135 139/139/139 137/137/137
f 136/136/136 138/138/138 139/139/139
v 7310 6000 760
v 10310 6000 760
v 7310 6000 3760
v 10310 6000 3760
v 8810 6000 3760
v 7310 3000 3760
v 7310 6000 3760
v 10310 3000 3760
v 10310 6000 3760
v 8810 6000 3760
vt 0.5 0
vt 0.5 0.49853515625
vt 0.99853515625 0
vt 0.99853515625 0.49853515625
vt 0.99853515625 0.249267578125
vt 0 0
vt 0 0.49853515625
vt 0.49853515625 0
vt 0.49853515625 0.49853515625
vt 0.249267578125 0.49853515625
vn 0 1 0
vn 0 1 0
vn 0 1 0
vn 0 1 0
vn 0 1 0
vn 0 0 1
vn 0 0 1
vn 0 0 1
vn 0 0 1
vn 0 0 1
f 144/144/144 141/141/141 140/140/140
f 140/140/140 142/142/142 144/144/144
f 141/141/141 144/144/144 143/143/143
f 149/149/149 146/146/146 145/145/145
f 148/148/148 149/149/149 147/147/147
f 145/145/145 147/147/147 149/149/149
v 19310 6000 1961.9864501953125
v 19310 6000 3760
v 16310 6000 1961.9864501953125
v 16310 6000 3760
v 17810 6000 1961.9864501953125
v 19310 3000 1961.9864501953125
v 19310 6000 1961.9864501953125
v 16310 3000 1961.9864501953125
v 16310 6000 1961.9864501953125
v 17810 6000 1961.9864501953125
v 19310 4500 1961.9864501953125
v 19310 3000 1961.9864501953125
v 19310 6000 1961.9864501953125
v 19310 3000 3760
v 19310 6000 3760
v 19310 4500 1961.9864501953125
vt 0.5 0.29966893792152405
vt 0.5 0.5978730320930481
vt 0.99853515625 0.29966893792152405
vt 0.99853515625 0.5978730320930481
vt 0.749267578125 0.29966893792152405
vt 0 0
vt 0 0.5
vt 0.49853515625 0
vt 0.49853515625 0.5
vt 0.249267578125 0.5
vt 0 0.25
vt 0.99853515625 0
vt 0.5 0
vt 0.99853515625 0.29820409417152405
vt 0.5 0.29820409417152405
vt 0.749267578125 0
vn 0 1 0
vn 0 1 0
vn 0 1 0
vn 0 1 0
vn 0 1 0
vn 0 0 -1
vn 0 0 -1
vn 0 0 -1
vn 0 0 -1
vn 0 0 -1
vn 0 0 -1
vn 1 0 0
vn 1 0 0
vn 1 0 0
vn 1 0 0
vn 1 0 0
f 154/154/154 151/151/151 150/150/150
f 153/153/153 154/154/154 152/152/152
f 151/151/151 154/154/154 153/153/153
f 157/157/157 160/160/160 155/155/155
f 159/159/159 156/156/156 160/160/160
f 158/158/158 159/159/159 157/157/157
f 160/160/160 157/157/157 159/159/159
f 163/163/163 161/161/161 165/165/165
f 162/162/162 164/164/164 165/165/165
f 163/163/163 165/165/165 164/164/164
v 16310 6000 3760
v 16310 6000 6760
v 13310 6000 3760
v 13310 6000 6760
v 13310 6000 5260
v 14810 6000 6760
v 13310 3000 6760
v 13310 6000 6760
v 16310 3000 6760
v 16310 6000 6760
v 14810 6000 6760
v 13310 4500 6760
v 13310 3000 3760
v 13310 6000 3760
v 13310 3000 6760
v 13310 6000 6760
v 13310 6000 5260
v 13310 4500 6760
vt 0 0
vt 0 0.5
vt 0.49853515625 0
vt 0.49853515625 0.5
vt 0.49853515625 0.25
vt 0.249267578125 0.5
vt 0.99853515625 0.5
vt 0.5 0.5
vt 0.99853515625 0.99853515625
vt 0.5 0.99853515625
vt 0.5 0.749267578125
vt 0.749267578125 0.5
vt 0.99853515625 0
vt 0.5 0
vt 0.99853515625 0.49853515625
vt 0.5 0.49853515625
vt 0.5 0.249267578125
vt 0.749267578125 0.49853515625
vn 0 1 0
vn 0 1 0
vn 0 1 0
vn 0 1 0
vn 0 1 0
vn 0 1 0
vn 0 0 1
vn 0 0 1
vn 0 0 1
vn 0 0 1
vn 0 0 1
vn 0 0 1
vn -1 0 0
vn -1 0 0
vn -1 0 0
vn -1 0 0
vn -1 0 0
vn -1 0 0
f 167/167/167 166/166/166 171/171/171
f 170/170/170 171/171/171 166/166/166
f 166/166/166 168/168/168 170/170/170
f 171/171/171 170/170/170 169/169/169
f 174/174/174 177/177/177 172/172/172
f 176/176/176 173/173/173 177/177/177
f 175/175/175 176/176/176 174/174/174
f 177/177/177 174/174/174 176/176/176
f 179/179/179 178/178/178 182/182/182
f 183/183/183 182/182/182 178/178/178
f 178/178/178 180/180/180 183/183/183
f 182/182/182 183/183/183 181/181/181
v 19310 6000 3760
v 19310 6000 6760
v 16310 6000 3760
v 16310 6000 6760
v 17810 6000 6760
v 19310 6000 5260
v 16310 3000 6760
v 16310 6000 6760
v 19310 3000 6760
v 19310 6000 6760
v 17810 6000 6760
v 19310 4500 6760
v 19310 3000 3760
v 19310 6000 3760
v 19310 3000 6760
v 19310 6000 6760
v 19310 6000 5260
v 19310 4500 6760
vt 0 0
vt 0 0.5
vt 0.49853515625 0
vt 0.49853515625 0.5
vt 0.249267578125 0.5
vt 0 0.25
vt 0.99853515625 0.5
vt 0.5 0.5
vt 0.99853515625 0.99853515625
vt 0.5 0.99853515625
vt 0.5 0.749267578125
vt 0.749267578125 0.99853515625
vt 0.99853515625 0
vt 0.5 0
vt 0.99853515625 0.49853515625
vt 0.5 0.49853515625
vt 0.5 0.249267578125
vt 0.749267578125 0.49853515625
vn 0 1 0
vn 0 1 0
vn 0 1 0
vn 0 1 0
vn 0 1 0
vn 0 1 0
vn 0 0 1
vn 0 0 1
vn 0 0 1
vn 0 0 1
vn 0 0 1
vn 0 0 1
vn 1 0 0
vn 1 0 0
vn 1 0 0
vn 1 0 0
vn 1 0 0
vn 1 0 0
f 186/186/186 189/189/189 184/184/184
f 188/188/188 185/185/185 189/189/189
f 187/187/187 188/188/188 186/186/186
f 189/189/189 186/186/186 188/188/188
f 191/191/191 190/190/190 194/194/194
f 195/195/195 194/194/194 190/190/190
f 190/190/190 192/192/192 195/195/195
f 194/194/194 195/195/195 193/193/193
f 197/197/197 200/200/200 196/196/196
f 201/201/201 196/196/196 200/200/200
f 196/196/196 201/201/201 198/198/198
f 200/200/200 199/199/199 201/201/201
v 16310 3000 3760
v 16310 6000 3760
v 16310 3000 6760
v 16310 6000 6760
vt 0 0
vt 0 1
vt 1 0
vt 1 1
vn -1 0 0
vn -1 0 0
vn -1 0 0
vn -1 0 0
f 205/205/205 203/203/203 202/202/202 204/204/204
v 16310 3000 1961.9864501953125
v 16310 6000 1961.9864501953125
v 16310 3000 3760
v 16310 6000 3760
vt 0 0
vt 0 1
vt 1 0
vt 1 1
vn -1 0 0
vn -1 0 0
vn -1 0 0
vn -1 0 0
f 209/209/209 207/207/207 206/206/206 208/208/208
v 16310 3000 3760
v 16310 6000 3760
v 19310 3000 3760
v 19310 6000 3760
vt 0 0
vt 0 1
vt 1 0
vt 1 1
vn 0 0 1
vn 0 0 1
vn 0 0 1
vn 0 0 1
f 213/213/213 211/211/211 210/210/210 212/212/212
v 16310 3000 3760
v 16310 6000 3760
v 13310 3000 3760
v 13310 6000 3760
vt 0 0
vt 0 1
vt 1 0
vt 1 1
vn 0 0 -1
vn 0 0 -1
vn 0 0 -1
vn 0 0 -1
f 217/217/217 215/215/215 214/214/214 216/216/216
v 19310 0 1961.9864501953125
v 19310 0 3760
v 16310 0 1961.9864501953125
v 16310 0 3760
v 17810 0 1961.9864501953125
v 19310 0 1961.9864501953125
v 19310 3000 1961.9864501953125
v 16310 0 1961.9864501953125
v 16310 3000 1961.9864501953125
v 17810 0 1961.9864501953125
vt 0.37327641248703003 0
vt 0 0
vt 0.37327641248703003 0.62379390001296997
vt 0 0.62379390001296997
vt 0.37327641248703003 0.31189695000648499
vt 0.37474125623703003 0
vt 0.37474125623703003 0.62379390001296997
vt 0.99853515625 0
vt 0.99853515625 0.62379390001296997
vt 0.68663817644119263 0
vn 0 -1 0
vn 0 -1 0
vn 0 -1 0
vn 0 -1 0
vn 0 -1 0
vn 0 0 -1
vn 0 0 -1
vn 0 0 -1
vn 0 0 -1
vn 0 0 -1
f 222/222/222 218/218/218 219/219/219
f 221/221/221 220/220/220 222/222/222
f 219/219/219 221/221/221 222/222/222
f 227/227/227 224/224/224 223/223/223
f 226/226/226 227/227/227 225/225/225
f 224/224/224 227/227/227 226/226/226
v 19310 3000 1961.9864501953125
v 19310 3000 3760
v 16310 3000 1961.9864501953125
v 16310 3000 3760
vt 0 0
vt 0 1
vt 1 0
vt 1 1
vn 0 1 0
vn 0 1 0
vn 0 1 0
vn 0 1 0
f 231/231/231 229/229/229 228/228/228 230/230/230
v 19310 0 7961.986328125
v 19310 3000 7961.986328125
v 19310 0 6760
v 19310 3000 6760
v 19310 1500 7961.986328125
v 22310 3000 1961.9864501953125
v 22310 3000 7961.986328125
v 19310 3000 1961.9864501953125
v 19310 3000 7961.986328125
v 19310 3000 6760
v 19310 3000 4961.986328125
v 20810 3000 7961.986328125
v 22310 3000 4961.986328125
v 20810 3000 1961.9864501953125
v 22310 0 1961.9864501953125
v 22310 0 7961.986328125
v 19310 0 1961.9864501953125
v 19310 0 7961.986328125
v 19310 0 6760
v 19310 0 4961.986328125
v 20810 0 7961.986328125
v 22310 0 4961.986328125
v 20810 0 1961.9864501953125
v 22310 0 7961.986328125
v 22310 3000 7961.986328125
v 22310 0 1961.9864501953125
v 22310 3000 1961.9864501953125
v 22310 3000 4961.986328125
v 22310 0 4961.986328125
v 22310 1500 1961.9864501953125
v 22310 1500 7961.986328125
v 19310 0 7961.986328125
v 19310 3000 7961.986328125
v 22310 0 7961.986328125
v 22310 3000 7961.986328125
v 19310 1500 7961.986328125
v 20810 3000 7961.986328125
v 20810 0 7961.986328125
v 22310 1500 7961.986328125
v 22310 0 1961.9864501953125
v 22310 3000 1961.9864501953125
v 19310 0 1961.9864501953125
v 19310 3000 1961.9864501953125
v 20810 3000 1961.9864501953125
v 20810 0 1961.9864501953125
v 22310 1500 1961.9864501953125
vt 0.24853515625 0
vt 0 0
vt 0.24853515625 0.10016553848981857
vt 0 0.10016553848981857
vt 0.124267578125 0
vt 0.99853515625 0
vt 0.5 0
vt 0.99853515625 0.24853515625
vt 0.5 0.24853515625
vt 0.59987211227416992 0.24853515625
vt 0.749267578125 0.24853515625
vt 0.5 0.124267578125
vt 0.749267578125 0
vt 0.99853515625 0.124267578125
vt 0.25 0
vt 0.25 0.5
vt 0.49853515625 0
vt 0.49853515625 0.5
vt 0.49853515625 0.39983445405960083
vt 0.49853515625 0.25
vt 0.374267578125 0.5
vt 0.25 0.25
vt 0.374267578125 0
vt 0.5 0.5
vt 0.5 0.74853515625
vt 0.99853515625 0.5
vt 0.99853515625 0.74853515625
vt 0.749267578125 0.74853515625
vt 0.749267578125 0.5
vt 0.99853515625 0.624267578125
vt 0.5 0.624267578125
vt 0.75 0.25
vt 0.5 0.25
vt 0.75 0.49853515625
vt 0.5 0.49853515625
vt 0.625 0.25
vt 0.5 0.374267578125
vt 0.75 0.374267578125
vt 0.625 0.49853515625
vt 0.24853515625 0.21453896164894104
vt 0 0.21453896164894104
vt 0.24853515625 0.46453896164894104
vt 0 0.46453896164894104
vt 0 0.33953896164894104
vt 0.24853515625 0.33953896164894104
vt 0.124267578125 0.21453896164894104
vn 1 0 0
vn 1 0 0
vn 1 0 0
vn 1 0 0
vn 1 0 0
vn 0 -1 0
vn 0 -1 0
vn 0 -1 0
vn 0 -1 0
vn 0 -1 0
vn 0 -1 0
vn 0 -1 0
vn 0 -1 0
vn 0 -1 0
vn 0 1 0
vn 0 1 0
vn 0 1 0
vn 0 1 0
vn 0 1 0
vn 0 1 0
vn 0 1 0
vn 0 1 0
vn 0 1 0
vn -1 0 0
vn -1 0 0
vn -1 0 0
vn -1 0 0
vn -1 0 0
vn -1 0 0
vn -1 0 0
vn -1 0 0
vn 0 0 -1
vn 0 0 -1
vn 0 0 -1
vn 0 0 -1
vn 0 0 -1
vn 0 0 -1
vn 0 0 -1
vn 0 0 -1
vn 0 0 1
vn 0 0 1
vn 0 0 1
vn 0 0 1
vn 0 0 1
vn 0 0 1
vn 0 0 1
f 234/234/234 236/236/236 232/232/232
f 233/233/233 236/236/236 235/235/235
f 234/234/234 235/235/235 236/236/236
f 244/244/244 245/245/245 237/237/237
f 244/244/244 238/238/238 243/243/243
f 242/242/242 245/245/245 244/244/244
f 244/244/244 243/243/243 242/242/242
f 240/240/240 241/241/241 243/243/243
f 242/242/242 243/243/243 241/241/241
f 239/239/239 245/245/245 242/242/242
f 253/253/253 246/246/246 254/254/254
f 253/253/253 252/252/252 247/247/247
f 251/251/251 253/253/253 254/254/254
f 253/253/253 251/251/251 252/252/252
f 249/249/249 252/252/252 250/250/250
f 251/251/251 250/250/250 252/252/252
f 248/248/248 251/251/251 254/254/254
f 262/262/262 260/260/260 255/255/255
f 262/262/262 256/256/256 259/259/259
f 261/261/261 260/260/260 262/262/262
f 262/262/262 259/259/259 261/261/261
f 261/261/261 259/259/259 258/258/258
f 257/257/257 260/260/260 261/261/261
f 267/267/267 269/269/269 263/263/263
f 267/267/267 264/264/264 268/268/268
f 270/270/270 269/269/269 267/267/267
f 267/267/267 268/268/268 270/270/270
f 270/270/270 268/268/268 266/266/266
f 265/265/265 269/269/269 270/270/270
f 276/276/276 271/271/271 277/277/277
f 275/275/275 277/277/277 272/272/272
f 273/273/273 276/276/276 275/275/275 274/274/274
f 277/277/277 275/275/275 276/276/276
v 16310 3000 3760
v 16310 3000 6760
v 13310 3000 3760
v 13310 3000 6760
vt 0 0
vt 0 1
vt 1 0
vt 1 1
vn 0 1 0
vn 0 1 0
vn 0 1 0
vn 0 1 0
f 281/281/281 279/279/279 278/278/278 280/280/280
v 16310 0 3760
v 16310 0 6760
v 13310 0 3760
v 13310 0 6760
v 13310 0 5260
v 14810 0 6760
v 13310 0 6760
v 13310 3000 6760
v 16310 0 6760
v 16310 3000 6760
v 14810 0 6760
v 13310 1500 6760
v 13310 0 3760
v 13310 3000 3760
v 13310 0 6760
v 13310 3000 6760
v 13310 0 5260
v 13310 1500 6760
vt 0 0
vt 0 0.5
vt 0.49853515625 0
vt 0.49853515625 0.5
vt 0.49853515625 0.25
vt 0.249267578125 0.5
vt 0.99853515625 0.5
vt 0.5 0.5
vt 0.99853515625 0.99853515625
vt 0.5 0.99853515625
vt 0.99853515625 0.749267578125
vt 0.749267578125 0.5
vt 0.99853515625 0
vt 0.5 0
vt 0.99853515625 0.49853515625
vt 0.5 0.49853515625
vt 0.99853515625 0.249267578125
vt 0.749267578125 0.49853515625
vn 0 -1 0
vn 0 -1 0
vn 0 -1 0
vn 0 -1 0
vn 0 -1 0
vn 0 -1 0
vn 0 0 1
vn 0 0 1
vn 0 0 1
vn 0 0 1
vn 0 0 1
vn 0 0 1
vn -1 0 0
vn -1 0 0
vn -1 0 0
vn -1 0 0
vn -1 0 0
vn -1 0 0
f 283/283/283 287/287/287 282/282/282
f 286/286/286 282/282/282 287/287/287
f 282/282/282 286/286/286 284/284/284
f 287/287/287 285/285/285 286/286/286
f 292/292/292 293/293/293 288/288/288
f 291/291/291 289/289/289 293/293/293
f 291/291/291 292/292/292 290/290/290
f 293/293/293 292/292/292 291/291/291
f 295/295/295 294/294/294 298/298/298
f 299/299/299 295/295/295 298/298/298
f 298/298/298 296/296/296 299/299/299
f 295/295/295 299/299/299 297/297/297
v 19310 0 3760
v 19310 0 6760
v 16310 0 3760
v 16310 0 6760
v 17810 0 6760
v 16310 0 6760
v 16310 3000 6760
v 19310 0 6760
v 19310 3000 6760
v 17810 0 6760
vt 0.5 0
vt 0.5 0.49853515625
vt 0.99853515625 0
vt 0.99853515625 0.49853515625
vt 0.749267578125 0.49853515625
vt 0 0
vt 0 0.49853515625
vt 0.49853515625 0
vt 0.49853515625 0.49853515625
vt 0.249267578125 0
vn 0 -1 0
vn 0 -1 0
vn 0 -1 0
vn 0 -1 0
vn 0 -1 0
vn 0 0 1
vn 0 0 1
vn 0 0 1
vn 0 0 1
vn 0 0 1
f 304/304/304 300/300/300 301/301/301
f 303/303/303 302/302/302 304/304/304
f 300/300/300 304/304/304 302/302/302
f 309/309/309 306/306/306 305/305/305
f 308/308/308 309/309/309 307/307/307
f 306/306/306 309/309/309 308/308/308
v 19310 3000 3760
v 19310 3000 6760
v 16310 3000 3760
v 16310 3000 6760
vt 0 0
vt 0 1
vt 1 0
vt 1 1
vn 0 1 0
vn 0 1 0
vn 0 1 0
vn 0 1 0
f 313/313/313 311/311/311 310/310/310 312/312/312
v 16310 0 3760
v 16310 3000 3760
v 16310 0 6760
v 16310 3000 6760
vt 0 0
vt 0 1
vt 1 0
vt 1 1
vn -1 0 0
vn -1 0 0
vn -1 0 0
vn -1 0 0
f 317/317/317 315/315/315 314/314/314 316/316/316
v 19310 0 6760
v 19310 3000 6760
v 19310 0 3760
v 19310 3000 3760
vt 0 0
vt 0 1
vt 1 0
vt 1 1
vn 1 0 0
vn 1 0 0
vn 1 0 0
vn 1 0 0
f 321/321/321 319/319/319 318/318/318 320/320/320
v 16310 0 1961.9864501953125
v 16310 3000 1961.9864501953125
v 16310 0 3760
v 16310 3000 3760
vt 0 0
vt 0 1
vt 1 0
vt 1 1
vn -1 0 0
vn -1 0 0
vn -1 0 0
vn -1 0 0
f 325/325/325 323/323/323 322/322/322 324/324/324
v 16310 0 3760
v 16310 3000 3760
v 19310 0 3760
v 19310 3000 3760
vt 0 0
vt 0 1
vt 1 0
vt 1 1
vn 0 0 1
vn 0 0 1
vn 0 0 1
vn 0 0 1
f 329/329/329 327/327/327 326/326/326 328/328/328
v 19310 0 3760
v 19310 3000 3760
v 19310 0 1961.9864501953125
v 19310 3000 1961.9864501953125
vt 0 0
vt 0 1
vt 1 0
vt 1 1
vn 1 0 0
vn 1 0 0
vn 1 0 0
vn 1 0 0
f 333/333/333 331/331/331 330/330/330 332/332/332
v 16310 0 3760
v 16310 3000 3760
v 13310 0 3760
v 13310 3000 3760
vt 0 0
vt 0 1
vt 1 0
vt 1 1
vn 0 0 -1
vn 0 0 -1
vn 0 0 -1
vn 0 0 -1
f 337/337/337 335/335/335 334/334/334 336/336/336
v 5511.986328125 6000 -2240
v 7310 6000 -2240
v 5511.986328125 6000 760
v 7310 6000 760
v 5511.986328125 6000 -740
v 5511.986328125 3000 -2240
v 5511.986328125 6000 -2240
v 5511.986328125 3000 760
v 5511.986328125 6000 760
v 5511.986328125 6000 -740
v 5511.986328125 4500 -2240
v 5511.986328125 3000 -2240
v 5511.986328125 6000 -2240
v 7310 3000 -2240
v 7310 6000 -2240
v 5511.986328125 4500 -2240
vt 0.5 0.29966893792152405
vt 0.5 0.5978730320930481
vt 0.99853515625 0.29966893792152405
vt 0.99853515625 0.5978730320930481
vt 0.749267578125 0.29966893792152405
vt 0 0
vt 0 0.5
vt 0.49853515625 0
vt 0.49853515625 0.5
vt 0.249267578125 0.5
vt 0 0.25
vt 0.99853515625 0
vt 0.5 0
vt 0.99853515625 0.29820409417152405
vt 0.5 0.29820409417152405
vt 0.749267578125 0
vn 0 1 0
vn 0 1 0
vn 0 1 0
vn 0 1 0
vn 0 1 0
vn -1 0 0
vn -1 0 0
vn -1 0 0
vn -1 0 0
vn -1 0 0
vn -1 0 0
vn 0 0 -1
vn 0 0 -1
vn 0 0 -1
vn 0 0 -1
vn 0 0 -1
f 342/342/342 339/339/339 338/338/338
f 341/341/341 342/342/342 340/340/340
f 339/339/339 342/342/342 341/341/341
f 345/345/345 348/348/348 343/343/343
f 347/347/347 344/344/344 348/348/348
f 346/346/346 347/347/347 345/345/345
f 348/348/348 345/345/345 347/347/347
f 351/351/351 349/349/349 353/353/353
f 350/350/350 352/352/352 353/353/353
f 351/351/351 353/353/353 352/352/352
v 7310 3000 3760
v 7310 6000 3760
v 7310 3000 6760
v 7310 6000 6760
v 7310 4500 6760
v 7310 6000 5260
v 4310 3000 760
v 4310 6000 760
v 5511.986328125 3000 760
v 5511.986328125 6000 760
v 4310 4500 760
v 7310 6000 760
v 7310 6000 6760
v 4310 6000 760
v 4310 6000 6760
v 7310 6000 5260
v 7310 6000 3760
v 4310 6000 3760
v 5810 6000 6760
v 5511.986328125 6000 760
v 4310 3000 6760
v 4310 6000 6760
v 7310 3000 6760
v 7310 6000 6760
v 7310 4500 6760
v 5810 6000 6760
v 4310 4500 6760
v 4310 3000 760
v 4310 6000 760
v 4310 3000 6760
v 4310 6000 6760
v 4310 4500 760
v 4310 4500 6760
v 4310 6000 3760
v 4310 3000 3760
vt 0.3333333432674408 0.3333333432674408
vt 0 0.3333333432674408
vt 0.3333333432674408 0.66520184278488159
vt 0 0.66520184278488159
vt 0.1666666716337204 0.66520184278488159
vt 0 0.499267578125
vt 0 0
vt 0 0.3318684995174408
vt 0.13355405628681183 0
vt 0.13355405628681183 0.3318684995174408
vt 0 0.1659342497587204
vt 0.66666668653488159 0
vt 0.66666668653488159 0.66666668653488159
vt 0.99853515625 0
vt 0.99853515625 0.66666668653488159
vt 0.66666668653488159 0.5
vt 0.66666668653488159 0.3333333432674408
vt 0.99853515625 0.3333333432674408
vt 0.83260089159011841 0.66666668653488159
vt 0.86556804180145264 0
vt 0.19070130586624146 0
vt 0.19070130586624146 0.3318684995174408
vt 0.52403461933135986 0
vt 0.52403461933135986 0.3318684995174408
vt 0.52403461933135986 0.1659342497587204
vt 0.35736796259880066 0.3318684995174408
vt 0.19070130586624146 0.1659342497587204
vt 0 0.66666668653488159
vt 0 0.99853515625
vt 0.66520184278488159 0.66666668653488159
vt 0.66520184278488159 0.99853515625
vt 0 0.83260089159011841
vt 0.66520184278488159 0.83260089159011841
vt 0.3326009213924408 0.99853515625
vt 0.3326009213924408 0.66666668653488159
vn -1 0 0
vn -1 0 0
vn -1 0 0
vn -1 0 0
vn -1 0 0
vn -1 0 0
vn 0 0 1
vn 0 0 1
vn 0 0 1
vn 0 0 1
vn 0 0 1
vn 0 -1 0
vn 0 -1 0
vn 0 -1 0
vn 0 -1 0
vn 0 -1 0
vn 0 -1 0
vn 0 -1 0
vn 0 -1 0
vn 0 -1 0
vn 0 0 -1
vn 0 0 -1
vn 0 0 -1
vn 0 0 -1
vn 0 0 -1
vn 0 0 -1
vn 0 0 -1
vn 1 0 0
vn 1 0 0
vn 1 0 0
vn 1 0 0
vn 1 0 0
vn 1 0 0
vn 1 0 0
vn 1 0 0
f 355/355/355 354/354/354 359/359/359
f 358/358/358 359/359/359 354/354/354
f 354/354/354 356/356/356 358/358/358
f 359/359/359 358/358/358 357/357/357
f 362/362/362 364/364/364 360/360/360
f 361/361/361 364/364/364 363/363/363
f 362/362/362 363/363/363 364/364/364
f 373/373/373 365/365/365 370/370/370
f 372/372/372 369/369/369 366/366/366
f 369/369/369 372/372/372 370/370/370
f 371/371/371 367/367/367 373/373/373
f 368/368/368 371/371/371 372/372/372
f 371/371/371 370/370/370 372/372/372
f 373/373/373 370/370/370 371/371/371
f 380/380/380 378/378/378 376/376/376 374/374/374
f 379/379/379 380/380/380 375/375/375
f 380/380/380 379/379/379 378/378/378
f 378/378/378 379/379/379 377/377/377
f 385/385/385 388/388/388 381/381/381
f 385/385/385 382/382/382 387/387/387
f 386/386/386 388/388/388 385/385/385
f 385/385/385 387/387/387 386/386/386
f 386/386/386 387/387/387 384/384/384
f 383/383/383 388/388/388 386/386/386
v 5511.986328125 3000 760
v 5511.986328125 6000 760
v 7310 3000 760
v 7310 6000 760
vt 0 0
vt 0 1
vt 1 0
vt 1 1
vn 0 0 1
vn 0 0 1
vn 0 0 1
vn 0 0 1
f 392/392/392 390/390/390 389/389/389 391/391/391
v 7310 3000 760
v 7310 6000 760
v 7310 3000 -2240
v 7310 6000 -2240
vt 0 0
vt 0 1
vt 1 0
vt 1 1
vn 1 0 0
vn 1 0 0
vn 1 0 0
vn 1 0 0
f 396/396/396 394/394/394 393/393/393 395/395/395
v 7310 3000 760
v 7310 6000 760
v 7310 3000 3760
v 7310 6000 3760
vt 0 0
vt 0 1
vt 1 0
vt 1 1
vn -1 0 0
vn -1 0 0
vn -1 0 0
vn -1 0 0
f 400/400/400 398/398/398 397/397/397 399/399/399
v 7310 0 760
v 7310 3000 760
v 10310 0 760
v 10310 3000 760
vt 0 0
vt 0 1
vt 1 0
vt 1 1
vn 0 0 1
vn 0 0 1
vn 0 0 1
vn 0 0 1
f 404/404/404 402/402/402 401/401/401 403/403/403
v 10310 0 -2240
v 10310 3000 -2240
v 7310 0 -2240
v 7310 3000 -2240
vt 0 0
vt 0 1
vt 1 0
vt 1 1
vn 0 0 -1
vn 0 0 -1
vn 0 0 -1
vn 0 0 -1
f 408/408/408 406/406/406 405/405/405 407/407/407
v 5511.986328125 0 760
v 5511.986328125 3000 760
v 7310 0 760
v 7310 3000 760
vt 0 0
vt 0 1
vt 1 0
vt 1 1
vn 0 0 1
vn 0 0 1
vn 0 0 1
vn 0 0 1
f 412/412/412 410/410/410 409/409/409 411/411/411
v 7310 0 760
v 7310 3000 760
v 7310 0 -2240
v 7310 3000 -2240
vt 0 0
vt 0 1
vt 1 0
vt 1 1
vn 1 0 0
vn 1 0 0
vn 1 0 0
vn 1 0 0
f 416/416/416 414/414/414 413/413/413 415/415/415
v 7310 0 -2240
v 7310 3000 -2240
v 5511.986328125 0 -2240
v 5511.986328125 3000 -2240
vt 0 0
vt 0 1
vt 1 0
vt 1 1
vn 0 0 -1
vn 0 0 -1
vn 0 0 -1
vn 0 0 -1
f 420/420/420 418/418/418 417/417/417 419/419/419
v 5511.986328125 3000 -2240
v 7310 3000 -2240
v 5511.986328125 3000 760
v 7310 3000 760
v 5511.986328125 3000 -740
v 5511.986328125 0 -2240
v 7310 0 -2240
v 5511.986328125 0 760
v 7310 0 760
v 5511.986328125 0 -740
v 5511.986328125 0 -2240
v 5511.986328125 3000 -2240
v 5511.986328125 0 760
v 5511.986328125 3000 760
v 5511.986328125 3000 -740
v 5511.986328125 0 -740
vt 0.5 0.29966893792152405
vt 0.5 0.5978730320930481
vt 0.99853515625 0.29966893792152405
vt 0.99853515625 0.5978730320930481
vt 0.749267578125 0.29966893792152405
vt 0.5 0
vt 0.5 0.29820409417152405
vt 0.99853515625 0
vt 0.99853515625 0.29820409417152405
vt 0.749267578125 0
vt 0 0
vt 0 0.5
vt 0.49853515625 0
vt 0.49853515625 0.5
vt 0.249267578125 0.5
vt 0.249267578125 0
vn 0 1 0
vn 0 1 0
vn 0 1 0
vn 0 1 0
vn 0 1 0
vn 0 -1 0
vn 0 -1 0
vn 0 -1 0
vn 0 -1 0
vn 0 -1 0
vn -1 0 0
vn -1 0 0
vn -1 0 0
vn -1 0 0
vn -1 0 0
vn -1 0 0
f 425/425/425 422/422/422 421/421/421
f 424/424/424 425/425/425 423/423/423
f 422/422/422 425/425/425 424/424/424
f 430/430/430 426/426/426 427/427/427
f 429/429/429 428/428/428 430/430/430
f 427/427/427 429/429/429 430/430/430
f 432/432/432 431/431/431 436/436/436 435/435/435
f 433/433/433 434/434/434 435/435/435 436/436/436
v 11511.986328125 0 -2240
v 11511.986328125 3000 -2240
v 10310 0 -2240
v 10310 3000 -2240
v 11511.986328125 1500 -2240
v 5511.986328125 3000 -5240
v 11511.986328125 3000 -5240
v 5511.986328125 3000 -2240
v 11511.986328125 3000 -2240
v 10310 3000 -2240
v 8511.986328125 3000 -2240
v 11511.986328125 3000 -3740
v 8511.986328125 3000 -5240
v 5511.986328125 3000 -3740
v 5511.986328125 0 -5240
v 11511.986328125 0 -5240
v 5511.986328125 0 -2240
v 11511.986328125 0 -2240
v 10310 0 -2240
v 8511.986328125 0 -2240
v 11511.986328125 0 -3740
v 8511.986328125 0 -5240
v 5511.986328125 0 -3740
v 11511.986328125 0 -5240
v 11511.986328125 3000 -5240
v 5511.986328125 0 -5240
v 5511.986328125 3000 -5240
v 8511.986328125 3000 -5240
v 8511.986328125 0 -5240
v 5511.986328125 1500 -5240
v 11511.986328125 1500 -5240
v 11511.986328125 0 -2240
v 11511.986328125 3000 -2240
v 11511.986328125 0 -5240
v 11511.986328125 3000 -5240
v 11511.986328125 1500 -2240
v 11511.986328125 3000 -3740
v 11511.986328125 0 -3740
v 11511.986328125 1500 -5240
v 5511.986328125 0 -5240
v 5511.986328125 3000 -5240
v 5511.986328125 0 -2240
v 5511.986328125 3000 -2240
v 5511.986328125 3000 -3740
v 5511.986328125 0 -3740
v 5511.986328125 1500 -5240
vt 0.24853515625 0
vt 0 0
vt 0.24853515625 0.10016553848981857
vt 0 0.10016553848981857
vt 0.124267578125 0
vt 0.99853515625 0
vt 0.5 0
vt 0.99853515625 0.24853515625
vt 0.5 0.24853515625
vt 0.59987211227416992 0.24853515625
vt 0.749267578125 0.24853515625
vt 0.5 0.124267578125
vt 0.749267578125 0
vt 0.99853515625 0.124267578125
vt 0.25 0
vt 0.25 0.5
vt 0.49853515625 0
vt 0.49853515625 0.5
vt 0.49853515625 0.39983445405960083
vt 0.49853515625 0.25
vt 0.374267578125 0.5
vt 0.25 0.25
vt 0.374267578125 0
vt 0.5 0.5
vt 0.5 0.74853515625
vt 0.99853515625 0.5
vt 0.99853515625 0.74853515625
vt 0.749267578125 0.74853515625
vt 0.749267578125 0.5
vt 0.99853515625 0.624267578125
vt 0.5 0.624267578125
vt 0.75 0.25
vt 0.5 0.25
vt 0.75 0.49853515625
vt 0.5 0.49853515625
vt 0.625 0.25
vt 0.5 0.374267578125
vt 0.75 0.374267578125
vt 0.625 0.49853515625
vt 0.24853515625 0.21453896164894104
vt 0 0.21453896164894104
vt 0.24853515625 0.46453896164894104
vt 0 0.46453896164894104
vt 0 0.33953896164894104
vt 0.24853515625 0.33953896164894104
vt 0.124267578125 0.21453896164894104
vn 0 0 -1
vn 0 0 -1
vn 0 0 -1
vn 0 0 -1
vn 0 0 -1
vn 0 -1 0
vn 0 -1 0
vn 0 -1 0
vn 0 -1 0
vn 0 -1 0
vn 0 -1 0
vn 0 -1 0
vn 0 -1 0
vn 0 -1 0
vn 0 1 0
vn 0 1 0
vn 0 1 0
vn 0 1 0
vn 0 1 0
vn 0 1 0
vn 0 1 0
vn 0 1 0
vn 0 1 0
vn 0 0 1
vn 0 0 1
vn 0 0 1
vn 0 0 1
vn 0 0 1
vn 0 0 1
vn 0 0 1
vn 0 0 1
vn -1 0 0
vn -1 0 0
vn -1 0 0
vn -1 0 0
vn -1 0 0
vn -1 0 0
vn -1 0 0
vn -1 0 0
vn 1 0 0
vn 1 0 0
vn 1 0 0
vn 1 0 0
vn 1 0 0
vn 1 0 0
vn 1 0 0
f 439/439/439 441/441/441 437/437/437
f 438/438/438 441/441/441 440/440/440
f 439/439/439 440/440/440 441/441/441
f 449/449/449 450/450/450 442/442/442
f 449/449/449 443/443/443 448/448/448
f 447/447/447 450/450/450 449/449/449
f 449/449/449 448/448/448 447/447/447
f 445/445/445 446/446/446 448/448/448
f 447/447/447 448/448/448 446/446/446
f 444/444/444 450/450/450 447/447/447
f 458/458/458 451/451/451 459/459/459
f 458/458/458 457/457/457 452/452/452
f 456/456/456 458/458/458 459/459/459
f 458/458/458 456/456/456 457/457/457
f 454/454/454 457/457/457 455/455/455
f 456/456/456 455/455/455 457/457/457
f 453/453/453 456/456/456 459/459/459
f 467/467/467 465/465/465 460/460/460
f 467/467/467 461/461/461 464/464/464
f 466/466/466 465/465/465 467/467/467
f 467/467/467 464/464/464 466/466/466
f 466/466/466 464/464/464 463/463/463
f 462/462/462 465/465/465 466/466/466
f 472/472/472 474/474/474 468/468/468
f 472/472/472 469/469/469 473/473/473
f 475/475/475 474/474/474 472/472/472
f 472/472/472 473/473/473 475/475/475
f 475/475/475 473/473/473 471/471/471
f 470/470/470 474/474/474 475/475/475
f 481/481/481 476/476/476 482/482/482
f 480/480/480 482/482/482 477/477/477
f 478/478/478 481/481/481 480/480/480 479/479/479
f 482/482/482 480/480/480 481/481/481
v 7310 0 3760
v 7310 3000 3760
v 7310 0 6760
v 7310 3000 6760
v 7310 0 5260
v 7310 1500 6760
v 7310 3000 5260
v 4310 0 760
v 4310 3000 760
v 5511.986328125 0 760
v 5511.986328125 3000 760
v 4310 1500 760
v 7310 3000 760
v 7310 3000 6760
v 4310 3000 760
v 4310 3000 6760
v 7310 3000 5260
v 7310 3000 3760
v 4310 3000 3760
v 5810 3000 6760
v 5511.986328125 3000 760
v 7310 0 760
v 7310 0 6760
v 4310 0 760
v 4310 0 6760
v 7310 0 5260
v 7310 0 3760
v 4310 0 3760
v 5810 0 6760
v 5511.986328125 0 760
v 4310 0 6760
v 4310 3000 6760
v 7310 0 6760
v 7310 3000 6760
v 7310 1500 6760
v 5810 3000 6760
v 5810 0 6760
v 4310 1500 6760
v 4310 0 760
v 4310 3000 760
v 4310 0 6760
v 4310 3000 6760
v 4310 1500 760
v 4310 1500 6760
v 4310 3000 3760
v 4310 0 3760
vt 0.75 0.25
vt 0.5 0.25
vt 0.75 0.49853515625
vt 0.5 0.49853515625
vt 0.75 0.374267578125
vt 0.625 0.49853515625
vt 0.5 0.374267578125
vt 0.24853515625 0
vt 0 0
vt 0.24853515625 0.10016553848981857
vt 0 0.10016553848981857
vt 0.124267578125 0
vt 0.99853515625 0
vt 0.5 0
vt 0.99853515625 0.24853515625
vt 0.5 0.24853515625
vt 0.6246337890625 0
vt 0.749267578125 0
vt 0.749267578125 0.24853515625
vt 0.5 0.124267578125
vt 0.99853515625 0.1489565372467041
vt 0.25 0
vt 0.25 0.5
vt 0.49853515625 0
vt 0.49853515625 0.5
vt 0.25 0.375
vt 0.25 0.25
vt 0.49853515625 0.25
vt 0.374267578125 0.5
vt 0.3989565372467041 0
vt 0.24853515625 0.21453896164894104
vt 0 0.21453896164894104
vt 0.24853515625 0.46453896164894104
vt 0 0.46453896164894104
vt 0.124267578125 0.46453896164894104
vt 0 0.33953896164894104
vt 0.24853515625 0.33953896164894104
vt 0.124267578125 0.21453896164894104
vt 0.5 0.5
vt 0.5 0.74853515625
vt 0.99853515625 0.5
vt 0.99853515625 0.74853515625
vt 0.5 0.624267578125
vt 0.99853515625 0.624267578125
vt 0.749267578125 0.74853515625
vt 0.749267578125 0.5
vn -1 0 0
vn -1 0 0
vn -1 0 0
vn -1 0 0
vn -1 0 0
vn -1 0 0
vn -1 0 0
vn 0 0 1
vn 0 0 1
vn 0 0 1
vn 0 0 1
vn 0 0 1
vn 0 -1 0
vn 0 -1 0
vn 0 -1 0
vn 0 -1 0
vn 0 -1 0
vn 0 -1 0
vn 0 -1 0
vn 0 -1 0
vn 0 -1 0
vn 0 1 0
vn 0 1 0
vn 0 1 0
vn 0 1 0
vn 0 1 0
vn 0 1 0
vn 0 1 0
vn 0 1 0
vn 0 1 0
vn 0 0 -1
vn 0 0 -1
vn 0 0 -1
vn 0 0 -1
vn 0 0 -1
vn 0 0 -1
vn 0 0 -1
vn 0 0 -1
vn 1 0 0
vn 1 0 0
vn 1 0 0
vn 1 0 0
vn 1 0 0
vn 1 0 0
vn 1 0 0
vn 1 0 0
f 484/484/484 483/483/483 487/487/487 489/489/489
f 487/487/487 488/488/488 489/489/489
f 488/488/488 486/486/486 489/489/489
f 485/485/485 488/488/488 487/487/487
f 492/492/492 494/494/494 490/490/490
f 491/491/491 494/494/494 493/493/493
f 492/492/492 493/493/493 494/494/494
f 503/503/503 495/495/495 500/500/500
f 502/502/502 499/499/499 496/496/496
f 499/499/499 502/502/502 500/500/500
f 501/501/501 497/497/497 503/503/503
f 498/498/498 501/501/501 502/502/502
f 501/501/501 500/500/500 502/502/502
f 503/503/503 500/500/500 501/501/501
f 512/512/512 509/509/509 504/504/504
f 511/511/511 505/505/505 508/508/508
f 508/508/508 509/509/509 511/511/511
f 510/510/510 512/512/512 506/506/506
f 507/507/507 511/511/511 510/510/510
f 510/510/510 511/511/511 509/509/509
f 512/512/512 510/510/510 509/509/509
f 520/520/520 519/519/519 513/513/513
f 520/520/520 514/514/514 518/518/518
f 517/517/517 519/519/519 520/520/520
f 520/520/520 518/518/518 517/517/517
f 517/517/517 518/518/518 516/516/516
f 515/515/515 519/519/519 517/517/517
f 525/525/525 528/528/528 521/521/521
f 525/525/525 522/522/522 527/527/527
f 526/526/526 528/528/528 525/525/525
f 525/525/525 527/527/527 526/526/526
f 526/526/526 527/527/527 524/524/524
f 523/523/523 528/528/528 526/526/526
v 7310 0 760
v 10310 0 760
v 7310 0 3760
v 10310 0 3760
v 8810 0 3760
v 10310 0 2260
v 7310 3000 760
v 10310 3000 760
v 7310 3000 3760
v 10310 3000 3760
v 8810 3000 3760
v 10310 3000 2260
v 10310 0 3760
v 10310 3000 3760
v 10310 0 760
v 10310 3000 760
v 10310 0 2260
v 10310 3000 2260
v 10310 1500 3760
v 7310 0 3760
v 7310 3000 3760
v 10310 0 3760
v 10310 3000 3760
v 8810 0 3760
v 8810 3000 3760
v 10310 1500 3760
vt 0.49853515625 0.5
vt 0 0.5
vt 0.49853515625 0.99853515625
vt 0 0.99853515625
vt 0.249267578125 0.99853515625
vt 0 0.749267578125
vt 0.49853515625 0
vt 0 0
vt 0.49853515625 0.49853515625
vt 0 0.49853515625
vt 0.249267578125 0.49853515625
vt 0 0.249267578125
vt 0.99853515625 0.5
vt 0.5 0.5
vt 0.99853515625 0.99853515625
vt 0.5 0.99853515625
vt 0.99853515625 0.749267578125
vt 0.5 0.749267578125
vt 0.749267578125 0.5
vt 0.99853515625 0
vt 0.5 0
vt 0.99853515625 0.49853515625
vt 0.5 0.49853515625
vt 0.99853515625 0.249267578125
vt 0.5 0.249267578125
vt 0.749267578125 0.49853515625
vn 0 -1 0
vn 0 -1 0
vn 0 -1 0
vn 0 -1 0
vn 0 -1 0
vn 0 -1 0
vn 0 1 0
vn 0 1 0
vn 0 1 0
vn 0 1 0
vn 0 1 0
vn 0 1 0
vn 1 0 0
vn 1 0 0
vn 1 0 0
vn 1 0 0
vn 1 0 0
vn 1 0 0
vn 1 0 0
vn 0 0 1
vn 0 0 1
vn 0 0 1
vn 0 0 1
vn 0 0 1
vn 0 0 1
vn 0 0 1
f 530/530/530 534/534/534 529/529/529
f 533/533/533 529/529/529 534/534/534
f 529/529/529 533/533/533 531/531/531
f 534/534/534 532/532/532 533/533/533
f 536/536/536 535/535/535 540/540/540
f 539/539/539 540/540/540 535/535/535
f 535/535/535 537/537/537 539/539/539
f 540/540/540 539/539/539 538/538/538
f 545/545/545 547/547/547 541/541/541
f 546/546/546 542/542/542 547/547/547
f 543/543/543 544/544/544 546/546/546 545/545/545
f 547/547/547 545/545/545 546/546/546
f 549/549/549 548/548/548 552/552/552 553/553/553
f 552/552/552 554/554/554 553/553/553
f 554/554/554 551/551/551 553/553/553
f 550/550/550 554/554/554 552/552/552
v 7310 0 760
v 7310 3000 760
v 7310 0 3760
v 7310 3000 3760
vt 0 0
vt 0 1
vt 1 0
vt 1 1
vn -1 0 0
vn -1 0 0
vn -1 0 0
vn -1 0 0
f 558/558/558 556/556/556 555/555/555 557/557/557
