# Rhino

g wc_00
v -18.919105529785156 0 52.473930358886719
v -18.919105529785156 0 54.970748901367188
v -18.919105529785156 3 52.473930358886719
v -18.919105529785156 3 54.970748901367188
v -16.912059783935547 0 54.970748901367188
v -16.912059783935547 3 54.970748901367188
v -16.912059783935547 0 52.473930358886719
v -16.912059783935547 3 52.473930358886719
f 2 4 3 1
f 5 6 4 2
f 7 8 6 5
f 1 3 8 7
f 3 4 6 8
f 2 1 7 5
g storageroom_01
v -37.729625701904297 0 55.738067626953125
v -37.729625701904297 0 57.388912200927734
v -37.729625701904297 3 55.738067626953125
v -37.729625701904297 3 57.388912200927734
v -35.322643280029297 0 57.388912200927734
v -35.322643280029297 3 57.388912200927734
v -35.322643280029297 0 55.738067626953125
v -35.322643280029297 3 55.738067626953125
f 10 12 11 9
f 13 14 12 10
f 15 16 14 13
f 9 11 16 15
f 11 12 14 16
f 10 9 15 13
g storageroom_00
v -32.454326629638672 0 57.264602661132812
v -32.454326629638672 0 58.767299652099609
v -32.454326629638672 3 57.264602661132812
v -32.454326629638672 3 58.767299652099609
v -28.759666442871094 0 58.767299652099609
v -28.759666442871094 3 58.767299652099609
v -28.759666442871094 0 57.264602661132812
v -28.759666442871094 3 57.264602661132812
f 18 20 19 17
f 21 22 20 18
f 23 24 22 21
f 17 19 24 23
f 19 20 22 24
f 18 17 23 21
g staircase_01
v -22.354774475097656 0 52.596469879150391
v -22.354774475097656 0 54.789562225341797
v -22.354774475097656 3 52.596469879150391
v -22.354774475097656 3 54.789562225341797
v -19.791879653930664 0 54.789562225341797
v -19.791879653930664 3 54.789562225341797
v -19.791879653930664 0 52.596469879150391
v -19.791879653930664 3 52.596469879150391
f 26 28 27 25
f 29 30 28 26
f 31 32 30 29
f 25 27 32 31
f 27 28 30 32
f 26 25 31 29
g staircase_00
v -25.230552673339844 0 47.227340698242188
v -25.230552673339844 0 52.596469879150391
v -25.230552673339844 3 47.227340698242188
v -25.230552673339844 3 52.596469879150391
v -19.791879653930664 0 52.596469879150391
v -19.791879653930664 3 52.596469879150391
v -19.791879653930664 0 47.227340698242188
v -19.791879653930664 3 47.227340698242188
f 34 36 35 33
f 37 38 36 34
f 39 40 38 37
f 33 35 40 39
f 35 36 38 40
f 34 33 39 37
g livingroom_04
v -37.729625701904297 0 60.064117431640625
v -37.729625701904297 0 64.297866821289062
v -37.729625701904297 3 60.064117431640625
v -37.729625701904297 3 64.297866821289062
v -32.454326629638672 0 64.297866821289062
v -32.454326629638672 3 64.297866821289062
v -32.454326629638672 0 60.064117431640625
v -32.454326629638672 3 60.064117431640625
f 42 44 43 41
f 45 46 44 42
f 47 48 46 45
f 41 43 48 47
f 43 44 46 48
f 42 41 47 45
g livingroom_03
v -37.729625701904297 0 48.814964294433594
v -37.729625701904297 0 53.278266906738281
v -37.729625701904297 3 48.814964294433594
v -37.729625701904297 3 53.278266906738281
v -35.322643280029297 0 53.278266906738281
v -35.322643280029297 3 53.278266906738281
v -35.322643280029297 0 48.814964294433594
v -35.322643280029297 3 48.814964294433594
f 50 52 51 49
f 53 54 52 50
f 55 56 54 53
f 49 51 56 55
f 51 52 54 56
f 50 49 55 53
g livingroom_02
v -32.434047698974609 0 48.814964294433594
v -32.434047698974609 0 52.243366241455078
v -32.434047698974609 3 48.814964294433594
v -32.434047698974609 3 52.243366241455078
v -28.696744918823242 0 52.243366241455078
v -28.696744918823242 3 52.243366241455078
v -28.696744918823242 0 48.814964294433594
v -28.696744918823242 3 48.814964294433594
f 58 60 59 57
f 61 62 60 58
f 63 64 62 61
f 57 59 64 63
f 59 60 62 64
f 58 57 63 61
g livingroom_01
v -28.759666442871094 0 60.064117431640625
v -28.759666442871094 0 64.297866821289062
v -28.759666442871094 3 60.064117431640625
v -28.759666442871094 3 64.297866821289062
v -26.296215057373047 0 64.297866821289062
v -26.296215057373047 3 64.297866821289062
v -26.296215057373047 0 60.064117431640625
v -26.296215057373047 3 60.064117431640625
f 66 68 67 65
f 69 70 68 66
f 71 72 70 69
f 65 67 72 71
f 67 68 70 72
f 66 65 71 69
g livingroom_00
v -19.791879653930664 0 60.7376708984375
v -19.791879653930664 0 64.297866821289062
v -19.791879653930664 3 60.7376708984375
v -19.791879653930664 3 64.297866821289062
v -13.862190246582031 0 64.297866821289062
v -13.862190246582031 3 64.297866821289062
v -13.862190246582031 0 60.7376708984375
v -13.862190246582031 3 60.7376708984375
f 74 76 75 73
f 77 78 76 74
f 79 80 78 77
f 73 75 80 79
f 75 76 78 80
f 74 73 79 77
g kitchen_04
v -35.322643280029297 0 48.814964294433594
v -35.322643280029297 0 54.926525115966797
v -35.322643280029297 3 48.814964294433594
v -35.322643280029297 3 54.926525115966797
v -32.434047698974609 0 54.926525115966797
v -32.434047698974609 3 54.926525115966797
v -32.434047698974609 0 48.814964294433594
v -32.434047698974609 3 48.814964294433594
f 82 84 83 81
f 85 86 84 82
f 87 88 86 85
f 81 83 88 87
f 83 84 86 88
f 82 81 87 85
g kitchen_03
v -32.434047698974609 0 52.243366241455078
v -32.434047698974609 0 54.926525115966797
v -32.434047698974609 3 52.243366241455078
v -32.434047698974609 3 54.926525115966797
v -27.725860595703125 0 54.926525115966797
v -27.725860595703125 3 54.926525115966797
v -27.725860595703125 0 52.243366241455078
v -27.725860595703125 3 52.243366241455078
f 90 92 91 89
f 93 94 92 90
f 95 96 94 93
f 89 91 96 95
f 91 92 94 96
f 90 89 95 93
g kitchen_02
v -35.322643280029297 0 57.264602661132812
v -35.322643280029297 0 60.064117431640625
v -35.322643280029297 3 57.264602661132812
v -35.322643280029297 3 60.064117431640625
v -32.454326629638672 0 60.064117431640625
v -32.454326629638672 3 60.064117431640625
v -32.454326629638672 0 57.264602661132812
v -32.454326629638672 3 57.264602661132812
f 98 100 99 97
f 101 102 100 98
f 103 104 102 101
f 97 99 104 103
f 99 100 102 104
f 98 97 103 101
g kitchen_01
v -19.791879653930664 0 54.970748901367188
v -19.791879653930664 0 60.7376708984375
v -19.791879653930664 3 54.970748901367188
v -19.791879653930664 3 60.7376708984375
v -10.254992485046387 0 60.7376708984375
v -10.254992485046387 3 60.7376708984375
v -10.254992485046387 0 54.970748901367188
v -10.254992485046387 3 54.970748901367188
f 106 108 107 105
f 109 110 108 106
f 111 112 110 109
f 105 107 112 111
f 107 108 110 112
f 106 105 111 109
g kitchen_00
v -26.296215057373047 0 57.264602661132812
v -26.296215057373047 0 64.297866821289062
v -26.296215057373047 3 57.264602661132812
v -26.296215057373047 3 64.297866821289062
v -19.791879653930664 0 64.297866821289062
v -19.791879653930664 3 64.297866821289062
v -19.791879653930664 0 57.264602661132812
v -19.791879653930664 3 57.264602661132812
f 114 116 115 113
f 117 118 116 114
f 119 120 118 117
f 113 115 120 119
f 115 116 118 120
f 114 113 119 117
g extra_00
v -19.791879653930664 0 48.814964294433594
v -19.791879653930664 0 54.970748901367188
v -19.791879653930664 3 48.814964294433594
v -19.791879653930664 3 54.970748901367188
v -18.919105529785156 0 54.970748901367188
v -18.919105529785156 3 54.970748901367188
v -18.919105529785156 0 52.473930358886719
v -18.919105529785156 3 52.473930358886719
v -16.912059783935547 0 52.473930358886719
v -16.912059783935547 3 52.473930358886719
v -16.912059783935547 0 48.814964294433594
v -16.912059783935547 3 48.814964294433594
f 123 124 126 128 130 132
f 122 121 131 129 127 125
f 122 124 123 121
f 125 126 124 122
f 127 128 126 125
f 129 130 128 127
f 131 132 130 129
f 121 123 132 131
g corridor_02
v -35.322643280029297 0 54.926525115966797
v -35.322643280029297 0 57.264602661132812
v -35.322643280029297 3 54.926525115966797
v -35.322643280029297 3 57.264602661132812
v -25.230552673339844 0 57.264602661132812
v -25.230552673339844 3 57.264602661132812
v -25.230552673339844 0 54.926525115966797
v -25.230552673339844 3 54.926525115966797
f 134 136 135 133
f 137 138 136 134
f 139 140 138 137
f 133 135 140 139
f 135 136 138 140
f 134 133 139 137
g corridor_01
v -25.230552673339844 0 52.596469879150391
v -25.230552673339844 0 57.264602661132812
v -25.230552673339844 3 52.596469879150391
v -25.230552673339844 3 57.264602661132812
v -22.354774475097656 0 57.264602661132812
v -22.354774475097656 3 57.264602661132812
v -22.354774475097656 0 52.596469879150391
v -22.354774475097656 3 52.596469879150391
f 142 144 143 141
f 145 146 144 142
f 147 148 146 145
f 141 143 148 147
f 143 144 146 148
f 142 141 147 145
g corridor_00
v -22.354774475097656 0 54.789562225341797
v -22.354774475097656 0 57.264602661132812
v -22.354774475097656 3 54.789562225341797
v -22.354774475097656 3 57.264602661132812
v -19.791879653930664 0 57.264602661132812
v -19.791879653930664 3 57.264602661132812
v -19.791879653930664 0 54.789562225341797
v -19.791879653930664 3 54.789562225341797
f 150 152 151 149
f 153 154 152 150
f 155 156 154 153
f 149 151 156 155
f 151 152 154 156
f 150 149 155 153
g bedroom_05
v -42.001728057861328 0 60.064117431640625
v -42.001728057861328 0 64.297866821289062
v -42.001728057861328 3 60.064117431640625
v -42.001728057861328 3 64.297866821289062
v -37.729625701904297 0 64.297866821289062
v -37.729625701904297 3 64.297866821289062
v -37.729625701904297 0 60.064117431640625
v -37.729625701904297 3 60.064117431640625
f 158 160 159 157
f 161 162 160 158
f 163 164 162 161
f 157 159 164 163
f 159 160 162 164
f 158 157 163 161
g bedroom_04
v -42.001728057861328 0 53.061149597167969
v -42.001728057861328 0 60.064117431640625
v -42.001728057861328 3 53.061149597167969
v -42.001728057861328 3 60.064117431640625
v -37.729625701904297 0 60.064117431640625
v -37.729625701904297 3 60.064117431640625
v -37.729625701904297 0 53.061149597167969
v -37.729625701904297 3 53.061149597167969
f 166 168 167 165
f 169 170 168 166
f 171 172 170 169
f 165 167 172 171
f 167 168 170 172
f 166 165 171 169
g bedroom_03
v -42.001728057861328 0 48.814964294433594
v -42.001728057861328 0 53.061149597167969
v -42.001728057861328 3 48.814964294433594
v -42.001728057861328 3 53.061149597167969
v -37.729625701904297 0 53.061149597167969
v -37.729625701904297 3 53.061149597167969
v -37.729625701904297 0 48.814964294433594
v -37.729625701904297 3 48.814964294433594
f 174 176 175 173
f 177 178 176 174
f 179 180 178 177
f 173 175 180 179
f 175 176 178 180
f 174 173 179 177
g bedroom_02
v -32.454326629638672 0 58.767299652099609
v -32.454326629638672 0 64.297866821289062
v -32.454326629638672 3 58.767299652099609
v -32.454326629638672 3 64.297866821289062
v -28.759666442871094 0 64.297866821289062
v -28.759666442871094 3 64.297866821289062
v -28.759666442871094 0 58.767299652099609
v -28.759666442871094 3 58.767299652099609
f 182 184 183 181
f 185 186 184 182
f 187 188 186 185
f 181 183 188 187
f 183 184 186 188
f 182 181 187 185
g bedroom_01
v -28.696744918823242 0 48.814964294433594
v -28.696744918823242 0 52.243366241455078
v -28.696744918823242 3 48.814964294433594
v -28.696744918823242 3 52.243366241455078
v -25.230552673339844 0 52.243366241455078
v -25.230552673339844 3 52.243366241455078
v -25.230552673339844 0 48.814964294433594
v -25.230552673339844 3 48.814964294433594
f 190 192 191 189
f 193 194 192 190
f 195 196 194 193
f 189 191 196 195
f 191 192 194 196
f 190 189 195 193
g bedroom_00
v -14.442090034484863 0 48.814964294433594
v -14.442090034484863 0 54.970748901367188
v -14.442090034484863 3 48.814964294433594
v -14.442090034484863 3 54.970748901367188
v -10.254992485046387 0 54.970748901367188
v -10.254992485046387 3 54.970748901367188
v -10.254992485046387 0 48.814964294433594
v -10.254992485046387 3 48.814964294433594
f 198 200 199 197
f 201 202 200 198
f 203 204 202 201
f 197 199 204 203
f 199 200 202 204
f 198 197 203 201
g bathroom_04
v -37.729625701904297 0 57.388912200927734
v -37.729625701904297 0 60.064117431640625
v -37.729625701904297 3 57.388912200927734
v -37.729625701904297 3 60.064117431640625
v -35.322643280029297 0 60.064117431640625
v -35.322643280029297 3 60.064117431640625
v -35.322643280029297 0 57.388912200927734
v -35.322643280029297 3 57.388912200927734
f 206 208 207 205
f 209 210 208 206
f 211 212 210 209
f 205 207 212 211
f 207 208 210 212
f 206 205 211 209
g bathroom_03
v -37.729625701904297 0 53.278266906738281
v -37.729625701904297 0 55.738067626953125
v -37.729625701904297 3 53.278266906738281
v -37.729625701904297 3 55.738067626953125
v -35.322643280029297 0 55.738067626953125
v -35.322643280029297 3 55.738067626953125
v -35.322643280029297 0 53.278266906738281
v -35.322643280029297 3 53.278266906738281
f 214 216 215 213
f 217 218 216 214
f 219 220 218 217
f 213 215 220 219
f 215 216 218 220
f 214 213 219 217
g bathroom_02
v -27.725860595703125 0 52.243366241455078
v -27.725860595703125 0 54.926525115966797
v -27.725860595703125 3 52.243366241455078
v -27.725860595703125 3 54.926525115966797
v -25.230552673339844 0 54.926525115966797
v -25.230552673339844 3 54.926525115966797
v -25.230552673339844 0 52.243366241455078
v -25.230552673339844 3 52.243366241455078
f 222 224 223 221
f 225 226 224 222
f 227 228 226 225
f 221 223 228 227
f 223 224 226 228
f 222 221 227 225
g bathroom_01
v -28.759666442871094 0 57.264602661132812
v -28.759666442871094 0 60.064117431640625
v -28.759666442871094 3 57.264602661132812
v -28.759666442871094 3 60.064117431640625
v -26.296215057373047 0 60.064117431640625
v -26.296215057373047 3 60.064117431640625
v -26.296215057373047 0 57.264602661132812
v -26.296215057373047 3 57.264602661132812
f 230 232 231 229
f 233 234 232 230
f 235 236 234 233
f 229 231 236 235
f 231 232 234 236
f 230 229 235 233
g bathroom_00
v -16.912059783935547 0 48.814964294433594
v -16.912059783935547 0 54.970748901367188
v -16.912059783935547 3 48.814964294433594
v -16.912059783935547 3 54.970748901367188
v -14.442090034484863 0 54.970748901367188
v -14.442090034484863 3 54.970748901367188
v -14.442090034484863 0 48.814964294433594
v -14.442090034484863 3 48.814964294433594
f 238 240 239 237
f 241 242 240 238
f 243 244 242 241
f 237 239 244 243
f 239 240 242 244
f 238 237 243 241
g balcony_04
v -45.779438018798828 0 47.532363891601562
v -45.779438018798828 0 52.359951019287109
v -45.779438018798828 3 47.532363891601562
v -45.779438018798828 3 52.359951019287109
v -42.001728057861328 0 52.359951019287109
v -42.001728057861328 3 52.359951019287109
v -42.001728057861328 0 47.532363891601562
v -42.001728057861328 3 47.532363891601562
f 246 248 247 245
f 249 250 248 246
f 251 252 250 249
f 245 247 252 251
f 247 248 250 252
f 246 245 251 249
g balcony_03
v -40.770523071289062 0 64.297866821289062
v -40.770523071289062 0 65.708999633789062
v -40.770523071289062 3 64.297866821289062
v -40.770523071289062 3 65.708999633789062
v -36.382499694824219 0 65.708999633789062
v -36.382499694824219 3 65.708999633789062
v -36.382499694824219 0 64.297866821289062
v -36.382499694824219 3 64.297866821289062
f 254 256 255 253
f 257 258 256 254
f 259 260 258 257
f 253 255 260 259
f 255 256 258 260
f 254 253 259 257
g balcony_02
v -32.076206207275391 0 47.407501220703125
v -32.076206207275391 0 48.814964294433594
v -32.076206207275391 3 47.407501220703125
v -32.076206207275391 3 48.814964294433594
v -29.913318634033203 0 48.814964294433594
v -29.913318634033203 3 48.814964294433594
v -29.913318634033203 0 47.407501220703125
v -29.913318634033203 3 47.407501220703125
f 262 264 263 261
f 265 266 264 262
f 267 268 266 265
f 261 263 268 267
f 263 264 266 268
f 262 261 267 265
g balcony_01
v -14.036338806152344 0 47.407501220703125
v -14.036338806152344 0 48.814964294433594
v -14.036338806152344 3 47.407501220703125
v -14.036338806152344 3 48.814964294433594
v -11.873452186584473 0 48.814964294433594
v -11.873452186584473 3 48.814964294433594
v -11.873452186584473 0 47.407501220703125
v -11.873452186584473 3 47.407501220703125
f 270 272 271 269
f 273 274 272 270
f 275 276 274 273
f 269 271 276 275
f 271 272 274 276
f 270 269 275 273
g balcony_00
v -13.862190246582031 0 60.7376708984375
v -13.862190246582031 0 64.534889221191406
v -13.862190246582031 3 60.7376708984375
v -13.862190246582031 3 64.534889221191406
v -8.7965841293334961 0 64.534889221191406
v -8.7965841293334961 3 64.534889221191406
v -8.7965841293334961 0 60.7376708984375
v -8.7965841293334961 3 60.7376708984375
f 278 280 279 277
f 281 282 280 278
f 283 284 282 281
f 277 279 284 283
f 279 280 282 284
f 278 277 283 281
