# Rhino

g balcony_00
v -0.914867103099823 0 157.72207641601562
v -0.914867103099823 0 159.8228759765625
v -0.914867103099823 3 157.72207641601562
v -0.914867103099823 3 159.8228759765625
v 2.6871652603149414 0 159.8228759765625
v 2.6871652603149414 3 159.8228759765625
v 2.6871652603149414 0 157.72207641601562
v 2.6871652603149414 3 157.72207641601562
f 2 4 3 1
f 5 6 4 2
f 7 8 6 5
f 1 3 8 7
f 3 4 6 8
f 2 1 7 5
g balcony_01
v 10.614775657653809 0 157.72207641601562
v 10.614775657653809 0 159.8228759765625
v 10.614775657653809 3 157.72207641601562
v 10.614775657653809 3 159.8228759765625
v 15.30706787109375 0 159.8228759765625
v 15.30706787109375 3 159.8228759765625
v 15.30706787109375 0 157.72207641601562
v 15.30706787109375 3 157.72207641601562
f 10 12 11 9
f 13 14 12 10
f 15 16 14 13
f 9 11 16 15
f 11 12 14 16
f 10 9 15 13
g balcony_02
v 21.618207931518555 0 157.72207641601562
v 21.618207931518555 0 159.8228759765625
v 21.618207931518555 3 157.72207641601562
v 21.618207931518555 3 159.8228759765625
v 26.774908065795898 0 159.8228759765625
v 26.774908065795898 3 159.8228759765625
v 26.774908065795898 0 157.72207641601562
v 26.774908065795898 3 157.72207641601562
f 18 20 19 17
f 21 22 20 18
f 23 24 22 21
f 17 19 24 23
f 19 20 22 24
f 18 17 23 21
g balcony_03
v 32.92999267578125 0 157.72476196289062
v 32.92999267578125 0 159.8228759765625
v 32.92999267578125 3 157.72476196289062
v 32.92999267578125 3 159.8228759765625
v 36.562099456787109 0 159.8228759765625
v 36.562099456787109 3 159.8228759765625
v 36.562099456787109 0 157.72476196289062
v 36.562099456787109 3 157.72476196289062
f 26 28 27 25
f 29 30 28 26
f 31 32 30 29
f 25 27 32 31
f 27 28 30 32
f 26 25 31 29
g balcony_04
v 48.436508178710938 0 157.72207641601562
v 48.436508178710938 0 159.8228759765625
v 48.436508178710938 3 157.72207641601562
v 48.436508178710938 3 159.8228759765625
v 51.082820892333984 0 159.8228759765625
v 51.082820892333984 3 159.8228759765625
v 51.082820892333984 0 157.72207641601562
v 51.082820892333984 3 157.72207641601562
f 34 36 35 33
f 37 38 36 34
f 39 40 38 37
f 33 35 40 39
f 35 36 38 40
f 34 33 39 37
g balcony_05
v 54.711917877197266 0 157.72207641601562
v 54.711917877197266 0 159.8228759765625
v 54.711917877197266 3 157.72207641601562
v 54.711917877197266 3 159.8228759765625
v 57.306556701660156 0 159.8228759765625
v 57.306556701660156 3 159.8228759765625
v 57.306556701660156 0 157.72207641601562
v 57.306556701660156 3 157.72207641601562
f 42 44 43 41
f 45 46 44 42
f 47 48 46 45
f 41 43 48 47
f 43 44 46 48
f 42 41 47 45
g balcony_06
v 60.378978729248047 0 151.94264221191406
v 60.378978729248047 0 157.72207641601562
v 60.378978729248047 3 151.94264221191406
v 60.378978729248047 3 157.72207641601562
v 62.408565521240234 0 157.72207641601562
v 62.408565521240234 3 157.72207641601562
v 62.408565521240234 0 151.94264221191406
v 62.408565521240234 3 151.94264221191406
f 50 52 51 49
f 53 54 52 50
f 55 56 54 53
f 49 51 56 55
f 51 52 54 56
f 50 49 55 53
g balcony_07
v 27.926931381225586 0 157.72207641601562
v 27.926931381225586 0 159.8228759765625
v 27.926931381225586 3 157.72207641601562
v 27.926931381225586 3 159.8228759765625
v 30.947296142578125 0 159.8228759765625
v 30.947296142578125 3 159.8228759765625
v 30.947296142578125 0 157.72207641601562
v 30.947296142578125 3 157.72207641601562
f 58 60 59 57
f 61 62 60 58
f 63 64 62 61
f 57 59 64 63
f 59 60 62 64
f 58 57 63 61
g balcony_08
v 43.229331970214844 0 157.72207641601562
v 43.229331970214844 0 159.83406066894531
v 43.229331970214844 3 157.72207641601562
v 43.229331970214844 3 159.83406066894531
v 47.401142120361328 0 159.83406066894531
v 47.401142120361328 3 159.83406066894531
v 47.401142120361328 0 157.72207641601562
v 47.401142120361328 3 157.72207641601562
f 66 68 67 65
f 69 70 68 66
f 71 72 70 69
f 65 67 72 71
f 67 68 70 72
f 66 65 71 69
g balcony_09
v -3.0371315479278564 0 148.99002075195312
v -3.0371315479278564 0 154.866455078125
v -3.0371315479278564 3 148.99002075195312
v -3.0371315479278564 3 154.866455078125
v -1.0154860019683838 0 154.866455078125
v -1.0154860019683838 3 154.866455078125
v -1.0154860019683838 0 148.99002075195312
v -1.0154860019683838 3 148.99002075195312
f 74 76 75 73
f 77 78 76 74
f 79 80 78 77
f 73 75 80 79
f 75 76 78 80
f 74 73 79 77
g bath_00
v 27.878721237182617 0 148.93827819824219
v 27.878721237182617 0 151.60325622558594
v 27.878721237182617 3 148.93827819824219
v 27.878721237182617 3 151.60325622558594
v 30.242965698242188 0 151.60325622558594
v 30.242965698242188 3 151.60325622558594
v 30.242965698242188 0 148.93827819824219
v 30.242965698242188 3 148.93827819824219
f 82 84 83 81
f 85 86 84 82
f 87 88 86 85
f 81 83 88 87
f 83 84 86 88
f 82 81 87 85
g bath_01
v 4.0151500701904297 0 148.99002075195312
v 4.0151500701904297 0 152.03509521484375
v 4.0151500701904297 3 148.99002075195312
v 4.0151500701904297 3 152.03509521484375
v 7.6855993270874023 0 152.03509521484375
v 7.6855993270874023 3 152.03509521484375
v 7.6855993270874023 0 148.99002075195312
v 7.6855993270874023 3 148.99002075195312
f 90 92 91 89
f 93 94 92 90
f 95 96 94 93
f 89 91 96 95
f 91 92 94 96
f 90 89 95 93
g bath_02
v 47.996036529541016 0 148.96481323242188
v 47.996036529541016 0 151.98210144042969
v 47.996036529541016 3 148.96481323242188
v 47.996036529541016 3 151.98210144042969
v 50.318172454833984 0 151.98210144042969
v 50.318172454833984 3 151.98210144042969
v 50.318172454833984 0 148.96481323242188
v 50.318172454833984 3 148.96481323242188
f 98 100 99 97
f 101 102 100 98
f 103 104 102 101
f 97 99 104 103
f 99 100 102 104
f 98 97 103 101
g bath_03
v 51.790805816650391 0 151.98210144042969
v 51.790805816650391 0 149.77236938476562
v 51.790805816650391 3 151.98210144042969
v 51.790805816650391 3 149.77236938476562
v 53.147529602050781 0 149.77236938476562
v 53.147529602050781 3 149.77236938476562
v 53.147529602050781 0 150.31657409667969
v 53.147529602050781 3 150.31657409667969
v 55.446399688720703 0 150.31657409667969
v 55.446399688720703 3 150.31657409667969
v 55.446399688720703 0 151.98210144042969
v 55.446399688720703 3 151.98210144042969
f 108 107 116 114 112 110
f 105 106 109 111 113 115
f 106 105 107 108
f 109 106 108 110
f 111 109 110 112
f 113 111 112 114
f 115 113 114 116
f 105 115 116 107
g bath_04
v 34.655662536621094 0 148.93827819824219
v 34.655662536621094 0 151.98210144042969
v 34.655662536621094 3 148.93827819824219
v 34.655662536621094 3 151.98210144042969
v 37.773262023925781 0 151.98210144042969
v 37.773262023925781 3 151.98210144042969
v 37.773262023925781 0 149.82904052734375
v 37.773262023925781 3 149.82904052734375
v 36.662269592285156 0 149.82904052734375
v 36.662269592285156 3 149.82904052734375
v 36.662269592285156 0 148.93827819824219
v 36.662269592285156 3 148.93827819824219
f 119 120 122 124 126 128
f 118 117 127 125 123 121
f 118 120 119 117
f 121 122 120 118
f 123 124 122 121
f 125 126 124 123
f 127 128 126 125
f 117 119 128 127
g bath_05
v 39.261180877685547 0 151.98210144042969
v 39.261180877685547 0 148.9400634765625
v 39.261180877685547 3 151.98210144042969
v 39.261180877685547 3 148.9400634765625
v 40.773754119873047 0 148.9400634765625
v 40.773754119873047 3 148.9400634765625
v 40.773754119873047 0 149.34591674804688
v 40.773754119873047 3 149.34591674804688
v 41.675609588623047 0 149.34591674804688
v 41.675609588623047 3 149.34591674804688
v 41.675609588623047 0 149.7086181640625
v 41.675609588623047 3 149.7086181640625
v 42.837543487548828 0 149.7086181640625
v 42.837543487548828 3 149.7086181640625
v 42.837543487548828 0 151.98210144042969
v 42.837543487548828 3 151.98210144042969
f 136 134 132 131 144 142 140 138
f 129 130 133 135 137 139 141 143
f 130 129 131 132
f 133 130 132 134
f 135 133 134 136
f 137 135 136 138
f 139 137 138 140
f 141 139 140 142
f 143 141 142 144
f 129 143 144 131
g bath_06
v 24.38337516784668 0 149.95799255371094
v 24.38337516784668 0 152.03529357910156
v 24.38337516784668 3 149.95799255371094
v 24.38337516784668 3 152.03529357910156
v 27.878721237182617 0 152.03529357910156
v 27.878721237182617 3 152.03529357910156
v 27.878721237182617 0 149.95799255371094
v 27.878721237182617 3 149.95799255371094
f 146 148 147 145
f 149 150 148 146
f 151 152 150 149
f 145 147 152 151
f 147 148 150 152
f 146 145 151 149
g bedroom_00
v 9.418217658996582 0 157.72207641601562
v 9.418217658996582 0 152.03526306152344
v 9.418217658996582 3 157.72207641601562
v 9.418217658996582 3 152.03526306152344
v 9.418217658996582 0 150.29449462890625
v 9.418217658996582 3 150.29449462890625
v 7.6855993270874023 0 150.29449462890625
v 7.6855993270874023 3 150.29449462890625
v 7.6855993270874023 0 152.03526306152344
v 7.6855993270874023 3 152.03526306152344
v 5.9798989295959473 0 152.03526306152344
v 5.9798989295959473 3 152.03526306152344
v 5.9798989295959473 0 157.72207641601562
v 5.9798989295959473 3 157.72207641601562
f 162 164 166 155 156 158 160
f 165 163 161 159 157 154 153
f 154 156 155 153
f 157 158 156 154
f 159 160 158 157
f 161 162 160 159
f 163 164 162 161
f 165 166 164 163
f 153 155 166 165
g bedroom_01
v 9.418217658996582 0 152.03526306152344
v 9.418217658996582 0 157.72207641601562
v 9.418217658996582 3 152.03526306152344
v 9.418217658996582 3 157.72207641601562
v 12.65330696105957 0 157.72207641601562
v 12.65330696105957 3 157.72207641601562
v 12.65330696105957 0 152.03526306152344
v 12.65330696105957 3 152.03526306152344
f 168 170 169 167
f 171 172 170 168
f 173 174 172 171
f 167 169 174 173
f 169 170 172 174
f 168 167 173 171
g bedroom_02
v 24.893037796020508 0 152.03529357910156
v 24.893037796020508 0 157.72207641601562
v 24.893037796020508 3 152.03529357910156
v 24.893037796020508 3 157.72207641601562
v 27.878721237182617 0 157.72207641601562
v 27.878721237182617 3 157.72207641601562
v 27.878721237182617 0 152.03529357910156
v 27.878721237182617 3 152.03529357910156
f 176 178 177 175
f 179 180 178 176
f 181 182 180 179
f 175 177 182 181
f 177 178 180 182
f 176 175 181 179
g bedroom_03
v 47.996036529541016 0 151.98210144042969
v 47.996036529541016 0 157.72207641601562
v 47.996036529541016 3 151.98210144042969
v 47.996036529541016 3 157.72207641601562
v 51.790805816650391 0 157.72207641601562
v 51.790805816650391 3 157.72207641601562
v 51.790805816650391 0 151.98210144042969
v 51.790805816650391 3 151.98210144042969
f 184 186 185 183
f 187 188 186 184
f 189 190 188 187
f 183 185 190 189
f 185 186 188 190
f 184 183 189 187
g bedroom_04
v 56.866851806640625 0 148.13546752929688
v 56.866851806640625 0 151.98210144042969
v 56.866851806640625 3 148.13546752929688
v 56.866851806640625 3 151.98210144042969
v 60.378978729248047 0 151.98210144042969
v 60.378978729248047 3 151.98210144042969
v 60.378978729248047 0 148.13546752929688
v 60.378978729248047 3 148.13546752929688
f 192 194 193 191
f 195 196 194 192
f 197 198 196 195
f 191 193 198 197
f 193 194 196 198
f 192 191 197 195
g bedroom_05
v 5.3918709754943848 0 144.01686096191406
v 5.3918709754943848 0 147.61880493164062
v 5.3918709754943848 3 144.01686096191406
v 5.3918709754943848 3 147.61880493164062
v 9.418217658996582 0 147.61880493164062
v 9.418217658996582 3 147.61880493164062
v 9.418217658996582 0 144.01686096191406
v 9.418217658996582 3 144.01686096191406
f 200 202 201 199
f 203 204 202 200
f 205 206 204 203
f 199 201 206 205
f 201 202 204 206
f 200 199 205 203
g bedroom_06
v 44.684249877929688 0 144.01686096191406
v 44.684249877929688 0 148.96481323242188
v 44.684249877929688 3 144.01686096191406
v 44.684249877929688 3 148.96481323242188
v 47.996036529541016 0 148.96481323242188
v 47.996036529541016 3 148.96481323242188
v 47.996036529541016 0 144.01686096191406
v 47.996036529541016 3 144.01686096191406
f 208 210 209 207
f 211 212 210 208
f 213 214 212 211
f 207 209 214 213
f 209 210 212 214
f 208 207 213 211
g bedroom_07
v 54.771263122558594 0 147.51155090332031
v 54.771263122558594 0 144.01686096191406
v 54.771263122558594 3 147.51155090332031
v 54.771263122558594 3 144.01686096191406
v 51.790805816650391 0 144.01686096191406
v 51.790805816650391 3 144.01686096191406
v 51.790805816650391 0 148.96481323242188
v 51.790805816650391 3 148.96481323242188
v 54.177036285400391 0 148.99864196777344
v 54.177036285400391 3 148.99864196777344
v 54.177036285400391 0 147.51155090332031
v 54.177036285400391 3 147.51155090332031
f 220 222 224 226 217 218
f 221 219 216 215 225 223
f 216 218 217 215
f 219 220 218 216
f 221 222 220 219
f 223 224 222 221
f 225 226 224 223
f 215 217 226 225
g bedroom_08
v 56.866851806640625 0 144.01686096191406
v 56.866851806640625 0 148.13546752929688
v 56.866851806640625 3 144.01686096191406
v 56.866851806640625 3 148.13546752929688
v 60.378978729248047 0 148.13546752929688
v 60.378978729248047 3 148.13546752929688
v 60.379215240478516 0 144.01686096191406
v 60.379215240478516 3 144.01686096191406
f 228 230 229 227
f 231 232 230 228
f 233 234 232 231
f 227 229 234 233
f 230 232 234 229
f 231 228 227 233
g bedroom_09
v 36.926548004150391 0 144.01686096191406
v 36.926548004150391 0 148.93827819824219
v 36.926548004150391 3 144.01686096191406
v 36.926548004150391 3 148.93827819824219
v 39.261180877685547 0 148.93827819824219
v 39.261180877685547 3 148.93827819824219
v 39.261180877685547 0 144.01686096191406
v 39.261180877685547 3 144.01686096191406
f 236 238 237 235
f 239 240 238 236
f 241 242 240 239
f 235 237 242 241
f 237 238 240 242
f 236 235 241 239
g bedroom_10
v 42.837543487548828 0 144.01686096191406
v 39.261180877685547 0 144.01686096191406
v 42.837543487548828 3 144.01686096191406
v 39.261180877685547 3 144.01686096191406
v 39.261180877685547 0 148.9400634765625
v 39.261180877685547 3 148.9400634765625
v 40.773754119873047 0 148.9400634765625
v 40.773754119873047 3 148.9400634765625
v 40.773754119873047 0 147.73600769042969
v 40.773754119873047 3 147.73600769042969
v 42.837543487548828 0 147.73600769042969
v 42.837543487548828 3 147.73600769042969
f 246 248 250 252 254 245
f 247 244 243 253 251 249
f 244 246 245 243
f 247 248 246 244
f 249 250 248 247
f 251 252 250 249
f 253 254 252 251
f 243 245 254 253
g corridor_00
v 30.242965698242188 0 148.93827819824219
v 30.242965698242188 0 151.60325622558594
v 30.242965698242188 3 148.93827819824219
v 30.242965698242188 3 151.60325622558594
v 31.598716735839844 0 151.60325622558594
v 31.598716735839844 3 151.60325622558594
v 31.598716735839844 0 148.93827819824219
v 31.598716735839844 3 148.93827819824219
f 256 258 257 255
f 259 260 258 256
f 261 262 260 259
f 255 257 262 261
f 257 258 260 262
f 256 255 261 259
g corridor_01
v 50.318172454833984 0 148.96481323242188
v 50.318172454833984 0 151.98210144042969
v 50.318172454833984 3 148.96481323242188
v 50.318172454833984 3 151.98210144042969
v 51.790805816650391 0 151.98210144042969
v 51.790805816650391 3 151.98210144042969
v 51.790805816650391 0 148.96481323242188
v 51.790805816650391 3 148.96481323242188
f 264 266 265 263
f 267 268 266 264
f 269 270 268 267
f 263 265 270 269
f 265 266 268 270
f 264 263 269 267
g corridor_02
v 42.837543487548828 0 144.01686096191406
v 42.837543487548828 0 151.98210144042969
v 42.837543487548828 3 144.01686096191406
v 42.837543487548828 3 151.98210144042969
v 44.684249877929688 0 151.98210144042969
v 44.684249877929688 3 151.98210144042969
v 44.684249877929688 0 144.01686096191406
v 44.684249877929688 3 144.01686096191406
f 272 274 273 271
f 275 276 274 272
f 277 278 276 275
f 271 273 278 277
f 273 274 276 278
f 272 271 277 275
g corridor_03
v 55.446399688720703 0 147.51155090332031
v 55.446399688720703 0 151.98210144042969
v 55.446399688720703 3 147.51155090332031
v 55.446399688720703 3 151.98210144042969
v 55.446399688720703 0 148.99864196777344
v 55.446399688720703 3 148.99864196777344
v 56.866851806640625 0 151.98210144042969
v 56.866851806640625 3 151.98210144042969
v 56.866851806640625 0 144.01686096191406
v 56.866851806640625 3 144.01686096191406
v 56.866851806640625 3 148.99864196777344
v 56.866851806640625 0 148.99864196777344
v 56.866851806640625 0.69724136590957642 147.99948120117188
v 56.866851806640625 2.3027586936950684 147.99948120117188
v 54.771263122558594 0 144.01686096191406
v 54.771263122558594 3 144.01686096191406
v 54.771263122558594 0 147.51155090332031
v 54.771263122558594 3 147.51155090332031
f 284 281 279 283 280 282
f 285 290 287 288 289 286
f 284 282 286 289 288 294 296 281
f 279 295 293 287 290 285 280 283
f 285 286 282 280
f 293 294 288 287
f 295 296 294 293
f 279 281 296 295
g corridor_04
v 17.777011871337891 0 148.05575561523438
v 17.777011871337891 0 152.03526306152344
v 17.777011871337891 3 148.05575561523438
v 17.777011871337891 3 152.03526306152344
v 19.886299133300781 0 152.03526306152344
v 19.886299133300781 3 152.03526306152344
v 19.886299133300781 0 148.05575561523438
v 19.886299133300781 3 148.05575561523438
f 298 300 299 297
f 301 302 300 298
f 303 304 302 301
f 297 299 304 303
f 299 300 302 304
f 298 297 303 301
g corridor_05
v 60.379215240478516 0 144.01686096191406
v -1.0154860019683838 0 144.01686096191406
v 60.379215240478516 3 144.01686096191406
v -1.0154860019683838 3 144.01686096191406
v -1.0154860019683838 0 140.98698425292969
v -1.0154860019683838 3 140.98698425292969
v 0.1677834540605545 0 140.98698425292969
v 0.1677834540605545 3 140.98698425292969
v 0.1677834540605545 0 142.33001708984375
v 0.1677834540605545 3 142.33001708984375
v 5.8827428817749023 0 142.33001708984375
v 5.8827428817749023 3 142.33001708984375
v 5.8827428817749023 0 140.98698425292969
v 5.8827428817749023 3 140.98698425292969
v 10.228760719299316 0 140.98698425292969
v 10.228760719299316 3 140.98698425292969
v 10.228759765625 0 141.27937316894531
v 10.228759765625 3 141.27937316894531
v 15.566107749938965 0 141.27937316894531
v 15.566107749938965 3 141.27937316894531
v 15.566108703613281 0 142.33001708984375
v 15.566108703613281 3 142.33001708984375
v 20.287899017333984 0 142.33001708984375
v 20.287899017333984 3 142.33001708984375
v 20.287899017333984 0 141.27937316894531
v 20.287899017333984 3 141.27937316894531
v 28.017543792724609 0 141.27937316894531
v 28.017543792724609 3 141.27937316894531
v 28.017543792724609 0 142.33001708984375
v 28.017543792724609 3 142.33001708984375
v 34.051540374755859 0 142.33001708984375
v 34.051540374755859 3 142.33001708984375
v 34.051540374755859 0 141.27937316894531
v 34.051540374755859 3 141.27937316894531
v 39.408653259277344 0 141.27937316894531
v 39.408653259277344 3 141.27937316894531
v 39.408653259277344 0 142.33001708984375
v 39.408653259277344 3 142.33001708984375
v 44.401279449462891 0 142.33001708984375
v 44.401279449462891 3 142.33001708984375
v 44.401279449462891 0 141.27937316894531
v 44.401279449462891 3 141.27937316894531
v 49.600772857666016 0 141.27937316894531
v 49.600772857666016 3 141.27937316894531
v 49.600772857666016 0 140.97193908691406
v 49.600772857666016 3 140.97193908691406
v 49.600772857666016 1.5 141.2025146484375
v 49.600772857666016 2.25 141.2025146484375
v 49.600772857666016 1.5 141.24093627929688
v 49.600772857666016 2.25 141.24093627929688
v 49.600772857666016 1.5 141.04879760742188
v 49.600772857666016 1.5 141.01036071777344
v 49.600772857666016 2.25 141.04879760742188
v 49.600772857666016 2.25 141.01036071777344
v 49.600772857666016 0.75 141.04879760742188
v 49.600772857666016 0.75 141.01036071777344
v 49.600772857666016 0.75 141.2025146484375
v 49.600772857666016 0.75 141.24093627929688
v 53.469470977783203 0 140.97193908691406
v 53.469470977783203 3 140.97193908691406
v 53.469470977783203 0 142.33001708984375
v 53.469470977783203 3 142.33001708984375
v 59.240692138671875 0 142.33001708984375
v 59.240692138671875 3 142.33001708984375
v 59.240692138671875 0 140.97193908691406
v 59.240692138671875 3 140.97193908691406
v 60.379447937011719 0 140.97193908691406
v 60.379447937011719 3 140.97193908691406
f 349 347 348 350
f 318 316 314 312 310 308 307 372 370 368 366 364 350 348 346 344 342 340 338 336 334 332 330 328 326 324 322 320
f 313 315 317 319 321 323 325 327 329 331 333 335 337 339 341 343 345 347 349 363 365 367 369 371 305 306 309 311
f 306 305 307 308
f 309 306 308 310
f 311 309 310 312
f 313 311 312 314
f 315 313 314 316
f 317 315 316 318
f 319 317 318 320
f 321 319 320 322
f 323 321 322 324
f 325 323 324 326
f 327 325 326 328
f 329 327 328 330
f 331 329 330 332
f 333 331 332 334
f 335 333 334 336
f 337 335 336 338
f 339 337 338 340
f 341 339 340 342
f 343 341 342 344
f 345 343 344 346
f 347 345 346 348
f 363 349 350 364
f 365 363 364 366
f 367 365 366 368
f 369 367 368 370
f 371 369 370 372
f 305 371 372 307
g corridor_06
v 32.819953918457031 0 148.93827819824219
v 32.819953918457031 0 151.98210144042969
v 32.819953918457031 3 148.93827819824219
v 32.819953918457031 3 151.98210144042969
v 34.655662536621094 0 151.98210144042969
v 34.655662536621094 3 151.98210144042969
v 34.655662536621094 0 148.93827819824219
v 34.655662536621094 3 148.93827819824219
f 374 376 375 373
f 377 378 376 374
f 379 380 378 377
f 373 375 380 379
f 375 376 378 380
f 374 373 379 377
g corridor_07
v 37.773262023925781 0 148.93827819824219
v 37.773262023925781 0 151.98210144042969
v 37.773262023925781 3 148.93827819824219
v 37.773262023925781 3 151.98210144042969
v 39.261180877685547 0 151.98210144042969
v 39.261180877685547 3 151.98210144042969
v 39.261180877685547 0 148.93827819824219
v 39.261180877685547 3 148.93827819824219
f 382 384 383 381
f 385 386 384 382
f 387 388 386 385
f 381 383 388 387
f 383 384 386 388
f 382 381 387 385
g elevator_00
v 25.593233108520508 0 144.01686096191406
v 25.593233108520508 0 146.92185974121094
v 25.593233108520508 3 144.01686096191406
v 25.593233108520508 3 146.92185974121094
v 27.878721237182617 0 146.92185974121094
v 27.878721237182617 3 146.92185974121094
v 27.878721237182617 0 144.01686096191406
v 27.878721237182617 3 144.01686096191406
f 390 392 391 389
f 393 394 392 390
f 395 396 394 393
f 389 391 396 395
f 391 392 394 396
f 390 389 395 393
g kitchen_00
v 12.65330696105957 0 148.84513854980469
v 16.503156661987305 0 148.84513854980469
v 12.65330696105957 3 148.84513854980469
v 16.503156661987305 3 148.84513854980469
v 16.503156661987305 0 149.76286315917969
v 16.503156661987305 3 149.76286315917969
v 17.777011871337891 0 149.76286315917969
v 17.777011871337891 3 149.76286315917969
v 17.777011871337891 0 152.03526306152344
v 17.777011871337891 3 152.03526306152344
v 12.65330696105957 0 152.03526306152344
v 12.65330696105957 3 152.03526306152344
f 399 408 406 404 402 400
f 407 397 398 401 403 405
f 398 397 399 400
f 401 398 400 402
f 403 401 402 404
f 405 403 404 406
f 407 405 406 408
f 397 407 408 399
g kitchen_01
v 44.684249877929688 0 148.96481323242188
v 44.684249877929688 0 151.98210144042969
v 44.684249877929688 3 148.96481323242188
v 44.684249877929688 3 151.98210144042969
v 47.996036529541016 0 151.98210144042969
v 47.996036529541016 3 151.98210144042969
v 47.996036529541016 0 149.89541625976562
v 47.996036529541016 3 149.89541625976562
v 46.672824859619141 0 149.89541625976562
v 46.672824859619141 3 149.89541625976562
v 46.672824859619141 0 148.96481323242188
v 46.672824859619141 3 148.96481323242188
f 411 412 414 416 418 420
f 410 409 419 417 415 413
f 410 412 411 409
f 413 414 412 410
f 415 416 414 413
f 417 418 416 415
f 419 420 418 417
f 409 411 420 419
g kitchen_02
v 51.790805816650391 0 151.98210144042969
v 51.790805816650391 0 157.72207641601562
v 51.790805816650391 3 151.98210144042969
v 51.790805816650391 3 157.72207641601562
v 55.446399688720703 0 157.72207641601562
v 55.446399688720703 3 157.72207641601562
v 55.446399688720703 0 151.98210144042969
v 55.446399688720703 3 151.98210144042969
f 422 424 423 421
f 425 426 424 422
f 427 428 426 425
f 421 423 428 427
f 423 424 426 428
f 422 421 427 425
g kitchen_03
v 27.878721237182617 0 157.72207641601562
v 27.878721237182617 0 151.60325622558594
v 27.878721237182617 3 157.72207641601562
v 27.878721237182617 3 151.60325622558594
v 31.598716735839844 0 151.60325622558594
v 31.598716735839844 3 151.60325622558594
v 31.598716735839844 0 151.98210144042969
v 31.598716735839844 3 151.98210144042969
v 33.151008605957031 0 151.98210144042969
v 33.151008605957031 3 151.98210144042969
v 33.151008605957031 0 157.72207641601562
v 33.151008605957031 3 157.72207641601562
f 432 431 440 438 436 434
f 429 430 433 435 437 439
f 430 429 431 432
f 433 430 432 434
f 435 433 434 436
f 437 435 436 438
f 439 437 438 440
f 429 439 440 431
g kitchen_04
v 33.151008605957031 0 157.72207641601562
v 33.151008605957031 0 151.98210144042969
v 33.151008605957031 3 157.72207641601562
v 33.151008605957031 3 151.98210144042969
v 39.261180877685547 0 151.98210144042969
v 39.261180877685547 3 151.98210144042969
v 39.261180877685547 0 157.72207641601562
v 39.261180877685547 3 157.72207641601562
f 442 441 443 444
f 445 442 444 446
f 447 445 446 448
f 441 447 448 443
f 443 448 446 444
f 442 445 447 441
g kitchen_05
v -1.0154860019683838 0 148.99002075195312
v -1.0154860019683838 0 152.03509521484375
v -1.0154860019683838 3 148.99002075195312
v -1.0154860019683838 3 152.03509521484375
v 4.0151500701904297 0 152.03509521484375
v 4.0151500701904297 3 152.03509521484375
v 4.0151500701904297 0 148.99002075195312
v 4.0151500701904297 3 148.99002075195312
f 450 452 451 449
f 453 454 452 450
f 455 456 454 453
f 449 451 456 455
f 451 452 454 456
f 450 449 455 453
g kitchen_06
v 47.996036529541016 0 144.01686096191406
v 47.996036529541016 0 148.96481323242188
v 47.996036529541016 3 144.01686096191406
v 47.996036529541016 3 148.96481323242188
v 51.790805816650391 0 148.96481323242188
v 51.790805816650391 3 148.96481323242188
v 51.790805816650391 0 144.01686096191406
v 51.790805816650391 3 144.01686096191406
f 458 460 459 457
f 461 462 460 458
f 463 464 462 461
f 457 459 464 463
f 459 460 462 464
f 458 457 463 461
g kitchen_07
v 19.886299133300781 0 148.05575561523438
v 19.886299133300781 0 152.03529357910156
v 19.886299133300781 3 148.05575561523438
v 19.886299133300781 3 152.03529357910156
v 24.38337516784668 0 152.03529357910156
v 24.38337516784668 3 152.03529357910156
v 24.38337516784668 0 148.93827819824219
v 24.38337516784668 3 148.93827819824219
v 20.607133865356445 0 148.93827819824219
v 20.607133865356445 3 148.93827819824219
v 20.607133865356445 0 148.05575561523438
v 20.607133865356445 3 148.05575561523438
f 467 468 470 472 474 476
f 466 465 475 473 471 469
f 466 468 467 465
f 469 470 468 466
f 471 472 470 469
f 473 474 472 471
f 475 476 474 473
f 465 467 476 475
g livingroom_00
v 12.65330696105957 0 152.03526306152344
v 12.65330696105957 0 157.72207641601562
v 12.65330696105957 3 152.03526306152344
v 12.65330696105957 3 157.72207641601562
v 17.777011871337891 0 157.72207641601562
v 17.777011871337891 3 157.72207641601562
v 17.777011871337891 0 152.03526306152344
v 17.777011871337891 3 152.03526306152344
f 478 480 479 477
f 481 482 480 478
f 483 484 482 481
f 477 479 484 483
f 479 480 482 484
f 478 477 483 481
g livingroom_01
v -1.0154860019683838 0 152.03509521484375
v -1.0154860019683838 0 157.72207641601562
v -1.0154860019683838 3 152.03509521484375
v -1.0154860019683838 3 157.72207641601562
v 5.9798989295959473 0 157.72207641601562
v 5.9798989295959473 3 157.72207641601562
v 5.9798989295959473 0 152.03509521484375
v 5.9798989295959473 3 152.03509521484375
f 486 488 487 485
f 489 490 488 486
f 491 492 490 489
f 485 487 492 491
f 487 488 490 492
f 486 485 491 489
g livingroom_02
v 55.446399688720703 0 151.98210144042969
v 55.446399688720703 0 157.72207641601562
v 55.446399688720703 3 151.98210144042969
v 55.446399688720703 3 157.72207641601562
v 60.378978729248047 0 157.72207641601562
v 60.378978729248047 3 157.72207641601562
v 60.378978729248047 0 151.98210144042969
v 60.378978729248047 3 151.98210144042969
f 494 496 495 493
f 497 498 496 494
f 499 500 498 497
f 493 495 500 499
f 495 496 498 500
f 494 493 499 497
g livingroom_03
v 20.610973358154297 0 152.03529357910156
v 20.610973358154297 0 157.72207641601562
v 20.610973358154297 3 152.03529357910156
v 20.610973358154297 3 157.72207641601562
v 24.893037796020508 0 157.72207641601562
v 24.893037796020508 3 157.72207641601562
v 24.893037796020508 0 152.03529357910156
v 24.893037796020508 3 152.03529357910156
f 502 504 503 501
f 505 506 504 502
f 507 508 506 505
f 501 503 508 507
f 503 504 506 508
f 502 501 507 505
g livingroom_04
v -1.0154860019683838 0 144.01686096191406
v 5.3918709754943848 0 144.01686096191406
v -1.0154860019683838 3 144.01686096191406
v 5.3918709754943848 3 144.01686096191406
v 5.3918709754943848 0 147.61880493164062
v 5.3918709754943848 3 147.61880493164062
v 6.0407023429870605 0 147.61880493164062
v 6.0407023429870605 3 147.61880493164062
v 6.0407023429870605 0 148.99002075195312
v 6.0407023429870605 3 148.99002075195312
v -1.0154860019683838 0 148.99002075195312
v -1.0154860019683838 3 148.99002075195312
f 511 520 518 516 514 512
f 519 509 510 513 515 517
f 510 509 511 512
f 513 510 512 514
f 515 513 514 516
f 517 515 516 518
f 519 517 518 520
f 509 519 520 511
g livingroom_05
v 9.418217658996582 0 146.67295837402344
v 9.418217658996582 0 144.01686096191406
v 9.418217658996582 3 146.67295837402344
v 9.418217658996582 3 144.01686096191406
v 17.777011871337891 0 144.01686096191406
v 17.777011871337891 3 144.01686096191406
v 17.777011871337891 0 148.84513854980469
v 17.777011871337891 3 148.84513854980469
v 12.65330696105957 0 148.84513854980469
v 12.65330696105957 3 148.84513854980469
v 12.65330696105957 0 146.67295837402344
v 12.65330696105957 3 146.67295837402344
f 523 532 530 528 526 524
f 531 521 522 525 527 529
f 522 521 523 524
f 525 522 524 526
f 527 525 526 528
f 529 527 528 530
f 531 529 530 532
f 521 531 532 523
g livingroom_06
v 17.777011871337891 0 152.03529357910156
v 17.777011871337891 0 157.72207641601562
v 17.777011871337891 3 152.03529357910156
v 17.777011871337891 3 157.72207641601562
v 20.610973358154297 0 157.72207641601562
v 20.610973358154297 3 157.72207641601562
v 20.610973358154297 0 152.03529357910156
v 20.610973358154297 3 152.03529357910156
f 534 536 535 533
f 537 538 536 534
f 539 540 538 537
f 533 535 540 539
f 535 536 538 540
f 534 533 539 537
g livingroom_07
v 17.777011871337891 0 148.05575561523438
v 17.777011871337891 0 144.01686096191406
v 17.777011871337891 3 148.05575561523438
v 17.777011871337891 3 144.01686096191406
v 25.593233108520508 0 144.01686096191406
v 25.593233108520508 3 144.01686096191406
v 25.593233108520508 0 146.92185974121094
v 25.593233108520508 3 146.92185974121094
v 27.878721237182617 0 146.92185974121094
v 27.878721237182617 3 146.92185974121094
v 27.878721237182617 0 148.93827819824219
v 27.878721237182617 3 148.93827819824219
v 20.607133865356445 0 148.93827819824219
v 20.607133865356445 3 148.93827819824219
v 20.607133865356445 0 148.05575561523438
v 20.607133865356445 3 148.05575561523438
f 543 556 554 552 550 548 546 544
f 553 555 541 542 545 547 549 551
f 542 541 543 544
f 545 542 544 546
f 547 545 546 548
f 549 547 548 550
f 551 549 550 552
f 553 551 552 554
f 555 553 554 556
f 541 555 556 543
g livingroom_08
v 27.878721237182617 0 144.01686096191406
v 27.878721237182617 0 148.93827819824219
v 27.878721237182617 3 144.01686096191406
v 27.878721237182617 3 148.93827819824219
v 33.169910430908203 0 148.93827819824219
v 33.169910430908203 3 148.93827819824219
v 33.169910430908203 0 144.01686096191406
v 33.169910430908203 3 144.01686096191406
f 558 560 559 557
f 561 562 560 558
f 563 564 562 561
f 557 559 564 563
f 559 560 562 564
f 558 557 563 561
g livingroom_09
v 33.169910430908203 0 144.01686096191406
v 33.169910430908203 0 148.93827819824219
v 33.169910430908203 3 144.01686096191406
v 33.169910430908203 3 148.93827819824219
v 36.926548004150391 0 148.93827819824219
v 36.926548004150391 3 148.93827819824219
v 36.926548004150391 0 144.01686096191406
v 36.926548004150391 3 144.01686096191406
f 566 568 567 565
f 569 570 568 566
f 571 572 570 569
f 565 567 572 571
f 567 568 570 572
f 566 565 571 569
g livingroom_10
v 39.261180877685547 0 151.98210144042969
v 39.261180877685547 0 157.72207641601562
v 39.261180877685547 3 151.98210144042969
v 39.261180877685547 3 157.72207641601562
v 47.996036529541016 0 157.72207641601562
v 47.996036529541016 3 157.72207641601562
v 47.996036529541016 0 151.98210144042969
v 47.996036529541016 3 151.98210144042969
f 574 576 575 573
f 577 578 576 574
f 579 580 578 577
f 573 575 580 579
f 575 576 578 580
f 574 573 579 577
g stairs_00
v 0.1677834540605545 0 140.98698425292969
v 0.1677834540605545 0 142.33001708984375
v 0.1677834540605545 3 140.98698425292969
v 0.1677834540605545 3 142.33001708984375
v 5.8827428817749023 0 142.33001708984375
v 5.8827428817749023 3 142.33001708984375
v 5.8827428817749023 0 140.98698425292969
v 5.8827428817749023 3 140.98698425292969
f 582 584 583 581
f 585 586 584 582
f 587 588 586 585
f 581 583 588 587
f 583 584 586 588
f 582 581 587 585
g stairs_01
v 53.469470977783203 0 140.97193908691406
v 53.469470977783203 0 142.33001708984375
v 53.469470977783203 3 140.97193908691406
v 53.469470977783203 3 142.33001708984375
v 59.240692138671875 0 142.33001708984375
v 59.240692138671875 3 142.33001708984375
v 59.240692138671875 0 140.97193908691406
v 59.240692138671875 3 140.97193908691406
f 590 592 591 589
f 593 594 592 590
f 595 596 594 593
f 589 591 596 595
f 591 592 594 596
f 590 589 595 593
g storeroom_00
v 12.65330696105957 0 146.67295837402344
v 12.65330696105957 0 148.84513854980469
v 12.65330696105957 3 146.67295837402344
v 12.65330696105957 3 148.84513854980469
v 11.498333930969238 0 148.84513854980469
v 11.498333930969238 3 148.84513854980469
v 11.498333930969238 0 149.37991333007812
v 11.498333930969238 3 149.37991333007812
v 9.418217658996582 0 149.37991333007812
v 9.418217658996582 3 149.37991333007812
v 9.418217658996582 0 147.82635498046875
v 9.418217658996582 3 147.82635498046875
v 10.586621284484863 0 147.82635498046875
v 10.586621284484863 3 147.82635498046875
v 10.586621284484863 0 146.67295837402344
v 10.586621284484863 3 146.67295837402344
f 608 606 604 602 600 599 612 610
f 605 607 609 611 597 598 601 603
f 598 597 599 600
f 601 598 600 602
f 603 601 602 604
f 605 603 604 606
f 607 605 606 608
f 609 607 608 610
f 611 609 610 612
f 597 611 612 599
g storeroom_01
v 9.418217658996582 0 146.67295837402344
v 9.418217658996582 0 147.82635498046875
v 9.418217658996582 3 146.67295837402344
v 9.418217658996582 3 147.82635498046875
v 10.586621284484863 0 147.82635498046875
v 10.586621284484863 3 147.82635498046875
v 10.586621284484863 0 146.67295837402344
v 10.586621284484863 3 146.67295837402344
f 614 616 615 613
f 617 618 616 614
f 619 620 618 617
f 613 615 620 619
f 615 616 618 620
f 614 613 619 617
g wc_00
v 31.598716735839844 0 149.771728515625
v 31.598716735839844 0 151.98210144042969
v 31.598716735839844 3 149.771728515625
v 31.598716735839844 3 151.98210144042969
v 32.819953918457031 0 151.98210144042969
v 32.819953918457031 3 151.98210144042969
v 32.819953918457031 0 149.771728515625
v 32.819953918457031 3 149.771728515625
f 622 624 623 621
f 625 626 624 622
f 627 628 626 625
f 621 623 628 627
f 623 624 626 628
f 622 621 627 625
g wc_01
v 6.0407023429870605 0 147.61880493164062
v 6.0407023429870605 0 148.99002075195312
v 6.0407023429870605 3 147.61880493164062
v 6.0407023429870605 3 148.99002075195312
v 7.6855993270874023 0 148.99002075195312
v 7.6855993270874023 3 148.99002075195312
v 7.6855993270874023 0 147.61880493164062
v 7.6855993270874023 3 147.61880493164062
f 630 632 631 629
f 633 634 632 630
f 635 636 634 633
f 629 631 636 635
f 631 632 634 636
f 630 629 635 633
g wc_02
v 24.38337516784668 0 148.93827819824219
v 24.38337516784668 0 149.95799255371094
v 24.38337516784668 3 148.93827819824219
v 24.38337516784668 3 149.95799255371094
v 26.455747604370117 0 149.95799255371094
v 26.455747604370117 3 149.95799255371094
v 26.455747604370117 0 148.93827819824219
v 26.455747604370117 3 148.93827819824219
f 638 640 639 637
f 641 642 640 638
f 643 644 642 641
f 637 639 644 643
f 639 640 642 644
f 638 637 643 641
g wc_03
v 40.773754119873047 0 149.34591674804688
v 41.675609588623047 0 149.34591674804688
v 40.773754119873047 3 149.34591674804688
v 41.675609588623047 3 149.34591674804688
v 41.675609588623047 0 148.96481323242188
v 41.675609588623047 3 148.96481323242188
v 42.837543487548828 0 148.96481323242188
v 42.837543487548828 3 148.96481323242188
v 42.837543487548828 0 147.73600769042969
v 42.837543487548828 3 147.73600769042969
v 40.773754119873047 0 147.73600769042969
v 40.773754119873047 3 147.73600769042969
f 656 647 648 650 652 654
f 645 655 653 651 649 646
f 646 648 647 645
f 649 650 648 646
f 651 652 650 649
f 653 654 652 651
f 655 656 654 653
f 645 647 656 655
g wc_04
v 53.147529602050781 0 148.99864196777344
v 53.147529602050781 0 150.31657409667969
v 53.147529602050781 3 148.99864196777344
v 53.147529602050781 3 150.31657409667969
v 55.446399688720703 0 150.31657409667969
v 55.446399688720703 3 150.31657409667969
v 55.446399688720703 0 148.99864196777344
v 55.446399688720703 3 148.99864196777344
f 658 660 659 657
f 661 662 660 658
f 663 664 662 661
f 657 659 664 663
f 659 660 662 664
f 658 657 663 661
g wc_05
v 7.6855993270874023 0 147.61880493164062
v 7.6855993270874023 0 150.29449462890625
v 7.6855993270874023 3 147.61880493164062
v 7.6855993270874023 3 150.29449462890625
v 9.418217658996582 0 150.29449462890625
v 9.418217658996582 3 150.29449462890625
v 9.418217658996582 0 147.61880493164062
v 9.418217658996582 3 147.61880493164062
f 666 668 667 665
f 669 670 668 666
f 671 672 670 669
f 665 667 672 671
f 667 668 670 672
f 666 665 671 669
g wc_06
v 54.177036285400391 0 147.51155090332031
v 54.177036285400391 0 148.99864196777344
v 54.177036285400391 3 147.51155090332031
v 54.177036285400391 3 148.99864196777344
v 55.446399688720703 0 148.99864196777344
v 55.446399688720703 3 148.99864196777344
v 55.446399688720703 0 147.51155090332031
v 55.446399688720703 3 147.51155090332031
f 674 676 675 673
f 677 678 676 674
f 679 680 678 677
f 673 675 680 679
f 675 676 678 680
f 674 673 679 677
g wc_07
v 9.418217658996582 0 149.37991333007812
v 11.498333930969238 0 149.37991333007812
v 9.418217658996582 3 149.37991333007812
v 11.498333930969238 3 149.37991333007812
v 11.498333930969238 0 149.78163146972656
v 11.498333930969238 3 149.78163146972656
v 12.65330696105957 0 149.78163146972656
v 12.65330696105957 3 149.78163146972656
v 12.65330696105957 0 152.03526306152344
v 12.65330696105957 3 152.03526306152344
v 9.418217658996582 0 152.03526306152344
v 9.418217658996582 3 152.03526306152344
f 683 692 690 688 686 684
f 691 681 682 685 687 689
f 682 681 683 684
f 685 682 684 686
f 687 685 686 688
f 689 687 688 690
f 691 689 690 692
f 681 691 692 683
