# Rhino

g object_1
v 24.893037796020508 0 156.36781311035156
v 24.893037796020508 0 157.16781616210938
v 24.893037796020508 2.0999999046325684 156.36781311035156
v 24.893037796020508 2.0999999046325684 157.16781616210938
f 4 2 1 3
g object_2
v 27.135978698730469 0 144.01686096191406
v 26.335977554321289 0 144.01686096191406
v 27.135978698730469 2.0999999046325684 144.01686096191406
v 26.335977554321289 2.0999999046325684 144.01686096191406
f 8 6 5 7
g object_3
v 38.690200805664062 0 144.01686096191406
v 37.89019775390625 0 144.01686096191406
v 38.690200805664062 2.0999999046325684 144.01686096191406
v 37.89019775390625 2.0999999046325684 144.01686096191406
f 12 10 9 11
g object_4
v -1.0154860019683838 0 152.90711975097656
v -1.0154860019683838 0 153.70712280273438
v -1.0154860019683838 2.0999999046325684 152.90711975097656
v -1.0154860019683838 2.0999999046325684 153.70712280273438
f 16 14 13 15
g object_5
v -1.0154860019683838 0 150.72634887695312
v -1.0154860019683838 0 149.92634582519531
v -1.0154860019683838 2.0999999046325684 150.72634887695312
v -1.0154860019683838 2.0999999046325684 149.92634582519531
f 20 18 17 19
g object_6
v 42.837543487548828 0 146.39201354980469
v 42.837543487548828 0 145.59201049804688
v 42.837543487548828 2.0999999046325684 146.39201354980469
v 42.837543487548828 2.0999999046325684 145.59201049804688
f 24 22 21 23
g object_7
v 44.684249877929688 0 147.59590148925781
v 44.684249877929688 0 146.7958984375
v 44.684249877929688 2.0999999046325684 147.59590148925781
v 44.684249877929688 2.0999999046325684 146.7958984375
f 28 26 25 27
g object_8
v 47.996036529541016 0 152.9910888671875
v 47.996036529541016 0 153.79107666015625
v 47.996036529541016 2.0999999046325684 152.9910888671875
v 47.996036529541016 2.0999999046325684 153.79107666015625
f 32 30 29 31
g object_9
v 42.837543487548828 0 148.71156311035156
v 42.837543487548828 0 147.91156005859375
v 42.837543487548828 2.0999999046325684 148.71156311035156
v 42.837543487548828 2.0999999046325684 147.91156005859375
f 36 34 33 35
g object_10
v 36.926548004150391 0 148.84068298339844
v 36.926548004150391 0 148.04067993164062
v 36.926548004150391 2.0999999046325684 148.84068298339844
v 36.926548004150391 2.0999999046325684 148.04067993164062
f 40 38 37 39
g object_11
v 38.117221832275391 0 151.98210144042969
v 38.917221069335938 0 151.98210144042969
v 38.117221832275391 2.0999999046325684 151.98210144042969
v 38.917221069335938 2.0999999046325684 151.98210144042969
f 44 42 41 43
g object_12
v 37.773262023925781 0 150.50556945800781
v 37.773262023925781 0 151.30557250976562
v 37.773262023925781 2.0999999046325684 150.50556945800781
v 37.773262023925781 2.0999999046325684 151.30557250976562
f 48 46 45 47
g object_13
v 31.598716735839844 0 151.36322021484375
v 31.598716735839844 0 150.56321716308594
v 31.598716735839844 2.0999999046325684 151.36322021484375
v 31.598716735839844 2.0999999046325684 150.56321716308594
f 52 50 49 51
g object_14
v 30.242965698242188 0 151.02365112304688
v 30.242965698242188 0 150.22364807128906
v 30.242965698242188 2.0999999046325684 151.02365112304688
v 30.242965698242188 2.0999999046325684 150.22364807128906
f 56 54 53 55
g object_15
v 24.38337516784668 0 151.6728515625
v 24.38337516784668 0 150.87284851074219
v 24.38337516784668 2.0999999046325684 151.6728515625
v 24.38337516784668 2.0999999046325684 150.87284851074219
f 60 58 57 59
g object_16
v 24.38337516784668 0 149.79544067382812
v 24.38337516784668 0 148.99543762207031
v 24.38337516784668 2.0999999046325684 149.79544067382812
v 24.38337516784668 2.0999999046325684 148.99543762207031
f 64 62 61 63
g object_17
v 8.4160327911376953 0 147.61880493164062
v 9.2160329818725586 0 147.61880493164062
v 8.4160327911376953 2.0999999046325684 147.61880493164062
v 9.2160329818725586 2.0999999046325684 147.61880493164062
f 68 66 65 67
g object_18
v 5.7684197425842285 0 152.03509521484375
v 4.9684195518493652 0 152.03509521484375
v 5.7684197425842285 2.0999999046325684 152.03509521484375
v 4.9684195518493652 2.0999999046325684 152.03509521484375
f 72 70 69 71
g object_19
v 12.65330696105957 0 151.30844116210938
v 12.65330696105957 0 150.50845336914062
v 12.65330696105957 2.0999999046325684 151.30844116210938
v 12.65330696105957 2.0999999046325684 150.50845336914062
f 76 74 73 75
g object_20
v 12.65330696105957 0 147.4794921875
v 12.65330696105957 0 148.27949523925781
v 12.65330696105957 2.0999999046325684 147.4794921875
v 12.65330696105957 2.0999999046325684 148.27949523925781
f 80 78 77 79
g object_21
v 10.402419090270996 0 146.67295837402344
v 9.6024188995361328 0 146.67295837402344
v 10.402419090270996 2.0999999046325684 146.67295837402344
v 9.6024188995361328 2.0999999046325684 146.67295837402344
f 84 82 81 83
g object_22
v 10.437820434570312 0 144.01686096191406
v 11.237820625305176 0 144.01686096191406
v 10.437820434570312 2.0999999046325684 144.01686096191406
v 11.237820625305176 2.0999999046325684 144.01686096191406
f 88 86 85 87
g object_23
v 13.437007904052734 0 144.01686096191406
v 14.237008094787598 0 144.01686096191406
v 13.437007904052734 2.0999999046325684 144.01686096191406
v 14.237008094787598 2.0999999046325684 144.01686096191406
f 92 90 89 91
g object_24
v 19.077938079833984 0 144.01686096191406
v 18.277938842773438 0 144.01686096191406
v 19.077938079833984 2.0999999046325684 144.01686096191406
v 18.277938842773438 2.0999999046325684 144.01686096191406
f 96 94 93 95
g object_25
v 22.417984008789062 0 144.01686096191406
v 21.617982864379883 0 144.01686096191406
v 22.417984008789062 2.0999999046325684 144.01686096191406
v 21.617982864379883 2.0999999046325684 144.01686096191406
f 100 98 97 99
g object_26
v 24.823818206787109 0 144.01686096191406
v 24.023818969726562 0 144.01686096191406
v 24.823818206787109 2.0999999046325684 144.01686096191406
v 24.023818969726562 2.0999999046325684 144.01686096191406
f 104 102 101 103
g object_27
v 32.525627136230469 0 144.01686096191406
v 31.725627899169922 0 144.01686096191406
v 32.525627136230469 2.0999999046325684 144.01686096191406
v 31.725627899169922 2.0999999046325684 144.01686096191406
f 108 106 105 107
g object_28
v 40.658859252929688 0 144.01686096191406
v 39.858860015869141 0 144.01686096191406
v 40.658859252929688 2.0999999046325684 144.01686096191406
v 39.858860015869141 2.0999999046325684 144.01686096191406
f 112 110 109 111
g object_29
v 43.904689788818359 0 144.01686096191406
v 43.104686737060547 0 144.01686096191406
v 43.904689788818359 2.0999999046325684 144.01686096191406
v 43.104686737060547 2.0999999046325684 144.01686096191406
f 116 114 113 115
g object_30
v 46.269199371337891 0 144.01686096191406
v 45.469200134277344 0 144.01686096191406
v 46.269199371337891 2.0999999046325684 144.01686096191406
v 45.469200134277344 2.0999999046325684 144.01686096191406
f 120 118 117 119
g object_31
v 49.257759094238281 0 144.01686096191406
v 48.457759857177734 0 144.01686096191406
v 49.257759094238281 2.0999999046325684 144.01686096191406
v 48.457759857177734 2.0999999046325684 144.01686096191406
f 124 122 121 123
g object_32
v 51.191867828369141 0 144.01686096191406
v 50.391864776611328 0 144.01686096191406
v 51.191867828369141 2.0999999046325684 144.01686096191406
v 50.391864776611328 2.0999999046325684 144.01686096191406
f 128 126 125 127
g object_33
v 56.537601470947266 0 144.01686096191406
v 55.737602233886719 0 144.01686096191406
v 56.537601470947266 2.0999999046325684 144.01686096191406
v 55.737602233886719 2.0999999046325684 144.01686096191406
f 132 130 129 131
g object_34
v 54.771263122558594 0 146.52297973632812
v 54.771263122558594 0 147.32298278808594
v 54.771263122558594 2.0999999046325684 146.52297973632812
v 54.771263122558594 2.0999999046325684 147.32298278808594
f 136 134 133 135
g object_35
v 56.866851806640625 0 147.28887939453125
v 56.866851806640625 0 146.48887634277344
v 56.866851806640625 2.0999999046325684 147.28887939453125
v 56.866851806640625 2.0999999046325684 146.48887634277344
f 140 138 137 139
g object_36
v 55.446399688720703 0 148.61888122558594
v 55.446399688720703 0 147.81889343261719
v 55.446399688720703 2.0999999046325684 148.61888122558594
v 55.446399688720703 2.0999999046325684 147.81889343261719
f 144 142 141 143
g object_37
v 50.318172454833984 0 150.2021484375
v 50.318172454833984 0 151.00215148925781
v 50.318172454833984 2.0999999046325684 150.2021484375
v 50.318172454833984 2.0999999046325684 151.00215148925781
f 148 146 145 147
g object_38
v 55.446399688720703 0 150.13723754882812
v 55.446399688720703 0 149.33723449707031
v 55.446399688720703 2.0999999046325684 150.13723754882812
v 55.446399688720703 2.0999999046325684 149.33723449707031
f 152 150 149 151
g object_39
v 55.446399688720703 0 150.46018981933594
v 55.446399688720703 0 151.26019287109375
v 55.446399688720703 2.0999999046325684 150.46018981933594
v 55.446399688720703 2.0999999046325684 151.26019287109375
f 156 154 153 155
g object_40
v 56.866851806640625 0 150.26409912109375
v 56.866851806640625 0 151.06410217285156
v 56.866851806640625 2.0999999046325684 150.26409912109375
v 56.866851806640625 2.0999999046325684 151.06410217285156
f 160 158 157 159
g object_41
v 60.378978729248047 0 155.96275329589844
v 60.378978729248047 0 155.16276550292969
v 60.378978729248047 2.0999999046325684 155.96275329589844
v 60.378978729248047 2.0999999046325684 155.16276550292969
f 164 162 161 163
g object_42
v 60.378978729248047 0 154.32681274414062
v 60.378978729248047 0 153.52680969238281
v 60.378978729248047 2.0999999046325684 154.32681274414062
v 60.378978729248047 2.0999999046325684 153.52680969238281
f 168 166 165 167
g object_43
v 56.527435302734375 0 157.72207641601562
v 55.727436065673828 0 157.72207641601562
v 56.527435302734375 2.0999999046325684 157.72207641601562
v 55.727436065673828 2.0999999046325684 157.72207641601562
f 172 170 169 171
g object_44
v 49.359664916992188 0 157.72207641601562
v 50.159664154052734 0 157.72207641601562
v 49.359664916992188 2.0999999046325684 157.72207641601562
v 50.159664154052734 2.0999999046325684 157.72207641601562
f 176 174 173 175
g object_45
v 46.771507263183594 0 157.72207641601562
v 45.971508026123047 0 157.72207641601562
v 46.771507263183594 2.0999999046325684 157.72207641601562
v 45.971508026123047 2.0999999046325684 157.72207641601562
f 180 178 177 179
g object_46
v 44.528793334960938 0 157.72207641601562
v 43.728794097900391 0 157.72207641601562
v 44.528793334960938 2.0999999046325684 157.72207641601562
v 43.728794097900391 2.0999999046325684 157.72207641601562
f 184 182 181 183
g object_47
v 35.574230194091797 0 157.72207641601562
v 34.774246215820312 0 157.72207641601562
v 35.574230194091797 2.0999999046325684 157.72207641601562
v 34.774246215820312 2.0999999046325684 157.72207641601562
f 188 186 185 187
g object_48
v 29.707891464233398 0 157.72207641601562
v 28.907892227172852 0 157.72207641601562
v 29.707891464233398 2.0999999046325684 157.72207641601562
v 28.907892227172852 2.0999999046325684 157.72207641601562
f 192 190 189 191
g object_49
v 26.104782104492188 0 157.72207641601562
v 25.304782867431641 0 157.72207641601562
v 26.104782104492188 2.0999999046325684 157.72207641601562
v 25.304782867431641 2.0999999046325684 157.72207641601562
f 196 194 193 195
g object_50
v 22.809782028198242 0 157.72207641601562
v 23.609781265258789 0 157.72207641601562
v 22.809782028198242 2.0999999046325684 157.72207641601562
v 23.609781265258789 2.0999999046325684 157.72207641601562
f 200 198 197 199
g object_51
v 13.615847587585449 0 157.72207641601562
v 14.415847778320312 0 157.72207641601562
v 13.615847587585449 2.0999999046325684 157.72207641601562
v 14.415847778320312 2.0999999046325684 157.72207641601562
f 204 202 201 203
g object_52
v 12.062893867492676 0 157.72207641601562
v 11.262893676757812 0 157.72207641601562
v 12.062893867492676 2.0999999046325684 157.72207641601562
v 11.262893676757812 2.0999999046325684 157.72207641601562
f 208 206 205 207
g object_53
v 1.4072397947311401 0 157.72207641601562
v 0.60723972320556641 0 157.72207641601562
v 1.4072397947311401 2.0999999046325684 157.72207641601562
v 0.60723972320556641 2.0999999046325684 157.72207641601562
f 212 210 209 211
g object_54
v 20.610973358154297 0 155.58602905273438
v 20.610973358154297 0 156.38601684570312
v 20.610973358154297 2.0999999046325684 155.58602905273438
v 20.610973358154297 2.0999999046325684 156.38601684570312
f 216 214 213 215
g object_55
v 12.65330696105957 0 152.85568237304688
v 12.65330696105957 0 153.65567016601562
v 12.65330696105957 2.0999999046325684 152.85568237304688
v 12.65330696105957 2.0999999046325684 153.65567016601562
f 220 218 217 219
g object_56
v 5.9798989295959473 0 153.62680053710938
v 5.9798989295959473 0 152.82679748535156
v 5.9798989295959473 2.0999999046325684 153.62680053710938
v 5.9798989295959473 2.0999999046325684 152.82679748535156
f 224 222 221 223
g object_57
v 6.0407023429870605 0 147.9044189453125
v 6.0407023429870605 0 148.70440673828125
v 6.0407023429870605 2.0999999046325684 147.9044189453125
v 6.0407023429870605 2.0999999046325684 148.70440673828125
f 228 226 225 227
g object_58
v 7.0818533897399902 0 144.01686096191406
v 6.281853199005127 0 144.01686096191406
v 7.0818533897399902 2.0999999046325684 144.01686096191406
v 6.281853199005127 2.0999999046325684 144.01686096191406
f 232 230 229 231
g object_59
v 5.3918709754943848 0 146.69686889648438
v 5.3918709754943848 0 147.49687194824219
v 5.3918709754943848 2.0999999046325684 146.69686889648438
v 5.3918709754943848 2.0999999046325684 147.49687194824219
f 236 234 233 235
g object_60
v 4.0115494728088379 0 144.01686096191406
v 3.2115495204925537 0 144.01686096191406
v 4.0115494728088379 2.0999999046325684 144.01686096191406
v 3.2115495204925537 2.0999999046325684 144.01686096191406
f 240 238 237 239
