# Rhino

g rooms balcony
v 31.917247772216797 0 8.3777198791503906
v 31.917247772216797 0 12.174938201904297
v 31.917247772216797 3 8.3777198791503906
v 31.917247772216797 3 12.174938201904297
v 36.982853889465332 0 12.174938201904297
v 36.982853889465332 3 12.174938201904297
v 36.982853889465332 0 8.3777198791503906
v 36.982853889465332 3 8.3777198791503906
vn -0.57735025882720947 -0.57735025882720947 -0.57735025882720947
vn -0.57735025882720947 -0.57735025882720947 0.57735025882720947
vn -0.57735025882720947 0.57735025882720947 -0.57735025882720947
vn -0.57735025882720947 0.57735025882720947 0.57735025882720947
vn 0.57735025882720947 -0.57735025882720947 0.57735025882720947
vn 0.57735025882720947 0.57735025882720947 0.57735025882720947
vn 0.57735025882720947 -0.57735025882720947 -0.57735025882720947
vn 0.57735025882720947 0.57735025882720947 -0.57735025882720947
f 2//2 4//4 3//3 1//1
f 5//5 6//6 4//4 2//2
f 7//7 8//8 6//6 5//5
f 1//1 3//3 8//8 7//7
f 3//3 4//4 6//6 8//8
f 2//2 1//1 7//7 5//5
v 31.743099212646484 0 -4.9524497985839844
v 31.743099212646484 0 -3.5449867248535156
v 31.743099212646484 3 -4.9524497985839844
v 31.743099212646484 3 -3.5449867248535156
v 33.905985832214355 0 -3.5449867248535156
v 33.905985832214355 3 -3.5449867248535156
v 33.905985832214355 0 -4.9524497985839844
v 33.905985832214355 3 -4.9524497985839844
vn -0.57735025882720947 -0.57735025882720947 -0.57735025882720947
vn -0.57735025882720947 -0.57735025882720947 0.57735025882720947
vn -0.57735025882720947 0.57735025882720947 -0.57735025882720947
vn -0.57735025882720947 0.57735025882720947 0.57735025882720947
vn 0.57735025882720947 -0.57735025882720947 0.57735025882720947
vn 0.57735025882720947 0.57735025882720947 0.57735025882720947
vn 0.57735025882720947 -0.57735025882720947 -0.57735025882720947
vn 0.57735025882720947 0.57735025882720947 -0.57735025882720947
f 10//10 12//12 11//11 9//9
f 13//13 14//14 12//12 10//10
f 15//15 16//16 14//14 13//13
f 9//9 11//11 16//16 15//15
f 11//11 12//12 14//14 16//16
f 10//10 9//9 15//15 13//13
v 13.703231811523438 0 -4.9524497985839844
v 13.703231811523438 0 -3.5449867248535156
v 13.703231811523438 3 -4.9524497985839844
v 13.703231811523438 3 -3.5449867248535156
v 15.866119384765625 0 -3.5449867248535156
v 15.866119384765625 3 -3.5449867248535156
v 15.866119384765625 0 -4.9524497985839844
v 15.866119384765625 3 -4.9524497985839844
vn -0.57735025882720947 -0.57735025882720947 -0.57735025882720947
vn -0.57735025882720947 -0.57735025882720947 0.57735025882720947
vn -0.57735025882720947 0.57735025882720947 -0.57735025882720947
vn -0.57735025882720947 0.57735025882720947 0.57735025882720947
vn 0.57735025882720947 -0.57735025882720947 0.57735025882720947
vn 0.57735025882720947 0.57735025882720947 0.57735025882720947
vn 0.57735025882720947 -0.57735025882720947 -0.57735025882720947
vn 0.57735025882720947 0.57735025882720947 -0.57735025882720947
f 18//18 20//20 19//19 17//17
f 21//21 22//22 20//20 18//18
f 23//23 24//24 22//22 21//21
f 17//17 19//19 24//24 23//23
f 19//19 20//20 22//22 24//24
f 18//18 17//17 23//23 21//21
v 5.0089149475097656 0 11.937915802001953
v 5.0089149475097656 0 13.349048614501953
v 5.0089149475097656 3 11.937915802001953
v 5.0089149475097656 3 13.349048614501953
v 9.3969383239746094 0 13.349048614501953
v 9.3969383239746094 3 13.349048614501953
v 9.3969383239746094 0 11.937915802001953
v 9.3969383239746094 3 11.937915802001953
vn -0.57735025882720947 -0.57735025882720947 -0.57735025882720947
vn -0.57735025882720947 -0.57735025882720947 0.57735025882720947
vn -0.57735025882720947 0.57735025882720947 -0.57735025882720947
vn -0.57735025882720947 0.57735025882720947 0.57735025882720947
vn 0.57735025882720947 -0.57735025882720947 0.57735025882720947
vn 0.57735025882720947 0.57735025882720947 0.57735025882720947
vn 0.57735025882720947 -0.57735025882720947 -0.57735025882720947
vn 0.57735025882720947 0.57735025882720947 -0.57735025882720947
f 26//26 28//28 27//27 25//25
f 29//29 30//30 28//28 26//26
f 31//31 32//32 30//30 29//29
f 25//25 27//27 32//32 31//31
f 27//27 28//28 30//30 32//32
f 26//26 25//25 31//31 29//29
v 0 0 -4.8275871276855469
v 0 0 0
v 0 3 -4.8275871276855469
v 0 3 0
v 3.7777099609375 0 0
v 3.7777099609375 3 0
v 3.7777099609375 0 -4.8275871276855469
v 3.7777099609375 3 -4.8275871276855469
vn -0.57735025882720947 -0.57735025882720947 -0.57735025882720947
vn -0.57735025882720947 -0.57735025882720947 0.57735025882720947
vn -0.57735025882720947 0.57735025882720947 -0.57735025882720947
vn -0.57735025882720947 0.57735025882720947 0.57735025882720947
vn 0.57735025882720947 -0.57735025882720947 0.57735025882720947
vn 0.57735025882720947 0.57735025882720947 0.57735025882720947
vn 0.57735025882720947 -0.57735025882720947 -0.57735025882720947
vn 0.57735025882720947 0.57735025882720947 -0.57735025882720947
f 34//34 36//36 35//35 33//33
f 37//37 38//38 36//36 34//34
f 39//39 40//40 38//38 37//37
f 33//33 35//35 40//40 39//39
f 35//35 36//36 38//38 40//40
f 34//34 33//33 39//39 37//37
g rooms kitchen
v 10.456794738769531 0 4.9046516418457031
v 10.456794738769531 0 7.7041664123535156
v 10.456794738769531 3 4.9046516418457031
v 10.456794738769531 3 7.7041664123535156
v 13.325111389160156 0 7.7041664123535156
v 13.325111389160156 3 7.7041664123535156
v 13.325111389160156 0 4.9046516418457031
v 13.325111389160156 3 4.9046516418457031
vn -0.57735025882720947 -0.57735025882720947 -0.57735025882720947
vn -0.57735025882720947 -0.57735025882720947 0.57735025882720947
vn -0.57735025882720947 0.57735025882720947 -0.57735025882720947
vn -0.57735025882720947 0.57735025882720947 0.57735025882720947
vn 0.57735025882720947 -0.57735025882720947 0.57735025882720947
vn 0.57735025882720947 0.57735025882720947 0.57735025882720947
vn 0.57735025882720947 -0.57735025882720947 -0.57735025882720947
vn 0.57735025882720947 0.57735025882720947 -0.57735025882720947
f 42//42 44//44 43//43 41//41
f 45//45 46//46 44//44 42//42
f 47//47 48//48 46//46 45//45
f 41//41 43//43 48//48 47//47
f 43//43 44//44 46//46 48//48
f 42//42 41//41 47//47 45//45
g rooms bathroom
v 8.0498123168945312 0 5.028961181640625
v 8.0498123168945312 0 7.7041664123535156
v 8.0498123168945312 3 5.028961181640625
v 8.0498123168945312 3 7.7041664123535156
v 10.456794738769531 0 7.7041664123535156
v 10.456794738769531 3 7.7041664123535156
v 10.456794738769531 0 5.028961181640625
v 10.456794738769531 3 5.028961181640625
vn -0.57735025882720947 -0.57735025882720947 -0.57735025882720947
vn -0.57735025882720947 -0.57735025882720947 0.57735025882720947
vn -0.57735025882720947 0.57735025882720947 -0.57735025882720947
vn -0.57735025882720947 0.57735025882720947 0.57735025882720947
vn 0.57735025882720947 -0.57735025882720947 0.57735025882720947
vn 0.57735025882720947 0.57735025882720947 0.57735025882720947
vn 0.57735025882720947 -0.57735025882720947 -0.57735025882720947
vn 0.57735025882720947 0.57735025882720947 -0.57735025882720947
f 50//50 52//52 51//51 49//49
f 53//53 54//54 52//52 50//50
f 55//55 56//56 54//54 53//53
f 49//49 51//51 56//56 55//55
f 51//51 52//52 54//54 56//56
f 50//50 49//49 55//55 53//53
v 8.0498123168945312 0 0.91831588745117188
v 8.0498123168945312 0 3.3781166076660156
v 8.0498123168945312 3 0.91831588745117188
v 8.0498123168945312 3 3.3781166076660156
v 10.456794738769531 0 3.3781166076660156
v 10.456794738769531 3 3.3781166076660156
v 10.456794738769531 0 0.91831588745117188
v 10.456794738769531 3 0.91831588745117188
vn -0.57735025882720947 -0.57735025882720947 -0.57735025882720947
vn -0.57735025882720947 -0.57735025882720947 0.57735025882720947
vn -0.57735025882720947 0.57735025882720947 -0.57735025882720947
vn -0.57735025882720947 0.57735025882720947 0.57735025882720947
vn 0.57735025882720947 -0.57735025882720947 0.57735025882720947
vn 0.57735025882720947 0.57735025882720947 0.57735025882720947
vn 0.57735025882720947 -0.57735025882720947 -0.57735025882720947
vn 0.57735025882720947 0.57735025882720947 -0.57735025882720947
f 58//58 60//60 59//59 57//57
f 61//61 62//62 60//60 58//58
f 63//63 64//64 62//62 61//61
f 57//57 59//59 64//64 63//63
f 59//59 60//60 62//62 64//64
f 58//58 57//57 63//63 61//61
v 26.860332489013672 0 0.11397933959960938
v 26.860332489013672 0 2.6107978820800781
v 26.860332489013672 3 0.11397933959960938
v 26.860332489013672 3 2.6107978820800781
v 28.867378234863281 0 2.6107978820800781
v 28.867378234863281 3 2.6107978820800781
v 28.867378234863281 0 0.11397933959960938
v 28.867378234863281 3 0.11397933959960938
vn -0.57735025882720947 -0.57735025882720947 -0.57735025882720947
vn -0.57735025882720947 -0.57735025882720947 0.57735025882720947
vn -0.57735025882720947 0.57735025882720947 -0.57735025882720947
vn -0.57735025882720947 0.57735025882720947 0.57735025882720947
vn 0.57735025882720947 -0.57735025882720947 0.57735025882720947
vn 0.57735025882720947 0.57735025882720947 0.57735025882720947
vn 0.57735025882720947 -0.57735025882720947 -0.57735025882720947
vn 0.57735025882720947 0.57735025882720947 -0.57735025882720947
f 66//66 68//68 67//67 65//65
f 69//69 70//70 68//68 66//66
f 71//71 72//72 70//70 69//69
f 65//65 67//67 72//72 71//71
f 67//67 68//68 70//70 72//72
f 66//66 65//65 71//71 69//69
v 17.019771575927734 0 4.9046516418457031
v 17.019771575927734 0 7.7041664123535156
v 17.019771575927734 3 4.9046516418457031
v 17.019771575927734 3 7.7041664123535156
v 19.483222961425781 0 7.7041664123535156
v 19.483222961425781 3 7.7041664123535156
v 19.483222961425781 0 4.9046516418457031
v 19.483222961425781 3 4.9046516418457031
vn -0.57735025882720947 -0.57735025882720947 -0.57735025882720947
vn -0.57735025882720947 -0.57735025882720947 0.57735025882720947
vn -0.57735025882720947 0.57735025882720947 -0.57735025882720947
vn -0.57735025882720947 0.57735025882720947 0.57735025882720947
vn 0.57735025882720947 -0.57735025882720947 0.57735025882720947
vn 0.57735025882720947 0.57735025882720947 0.57735025882720947
vn 0.57735025882720947 -0.57735025882720947 -0.57735025882720947
vn 0.57735025882720947 0.57735025882720947 -0.57735025882720947
f 74//74 76//76 75//75 73//73
f 77//77 78//78 76//76 74//74
f 79//79 80//80 78//78 77//77
f 73//73 75//75 80//80 79//79
f 75//75 76//76 78//78 80//80
f 74//74 73//73 79//79 77//77
v 28.867378234863281 0 -3.5449867248535156
v 28.867378234863281 0 2.6107978820800781
v 28.867378234863281 3 -3.5449867248535156
v 28.867378234863281 3 2.6107978820800781
v 31.337347984313965 0 2.6107978820800781
v 31.337347984313965 3 2.6107978820800781
v 31.337347984313965 0 -3.5449867248535156
v 31.337347984313965 3 -3.5449867248535156
vn -0.57735025882720947 -0.57735025882720947 -0.57735025882720947
vn -0.57735025882720947 -0.57735025882720947 0.57735025882720947
vn -0.57735025882720947 0.57735025882720947 -0.57735025882720947
vn -0.57735025882720947 0.57735025882720947 0.57735025882720947
vn 0.57735025882720947 -0.57735025882720947 0.57735025882720947
vn 0.57735025882720947 0.57735025882720947 0.57735025882720947
vn 0.57735025882720947 -0.57735025882720947 -0.57735025882720947
vn 0.57735025882720947 0.57735025882720947 -0.57735025882720947
f 82//82 84//84 83//83 81//81
f 85//85 86//86 84//84 82//82
f 87//87 88//88 86//86 85//85
f 81//81 83//83 88//88 87//87
f 83//83 84//84 86//86 88//88
f 82//82 81//81 87//87 85//85
v 18.053577423095703 0 -0.11658477783203125
v 18.053577423095703 0 2.5665740966796875
v 18.053577423095703 3 -0.11658477783203125
v 18.053577423095703 3 2.5665740966796875
v 20.548885345458984 0 2.5665740966796875
v 20.548885345458984 3 2.5665740966796875
v 20.548885345458984 0 -0.11658477783203125
v 20.548885345458984 3 -0.11658477783203125
vn -0.57735025882720947 -0.57735025882720947 -0.57735025882720947
vn -0.57735025882720947 -0.57735025882720947 0.57735025882720947
vn -0.57735025882720947 0.57735025882720947 -0.57735025882720947
vn -0.57735025882720947 0.57735025882720947 0.57735025882720947
vn 0.57735025882720947 -0.57735025882720947 0.57735025882720947
vn 0.57735025882720947 0.57735025882720947 0.57735025882720947
vn 0.57735025882720947 -0.57735025882720947 -0.57735025882720947
vn 0.57735025882720947 0.57735025882720947 -0.57735025882720947
f 90//90 92//92 91//91 89//89
f 93//93 94//94 92//92 90//90
f 95//95 96//96 94//94 93//93
f 89//89 91//91 96//96 95//95
f 91//91 92//92 94//94 96//96
f 90//90 89//89 95//95 93//93
g rooms corridor
v 10.456794738769531 0 2.5665740966796875
v 10.456794738769531 0 4.9046516418457031
v 10.456794738769531 3 2.5665740966796875
v 10.456794738769531 3 4.9046516418457031
v 20.548885345458984 0 4.9046516418457031
v 20.548885345458984 3 4.9046516418457031
v 20.548885345458984 0 2.5665740966796875
v 20.548885345458984 3 2.5665740966796875
vn -0.57735025882720947 -0.57735025882720947 -0.57735025882720947
vn -0.57735025882720947 -0.57735025882720947 0.57735025882720947
vn -0.57735025882720947 0.57735025882720947 -0.57735025882720947
vn -0.57735025882720947 0.57735025882720947 0.57735025882720947
vn 0.57735025882720947 -0.57735025882720947 0.57735025882720947
vn 0.57735025882720947 0.57735025882720947 0.57735025882720947
vn 0.57735025882720947 -0.57735025882720947 -0.57735025882720947
vn 0.57735025882720947 0.57735025882720947 -0.57735025882720947
f 98//98 100//100 99//99 97//97
f 101//101 102//102 100//100 98//98
f 103//103 104//104 102//102 101//101
f 97//97 99//99 104//104 103//103
f 99//99 100//100 102//102 104//104
f 98//98 97//97 103//103 101//101
v 23.424663543701172 0 2.4296112060546875
v 23.424663543701172 0 4.9046516418457031
v 23.424663543701172 3 2.4296112060546875
v 23.424663543701172 3 4.9046516418457031
v 25.987558364868164 0 4.9046516418457031
v 25.987558364868164 3 4.9046516418457031
v 25.987558364868164 0 2.4296112060546875
v 25.987558364868164 3 2.4296112060546875
vn -0.57735025882720947 -0.57735025882720947 -0.57735025882720947
vn -0.57735025882720947 -0.57735025882720947 0.57735025882720947
vn -0.57735025882720947 0.57735025882720947 -0.57735025882720947
vn -0.57735025882720947 0.57735025882720947 0.57735025882720947
vn 0.57735025882720947 -0.57735025882720947 0.57735025882720947
vn 0.57735025882720947 0.57735025882720947 0.57735025882720947
vn 0.57735025882720947 -0.57735025882720947 -0.57735025882720947
vn 0.57735025882720947 0.57735025882720947 -0.57735025882720947
f 106//106 108//108 107//107 105//105
f 109//109 110//110 108//108 106//106
f 111//111 112//112 110//110 109//109
f 105//105 107//107 112//112 111//111
f 107//107 108//108 110//110 112//112
f 106//106 105//105 111//111 109//109
v 20.548885345458984 0 0.23651885986328125
v 20.548885345458984 0 4.9046516418457031
v 20.548885345458984 3 0.23651885986328125
v 20.548885345458984 3 4.9046516418457031
v 23.424663543701172 0 4.9046516418457031
v 23.424663543701172 3 4.9046516418457031
v 23.424663543701172 0 0.23651885986328125
v 23.424663543701172 3 0.23651885986328125
vn -0.57735025882720947 -0.57735025882720947 -0.57735025882720947
vn -0.57735025882720947 -0.57735025882720947 0.57735025882720947
vn -0.57735025882720947 0.57735025882720947 -0.57735025882720947
vn -0.57735025882720947 0.57735025882720947 0.57735025882720947
vn 0.57735025882720947 -0.57735025882720947 0.57735025882720947
vn 0.57735025882720947 0.57735025882720947 0.57735025882720947
vn 0.57735025882720947 -0.57735025882720947 -0.57735025882720947
vn 0.57735025882720947 0.57735025882720947 -0.57735025882720947
f 114//114 116//116 115//115 113//113
f 117//117 118//118 116//116 114//114
f 119//119 120//120 118//118 117//117
f 113//113 115//115 120//120 119//119
f 115//115 116//116 118//118 120//120
f 114//114 113//113 119//119 117//117
g rooms livingroom
v 25.987558364868164 0 2.6107978820800781
v 25.987558364868164 0 8.3777198791503906
v 25.987558364868164 3 2.6107978820800781
v 25.987558364868164 3 8.3777198791503906
v 35.524445533752441 0 8.3777198791503906
v 35.524445533752441 3 8.3777198791503906
v 35.524445533752441 0 2.6107978820800781
v 35.524445533752441 3 2.6107978820800781
vn -0.57735025882720947 -0.57735025882720947 -0.57735025882720947
vn -0.57735025882720947 -0.57735025882720947 0.57735025882720947
vn -0.57735025882720947 0.57735025882720947 -0.57735025882720947
vn -0.57735025882720947 0.57735025882720947 0.57735025882720947
vn 0.57735025882720947 -0.57735025882720947 0.57735025882720947
vn 0.57735025882720947 0.57735025882720947 0.57735025882720947
vn 0.57735025882720947 -0.57735025882720947 -0.57735025882720947
vn 0.57735025882720947 0.57735025882720947 -0.57735025882720947
f 122//122 124//124 123//123 121//121
f 125//125 126//126 124//124 122//122
f 127//127 128//128 126//126 125//125
f 121//121 123//123 128//128 127//127
f 123//123 124//124 126//126 128//128
f 122//122 121//121 127//127 125//125
v 8.0498123168945312 0 7.7041664123535156
v 8.0498123168945312 0 11.937915802001953
v 8.0498123168945312 3 7.7041664123535156
v 8.0498123168945312 3 11.937915802001953
v 13.325111389160156 0 11.937915802001953
v 13.325111389160156 3 11.937915802001953
v 13.325111389160156 0 7.7041664123535156
v 13.325111389160156 3 7.7041664123535156
vn -0.57735025882720947 -0.57735025882720947 -0.57735025882720947
vn -0.57735025882720947 -0.57735025882720947 0.57735025882720947
vn -0.57735025882720947 0.57735025882720947 -0.57735025882720947
vn -0.57735025882720947 0.57735025882720947 0.57735025882720947
vn 0.57735025882720947 -0.57735025882720947 0.57735025882720947
vn 0.57735025882720947 0.57735025882720947 0.57735025882720947
vn 0.57735025882720947 -0.57735025882720947 -0.57735025882720947
vn 0.57735025882720947 0.57735025882720947 -0.57735025882720947
f 130//130 132//132 131//131 129//129
f 133//133 134//134 132//132 130//130
f 135//135 136//136 134//134 133//133
f 129//129 131//131 136//136 135//135
f 131//131 132//132 134//134 136//136
f 130//130 129//129 135//135 133//133
v 8.0498123168945312 0 -3.5449867248535156
v 8.0498123168945312 0 0.91831588745117188
v 8.0498123168945312 3 -3.5449867248535156
v 8.0498123168945312 3 0.91831588745117188
v 10.456794738769531 0 0.91831588745117188
v 10.456794738769531 3 0.91831588745117188
v 10.456794738769531 0 -3.5449867248535156
v 10.456794738769531 3 -3.5449867248535156
vn -0.57735025882720947 -0.57735025882720947 -0.57735025882720947
vn -0.57735025882720947 -0.57735025882720947 0.57735025882720947
vn -0.57735025882720947 0.57735025882720947 -0.57735025882720947
vn -0.57735025882720947 0.57735025882720947 0.57735025882720947
vn 0.57735025882720947 -0.57735025882720947 0.57735025882720947
vn 0.57735025882720947 0.57735025882720947 0.57735025882720947
vn 0.57735025882720947 -0.57735025882720947 -0.57735025882720947
vn 0.57735025882720947 0.57735025882720947 -0.57735025882720947
f 138//138 140//140 139//139 137//137
f 141//141 142//142 140//140 138//138
f 143//143 144//144 142//142 141//141
f 137//137 139//139 144//144 143//143
f 139//139 140//140 142//142 144//144
f 138//138 137//137 143//143 141//141
v 17.019771575927734 0 7.7041664123535156
v 17.019771575927734 0 11.937915802001953
v 17.019771575927734 3 7.7041664123535156
v 17.019771575927734 3 11.937915802001953
v 19.483222961425781 0 11.937915802001953
v 19.483222961425781 3 11.937915802001953
v 19.483222961425781 0 7.7041664123535156
v 19.483222961425781 3 7.7041664123535156
vn -0.57735025882720947 -0.57735025882720947 -0.57735025882720947
vn -0.57735025882720947 -0.57735025882720947 0.57735025882720947
vn -0.57735025882720947 0.57735025882720947 -0.57735025882720947
vn -0.57735025882720947 0.57735025882720947 0.57735025882720947
vn 0.57735025882720947 -0.57735025882720947 0.57735025882720947
vn 0.57735025882720947 0.57735025882720947 0.57735025882720947
vn 0.57735025882720947 -0.57735025882720947 -0.57735025882720947
vn 0.57735025882720947 0.57735025882720947 -0.57735025882720947
f 146//146 148//148 147//147 145//145
f 149//149 150//150 148//148 146//146
f 151//151 152//152 150//150 149//149
f 145//145 147//147 152//152 151//151
f 147//147 148//148 150//150 152//152
f 146//146 145//145 151//151 149//149
v 13.345390319824219 0 -0.11658477783203125
v 13.345390319824219 0 2.5665740966796875
v 13.345390319824219 3 -0.11658477783203125
v 13.345390319824219 3 2.5665740966796875
v 18.053577423095703 0 2.5665740966796875
v 18.053577423095703 3 2.5665740966796875
v 18.053577423095703 0 -0.11658477783203125
v 18.053577423095703 3 -0.11658477783203125
vn -0.57735025882720947 -0.57735025882720947 -0.57735025882720947
vn -0.57735025882720947 -0.57735025882720947 0.57735025882720947
vn -0.57735025882720947 0.57735025882720947 -0.57735025882720947
vn -0.57735025882720947 0.57735025882720947 0.57735025882720947
vn 0.57735025882720947 -0.57735025882720947 0.57735025882720947
vn 0.57735025882720947 0.57735025882720947 0.57735025882720947
vn 0.57735025882720947 -0.57735025882720947 -0.57735025882720947
vn 0.57735025882720947 0.57735025882720947 -0.57735025882720947
f 154//154 156//156 155//155 153//153
f 157//157 158//158 156//156 154//154
f 159//159 160//160 158//158 157//157
f 153//153 155//155 160//160 159//159
f 155//155 156//156 158//158 160//160
f 154//154 153//153 159//159 157//157
g rooms bedroom
v 3.7777099609375 0 0.70119857788085938
v 3.7777099609375 0 7.7041664123535156
v 3.7777099609375 3 0.70119857788085938
v 3.7777099609375 3 7.7041664123535156
v 8.0498123168945312 0 7.7041664123535156
v 8.0498123168945312 3 7.7041664123535156
v 8.0498123168945312 0 0.70119857788085938
v 8.0498123168945312 3 0.70119857788085938
vn -0.57735025882720947 -0.57735025882720947 -0.57735025882720947
vn -0.57735025882720947 -0.57735025882720947 0.57735025882720947
vn -0.57735025882720947 0.57735025882720947 -0.57735025882720947
vn -0.57735025882720947 0.57735025882720947 0.57735025882720947
vn 0.57735025882720947 -0.57735025882720947 0.57735025882720947
vn 0.57735025882720947 0.57735025882720947 0.57735025882720947
vn 0.57735025882720947 -0.57735025882720947 -0.57735025882720947
vn 0.57735025882720947 0.57735025882720947 -0.57735025882720947
f 162//162 164//164 163//163 161//161
f 165//165 166//166 164//164 162//162
f 167//167 168//168 166//166 165//165
f 161//161 163//163 168//168 167//167
f 163//163 164//164 166//166 168//168
f 162//162 161//161 167//167 165//165
v 31.337347984313965 0 -3.5449867248535156
v 31.337347984313965 0 2.6107978820800781
v 31.337347984313965 3 -3.5449867248535156
v 31.337347984313965 3 2.6107978820800781
v 35.524445533752441 0 2.6107978820800781
v 35.524445533752441 3 2.6107978820800781
v 35.524445533752441 0 -3.5449867248535156
v 35.524445533752441 3 -3.5449867248535156
vn -0.57735025882720947 -0.57735025882720947 -0.57735025882720947
vn -0.57735025882720947 -0.57735025882720947 0.57735025882720947
vn -0.57735025882720947 0.57735025882720947 -0.57735025882720947
vn -0.57735025882720947 0.57735025882720947 0.57735025882720947
vn 0.57735025882720947 -0.57735025882720947 0.57735025882720947
vn 0.57735025882720947 0.57735025882720947 0.57735025882720947
vn 0.57735025882720947 -0.57735025882720947 -0.57735025882720947
vn 0.57735025882720947 0.57735025882720947 -0.57735025882720947
f 170//170 172//172 171//171 169//169
f 173//173 174//174 172//172 170//170
f 175//175 176//176 174//174 173//173
f 169//169 171//171 176//176 175//175
f 171//171 172//172 174//174 176//176
f 170//170 169//169 175//175 173//173
v 3.7777099609375 0 7.7041664123535156
v 3.7777099609375 0 11.937915802001953
v 3.7777099609375 3 7.7041664123535156
v 3.7777099609375 3 11.937915802001953
v 8.0498123168945312 0 11.937915802001953
v 8.0498123168945312 3 11.937915802001953
v 8.0498123168945312 0 7.7041664123535156
v 8.0498123168945312 3 7.7041664123535156
vn -0.57735025882720947 -0.57735025882720947 -0.57735025882720947
vn -0.57735025882720947 -0.57735025882720947 0.57735025882720947
vn -0.57735025882720947 0.57735025882720947 -0.57735025882720947
vn -0.57735025882720947 0.57735025882720947 0.57735025882720947
vn 0.57735025882720947 -0.57735025882720947 0.57735025882720947
vn 0.57735025882720947 0.57735025882720947 0.57735025882720947
vn 0.57735025882720947 -0.57735025882720947 -0.57735025882720947
vn 0.57735025882720947 0.57735025882720947 -0.57735025882720947
f 178//178 180//180 179//179 177//177
f 181//181 182//182 180//180 178//178
f 183//183 184//184 182//182 181//181
f 177//177 179//179 184//184 183//183
f 179//179 180//180 182//182 184//184
f 178//178 177//177 183//183 181//181
v 13.325111389160156 0 6.4073486328125
v 13.325111389160156 0 11.937915802001953
v 13.325111389160156 3 6.4073486328125
v 13.325111389160156 3 11.937915802001953
v 17.019771575927734 0 11.937915802001953
v 17.019771575927734 3 11.937915802001953
v 17.019771575927734 0 6.4073486328125
v 17.019771575927734 3 6.4073486328125
vn -0.57735025882720947 -0.57735025882720947 -0.57735025882720947
vn -0.57735025882720947 -0.57735025882720947 0.57735025882720947
vn -0.57735025882720947 0.57735025882720947 -0.57735025882720947
vn -0.57735025882720947 0.57735025882720947 0.57735025882720947
vn 0.57735025882720947 -0.57735025882720947 0.57735025882720947
vn 0.57735025882720947 0.57735025882720947 0.57735025882720947
vn 0.57735025882720947 -0.57735025882720947 -0.57735025882720947
vn 0.57735025882720947 0.57735025882720947 -0.57735025882720947
f 186//186 188//188 187//187 185//185
f 189//189 190//190 188//188 186//186
f 191//191 192//192 190//190 189//189
f 185//185 187//187 192//192 191//191
f 187//187 188//188 190//190 192//192
f 186//186 185//185 191//191 189//189
v 3.7777099609375 0 -3.5449867248535156
v 3.7777099609375 0 0.70119857788085938
v 3.7777099609375 3 -3.5449867248535156
v 3.7777099609375 3 0.70119857788085938
v 8.0498123168945312 0 0.70119857788085938
v 8.0498123168945312 3 0.70119857788085938
v 8.0498123168945312 0 -3.5449867248535156
v 8.0498123168945312 3 -3.5449867248535156
vn -0.57735025882720947 -0.57735025882720947 -0.57735025882720947
vn -0.57735025882720947 -0.57735025882720947 0.57735025882720947
vn -0.57735025882720947 0.57735025882720947 -0.57735025882720947
vn -0.57735025882720947 0.57735025882720947 0.57735025882720947
vn 0.57735025882720947 -0.57735025882720947 0.57735025882720947
vn 0.57735025882720947 0.57735025882720947 0.57735025882720947
vn 0.57735025882720947 -0.57735025882720947 -0.57735025882720947
vn 0.57735025882720947 0.57735025882720947 -0.57735025882720947
f 194//194 196//196 195//195 193//193
f 197//197 198//198 196//196 194//194
f 199//199 200//200 198//198 197//197
f 193//193 195//195 200//200 199//199
f 195//195 196//196 198//198 200//200
f 194//194 193//193 199//199 197//197
v 17.082693099975586 0 -3.5449867248535156
v 17.082693099975586 0 -0.11658477783203125
v 17.082693099975586 3 -3.5449867248535156
v 17.082693099975586 3 -0.11658477783203125
v 20.548885345458984 0 -0.11658477783203125
v 20.548885345458984 3 -0.11658477783203125
v 20.548885345458984 0 -3.5449867248535156
v 20.548885345458984 3 -3.5449867248535156
vn -0.57735025882720947 -0.57735025882720947 -0.57735025882720947
vn -0.57735025882720947 -0.57735025882720947 0.57735025882720947
vn -0.57735025882720947 0.57735025882720947 -0.57735025882720947
vn -0.57735025882720947 0.57735025882720947 0.57735025882720947
vn 0.57735025882720947 -0.57735025882720947 0.57735025882720947
vn 0.57735025882720947 0.57735025882720947 0.57735025882720947
vn 0.57735025882720947 -0.57735025882720947 -0.57735025882720947
vn 0.57735025882720947 0.57735025882720947 -0.57735025882720947
f 202//202 204//204 203//203 201//201
f 205//205 206//206 204//204 202//202
f 207//207 208//208 206//206 205//205
f 201//201 203//203 208//208 207//207
f 203//203 204//204 206//206 208//208
f 202//202 201//201 207//207 205//205
g rooms dining
v 19.483222961425781 0 4.9046516418457031
v 19.483222961425781 0 11.937915802001953
v 19.483222961425781 3 4.9046516418457031
v 19.483222961425781 3 11.937915802001953
v 25.987558364868164 0 11.937915802001953
v 25.987558364868164 3 11.937915802001953
v 25.987558364868164 0 4.9046516418457031
v 25.987558364868164 3 4.9046516418457031
vn -0.57735025882720947 -0.57735025882720947 -0.57735025882720947
vn -0.57735025882720947 -0.57735025882720947 0.57735025882720947
vn -0.57735025882720947 0.57735025882720947 -0.57735025882720947
vn -0.57735025882720947 0.57735025882720947 0.57735025882720947
vn 0.57735025882720947 -0.57735025882720947 0.57735025882720947
vn 0.57735025882720947 0.57735025882720947 0.57735025882720947
vn 0.57735025882720947 -0.57735025882720947 -0.57735025882720947
vn 0.57735025882720947 0.57735025882720947 -0.57735025882720947
f 210//210 212//212 211//211 209//209
f 213//213 214//214 212//212 210//210
f 215//215 216//216 214//214 213//213
f 209//209 211//211 216//216 215//215
f 211//211 212//212 214//214 216//216
f 210//210 209//209 215//215 213//213
v 25.987558364868164 0 8.3777198791503906
v 25.987558364868164 0 11.937915802001953
v 25.987558364868164 3 8.3777198791503906
v 25.987558364868164 3 11.937915802001953
v 31.917247772216797 0 11.937915802001953
v 31.917247772216797 3 11.937915802001953
v 31.917247772216797 0 8.3777198791503906
v 31.917247772216797 3 8.3777198791503906
vn -0.57735025882720947 -0.57735025882720947 -0.57735025882720947
vn -0.57735025882720947 -0.57735025882720947 0.57735025882720947
vn -0.57735025882720947 0.57735025882720947 -0.57735025882720947
vn -0.57735025882720947 0.57735025882720947 0.57735025882720947
vn 0.57735025882720947 -0.57735025882720947 0.57735025882720947
vn 0.57735025882720947 0.57735025882720947 0.57735025882720947
vn 0.57735025882720947 -0.57735025882720947 -0.57735025882720947
vn 0.57735025882720947 0.57735025882720947 -0.57735025882720947
f 218//218 220//220 219//219 217//217
f 221//221 222//222 220//220 218//218
f 223//223 224//224 222//222 221//221
f 217//217 219//219 224//224 223//223
f 219//219 220//220 222//222 224//224
f 218//218 217//217 223//223 221//221
v 13.345390319824219 0 -3.5449867248535156
v 13.345390319824219 0 -0.11658477783203125
v 13.345390319824219 3 -3.5449867248535156
v 13.345390319824219 3 -0.11658477783203125
v 17.082693099975586 0 -0.11658477783203125
v 17.082693099975586 3 -0.11658477783203125
v 17.082693099975586 0 -3.5449867248535156
v 17.082693099975586 3 -3.5449867248535156
vn -0.57735025882720947 -0.57735025882720947 -0.57735025882720947
vn -0.57735025882720947 -0.57735025882720947 0.57735025882720947
vn -0.57735025882720947 0.57735025882720947 -0.57735025882720947
vn -0.57735025882720947 0.57735025882720947 0.57735025882720947
vn 0.57735025882720947 -0.57735025882720947 0.57735025882720947
vn 0.57735025882720947 0.57735025882720947 0.57735025882720947
vn 0.57735025882720947 -0.57735025882720947 -0.57735025882720947
vn 0.57735025882720947 0.57735025882720947 -0.57735025882720947
f 226//226 228//228 227//227 225//225
f 229//229 230//230 228//228 226//226
f 231//231 232//232 230//230 229//229
f 225//225 227//227 232//232 231//231
f 227//227 228//228 230//230 232//232
f 226//226 225//225 231//231 229//229
v 10.456794738769531 0 -3.5449867248535156
v 10.456794738769531 0 2.5665740966796875
v 10.456794738769531 3 -3.5449867248535156
v 10.456794738769531 3 2.5665740966796875
v 13.345390319824219 0 2.5665740966796875
v 13.345390319824219 3 2.5665740966796875
v 13.345390319824219 0 -3.5449867248535156
v 13.345390319824219 3 -3.5449867248535156
vn -0.57735025882720947 -0.57735025882720947 -0.57735025882720947
vn -0.57735025882720947 -0.57735025882720947 0.57735025882720947
vn -0.57735025882720947 0.57735025882720947 -0.57735025882720947
vn -0.57735025882720947 0.57735025882720947 0.57735025882720947
vn 0.57735025882720947 -0.57735025882720947 0.57735025882720947
vn 0.57735025882720947 0.57735025882720947 0.57735025882720947
vn 0.57735025882720947 -0.57735025882720947 -0.57735025882720947
vn 0.57735025882720947 0.57735025882720947 -0.57735025882720947
f 234//234 236//236 235//235 233//233
f 237//237 238//238 236//236 234//234
f 239//239 240//240 238//238 237//237
f 233//233 235//235 240//240 239//239
f 235//235 236//236 238//238 240//240
f 234//234 233//233 239//239 237//237
g rooms stairs
v 20.548885345458984 0 -5.1326103210449219
v 20.548885345458984 0 0.23651885986328125
v 20.548885345458984 3 -5.1326103210449219
v 20.548885345458984 3 0.23651885986328125
v 25.987558364868164 0 0.23651885986328125
v 25.987558364868164 3 0.23651885986328125
v 25.987558364868164 0 -5.1326103210449219
v 25.987558364868164 3 -5.1326103210449219
vn -0.57735025882720947 -0.57735025882720947 -0.57735025882720947
vn -0.57735025882720947 -0.57735025882720947 0.57735025882720947
vn -0.57735025882720947 0.57735025882720947 -0.57735025882720947
vn -0.57735025882720947 0.57735025882720947 0.57735025882720947
vn 0.57735025882720947 -0.57735025882720947 0.57735025882720947
vn 0.57735025882720947 0.57735025882720947 0.57735025882720947
vn 0.57735025882720947 -0.57735025882720947 -0.57735025882720947
vn 0.57735025882720947 0.57735025882720947 -0.57735025882720947
f 242//242 244//244 243//243 241//241
f 245//245 246//246 244//244 242//242
f 247//247 248//248 246//246 245//245
f 241//241 243//243 248//248 247//247
f 243//243 244//244 246//246 248//248
f 242//242 241//241 247//247 245//245
v 23.424663543701172 0 0.23651885986328125
v 23.424663543701172 0 2.4296112060546875
v 23.424663543701172 3 0.23651885986328125
v 23.424663543701172 3 2.4296112060546875
v 25.987558364868164 0 2.4296112060546875
v 25.987558364868164 3 2.4296112060546875
v 25.987558364868164 0 0.23651885986328125
v 25.987558364868164 3 0.23651885986328125
vn -0.57735025882720947 -0.57735025882720947 -0.57735025882720947
vn -0.57735025882720947 -0.57735025882720947 0.57735025882720947
vn -0.57735025882720947 0.57735025882720947 -0.57735025882720947
vn -0.57735025882720947 0.57735025882720947 0.57735025882720947
vn 0.57735025882720947 -0.57735025882720947 0.57735025882720947
vn 0.57735025882720947 0.57735025882720947 0.57735025882720947
vn 0.57735025882720947 -0.57735025882720947 -0.57735025882720947
vn 0.57735025882720947 0.57735025882720947 -0.57735025882720947
f 250//250 252//252 251//251 249//249
f 253//253 254//254 252//252 250//250
f 255//255 256//256 254//254 253//253
f 249//249 251//251 256//256 255//255
f 251//251 252//252 254//254 256//256
f 250//250 249//249 255//255 253//253
g rooms storeroom
v 25.987558364868164 0 -3.5449867248535156
v 25.987558364868164 0 2.6107978820800781
v 25.987558364868164 3 -3.5449867248535156
v 25.987558364868164 3 2.6107978820800781
v 26.860332489013672 0 2.6107978820800781
v 26.860332489013672 3 2.6107978820800781
v 26.860332489013672 0 0.11397933959960938
v 26.860332489013672 3 0.11397933959960938
v 28.867378234863281 0 0.11397933959960938
v 28.867378234863281 3 0.11397933959960938
v 28.867378234863281 0 -3.5449867248535156
v 28.867378234863281 3 -3.5449867248535156
vn -0.30151134729385376 -0.90453404188156128 -0.30151134729385376
vn -0.40824830532073975 -0.81649661064147949 0.40824830532073975
vn -0.40824830532073975 0.81649661064147949 -0.40824830532073975
vn -0.40824830532073975 0.81649661064147949 0.40824830532073975
vn 0.57735025882720947 -0.57735025882720947 0.57735025882720947
vn 0.57735025882720947 0.57735025882720947 0.57735025882720947
vn 0.30151134729385376 -0.90453404188156128 0.30151134729385376
vn 0.2357022613286972 0.94280904531478882 0.2357022613286972
vn 0.40824830532073975 -0.81649661064147949 0.40824830532073975
vn 0.57735025882720947 0.57735025882720947 0.57735025882720947
vn 0.57735025882720947 -0.57735025882720947 -0.57735025882720947
vn 0.40824830532073975 0.81649661064147949 -0.40824830532073975
f 259//259 260//260 264//264
f 260//260 262//262 264//264
f 264//264 266//266 268//268
f 264//264 268//268 259//259
f 258//258 257//257 263//263
f 257//257 267//267 265//265
f 257//257 265//265 263//263
f 263//263 261//261 258//258
f 258//258 260//260 259//259 257//257
f 261//261 262//262 260//260 258//258
f 263//263 264//264 262//262 261//261
f 265//265 266//266 264//264 263//263
f 267//267 268//268 266//266 265//265
f 257//257 259//259 268//268 267//267
v 8.0498123168945312 0 3.3781166076660156
v 8.0498123168945312 0 5.028961181640625
v 8.0498123168945312 3 3.3781166076660156
v 8.0498123168945312 3 5.028961181640625
v 10.456794738769531 0 5.028961181640625
v 10.456794738769531 3 5.028961181640625
v 10.456794738769531 0 3.3781166076660156
v 10.456794738769531 3 3.3781166076660156
vn -0.57735025882720947 -0.57735025882720947 -0.57735025882720947
vn -0.57735025882720947 -0.57735025882720947 0.57735025882720947
vn -0.57735025882720947 0.57735025882720947 -0.57735025882720947
vn -0.57735025882720947 0.57735025882720947 0.57735025882720947
vn 0.57735025882720947 -0.57735025882720947 0.57735025882720947
vn 0.57735025882720947 0.57735025882720947 0.57735025882720947
vn 0.57735025882720947 -0.57735025882720947 -0.57735025882720947
vn 0.57735025882720947 0.57735025882720947 -0.57735025882720947
f 270//270 272//272 271//271 269//269
f 273//273 274//274 272//272 270//270
f 275//275 276//276 274//274 273//273
f 269//269 271//271 276//276 275//275
f 271//271 272//272 274//274 276//276
f 270//270 269//269 275//275 273//273
v 13.325111389160156 0 4.9046516418457031
v 13.325111389160156 0 6.4073486328125
v 13.325111389160156 3 4.9046516418457031
v 13.325111389160156 3 6.4073486328125
v 17.019771575927734 0 6.4073486328125
v 17.019771575927734 3 6.4073486328125
v 17.019771575927734 0 4.9046516418457031
v 17.019771575927734 3 4.9046516418457031
vn -0.57735025882720947 -0.57735025882720947 -0.57735025882720947
vn -0.57735025882720947 -0.57735025882720947 0.57735025882720947
vn -0.57735025882720947 0.57735025882720947 -0.57735025882720947
vn -0.57735025882720947 0.57735025882720947 0.57735025882720947
vn 0.57735025882720947 -0.57735025882720947 0.57735025882720947
vn 0.57735025882720947 0.57735025882720947 0.57735025882720947
vn 0.57735025882720947 -0.57735025882720947 -0.57735025882720947
vn 0.57735025882720947 0.57735025882720947 -0.57735025882720947
f 278//278 280//280 279//279 277//277
f 281//281 282//282 280//280 278//278
f 283//283 284//284 282//282 281//281
f 277//277 279//279 284//284 283//283
f 279//279 280//280 282//282 284//284
f 278//278 277//277 283//283 281//281
