# Rhino

g object_1
v -46.08123779296875 0 13.735090255737305
v -46.881240844726562 0 13.735090255737305
v -46.08123779296875 2.0999999046325684 13.735090255737305
v -46.881240844726562 2.0999999046325684 13.735090255737305
f 4 2 1 3
g object_2
v 19.545566558837891 0 13.735090255737305
v 18.745567321777344 0 13.735090255737305
v 19.545566558837891 2.0999999046325684 13.735090255737305
v 18.745567321777344 2.0999999046325684 13.735090255737305
f 8 6 5 7
g object_3
v 32.158340454101562 0 13.735090255737305
v 31.358341217041016 0 13.735090255737305
v 32.158340454101562 2.0999999046325684 13.735090255737305
v 31.358341217041016 2.0999999046325684 13.735090255737305
f 12 10 9 11
g object_4
v 46.758712768554688 0 13.735090255737305
v 45.958713531494141 0 13.735090255737305
v 46.758712768554688 2.0999999046325684 13.735090255737305
v 45.958713531494141 2.0999999046325684 13.735090255737305
f 16 14 13 15
g object_5
v 58.746021270751953 0 13.735090255737305
v 57.946022033691406 0 13.735090255737305
v 58.746021270751953 2.0999999046325684 13.735090255737305
v 57.946022033691406 2.0999999046325684 13.735090255737305
f 20 18 17 19
g object_6
v 70.24505615234375 0 13.735090255737305
v 69.445053100585938 0 13.735090255737305
v 70.24505615234375 2.0999999046325684 13.735090255737305
v 69.445053100585938 2.0999999046325684 13.735090255737305
f 24 22 21 23
g object_7
v 87.087623596191406 0 13.735090255737305
v 86.287628173828125 0 13.735090255737305
v 87.087623596191406 2.0999999046325684 13.735090255737305
v 86.287628173828125 2.0999999046325684 13.735090255737305
f 28 26 25 27
g object_8
v 106.31951141357422 0 13.735090255737305
v 105.51950836181641 0 13.735090255737305
v 106.31951141357422 2.0999999046325684 13.735090255737305
v 105.51950836181641 2.0999999046325684 13.735090255737305
f 32 30 29 31
g object_9
v 111.24886322021484 0 -62.324153900146484
v 110.44886016845703 0 -62.324153900146484
v 111.24886322021484 2.0999999046325684 -62.324153900146484
v 110.44886016845703 2.0999999046325684 -62.324153900146484
f 36 34 33 35
g object_10
v 87.178802490234375 0 -62.324153900146484
v 86.378799438476562 0 -62.324153900146484
v 87.178802490234375 2.0999999046325684 -62.324153900146484
v 86.378799438476562 2.0999999046325684 -62.324153900146484
f 40 38 37 39
g object_11
v 21.687166213989258 0 -62.322254180908203
v 20.887165069580078 0 -62.322254180908203
v 21.687166213989258 2.0999999046325684 -62.322254180908203
v 20.887165069580078 2.0999999046325684 -62.322254180908203
f 44 42 41 43
g object_12
v 12.337001800537109 0 -62.322254180908203
v 11.537001609802246 0 -62.322254180908203
v 12.337001800537109 2.0999999046325684 -62.322254180908203
v 11.537001609802246 2.0999999046325684 -62.322254180908203
f 48 46 45 47
g object_13
v 1.3508822917938232 0 -62.322254180908203
v 0.55088227987289429 0 -62.322254180908203
v 1.3508822917938232 2.0999999046325684 -62.322254180908203
v 0.55088227987289429 2.0999999046325684 -62.322254180908203
f 52 50 49 51
g object_14
v -34.696556091308594 0 -62.322254180908203
v -35.496555328369141 0 -62.322254180908203
v -34.696556091308594 2.0999999046325684 -62.322254180908203
v -35.496555328369141 2.0999999046325684 -62.322254180908203
f 56 54 53 55
g object_15
v -52.942802429199219 0 -62.322254180908203
v -53.742801666259766 0 -62.322254180908203
v -52.942802429199219 2.0999999046325684 -62.322254180908203
v -53.742801666259766 2.0999999046325684 -62.322254180908203
f 60 58 57 59
g object_16
v 115.55201721191406 0 -51.425457000732422
v 115.55201721191406 0 -52.225456237792969
v 115.55201721191406 2.0999999046325684 -51.425457000732422
v 115.55201721191406 2.0999999046325684 -52.225456237792969
f 64 62 61 63
g object_17
v 115.55201721191406 0 -40.194351196289062
v 115.55201721191406 0 -40.994350433349609
v 115.55201721191406 2.0999999046325684 -40.194351196289062
v 115.55201721191406 2.0999999046325684 -40.994350433349609
f 68 66 65 67
g object_18
v 115.55201721191406 0 9.1622085571289062
v 115.55201721191406 0 8.362208366394043
v 115.55201721191406 2.0999999046325684 9.1622085571289062
v 115.55201721191406 2.0999999046325684 8.362208366394043
f 72 70 69 71
g object_19
v -60.956172943115234 0 -46.87249755859375
v -60.956172943115234 0 -47.672500610351562
v -60.956172943115234 2.0999999046325684 -46.87249755859375
v -60.956172943115234 2.0999999046325684 -47.672500610351562
f 76 74 73 75
g object_20
v -60.956172943115234 0 -34.575237274169922
v -60.956172943115234 0 -35.375236511230469
v -60.956172943115234 2.0999999046325684 -34.575237274169922
v -60.956172943115234 2.0999999046325684 -35.375236511230469
f 80 78 77 79
g object_21
v -60.956172943115234 0 -22.881044387817383
v -60.956172943115234 0 -23.68104362487793
v -60.956172943115234 2.0999999046325684 -22.881044387817383
v -60.956172943115234 2.0999999046325684 -23.68104362487793
f 84 82 81 83
g object_22
v -60.956172943115234 0 -9.8724460601806641
v -60.956172943115234 0 -10.672445297241211
v -60.956172943115234 2.0999999046325684 -9.8724460601806641
v -60.956172943115234 2.0999999046325684 -10.672445297241211
f 88 86 85 87
g object_23
v 96.552574157714844 0 -27.600000381469727
v 96.552574157714844 0 -28.399999618530273
v 96.552574157714844 2.0999999046325684 -27.600000381469727
v 96.552574157714844 2.0999999046325684 -28.399999618530273
f 92 90 89 91
g object_24
v 76.400001525878906 0 -47.416412353515625
v 75.599998474121094 0 -47.416412353515625
v 76.400001525878906 2.0999999046325684 -47.416412353515625
v 75.599998474121094 2.0999999046325684 -47.416412353515625
f 96 94 93 95
g object_25
v 85.400001525878906 0 -32.748313903808594
v 84.599998474121094 0 -32.748313903808594
v 85.400001525878906 2.0999999046325684 -32.748313903808594
v 84.599998474121094 2.0999999046325684 -32.748313903808594
f 100 98 97 99
g object_26
v 71.902458190917969 0 -37.599998474121094
v 71.902458190917969 0 -38.400001525878906
v 71.902458190917969 2.0999999046325684 -37.599998474121094
v 71.902458190917969 2.0999999046325684 -38.400001525878906
f 104 102 101 103
g object_27
v 74.599998474121094 0 -30.117837905883789
v 75.400001525878906 0 -30.117837905883789
v 74.599998474121094 2.0999999046325684 -30.117837905883789
v 75.400001525878906 2.0999999046325684 -30.117837905883789
f 108 106 105 107
g object_28
v 98.931221008300781 0 -37.599998474121094
v 98.931221008300781 0 -38.400001525878906
v 98.931221008300781 2.0999999046325684 -37.599998474121094
v 98.931221008300781 2.0999999046325684 -38.400001525878906
f 112 110 109 111
g object_29
v 96.552574157714844 0 -15.399999618530273
v 96.552574157714844 0 -14.600000381469727
v 96.552574157714844 2.0999999046325684 -15.399999618530273
v 96.552574157714844 2.0999999046325684 -14.600000381469727
f 116 114 113 115
g object_30
v 91.292976379394531 0 -14.600000381469727
v 91.292976379394531 0 -15.399999618530273
v 91.292976379394531 2.0999999046325684 -14.600000381469727
v 91.292976379394531 2.0999999046325684 -15.399999618530273
f 120 118 117 119
g object_31
v 84.400001525878906 0 -18.107887268066406
v 83.599998474121094 0 -18.107887268066406
v 84.400001525878906 2.0999999046325684 -18.107887268066406
v 83.599998474121094 2.0999999046325684 -18.107887268066406
f 124 122 121 123
g object_32
v 78.688003540039062 0 -22.399999618530273
v 78.688003540039062 0 -21.600000381469727
v 78.688003540039062 2.0999999046325684 -22.399999618530273
v 78.688003540039062 2.0999999046325684 -21.600000381469727
f 128 126 125 127
g object_33
v 66.673721313476562 0 4.4000000953674316
v 66.673721313476562 0 3.5999999046325684
v 66.673721313476562 2.0999999046325684 4.4000000953674316
v 66.673721313476562 2.0999999046325684 3.5999999046325684
f 132 130 129 131
g object_34
v 50.018325805664062 0 -12.600000381469727
v 50.018325805664062 0 -13.399999618530273
v 50.018325805664062 2.0999999046325684 -12.600000381469727
v 50.018325805664062 2.0999999046325684 -13.399999618530273
f 136 134 133 135
g object_35
v 50.018325805664062 0 4.4000000953674316
v 50.018325805664062 0 3.5999999046325684
v 50.018325805664062 2.0999999046325684 4.4000000953674316
v 50.018325805664062 2.0999999046325684 3.5999999046325684
f 140 138 137 139
g object_36
v 73.400001525878906 0 -18.637079238891602
v 72.599998474121094 0 -18.637079238891602
v 73.400001525878906 2.0999999046325684 -18.637079238891602
v 72.599998474121094 2.0999999046325684 -18.637079238891602
f 144 142 141 143
g object_37
v 24.399999618530273 0 -18.637079238891602
v 23.600000381469727 0 -18.637079238891602
v 24.399999618530273 2.0999999046325684 -18.637079238891602
v 23.600000381469727 2.0999999046325684 -18.637079238891602
f 148 146 145 147
g object_38
v 26.495328903198242 0 -56.599998474121094
v 26.495328903198242 0 -57.400001525878906
v 26.495328903198242 2.0999999046325684 -56.599998474121094
v 26.495328903198242 2.0999999046325684 -57.400001525878906
f 152 150 149 151
g object_39
v 26.495328903198242 0 -47.400001525878906
v 26.495328903198242 0 -46.599998474121094
v 26.495328903198242 2.0999999046325684 -47.400001525878906
v 26.495328903198242 2.0999999046325684 -46.599998474121094
f 156 154 153 155
g object_40
v 6.7493510246276855 0 -44.599998474121094
v 6.7493510246276855 0 -45.400001525878906
v 6.7493510246276855 2.0999999046325684 -44.599998474121094
v 6.7493510246276855 2.0999999046325684 -45.400001525878906
f 160 158 157 159
g object_41
v 6.7493510246276855 0 -34.599998474121094
v 6.7493510246276855 0 -35.400001525878906
v 6.7493510246276855 2.0999999046325684 -34.599998474121094
v 6.7493510246276855 2.0999999046325684 -35.400001525878906
f 164 162 161 163
g object_42
v 33.072074890136719 0 -36.599998474121094
v 33.072074890136719 0 -37.400001525878906
v 33.072074890136719 2.0999999046325684 -36.599998474121094
v 33.072074890136719 2.0999999046325684 -37.400001525878906
f 168 166 165 167
g object_43
v 23.600000381469727 0 -30.117837905883789
v 24.399999618530273 0 -30.117837905883789
v 23.600000381469727 2.0999999046325684 -30.117837905883789
v 24.399999618530273 2.0999999046325684 -30.117837905883789
f 172 170 169 171
g object_44
v -30.399999618530273 0 -41.722633361816406
v -29.600000381469727 0 -41.722633361816406
v -30.399999618530273 2.0999999046325684 -41.722633361816406
v -29.600000381469727 2.0999999046325684 -41.722633361816406
f 176 174 173 175
g object_45
v -24.600000381469727 0 -46.734287261962891
v -25.399999618530273 0 -46.734287261962891
v -24.600000381469727 2.0999999046325684 -46.734287261962891
v -25.399999618530273 2.0999999046325684 -46.734287261962891
f 180 178 177 179
g object_46
v -34.599998474121094 0 -46.734287261962891
v -35.400001525878906 0 -46.734287261962891
v -34.599998474121094 2.0999999046325684 -46.734287261962891
v -35.400001525878906 2.0999999046325684 -46.734287261962891
f 184 182 181 183
g object_47
v -16.458881378173828 0 -44.599998474121094
v -16.458881378173828 0 -45.400001525878906
v -16.458881378173828 2.0999999046325684 -44.599998474121094
v -16.458881378173828 2.0999999046325684 -45.400001525878906
f 188 186 185 187
g object_48
v -16.458881378173828 0 -35.774333953857422
v -16.458881378173828 0 -34.974334716796875
v -16.458881378173828 2.0999999046325684 -35.774333953857422
v -16.458881378173828 2.0999999046325684 -34.974334716796875
f 192 190 189 191
g object_49
v -20.399999618530273 0 -30.117837905883789
v -19.600000381469727 0 -30.117837905883789
v -20.399999618530273 2.0999999046325684 -30.117837905883789
v -19.600000381469727 2.0999999046325684 -30.117837905883789
f 196 194 193 195
g object_50
v -24.463459014892578 0 -24.399999618530273
v -24.463459014892578 0 -23.600000381469727
v -24.463459014892578 2.0999999046325684 -24.399999618530273
v -24.463459014892578 2.0999999046325684 -23.600000381469727
f 200 198 197 199
g object_51
v 26.928329467773438 0 -12.399999618530273
v 26.928329467773438 0 -11.600000381469727
v 26.928329467773438 2.0999999046325684 -12.399999618530273
v 26.928329467773438 2.0999999046325684 -11.600000381469727
f 204 202 201 203
g object_52
v 20.293128967285156 0 -12.399999618530273
v 20.293128967285156 0 -11.600000381469727
v 20.293128967285156 2.0999999046325684 -12.399999618530273
v 20.293128967285156 2.0999999046325684 -11.600000381469727
f 208 206 205 207
g object_53
v 9.3999996185302734 0 -18.637079238891602
v 8.6000003814697266 0 -18.637079238891602
v 9.3999996185302734 2.0999999046325684 -18.637079238891602
v 8.6000003814697266 2.0999999046325684 -18.637079238891602
f 212 210 209 211
g object_54
v -31.600000381469727 0 -21.215681076049805
v -32.400001525878906 0 -21.215681076049805
v -31.600000381469727 2.0999999046325684 -21.215681076049805
v -32.400001525878906 2.0999999046325684 -21.215681076049805
f 216 214 213 215
g object_55
v -38.601734161376953 0 -15.399999618530273
v -38.601734161376953 0 -14.600000381469727
v -38.601734161376953 2.0999999046325684 -15.399999618530273
v -38.601734161376953 2.0999999046325684 -14.600000381469727
f 220 218 217 219
g object_56
v -29.399999618530273 0 -4.8289151191711426
v -28.600000381469727 0 -4.8289151191711426
v -29.399999618530273 2.0999999046325684 -4.8289151191711426
v -28.600000381469727 2.0999999046325684 -4.8289151191711426
f 224 222 221 223
g object_57
v -43.861721038818359 0 -8.6000003814697266
v -43.861721038818359 0 -9.3999996185302734
v -43.861721038818359 2.0999999046325684 -8.6000003814697266
v -43.861721038818359 2.0999999046325684 -9.3999996185302734
f 228 226 225 227
g object_58
v -43.861721038818359 0 -20.600000381469727
v -43.861721038818359 0 -21.399999618530273
v -43.861721038818359 2.0999999046325684 -20.600000381469727
v -43.861721038818359 2.0999999046325684 -21.399999618530273
f 232 230 229 231
