
CASCADE Topology V3, (c) Open Cascade
Locations 0
Curve2ds 172
1 12.00468830586011 18.646133188484754 -1 0 
1 12.00468830586011 18.646133188484754 -1 0 
1 7.9525593058601132 18.646133188484754 0 1 
1 7.9525593058601132 18.646133188484754 0 1 
1 7.9525593058601132 19.542751188484772 1 0 
1 7.9525593058601132 19.542751188484772 1 0 
1 12.00468830586011 19.542751188484772 0 -1 
1 12.00468830586011 19.542751188484772 0 -1 
1 50.036389305860105 -10.57912981151523 0 -1 
1 50.036389305860105 -10.57912981151523 0 -1 
1 50.036389305860105 -14.316910811515243 -1 0 
1 50.036389305860105 -14.316910811515243 -1 0 
1 40.808431305860111 -14.316910811515243 0 1 
1 40.808431305860111 -14.316910811515243 0 1 
1 40.808431305860111 -10.57912981151523 1 0 
1 40.808431305860111 -10.57912981151523 1 0 
1 41.308431305860111 -10.57912981151523 0 -1 
1 41.308431305860111 -10.57912981151523 0 -1 
1 41.308431305860111 -13.316910811515243 1 0 
1 41.308431305860111 -13.316910811515243 1 0 
1 49.536389305860105 -13.316910811515243 0 1 
1 49.536389305860105 -13.316910811515243 0 1 
1 49.536389305860105 -10.57912981151523 1 0 
1 49.536389305860105 -10.57912981151523 1 0 
1 19.73428630586011 -13.316910811515243 1 0 
1 19.73428630586011 -13.316910811515243 1 0 
1 28.608953305860112 -13.316910811515243 0 -1 
1 28.608953305860112 -13.316910811515243 0 -1 
1 28.608953305860112 -14.316910811515243 -1 0 
1 28.608953305860112 -14.316910811515243 -1 0 
1 19.73428630586011 -14.316910811515243 0 1 
1 19.73428630586011 -14.316910811515243 0 1 
1 70.228110305860099 9.0193411884847592 0 -1 
1 70.228110305860099 9.0193411884847592 0 -1 
1 70.228110305860099 8.0193411884847592 -1 0 
1 70.228110305860099 8.0193411884847592 -1 0 
1 67.487063305860119 8.0193411884847592 0 1 
1 67.487063305860119 8.0193411884847592 0 1 
1 67.487063305860119 9.0193411884847592 1 0 
1 67.487063305860119 9.0193411884847592 1 0 
1 -20.395568694139889 19.532333188484756 0 -1 
1 -20.395568694139889 19.532333188484756 0 -1 
1 -20.395568694139889 18.532333188484756 -1 0 
1 -20.395568694139889 18.532333188484756 -1 0 
1 -25.293836694139888 18.532333188484756 0 1 
1 -25.293836694139888 18.532333188484756 0 1 
1 -25.293836694139888 19.532333188484756 1 0 
1 -25.293836694139888 19.532333188484756 1 0 
1 -3.8031097423351703 -1.7779191223606574 0 1 
1 -32.880228694139888 16.133546188484758 0 1 
1 -32.880228694139888 16.133546188484758 0 1 
1 -3.8031097423351703 -0.23386212236064807 1 0 
1 -32.880228694139888 17.677603188484767 -1 0 
1 -32.880228694139888 17.677603188484767 -1 0 
1 6.2941772576648312 -0.23386212236064807 0 1 
1 -42.977515694139889 17.677603188484767 0 1 
1 -42.977515694139889 17.677603188484767 0 1 
1 6.2941772576648312 0.27897387763934489 -1 0 
1 -42.977515694139889 18.19043918848476 1 0 
1 -42.977515694139889 18.19043918848476 1 0 
1 -3.8031097423351703 0.27897387763934489 0 1 
1 -32.880228694139888 18.19043918848476 0 1 
1 -32.880228694139888 18.19043918848476 0 1 
1 -3.8031097423351703 1.6581688776393548 -1 0 
1 -32.880228694139888 19.56963418848477 1 0 
1 -32.880228694139888 19.56963418848477 1 0 
1 -4.170824742335169 1.6581688776393548 0 -1 
1 -32.512513694139891 19.56963418848477 0 -1 
1 -32.512513694139891 19.56963418848477 0 -1 
1 -4.170824742335169 -1.7779191223606574 1 0 
1 -32.512513694139891 16.133546188484758 -1 0 
1 -32.512513694139891 16.133546188484758 -1 0 
1 -15.810548694139888 11.63180018848476 0 -1 
1 -15.810548694139888 11.63180018848476 0 -1 
1 -15.810548694139888 8.0193411884847592 -1 0 
1 -15.810548694139888 8.0193411884847592 -1 0 
1 -25.351146694139889 8.0193411884847592 0 1 
1 -25.351146694139889 8.0193411884847592 0 1 
1 -25.351146694139889 9.1713281884847504 1 0 
1 -25.351146694139889 9.1713281884847504 1 0 
1 -16.158390694139889 9.1713281884847504 0 1 
1 -16.158390694139889 9.1713281884847504 0 1 
1 -16.158390694139889 11.63180018848476 1 0 
1 -16.158390694139889 11.63180018848476 1 0 
1 63.487063305860111 8.0193411884847592 -1 0 
1 63.487063305860111 8.0193411884847592 -1 0 
1 57.666645305860108 8.0193411884847592 0 1 
1 57.666645305860108 8.0193411884847592 0 1 
1 57.666645305860108 19.616323188484756 1 0 
1 57.666645305860108 19.616323188484756 1 0 
1 58.73189130586011 19.616323188484756 0 -1 
1 58.73189130586011 19.616323188484756 0 -1 
1 58.73189130586011 11.400174188484755 1 0 
1 58.73189130586011 11.400174188484755 1 0 
1 63.487063305860111 11.400174188484755 0 -1 
1 63.487063305860111 11.400174188484755 0 -1 
1 58.73189130586011 31.656349188484768 -1 0 
1 58.73189130586011 31.656349188484768 -1 0 
1 57.666645305860108 31.656349188484768 0 1 
1 57.666645305860108 31.656349188484768 0 1 
1 57.666645305860108 33.339116188484752 1 0 
1 57.666645305860108 33.339116188484752 1 0 
1 58.73189130586011 33.339116188484752 0 -1 
1 58.73189130586011 33.339116188484752 0 -1 
1 0.80964430586011105 18.532333188484756 -1 0 
1 0.80964430586011105 18.532333188484756 -1 0 
1 -8.4998816941398871 18.532333188484756 0 -1 
1 -8.4998816941398871 18.532333188484756 0 -1 
1 -8.4998816941398871 9.1713281884847504 1 0 
1 -8.4998816941398871 9.1713281884847504 1 0 
1 13.140232305860113 9.1713281884847504 0 -1 
1 13.140232305860113 9.1713281884847504 0 -1 
1 13.140232305860113 8.0193411884847592 -1 0 
1 13.140232305860113 8.0193411884847592 -1 0 
1 -9.0799786941398875 8.0193411884847592 0 1 
1 -9.0799786941398875 8.0193411884847592 0 1 
1 -9.0799786941398875 35.526348188484775 1 0 
1 -9.0799786941398875 35.526348188484775 1 0 
1 0.80964430586011105 35.526348188484775 0 -1 
1 0.80964430586011105 35.526348188484775 0 -1 
1 57.675337305860118 -13.316478811515225 1 0 
1 57.675337305860118 -13.316478811515225 1 0 
1 61.207621305860108 -13.316478811515225 0 1 
1 61.207621305860108 -13.316478811515225 0 1 
1 61.207621305860108 -6.0629048115152386 1 0 
1 61.207621305860108 -6.0629048115152386 1 0 
1 61.707621305860108 -6.0629048115152386 0 -1 
1 61.707621305860108 -6.0629048115152386 0 -1 
1 61.707621305860108 -13.316478811515225 1 0 
1 61.707621305860108 -13.316478811515225 1 0 
1 66.50371630586011 -13.316478811515225 0 -1 
1 66.50371630586011 -13.316478811515225 0 -1 
1 66.50371630586011 -14.316478811515225 -1 0 
1 66.50371630586011 -14.316478811515225 -1 0 
1 57.675337305860118 -14.316478811515225 0 1 
1 57.675337305860118 -14.316478811515225 0 1 
1 83.311952305860103 23.519169188484767 0 -1 
1 83.311952305860103 23.519169188484767 0 -1 
1 83.311952305860103 8.047680188484776 -1 0 
1 83.311952305860103 8.047680188484776 -1 0 
1 81.364836305860109 8.047680188484776 0 1 
1 81.364836305860109 8.047680188484776 0 1 
1 81.364836305860109 16.161252188484752 -1 0 
1 81.364836305860109 16.161252188484752 -1 0 
1 77.545547305860111 16.161252188484752 0 1 
1 77.545547305860111 16.161252188484752 0 1 
1 77.545547305860111 19.529500188484775 1 0 
1 77.545547305860111 19.529500188484775 1 0 
1 81.358085305860101 19.529500188484775 0 1 
1 81.358085305860101 19.529500188484775 0 1 
1 81.358085305860101 23.519169188484767 1 0 
1 81.358085305860101 23.519169188484767 1 0 
1 83.311952305860103 -2.4614168115152495 0 -1 
1 83.311952305860103 -2.4614168115152495 0 -1 
1 83.311952305860103 -19.397501811515241 -1 0 
1 83.311952305860103 -19.397501811515241 -1 0 
1 81.358085305860101 -19.397501811515241 0 1 
1 81.358085305860101 -19.397501811515241 0 1 
1 81.358085305860101 -14.316478811515225 -1 0 
1 81.358085305860101 -14.316478811515225 -1 0 
1 74.091174305860108 -14.316478811515225 0 1 
1 74.091174305860108 -14.316478811515225 0 1 
1 74.091174305860108 -13.316478811515225 1 0 
1 74.091174305860108 -13.316478811515225 1 0 
1 81.358085305860101 -13.316478811515225 0 1 
1 81.358085305860101 -13.316478811515225 0 1 
1 81.358085305860101 -3.8401568115152429 -1 0 
1 81.358085305860101 -3.8401568115152429 -1 0 
1 23.493053305860109 -3.8401568115152429 0 1 
1 23.493053305860109 -3.8401568115152429 0 1 
1 23.493053305860109 -2.4614168115152495 1 0 
1 23.493053305860109 -2.4614168115152495 1 0 
Curves 230
1 -50.969839999999998 -233.679879 0 -1 0 0 
1 -52.969839999999998 -233.679879 0 0 -1 0 
1 -52.969839999999998 -251.946338 0 1 0 0 
1 -50.969839999999998 -251.946338 0 0 -1 0 
1 -50.969839999999998 -253.793871 0 1 0 0 
1 -47.086455000000001 -253.793871 0 0 -1 0 
1 -47.086455000000001 -255.793871 0 1 0 0 
1 -20.969889999999999 -255.793871 0 0 1 0 
1 -20.969889999999999 -253.793871 0 1 0 0 
1 -15.477126 -253.793871 0 0 1 0 
1 -15.477126 -233.60048499999999 0 -1 0 0 
1 -21.002652999999999 -233.60048499999999 0 0 1 0 
1 -21.002652999999999 -233.10048499999999 0 1 0 0 
1 -19.206907999999999 -233.10048499999999 0 0 1 0 
1 -19.206907999999999 -223.28049200000001 0 -1 0 0 
1 -25.094843999999998 -223.28049200000001 0 0 -1 0 
1 -25.094843999999998 -233.60048499999999 0 -1 0 0 
1 -29.865400000000001 -233.60048499999999 0 0 1 0 
1 -29.865400000000001 -227.51879199999999 0 1 0 0 
1 -29.365400000000001 -227.51879199999999 0 0 -1 0 
1 -29.365400000000001 -230.24775700000001 0 0.99999999172738741 -0.0001286282436822073 0 
1 -25.594843999999998 -230.248242 0 0 1 0 
1 -25.594843999999998 -223.28049200000001 0 -1 0 0 
1 -29.365400000000001 -223.28049200000001 0 0 -1 0 
1 -29.365400000000001 -224.26879199999999 0 -1 0 0 
1 -29.865400000000001 -224.26879199999999 0 0 1 0 
1 -29.865400000000001 -223.28049200000001 0 -1 0 0 
1 -37.325186000000002 -223.28049200000001 0 0 -1 0 
1 -37.325186000000002 -233.10048499999999 0 1 0 0 
1 -34.828595999999997 -233.10048499999999 0 0 -1 0 
1 -34.828595999999997 -233.60048499999999 0 -1 0 0 
1 -41.746924 -233.60048499999999 0 0 1 0 
1 -41.746924 -233.10048499999999 0 1 0 0 
1 -37.825186000000002 -233.10048499999999 0 0 1 0 
1 -37.825186000000002 -223.28049200000001 0 -1 0 0 
1 -41.303823000000001 -223.28049200000001 0 0 1 0 
1 -41.303823000000001 -221.93872200000001 0 0.99999980951730405 0.0006172239103832399 0 
1 -13.727126 -221.92170100000001 0 0 -1 0 
1 -13.727126 -255.793871 0 1 0 0 
1 11.154455 -255.793871 0 0 1 0 
1 11.154455 -223.540595 0 -1 0 0 
1 9.1392199999999999 -223.540595 0 0 1 0 
1 9.1392199999999999 -221.92170100000001 0 1 0 0 
1 15.506702000000001 -221.92170100000001 0 0 -1 0 
1 15.506702000000001 -222.92170100000001 0 -1 0 0 
1 13.902998999999999 -222.92170100000001 0 0 -1 0 
1 13.902998999999999 -232.85244700000001 0 1 0 0 
1 20.498374999999999 -232.85244700000001 0 0 1 0 
1 20.498374999999999 -222.92170100000001 0 -1 0 0 
1 20.040178999999998 -222.92170100000001 0 0 1 0 
1 20.040178999999998 -221.92170100000001 0 1 0 0 
1 37.373379 -221.92170100000001 0 0 -1 0 
1 37.373379 -223.30044100000001 0 -1 0 0 
1 31.229823 -223.30044100000001 0 0 -1 0 
1 31.229823 -224.97620499999999 0 -1 0 0 
1 30.729823 -224.97620499999999 0 0 1 0 
1 30.729823 -223.30044100000001 0 -1 0 0 
1 22.248374999999999 -223.30044100000001 0 0 -1 0 
1 22.248374999999999 -228.626113 0 1 0 0 
1 30.729823 -228.626113 0 0 1 0 
1 30.729823 -228.286159 0 1 0 0 
1 31.229823 -228.286159 0 0 -1 0 
1 31.229823 -229.52196900000001 0 -1 0 0 
1 30.729823 -229.52196900000001 0 0 1 0 
1 30.729823 -229.126113 0 -1 0 0 
1 22.248374999999999 -229.126113 0 0 -1 0 
1 22.248374999999999 -233.10967600000001 0 1 0 0 
1 30.729823 -233.10967600000001 0 0 1 0 
1 30.729823 -232.82438400000001 0 1 0 0 
1 31.229823 -232.82438400000001 0 0 -1 0 
1 31.229823 -233.70518899999999 0 -1 0 0 
1 22.248374999999999 -233.70518899999999 0 0 -1 0 
1 22.248374999999999 -234.45201800000001 0 -1 0 0 
1 12.904455 -234.45201800000001 0 0 -1 0 
1 12.904455 -253.793871 0 1 0 0 
1 16.411954000000001 -253.793871 0 0 -1 0 
1 16.411954000000001 -255.793871 0 1 0 0 
1 38.360551999999998 -255.793871 0 0 1 0 
1 38.360551999999998 -253.793871 0 1 0 0 
1 43.231535000000001 -253.793871 0 0 -1 0 
1 43.231535000000001 -255.793871 0 1 0 0 
1 57.742156999999999 -255.793871 0 0 1 0 
1 57.742156999999999 -253.793871 0 1 0 0 
1 62.613140999999999 -253.793871 0 0 -1 0 
1 62.613140999999999 -255.793871 0 1 0 0 
1 77.160439999999994 -255.793871 0 0 1 0 
1 77.160439999999994 -253.793871 0 1 0 0 
1 82.017825000000002 -253.793871 0 0 -1 0 
1 82.017825000000002 -255.793871 0 1 0 0 
1 96.526115000000004 -255.793871 0 0 1 0 
1 96.526115000000004 -253.793871 0 1 0 0 
1 99.304311999999996 -253.793871 0 0 1 0 
1 99.304311999999996 -250.886144 0 1 0 0 
1 101.258179 -250.886144 0 0 -1 0 
1 101.258179 -255.793871 0 1 0 0 
1 125.538349 -255.793871 0 0 1 0 
1 125.538349 -177.73462699999999 0 -1 0 0 
1 101.258179 -177.73462699999999 0 0 -1 0 
1 101.258179 -188.05759699999999 0 -1 0 0 
1 99.304311999999996 -188.05759699999999 0 0 1 0 
1 99.304311999999996 -179.73462699999999 0 -1 0 0 
1 75.140041999999994 -179.73462699999999 0 0 1 0 
1 75.140041999999994 -177.73462699999999 0 -1 0 0 
1 47.697805000000002 -177.73462699999999 0 0 -1 0 
1 47.697805000000002 -179.73462699999999 0 -1 0 0 
1 38.005687000000002 -179.73462699999999 0 0 -1 0 
1 38.005687000000002 -199.84107700000001 0 1 0 0 
1 47.160620999999999 -199.84107700000001 0 0 -1 0 
1 47.160620999999999 -211.440943 0 -1 0 0 
1 42.558408 -211.440943 0 0 1 0 
1 42.558408 -207.775981 0 1 0 0 
1 46.443784999999998 -207.775981 0 0 1 0 
1 46.443784999999998 -200.826752 0 -1 0 0 
1 38.005687000000002 -200.826752 0 0 -1 0 
1 38.005687000000002 -210.440943 0 1 0 0 
1 38.328541999999999 -210.440943 0 0 -1 0 
1 38.328541999999999 -211.440943 0 -1 0 0 
1 35.733600000000003 -211.440943 0 0 1 0 
1 35.733600000000003 -210.440943 0 1 0 0 
1 37.085090999999998 -210.440943 0 0 1 0 
1 37.085090999999998 -177.73462699999999 0 -1 0 0 
1 -52.969839999999998 -177.73462699999999 0 0 -1 0 
1 -52.969839999999998 -199.863551 0 1 0 0 
1 -50.969839999999998 -199.863551 0 0 -1 0 
1 -50.969839999999998 -203.17051000000001 0 1 0 0 
1 -45.704146999999999 -203.17051000000001 0 0 1 0 
1 -45.704146999999999 -199.84732299999999 0 1 0 0 
1 -45.192467999999998 -199.84732299999999 0 0 -1 0 
1 -45.192467999999998 -202.832742 0 1 0 0 
1 -30.038357000000001 -202.832742 0 0 1 0 
1 -30.038357000000001 -200.82429200000001 0 1 0 0 
1 -29.016629999999999 -200.82429200000001 0 0 -1 0 
1 -29.016629999999999 -202.88647599999999 0 1 0 0 
1 -25.031289000000001 -202.88647599999999 0 0 -1 0 
1 -25.031289000000001 -210.28895600000001 0 1 0 0 
1 -14.630311000000001 -210.28895600000001 0 0 -1 0 
1 -14.630311000000001 -216.64964699999999 0 -1 0 0 
1 -37.712645999999999 -216.64964699999999 0 0 1 0 
1 -37.712645999999999 -211.440943 0 -1 0 0 
1 -52.969839999999998 -211.440943 0 0 -1 0 
1 -52.969839999999998 -221.92170100000001 0 1 0 0 
1 -45.612845999999998 -221.92170100000001 0 0 -1 0 
1 -45.612845999999998 -233.10048499999999 0 1 0 0 
1 -44.909087 -233.10048499999999 0 0 -1 0 
1 -44.909087 -233.60048499999999 0 -1 0 0 
1 -46.112845999999998 -233.60048499999999 0 0 1 0 
1 -46.112845999999998 -223.28049200000001 0 -1 0 0 
1 -50.969839999999998 -223.28049200000001 0 0 -1 0 
1 29.950914999999998 -200.81415100000001 0 -1 0 0 
1 25.898786000000001 -200.81415100000001 0 0 1 0 
1 25.898786000000001 -199.91753299999999 0 1 0 0 
1 29.950914999999998 -199.91753299999999 0 0 -1 0 
1 67.982615999999993 -230.03941399999999 0 0 -1 0 
1 67.982615999999993 -233.77719500000001 0 -1 0 0 
1 58.754657999999999 -233.77719500000001 0 0 1 0 
1 58.754657999999999 -230.03941399999999 0 1 0 0 
1 59.254657999999999 -230.03941399999999 0 0 -1 0 
1 59.254657999999999 -232.77719500000001 0 1 0 0 
1 67.482615999999993 -232.77719500000001 0 0 1 0 
1 67.482615999999993 -230.03941399999999 0 1 0 0 
1 37.680512999999998 -232.77719500000001 0 1 0 0 
1 46.55518 -232.77719500000001 0 0 -1 0 
1 46.55518 -233.77719500000001 0 -1 0 0 
1 37.680512999999998 -233.77719500000001 0 0 1 0 
1 88.174336999999994 -210.440943 0 0 -1 0 
1 88.174336999999994 -211.440943 0 -1 0 0 
1 85.43329 -211.440943 0 0 1 0 
1 85.43329 -210.440943 0 1 0 0 
1 -2.4493420000000001 -199.92795100000001 0 0 -1 0 
1 -2.4493420000000001 -200.92795100000001 0 -1 0 0 
1 -7.3476100000000004 -200.92795100000001 0 0 1 0 
1 -7.3476100000000004 -199.92795100000001 0 1 0 0 
1 -14.934002 -203.32673800000001 0 0 1 0 
1 -14.934002 -201.782681 0 -1 0 0 
1 -25.031289000000001 -201.782681 0 0 1 0 
1 -25.031289000000001 -201.269845 0 1 0 0 
1 -14.934002 -201.269845 0 0 1 0 
1 -14.934002 -199.89064999999999 0 1 0 0 
1 -14.566287000000001 -199.89064999999999 0 0 -1 0 
1 -14.566287000000001 -203.32673800000001 0 -1 0 0 
1 2.135678 -207.828484 0 0 -1 0 
1 2.135678 -211.440943 0 -1 0 0 
1 -7.4049199999999997 -211.440943 0 0 1 0 
1 -7.4049199999999997 -210.28895600000001 0 1 0 0 
1 1.787836 -210.28895600000001 0 0 1 0 
1 1.787836 -207.828484 0 1 0 0 
1 81.43329 -211.440943 0 -1 0 0 
1 75.612871999999996 -211.440943 0 0 1 0 
1 75.612871999999996 -199.84396100000001 0 1 0 0 
1 76.678117999999998 -199.84396100000001 0 0 -1 0 
1 76.678117999999998 -208.06011000000001 0 1 0 0 
1 81.43329 -208.06011000000001 0 0 -1 0 
1 76.678117999999998 -187.803935 0 -1 0 0 
1 75.612871999999996 -187.803935 0 0 1 0 
1 75.612871999999996 -186.12116800000001 0 1 0 0 
1 76.678117999999998 -186.12116800000001 0 0 -1 0 
1 18.755870999999999 -200.92795100000001 0 -1 0 0 
1 9.4463450000000009 -200.92795100000001 0 0 -1 0 
1 9.4463450000000009 -210.28895600000001 0 1 0 0 
1 31.086459000000001 -210.28895600000001 0 0 -1 0 
1 31.086459000000001 -211.440943 0 -1 0 0 
1 8.8662480000000006 -211.440943 0 0 1 0 
1 8.8662480000000006 -183.93393599999999 0 1 0 0 
1 18.755870999999999 -183.93393599999999 0 0 -1 0 
1 75.621564000000006 -232.77676299999999 0 1 0 0 
1 79.153847999999996 -232.77676299999999 0 0 1 0 
1 79.153847999999996 -225.523189 0 1 0 0 
1 79.653847999999996 -225.523189 0 0 -1 0 
1 79.653847999999996 -232.77676299999999 0 1 0 0 
1 84.449943000000005 -232.77676299999999 0 0 -1 0 
1 84.449943000000005 -233.77676299999999 0 -1 0 0 
1 75.621564000000006 -233.77676299999999 0 0 1 0 
1 101.258179 -195.941115 0 0 -1 0 
1 101.258179 -211.41260399999999 0 -1 0 0 
1 99.311063000000004 -211.41260399999999 0 0 1 0 
1 99.311063000000004 -203.29903200000001 0 -1 0 0 
1 95.491774000000007 -203.29903200000001 0 0 1 0 
1 95.491774000000007 -199.93078399999999 0 1 0 0 
1 99.304311999999996 -199.93078399999999 0 0 1 0 
1 99.304311999999996 -195.941115 0 1 0 0 
1 101.258179 -221.92170100000001 0 0 -1 0 
1 101.258179 -238.857786 0 -1 0 0 
1 99.304311999999996 -238.857786 0 0 1 0 
1 99.304311999999996 -233.77676299999999 0 -1 0 0 
1 92.037401000000003 -233.77676299999999 0 0 1 0 
1 92.037401000000003 -232.77676299999999 0 1 0 0 
1 99.304311999999996 -232.77676299999999 0 0 1 0 
1 99.304311999999996 -223.30044100000001 0 -1 0 0 
1 41.439279999999997 -223.30044100000001 0 0 1 0 
1 41.439279999999997 -221.92170100000001 0 1 0 0 
Polygon3D 0
PolygonOnTriangulations 0
Surfaces 28
1 17.946226694139888 -219.46028418848476 0 0 0 1 1 0 -0 -0 1 0 
1 17.946226694139888 -219.46028418848476 0 0 0 1 1 0 -0 -0 1 0 
1 17.946226694139888 -219.46028418848476 0 0 0 1 1 0 -0 -0 1 0 
1 17.946226694139888 -219.46028418848476 0 0 0 1 1 0 -0 -0 1 0 
1 17.946226694139888 -219.46028418848476 0 0 0 1 1 0 -0 -0 1 0 
1 17.946226694139888 -219.46028418848476 0 0 0 1 1 0 -0 -0 1 0 
1 17.946226694139888 -219.46028418848476 0 0 0 1 1 0 -0 -0 1 0 
1 17.946226694139888 -219.46028418848476 0 0 0 1 1 0 -0 -0 1 0 
1 17.946226694139888 -219.46028418848476 0 0 0 1 1 0 -0 -0 1 0 
1 17.946226694139888 -219.46028418848476 0 0 0 1 1 0 -0 -0 1 0 
1 17.946226694139888 -219.46028418848476 0 0 0 1 1 0 -0 -0 1 0 
1 -18.73711174233517 -201.54881887763935 0 -0 -0 -1 -1 0 0 0 1 -0 
1 17.946226694139888 -219.46028418848476 0 0 0 1 1 0 -0 -0 1 0 
1 17.946226694139888 -219.46028418848476 0 0 0 1 1 0 -0 -0 1 0 
1 17.946226694139888 -219.46028418848476 0 0 0 1 1 0 -0 -0 1 0 
1 17.946226694139888 -219.46028418848476 0 0 0 1 1 0 -0 -0 1 0 
1 17.946226694139888 -219.46028418848476 0 0 0 1 1 0 -0 -0 1 0 
1 17.946226694139888 -219.46028418848476 0 0 0 1 1 0 -0 -0 1 0 
1 17.946226694139888 -219.46028418848476 0 0 0 1 1 0 -0 -0 1 0 
1 17.946226694139888 -219.46028418848476 0 0 0 1 1 0 -0 -0 1 0 
1 17.946226694139888 -219.46028418848476 0 0 0 1 1 0 -0 -0 1 0 
1 17.946226694139888 -219.46028418848476 0 0 0 1 1 0 -0 -0 1 0 
1 17.946226694139888 -219.46028418848476 0 0 0 1 1 0 -0 -0 1 0 
1 17.946226694139888 -219.46028418848476 0 0 0 1 1 0 -0 -0 1 0 
1 17.946226694139888 -219.46028418848476 0 0 0 1 1 0 -0 -0 1 0 
1 17.946226694139888 -219.46028418848476 0 0 0 1 1 0 -0 -0 1 0 
1 17.946226694139888 -219.46028418848476 0 0 0 1 1 0 -0 -0 1 0 
1 17.946226694139888 -219.46028418848476 0 0 0 1 1 0 -0 -0 1 0 
Triangulations 0

TShapes 475
Ve
1e-07
-50.96984 -233.679879 0
0 0

0101101
*
Ve
1e-07
-52.96984 -233.679879 0
0 0

0101101
*
Ed
 1e-07 1 1 0
1  1 0 0 2
0

0101000
+475 0 -474 0 *
Ve
1e-07
-52.96984 -251.946338 0
0 0

0101101
*
Ed
 1e-07 1 1 0
1  2 0 0 18.266459
0

0101000
+474 0 -472 0 *
Ve
1e-07
-50.96984 -251.946338 0
0 0

0101101
*
Ed
 1e-07 1 1 0
1  3 0 0 2
0

0101000
+472 0 -470 0 *
Ve
1e-07
-50.96984 -253.793871 0
0 0

0101101
*
Ed
 1e-07 1 1 0
1  4 0 0 1.847533
0

0101000
+470 0 -468 0 *
Ve
1e-07
-47.086455 -253.793871 0
0 0

0101101
*
Ed
 1e-07 1 1 0
1  5 0 0 3.883385
0

0101000
+468 0 -466 0 *
Ve
1e-07
-47.086455 -255.793871 0
0 0

0101101
*
Ed
 1e-07 1 1 0
1  6 0 0 2
0

0101000
+466 0 -464 0 *
Ve
1e-07
-20.96989 -255.793871 0
0 0

0101101
*
Ed
 1e-07 1 1 0
1  7 0 0 26.116565
0

0101000
+464 0 -462 0 *
Ve
1e-07
-20.96989 -253.793871 0
0 0

0101101
*
Ed
 1e-07 1 1 0
1  8 0 0 2
0

0101000
+462 0 -460 0 *
Ve
1e-07
-15.477126 -253.793871 0
0 0

0101101
*
Ed
 1e-07 1 1 0
1  9 0 0 5.492764
0

0101000
+460 0 -458 0 *
Ve
1e-07
-15.477126 -233.600485 0
0 0

0101101
*
Ed
 1e-07 1 1 0
1  10 0 0 20.193386
0

0101000
+458 0 -456 0 *
Ve
1e-07
-21.002653 -233.600485 0
0 0

0101101
*
Ed
 1e-07 1 1 0
1  11 0 0 5.525527
0

0101000
+456 0 -454 0 *
Ve
1e-07
-21.002653 -233.100485 0
0 0

0101101
*
Ed
 1e-07 1 1 0
1  12 0 0 0.5
0

0101000
+454 0 -452 0 *
Ve
1e-07
-19.206908 -233.100485 0
0 0

0101101
*
Ed
 1e-07 1 1 0
1  13 0 0 1.795745
0

0101000
+452 0 -450 0 *
Ve
1e-07
-19.206908 -223.280492 0
0 0

0101101
*
Ed
 1e-07 1 1 0
1  14 0 0 9.81999299999998
0

0101000
+450 0 -448 0 *
Ve
1e-07
-25.094844 -223.280492 0
0 0

0101101
*
Ed
 1e-07 1 1 0
1  15 0 0 5.887936
0

0101000
+448 0 -446 0 *
Ve
1e-07
-25.094844 -233.600485 0
0 0

0101101
*
Ed
 1e-07 1 1 0
1  16 0 0 10.319993
0

0101000
+446 0 -444 0 *
Ve
1e-07
-29.8654 -233.600485 0
0 0

0101101
*
Ed
 1e-07 1 1 0
1  17 0 0 4.770556
0

0101000
+444 0 -442 0 *
Ve
1e-07
-29.8654 -227.518792 0
0 0

0101101
*
Ed
 1e-07 1 1 0
1  18 0 0 6.081693
0

0101000
+442 0 -440 0 *
Ve
1e-07
-29.3654 -227.518792 0
0 0

0101101
*
Ed
 1e-07 1 1 0
1  19 0 0 0.5
0

0101000
+440 0 -438 0 *
Ve
1e-07
-29.3654 -230.247757 0
0 0

0101101
*
Ed
 1e-07 1 1 0
1  20 0 0 2.72896500000002
0

0101000
+438 0 -436 0 *
Ve
1e-07
-25.594844 -230.248242 0
0 0

0101101
*
Ed
 1e-07 1 1 0
1  21 0 0 3.77055603119235
0

0101000
+436 0 -434 0 *
Ve
1e-07
-25.594844 -223.280492 0
0 0

0101101
*
Ed
 1e-07 1 1 0
1  22 0 0 6.96775
0

0101000
+434 0 -432 0 *
Ve
1e-07
-29.3654 -223.280492 0
0 0

0101101
*
Ed
 1e-07 1 1 0
1  23 0 0 3.770556
0

0101000
+432 0 -430 0 *
Ve
1e-07
-29.3654 -224.268792 0
0 0

0101101
*
Ed
 1e-07 1 1 0
1  24 0 0 0.988299999999981
0

0101000
+430 0 -428 0 *
Ve
1e-07
-29.8654 -224.268792 0
0 0

0101101
*
Ed
 1e-07 1 1 0
1  25 0 0 0.5
0

0101000
+428 0 -426 0 *
Ve
1e-07
-29.8654 -223.280492 0
0 0

0101101
*
Ed
 1e-07 1 1 0
1  26 0 0 0.988299999999981
0

0101000
+426 0 -424 0 *
Ve
1e-07
-37.325186 -223.280492 0
0 0

0101101
*
Ed
 1e-07 1 1 0
1  27 0 0 7.459786
0

0101000
+424 0 -422 0 *
Ve
1e-07
-37.325186 -233.100485 0
0 0

0101101
*
Ed
 1e-07 1 1 0
1  28 0 0 9.81999299999998
0

0101000
+422 0 -420 0 *
Ve
1e-07
-34.828596 -233.100485 0
0 0

0101101
*
Ed
 1e-07 1 1 0
1  29 0 0 2.49659
0

0101000
+420 0 -418 0 *
Ve
1e-07
-34.828596 -233.600485 0
0 0

0101101
*
Ed
 1e-07 1 1 0
1  30 0 0 0.5
0

0101000
+418 0 -416 0 *
Ve
1e-07
-41.746924 -233.600485 0
0 0

0101101
*
Ed
 1e-07 1 1 0
1  31 0 0 6.918328
0

0101000
+416 0 -414 0 *
Ve
1e-07
-41.746924 -233.100485 0
0 0

0101101
*
Ed
 1e-07 1 1 0
1  32 0 0 0.5
0

0101000
+414 0 -412 0 *
Ve
1e-07
-37.825186 -233.100485 0
0 0

0101101
*
Ed
 1e-07 1 1 0
1  33 0 0 3.921738
0

0101000
+412 0 -410 0 *
Ve
1e-07
-37.825186 -223.280492 0
0 0

0101101
*
Ed
 1e-07 1 1 0
1  34 0 0 9.81999299999998
0

0101000
+410 0 -408 0 *
Ve
1e-07
-41.303823 -223.280492 0
0 0

0101101
*
Ed
 1e-07 1 1 0
1  35 0 0 3.478637
0

0101000
+408 0 -406 0 *
Ve
1e-07
-41.303823 -221.938722 0
0 0

0101101
*
Ed
 1e-07 1 1 0
1  36 0 0 1.34177
0

0101000
+406 0 -404 0 *
Ve
1e-07
-13.727126 -221.921701 0
0 0

0101101
*
Ed
 1e-07 1 1 0
1  37 0 0 27.5767022528846
0

0101000
+404 0 -402 0 *
Ve
1e-07
-13.727126 -255.793871 0
0 0

0101101
*
Ed
 1e-07 1 1 0
1  38 0 0 33.87217
0

0101000
+402 0 -400 0 *
Ve
1e-07
11.154455 -255.793871 0
0 0

0101101
*
Ed
 1e-07 1 1 0
1  39 0 0 24.881581
0

0101000
+400 0 -398 0 *
Ve
1e-07
11.154455 -223.540595 0
0 0

0101101
*
Ed
 1e-07 1 1 0
1  40 0 0 32.253276
0

0101000
+398 0 -396 0 *
Ve
1e-07
9.13922 -223.540595 0
0 0

0101101
*
Ed
 1e-07 1 1 0
1  41 0 0 2.015235
0

0101000
+396 0 -394 0 *
Ve
1e-07
9.13922 -221.921701 0
0 0

0101101
*
Ed
 1e-07 1 1 0
1  42 0 0 1.61889399999998
0

0101000
+394 0 -392 0 *
Ve
1e-07
15.506702 -221.921701 0
0 0

0101101
*
Ed
 1e-07 1 1 0
1  43 0 0 6.367482
0

0101000
+392 0 -390 0 *
Ve
1e-07
15.506702 -222.921701 0
0 0

0101101
*
Ed
 1e-07 1 1 0
1  44 0 0 1
0

0101000
+390 0 -388 0 *
Ve
1e-07
13.902999 -222.921701 0
0 0

0101101
*
Ed
 1e-07 1 1 0
1  45 0 0 1.603703
0

0101000
+388 0 -386 0 *
Ve
1e-07
13.902999 -232.852447 0
0 0

0101101
*
Ed
 1e-07 1 1 0
1  46 0 0 9.930746
0

0101000
+386 0 -384 0 *
Ve
1e-07
20.498375 -232.852447 0
0 0

0101101
*
Ed
 1e-07 1 1 0
1  47 0 0 6.595376
0

0101000
+384 0 -382 0 *
Ve
1e-07
20.498375 -222.921701 0
0 0

0101101
*
Ed
 1e-07 1 1 0
1  48 0 0 9.930746
0

0101000
+382 0 -380 0 *
Ve
1e-07
20.040179 -222.921701 0
0 0

0101101
*
Ed
 1e-07 1 1 0
1  49 0 0 0.458196000000001
0

0101000
+380 0 -378 0 *
Ve
1e-07
20.040179 -221.921701 0
0 0

0101101
*
Ed
 1e-07 1 1 0
1  50 0 0 1
0

0101000
+378 0 -376 0 *
Ve
1e-07
37.373379 -221.921701 0
0 0

0101101
*
Ed
 1e-07 1 1 0
1  51 0 0 17.3332
0

0101000
+376 0 -374 0 *
Ve
1e-07
37.373379 -223.300441 0
0 0

0101101
*
Ed
 1e-07 1 1 0
1  52 0 0 1.37873999999999
0

0101000
+374 0 -372 0 *
Ve
1e-07
31.229823 -223.300441 0
0 0

0101101
*
Ed
 1e-07 1 1 0
1  53 0 0 6.143556
0

0101000
+372 0 -370 0 *
Ve
1e-07
31.229823 -224.976205 0
0 0

0101101
*
Ed
 1e-07 1 1 0
1  54 0 0 1.67576399999999
0

0101000
+370 0 -368 0 *
Ve
1e-07
30.729823 -224.976205 0
0 0

0101101
*
Ed
 1e-07 1 1 0
1  55 0 0 0.5
0

0101000
+368 0 -366 0 *
Ve
1e-07
30.729823 -223.300441 0
0 0

0101101
*
Ed
 1e-07 1 1 0
1  56 0 0 1.67576399999999
0

0101000
+366 0 -364 0 *
Ve
1e-07
22.248375 -223.300441 0
0 0

0101101
*
Ed
 1e-07 1 1 0
1  57 0 0 8.481448
0

0101000
+364 0 -362 0 *
Ve
1e-07
22.248375 -228.626113 0
0 0

0101101
*
Ed
 1e-07 1 1 0
1  58 0 0 5.325672
0

0101000
+362 0 -360 0 *
Ve
1e-07
30.729823 -228.626113 0
0 0

0101101
*
Ed
 1e-07 1 1 0
1  59 0 0 8.481448
0

0101000
+360 0 -358 0 *
Ve
1e-07
30.729823 -228.286159 0
0 0

0101101
*
Ed
 1e-07 1 1 0
1  60 0 0 0.339954000000006
0

0101000
+358 0 -356 0 *
Ve
1e-07
31.229823 -228.286159 0
0 0

0101101
*
Ed
 1e-07 1 1 0
1  61 0 0 0.5
0

0101000
+356 0 -354 0 *
Ve
1e-07
31.229823 -229.521969 0
0 0

0101101
*
Ed
 1e-07 1 1 0
1  62 0 0 1.23581000000001
0

0101000
+354 0 -352 0 *
Ve
1e-07
30.729823 -229.521969 0
0 0

0101101
*
Ed
 1e-07 1 1 0
1  63 0 0 0.5
0

0101000
+352 0 -350 0 *
Ve
1e-07
30.729823 -229.126113 0
0 0

0101101
*
Ed
 1e-07 1 1 0
1  64 0 0 0.395856000000009
0

0101000
+350 0 -348 0 *
Ve
1e-07
22.248375 -229.126113 0
0 0

0101101
*
Ed
 1e-07 1 1 0
1  65 0 0 8.481448
0

0101000
+348 0 -346 0 *
Ve
1e-07
22.248375 -233.109676 0
0 0

0101101
*
Ed
 1e-07 1 1 0
1  66 0 0 3.983563
0

0101000
+346 0 -344 0 *
Ve
1e-07
30.729823 -233.109676 0
0 0

0101101
*
Ed
 1e-07 1 1 0
1  67 0 0 8.481448
0

0101000
+344 0 -342 0 *
Ve
1e-07
30.729823 -232.824384 0
0 0

0101101
*
Ed
 1e-07 1 1 0
1  68 0 0 0.285291999999998
0

0101000
+342 0 -340 0 *
Ve
1e-07
31.229823 -232.824384 0
0 0

0101101
*
Ed
 1e-07 1 1 0
1  69 0 0 0.5
0

0101000
+340 0 -338 0 *
Ve
1e-07
31.229823 -233.705189 0
0 0

0101101
*
Ed
 1e-07 1 1 0
1  70 0 0 0.880804999999981
0

0101000
+338 0 -336 0 *
Ve
1e-07
22.248375 -233.705189 0
0 0

0101101
*
Ed
 1e-07 1 1 0
1  71 0 0 8.981448
0

0101000
+336 0 -334 0 *
Ve
1e-07
22.248375 -234.452018 0
0 0

0101101
*
Ed
 1e-07 1 1 0
1  72 0 0 0.74682900000002
0

0101000
+334 0 -332 0 *
Ve
1e-07
12.904455 -234.452018 0
0 0

0101101
*
Ed
 1e-07 1 1 0
1  73 0 0 9.34392
0

0101000
+332 0 -330 0 *
Ve
1e-07
12.904455 -253.793871 0
0 0

0101101
*
Ed
 1e-07 1 1 0
1  74 0 0 19.341853
0

0101000
+330 0 -328 0 *
Ve
1e-07
16.411954 -253.793871 0
0 0

0101101
*
Ed
 1e-07 1 1 0
1  75 0 0 3.507499
0

0101000
+328 0 -326 0 *
Ve
1e-07
16.411954 -255.793871 0
0 0

0101101
*
Ed
 1e-07 1 1 0
1  76 0 0 2
0

0101000
+326 0 -324 0 *
Ve
1e-07
38.360552 -255.793871 0
0 0

0101101
*
Ed
 1e-07 1 1 0
1  77 0 0 21.948598
0

0101000
+324 0 -322 0 *
Ve
1e-07
38.360552 -253.793871 0
0 0

0101101
*
Ed
 1e-07 1 1 0
1  78 0 0 2
0

0101000
+322 0 -320 0 *
Ve
1e-07
43.231535 -253.793871 0
0 0

0101101
*
Ed
 1e-07 1 1 0
1  79 0 0 4.870983
0

0101000
+320 0 -318 0 *
Ve
1e-07
43.231535 -255.793871 0
0 0

0101101
*
Ed
 1e-07 1 1 0
1  80 0 0 2
0

0101000
+318 0 -316 0 *
Ve
1e-07
57.742157 -255.793871 0
0 0

0101101
*
Ed
 1e-07 1 1 0
1  81 0 0 14.510622
0

0101000
+316 0 -314 0 *
Ve
1e-07
57.742157 -253.793871 0
0 0

0101101
*
Ed
 1e-07 1 1 0
1  82 0 0 2
0

0101000
+314 0 -312 0 *
Ve
1e-07
62.613141 -253.793871 0
0 0

0101101
*
Ed
 1e-07 1 1 0
1  83 0 0 4.870984
0

0101000
+312 0 -310 0 *
Ve
1e-07
62.613141 -255.793871 0
0 0

0101101
*
Ed
 1e-07 1 1 0
1  84 0 0 2
0

0101000
+310 0 -308 0 *
Ve
1e-07
77.16044 -255.793871 0
0 0

0101101
*
Ed
 1e-07 1 1 0
1  85 0 0 14.547299
0

0101000
+308 0 -306 0 *
Ve
1e-07
77.16044 -253.793871 0
0 0

0101101
*
Ed
 1e-07 1 1 0
1  86 0 0 2
0

0101000
+306 0 -304 0 *
Ve
1e-07
82.017825 -253.793871 0
0 0

0101101
*
Ed
 1e-07 1 1 0
1  87 0 0 4.85738500000001
0

0101000
+304 0 -302 0 *
Ve
1e-07
82.017825 -255.793871 0
0 0

0101101
*
Ed
 1e-07 1 1 0
1  88 0 0 2
0

0101000
+302 0 -300 0 *
Ve
1e-07
96.526115 -255.793871 0
0 0

0101101
*
Ed
 1e-07 1 1 0
1  89 0 0 14.50829
0

0101000
+300 0 -298 0 *
Ve
1e-07
96.526115 -253.793871 0
0 0

0101101
*
Ed
 1e-07 1 1 0
1  90 0 0 2
0

0101000
+298 0 -296 0 *
Ve
1e-07
99.304312 -253.793871 0
0 0

0101101
*
Ed
 1e-07 1 1 0
1  91 0 0 2.77819699999999
0

0101000
+296 0 -294 0 *
Ve
1e-07
99.304312 -250.886144 0
0 0

0101101
*
Ed
 1e-07 1 1 0
1  92 0 0 2.90772699999999
0

0101000
+294 0 -292 0 *
Ve
1e-07
101.258179 -250.886144 0
0 0

0101101
*
Ed
 1e-07 1 1 0
1  93 0 0 1.953867
0

0101000
+292 0 -290 0 *
Ve
1e-07
101.258179 -255.793871 0
0 0

0101101
*
Ed
 1e-07 1 1 0
1  94 0 0 4.90772699999999
0

0101000
+290 0 -288 0 *
Ve
1e-07
125.538349 -255.793871 0
0 0

0101101
*
Ed
 1e-07 1 1 0
1  95 0 0 24.28017
0

0101000
+288 0 -286 0 *
Ve
1e-07
125.538349 -177.734627 0
0 0

0101101
*
Ed
 1e-07 1 1 0
1  96 0 0 78.059244
0

0101000
+286 0 -284 0 *
Ve
1e-07
101.258179 -177.734627 0
0 0

0101101
*
Ed
 1e-07 1 1 0
1  97 0 0 24.28017
0

0101000
+284 0 -282 0 *
Ve
1e-07
101.258179 -188.057597 0
0 0

0101101
*
Ed
 1e-07 1 1 0
1  98 0 0 10.32297
0

0101000
+282 0 -280 0 *
Ve
1e-07
99.304312 -188.057597 0
0 0

0101101
*
Ed
 1e-07 1 1 0
1  99 0 0 1.953867
0

0101000
+280 0 -278 0 *
Ve
1e-07
99.304312 -179.734627 0
0 0

0101101
*
Ed
 1e-07 1 1 0
1  100 0 0 8.32297
0

0101000
+278 0 -276 0 *
Ve
1e-07
75.140042 -179.734627 0
0 0

0101101
*
Ed
 1e-07 1 1 0
1  101 0 0 24.16427
0

0101000
+276 0 -274 0 *
Ve
1e-07
75.140042 -177.734627 0
0 0

0101101
*
Ed
 1e-07 1 1 0
1  102 0 0 2
0

0101000
+274 0 -272 0 *
Ve
1e-07
47.697805 -177.734627 0
0 0

0101101
*
Ed
 1e-07 1 1 0
1  103 0 0 27.442237
0

0101000
+272 0 -270 0 *
Ve
1e-07
47.697805 -179.734627 0
0 0

0101101
*
Ed
 1e-07 1 1 0
1  104 0 0 2
0

0101000
+270 0 -268 0 *
Ve
1e-07
38.005687 -179.734627 0
0 0

0101101
*
Ed
 1e-07 1 1 0
1  105 0 0 9.692118
0

0101000
+268 0 -266 0 *
Ve
1e-07
38.005687 -199.841077 0
0 0

0101101
*
Ed
 1e-07 1 1 0
1  106 0 0 20.10645
0

0101000
+266 0 -264 0 *
Ve
1e-07
47.160621 -199.841077 0
0 0

0101101
*
Ed
 1e-07 1 1 0
1  107 0 0 9.154934
0

0101000
+264 0 -262 0 *
Ve
1e-07
47.160621 -211.440943 0
0 0

0101101
*
Ed
 1e-07 1 1 0
1  108 0 0 11.599866
0

0101000
+262 0 -260 0 *
Ve
1e-07
42.558408 -211.440943 0
0 0

0101101
*
Ed
 1e-07 1 1 0
1  109 0 0 4.602213
0

0101000
+260 0 -258 0 *
Ve
1e-07
42.558408 -207.775981 0
0 0

0101101
*
Ed
 1e-07 1 1 0
1  110 0 0 3.664962
0

0101000
+258 0 -256 0 *
Ve
1e-07
46.443785 -207.775981 0
0 0

0101101
*
Ed
 1e-07 1 1 0
1  111 0 0 3.885377
0

0101000
+256 0 -254 0 *
Ve
1e-07
46.443785 -200.826752 0
0 0

0101101
*
Ed
 1e-07 1 1 0
1  112 0 0 6.949229
0

0101000
+254 0 -252 0 *
Ve
1e-07
38.005687 -200.826752 0
0 0

0101101
*
Ed
 1e-07 1 1 0
1  113 0 0 8.438098
0

0101000
+252 0 -250 0 *
Ve
1e-07
38.005687 -210.440943 0
0 0

0101101
*
Ed
 1e-07 1 1 0
1  114 0 0 9.61419100000001
0

0101000
+250 0 -248 0 *
Ve
1e-07
38.328542 -210.440943 0
0 0

0101101
*
Ed
 1e-07 1 1 0
1  115 0 0 0.322854999999997
0

0101000
+248 0 -246 0 *
Ve
1e-07
38.328542 -211.440943 0
0 0

0101101
*
Ed
 1e-07 1 1 0
1  116 0 0 1
0

0101000
+246 0 -244 0 *
Ve
1e-07
35.7336 -211.440943 0
0 0

0101101
*
Ed
 1e-07 1 1 0
1  117 0 0 2.594942
0

0101000
+244 0 -242 0 *
Ve
1e-07
35.7336 -210.440943 0
0 0

0101101
*
Ed
 1e-07 1 1 0
1  118 0 0 1
0

0101000
+242 0 -240 0 *
Ve
1e-07
37.085091 -210.440943 0
0 0

0101101
*
Ed
 1e-07 1 1 0
1  119 0 0 1.351491
0

0101000
+240 0 -238 0 *
Ve
1e-07
37.085091 -177.734627 0
0 0

0101101
*
Ed
 1e-07 1 1 0
1  120 0 0 32.706316
0

0101000
+238 0 -236 0 *
Ve
1e-07
-52.96984 -177.734627 0
0 0

0101101
*
Ed
 1e-07 1 1 0
1  121 0 0 90.054931
0

0101000
+236 0 -234 0 *
Ve
1e-07
-52.96984 -199.863551 0
0 0

0101101
*
Ed
 1e-07 1 1 0
1  122 0 0 22.128924
0

0101000
+234 0 -232 0 *
Ve
1e-07
-50.96984 -199.863551 0
0 0

0101101
*
Ed
 1e-07 1 1 0
1  123 0 0 2
0

0101000
+232 0 -230 0 *
Ve
1e-07
-50.96984 -203.17051 0
0 0

0101101
*
Ed
 1e-07 1 1 0
1  124 0 0 3.30695900000001
0

0101000
+230 0 -228 0 *
Ve
1e-07
-45.704147 -203.17051 0
0 0

0101101
*
Ed
 1e-07 1 1 0
1  125 0 0 5.265693
0

0101000
+228 0 -226 0 *
Ve
1e-07
-45.704147 -199.847323 0
0 0

0101101
*
Ed
 1e-07 1 1 0
1  126 0 0 3.32318700000002
0

0101000
+226 0 -224 0 *
Ve
1e-07
-45.192468 -199.847323 0
0 0

0101101
*
Ed
 1e-07 1 1 0
1  127 0 0 0.511679000000001
0

0101000
+224 0 -222 0 *
Ve
1e-07
-45.192468 -202.832742 0
0 0

0101101
*
Ed
 1e-07 1 1 0
1  128 0 0 2.98541900000001
0

0101000
+222 0 -220 0 *
Ve
1e-07
-30.038357 -202.832742 0
0 0

0101101
*
Ed
 1e-07 1 1 0
1  129 0 0 15.154111
0

0101000
+220 0 -218 0 *
Ve
1e-07
-30.038357 -200.824292 0
0 0

0101101
*
Ed
 1e-07 1 1 0
1  130 0 0 2.00844999999998
0

0101000
+218 0 -216 0 *
Ve
1e-07
-29.01663 -200.824292 0
0 0

0101101
*
Ed
 1e-07 1 1 0
1  131 0 0 1.021727
0

0101000
+216 0 -214 0 *
Ve
1e-07
-29.01663 -202.886476 0
0 0

0101101
*
Ed
 1e-07 1 1 0
1  132 0 0 2.06218399999997
0

0101000
+214 0 -212 0 *
Ve
1e-07
-25.031289 -202.886476 0
0 0

0101101
*
Ed
 1e-07 1 1 0
1  133 0 0 3.985341
0

0101000
+212 0 -210 0 *
Ve
1e-07
-25.031289 -210.288956 0
0 0

0101101
*
Ed
 1e-07 1 1 0
1  134 0 0 7.40248000000003
0

0101000
+210 0 -208 0 *
Ve
1e-07
-14.630311 -210.288956 0
0 0

0101101
*
Ed
 1e-07 1 1 0
1  135 0 0 10.400978
0

0101000
+208 0 -206 0 *
Ve
1e-07
-14.630311 -216.649647 0
0 0

0101101
*
Ed
 1e-07 1 1 0
1  136 0 0 6.36069099999997
0

0101000
+206 0 -204 0 *
Ve
1e-07
-37.712646 -216.649647 0
0 0

0101101
*
Ed
 1e-07 1 1 0
1  137 0 0 23.082335
0

0101000
+204 0 -202 0 *
Ve
1e-07
-37.712646 -211.440943 0
0 0

0101101
*
Ed
 1e-07 1 1 0
1  138 0 0 5.20870399999998
0

0101000
+202 0 -200 0 *
Ve
1e-07
-52.96984 -211.440943 0
0 0

0101101
*
Ed
 1e-07 1 1 0
1  139 0 0 15.257194
0

0101000
+200 0 -198 0 *
Ve
1e-07
-52.96984 -221.921701 0
0 0

0101101
*
Ed
 1e-07 1 1 0
1  140 0 0 10.480758
0

0101000
+198 0 -196 0 *
Ve
1e-07
-45.612846 -221.921701 0
0 0

0101101
*
Ed
 1e-07 1 1 0
1  141 0 0 7.356994
0

0101000
+196 0 -194 0 *
Ve
1e-07
-45.612846 -233.100485 0
0 0

0101101
*
Ed
 1e-07 1 1 0
1  142 0 0 11.178784
0

0101000
+194 0 -192 0 *
Ve
1e-07
-44.909087 -233.100485 0
0 0

0101101
*
Ed
 1e-07 1 1 0
1  143 0 0 0.703758999999998
0

0101000
+192 0 -190 0 *
Ve
1e-07
-44.909087 -233.600485 0
0 0

0101101
*
Ed
 1e-07 1 1 0
1  144 0 0 0.5
0

0101000
+190 0 -188 0 *
Ve
1e-07
-46.112846 -233.600485 0
0 0

0101101
*
Ed
 1e-07 1 1 0
1  145 0 0 1.203759
0

0101000
+188 0 -186 0 *
Ve
1e-07
-46.112846 -223.280492 0
0 0

0101101
*
Ed
 1e-07 1 1 0
1  146 0 0 10.319993
0

0101000
+186 0 -184 0 *
Ve
1e-07
-50.96984 -223.280492 0
0 0

0101101
*
Ed
 1e-07 1 1 0
1  147 0 0 4.856994
0

0101000
+184 0 -182 0 *
Ed
 1e-07 1 1 0
1  148 0 0 10.399387
0

0101000
+182 0 -475 0 *
Wi

0101100
+473 0 +471 0 +469 0 +467 0 +465 0 +463 0 +461 0 +459 0 +457 0 +455 0 
+453 0 +451 0 +449 0 +447 0 +445 0 +443 0 +441 0 +439 0 +437 0 +435 0 
+433 0 +431 0 +429 0 +427 0 +425 0 +423 0 +421 0 +419 0 +417 0 +415 0 
+413 0 +411 0 +409 0 +407 0 +405 0 +403 0 +401 0 +399 0 +397 0 +395 0 
+393 0 +391 0 +389 0 +387 0 +385 0 +383 0 +381 0 +379 0 +377 0 +375 0 
+373 0 +371 0 +369 0 +367 0 +365 0 +363 0 +361 0 +359 0 +357 0 +355 0 
+353 0 +351 0 +349 0 +347 0 +345 0 +343 0 +341 0 +339 0 +337 0 +335 0 
+333 0 +331 0 +329 0 +327 0 +325 0 +323 0 +321 0 +319 0 +317 0 +315 0 
+313 0 +311 0 +309 0 +307 0 +305 0 +303 0 +301 0 +299 0 +297 0 +295 0 
+293 0 +291 0 +289 0 +287 0 +285 0 +283 0 +281 0 +279 0 +277 0 +275 0 
+273 0 +271 0 +269 0 +267 0 +265 0 +263 0 +261 0 +259 0 +257 0 +255 0 
+253 0 +251 0 +249 0 +247 0 +245 0 +243 0 +241 0 +239 0 +237 0 +235 0 
+233 0 +231 0 +229 0 +227 0 +225 0 +223 0 +221 0 +219 0 +217 0 +215 0 
+213 0 +211 0 +209 0 +207 0 +205 0 +203 0 +201 0 +199 0 +197 0 +195 0 
+193 0 +191 0 +189 0 +187 0 +185 0 +183 0 +181 0 +180 0 *
Ve
1e-07
29.950915 -200.814151 0
0 0

0101101
*
Ve
1e-07
25.898786 -200.814151 0
0 0

0101101
*
Ed
 1e-07 1 1 0
1  149 0 0 4.052129
2  1 2 0 0 4.052129
2  2 3 0 0 4.052129
0

0101000
+178 0 -177 0 *
Ve
1e-07
25.898786 -199.917533 0
0 0

0101101
*
Ed
 1e-07 1 1 0
1  150 0 0 0.896618000000018
2  3 2 0 0 0.896618000000018
2  4 3 0 0 0.896618000000018
0

0101000
+177 0 -175 0 *
Ve
1e-07
29.950915 -199.917533 0
0 0

0101101
*
Ed
 1e-07 1 1 0
1  151 0 0 4.052129
2  5 2 0 0 4.052129
2  6 3 0 0 4.052129
0

0101000
+175 0 -173 0 *
Ed
 1e-07 1 1 0
1  152 0 0 0.896618000000018
2  7 2 0 0 0.896618000000018
2  8 3 0 0 0.896618000000018
0

0101000
+173 0 -178 0 *
Wi

0101100
+176 0 +174 0 +172 0 +171 0 *
Ve
1e-07
67.982616 -230.039414 0
0 0

0101101
*
Ve
1e-07
67.982616 -233.777195 0
0 0

0101101
*
Ed
 1e-07 1 1 0
1  153 0 0 3.73778100000001
2  9 4 0 0 3.73778100000001
2  10 5 0 0 3.73778100000001
0

0101000
+169 0 -168 0 *
Ve
1e-07
58.754658 -233.777195 0
0 0

0101101
*
Ed
 1e-07 1 1 0
1  154 0 0 9.22795799999999
2  11 4 0 0 9.22795799999999
2  12 5 0 0 9.22795799999999
0

0101000
+168 0 -166 0 *
Ve
1e-07
58.754658 -230.039414 0
0 0

0101101
*
Ed
 1e-07 1 1 0
1  155 0 0 3.73778100000001
2  13 4 0 0 3.73778100000001
2  14 5 0 0 3.73778100000001
0

0101000
+166 0 -164 0 *
Ve
1e-07
59.254658 -230.039414 0
0 0

0101101
*
Ed
 1e-07 1 1 0
1  156 0 0 0.5
2  15 4 0 0 0.5
2  16 5 0 0 0.5
0

0101000
+164 0 -162 0 *
Ve
1e-07
59.254658 -232.777195 0
0 0

0101101
*
Ed
 1e-07 1 1 0
1  157 0 0 2.73778100000001
2  17 4 0 0 2.73778100000001
2  18 5 0 0 2.73778100000001
0

0101000
+162 0 -160 0 *
Ve
1e-07
67.482616 -232.777195 0
0 0

0101101
*
Ed
 1e-07 1 1 0
1  158 0 0 8.22795799999999
2  19 4 0 0 8.22795799999999
2  20 5 0 0 8.22795799999999
0

0101000
+160 0 -158 0 *
Ve
1e-07
67.482616 -230.039414 0
0 0

0101101
*
Ed
 1e-07 1 1 0
1  159 0 0 2.73778100000001
2  21 4 0 0 2.73778100000001
2  22 5 0 0 2.73778100000001
0

0101000
+158 0 -156 0 *
Ed
 1e-07 1 1 0
1  160 0 0 0.5
2  23 4 0 0 0.5
2  24 5 0 0 0.5
0

0101000
+156 0 -169 0 *
Wi

0101100
+167 0 +165 0 +163 0 +161 0 +159 0 +157 0 +155 0 +154 0 *
Ve
1e-07
37.680513 -232.777195 0
0 0

0101101
*
Ve
1e-07
46.55518 -232.777195 0
0 0

0101101
*
Ed
 1e-07 1 1 0
1  161 0 0 8.874667
2  25 6 0 0 8.874667
2  26 7 0 0 8.874667
0

0101000
+152 0 -151 0 *
Ve
1e-07
46.55518 -233.777195 0
0 0

0101101
*
Ed
 1e-07 1 1 0
1  162 0 0 1
2  27 6 0 0 1
2  28 7 0 0 1
0

0101000
+151 0 -149 0 *
Ve
1e-07
37.680513 -233.777195 0
0 0

0101101
*
Ed
 1e-07 1 1 0
1  163 0 0 8.874667
2  29 6 0 0 8.874667
2  30 7 0 0 8.874667
0

0101000
+149 0 -147 0 *
Ed
 1e-07 1 1 0
1  164 0 0 1
2  31 6 0 0 1
2  32 7 0 0 1
0

0101000
+147 0 -152 0 *
Wi

0101100
+150 0 +148 0 +146 0 +145 0 *
Ve
1e-07
88.174337 -210.440943 0
0 0

0101101
*
Ve
1e-07
88.174337 -211.440943 0
0 0

0101101
*
Ed
 1e-07 1 1 0
1  165 0 0 1
2  33 8 0 0 1
2  34 9 0 0 1
0

0101000
+143 0 -142 0 *
Ve
1e-07
85.43329 -211.440943 0
0 0

0101101
*
Ed
 1e-07 1 1 0
1  166 0 0 2.74104699999999
2  35 8 0 0 2.74104699999999
2  36 9 0 0 2.74104699999999
0

0101000
+142 0 -140 0 *
Ve
1e-07
85.43329 -210.440943 0
0 0

0101101
*
Ed
 1e-07 1 1 0
1  167 0 0 1
2  37 8 0 0 1
2  38 9 0 0 1
0

0101000
+140 0 -138 0 *
Ed
 1e-07 1 1 0
1  168 0 0 2.74104699999999
2  39 8 0 0 2.74104699999999
2  40 9 0 0 2.74104699999999
0

0101000
+138 0 -143 0 *
Wi

0101100
+141 0 +139 0 +137 0 +136 0 *
Ve
1e-07
-2.449342 -199.927951 0
0 0

0101101
*
Ve
1e-07
-2.449342 -200.927951 0
0 0

0101101
*
Ed
 1e-07 1 1 0
1  169 0 0 1
2  41 10 0 0 1
2  42 11 0 0 1
0

0101000
+134 0 -133 0 *
Ve
1e-07
-7.34761 -200.927951 0
0 0

0101101
*
Ed
 1e-07 1 1 0
1  170 0 0 4.898268
2  43 10 0 0 4.898268
2  44 11 0 0 4.898268
0

0101000
+133 0 -131 0 *
Ve
1e-07
-7.34761 -199.927951 0
0 0

0101101
*
Ed
 1e-07 1 1 0
1  171 0 0 1
2  45 10 0 0 1
2  46 11 0 0 1
0

0101000
+131 0 -129 0 *
Ed
 1e-07 1 1 0
1  172 0 0 4.898268
2  47 10 0 0 4.898268
2  48 11 0 0 4.898268
0

0101000
+129 0 -134 0 *
Wi

0101100
+132 0 +130 0 +128 0 +127 0 *
Ve
1e-07
-14.934002 -203.326738 0
0 0

0101101
*
Ve
1e-07
-14.934002 -201.782681 0
0 0

0101101
*
Ed
 1e-07 1 1 0
1  173 0 0 1.54405700000001
2  49 12 0 0 1.54405700000001
2  50 13 0 0 1.54405700000001
2  51 14 0 0 1.54405700000001
0

0101000
+125 0 -124 0 *
Ve
1e-07
-25.031289 -201.782681 0
0 0

0101101
*
Ed
 1e-07 1 1 0
1  174 0 0 10.097287
2  52 12 0 0 10.097287
2  53 13 0 0 10.097287
2  54 14 0 0 10.097287
0

0101000
+124 0 -122 0 *
Ve
1e-07
-25.031289 -201.269845 0
0 0

0101101
*
Ed
 1e-07 1 1 0
1  175 0 0 0.512835999999993
2  55 12 0 0 0.512835999999993
2  56 13 0 0 0.512835999999993
2  57 14 0 0 0.512835999999993
0

0101000
+122 0 -120 0 *
Ve
1e-07
-14.934002 -201.269845 0
0 0

0101101
*
Ed
 1e-07 1 1 0
1  176 0 0 10.097287
2  58 12 0 0 10.097287
2  59 13 0 0 10.097287
2  60 14 0 0 10.097287
0

0101000
+120 0 -118 0 *
Ve
1e-07
-14.934002 -199.89065 0
0 0

0101101
*
Ed
 1e-07 1 1 0
1  177 0 0 1.37919500000001
2  61 12 0 0 1.37919500000001
2  62 13 0 0 1.37919500000001
2  63 14 0 0 1.37919500000001
0

0101000
+118 0 -116 0 *
Ve
1e-07
-14.566287 -199.89065 0
0 0

0101101
*
Ed
 1e-07 1 1 0
1  178 0 0 0.367714999999999
2  64 12 0 0 0.367714999999999
2  65 13 0 0 0.367714999999999
2  66 14 0 0 0.367714999999999
0

0101000
+116 0 -114 0 *
Ve
1e-07
-14.566287 -203.326738 0
0 0

0101101
*
Ed
 1e-07 1 1 0
1  179 0 0 3.43608800000001
2  67 12 0 0 3.43608800000001
2  68 13 0 0 3.43608800000001
2  69 14 0 0 3.43608800000001
0

0101000
+114 0 -112 0 *
Ed
 1e-07 1 1 0
1  180 0 0 0.367714999999999
2  70 12 0 0 0.367714999999999
2  71 13 0 0 0.367714999999999
2  72 14 0 0 0.367714999999999
0

0101000
+112 0 -125 0 *
Wi

0101100
+123 0 +121 0 +119 0 +117 0 +115 0 +113 0 +111 0 +110 0 *
Ve
1e-07
2.135678 -207.828484 0
0 0

0101101
*
Ve
1e-07
2.135678 -211.440943 0
0 0

0101101
*
Ed
 1e-07 1 1 0
1  181 0 0 3.612459
2  73 15 0 0 3.612459
2  74 16 0 0 3.612459
0

0101000
+108 0 -107 0 *
Ve
1e-07
-7.40492 -211.440943 0
0 0

0101101
*
Ed
 1e-07 1 1 0
1  182 0 0 9.540598
2  75 15 0 0 9.540598
2  76 16 0 0 9.540598
0

0101000
+107 0 -105 0 *
Ve
1e-07
-7.40492 -210.288956 0
0 0

0101101
*
Ed
 1e-07 1 1 0
1  183 0 0 1.15198699999999
2  77 15 0 0 1.15198699999999
2  78 16 0 0 1.15198699999999
0

0101000
+105 0 -103 0 *
Ve
1e-07
1.787836 -210.288956 0
0 0

0101101
*
Ed
 1e-07 1 1 0
1  184 0 0 9.192756
2  79 15 0 0 9.192756
2  80 16 0 0 9.192756
0

0101000
+103 0 -101 0 *
Ve
1e-07
1.787836 -207.828484 0
0 0

0101101
*
Ed
 1e-07 1 1 0
1  185 0 0 2.46047200000001
2  81 15 0 0 2.46047200000001
2  82 16 0 0 2.46047200000001
0

0101000
+101 0 -99 0 *
Ed
 1e-07 1 1 0
1  186 0 0 0.347842
2  83 15 0 0 0.347842
2  84 16 0 0 0.347842
0

0101000
+99 0 -108 0 *
Wi

0101100
+106 0 +104 0 +102 0 +100 0 +98 0 +97 0 *
Ve
1e-07
81.43329 -211.440943 0
0 0

0101101
*
Ve
1e-07
75.612872 -211.440943 0
0 0

0101101
*
Ed
 1e-07 1 1 0
1  187 0 0 5.820418
2  85 17 0 0 5.820418
2  86 18 0 0 5.820418
0

0101000
+95 0 -94 0 *
Ve
1e-07
75.612872 -199.843961 0
0 0

0101101
*
Ed
 1e-07 1 1 0
1  188 0 0 11.596982
2  87 17 0 0 11.596982
2  88 18 0 0 11.596982
0

0101000
+94 0 -92 0 *
Ve
1e-07
76.678118 -199.843961 0
0 0

0101101
*
Ed
 1e-07 1 1 0
1  189 0 0 1.065246
2  89 17 0 0 1.065246
2  90 18 0 0 1.065246
0

0101000
+92 0 -90 0 *
Ve
1e-07
76.678118 -208.06011 0
0 0

0101101
*
Ed
 1e-07 1 1 0
1  190 0 0 8.216149
2  91 17 0 0 8.216149
2  92 18 0 0 8.216149
0

0101000
+90 0 -88 0 *
Ve
1e-07
81.43329 -208.06011 0
0 0

0101101
*
Ed
 1e-07 1 1 0
1  191 0 0 4.755172
2  93 17 0 0 4.755172
2  94 18 0 0 4.755172
0

0101000
+88 0 -86 0 *
Ed
 1e-07 1 1 0
1  192 0 0 3.380833
2  95 17 0 0 3.380833
2  96 18 0 0 3.380833
0

0101000
+86 0 -95 0 *
Wi

0101100
+93 0 +91 0 +89 0 +87 0 +85 0 +84 0 *
Ve
1e-07
76.678118 -187.803935 0
0 0

0101101
*
Ve
1e-07
75.612872 -187.803935 0
0 0

0101101
*
Ed
 1e-07 1 1 0
1  193 0 0 1.065246
2  97 19 0 0 1.065246
2  98 20 0 0 1.065246
0

0101000
+82 0 -81 0 *
Ve
1e-07
75.612872 -186.121168 0
0 0

0101101
*
Ed
 1e-07 1 1 0
1  194 0 0 1.68276699999998
2  99 19 0 0 1.68276699999998
2  100 20 0 0 1.68276699999998
0

0101000
+81 0 -79 0 *
Ve
1e-07
76.678118 -186.121168 0
0 0

0101101
*
Ed
 1e-07 1 1 0
1  195 0 0 1.065246
2  101 19 0 0 1.065246
2  102 20 0 0 1.065246
0

0101000
+79 0 -77 0 *
Ed
 1e-07 1 1 0
1  196 0 0 1.68276699999998
2  103 19 0 0 1.68276699999998
2  104 20 0 0 1.68276699999998
0

0101000
+77 0 -82 0 *
Wi

0101100
+80 0 +78 0 +76 0 +75 0 *
Ve
1e-07
18.755871 -200.927951 0
0 0

0101101
*
Ve
1e-07
9.446345 -200.927951 0
0 0

0101101
*
Ed
 1e-07 1 1 0
1  197 0 0 9.309526
2  105 21 0 0 9.309526
2  106 22 0 0 9.309526
0

0101000
+73 0 -72 0 *
Ve
1e-07
9.446345 -210.288956 0
0 0

0101101
*
Ed
 1e-07 1 1 0
1  198 0 0 9.36100500000001
2  107 21 0 0 9.36100500000001
2  108 22 0 0 9.36100500000001
0

0101000
+72 0 -70 0 *
Ve
1e-07
31.086459 -210.288956 0
0 0

0101101
*
Ed
 1e-07 1 1 0
1  199 0 0 21.640114
2  109 21 0 0 21.640114
2  110 22 0 0 21.640114
0

0101000
+70 0 -68 0 *
Ve
1e-07
31.086459 -211.440943 0
0 0

0101101
*
Ed
 1e-07 1 1 0
1  200 0 0 1.15198699999999
2  111 21 0 0 1.15198699999999
2  112 22 0 0 1.15198699999999
0

0101000
+68 0 -66 0 *
Ve
1e-07
8.866248 -211.440943 0
0 0

0101101
*
Ed
 1e-07 1 1 0
1  201 0 0 22.220211
2  113 21 0 0 22.220211
2  114 22 0 0 22.220211
0

0101000
+66 0 -64 0 *
Ve
1e-07
8.866248 -183.933936 0
0 0

0101101
*
Ed
 1e-07 1 1 0
1  202 0 0 27.507007
2  115 21 0 0 27.507007
2  116 22 0 0 27.507007
0

0101000
+64 0 -62 0 *
Ve
1e-07
18.755871 -183.933936 0
0 0

0101101
*
Ed
 1e-07 1 1 0
1  203 0 0 9.889623
2  117 21 0 0 9.889623
2  118 22 0 0 9.889623
0

0101000
+62 0 -60 0 *
Ed
 1e-07 1 1 0
1  204 0 0 16.994015
2  119 21 0 0 16.994015
2  120 22 0 0 16.994015
0

0101000
+60 0 -73 0 *
Wi

0101100
+71 0 +69 0 +67 0 +65 0 +63 0 +61 0 +59 0 +58 0 *
Ve
1e-07
75.621564 -232.776763 0
0 0

0101101
*
Ve
1e-07
79.153848 -232.776763 0
0 0

0101101
*
Ed
 1e-07 1 1 0
1  205 0 0 3.53228399999999
2  121 23 0 0 3.53228399999999
2  122 24 0 0 3.53228399999999
0

0101000
+56 0 -55 0 *
Ve
1e-07
79.153848 -225.523189 0
0 0

0101101
*
Ed
 1e-07 1 1 0
1  206 0 0 7.25357399999999
2  123 23 0 0 7.25357399999999
2  124 24 0 0 7.25357399999999
0

0101000
+55 0 -53 0 *
Ve
1e-07
79.653848 -225.523189 0
0 0

0101101
*
Ed
 1e-07 1 1 0
1  207 0 0 0.5
2  125 23 0 0 0.5
2  126 24 0 0 0.5
0

0101000
+53 0 -51 0 *
Ve
1e-07
79.653848 -232.776763 0
0 0

0101101
*
Ed
 1e-07 1 1 0
1  208 0 0 7.25357399999999
2  127 23 0 0 7.25357399999999
2  128 24 0 0 7.25357399999999
0

0101000
+51 0 -49 0 *
Ve
1e-07
84.449943 -232.776763 0
0 0

0101101
*
Ed
 1e-07 1 1 0
1  209 0 0 4.79609500000001
2  129 23 0 0 4.79609500000001
2  130 24 0 0 4.79609500000001
0

0101000
+49 0 -47 0 *
Ve
1e-07
84.449943 -233.776763 0
0 0

0101101
*
Ed
 1e-07 1 1 0
1  210 0 0 1
2  131 23 0 0 1
2  132 24 0 0 1
0

0101000
+47 0 -45 0 *
Ve
1e-07
75.621564 -233.776763 0
0 0

0101101
*
Ed
 1e-07 1 1 0
1  211 0 0 8.828379
2  133 23 0 0 8.828379
2  134 24 0 0 8.828379
0

0101000
+45 0 -43 0 *
Ed
 1e-07 1 1 0
1  212 0 0 1
2  135 23 0 0 1
2  136 24 0 0 1
0

0101000
+43 0 -56 0 *
Wi

0101100
+54 0 +52 0 +50 0 +48 0 +46 0 +44 0 +42 0 +41 0 *
Ve
1e-07
101.258179 -195.941115 0
0 0

0101101
*
Ve
1e-07
101.258179 -211.412604 0
0 0

0101101
*
Ed
 1e-07 1 1 0
1  213 0 0 15.471489
2  137 25 0 0 15.471489
2  138 26 0 0 15.471489
0

0101000
+39 0 -38 0 *
Ve
1e-07
99.311063 -211.412604 0
0 0

0101101
*
Ed
 1e-07 1 1 0
1  214 0 0 1.94711599999999
2  139 25 0 0 1.94711599999999
2  140 26 0 0 1.94711599999999
0

0101000
+38 0 -36 0 *
Ve
1e-07
99.311063 -203.299032 0
0 0

0101101
*
Ed
 1e-07 1 1 0
1  215 0 0 8.11357199999998
2  141 25 0 0 8.11357199999998
2  142 26 0 0 8.11357199999998
0

0101000
+36 0 -34 0 *
Ve
1e-07
95.491774 -203.299032 0
0 0

0101101
*
Ed
 1e-07 1 1 0
1  216 0 0 3.819289
2  143 25 0 0 3.819289
2  144 26 0 0 3.819289
0

0101000
+34 0 -32 0 *
Ve
1e-07
95.491774 -199.930784 0
0 0

0101101
*
Ed
 1e-07 1 1 0
1  217 0 0 3.36824800000002
2  145 25 0 0 3.36824800000002
2  146 26 0 0 3.36824800000002
0

0101000
+32 0 -30 0 *
Ve
1e-07
99.304312 -199.930784 0
0 0

0101101
*
Ed
 1e-07 1 1 0
1  218 0 0 3.81253799999999
2  147 25 0 0 3.81253799999999
2  148 26 0 0 3.81253799999999
0

0101000
+30 0 -28 0 *
Ve
1e-07
99.304312 -195.941115 0
0 0

0101101
*
Ed
 1e-07 1 1 0
1  219 0 0 3.98966899999999
2  149 25 0 0 3.98966899999999
2  150 26 0 0 3.98966899999999
0

0101000
+28 0 -26 0 *
Ed
 1e-07 1 1 0
1  220 0 0 1.953867
2  151 25 0 0 1.953867
2  152 26 0 0 1.953867
0

0101000
+26 0 -39 0 *
Wi

0101100
+37 0 +35 0 +33 0 +31 0 +29 0 +27 0 +25 0 +24 0 *
Ve
1e-07
101.258179 -221.921701 0
0 0

0101101
*
Ve
1e-07
101.258179 -238.857786 0
0 0

0101101
*
Ed
 1e-07 1 1 0
1  221 0 0 16.936085
2  153 27 0 0 16.936085
2  154 28 0 0 16.936085
0

0101000
+22 0 -21 0 *
Ve
1e-07
99.304312 -238.857786 0
0 0

0101101
*
Ed
 1e-07 1 1 0
1  222 0 0 1.953867
2  155 27 0 0 1.953867
2  156 28 0 0 1.953867
0

0101000
+21 0 -19 0 *
Ve
1e-07
99.304312 -233.776763 0
0 0

0101101
*
Ed
 1e-07 1 1 0
1  223 0 0 5.08102300000002
2  157 27 0 0 5.08102300000002
2  158 28 0 0 5.08102300000002
0

0101000
+19 0 -17 0 *
Ve
1e-07
92.037401 -233.776763 0
0 0

0101101
*
Ed
 1e-07 1 1 0
1  224 0 0 7.26691099999999
2  159 27 0 0 7.26691099999999
2  160 28 0 0 7.26691099999999
0

0101000
+17 0 -15 0 *
Ve
1e-07
92.037401 -232.776763 0
0 0

0101101
*
Ed
 1e-07 1 1 0
1  225 0 0 1
2  161 27 0 0 1
2  162 28 0 0 1
0

0101000
+15 0 -13 0 *
Ve
1e-07
99.304312 -232.776763 0
0 0

0101101
*
Ed
 1e-07 1 1 0
1  226 0 0 7.26691099999999
2  163 27 0 0 7.26691099999999
2  164 28 0 0 7.26691099999999
0

0101000
+13 0 -11 0 *
Ve
1e-07
99.304312 -223.300441 0
0 0

0101101
*
Ed
 1e-07 1 1 0
1  227 0 0 9.47632199999998
2  165 27 0 0 9.47632199999998
2  166 28 0 0 9.47632199999998
0

0101000
+11 0 -9 0 *
Ve
1e-07
41.43928 -223.300441 0
0 0

0101101
*
Ed
 1e-07 1 1 0
1  228 0 0 57.865032
2  167 27 0 0 57.865032
2  168 28 0 0 57.865032
0

0101000
+9 0 -7 0 *
Ve
1e-07
41.43928 -221.921701 0
0 0

0101101
*
Ed
 1e-07 1 1 0
1  229 0 0 1.37873999999999
2  169 27 0 0 1.37873999999999
2  170 28 0 0 1.37873999999999
0

0101000
+7 0 -5 0 *
Ed
 1e-07 1 1 0
1  230 0 0 59.818899
2  171 27 0 0 59.818899
2  172 28 0 0 59.818899
0

0101000
+5 0 -22 0 *
Wi

0101100
+20 0 +18 0 +16 0 +14 0 +12 0 +10 0 +8 0 +6 0 +4 0 +3 0 
*
Fa
0  1e-07 1 0

1111000
+179 0 +170 0 +153 0 +144 0 +135 0 +126 0 +109 0 +96 0 +83 0 +74 0 
+57 0 +40 0 +23 0 +2 0 *

+1 0 