# Rhino

g object_1
v -24.355747222900391 0 52.596469879150391
v -23.555747985839844 0 52.596469879150391
v -24.355747222900391 2.0999999046325684 52.596469879150391
v -23.555747985839844 2.0999999046325684 52.596469879150391
f 4 2 1 3
g object_2
v -25.230552673339844 0 56.145889282226562
v -25.230552673339844 0 55.345890045166016
v -25.230552673339844 2.0999999046325684 56.145889282226562
v -25.230552673339844 2.0999999046325684 55.345890045166016
f 8 6 5 7
g object_3
v -22.354774475097656 0 55.518074035644531
v -22.354774475097656 0 56.318073272705078
v -22.354774475097656 2.0999999046325684 55.518074035644531
v -22.354774475097656 2.0999999046325684 56.318073272705078
f 12 10 9 11
g object_4
v -23.94093132019043 0 57.264602661132812
v -24.740930557250977 0 57.264602661132812
v -23.94093132019043 2.0999999046325684 57.264602661132812
v -24.740930557250977 2.0999999046325684 57.264602661132812
f 16 14 13 15
g object_5
v -30.676597595214844 0 54.926525115966797
v -29.876598358154297 0 54.926525115966797
v -30.676597595214844 2.0999999046325684 54.926525115966797
v -29.876598358154297 2.0999999046325684 54.926525115966797
f 20 18 17 19
g object_6
v -27.725860595703125 0 53.184947967529297
v -27.725860595703125 0 53.984947204589844
v -27.725860595703125 2.0999999046325684 53.184947967529297
v -27.725860595703125 2.0999999046325684 53.984947204589844
f 24 22 21 23
g object_7
v -28.696744918823242 0 50.764377593994141
v -28.696744918823242 0 51.564380645751953
v -28.696744918823242 2.0999999046325684 50.764377593994141
v -28.696744918823242 2.0999999046325684 51.564380645751953
f 28 26 25 27
g object_8
v -31.39476203918457 0 48.814964294433594
v -30.594762802124023 0 48.814964294433594
v -31.39476203918457 2.0999999046325684 48.814964294433594
v -30.594762802124023 2.0999999046325684 48.814964294433594
f 32 30 29 31
g object_9
v -33.6444091796875 0 54.926525115966797
v -32.844406127929688 0 54.926525115966797
v -33.6444091796875 2.0999999046325684 54.926525115966797
v -32.844406127929688 2.0999999046325684 54.926525115966797
f 36 34 33 35
g object_10
v -36.777824401855469 0 53.278266906738281
v -37.577823638916016 0 53.278266906738281
v -36.777824401855469 2.0999999046325684 53.278266906738281
v -37.577823638916016 2.0999999046325684 53.278266906738281
f 40 38 37 39
g object_11
v -37.729625701904297 0 50.341823577880859
v -37.729625701904297 0 51.141822814941406
v -37.729625701904297 2.0999999046325684 50.341823577880859
v -37.729625701904297 2.0999999046325684 51.141822814941406
f 44 42 41 43
g object_12
v -33.488483428955078 0 57.264602661132812
v -34.288482666015625 0 57.264602661132812
v -33.488483428955078 2.0999999046325684 57.264602661132812
v -34.288482666015625 2.0999999046325684 57.264602661132812
f 48 46 45 47
g object_13
v -36.640380859375 0 60.064117431640625
v -37.440380096435547 0 60.064117431640625
v -36.640380859375 2.0999999046325684 60.064117431640625
v -37.440380096435547 2.0999999046325684 60.064117431640625
f 52 50 49 51
g object_14
v -28.507905960083008 0 60.064117431640625
v -27.707906723022461 0 60.064117431640625
v -28.507905960083008 2.0999999046325684 60.064117431640625
v -27.707906723022461 2.0999999046325684 60.064117431640625
f 56 54 53 55
g object_15
v -28.759666442871094 0 61.401664733886719
v -28.759666442871094 0 60.601665496826172
v -28.759666442871094 2.0999999046325684 61.401664733886719
v -28.759666442871094 2.0999999046325684 60.601665496826172
f 60 58 57 59
g object_16
v -42.001728057861328 0 50.266239166259766
v -42.001728057861328 0 51.066238403320312
v -42.001728057861328 2.0999999046325684 50.266239166259766
v -42.001728057861328 2.0999999046325684 51.066238403320312
f 64 62 61 63
g object_17
v -39.332843780517578 0 64.297866821289062
v -40.132846832275391 0 64.297866821289062
v -39.332843780517578 2.0999999046325684 64.297866821289062
v -40.132846832275391 2.0999999046325684 64.297866821289062
f 68 66 65 67
g object_18
v -18.82563591003418 0 54.970748901367188
v -18.025636672973633 0 54.970748901367188
v -18.82563591003418 2.0999999046325684 54.970748901367188
v -18.025636672973633 2.0999999046325684 54.970748901367188
f 72 70 69 71
g object_19
v -11.587111473083496 0 54.970748901367188
v -10.787111282348633 0 54.970748901367188
v -11.587111473083496 2.0999999046325684 54.970748901367188
v -10.787111282348633 2.0999999046325684 54.970748901367188
f 76 74 73 75
g object_20
v -14.442090034484863 0 49.769966125488281
v -14.442090034484863 0 50.569969177246094
v -14.442090034484863 2.0999999046325684 49.769966125488281
v -14.442090034484863 2.0999999046325684 50.569969177246094
f 80 78 77 79
g object_21
v -13.862190246582031 0 61.942394256591797
v -13.862190246582031 0 62.742393493652344
v -13.862190246582031 2.0999999046325684 61.942394256591797
v -13.862190246582031 2.0999999046325684 62.742393493652344
f 84 82 81 83
g object_22
v -22.354774475097656 0 53.272670745849609
v -22.354774475097656 0 54.072669982910156
v -22.354774475097656 2.0999999046325684 53.272670745849609
v -22.354774475097656 2.0999999046325684 54.072669982910156
f 88 86 85 87
g object_23
v -13.35489559173584 0 48.814964294433594
v -12.554895401000977 0 48.814964294433594
v -13.35489559173584 2.0999999046325684 48.814964294433594
v -12.554895401000977 2.0999999046325684 48.814964294433594
f 92 90 89 91
