# Rhino

g object_1
v -30.165395736694336 0 52.243366241455078
v -30.965396881103516 0 52.243366241455078
v -30.165395736694336 2.0999999046325684 52.243366241455078
v -30.965396881103516 2.0999999046325684 52.243366241455078
f 4 2 1 3
g object_2
v -35.322643280029297 0 51.446617126464844
v -35.322643280029297 0 50.646617889404297
v -35.322643280029297 2.0999999046325684 51.446617126464844
v -35.322643280029297 2.0999999046325684 50.646617889404297
f 8 6 5 7
g object_3
v -32.454326629638672 0 58.143207550048828
v -32.454326629638672 0 57.343208312988281
v -32.454326629638672 2.0999999046325684 58.143207550048828
v -32.454326629638672 2.0999999046325684 57.343208312988281
f 12 10 9 11
g object_4
v -37.729625701904297 0 61.780990600585938
v -37.729625701904297 0 62.580989837646484
v -37.729625701904297 2.0999999046325684 61.780990600585938
v -37.729625701904297 2.0999999046325684 62.580989837646484
f 16 14 13 15
g object_5
v -38.067619323730469 0 60.064117431640625
v -38.867618560791016 0 60.064117431640625
v -38.067619323730469 2.0999999046325684 60.064117431640625
v -38.867618560791016 2.0999999046325684 60.064117431640625
f 20 18 17 19
g object_6
v -37.729625701904297 0 55.902294158935547
v -37.729625701904297 0 56.702297210693359
v -37.729625701904297 2.0999999046325684 55.902294158935547
v -37.729625701904297 2.0999999046325684 56.702297210693359
f 24 22 21 23
g object_7
v -33.488483428955078 0 60.064117431640625
v -34.288482666015625 0 60.064117431640625
v -33.488483428955078 2.0999999046325684 60.064117431640625
v -34.288482666015625 2.0999999046325684 60.064117431640625
f 28 26 25 27
g object_8
v -26.296215057373047 0 61.780990600585938
v -26.296215057373047 0 62.580989837646484
v -26.296215057373047 2.0999999046325684 61.780990600585938
v -26.296215057373047 2.0999999046325684 62.580989837646484
f 32 30 29 31
g object_9
v -19.791879653930664 0 55.627082824707031
v -19.791879653930664 0 56.427082061767578
v -19.791879653930664 2.0999999046325684 55.627082824707031
v -19.791879653930664 2.0999999046325684 56.427082061767578
f 36 34 33 35
g object_10
v -16.427034378051758 0 60.7376708984375
v -17.227035522460938 0 60.7376708984375
v -16.427034378051758 2.0999999046325684 60.7376708984375
v -17.227035522460938 2.0999999046325684 60.7376708984375
f 40 38 37 39
g object_11
v -19.7554931640625 0 54.970748901367188
v -18.955493927001953 0 54.970748901367188
v -19.7554931640625 2.0999999046325684 54.970748901367188
v -18.955493927001953 2.0999999046325684 54.970748901367188
f 44 42 41 43
