
CASCADE Topology V3, (c) Open Cascade
Locations 0
Curve2ds 36
1 -45.22332818228395 -14.472467652536579 0 -1 
1 -45.22332818228395 -14.472467652536579 0 -1 
1 -45.22332818228395 -21.839553652536608 -1 0 
1 -45.22332818228395 -21.839553652536608 -1 0 
1 -46.981867182283949 -21.839553652536608 0 1 
1 -46.981867182283949 -21.839553652536608 0 1 
1 -46.981867182283949 -14.472467652536579 1 0 
1 -46.981867182283949 -14.472467652536579 1 0 
1 -63.226038182283958 -21.286628652536592 1 0 
1 -63.226038182283958 -21.286628652536592 1 0 
1 -60.080387182283957 -21.286628652536592 0 -1 
1 -60.080387182283957 -21.286628652536592 0 -1 
1 -60.080387182283957 -24.924423652536575 -1 0 
1 -60.080387182283957 -24.924423652536575 -1 0 
1 -62.239324182283951 -24.924423652536575 0 1 
1 -62.239324182283951 -24.924423652536575 0 1 
1 -62.239324182283951 -23.532871652536585 -1 0 
1 -62.239324182283951 -23.532871652536585 -1 0 
1 -63.226038182283958 -23.532871652536585 0 1 
1 -63.226038182283958 -23.532871652536585 0 1 
1 24.283296817716035 3.4536573474634054 -1 0 
1 24.283296817716035 3.4536573474634054 -1 0 
1 15.670427817716046 3.4536573474634054 0 1 
1 15.670427817716046 3.4536573474634054 0 1 
1 15.670427817716046 4.4356493474633965 1 0 
1 15.670427817716046 4.4356493474633965 1 0 
1 22.257324817716039 4.4356493474633965 0 1 
1 22.257324817716039 4.4356493474633965 0 1 
1 22.257324817716039 11.585069347463417 1 0 
1 22.257324817716039 11.585069347463417 1 0 
1 23.094894817716039 11.585069347463417 0 -1 
1 23.094894817716039 11.585069347463417 0 -1 
1 23.094894817716039 6.0242353474634172 1 0 
1 23.094894817716039 6.0242353474634172 1 0 
1 24.283296817716035 6.0242353474634172 0 -1 
1 24.283296817716035 6.0242353474634172 0 -1 
Curves 312
1 -189.44935799999999 -247.46311700000001 0 -1 0 0 
1 -191.51868099999999 -247.46311700000001 0 0 1 0 
1 -191.51868099999999 -241.097353 0 1 0 0 
1 -171.537541 -241.097353 0 0 -1 0 
1 -171.537541 -253.197947 0 1 0 0 
1 -160.514421 -253.197947 0 0 -1 0 
1 -160.514421 -259.956681 0 -1 0 0 
1 -170.68127799999999 -259.956681 0 0 1 0 
1 -170.68127799999999 -257.96055899999999 0 -1 0 0 
1 -171.537541 -257.96055899999999 0 0 -1 0 
1 -171.537541 -263.64496300000002 0 -1 0 0 
1 -172.58073400000001 -263.64496300000002 0 0 -1 0 
1 -172.58073400000001 -265.88443599999999 0 1 0 0 
1 -171.537541 -265.88443599999999 0 0 -1 0 
1 -171.537541 -272.90333700000002 0 1 0 0 
1 -169.91442000000001 -272.90333700000002 0 0 1 0 
1 -169.91442000000001 -271.89590600000002 0 -1 0 0 
1 -170.68127799999999 -271.89590600000002 0 0 1 0 
1 -170.68127799999999 -260.57766800000002 0 1 0 0 
1 -160.514421 -260.57766800000002 0 0 -1 0 
1 -160.514421 -267.45009199999998 0 -1 0 0 
1 -161.73548600000001 -267.45009199999998 0 0 -1 0 
1 -161.73548600000001 -271.89590600000002 0 -1 0 0 
1 -165.980456 -271.89590600000002 0 0 -1 0 
1 -165.980456 -272.90333700000002 0 1 0 0 
1 -158.26395299999999 -272.90333700000002 0 0 1 0 
1 -158.26395299999999 -265 0 -1 0 0 
1 -159.872355 -265 0 0 1 0 
1 -159.872355 -260.154811 0 1 0 0 
1 -155.38270700000001 -260.154811 0 0 1 0 
1 -155.38270700000001 -259.252004 0 -1 0 0 
1 -159.872355 -259.252004 0 0 1 0 
1 -159.872355 -249.59088 0 1 0 0 
1 -152.83733100000001 -249.59088 0 0 1 0 
1 -152.83733100000001 -248.60888800000001 0 -1 0 0 
1 -158.30887200000001 -248.60888800000001 0 0 1 0 
1 -158.30887200000001 -241.13379599999999 0 -1 0 0 
1 -166.85799900000001 -241.13379599999999 0 0 -1 0 
1 -166.85799900000001 -242.11578800000001 0 1 0 0 
1 -160.883533 -242.11578800000001 0 0 -1 0 
1 -160.883533 -248.60888800000001 0 -1 0 0 
1 -161.753984 -248.60888800000001 0 0 -1 0 
1 -161.753984 -252.36274700000001 0 -1 0 0 
1 -170.68127799999999 -252.36274700000001 0 0 1 0 
1 -170.68127799999999 -242.11578800000001 0 1 0 0 
1 -170.18529599999999 -242.11578800000001 0 0 1 0 
1 -170.18529599999999 -241.13379599999999 0 -1 0 0 
1 -170.68127799999999 -241.13379599999999 0 0 1 0 
1 -170.68127799999999 -232.889105 0 -1 0 0 
1 -171.537541 -232.889105 0 0 -1 0 
1 -171.537541 -240.18293199999999 0 -1 0 0 
1 -189.44935799999999 -240.18293199999999 0 0 1 0 
1 -189.44935799999999 -235.328723 0 -1 0 0 
1 -191.51868099999999 -235.328723 0 0 -1 0 
1 -191.51868099999999 -237.46008699999999 0 -1 0 0 
1 -207.61650599999999 -237.46008699999999 0 0 1 0 
1 -207.61650599999999 -215.566283 0 1 0 0 
1 -191.51868099999999 -215.566283 0 0 -1 0 
1 -191.51868099999999 -225.46008699999999 0 1 0 0 
1 -189.44935799999999 -225.46008699999999 0 0 1 0 
1 -189.44935799999999 -222.34551999999999 0 1 0 0 
1 -186.46428800000001 -222.34551999999999 0 0 1 0 
1 -186.46428800000001 -220.42061000000001 0 1 0 0 
1 -176.73125200000001 -220.42061000000001 0 0 -1 0 
1 -176.73125200000001 -222.34551999999999 0 1 0 0 
1 -171.537541 -222.34551999999999 0 0 -1 0 
1 -171.537541 -227.259412 0 1 0 0 
1 -170.68127799999999 -227.259412 0 0 1 0 
1 -170.68127799999999 -222.34551999999999 0 1 0 0 
1 -170.08149900000001 -222.34551999999999 0 0 1 0 
1 -170.08149900000001 -220.42061000000001 0 1 0 0 
1 -163.56848400000001 -220.42061000000001 0 0 -1 0 
1 -163.56848400000001 -222.34551999999999 0 1 0 0 
1 -156.93928299999999 -222.34551999999999 0 0 1 0 
1 -156.93928299999999 -220.42061000000001 0 1 0 0 
1 -150.39965900000001 -220.42061000000001 0 0 -1 0 
1 -150.39965900000001 -222.34551999999999 0 1 0 0 
1 -147.90212700000001 -222.34551999999999 0 0 -1 0 
1 -147.90212700000001 -224.87835100000001 0 1 0 0 
1 -147.12182799999999 -224.87835100000001 0 0 -1 0 
1 -147.12182799999999 -236.58732599999999 0 1 0 0 
1 -146.28425799999999 -236.58732599999999 0 0 1 0 
1 -146.28425799999999 -222.34551999999999 0 1 0 0 
1 -145.47031699999999 -222.34551999999999 0 0 1 0 
1 -145.47031699999999 -215 0 1 0 0 
1 -135.66130999999999 -215 0 0 -1 0 
1 -135.66130999999999 -222.34551999999999 0 1 0 0 
1 -130.47834900000001 -222.34551999999999 0 0 -1 0 
1 -130.47834900000001 -230.02815100000001 0 1 0 0 
1 -129.80958000000001 -230.02815100000001 0 0 1 0 
1 -129.80958000000001 -222.34551999999999 0 1 0 0 
1 -124.98571699999999 -222.34551999999999 0 0 1 0 
1 -124.98571699999999 -220.42061000000001 0 1 0 0 
1 -118.59901600000001 -220.42061000000001 0 0 -1 0 
1 -118.59901600000001 -222.34551999999999 0 1 0 0 
1 -115.148129 -222.34551999999999 0 0 -1 0 
1 -115.148129 -236.621645 0 -1 0 0 
1 -129.80958000000001 -236.621645 0 0 1 0 
1 -129.80958000000001 -233.99078 0 -1 0 0 
1 -130.47834900000001 -233.99078 0 0 -1 0 
1 -130.47834900000001 -237.24110200000001 0 1 0 0 
1 -126.10911 -237.24110200000001 0 0 -1 0 
1 -126.10911 -240.76218600000001 0 1 0 0 
1 -125.37262699999999 -240.76218600000001 0 0 1 0 
1 -125.37262699999999 -237.24110200000001 0 1 0 0 
1 -115.148129 -237.24110200000001 0 0 -1 0 
1 -115.148129 -243.92893100000001 0 -1 0 0 
1 -116.325613 -243.92893100000001 0 0 -1 0 
1 -116.325613 -248.60888800000001 0 -1 0 0 
1 -125.37262699999999 -248.60888800000001 0 0 1 0 
1 -125.37262699999999 -244.55466899999999 0 -1 0 0 
1 -126.10911 -244.55466899999999 0 0 -1 0 
1 -126.10911 -248.60888800000001 0 -1 0 0 
1 -135.13151199999999 -248.60888800000001 0 0 -1 0 
1 -135.13151199999999 -249.59088 0 1 0 0 
1 -115.190714 -249.59088 0 0 -1 0 
1 -115.190714 -250.68929 0 1 0 0 
1 -113.87412500000001 -250.68929 0 0 1 0 
1 -113.87412500000001 -249.21154100000001 0 1 0 0 
1 -111.654347 -249.21154100000001 0 0 1 0 
1 -111.654347 -238.784415 0 -1 0 0 
1 -113.700427 -238.784415 0 0 1 0 
1 -113.700427 -222.34551999999999 0 1 0 0 
1 -112.53674599999999 -222.34551999999999 0 0 1 0 
1 -112.53674599999999 -214.18294399999999 0 1 0 0 
1 -92.713672000000003 -214.18294399999999 0 0 -1 0 
1 -92.713672000000003 -236.81352899999999 0 -1 0 0 
1 -105.829252 -236.81352899999999 0 0 -1 0 
1 -105.829252 -240.34735599999999 0 1 0 0 
1 -102.87396699999999 -240.34735599999999 0 0 -1 0 
1 -102.87396699999999 -240.92173399999999 0 1 0 0 
1 -101.816968 -240.92173399999999 0 0 1 0 
1 -101.816968 -240.34735599999999 0 1 0 0 
1 -90.554884999999999 -240.34735599999999 0 0 -1 0 
1 -90.554884999999999 -247.745948 0 -1 0 0 
1 -101.816968 -247.745948 0 0 1 0 
1 -101.816968 -245.77709999999999 0 -1 0 0 
1 -102.87396699999999 -245.77709999999999 0 0 -1 0 
1 -102.87396699999999 -247.745948 0 -1 0 0 
1 -105.639038 -247.745948 0 0 -1 0 
1 -105.639038 -249.21154100000001 0 1 0 0 
1 -102.092393 -249.21154100000001 0 0 -1 0 
1 -102.092393 -251.43243100000001 0 1 0 0 
1 -100.67200099999999 -251.43243100000001 0 0 1 0 
1 -100.67200099999999 -249.21154100000001 0 1 0 0 
1 -88.963300000000004 -249.21154100000001 0 0 1 0 
1 -88.963300000000004 -222.34551999999999 0 1 0 0 
1 -85.085329999999999 -222.34551999999999 0 0 1 0 
1 -85.085329999999999 -220.42061000000001 0 1 0 0 
1 -78.425773000000007 -220.42061000000001 0 0 -1 0 
1 -78.425773000000007 -222.34551999999999 0 1 0 0 
1 -77.060156000000006 -222.34551999999999 0 0 -1 0 
1 -77.060156000000006 -241.515342 0 -1 0 0 
1 -78.910448000000002 -241.515342 0 0 1 0 
1 -78.910448000000002 -237.289897 0 -1 0 0 
1 -86.220035999999993 -237.289897 0 0 -1 0 
1 -86.220035999999993 -249.21154100000001 0 1 0 0 
1 -85.381833999999998 -249.21154100000001 0 0 1 0 
1 -85.381833999999998 -238.66410300000001 0 0.99999999757792046 -6.9599993007989159e-05 0 
1 -79.634707000000006 -238.664503 0 0 -1 0 
1 -79.634707000000006 -242.263554 0 1 0 0 
1 -78.763355000000004 -242.263554 0 0 -1 0 
1 -78.763355000000004 -248.88409100000001 0 -1 0 0 
1 -82 -248.88409100000001 0 0 -1 0 
1 -82 -249.716791 0 1 0 0 
1 -53.356904999999998 -249.716791 0 0 1 0 
1 -53.356904999999998 -248.88409100000001 0 -1 0 0 
1 -64.807516000000007 -248.88409100000001 0 0 1 0 
1 -64.807516000000007 -246.60090500000001 0 -1 0 0 
1 -65.463547000000005 -246.60090500000001 0 0 1 0 
1 -65.463547000000005 -229.480887 0 -1 0 0 
1 -66.186499999999995 -229.480887 0 0 -1 0 
1 -66.186499999999995 -248.88409100000001 0 -1 0 0 
1 -75.475921 -248.88409100000001 0 0 1 0 
1 -75.475921 -243.63712100000001 0 -1 0 0 
1 -76.337203000000002 -243.63712100000001 0 0 1 0 
1 -76.337203000000002 -222.34551999999999 0 1 0 0 
1 -66.186499999999995 -222.34551999999999 0 0 -1 0 
1 -66.186499999999995 -225.68840399999999 0 1 0 0 
1 -65.463547000000005 -225.68840399999999 0 0 1 0 
1 -65.463547000000005 -224.76441700000001 0 1 0 0 
1 -64.807516000000007 -224.76441700000001 0 0 1 0 
1 -64.807516000000007 -222.34551999999999 0 1 0 0 
1 -63.656865000000003 -222.34551999999999 0 0 1 0 
1 -63.656865000000003 -215 0 1 0 0 
1 -53.847856999999998 -215 0 0 -1 0 
1 -53.847856999999998 -222.34551999999999 0 1 0 0 
1 -47.508125999999997 -222.34551999999999 0 0 -1 0 
1 -47.508125999999997 -225.98908700000001 0 1 0 0 
1 -45.507682000000003 -225.98908700000001 0 0 -1 0 
1 -45.507682000000003 -232.98854900000001 0 -1 0 0 
1 -47.508125999999997 -232.98854900000001 0 0 -1 0 
1 -47.508125999999997 -240.94508400000001 0 1 0 0 
1 -45.507682000000003 -240.94508400000001 0 0 -1 0 
1 -45.507682000000003 -247.520478 0 -1 0 0 
1 -47.508125999999997 -247.520478 0 0 -1 0 
1 -47.508125999999997 -265.93053300000003 0 1 0 0 
1 -45.507682000000003 -265.93053300000003 0 0 -1 0 
1 -45.507682000000003 -272.36128400000001 0 -1 0 0 
1 -47.508125999999997 -272.36128400000001 0 0 -1 0 
1 -47.508125999999997 -274.331166 0 -1 0 0 
1 -49.902254999999997 -274.331166 0 0 -1 0 
1 -49.902254999999997 -276.57740899999999 0 1 0 0 
1 -39.893805 -276.57740899999999 0 0 -1 0 
1 -39.893805 -292.67523399999999 0 -1 0 0 
1 -61.787609000000003 -292.67523399999999 0 0 1 0 
1 -61.787609000000003 -287.606876 0 -1 0 0 
1 -63.946545999999998 -287.606876 0 0 -1 0 
1 -63.946545999999998 -290.52536400000002 0 -1 0 0 
1 -76.766948999999997 -290.52536400000002 0 0 -1 0 
1 -76.766948999999997 -292.67523399999999 0 -1 0 0 
1 -86.524601000000004 -292.67523399999999 0 0 1 0 
1 -86.524601000000004 -290.52536400000002 0 -1 0 0 
1 -88.963300000000004 -290.52536400000002 0 0 1 0 
1 -88.963300000000004 -259.252004 0 -1 0 0 
1 -100.67200099999999 -259.252004 0 0 1 0 
1 -100.67200099999999 -255.77648099999999 0 -1 0 0 
1 -102.092393 -255.77648099999999 0 0 -1 0 
1 -102.092393 -259.252004 0 -1 0 0 
1 -108.274767 -259.252004 0 0 -1 0 
1 -108.274767 -260.154811 0 1 0 0 
1 -90.554884999999999 -260.154811 0 0 -1 0 
1 -90.554884999999999 -290.52536400000002 0 -1 0 0 
1 -93.907341000000002 -290.52536400000002 0 0 -1 0 
1 -93.907341000000002 -292.67523399999999 0 -1 0 0 
1 -103.966605 -292.67523399999999 0 0 1 0 
1 -103.966605 -290.52536400000002 0 -1 0 0 
1 -117.909543 -290.52536400000002 0 0 -1 0 
1 -117.909543 -292.67523399999999 0 -1 0 0 
1 -127.51208200000001 -292.67523399999999 0 0 1 0 
1 -127.51208200000001 -290.52536400000002 0 -1 0 0 
1 -129.86061599999999 -290.52536400000002 0 0 1 0 
1 -129.86061599999999 -278.21331500000002 0 -1 0 0 
1 -130.99803700000001 -278.21331500000002 0 0 -1 0 
1 -130.99803700000001 -290.52536400000002 0 -1 0 0 
1 -132.48364000000001 -290.52536400000002 0 0 -1 0 
1 -132.48364000000001 -292.67523399999999 0 -1 0 0 
1 -142.32818499999999 -292.67523399999999 0 0 1 0 
1 -142.32818499999999 -290.52536400000002 0 -1 0 0 
1 -146.314592 -290.52536400000002 0 0 1 0 
1 -146.314592 -267.22913999999997 0 1 0 0 
1 -130.99803700000001 -267.22913999999997 0 0 -1 0 
1 -130.99803700000001 -274.93240600000001 0 1 0 0 
1 -129.86061599999999 -274.93240600000001 0 0 1 0 
1 -129.86061599999999 -260.154811 0 1 0 0 
1 -119.578243 -260.154811 0 0 -1 0 
1 -119.578243 -267.45009199999998 0 -1 0 0 
1 -120.79930899999999 -267.45009199999998 0 0 -1 0 
1 -120.79930899999999 -271.89590600000002 0 -1 0 0 
1 -125.044279 -271.89590600000002 0 0 -1 0 
1 -125.044279 -272.90333700000002 0 1 0 0 
1 -117.327776 -272.90333700000002 0 0 1 0 
1 -117.327776 -265 0 -1 0 0 
1 -118.936177 -265 0 0 1 0 
1 -118.936177 -260.154811 0 1 0 0 
1 -112.618982 -260.154811 0 0 1 0 
1 -112.618982 -259.252004 0 -1 0 0 
1 -113.700427 -259.252004 0 0 1 0 
1 -113.700427 -255.01296500000001 0 -1 0 0 
1 -115.148129 -255.01296500000001 0 0 -1 0 
1 -115.148129 -259.252004 0 -1 0 0 
1 -151.03274500000001 -259.252004 0 0 -1 0 
1 -151.03274500000001 -260.154811 0 1 0 0 
1 -130.99803700000001 -260.154811 0 0 -1 0 
1 -130.99803700000001 -265.80760800000002 0 -1 0 0 
1 -146.314592 -265.80760800000002 0 0 1 0 
1 -146.314592 -263.949207 0 -1 0 0 
1 -148.05570900000001 -263.949207 0 0 -1 0 
1 -148.05570900000001 -290.52536400000002 0 -1 0 0 
1 -152.24535399999999 -290.52536400000002 0 0 -1 0 
1 -152.24535399999999 -292.67523399999999 0 -1 0 0 
1 -161.815921 -292.67523399999999 0 0 1 0 
1 -161.815921 -290.52536400000002 0 -1 0 0 
1 -170.80247199999999 -290.52536400000002 0 0 1 0 
1 -170.80247199999999 -288.88482499999998 0 -1 0 0 
1 -172.367863 -288.88482499999998 0 0 -1 0 
1 -172.367863 -290.52536400000002 0 -1 0 0 
1 -175.12481299999999 -290.52536400000002 0 0 -1 0 
1 -175.12481299999999 -292.67523399999999 0 1 0 0 
1 -165 -292.67523399999999 0 0 -1 0 
1 -165 -298 0 -1 0 0 
1 -184.90032400000001 -298 0 0 1 0 
1 -184.90032400000001 -290.52536400000002 0 -1 0 0 
1 -189.44935799999999 -290.52536400000002 0 0 1 0 
1 -189.44935799999999 -287.709137 0 -1 0 0 
1 -191.51868099999999 -287.709137 0 0 1 0 
1 -191.51868099999999 -277.80710399999998 0 1 0 0 
1 -189.44935799999999 -277.80710399999998 0 0 1 0 
1 -189.44935799999999 -272.90333700000002 0 1 0 0 
1 -177.22636800000001 -272.90333700000002 0 0 1 0 
1 -177.22636800000001 -271.89590600000002 0 -1 0 0 
1 -191.51868099999999 -271.89590600000002 0 0 1 0 
1 -191.51868099999999 -265.75582100000003 0 1 0 0 
1 -189.44935799999999 -265.75582100000003 0 0 1 0 
1 -78.803605000000005 -267.51700499999998 0 0 -1 0 
1 -78.803605000000005 -274.88409100000001 0 1 0 0 
1 -77.045066000000006 -274.88409100000001 0 0 1 0 
1 -77.045066000000006 -267.51700499999998 0 -1 0 0 
1 -60.800894999999997 -274.331166 0 -1 0 0 
1 -63.946545999999998 -274.331166 0 0 -1 0 
1 -63.946545999999998 -277.96896099999998 0 1 0 0 
1 -61.787609000000003 -277.96896099999998 0 0 1 0 
1 -61.787609000000003 -276.57740899999999 0 1 0 0 
1 -60.800894999999997 -276.57740899999999 0 0 1 0 
1 -148.31022999999999 -249.59088 0 1 0 0 
1 -139.697361 -249.59088 0 0 1 0 
1 -139.697361 -248.60888800000001 0 -1 0 0 
1 -146.28425799999999 -248.60888800000001 0 0 1 0 
1 -146.28425799999999 -241.45946799999999 0 -1 0 0 
1 -147.12182799999999 -241.45946799999999 0 0 -1 0 
1 -147.12182799999999 -247.02030199999999 0 -1 0 0 
1 -148.31022999999999 -247.02030199999999 0 0 -1 0 
Polygon3D 0
PolygonOnTriangulations 0
Surfaces 7
1 -124.02693318228395 -253.0445373474634 0 -0 -0 -1 -1 0 0 0 1 -0 
1 -124.02693318228395 -253.0445373474634 0 -0 -0 -1 -1 0 0 0 1 -0 
1 -124.02693318228395 -253.0445373474634 0 -0 -0 -1 -1 0 0 0 1 -0 
1 -124.02693318228395 -253.0445373474634 0 -0 -0 -1 -1 0 0 0 1 -0 
1 -124.02693318228395 -253.0445373474634 0 -0 -0 -1 -1 0 0 0 1 -0 
1 -124.02693318228395 -253.0445373474634 0 -0 -0 -1 -1 0 0 0 1 -0 
1 -124.02693318228395 -253.0445373474634 0 -0 -0 -1 -1 0 0 0 1 -0 
Triangulations 0

TShapes 629
Ve
1e-07
-189.449358 -247.463117 0
0 0

0101101
*
Ve
1e-07
-191.518681 -247.463117 0
0 0

0101101
*
Ed
 1e-07 1 1 0
1  1 0 0 2.069323
0

0101000
+629 0 -628 0 *
Ve
1e-07
-191.518681 -241.097353 0
0 0

0101101
*
Ed
 1e-07 1 1 0
1  2 0 0 6.36576400000001
0

0101000
+628 0 -626 0 *
Ve
1e-07
-171.537541 -241.097353 0
0 0

0101101
*
Ed
 1e-07 1 1 0
1  3 0 0 19.98114
0

0101000
+626 0 -624 0 *
Ve
1e-07
-171.537541 -253.197947 0
0 0

0101101
*
Ed
 1e-07 1 1 0
1  4 0 0 12.100594
0

0101000
+624 0 -622 0 *
Ve
1e-07
-160.514421 -253.197947 0
0 0

0101101
*
Ed
 1e-07 1 1 0
1  5 0 0 11.02312
0

0101000
+622 0 -620 0 *
Ve
1e-07
-160.514421 -259.956681 0
0 0

0101101
*
Ed
 1e-07 1 1 0
1  6 0 0 6.758734
0

0101000
+620 0 -618 0 *
Ve
1e-07
-170.681278 -259.956681 0
0 0

0101101
*
Ed
 1e-07 1 1 0
1  7 0 0 10.166857
0

0101000
+618 0 -616 0 *
Ve
1e-07
-170.681278 -257.960559 0
0 0

0101101
*
Ed
 1e-07 1 1 0
1  8 0 0 1.99612200000001
0

0101000
+616 0 -614 0 *
Ve
1e-07
-171.537541 -257.960559 0
0 0

0101101
*
Ed
 1e-07 1 1 0
1  9 0 0 0.856263000000013
0

0101000
+614 0 -612 0 *
Ve
1e-07
-171.537541 -263.644963 0
0 0

0101101
*
Ed
 1e-07 1 1 0
1  10 0 0 5.68440400000003
0

0101000
+612 0 -610 0 *
Ve
1e-07
-172.580734 -263.644963 0
0 0

0101101
*
Ed
 1e-07 1 1 0
1  11 0 0 1.043193
0

0101000
+610 0 -608 0 *
Ve
1e-07
-172.580734 -265.884436 0
0 0

0101101
*
Ed
 1e-07 1 1 0
1  12 0 0 2.23947299999998
0

0101000
+608 0 -606 0 *
Ve
1e-07
-171.537541 -265.884436 0
0 0

0101101
*
Ed
 1e-07 1 1 0
1  13 0 0 1.043193
0

0101000
+606 0 -604 0 *
Ve
1e-07
-171.537541 -272.903337 0
0 0

0101101
*
Ed
 1e-07 1 1 0
1  14 0 0 7.01890100000003
0

0101000
+604 0 -602 0 *
Ve
1e-07
-169.91442 -272.903337 0
0 0

0101101
*
Ed
 1e-07 1 1 0
1  15 0 0 1.623121
0

0101000
+602 0 -600 0 *
Ve
1e-07
-169.91442 -271.895906 0
0 0

0101101
*
Ed
 1e-07 1 1 0
1  16 0 0 1.007431
0

0101000
+600 0 -598 0 *
Ve
1e-07
-170.681278 -271.895906 0
0 0

0101101
*
Ed
 1e-07 1 1 0
1  17 0 0 0.766857999999985
0

0101000
+598 0 -596 0 *
Ve
1e-07
-170.681278 -260.577668 0
0 0

0101101
*
Ed
 1e-07 1 1 0
1  18 0 0 11.318238
0

0101000
+596 0 -594 0 *
Ve
1e-07
-160.514421 -260.577668 0
0 0

0101101
*
Ed
 1e-07 1 1 0
1  19 0 0 10.166857
0

0101000
+594 0 -592 0 *
Ve
1e-07
-160.514421 -267.450092 0
0 0

0101101
*
Ed
 1e-07 1 1 0
1  20 0 0 6.87242399999997
0

0101000
+592 0 -590 0 *
Ve
1e-07
-161.735486 -267.450092 0
0 0

0101101
*
Ed
 1e-07 1 1 0
1  21 0 0 1.22106500000001
0

0101000
+590 0 -588 0 *
Ve
1e-07
-161.735486 -271.895906 0
0 0

0101101
*
Ed
 1e-07 1 1 0
1  22 0 0 4.44581400000004
0

0101000
+588 0 -586 0 *
Ve
1e-07
-165.980456 -271.895906 0
0 0

0101101
*
Ed
 1e-07 1 1 0
1  23 0 0 4.24497
0

0101000
+586 0 -584 0 *
Ve
1e-07
-165.980456 -272.903337 0
0 0

0101101
*
Ed
 1e-07 1 1 0
1  24 0 0 1.007431
0

0101000
+584 0 -582 0 *
Ve
1e-07
-158.263953 -272.903337 0
0 0

0101101
*
Ed
 1e-07 1 1 0
1  25 0 0 7.71650300000002
0

0101000
+582 0 -580 0 *
Ve
1e-07
-158.263953 -265 0
0 0

0101101
*
Ed
 1e-07 1 1 0
1  26 0 0 7.90333700000002
0

0101000
+580 0 -578 0 *
Ve
1e-07
-159.872355 -265 0
0 0

0101101
*
Ed
 1e-07 1 1 0
1  27 0 0 1.60840200000001
0

0101000
+578 0 -576 0 *
Ve
1e-07
-159.872355 -260.154811 0
0 0

0101101
*
Ed
 1e-07 1 1 0
1  28 0 0 4.845189
0

0101000
+576 0 -574 0 *
Ve
1e-07
-155.382707 -260.154811 0
0 0

0101101
*
Ed
 1e-07 1 1 0
1  29 0 0 4.48964799999999
0

0101000
+574 0 -572 0 *
Ve
1e-07
-155.382707 -259.252004 0
0 0

0101101
*
Ed
 1e-07 1 1 0
1  30 0 0 0.902806999999996
0

0101000
+572 0 -570 0 *
Ve
1e-07
-159.872355 -259.252004 0
0 0

0101101
*
Ed
 1e-07 1 1 0
1  31 0 0 4.48964799999999
0

0101000
+570 0 -568 0 *
Ve
1e-07
-159.872355 -249.59088 0
0 0

0101101
*
Ed
 1e-07 1 1 0
1  32 0 0 9.661124
0

0101000
+568 0 -566 0 *
Ve
1e-07
-152.837331 -249.59088 0
0 0

0101101
*
Ed
 1e-07 1 1 0
1  33 0 0 7.03502399999999
0

0101000
+566 0 -564 0 *
Ve
1e-07
-152.837331 -248.608888 0
0 0

0101101
*
Ed
 1e-07 1 1 0
1  34 0 0 0.981991999999991
0

0101000
+564 0 -562 0 *
Ve
1e-07
-158.308872 -248.608888 0
0 0

0101101
*
Ed
 1e-07 1 1 0
1  35 0 0 5.471541
0

0101000
+562 0 -560 0 *
Ve
1e-07
-158.308872 -241.133796 0
0 0

0101101
*
Ed
 1e-07 1 1 0
1  36 0 0 7.47509200000002
0

0101000
+560 0 -558 0 *
Ve
1e-07
-166.857999 -241.133796 0
0 0

0101101
*
Ed
 1e-07 1 1 0
1  37 0 0 8.549127
0

0101000
+558 0 -556 0 *
Ve
1e-07
-166.857999 -242.115788 0
0 0

0101101
*
Ed
 1e-07 1 1 0
1  38 0 0 0.98199200000002
0

0101000
+556 0 -554 0 *
Ve
1e-07
-160.883533 -242.115788 0
0 0

0101101
*
Ed
 1e-07 1 1 0
1  39 0 0 5.97446600000001
0

0101000
+554 0 -552 0 *
Ve
1e-07
-160.883533 -248.608888 0
0 0

0101101
*
Ed
 1e-07 1 1 0
1  40 0 0 6.4931
0

0101000
+552 0 -550 0 *
Ve
1e-07
-161.753984 -248.608888 0
0 0

0101101
*
Ed
 1e-07 1 1 0
1  41 0 0 0.870451000000003
0

0101000
+550 0 -548 0 *
Ve
1e-07
-161.753984 -252.362747 0
0 0

0101101
*
Ed
 1e-07 1 1 0
1  42 0 0 3.75385900000001
0

0101000
+548 0 -546 0 *
Ve
1e-07
-170.681278 -252.362747 0
0 0

0101101
*
Ed
 1e-07 1 1 0
1  43 0 0 8.92729399999999
0

0101000
+546 0 -544 0 *
Ve
1e-07
-170.681278 -242.115788 0
0 0

0101101
*
Ed
 1e-07 1 1 0
1  44 0 0 10.246959
0

0101000
+544 0 -542 0 *
Ve
1e-07
-170.185296 -242.115788 0
0 0

0101101
*
Ed
 1e-07 1 1 0
1  45 0 0 0.495981999999998
0

0101000
+542 0 -540 0 *
Ve
1e-07
-170.185296 -241.133796 0
0 0

0101101
*
Ed
 1e-07 1 1 0
1  46 0 0 0.98199200000002
0

0101000
+540 0 -538 0 *
Ve
1e-07
-170.681278 -241.133796 0
0 0

0101101
*
Ed
 1e-07 1 1 0
1  47 0 0 0.495981999999998
0

0101000
+538 0 -536 0 *
Ve
1e-07
-170.681278 -232.889105 0
0 0

0101101
*
Ed
 1e-07 1 1 0
1  48 0 0 8.24469099999999
0

0101000
+536 0 -534 0 *
Ve
1e-07
-171.537541 -232.889105 0
0 0

0101101
*
Ed
 1e-07 1 1 0
1  49 0 0 0.856263000000013
0

0101000
+534 0 -532 0 *
Ve
1e-07
-171.537541 -240.182932 0
0 0

0101101
*
Ed
 1e-07 1 1 0
1  50 0 0 7.29382699999999
0

0101000
+532 0 -530 0 *
Ve
1e-07
-189.449358 -240.182932 0
0 0

0101101
*
Ed
 1e-07 1 1 0
1  51 0 0 17.911817
0

0101000
+530 0 -528 0 *
Ve
1e-07
-189.449358 -235.328723 0
0 0

0101101
*
Ed
 1e-07 1 1 0
1  52 0 0 4.854209
0

0101000
+528 0 -526 0 *
Ve
1e-07
-191.518681 -235.328723 0
0 0

0101101
*
Ed
 1e-07 1 1 0
1  53 0 0 2.069323
0

0101000
+526 0 -524 0 *
Ve
1e-07
-191.518681 -237.460087 0
0 0

0101101
*
Ed
 1e-07 1 1 0
1  54 0 0 2.13136399999999
0

0101000
+524 0 -522 0 *
Ve
1e-07
-207.616506 -237.460087 0
0 0

0101101
*
Ed
 1e-07 1 1 0
1  55 0 0 16.097825
0

0101000
+522 0 -520 0 *
Ve
1e-07
-207.616506 -215.566283 0
0 0

0101101
*
Ed
 1e-07 1 1 0
1  56 0 0 21.893804
0

0101000
+520 0 -518 0 *
Ve
1e-07
-191.518681 -215.566283 0
0 0

0101101
*
Ed
 1e-07 1 1 0
1  57 0 0 16.097825
0

0101000
+518 0 -516 0 *
Ve
1e-07
-191.518681 -225.460087 0
0 0

0101101
*
Ed
 1e-07 1 1 0
1  58 0 0 9.89380399999999
0

0101000
+516 0 -514 0 *
Ve
1e-07
-189.449358 -225.460087 0
0 0

0101101
*
Ed
 1e-07 1 1 0
1  59 0 0 2.069323
0

0101000
+514 0 -512 0 *
Ve
1e-07
-189.449358 -222.34552 0
0 0

0101101
*
Ed
 1e-07 1 1 0
1  60 0 0 3.11456699999999
0

0101000
+512 0 -510 0 *
Ve
1e-07
-186.464288 -222.34552 0
0 0

0101101
*
Ed
 1e-07 1 1 0
1  61 0 0 2.98506999999998
0

0101000
+510 0 -508 0 *
Ve
1e-07
-186.464288 -220.42061 0
0 0

0101101
*
Ed
 1e-07 1 1 0
1  62 0 0 1.92490999999998
0

0101000
+508 0 -506 0 *
Ve
1e-07
-176.731252 -220.42061 0
0 0

0101101
*
Ed
 1e-07 1 1 0
1  63 0 0 9.733036
0

0101000
+506 0 -504 0 *
Ve
1e-07
-176.731252 -222.34552 0
0 0

0101101
*
Ed
 1e-07 1 1 0
1  64 0 0 1.92490999999998
0

0101000
+504 0 -502 0 *
Ve
1e-07
-171.537541 -222.34552 0
0 0

0101101
*
Ed
 1e-07 1 1 0
1  65 0 0 5.19371100000001
0

0101000
+502 0 -500 0 *
Ve
1e-07
-171.537541 -227.259412 0
0 0

0101101
*
Ed
 1e-07 1 1 0
1  66 0 0 4.913892
0

0101000
+500 0 -498 0 *
Ve
1e-07
-170.681278 -227.259412 0
0 0

0101101
*
Ed
 1e-07 1 1 0
1  67 0 0 0.856263000000013
0

0101000
+498 0 -496 0 *
Ve
1e-07
-170.681278 -222.34552 0
0 0

0101101
*
Ed
 1e-07 1 1 0
1  68 0 0 4.913892
0

0101000
+496 0 -494 0 *
Ve
1e-07
-170.081499 -222.34552 0
0 0

0101101
*
Ed
 1e-07 1 1 0
1  69 0 0 0.599778999999984
0

0101000
+494 0 -492 0 *
Ve
1e-07
-170.081499 -220.42061 0
0 0

0101101
*
Ed
 1e-07 1 1 0
1  70 0 0 1.92490999999998
0

0101000
+492 0 -490 0 *
Ve
1e-07
-163.568484 -220.42061 0
0 0

0101101
*
Ed
 1e-07 1 1 0
1  71 0 0 6.513015
0

0101000
+490 0 -488 0 *
Ve
1e-07
-163.568484 -222.34552 0
0 0

0101101
*
Ed
 1e-07 1 1 0
1  72 0 0 1.92490999999998
0

0101000
+488 0 -486 0 *
Ve
1e-07
-156.939283 -222.34552 0
0 0

0101101
*
Ed
 1e-07 1 1 0
1  73 0 0 6.62920100000002
0

0101000
+486 0 -484 0 *
Ve
1e-07
-156.939283 -220.42061 0
0 0

0101101
*
Ed
 1e-07 1 1 0
1  74 0 0 1.92490999999998
0

0101000
+484 0 -482 0 *
Ve
1e-07
-150.399659 -220.42061 0
0 0

0101101
*
Ed
 1e-07 1 1 0
1  75 0 0 6.53962399999998
0

0101000
+482 0 -480 0 *
Ve
1e-07
-150.399659 -222.34552 0
0 0

0101101
*
Ed
 1e-07 1 1 0
1  76 0 0 1.92490999999998
0

0101000
+480 0 -478 0 *
Ve
1e-07
-147.902127 -222.34552 0
0 0

0101101
*
Ed
 1e-07 1 1 0
1  77 0 0 2.49753200000001
0

0101000
+478 0 -476 0 *
Ve
1e-07
-147.902127 -224.878351 0
0 0

0101101
*
Ed
 1e-07 1 1 0
1  78 0 0 2.53283100000002
0

0101000
+476 0 -474 0 *
Ve
1e-07
-147.121828 -224.878351 0
0 0

0101101
*
Ed
 1e-07 1 1 0
1  79 0 0 0.780299000000014
0

0101000
+474 0 -472 0 *
Ve
1e-07
-147.121828 -236.587326 0
0 0

0101101
*
Ed
 1e-07 1 1 0
1  80 0 0 11.708975
0

0101000
+472 0 -470 0 *
Ve
1e-07
-146.284258 -236.587326 0
0 0

0101101
*
Ed
 1e-07 1 1 0
1  81 0 0 0.837569999999999
0

0101000
+470 0 -468 0 *
Ve
1e-07
-146.284258 -222.34552 0
0 0

0101101
*
Ed
 1e-07 1 1 0
1  82 0 0 14.241806
0

0101000
+468 0 -466 0 *
Ve
1e-07
-145.470317 -222.34552 0
0 0

0101101
*
Ed
 1e-07 1 1 0
1  83 0 0 0.813941
0

0101000
+466 0 -464 0 *
Ve
1e-07
-145.470317 -215 0
0 0

0101101
*
Ed
 1e-07 1 1 0
1  84 0 0 7.34551999999999
0

0101000
+464 0 -462 0 *
Ve
1e-07
-135.66131 -215 0
0 0

0101101
*
Ed
 1e-07 1 1 0
1  85 0 0 9.80900700000001
0

0101000
+462 0 -460 0 *
Ve
1e-07
-135.66131 -222.34552 0
0 0

0101101
*
Ed
 1e-07 1 1 0
1  86 0 0 7.34551999999999
0

0101000
+460 0 -458 0 *
Ve
1e-07
-130.478349 -222.34552 0
0 0

0101101
*
Ed
 1e-07 1 1 0
1  87 0 0 5.18296099999998
0

0101000
+458 0 -456 0 *
Ve
1e-07
-130.478349 -230.028151 0
0 0

0101101
*
Ed
 1e-07 1 1 0
1  88 0 0 7.68263100000001
0

0101000
+456 0 -454 0 *
Ve
1e-07
-129.80958 -230.028151 0
0 0

0101101
*
Ed
 1e-07 1 1 0
1  89 0 0 0.668768999999998
0

0101000
+454 0 -452 0 *
Ve
1e-07
-129.80958 -222.34552 0
0 0

0101101
*
Ed
 1e-07 1 1 0
1  90 0 0 7.68263100000001
0

0101000
+452 0 -450 0 *
Ve
1e-07
-124.985717 -222.34552 0
0 0

0101101
*
Ed
 1e-07 1 1 0
1  91 0 0 4.82386300000002
0

0101000
+450 0 -448 0 *
Ve
1e-07
-124.985717 -220.42061 0
0 0

0101101
*
Ed
 1e-07 1 1 0
1  92 0 0 1.92490999999998
0

0101000
+448 0 -446 0 *
Ve
1e-07
-118.599016 -220.42061 0
0 0

0101101
*
Ed
 1e-07 1 1 0
1  93 0 0 6.38670099999999
0

0101000
+446 0 -444 0 *
Ve
1e-07
-118.599016 -222.34552 0
0 0

0101101
*
Ed
 1e-07 1 1 0
1  94 0 0 1.92490999999998
0

0101000
+444 0 -442 0 *
Ve
1e-07
-115.148129 -222.34552 0
0 0

0101101
*
Ed
 1e-07 1 1 0
1  95 0 0 3.45088700000001
0

0101000
+442 0 -440 0 *
Ve
1e-07
-115.148129 -236.621645 0
0 0

0101101
*
Ed
 1e-07 1 1 0
1  96 0 0 14.276125
0

0101000
+440 0 -438 0 *
Ve
1e-07
-129.80958 -236.621645 0
0 0

0101101
*
Ed
 1e-07 1 1 0
1  97 0 0 14.661451
0

0101000
+438 0 -436 0 *
Ve
1e-07
-129.80958 -233.99078 0
0 0

0101101
*
Ed
 1e-07 1 1 0
1  98 0 0 2.630865
0

0101000
+436 0 -434 0 *
Ve
1e-07
-130.478349 -233.99078 0
0 0

0101101
*
Ed
 1e-07 1 1 0
1  99 0 0 0.668768999999998
0

0101000
+434 0 -432 0 *
Ve
1e-07
-130.478349 -237.241102 0
0 0

0101101
*
Ed
 1e-07 1 1 0
1  100 0 0 3.25032200000001
0

0101000
+432 0 -430 0 *
Ve
1e-07
-126.10911 -237.241102 0
0 0

0101101
*
Ed
 1e-07 1 1 0
1  101 0 0 4.36923900000001
0

0101000
+430 0 -428 0 *
Ve
1e-07
-126.10911 -240.762186 0
0 0

0101101
*
Ed
 1e-07 1 1 0
1  102 0 0 3.521084
0

0101000
+428 0 -426 0 *
Ve
1e-07
-125.372627 -240.762186 0
0 0

0101101
*
Ed
 1e-07 1 1 0
1  103 0 0 0.736483000000007
0

0101000
+426 0 -424 0 *
Ve
1e-07
-125.372627 -237.241102 0
0 0

0101101
*
Ed
 1e-07 1 1 0
1  104 0 0 3.521084
0

0101000
+424 0 -422 0 *
Ve
1e-07
-115.148129 -237.241102 0
0 0

0101101
*
Ed
 1e-07 1 1 0
1  105 0 0 10.224498
0

0101000
+422 0 -420 0 *
Ve
1e-07
-115.148129 -243.928931 0
0 0

0101101
*
Ed
 1e-07 1 1 0
1  106 0 0 6.68782899999999
0

0101000
+420 0 -418 0 *
Ve
1e-07
-116.325613 -243.928931 0
0 0

0101101
*
Ed
 1e-07 1 1 0
1  107 0 0 1.17748400000001
0

0101000
+418 0 -416 0 *
Ve
1e-07
-116.325613 -248.608888 0
0 0

0101101
*
Ed
 1e-07 1 1 0
1  108 0 0 4.679957
0

0101000
+416 0 -414 0 *
Ve
1e-07
-125.372627 -248.608888 0
0 0

0101101
*
Ed
 1e-07 1 1 0
1  109 0 0 9.04701399999999
0

0101000
+414 0 -412 0 *
Ve
1e-07
-125.372627 -244.554669 0
0 0

0101101
*
Ed
 1e-07 1 1 0
1  110 0 0 4.05421900000002
0

0101000
+412 0 -410 0 *
Ve
1e-07
-126.10911 -244.554669 0
0 0

0101101
*
Ed
 1e-07 1 1 0
1  111 0 0 0.736483000000007
0

0101000
+410 0 -408 0 *
Ve
1e-07
-126.10911 -248.608888 0
0 0

0101101
*
Ed
 1e-07 1 1 0
1  112 0 0 4.05421900000002
0

0101000
+408 0 -406 0 *
Ve
1e-07
-135.131512 -248.608888 0
0 0

0101101
*
Ed
 1e-07 1 1 0
1  113 0 0 9.02240199999999
0

0101000
+406 0 -404 0 *
Ve
1e-07
-135.131512 -249.59088 0
0 0

0101101
*
Ed
 1e-07 1 1 0
1  114 0 0 0.981991999999991
0

0101000
+404 0 -402 0 *
Ve
1e-07
-115.190714 -249.59088 0
0 0

0101101
*
Ed
 1e-07 1 1 0
1  115 0 0 19.940798
0

0101000
+402 0 -400 0 *
Ve
1e-07
-115.190714 -250.68929 0
0 0

0101101
*
Ed
 1e-07 1 1 0
1  116 0 0 1.09841
0

0101000
+400 0 -398 0 *
Ve
1e-07
-113.874125 -250.68929 0
0 0

0101101
*
Ed
 1e-07 1 1 0
1  117 0 0 1.31658899999999
0

0101000
+398 0 -396 0 *
Ve
1e-07
-113.874125 -249.211541 0
0 0

0101101
*
Ed
 1e-07 1 1 0
1  118 0 0 1.47774899999999
0

0101000
+396 0 -394 0 *
Ve
1e-07
-111.654347 -249.211541 0
0 0

0101101
*
Ed
 1e-07 1 1 0
1  119 0 0 2.21977800000001
0

0101000
+394 0 -392 0 *
Ve
1e-07
-111.654347 -238.784415 0
0 0

0101101
*
Ed
 1e-07 1 1 0
1  120 0 0 10.427126
0

0101000
+392 0 -390 0 *
Ve
1e-07
-113.700427 -238.784415 0
0 0

0101101
*
Ed
 1e-07 1 1 0
1  121 0 0 2.04608
0

0101000
+390 0 -388 0 *
Ve
1e-07
-113.700427 -222.34552 0
0 0

0101101
*
Ed
 1e-07 1 1 0
1  122 0 0 16.438895
0

0101000
+388 0 -386 0 *
Ve
1e-07
-112.536746 -222.34552 0
0 0

0101101
*
Ed
 1e-07 1 1 0
1  123 0 0 1.16368100000001
0

0101000
+386 0 -384 0 *
Ve
1e-07
-112.536746 -214.182944 0
0 0

0101101
*
Ed
 1e-07 1 1 0
1  124 0 0 8.162576
0

0101000
+384 0 -382 0 *
Ve
1e-07
-92.713672 -214.182944 0
0 0

0101101
*
Ed
 1e-07 1 1 0
1  125 0 0 19.823074
0

0101000
+382 0 -380 0 *
Ve
1e-07
-92.713672 -236.813529 0
0 0

0101101
*
Ed
 1e-07 1 1 0
1  126 0 0 22.630585
0

0101000
+380 0 -378 0 *
Ve
1e-07
-105.829252 -236.813529 0
0 0

0101101
*
Ed
 1e-07 1 1 0
1  127 0 0 13.11558
0

0101000
+378 0 -376 0 *
Ve
1e-07
-105.829252 -240.347356 0
0 0

0101101
*
Ed
 1e-07 1 1 0
1  128 0 0 3.533827
0

0101000
+376 0 -374 0 *
Ve
1e-07
-102.873967 -240.347356 0
0 0

0101101
*
Ed
 1e-07 1 1 0
1  129 0 0 2.955285
0

0101000
+374 0 -372 0 *
Ve
1e-07
-102.873967 -240.921734 0
0 0

0101101
*
Ed
 1e-07 1 1 0
1  130 0 0 0.574377999999996
0

0101000
+372 0 -370 0 *
Ve
1e-07
-101.816968 -240.921734 0
0 0

0101101
*
Ed
 1e-07 1 1 0
1  131 0 0 1.05699899999999
0

0101000
+370 0 -368 0 *
Ve
1e-07
-101.816968 -240.347356 0
0 0

0101101
*
Ed
 1e-07 1 1 0
1  132 0 0 0.574377999999996
0

0101000
+368 0 -366 0 *
Ve
1e-07
-90.554885 -240.347356 0
0 0

0101101
*
Ed
 1e-07 1 1 0
1  133 0 0 11.262083
0

0101000
+366 0 -364 0 *
Ve
1e-07
-90.554885 -247.745948 0
0 0

0101101
*
Ed
 1e-07 1 1 0
1  134 0 0 7.39859200000001
0

0101000
+364 0 -362 0 *
Ve
1e-07
-101.816968 -247.745948 0
0 0

0101101
*
Ed
 1e-07 1 1 0
1  135 0 0 11.262083
0

0101000
+362 0 -360 0 *
Ve
1e-07
-101.816968 -245.7771 0
0 0

0101101
*
Ed
 1e-07 1 1 0
1  136 0 0 1.96884800000001
0

0101000
+360 0 -358 0 *
Ve
1e-07
-102.873967 -245.7771 0
0 0

0101101
*
Ed
 1e-07 1 1 0
1  137 0 0 1.05699899999999
0

0101000
+358 0 -356 0 *
Ve
1e-07
-102.873967 -247.745948 0
0 0

0101101
*
Ed
 1e-07 1 1 0
1  138 0 0 1.96884800000001
0

0101000
+356 0 -354 0 *
Ve
1e-07
-105.639038 -247.745948 0
0 0

0101101
*
Ed
 1e-07 1 1 0
1  139 0 0 2.76507100000001
0

0101000
+354 0 -352 0 *
Ve
1e-07
-105.639038 -249.211541 0
0 0

0101101
*
Ed
 1e-07 1 1 0
1  140 0 0 1.46559300000001
0

0101000
+352 0 -350 0 *
Ve
1e-07
-102.092393 -249.211541 0
0 0

0101101
*
Ed
 1e-07 1 1 0
1  141 0 0 3.546645
0

0101000
+350 0 -348 0 *
Ve
1e-07
-102.092393 -251.432431 0
0 0

0101101
*
Ed
 1e-07 1 1 0
1  142 0 0 2.22089
0

0101000
+348 0 -346 0 *
Ve
1e-07
-100.672001 -251.432431 0
0 0

0101101
*
Ed
 1e-07 1 1 0
1  143 0 0 1.42039200000001
0

0101000
+346 0 -344 0 *
Ve
1e-07
-100.672001 -249.211541 0
0 0

0101101
*
Ed
 1e-07 1 1 0
1  144 0 0 2.22089
0

0101000
+344 0 -342 0 *
Ve
1e-07
-88.9633 -249.211541 0
0 0

0101101
*
Ed
 1e-07 1 1 0
1  145 0 0 11.708701
0

0101000
+342 0 -340 0 *
Ve
1e-07
-88.9633 -222.34552 0
0 0

0101101
*
Ed
 1e-07 1 1 0
1  146 0 0 26.866021
0

0101000
+340 0 -338 0 *
Ve
1e-07
-85.08533 -222.34552 0
0 0

0101101
*
Ed
 1e-07 1 1 0
1  147 0 0 3.87797
0

0101000
+338 0 -336 0 *
Ve
1e-07
-85.08533 -220.42061 0
0 0

0101101
*
Ed
 1e-07 1 1 0
1  148 0 0 1.92490999999998
0

0101000
+336 0 -334 0 *
Ve
1e-07
-78.425773 -220.42061 0
0 0

0101101
*
Ed
 1e-07 1 1 0
1  149 0 0 6.65955699999999
0

0101000
+334 0 -332 0 *
Ve
1e-07
-78.425773 -222.34552 0
0 0

0101101
*
Ed
 1e-07 1 1 0
1  150 0 0 1.92490999999998
0

0101000
+332 0 -330 0 *
Ve
1e-07
-77.060156 -222.34552 0
0 0

0101101
*
Ed
 1e-07 1 1 0
1  151 0 0 1.365617
0

0101000
+330 0 -328 0 *
Ve
1e-07
-77.060156 -241.515342 0
0 0

0101101
*
Ed
 1e-07 1 1 0
1  152 0 0 19.169822
0

0101000
+328 0 -326 0 *
Ve
1e-07
-78.910448 -241.515342 0
0 0

0101101
*
Ed
 1e-07 1 1 0
1  153 0 0 1.850292
0

0101000
+326 0 -324 0 *
Ve
1e-07
-78.910448 -237.289897 0
0 0

0101101
*
Ed
 1e-07 1 1 0
1  154 0 0 4.22544500000001
0

0101000
+324 0 -322 0 *
Ve
1e-07
-86.220036 -237.289897 0
0 0

0101101
*
Ed
 1e-07 1 1 0
1  155 0 0 7.30958799999999
0

0101000
+322 0 -320 0 *
Ve
1e-07
-86.220036 -249.211541 0
0 0

0101101
*
Ed
 1e-07 1 1 0
1  156 0 0 11.921644
0

0101000
+320 0 -318 0 *
Ve
1e-07
-85.381834 -249.211541 0
0 0

0101101
*
Ed
 1e-07 1 1 0
1  157 0 0 0.838201999999995
0

0101000
+318 0 -316 0 *
Ve
1e-07
-85.381834 -238.664103 0
0 0

0101101
*
Ed
 1e-07 1 1 0
1  158 0 0 10.547438
0

0101000
+316 0 -314 0 *
Ve
1e-07
-79.634707 -238.664503 0
0 0

0101101
*
Ed
 1e-07 1 1 0
1  159 0 0 5.74712701391999
0

0101000
+314 0 -312 0 *
Ve
1e-07
-79.634707 -242.263554 0
0 0

0101101
*
Ed
 1e-07 1 1 0
1  160 0 0 3.599051
0

0101000
+312 0 -310 0 *
Ve
1e-07
-78.763355 -242.263554 0
0 0

0101101
*
Ed
 1e-07 1 1 0
1  161 0 0 0.871352000000002
0

0101000
+310 0 -308 0 *
Ve
1e-07
-78.763355 -248.884091 0
0 0

0101101
*
Ed
 1e-07 1 1 0
1  162 0 0 6.62053700000001
0

0101000
+308 0 -306 0 *
Ve
1e-07
-82 -248.884091 0
0 0

0101101
*
Ed
 1e-07 1 1 0
1  163 0 0 3.236645
0

0101000
+306 0 -304 0 *
Ve
1e-07
-82 -249.716791 0
0 0

0101101
*
Ed
 1e-07 1 1 0
1  164 0 0 0.832699999999988
0

0101000
+304 0 -302 0 *
Ve
1e-07
-53.356905 -249.716791 0
0 0

0101101
*
Ed
 1e-07 1 1 0
1  165 0 0 28.643095
0

0101000
+302 0 -300 0 *
Ve
1e-07
-53.356905 -248.884091 0
0 0

0101101
*
Ed
 1e-07 1 1 0
1  166 0 0 0.832699999999988
0

0101000
+300 0 -298 0 *
Ve
1e-07
-64.807516 -248.884091 0
0 0

0101101
*
Ed
 1e-07 1 1 0
1  167 0 0 11.450611
0

0101000
+298 0 -296 0 *
Ve
1e-07
-64.807516 -246.600905 0
0 0

0101101
*
Ed
 1e-07 1 1 0
1  168 0 0 2.283186
0

0101000
+296 0 -294 0 *
Ve
1e-07
-65.463547 -246.600905 0
0 0

0101101
*
Ed
 1e-07 1 1 0
1  169 0 0 0.656030999999999
0

0101000
+294 0 -292 0 *
Ve
1e-07
-65.463547 -229.480887 0
0 0

0101101
*
Ed
 1e-07 1 1 0
1  170 0 0 17.120018
0

0101000
+292 0 -290 0 *
Ve
1e-07
-66.1865 -229.480887 0
0 0

0101101
*
Ed
 1e-07 1 1 0
1  171 0 0 0.72295299999999
0

0101000
+290 0 -288 0 *
Ve
1e-07
-66.1865 -248.884091 0
0 0

0101101
*
Ed
 1e-07 1 1 0
1  172 0 0 19.403204
0

0101000
+288 0 -286 0 *
Ve
1e-07
-75.475921 -248.884091 0
0 0

0101101
*
Ed
 1e-07 1 1 0
1  173 0 0 9.289421
0

0101000
+286 0 -284 0 *
Ve
1e-07
-75.475921 -243.637121 0
0 0

0101101
*
Ed
 1e-07 1 1 0
1  174 0 0 5.24697
0

0101000
+284 0 -282 0 *
Ve
1e-07
-76.337203 -243.637121 0
0 0

0101101
*
Ed
 1e-07 1 1 0
1  175 0 0 0.861282000000003
0

0101000
+282 0 -280 0 *
Ve
1e-07
-76.337203 -222.34552 0
0 0

0101101
*
Ed
 1e-07 1 1 0
1  176 0 0 21.291601
0

0101000
+280 0 -278 0 *
Ve
1e-07
-66.1865 -222.34552 0
0 0

0101101
*
Ed
 1e-07 1 1 0
1  177 0 0 10.150703
0

0101000
+278 0 -276 0 *
Ve
1e-07
-66.1865 -225.688404 0
0 0

0101101
*
Ed
 1e-07 1 1 0
1  178 0 0 3.342884
0

0101000
+276 0 -274 0 *
Ve
1e-07
-65.463547 -225.688404 0
0 0

0101101
*
Ed
 1e-07 1 1 0
1  179 0 0 0.72295299999999
0

0101000
+274 0 -272 0 *
Ve
1e-07
-65.463547 -224.764417 0
0 0

0101101
*
Ed
 1e-07 1 1 0
1  180 0 0 0.923986999999983
0

0101000
+272 0 -270 0 *
Ve
1e-07
-64.807516 -224.764417 0
0 0

0101101
*
Ed
 1e-07 1 1 0
1  181 0 0 0.656030999999999
0

0101000
+270 0 -268 0 *
Ve
1e-07
-64.807516 -222.34552 0
0 0

0101101
*
Ed
 1e-07 1 1 0
1  182 0 0 2.41889700000002
0

0101000
+268 0 -266 0 *
Ve
1e-07
-63.656865 -222.34552 0
0 0

0101101
*
Ed
 1e-07 1 1 0
1  183 0 0 1.150651
0

0101000
+266 0 -264 0 *
Ve
1e-07
-63.656865 -215 0
0 0

0101101
*
Ed
 1e-07 1 1 0
1  184 0 0 7.34551999999999
0

0101000
+264 0 -262 0 *
Ve
1e-07
-53.847857 -215 0
0 0

0101101
*
Ed
 1e-07 1 1 0
1  185 0 0 9.80900800000001
0

0101000
+262 0 -260 0 *
Ve
1e-07
-53.847857 -222.34552 0
0 0

0101101
*
Ed
 1e-07 1 1 0
1  186 0 0 7.34551999999999
0

0101000
+260 0 -258 0 *
Ve
1e-07
-47.508126 -222.34552 0
0 0

0101101
*
Ed
 1e-07 1 1 0
1  187 0 0 6.339731
0

0101000
+258 0 -256 0 *
Ve
1e-07
-47.508126 -225.989087 0
0 0

0101101
*
Ed
 1e-07 1 1 0
1  188 0 0 3.64356700000002
0

0101000
+256 0 -254 0 *
Ve
1e-07
-45.507682 -225.989087 0
0 0

0101101
*
Ed
 1e-07 1 1 0
1  189 0 0 2.00044399999999
0

0101000
+254 0 -252 0 *
Ve
1e-07
-45.507682 -232.988549 0
0 0

0101101
*
Ed
 1e-07 1 1 0
1  190 0 0 6.99946199999999
0

0101000
+252 0 -250 0 *
Ve
1e-07
-47.508126 -232.988549 0
0 0

0101101
*
Ed
 1e-07 1 1 0
1  191 0 0 2.00044399999999
0

0101000
+250 0 -248 0 *
Ve
1e-07
-47.508126 -240.945084 0
0 0

0101101
*
Ed
 1e-07 1 1 0
1  192 0 0 7.956535
0

0101000
+248 0 -246 0 *
Ve
1e-07
-45.507682 -240.945084 0
0 0

0101101
*
Ed
 1e-07 1 1 0
1  193 0 0 2.00044399999999
0

0101000
+246 0 -244 0 *
Ve
1e-07
-45.507682 -247.520478 0
0 0

0101101
*
Ed
 1e-07 1 1 0
1  194 0 0 6.57539399999999
0

0101000
+244 0 -242 0 *
Ve
1e-07
-47.508126 -247.520478 0
0 0

0101101
*
Ed
 1e-07 1 1 0
1  195 0 0 2.00044399999999
0

0101000
+242 0 -240 0 *
Ve
1e-07
-47.508126 -265.930533 0
0 0

0101101
*
Ed
 1e-07 1 1 0
1  196 0 0 18.410055
0

0101000
+240 0 -238 0 *
Ve
1e-07
-45.507682 -265.930533 0
0 0

0101101
*
Ed
 1e-07 1 1 0
1  197 0 0 2.00044399999999
0

0101000
+238 0 -236 0 *
Ve
1e-07
-45.507682 -272.361284 0
0 0

0101101
*
Ed
 1e-07 1 1 0
1  198 0 0 6.43075099999999
0

0101000
+236 0 -234 0 *
Ve
1e-07
-47.508126 -272.361284 0
0 0

0101101
*
Ed
 1e-07 1 1 0
1  199 0 0 2.00044399999999
0

0101000
+234 0 -232 0 *
Ve
1e-07
-47.508126 -274.331166 0
0 0

0101101
*
Ed
 1e-07 1 1 0
1  200 0 0 1.96988199999998
0

0101000
+232 0 -230 0 *
Ve
1e-07
-49.902255 -274.331166 0
0 0

0101101
*
Ed
 1e-07 1 1 0
1  201 0 0 2.394129
0

0101000
+230 0 -228 0 *
Ve
1e-07
-49.902255 -276.577409 0
0 0

0101101
*
Ed
 1e-07 1 1 0
1  202 0 0 2.24624299999999
0

0101000
+228 0 -226 0 *
Ve
1e-07
-39.893805 -276.577409 0
0 0

0101101
*
Ed
 1e-07 1 1 0
1  203 0 0 10.00845
0

0101000
+226 0 -224 0 *
Ve
1e-07
-39.893805 -292.675234 0
0 0

0101101
*
Ed
 1e-07 1 1 0
1  204 0 0 16.097825
0

0101000
+224 0 -222 0 *
Ve
1e-07
-61.787609 -292.675234 0
0 0

0101101
*
Ed
 1e-07 1 1 0
1  205 0 0 21.893804
0

0101000
+222 0 -220 0 *
Ve
1e-07
-61.787609 -287.606876 0
0 0

0101101
*
Ed
 1e-07 1 1 0
1  206 0 0 5.06835799999999
0

0101000
+220 0 -218 0 *
Ve
1e-07
-63.946546 -287.606876 0
0 0

0101101
*
Ed
 1e-07 1 1 0
1  207 0 0 2.15893699999999
0

0101000
+218 0 -216 0 *
Ve
1e-07
-63.946546 -290.525364 0
0 0

0101101
*
Ed
 1e-07 1 1 0
1  208 0 0 2.91848800000002
0

0101000
+216 0 -214 0 *
Ve
1e-07
-76.766949 -290.525364 0
0 0

0101101
*
Ed
 1e-07 1 1 0
1  209 0 0 12.820403
0

0101000
+214 0 -212 0 *
Ve
1e-07
-76.766949 -292.675234 0
0 0

0101101
*
Ed
 1e-07 1 1 0
1  210 0 0 2.14986999999996
0

0101000
+212 0 -210 0 *
Ve
1e-07
-86.524601 -292.675234 0
0 0

0101101
*
Ed
 1e-07 1 1 0
1  211 0 0 9.75765200000001
0

0101000
+210 0 -208 0 *
Ve
1e-07
-86.524601 -290.525364 0
0 0

0101101
*
Ed
 1e-07 1 1 0
1  212 0 0 2.14986999999996
0

0101000
+208 0 -206 0 *
Ve
1e-07
-88.9633 -290.525364 0
0 0

0101101
*
Ed
 1e-07 1 1 0
1  213 0 0 2.438699
0

0101000
+206 0 -204 0 *
Ve
1e-07
-88.9633 -259.252004 0
0 0

0101101
*
Ed
 1e-07 1 1 0
1  214 0 0 31.27336
0

0101000
+204 0 -202 0 *
Ve
1e-07
-100.672001 -259.252004 0
0 0

0101101
*
Ed
 1e-07 1 1 0
1  215 0 0 11.708701
0

0101000
+202 0 -200 0 *
Ve
1e-07
-100.672001 -255.776481 0
0 0

0101101
*
Ed
 1e-07 1 1 0
1  216 0 0 3.47552300000001
0

0101000
+200 0 -198 0 *
Ve
1e-07
-102.092393 -255.776481 0
0 0

0101101
*
Ed
 1e-07 1 1 0
1  217 0 0 1.42039200000001
0

0101000
+198 0 -196 0 *
Ve
1e-07
-102.092393 -259.252004 0
0 0

0101101
*
Ed
 1e-07 1 1 0
1  218 0 0 3.47552300000001
0

0101000
+196 0 -194 0 *
Ve
1e-07
-108.274767 -259.252004 0
0 0

0101101
*
Ed
 1e-07 1 1 0
1  219 0 0 6.182374
0

0101000
+194 0 -192 0 *
Ve
1e-07
-108.274767 -260.154811 0
0 0

0101101
*
Ed
 1e-07 1 1 0
1  220 0 0 0.902806999999996
0

0101000
+192 0 -190 0 *
Ve
1e-07
-90.554885 -260.154811 0
0 0

0101101
*
Ed
 1e-07 1 1 0
1  221 0 0 17.719882
0

0101000
+190 0 -188 0 *
Ve
1e-07
-90.554885 -290.525364 0
0 0

0101101
*
Ed
 1e-07 1 1 0
1  222 0 0 30.370553
0

0101000
+188 0 -186 0 *
Ve
1e-07
-93.907341 -290.525364 0
0 0

0101101
*
Ed
 1e-07 1 1 0
1  223 0 0 3.352456
0

0101000
+186 0 -184 0 *
Ve
1e-07
-93.907341 -292.675234 0
0 0

0101101
*
Ed
 1e-07 1 1 0
1  224 0 0 2.14986999999996
0

0101000
+184 0 -182 0 *
Ve
1e-07
-103.966605 -292.675234 0
0 0

0101101
*
Ed
 1e-07 1 1 0
1  225 0 0 10.059264
0

0101000
+182 0 -180 0 *
Ve
1e-07
-103.966605 -290.525364 0
0 0

0101101
*
Ed
 1e-07 1 1 0
1  226 0 0 2.14986999999996
0

0101000
+180 0 -178 0 *
Ve
1e-07
-117.909543 -290.525364 0
0 0

0101101
*
Ed
 1e-07 1 1 0
1  227 0 0 13.942938
0

0101000
+178 0 -176 0 *
Ve
1e-07
-117.909543 -292.675234 0
0 0

0101101
*
Ed
 1e-07 1 1 0
1  228 0 0 2.14986999999996
0

0101000
+176 0 -174 0 *
Ve
1e-07
-127.512082 -292.675234 0
0 0

0101101
*
Ed
 1e-07 1 1 0
1  229 0 0 9.60253900000001
0

0101000
+174 0 -172 0 *
Ve
1e-07
-127.512082 -290.525364 0
0 0

0101101
*
Ed
 1e-07 1 1 0
1  230 0 0 2.14986999999996
0

0101000
+172 0 -170 0 *
Ve
1e-07
-129.860616 -290.525364 0
0 0

0101101
*
Ed
 1e-07 1 1 0
1  231 0 0 2.34853399999999
0

0101000
+170 0 -168 0 *
Ve
1e-07
-129.860616 -278.213315 0
0 0

0101101
*
Ed
 1e-07 1 1 0
1  232 0 0 12.312049
0

0101000
+168 0 -166 0 *
Ve
1e-07
-130.998037 -278.213315 0
0 0

0101101
*
Ed
 1e-07 1 1 0
1  233 0 0 1.13742100000002
0

0101000
+166 0 -164 0 *
Ve
1e-07
-130.998037 -290.525364 0
0 0

0101101
*
Ed
 1e-07 1 1 0
1  234 0 0 12.312049
0

0101000
+164 0 -162 0 *
Ve
1e-07
-132.48364 -290.525364 0
0 0

0101101
*
Ed
 1e-07 1 1 0
1  235 0 0 1.485603
0

0101000
+162 0 -160 0 *
Ve
1e-07
-132.48364 -292.675234 0
0 0

0101101
*
Ed
 1e-07 1 1 0
1  236 0 0 2.14986999999996
0

0101000
+160 0 -158 0 *
Ve
1e-07
-142.328185 -292.675234 0
0 0

0101101
*
Ed
 1e-07 1 1 0
1  237 0 0 9.84454499999998
0

0101000
+158 0 -156 0 *
Ve
1e-07
-142.328185 -290.525364 0
0 0

0101101
*
Ed
 1e-07 1 1 0
1  238 0 0 2.14986999999996
0

0101000
+156 0 -154 0 *
Ve
1e-07
-146.314592 -290.525364 0
0 0

0101101
*
Ed
 1e-07 1 1 0
1  239 0 0 3.98640700000001
0

0101000
+154 0 -152 0 *
Ve
1e-07
-146.314592 -267.22914 0
0 0

0101101
*
Ed
 1e-07 1 1 0
1  240 0 0 23.2962240000001
0

0101000
+152 0 -150 0 *
Ve
1e-07
-130.998037 -267.22914 0
0 0

0101101
*
Ed
 1e-07 1 1 0
1  241 0 0 15.316555
0

0101000
+150 0 -148 0 *
Ve
1e-07
-130.998037 -274.932406 0
0 0

0101101
*
Ed
 1e-07 1 1 0
1  242 0 0 7.70326600000004
0

0101000
+148 0 -146 0 *
Ve
1e-07
-129.860616 -274.932406 0
0 0

0101101
*
Ed
 1e-07 1 1 0
1  243 0 0 1.13742100000002
0

0101000
+146 0 -144 0 *
Ve
1e-07
-129.860616 -260.154811 0
0 0

0101101
*
Ed
 1e-07 1 1 0
1  244 0 0 14.777595
0

0101000
+144 0 -142 0 *
Ve
1e-07
-119.578243 -260.154811 0
0 0

0101101
*
Ed
 1e-07 1 1 0
1  245 0 0 10.282373
0

0101000
+142 0 -140 0 *
Ve
1e-07
-119.578243 -267.450092 0
0 0

0101101
*
Ed
 1e-07 1 1 0
1  246 0 0 7.29528099999999
0

0101000
+140 0 -138 0 *
Ve
1e-07
-120.799309 -267.450092 0
0 0

0101101
*
Ed
 1e-07 1 1 0
1  247 0 0 1.22106599999999
0

0101000
+138 0 -136 0 *
Ve
1e-07
-120.799309 -271.895906 0
0 0

0101101
*
Ed
 1e-07 1 1 0
1  248 0 0 4.44581400000004
0

0101000
+136 0 -134 0 *
Ve
1e-07
-125.044279 -271.895906 0
0 0

0101101
*
Ed
 1e-07 1 1 0
1  249 0 0 4.24497000000001
0

0101000
+134 0 -132 0 *
Ve
1e-07
-125.044279 -272.903337 0
0 0

0101101
*
Ed
 1e-07 1 1 0
1  250 0 0 1.007431
0

0101000
+132 0 -130 0 *
Ve
1e-07
-117.327776 -272.903337 0
0 0

0101101
*
Ed
 1e-07 1 1 0
1  251 0 0 7.716503
0

0101000
+130 0 -128 0 *
Ve
1e-07
-117.327776 -265 0
0 0

0101101
*
Ed
 1e-07 1 1 0
1  252 0 0 7.90333700000002
0

0101000
+128 0 -126 0 *
Ve
1e-07
-118.936177 -265 0
0 0

0101101
*
Ed
 1e-07 1 1 0
1  253 0 0 1.608401
0

0101000
+126 0 -124 0 *
Ve
1e-07
-118.936177 -260.154811 0
0 0

0101101
*
Ed
 1e-07 1 1 0
1  254 0 0 4.845189
0

0101000
+124 0 -122 0 *
Ve
1e-07
-112.618982 -260.154811 0
0 0

0101101
*
Ed
 1e-07 1 1 0
1  255 0 0 6.317195
0

0101000
+122 0 -120 0 *
Ve
1e-07
-112.618982 -259.252004 0
0 0

0101101
*
Ed
 1e-07 1 1 0
1  256 0 0 0.902806999999996
0

0101000
+120 0 -118 0 *
Ve
1e-07
-113.700427 -259.252004 0
0 0

0101101
*
Ed
 1e-07 1 1 0
1  257 0 0 1.081445
0

0101000
+118 0 -116 0 *
Ve
1e-07
-113.700427 -255.012965 0
0 0

0101101
*
Ed
 1e-07 1 1 0
1  258 0 0 4.23903899999999
0

0101000
+116 0 -114 0 *
Ve
1e-07
-115.148129 -255.012965 0
0 0

0101101
*
Ed
 1e-07 1 1 0
1  259 0 0 1.44770199999999
0

0101000
+114 0 -112 0 *
Ve
1e-07
-115.148129 -259.252004 0
0 0

0101101
*
Ed
 1e-07 1 1 0
1  260 0 0 4.23903899999999
0

0101000
+112 0 -110 0 *
Ve
1e-07
-151.032745 -259.252004 0
0 0

0101101
*
Ed
 1e-07 1 1 0
1  261 0 0 35.884616
0

0101000
+110 0 -108 0 *
Ve
1e-07
-151.032745 -260.154811 0
0 0

0101101
*
Ed
 1e-07 1 1 0
1  262 0 0 0.902806999999996
0

0101000
+108 0 -106 0 *
Ve
1e-07
-130.998037 -260.154811 0
0 0

0101101
*
Ed
 1e-07 1 1 0
1  263 0 0 20.034708
0

0101000
+106 0 -104 0 *
Ve
1e-07
-130.998037 -265.807608 0
0 0

0101101
*
Ed
 1e-07 1 1 0
1  264 0 0 5.65279700000002
0

0101000
+104 0 -102 0 *
Ve
1e-07
-146.314592 -265.807608 0
0 0

0101101
*
Ed
 1e-07 1 1 0
1  265 0 0 15.316555
0

0101000
+102 0 -100 0 *
Ve
1e-07
-146.314592 -263.949207 0
0 0

0101101
*
Ed
 1e-07 1 1 0
1  266 0 0 1.85840100000001
0

0101000
+100 0 -98 0 *
Ve
1e-07
-148.055709 -263.949207 0
0 0

0101101
*
Ed
 1e-07 1 1 0
1  267 0 0 1.741117
0

0101000
+98 0 -96 0 *
Ve
1e-07
-148.055709 -290.525364 0
0 0

0101101
*
Ed
 1e-07 1 1 0
1  268 0 0 26.576157
0

0101000
+96 0 -94 0 *
Ve
1e-07
-152.245354 -290.525364 0
0 0

0101101
*
Ed
 1e-07 1 1 0
1  269 0 0 4.18964499999998
0

0101000
+94 0 -92 0 *
Ve
1e-07
-152.245354 -292.675234 0
0 0

0101101
*
Ed
 1e-07 1 1 0
1  270 0 0 2.14986999999996
0

0101000
+92 0 -90 0 *
Ve
1e-07
-161.815921 -292.675234 0
0 0

0101101
*
Ed
 1e-07 1 1 0
1  271 0 0 9.57056700000001
0

0101000
+90 0 -88 0 *
Ve
1e-07
-161.815921 -290.525364 0
0 0

0101101
*
Ed
 1e-07 1 1 0
1  272 0 0 2.14986999999996
0

0101000
+88 0 -86 0 *
Ve
1e-07
-170.802472 -290.525364 0
0 0

0101101
*
Ed
 1e-07 1 1 0
1  273 0 0 8.98655099999999
0

0101000
+86 0 -84 0 *
Ve
1e-07
-170.802472 -288.884825 0
0 0

0101101
*
Ed
 1e-07 1 1 0
1  274 0 0 1.64053900000005
0

0101000
+84 0 -82 0 *
Ve
1e-07
-172.367863 -288.884825 0
0 0

0101101
*
Ed
 1e-07 1 1 0
1  275 0 0 1.56539100000001
0

0101000
+82 0 -80 0 *
Ve
1e-07
-172.367863 -290.525364 0
0 0

0101101
*
Ed
 1e-07 1 1 0
1  276 0 0 1.64053900000005
0

0101000
+80 0 -78 0 *
Ve
1e-07
-175.124813 -290.525364 0
0 0

0101101
*
Ed
 1e-07 1 1 0
1  277 0 0 2.75694999999999
0

0101000
+78 0 -76 0 *
Ve
1e-07
-175.124813 -292.675234 0
0 0

0101101
*
Ed
 1e-07 1 1 0
1  278 0 0 2.14986999999996
0

0101000
+76 0 -74 0 *
Ve
1e-07
-165 -292.675234 0
0 0

0101101
*
Ed
 1e-07 1 1 0
1  279 0 0 10.124813
0

0101000
+74 0 -72 0 *
Ve
1e-07
-165 -298 0
0 0

0101101
*
Ed
 1e-07 1 1 0
1  280 0 0 5.32476600000001
0

0101000
+72 0 -70 0 *
Ve
1e-07
-184.900324 -298 0
0 0

0101101
*
Ed
 1e-07 1 1 0
1  281 0 0 19.900324
0

0101000
+70 0 -68 0 *
Ve
1e-07
-184.900324 -290.525364 0
0 0

0101101
*
Ed
 1e-07 1 1 0
1  282 0 0 7.47463599999998
0

0101000
+68 0 -66 0 *
Ve
1e-07
-189.449358 -290.525364 0
0 0

0101101
*
Ed
 1e-07 1 1 0
1  283 0 0 4.54903399999998
0

0101000
+66 0 -64 0 *
Ve
1e-07
-189.449358 -287.709137 0
0 0

0101101
*
Ed
 1e-07 1 1 0
1  284 0 0 2.81622700000003
0

0101000
+64 0 -62 0 *
Ve
1e-07
-191.518681 -287.709137 0
0 0

0101101
*
Ed
 1e-07 1 1 0
1  285 0 0 2.069323
0

0101000
+62 0 -60 0 *
Ve
1e-07
-191.518681 -277.807104 0
0 0

0101101
*
Ed
 1e-07 1 1 0
1  286 0 0 9.90203300000002
0

0101000
+60 0 -58 0 *
Ve
1e-07
-189.449358 -277.807104 0
0 0

0101101
*
Ed
 1e-07 1 1 0
1  287 0 0 2.069323
0

0101000
+58 0 -56 0 *
Ve
1e-07
-189.449358 -272.903337 0
0 0

0101101
*
Ed
 1e-07 1 1 0
1  288 0 0 4.90376699999996
0

0101000
+56 0 -54 0 *
Ve
1e-07
-177.226368 -272.903337 0
0 0

0101101
*
Ed
 1e-07 1 1 0
1  289 0 0 12.22299
0

0101000
+54 0 -52 0 *
Ve
1e-07
-177.226368 -271.895906 0
0 0

0101101
*
Ed
 1e-07 1 1 0
1  290 0 0 1.007431
0

0101000
+52 0 -50 0 *
Ve
1e-07
-191.518681 -271.895906 0
0 0

0101101
*
Ed
 1e-07 1 1 0
1  291 0 0 14.292313
0

0101000
+50 0 -48 0 *
Ve
1e-07
-191.518681 -265.755821 0
0 0

0101101
*
Ed
 1e-07 1 1 0
1  292 0 0 6.140085
0

0101000
+48 0 -46 0 *
Ve
1e-07
-189.449358 -265.755821 0
0 0

0101101
*
Ed
 1e-07 1 1 0
1  293 0 0 2.069323
0

0101000
+46 0 -44 0 *
Ed
 1e-07 1 1 0
1  294 0 0 18.292704
0

0101000
+44 0 -629 0 *
Wi

0101100
+627 0 +625 0 +623 0 +621 0 +619 0 +617 0 +615 0 +613 0 +611 0 +609 0 
+607 0 +605 0 +603 0 +601 0 +599 0 +597 0 +595 0 +593 0 +591 0 +589 0 
+587 0 +585 0 +583 0 +581 0 +579 0 +577 0 +575 0 +573 0 +571 0 +569 0 
+567 0 +565 0 +563 0 +561 0 +559 0 +557 0 +555 0 +553 0 +551 0 +549 0 
+547 0 +545 0 +543 0 +541 0 +539 0 +537 0 +535 0 +533 0 +531 0 +529 0 
+527 0 +525 0 +523 0 +521 0 +519 0 +517 0 +515 0 +513 0 +511 0 +509 0 
+507 0 +505 0 +503 0 +501 0 +499 0 +497 0 +495 0 +493 0 +491 0 +489 0 
+487 0 +485 0 +483 0 +481 0 +479 0 +477 0 +475 0 +473 0 +471 0 +469 0 
+467 0 +465 0 +463 0 +461 0 +459 0 +457 0 +455 0 +453 0 +451 0 +449 0 
+447 0 +445 0 +443 0 +441 0 +439 0 +437 0 +435 0 +433 0 +431 0 +429 0 
+427 0 +425 0 +423 0 +421 0 +419 0 +417 0 +415 0 +413 0 +411 0 +409 0 
+407 0 +405 0 +403 0 +401 0 +399 0 +397 0 +395 0 +393 0 +391 0 +389 0 
+387 0 +385 0 +383 0 +381 0 +379 0 +377 0 +375 0 +373 0 +371 0 +369 0 
+367 0 +365 0 +363 0 +361 0 +359 0 +357 0 +355 0 +353 0 +351 0 +349 0 
+347 0 +345 0 +343 0 +341 0 +339 0 +337 0 +335 0 +333 0 +331 0 +329 0 
+327 0 +325 0 +323 0 +321 0 +319 0 +317 0 +315 0 +313 0 +311 0 +309 0 
+307 0 +305 0 +303 0 +301 0 +299 0 +297 0 +295 0 +293 0 +291 0 +289 0 
+287 0 +285 0 +283 0 +281 0 +279 0 +277 0 +275 0 +273 0 +271 0 +269 0 
+267 0 +265 0 +263 0 +261 0 +259 0 +257 0 +255 0 +253 0 +251 0 +249 0 
+247 0 +245 0 +243 0 +241 0 +239 0 +237 0 +235 0 +233 0 +231 0 +229 0 
+227 0 +225 0 +223 0 +221 0 +219 0 +217 0 +215 0 +213 0 +211 0 +209 0 
+207 0 +205 0 +203 0 +201 0 +199 0 +197 0 +195 0 +193 0 +191 0 +189 0 
+187 0 +185 0 +183 0 +181 0 +179 0 +177 0 +175 0 +173 0 +171 0 +169 0 
+167 0 +165 0 +163 0 +161 0 +159 0 +157 0 +155 0 +153 0 +151 0 +149 0 
+147 0 +145 0 +143 0 +141 0 +139 0 +137 0 +135 0 +133 0 +131 0 +129 0 
+127 0 +125 0 +123 0 +121 0 +119 0 +117 0 +115 0 +113 0 +111 0 +109 0 
+107 0 +105 0 +103 0 +101 0 +99 0 +97 0 +95 0 +93 0 +91 0 +89 0 
+87 0 +85 0 +83 0 +81 0 +79 0 +77 0 +75 0 +73 0 +71 0 +69 0 
+67 0 +65 0 +63 0 +61 0 +59 0 +57 0 +55 0 +53 0 +51 0 +49 0 
+47 0 +45 0 +43 0 +42 0 *
Ve
1e-07
-78.803605 -267.517005 0
0 0

0101101
*
Ve
1e-07
-78.803605 -274.884091 0
0 0

0101101
*
Ed
 1e-07 1 1 0
1  295 0 0 7.36708600000003
2  1 2 0 0 7.36708600000003
2  2 3 0 0 7.36708600000003
0

0101000
+40 0 -39 0 *
Ve
1e-07
-77.045066 -274.884091 0
0 0

0101101
*
Ed
 1e-07 1 1 0
1  296 0 0 1.758539
2  3 2 0 0 1.758539
2  4 3 0 0 1.758539
0

0101000
+39 0 -37 0 *
Ve
1e-07
-77.045066 -267.517005 0
0 0

0101101
*
Ed
 1e-07 1 1 0
1  297 0 0 7.36708600000003
2  5 2 0 0 7.36708600000003
2  6 3 0 0 7.36708600000003
0

0101000
+37 0 -35 0 *
Ed
 1e-07 1 1 0
1  298 0 0 1.758539
2  7 2 0 0 1.758539
2  8 3 0 0 1.758539
0

0101000
+35 0 -40 0 *
Wi

0101100
+38 0 +36 0 +34 0 +33 0 *
Ve
1e-07
-60.800895 -274.331166 0
0 0

0101101
*
Ve
1e-07
-63.946546 -274.331166 0
0 0

0101101
*
Ed
 1e-07 1 1 0
1  299 0 0 3.145651
2  9 4 0 0 3.145651
2  10 5 0 0 3.145651
0

0101000
+31 0 -30 0 *
Ve
1e-07
-63.946546 -277.968961 0
0 0

0101101
*
Ed
 1e-07 1 1 0
1  300 0 0 3.63779499999998
2  11 4 0 0 3.63779499999998
2  12 5 0 0 3.63779499999998
0

0101000
+30 0 -28 0 *
Ve
1e-07
-61.787609 -277.968961 0
0 0

0101101
*
Ed
 1e-07 1 1 0
1  301 0 0 2.15893699999999
2  13 4 0 0 2.15893699999999
2  14 5 0 0 2.15893699999999
0

0101000
+28 0 -26 0 *
Ve
1e-07
-61.787609 -276.577409 0
0 0

0101101
*
Ed
 1e-07 1 1 0
1  302 0 0 1.39155199999999
2  15 4 0 0 1.39155199999999
2  16 5 0 0 1.39155199999999
0

0101000
+26 0 -24 0 *
Ve
1e-07
-60.800895 -276.577409 0
0 0

0101101
*
Ed
 1e-07 1 1 0
1  303 0 0 0.986714000000006
2  17 4 0 0 0.986714000000006
2  18 5 0 0 0.986714000000006
0

0101000
+24 0 -22 0 *
Ed
 1e-07 1 1 0
1  304 0 0 2.24624299999999
2  19 4 0 0 2.24624299999999
2  20 5 0 0 2.24624299999999
0

0101000
+22 0 -31 0 *
Wi

0101100
+29 0 +27 0 +25 0 +23 0 +21 0 +20 0 *
Ve
1e-07
-148.31023 -249.59088 0
0 0

0101101
*
Ve
1e-07
-139.697361 -249.59088 0
0 0

0101101
*
Ed
 1e-07 1 1 0
1  305 0 0 8.61286899999999
2  21 6 0 0 8.61286899999999
2  22 7 0 0 8.61286899999999
0

0101000
+18 0 -17 0 *
Ve
1e-07
-139.697361 -248.608888 0
0 0

0101101
*
Ed
 1e-07 1 1 0
1  306 0 0 0.981991999999991
2  23 6 0 0 0.981991999999991
2  24 7 0 0 0.981991999999991
0

0101000
+17 0 -15 0 *
Ve
1e-07
-146.284258 -248.608888 0
0 0

0101101
*
Ed
 1e-07 1 1 0
1  307 0 0 6.58689699999999
2  25 6 0 0 6.58689699999999
2  26 7 0 0 6.58689699999999
0

0101000
+15 0 -13 0 *
Ve
1e-07
-146.284258 -241.459468 0
0 0

0101101
*
Ed
 1e-07 1 1 0
1  308 0 0 7.14942000000002
2  27 6 0 0 7.14942000000002
2  28 7 0 0 7.14942000000002
0

0101000
+13 0 -11 0 *
Ve
1e-07
-147.121828 -241.459468 0
0 0

0101101
*
Ed
 1e-07 1 1 0
1  309 0 0 0.837569999999999
2  29 6 0 0 0.837569999999999
2  30 7 0 0 0.837569999999999
0

0101000
+11 0 -9 0 *
Ve
1e-07
-147.121828 -247.020302 0
0 0

0101101
*
Ed
 1e-07 1 1 0
1  310 0 0 5.560834
2  31 6 0 0 5.560834
2  32 7 0 0 5.560834
0

0101000
+9 0 -7 0 *
Ve
1e-07
-148.31023 -247.020302 0
0 0

0101101
*
Ed
 1e-07 1 1 0
1  311 0 0 1.188402
2  33 6 0 0 1.188402
2  34 7 0 0 1.188402
0

0101000
+7 0 -5 0 *
Ed
 1e-07 1 1 0
1  312 0 0 2.57057800000001
2  35 6 0 0 2.57057800000001
2  36 7 0 0 2.57057800000001
0

0101000
+5 0 -18 0 *
Wi

0101100
+16 0 +14 0 +12 0 +10 0 +8 0 +6 0 +4 0 +3 0 *
Fa
0  1e-07 1 0

1111000
+41 0 +32 0 +19 0 +2 0 *

+1 0 