
CASCADE Topology V3, (c) Open Cascade
Locations 0
Curve2ds 56
1 -15.62904791500695 -7.891924557865309 0 -1 
1 -15.62904791500695 -7.891924557865309 0 -1 
1 -15.62904791500695 -10.8520325578653 -1 0 
1 -15.62904791500695 -10.8520325578653 -1 0 
1 -17.674877915006959 -10.8520325578653 0 1 
1 -17.674877915006959 -10.8520325578653 0 1 
1 -17.674877915006959 -7.891924557865309 1 0 
1 -17.674877915006959 -7.891924557865309 1 0 
1 49.798546084993035 -7.891924557865309 0 -1 
1 49.798546084993035 -7.891924557865309 0 -1 
1 49.798546084993035 -10.8520325578653 -1 0 
1 49.798546084993035 -10.8520325578653 -1 0 
1 47.75271608499304 -10.8520325578653 0 1 
1 47.75271608499304 -10.8520325578653 0 1 
1 47.75271608499304 -7.891924557865309 1 0 
1 47.75271608499304 -7.891924557865309 1 0 
1 49.798546084993035 -32.643167557865297 0 -1 
1 49.798546084993035 -32.643167557865297 0 -1 
1 49.798546084993035 -34.603275557865288 -1 0 
1 49.798546084993035 -34.603275557865288 -1 0 
1 47.75271608499304 -34.603275557865288 0 1 
1 47.75271608499304 -34.603275557865288 0 1 
1 47.75271608499304 -32.643167557865297 1 0 
1 47.75271608499304 -32.643167557865297 1 0 
1 8.9797930849930481 -32.643167557865297 0 -1 
1 8.9797930849930481 -32.643167557865297 0 -1 
1 8.9797930849930481 -34.603275557865288 -1 0 
1 8.9797930849930481 -34.603275557865288 -1 0 
1 6.9339630849930529 -34.603275557865288 0 1 
1 6.9339630849930529 -34.603275557865288 0 1 
1 6.9339630849930529 -32.643167557865297 1 0 
1 6.9339630849930529 -32.643167557865297 1 0 
1 49.798546084993035 8.623495442134697 0 -1 
1 49.798546084993035 8.623495442134697 0 -1 
1 49.798546084993035 5.6633884421347034 -1 0 
1 49.798546084993035 5.6633884421347034 -1 0 
1 47.75271608499304 5.6633884421347034 0 1 
1 47.75271608499304 5.6633884421347034 0 1 
1 47.75271608499304 8.623495442134697 1 0 
1 47.75271608499304 8.623495442134697 1 0 
1 -56.570588915006951 8.623495442134697 0 -1 
1 -56.570588915006951 8.623495442134697 0 -1 
1 -56.570588915006951 5.6633884421347034 -1 0 
1 -56.570588915006951 5.6633884421347034 -1 0 
1 -58.61641891500696 5.6633884421347034 0 1 
1 -58.61641891500696 5.6633884421347034 0 1 
1 -58.61641891500696 8.623495442134697 1 0 
1 -58.61641891500696 8.623495442134697 1 0 
1 8.9797930849930481 32.727708442134713 0 -1 
1 8.9797930849930481 32.727708442134713 0 -1 
1 8.9797930849930481 30.130917442134717 -1 0 
1 8.9797930849930481 30.130917442134717 -1 0 
1 6.9339630849930529 30.130917442134717 0 1 
1 6.9339630849930529 30.130917442134717 0 1 
1 6.9339630849930529 32.727708442134713 1 0 
1 6.9339630849930529 32.727708442134713 1 0 
Curves 242
1 -92.400407000000001 387.78844700000002 0 0 1 0 
1 -92.400407000000001 390.34339999999997 0 1 0 0 
1 -71.646044000000003 390.34339999999997 0 0 -1 0 
1 -71.646044000000003 385.19165600000002 0 1 0 0 
1 -69.600213999999994 385.19165600000002 0 0 1 0 
1 -69.600213999999994 387.78844700000002 0 1 0 0 
1 -55.292729000000001 387.78844700000002 0 0 -1 0 
1 -55.292729000000001 385.19165600000002 0 1 0 0 
1 -53.246898000000002 385.19165600000002 0 0 -1 0 
1 -53.246898000000002 363.684234 0 -1 0 0 
1 -55.226792000000003 363.684234 0 0 -1 0 
1 -55.226792000000003 344.36214000000001 0 1 0 0 
1 -53.246898000000002 344.36214000000001 0 0 -1 0 
1 -53.246898000000002 338.98038700000001 0 -1 0 0 
1 -55.292729000000001 338.98038700000001 0 0 -1 0 
1 -55.292729000000001 336.02027900000002 0 -1 0 0 
1 -69.600213999999994 336.02027900000002 0 0 1 0 
1 -69.600213999999994 338.96010799999999 0 -1 0 0 
1 -71.646044000000003 338.96010799999999 0 0 -1 0 
1 -71.646044000000003 336 0 1 0 0 
1 -69.600213999999994 336 0 0 -1 0 
1 -69.600213999999994 322.41757100000001 0 -1 0 0 
1 -71.646044000000003 322.41757100000001 0 0 -1 0 
1 -71.646044000000003 318 0 -1 0 0 
1 -94.336282999999995 318 0 0 1 0 
1 -94.336282999999995 348.21776399999999 0 -1 0 0 
1 -95.927868000000004 348.21776399999999 0 0 -1 0 
1 -95.927868000000004 320.45746300000002 0 -1 0 0 
1 -98.697773999999995 320.45746300000002 0 0 -1 0 
1 -98.697773999999995 318 0 -1 0 0 
1 -108.20768099999999 318 0 0 1 0 
1 -108.20768099999999 320.45746300000002 0 -1 0 0 
1 -110.54175499999999 320.45746300000002 0 0 1 0 
1 -110.54175499999999 322.41757100000001 0 -1 0 0 
1 -112.587585 322.41757100000001 0 0 -1 0 
1 -112.587585 320.45746300000002 0 -1 0 0 
1 -115.70600399999999 320.45746300000002 0 0 -1 0 
1 -115.70600399999999 318 0 -1 0 0 
1 -120.84530100000001 318 0 0 1 0 
1 -120.84530100000001 320.45746300000002 0 -1 0 0 
1 -121.739108 320.45746300000002 0 0 1 0 
1 -121.739108 356.27157199999999 0 -1 0 0 
1 -123.18311799999999 356.27157199999999 0 0 -1 0 
1 -123.18311799999999 346.10922799999997 0 -1 0 0 
1 -129.94721699999999 346.10922799999997 0 0 1 0 
1 -129.94721699999999 356.27157199999999 0 -1 0 0 
1 -130.488271 356.27157199999999 0 0 -1 0 
1 -130.488271 346.10922799999997 0 -1 0 0 
1 -147.38123899999999 346.10922799999997 0 0 -1 0 
1 -147.38123899999999 344.895982 0 1 0 0 
1 -136.632992 344.895982 0 0 -1 0 
1 -136.632992 344.70358099999999 0 1 0 0 
1 -135.64234500000001 344.70358099999999 0 0 1 0 
1 -135.64234500000001 344.895982 0 1 0 0 
1 -125.105694 344.895982 0 0 -1 0 
1 -125.105694 335.73773899999998 0 -1 0 0 
1 -135.64234500000001 335.73773899999998 0 0 1 0 
1 -135.64234500000001 336 0 1 0 0 
1 -135.13766799999999 336 0 0 1 0 
1 -135.13766799999999 339 0 -1 0 0 
1 -135.64234500000001 339 0 0 1 0 
1 -135.64234500000001 340 0 -1 0 0 
1 -136.632992 340 0 0 -1 0 
1 -136.632992 339 0 -1 0 0 
1 -137.13766799999999 339 0 0 -1 0 
1 -137.13766799999999 336 0 1 0 0 
1 -136.632992 336 0 0 -1 0 
1 -136.632992 334.798249 0 1 0 0 
1 -123.20059000000001 334.798249 0 0 -1 0 
1 -123.20059000000001 320.45746300000002 0 -1 0 0 
1 -128.02022600000001 320.45746300000002 0 0 -1 0 
1 -128.02022600000001 318 0 -1 0 0 
1 -147.64969099999999 318 0 0 1 0 
1 -147.64969099999999 320.45746300000002 0 -1 0 0 
1 -151.81163100000001 320.45746300000002 0 0 1 0 
1 -151.81163100000001 327.45746300000002 0 1 0 0 
1 -147.57364000000001 327.45746300000002 0 0 1 0 
1 -147.57364000000001 346.10922799999997 0 -1 0 0 
1 -157.776445 346.10922799999997 0 0 -1 0 
1 -157.776445 327.45746300000002 0 1 0 0 
1 -153.538454 327.45746300000002 0 0 -1 0 
1 -153.538454 320.45746300000002 0 -1 0 0 
1 -157.48506 320.45746300000002 0 0 -1 0 
1 -157.48506 318 0 -1 0 0 
1 -167.46472600000001 318 0 0 1 0 
1 -167.46472600000001 320.45746300000002 0 -1 0 0 
1 -170.57655199999999 320.45746300000002 0 0 -1 0 
1 -170.57655199999999 318 0 -1 0 0 
1 -190.10101800000001 318 0 0 1 0 
1 -190.10101800000001 320.45746300000002 0 -1 0 0 
1 -193.493932 320.45746300000002 0 0 1 0 
1 -193.493932 323.10620399999999 0 -1 0 0 
1 -197 323.10620399999999 0 0 1 0 
1 -197 342.72743800000001 0 1 0 0 
1 -193.493932 342.72743800000001 0 0 1 0 
1 -193.493932 365.57442400000002 0 -1 0 0 
1 -197 365.57442400000002 0 0 1 0 
1 -197 385.27277900000001 0 1 0 0 
1 -193.493932 385.27277900000001 0 0 1 0 
1 -193.493932 387.78844700000002 0 1 0 0 
1 -190.01291800000001 387.78844700000002 0 0 1 0 
1 -190.01291800000001 390.34339999999997 0 1 0 0 
1 -180.323477 390.34339999999997 0 0 -1 0 
1 -180.323477 387.78844700000002 0 1 0 0 
1 -178.01517899999999 387.78844700000002 0 0 -1 0 
1 -178.01517899999999 385.19165600000002 0 1 0 0 
1 -175.96934899999999 385.19165600000002 0 0 1 0 
1 -175.96934899999999 387.78844700000002 0 1 0 0 
1 -175.235783 387.78844700000002 0 0 1 0 
1 -175.235783 390.34339999999997 0 1 0 0 
1 -156.02912599999999 390.34339999999997 0 0 -1 0 
1 -156.02912599999999 387.78844700000002 0 1 0 0 
1 -153.538454 387.78844700000002 0 0 -1 0 
1 -153.538454 385.19165600000002 0 1 0 0 
1 -151.49262400000001 385.19165600000002 0 0 1 0 
1 -151.49262400000001 387.78844700000002 0 1 0 0 
1 -150.75898799999999 387.78844700000002 0 0 1 0 
1 -150.75898799999999 390.34339999999997 0 1 0 0 
1 -123.582278 390.34339999999997 0 0 -1 0 
1 -123.582278 387.78844700000002 0 1 0 0 
1 -120.521111 387.78844700000002 0 0 -1 0 
1 -120.521111 363.01482800000002 0 -1 0 0 
1 -135.00600800000001 363.01482800000002 0 0 1 0 
1 -135.00600800000001 363.684234 0 -1 0 0 
1 -136.95075700000001 363.684234 0 0 -1 0 
1 -136.95075700000001 362.00921499999998 0 -1 0 0 
1 -139.94162800000001 362.00921499999998 0 0 1 0 
1 -139.94162800000001 368.20563499999997 0 -1 0 0 
1 -140.632858 368.20563499999997 0 0 -1 0 
1 -140.632858 362.00921499999998 0 -1 0 0 
1 -149.61073999999999 362.00921499999998 0 0 1 0 
1 -149.61073999999999 373.362347 0 1 0 0 
1 -140.632858 373.362347 0 0 -1 0 
1 -140.632858 371.91154499999999 0 1 0 0 
1 -139.94162800000001 371.91154499999999 0 0 1 0 
1 -139.94162800000001 373.362347 0 1 0 0 
1 -137.18775500000001 373.362347 0 0 1 0 
1 -137.18775500000001 373.99918000000002 0 -1 0 0 
1 -153.079667 373.99918000000002 0 0 -1 0 
1 -153.079667 373.362347 0 1 0 0 
1 -150.432197 373.362347 0 0 -1 0 
1 -150.432197 362.00921499999998 0 -1 0 0 
1 -151.81163100000001 362.00921499999998 0 0 1 0 
1 -151.81163100000001 363.684234 0 -1 0 0 
1 -153.538454 363.684234 0 0 -1 0 
1 -153.538454 357.36534 0 -1 0 0 
1 -162.92616200000001 357.36534 0 0 1 0 
1 -162.92616200000001 362.35968100000002 0 1 0 0 
1 -158.68817100000001 362.35968100000002 0 0 1 0 
1 -158.68817100000001 380.54793000000001 0 -1 0 0 
1 -162.92616200000001 380.54793000000001 0 0 -1 0 
1 -162.92616200000001 366.09337799999997 0 -1 0 0 
1 -165.88208800000001 366.09337799999997 0 0 -1 0 
1 -165.88208800000001 362.35968100000002 0 1 0 0 
1 -164.981495 362.35968100000002 0 0 -1 0 
1 -164.981495 345.318939 0 -1 0 0 
1 -165.85232500000001 345.318939 0 0 -1 0 
1 -165.85232500000001 342.02881200000002 0 1 0 0 
1 -162.92616200000001 342.02881200000002 0 0 1 0 
1 -162.92616200000001 345.645712 0 1 0 0 
1 -161.22142500000001 345.645712 0 0 1 0 
1 -161.22142500000001 346.10922799999997 0 -1 0 0 
1 -162.92616200000001 346.10922799999997 0 0 1 0 
1 -162.92616200000001 354.61860999999999 0 1 0 0 
1 -153.538454 354.61860999999999 0 0 -1 0 
1 -153.538454 346.30162899999999 0 1 0 0 
1 -151.81163100000001 346.30162899999999 0 0 1 0 
1 -151.81163100000001 360.75828999999999 0 1 0 0 
1 -136.95075700000001 360.75828999999999 0 0 1 0 
1 -136.95075700000001 361.41637200000002 0 1 0 0 
1 -123.18311799999999 361.41637200000002 0 0 -1 0 
1 -123.18311799999999 360.29105499999997 0 1 0 0 
1 -121.739108 360.29105499999997 0 0 1 0 
1 -121.739108 361.41637200000002 0 1 0 0 
1 -117.02733000000001 361.41637200000002 0 0 1 0 
1 -117.02733000000001 387.78844700000002 0 1 0 0 
1 -116.29746799999999 387.78844700000002 0 0 1 0 
1 -116.29746799999999 391.117526 0 1 0 0 
1 -111 391.117526 0 0 -1 0 
1 -111 387.78844700000002 0 1 0 0 
1 -108 387.78844700000002 0 0 1 0 
1 -108 391.117526 0 1 0 0 
1 -98.735174000000001 391.117526 0 0 -1 0 
1 -98.735174000000001 387.78844700000002 0 1 0 0 
1 -97.823414 387.78844700000002 0 0 -1 0 
1 -97.823414 373.81438400000002 0 -1 0 0 
1 -111.202235 373.81438400000002 0 0 -1 0 
1 -111.202235 370.28055699999999 0 1 0 0 
1 -108.24695 370.28055699999999 0 0 -1 0 
1 -108.24695 369.70617900000002 0 1 0 0 
1 -107.18995099999999 369.70617900000002 0 0 1 0 
1 -107.18995099999999 370.28055699999999 0 1 0 0 
1 -95.927868000000004 370.28055699999999 0 0 -1 0 
1 -95.927868000000004 362.88196499999998 0 -1 0 0 
1 -107.18995099999999 362.88196499999998 0 0 1 0 
1 -107.18995099999999 364.85081300000002 0 -1 0 0 
1 -108.24695 364.85081300000002 0 0 -1 0 
1 -108.24695 362.88196499999998 0 -1 0 0 
1 -111.012021 362.88196499999998 0 0 -1 0 
1 -111.012021 361.41637200000002 0 1 0 0 
1 -104.345192 361.41637200000002 0 0 -1 0 
1 -104.345192 358.32771500000001 0 1 0 0 
1 -103.841801 358.32771500000001 0 0 1 0 
1 -103.841801 361.41637200000002 0 1 0 0 
1 -97.846188999999995 361.41637200000002 0 0 -1 0 
1 -97.846188999999995 354.49576999999999 0 -1 0 0 
1 -103.841801 354.49576999999999 0 0 1 0 
1 -103.841801 355.16655100000003 0 -1 0 0 
1 -104.345192 355.16655100000003 0 0 -1 0 
1 -104.345192 354.03927199999998 0 1 0 0 
1 -97.846188999999995 354.03927199999998 0 0 -1 0 
1 -97.846188999999995 348.41016500000001 0 1 0 0 
1 -94.336282999999995 348.41016500000001 0 0 1 0 
1 -94.336282999999995 387.78844700000002 0 1 0 0 
1 -112.587585 347.168814 0 0 -1 0 
1 -112.587585 344.20870600000001 0 1 0 0 
1 -110.54175499999999 344.20870600000001 0 0 1 0 
1 -110.54175499999999 347.168814 0 -1 0 0 
1 -178.01517899999999 347.168814 0 0 -1 0 
1 -178.01517899999999 344.20870600000001 0 1 0 0 
1 -175.96934899999999 344.20870600000001 0 0 1 0 
1 -175.96934899999999 347.168814 0 -1 0 0 
1 -178.01517899999999 322.41757100000001 0 0 -1 0 
1 -178.01517899999999 320.45746300000002 0 1 0 0 
1 -175.96934899999999 320.45746300000002 0 0 1 0 
1 -175.96934899999999 322.41757100000001 0 -1 0 0 
1 -137.196426 322.41757100000001 0 0 -1 0 
1 -137.196426 320.45746300000002 0 1 0 0 
1 -135.15059600000001 320.45746300000002 0 0 1 0 
1 -135.15059600000001 322.41757100000001 0 -1 0 0 
1 -178.01517899999999 363.684234 0 0 -1 0 
1 -178.01517899999999 360.72412700000001 0 1 0 0 
1 -175.96934899999999 360.72412700000001 0 0 1 0 
1 -175.96934899999999 363.684234 0 -1 0 0 
1 -71.646044000000003 363.684234 0 0 -1 0 
1 -71.646044000000003 360.72412700000001 0 1 0 0 
1 -69.600213999999994 360.72412700000001 0 0 1 0 
1 -69.600213999999994 363.684234 0 -1 0 0 
1 -137.196426 387.78844700000002 0 0 -1 0 
1 -137.196426 385.19165600000002 0 1 0 0 
1 -135.15059600000001 385.19165600000002 0 0 1 0 
1 -135.15059600000001 387.78844700000002 0 -1 0 0 
Polygon3D 0
PolygonOnTriangulations 0
Surfaces 15
1 -128.21663291500695 355.06073855786531 0 -0 -0 -1 -1 0 0 0 1 -0 
1 -128.21663291500695 355.06073855786531 0 -0 -0 -1 -1 0 0 0 1 -0 
1 -128.21663291500695 355.06073855786531 0 -0 -0 -1 -1 0 0 0 1 -0 
1 -128.21663291500695 355.06073855786531 0 -0 -0 -1 -1 0 0 0 1 -0 
1 -128.21663291500695 355.06073855786531 0 -0 -0 -1 -1 0 0 0 1 -0 
1 -128.21663291500695 355.06073855786531 0 -0 -0 -1 -1 0 0 0 1 -0 
1 -128.21663291500695 355.06073855786531 0 -0 -0 -1 -1 0 0 0 1 -0 
1 -128.21663291500695 355.06073855786531 0 -0 -0 -1 -1 0 0 0 1 -0 
1 -128.21663291500695 355.06073855786531 0 -0 -0 -1 -1 0 0 0 1 -0 
1 -128.21663291500695 355.06073855786531 0 -0 -0 -1 -1 0 0 0 1 -0 
1 -128.21663291500695 355.06073855786531 0 -0 -0 -1 -1 0 0 0 1 -0 
1 -128.21663291500695 355.06073855786531 0 -0 -0 -1 -1 0 0 0 1 -0 
1 -128.21663291500695 355.06073855786531 0 -0 -0 -1 -1 0 0 0 1 -0 
1 -128.21663291500695 355.06073855786531 0 -0 -0 -1 -1 0 0 0 1 -0 
1 -128.21663291500695 355.06073855786531 0 -0 -0 -1 -1 0 0 0 1 -0 
Triangulations 0

TShapes 493
Ve
1e-07
-92.400407 387.788447 0
0 0

0101101
*
Ve
1e-07
-92.400407 390.3434 0
0 0

0101101
*
Ed
 1e-07 1 1 0
1  1 0 0 2.55495299999995
0

0101000
+493 0 -492 0 *
Ve
1e-07
-71.646044 390.3434 0
0 0

0101101
*
Ed
 1e-07 1 1 0
1  2 0 0 20.754363
0

0101000
+492 0 -490 0 *
Ve
1e-07
-71.646044 385.191656 0
0 0

0101101
*
Ed
 1e-07 1 1 0
1  3 0 0 5.15174399999995
0

0101000
+490 0 -488 0 *
Ve
1e-07
-69.600214 385.191656 0
0 0

0101101
*
Ed
 1e-07 1 1 0
1  4 0 0 2.04583000000001
0

0101000
+488 0 -486 0 *
Ve
1e-07
-69.600214 387.788447 0
0 0

0101101
*
Ed
 1e-07 1 1 0
1  5 0 0 2.596791
0

0101000
+486 0 -484 0 *
Ve
1e-07
-55.292729 387.788447 0
0 0

0101101
*
Ed
 1e-07 1 1 0
1  6 0 0 14.307485
0

0101000
+484 0 -482 0 *
Ve
1e-07
-55.292729 385.191656 0
0 0

0101101
*
Ed
 1e-07 1 1 0
1  7 0 0 2.596791
0

0101000
+482 0 -480 0 *
Ve
1e-07
-53.246898 385.191656 0
0 0

0101101
*
Ed
 1e-07 1 1 0
1  8 0 0 2.045831
0

0101000
+480 0 -478 0 *
Ve
1e-07
-53.246898 363.684234 0
0 0

0101101
*
Ed
 1e-07 1 1 0
1  9 0 0 21.507422
0

0101000
+478 0 -476 0 *
Ve
1e-07
-55.226792 363.684234 0
0 0

0101101
*
Ed
 1e-07 1 1 0
1  10 0 0 1.979894
0

0101000
+476 0 -474 0 *
Ve
1e-07
-55.226792 344.36214 0
0 0

0101101
*
Ed
 1e-07 1 1 0
1  11 0 0 19.322094
0

0101000
+474 0 -472 0 *
Ve
1e-07
-53.246898 344.36214 0
0 0

0101101
*
Ed
 1e-07 1 1 0
1  12 0 0 1.979894
0

0101000
+472 0 -470 0 *
Ve
1e-07
-53.246898 338.980387 0
0 0

0101101
*
Ed
 1e-07 1 1 0
1  13 0 0 5.381753
0

0101000
+470 0 -468 0 *
Ve
1e-07
-55.292729 338.980387 0
0 0

0101101
*
Ed
 1e-07 1 1 0
1  14 0 0 2.045831
0

0101000
+468 0 -466 0 *
Ve
1e-07
-55.292729 336.020279 0
0 0

0101101
*
Ed
 1e-07 1 1 0
1  15 0 0 2.96010799999999
0

0101000
+466 0 -464 0 *
Ve
1e-07
-69.600214 336.020279 0
0 0

0101101
*
Ed
 1e-07 1 1 0
1  16 0 0 14.307485
0

0101000
+464 0 -462 0 *
Ve
1e-07
-69.600214 338.960108 0
0 0

0101101
*
Ed
 1e-07 1 1 0
1  17 0 0 2.93982899999997
0

0101000
+462 0 -460 0 *
Ve
1e-07
-71.646044 338.960108 0
0 0

0101101
*
Ed
 1e-07 1 1 0
1  18 0 0 2.04583000000001
0

0101000
+460 0 -458 0 *
Ve
1e-07
-71.646044 336 0
0 0

0101101
*
Ed
 1e-07 1 1 0
1  19 0 0 2.96010799999999
0

0101000
+458 0 -456 0 *
Ve
1e-07
-69.600214 336 0
0 0

0101101
*
Ed
 1e-07 1 1 0
1  20 0 0 2.04583000000001
0

0101000
+456 0 -454 0 *
Ve
1e-07
-69.600214 322.417571 0
0 0

0101101
*
Ed
 1e-07 1 1 0
1  21 0 0 13.582429
0

0101000
+454 0 -452 0 *
Ve
1e-07
-71.646044 322.417571 0
0 0

0101101
*
Ed
 1e-07 1 1 0
1  22 0 0 2.04583000000001
0

0101000
+452 0 -450 0 *
Ve
1e-07
-71.646044 318 0
0 0

0101101
*
Ed
 1e-07 1 1 0
1  23 0 0 4.41757100000001
0

0101000
+450 0 -448 0 *
Ve
1e-07
-94.336283 318 0
0 0

0101101
*
Ed
 1e-07 1 1 0
1  24 0 0 22.690239
0

0101000
+448 0 -446 0 *
Ve
1e-07
-94.336283 348.217764 0
0 0

0101101
*
Ed
 1e-07 1 1 0
1  25 0 0 30.217764
0

0101000
+446 0 -444 0 *
Ve
1e-07
-95.927868 348.217764 0
0 0

0101101
*
Ed
 1e-07 1 1 0
1  26 0 0 1.59158500000001
0

0101000
+444 0 -442 0 *
Ve
1e-07
-95.927868 320.457463 0
0 0

0101101
*
Ed
 1e-07 1 1 0
1  27 0 0 27.760301
0

0101000
+442 0 -440 0 *
Ve
1e-07
-98.697774 320.457463 0
0 0

0101101
*
Ed
 1e-07 1 1 0
1  28 0 0 2.76990599999999
0

0101000
+440 0 -438 0 *
Ve
1e-07
-98.697774 318 0
0 0

0101101
*
Ed
 1e-07 1 1 0
1  29 0 0 2.45746300000002
0

0101000
+438 0 -436 0 *
Ve
1e-07
-108.207681 318 0
0 0

0101101
*
Ed
 1e-07 1 1 0
1  30 0 0 9.509907
0

0101000
+436 0 -434 0 *
Ve
1e-07
-108.207681 320.457463 0
0 0

0101101
*
Ed
 1e-07 1 1 0
1  31 0 0 2.45746300000002
0

0101000
+434 0 -432 0 *
Ve
1e-07
-110.541755 320.457463 0
0 0

0101101
*
Ed
 1e-07 1 1 0
1  32 0 0 2.334074
0

0101000
+432 0 -430 0 *
Ve
1e-07
-110.541755 322.417571 0
0 0

0101101
*
Ed
 1e-07 1 1 0
1  33 0 0 1.96010799999999
0

0101000
+430 0 -428 0 *
Ve
1e-07
-112.587585 322.417571 0
0 0

0101101
*
Ed
 1e-07 1 1 0
1  34 0 0 2.04583000000001
0

0101000
+428 0 -426 0 *
Ve
1e-07
-112.587585 320.457463 0
0 0

0101101
*
Ed
 1e-07 1 1 0
1  35 0 0 1.96010799999999
0

0101000
+426 0 -424 0 *
Ve
1e-07
-115.706004 320.457463 0
0 0

0101101
*
Ed
 1e-07 1 1 0
1  36 0 0 3.11841899999999
0

0101000
+424 0 -422 0 *
Ve
1e-07
-115.706004 318 0
0 0

0101101
*
Ed
 1e-07 1 1 0
1  37 0 0 2.45746300000002
0

0101000
+422 0 -420 0 *
Ve
1e-07
-120.845301 318 0
0 0

0101101
*
Ed
 1e-07 1 1 0
1  38 0 0 5.13929700000001
0

0101000
+420 0 -418 0 *
Ve
1e-07
-120.845301 320.457463 0
0 0

0101101
*
Ed
 1e-07 1 1 0
1  39 0 0 2.45746300000002
0

0101000
+418 0 -416 0 *
Ve
1e-07
-121.739108 320.457463 0
0 0

0101101
*
Ed
 1e-07 1 1 0
1  40 0 0 0.893806999999995
0

0101000
+416 0 -414 0 *
Ve
1e-07
-121.739108 356.271572 0
0 0

0101101
*
Ed
 1e-07 1 1 0
1  41 0 0 35.814109
0

0101000
+414 0 -412 0 *
Ve
1e-07
-123.183118 356.271572 0
0 0

0101101
*
Ed
 1e-07 1 1 0
1  42 0 0 1.44400999999999
0

0101000
+412 0 -410 0 *
Ve
1e-07
-123.183118 346.109228 0
0 0

0101101
*
Ed
 1e-07 1 1 0
1  43 0 0 10.162344
0

0101000
+410 0 -408 0 *
Ve
1e-07
-129.947217 346.109228 0
0 0

0101101
*
Ed
 1e-07 1 1 0
1  44 0 0 6.764099
0

0101000
+408 0 -406 0 *
Ve
1e-07
-129.947217 356.271572 0
0 0

0101101
*
Ed
 1e-07 1 1 0
1  45 0 0 10.162344
0

0101000
+406 0 -404 0 *
Ve
1e-07
-130.488271 356.271572 0
0 0

0101101
*
Ed
 1e-07 1 1 0
1  46 0 0 0.541054000000003
0

0101000
+404 0 -402 0 *
Ve
1e-07
-130.488271 346.109228 0
0 0

0101101
*
Ed
 1e-07 1 1 0
1  47 0 0 10.162344
0

0101000
+402 0 -400 0 *
Ve
1e-07
-147.381239 346.109228 0
0 0

0101101
*
Ed
 1e-07 1 1 0
1  48 0 0 16.892968
0

0101000
+400 0 -398 0 *
Ve
1e-07
-147.381239 344.895982 0
0 0

0101101
*
Ed
 1e-07 1 1 0
1  49 0 0 1.21324599999997
0

0101000
+398 0 -396 0 *
Ve
1e-07
-136.632992 344.895982 0
0 0

0101101
*
Ed
 1e-07 1 1 0
1  50 0 0 10.748247
0

0101000
+396 0 -394 0 *
Ve
1e-07
-136.632992 344.703581 0
0 0

0101101
*
Ed
 1e-07 1 1 0
1  51 0 0 0.192401000000018
0

0101000
+394 0 -392 0 *
Ve
1e-07
-135.642345 344.703581 0
0 0

0101101
*
Ed
 1e-07 1 1 0
1  52 0 0 0.990646999999996
0

0101000
+392 0 -390 0 *
Ve
1e-07
-135.642345 344.895982 0
0 0

0101101
*
Ed
 1e-07 1 1 0
1  53 0 0 0.192401000000018
0

0101000
+390 0 -388 0 *
Ve
1e-07
-125.105694 344.895982 0
0 0

0101101
*
Ed
 1e-07 1 1 0
1  54 0 0 10.536651
0

0101000
+388 0 -386 0 *
Ve
1e-07
-125.105694 335.737739 0
0 0

0101101
*
Ed
 1e-07 1 1 0
1  55 0 0 9.15824300000003
0

0101000
+386 0 -384 0 *
Ve
1e-07
-135.642345 335.737739 0
0 0

0101101
*
Ed
 1e-07 1 1 0
1  56 0 0 10.536651
0

0101000
+384 0 -382 0 *
Ve
1e-07
-135.642345 336 0
0 0

0101101
*
Ed
 1e-07 1 1 0
1  57 0 0 0.262261000000024
0

0101000
+382 0 -380 0 *
Ve
1e-07
-135.137668 336 0
0 0

0101101
*
Ed
 1e-07 1 1 0
1  58 0 0 0.504677000000015
0

0101000
+380 0 -378 0 *
Ve
1e-07
-135.137668 339 0
0 0

0101101
*
Ed
 1e-07 1 1 0
1  59 0 0 3
0

0101000
+378 0 -376 0 *
Ve
1e-07
-135.642345 339 0
0 0

0101101
*
Ed
 1e-07 1 1 0
1  60 0 0 0.504677000000015
0

0101000
+376 0 -374 0 *
Ve
1e-07
-135.642345 340 0
0 0

0101101
*
Ed
 1e-07 1 1 0
1  61 0 0 1
0

0101000
+374 0 -372 0 *
Ve
1e-07
-136.632992 340 0
0 0

0101101
*
Ed
 1e-07 1 1 0
1  62 0 0 0.990646999999996
0

0101000
+372 0 -370 0 *
Ve
1e-07
-136.632992 339 0
0 0

0101101
*
Ed
 1e-07 1 1 0
1  63 0 0 1
0

0101000
+370 0 -368 0 *
Ve
1e-07
-137.137668 339 0
0 0

0101101
*
Ed
 1e-07 1 1 0
1  64 0 0 0.504675999999989
0

0101000
+368 0 -366 0 *
Ve
1e-07
-137.137668 336 0
0 0

0101101
*
Ed
 1e-07 1 1 0
1  65 0 0 3
0

0101000
+366 0 -364 0 *
Ve
1e-07
-136.632992 336 0
0 0

0101101
*
Ed
 1e-07 1 1 0
1  66 0 0 0.504675999999989
0

0101000
+364 0 -362 0 *
Ve
1e-07
-136.632992 334.798249 0
0 0

0101101
*
Ed
 1e-07 1 1 0
1  67 0 0 1.201751
0

0101000
+362 0 -360 0 *
Ve
1e-07
-123.20059 334.798249 0
0 0

0101101
*
Ed
 1e-07 1 1 0
1  68 0 0 13.432402
0

0101000
+360 0 -358 0 *
Ve
1e-07
-123.20059 320.457463 0
0 0

0101101
*
Ed
 1e-07 1 1 0
1  69 0 0 14.340786
0

0101000
+358 0 -356 0 *
Ve
1e-07
-128.020226 320.457463 0
0 0

0101101
*
Ed
 1e-07 1 1 0
1  70 0 0 4.819636
0

0101000
+356 0 -354 0 *
Ve
1e-07
-128.020226 318 0
0 0

0101101
*
Ed
 1e-07 1 1 0
1  71 0 0 2.45746300000002
0

0101000
+354 0 -352 0 *
Ve
1e-07
-147.649691 318 0
0 0

0101101
*
Ed
 1e-07 1 1 0
1  72 0 0 19.629465
0

0101000
+352 0 -350 0 *
Ve
1e-07
-147.649691 320.457463 0
0 0

0101101
*
Ed
 1e-07 1 1 0
1  73 0 0 2.45746300000002
0

0101000
+350 0 -348 0 *
Ve
1e-07
-151.811631 320.457463 0
0 0

0101101
*
Ed
 1e-07 1 1 0
1  74 0 0 4.16194000000002
0

0101000
+348 0 -346 0 *
Ve
1e-07
-151.811631 327.457463 0
0 0

0101101
*
Ed
 1e-07 1 1 0
1  75 0 0 7
0

0101000
+346 0 -344 0 *
Ve
1e-07
-147.57364 327.457463 0
0 0

0101101
*
Ed
 1e-07 1 1 0
1  76 0 0 4.23799099999999
0

0101000
+344 0 -342 0 *
Ve
1e-07
-147.57364 346.109228 0
0 0

0101101
*
Ed
 1e-07 1 1 0
1  77 0 0 18.651765
0

0101000
+342 0 -340 0 *
Ve
1e-07
-157.776445 346.109228 0
0 0

0101101
*
Ed
 1e-07 1 1 0
1  78 0 0 10.202805
0

0101000
+340 0 -338 0 *
Ve
1e-07
-157.776445 327.457463 0
0 0

0101101
*
Ed
 1e-07 1 1 0
1  79 0 0 18.651765
0

0101000
+338 0 -336 0 *
Ve
1e-07
-153.538454 327.457463 0
0 0

0101101
*
Ed
 1e-07 1 1 0
1  80 0 0 4.23799099999999
0

0101000
+336 0 -334 0 *
Ve
1e-07
-153.538454 320.457463 0
0 0

0101101
*
Ed
 1e-07 1 1 0
1  81 0 0 7
0

0101000
+334 0 -332 0 *
Ve
1e-07
-157.48506 320.457463 0
0 0

0101101
*
Ed
 1e-07 1 1 0
1  82 0 0 3.946606
0

0101000
+332 0 -330 0 *
Ve
1e-07
-157.48506 318 0
0 0

0101101
*
Ed
 1e-07 1 1 0
1  83 0 0 2.45746300000002
0

0101000
+330 0 -328 0 *
Ve
1e-07
-167.464726 318 0
0 0

0101101
*
Ed
 1e-07 1 1 0
1  84 0 0 9.97966600000001
0

0101000
+328 0 -326 0 *
Ve
1e-07
-167.464726 320.457463 0
0 0

0101101
*
Ed
 1e-07 1 1 0
1  85 0 0 2.45746300000002
0

0101000
+326 0 -324 0 *
Ve
1e-07
-170.576552 320.457463 0
0 0

0101101
*
Ed
 1e-07 1 1 0
1  86 0 0 3.11182599999998
0

0101000
+324 0 -322 0 *
Ve
1e-07
-170.576552 318 0
0 0

0101101
*
Ed
 1e-07 1 1 0
1  87 0 0 2.45746300000002
0

0101000
+322 0 -320 0 *
Ve
1e-07
-190.101018 318 0
0 0

0101101
*
Ed
 1e-07 1 1 0
1  88 0 0 19.524466
0

0101000
+320 0 -318 0 *
Ve
1e-07
-190.101018 320.457463 0
0 0

0101101
*
Ed
 1e-07 1 1 0
1  89 0 0 2.45746300000002
0

0101000
+318 0 -316 0 *
Ve
1e-07
-193.493932 320.457463 0
0 0

0101101
*
Ed
 1e-07 1 1 0
1  90 0 0 3.39291399999999
0

0101000
+316 0 -314 0 *
Ve
1e-07
-193.493932 323.106204 0
0 0

0101101
*
Ed
 1e-07 1 1 0
1  91 0 0 2.64874099999997
0

0101000
+314 0 -312 0 *
Ve
1e-07
-197 323.106204 0
0 0

0101101
*
Ed
 1e-07 1 1 0
1  92 0 0 3.506068
0

0101000
+312 0 -310 0 *
Ve
1e-07
-197 342.727438 0
0 0

0101101
*
Ed
 1e-07 1 1 0
1  93 0 0 19.621234
0

0101000
+310 0 -308 0 *
Ve
1e-07
-193.493932 342.727438 0
0 0

0101101
*
Ed
 1e-07 1 1 0
1  94 0 0 3.506068
0

0101000
+308 0 -306 0 *
Ve
1e-07
-193.493932 365.574424 0
0 0

0101101
*
Ed
 1e-07 1 1 0
1  95 0 0 22.846986
0

0101000
+306 0 -304 0 *
Ve
1e-07
-197 365.574424 0
0 0

0101101
*
Ed
 1e-07 1 1 0
1  96 0 0 3.506068
0

0101000
+304 0 -302 0 *
Ve
1e-07
-197 385.272779 0
0 0

0101101
*
Ed
 1e-07 1 1 0
1  97 0 0 19.698355
0

0101000
+302 0 -300 0 *
Ve
1e-07
-193.493932 385.272779 0
0 0

0101101
*
Ed
 1e-07 1 1 0
1  98 0 0 3.506068
0

0101000
+300 0 -298 0 *
Ve
1e-07
-193.493932 387.788447 0
0 0

0101101
*
Ed
 1e-07 1 1 0
1  99 0 0 2.51566800000001
0

0101000
+298 0 -296 0 *
Ve
1e-07
-190.012918 387.788447 0
0 0

0101101
*
Ed
 1e-07 1 1 0
1  100 0 0 3.48101399999999
0

0101000
+296 0 -294 0 *
Ve
1e-07
-190.012918 390.3434 0
0 0

0101101
*
Ed
 1e-07 1 1 0
1  101 0 0 2.55495299999995
0

0101000
+294 0 -292 0 *
Ve
1e-07
-180.323477 390.3434 0
0 0

0101101
*
Ed
 1e-07 1 1 0
1  102 0 0 9.68944100000002
0

0101000
+292 0 -290 0 *
Ve
1e-07
-180.323477 387.788447 0
0 0

0101101
*
Ed
 1e-07 1 1 0
1  103 0 0 2.55495299999995
0

0101000
+290 0 -288 0 *
Ve
1e-07
-178.015179 387.788447 0
0 0

0101101
*
Ed
 1e-07 1 1 0
1  104 0 0 2.30829800000001
0

0101000
+288 0 -286 0 *
Ve
1e-07
-178.015179 385.191656 0
0 0

0101101
*
Ed
 1e-07 1 1 0
1  105 0 0 2.596791
0

0101000
+286 0 -284 0 *
Ve
1e-07
-175.969349 385.191656 0
0 0

0101101
*
Ed
 1e-07 1 1 0
1  106 0 0 2.04583
0

0101000
+284 0 -282 0 *
Ve
1e-07
-175.969349 387.788447 0
0 0

0101101
*
Ed
 1e-07 1 1 0
1  107 0 0 2.596791
0

0101000
+282 0 -280 0 *
Ve
1e-07
-175.235783 387.788447 0
0 0

0101101
*
Ed
 1e-07 1 1 0
1  108 0 0 0.733565999999996
0

0101000
+280 0 -278 0 *
Ve
1e-07
-175.235783 390.3434 0
0 0

0101101
*
Ed
 1e-07 1 1 0
1  109 0 0 2.55495299999995
0

0101000
+278 0 -276 0 *
Ve
1e-07
-156.029126 390.3434 0
0 0

0101101
*
Ed
 1e-07 1 1 0
1  110 0 0 19.206657
0

0101000
+276 0 -274 0 *
Ve
1e-07
-156.029126 387.788447 0
0 0

0101101
*
Ed
 1e-07 1 1 0
1  111 0 0 2.55495299999995
0

0101000
+274 0 -272 0 *
Ve
1e-07
-153.538454 387.788447 0
0 0

0101101
*
Ed
 1e-07 1 1 0
1  112 0 0 2.49067199999999
0

0101000
+272 0 -270 0 *
Ve
1e-07
-153.538454 385.191656 0
0 0

0101101
*
Ed
 1e-07 1 1 0
1  113 0 0 2.596791
0

0101000
+270 0 -268 0 *
Ve
1e-07
-151.492624 385.191656 0
0 0

0101101
*
Ed
 1e-07 1 1 0
1  114 0 0 2.04583
0

0101000
+268 0 -266 0 *
Ve
1e-07
-151.492624 387.788447 0
0 0

0101101
*
Ed
 1e-07 1 1 0
1  115 0 0 2.596791
0

0101000
+266 0 -264 0 *
Ve
1e-07
-150.758988 387.788447 0
0 0

0101101
*
Ed
 1e-07 1 1 0
1  116 0 0 0.733636000000018
0

0101000
+264 0 -262 0 *
Ve
1e-07
-150.758988 390.3434 0
0 0

0101101
*
Ed
 1e-07 1 1 0
1  117 0 0 2.55495299999995
0

0101000
+262 0 -260 0 *
Ve
1e-07
-123.582278 390.3434 0
0 0

0101101
*
Ed
 1e-07 1 1 0
1  118 0 0 27.17671
0

0101000
+260 0 -258 0 *
Ve
1e-07
-123.582278 387.788447 0
0 0

0101101
*
Ed
 1e-07 1 1 0
1  119 0 0 2.55495299999995
0

0101000
+258 0 -256 0 *
Ve
1e-07
-120.521111 387.788447 0
0 0

0101101
*
Ed
 1e-07 1 1 0
1  120 0 0 3.061167
0

0101000
+256 0 -254 0 *
Ve
1e-07
-120.521111 363.014828 0
0 0

0101101
*
Ed
 1e-07 1 1 0
1  121 0 0 24.773619
0

0101000
+254 0 -252 0 *
Ve
1e-07
-135.006008 363.014828 0
0 0

0101101
*
Ed
 1e-07 1 1 0
1  122 0 0 14.484897
0

0101000
+252 0 -250 0 *
Ve
1e-07
-135.006008 363.684234 0
0 0

0101101
*
Ed
 1e-07 1 1 0
1  123 0 0 0.669405999999981
0

0101000
+250 0 -248 0 *
Ve
1e-07
-136.950757 363.684234 0
0 0

0101101
*
Ed
 1e-07 1 1 0
1  124 0 0 1.944749
0

0101000
+248 0 -246 0 *
Ve
1e-07
-136.950757 362.009215 0
0 0

0101101
*
Ed
 1e-07 1 1 0
1  125 0 0 1.67501900000002
0

0101000
+246 0 -244 0 *
Ve
1e-07
-139.941628 362.009215 0
0 0

0101101
*
Ed
 1e-07 1 1 0
1  126 0 0 2.990871
0

0101000
+244 0 -242 0 *
Ve
1e-07
-139.941628 368.205635 0
0 0

0101101
*
Ed
 1e-07 1 1 0
1  127 0 0 6.19641999999999
0

0101000
+242 0 -240 0 *
Ve
1e-07
-140.632858 368.205635 0
0 0

0101101
*
Ed
 1e-07 1 1 0
1  128 0 0 0.69122999999999
0

0101000
+240 0 -238 0 *
Ve
1e-07
-140.632858 362.009215 0
0 0

0101101
*
Ed
 1e-07 1 1 0
1  129 0 0 6.19641999999999
0

0101000
+238 0 -236 0 *
Ve
1e-07
-149.61074 362.009215 0
0 0

0101101
*
Ed
 1e-07 1 1 0
1  130 0 0 8.97788199999999
0

0101000
+236 0 -234 0 *
Ve
1e-07
-149.61074 373.362347 0
0 0

0101101
*
Ed
 1e-07 1 1 0
1  131 0 0 11.353132
0

0101000
+234 0 -232 0 *
Ve
1e-07
-140.632858 373.362347 0
0 0

0101101
*
Ed
 1e-07 1 1 0
1  132 0 0 8.97788199999999
0

0101000
+232 0 -230 0 *
Ve
1e-07
-140.632858 371.911545 0
0 0

0101101
*
Ed
 1e-07 1 1 0
1  133 0 0 1.45080200000001
0

0101000
+230 0 -228 0 *
Ve
1e-07
-139.941628 371.911545 0
0 0

0101101
*
Ed
 1e-07 1 1 0
1  134 0 0 0.69122999999999
0

0101000
+228 0 -226 0 *
Ve
1e-07
-139.941628 373.362347 0
0 0

0101101
*
Ed
 1e-07 1 1 0
1  135 0 0 1.45080200000001
0

0101000
+226 0 -224 0 *
Ve
1e-07
-137.187755 373.362347 0
0 0

0101101
*
Ed
 1e-07 1 1 0
1  136 0 0 2.753873
0

0101000
+224 0 -222 0 *
Ve
1e-07
-137.187755 373.99918 0
0 0

0101101
*
Ed
 1e-07 1 1 0
1  137 0 0 0.636833000000024
0

0101000
+222 0 -220 0 *
Ve
1e-07
-153.079667 373.99918 0
0 0

0101101
*
Ed
 1e-07 1 1 0
1  138 0 0 15.891912
0

0101000
+220 0 -218 0 *
Ve
1e-07
-153.079667 373.362347 0
0 0

0101101
*
Ed
 1e-07 1 1 0
1  139 0 0 0.636833000000024
0

0101000
+218 0 -216 0 *
Ve
1e-07
-150.432197 373.362347 0
0 0

0101101
*
Ed
 1e-07 1 1 0
1  140 0 0 2.64747
0

0101000
+216 0 -214 0 *
Ve
1e-07
-150.432197 362.009215 0
0 0

0101101
*
Ed
 1e-07 1 1 0
1  141 0 0 11.353132
0

0101000
+214 0 -212 0 *
Ve
1e-07
-151.811631 362.009215 0
0 0

0101101
*
Ed
 1e-07 1 1 0
1  142 0 0 1.379434
0

0101000
+212 0 -210 0 *
Ve
1e-07
-151.811631 363.684234 0
0 0

0101101
*
Ed
 1e-07 1 1 0
1  143 0 0 1.67501900000002
0

0101000
+210 0 -208 0 *
Ve
1e-07
-153.538454 363.684234 0
0 0

0101101
*
Ed
 1e-07 1 1 0
1  144 0 0 1.726823
0

0101000
+208 0 -206 0 *
Ve
1e-07
-153.538454 357.36534 0
0 0

0101101
*
Ed
 1e-07 1 1 0
1  145 0 0 6.318894
0

0101000
+206 0 -204 0 *
Ve
1e-07
-162.926162 357.36534 0
0 0

0101101
*
Ed
 1e-07 1 1 0
1  146 0 0 9.387708
0

0101000
+204 0 -202 0 *
Ve
1e-07
-162.926162 362.359681 0
0 0

0101101
*
Ed
 1e-07 1 1 0
1  147 0 0 4.99434100000002
0

0101000
+202 0 -200 0 *
Ve
1e-07
-158.688171 362.359681 0
0 0

0101101
*
Ed
 1e-07 1 1 0
1  148 0 0 4.23799099999999
0

0101000
+200 0 -198 0 *
Ve
1e-07
-158.688171 380.54793 0
0 0

0101101
*
Ed
 1e-07 1 1 0
1  149 0 0 18.188249
0

0101000
+198 0 -196 0 *
Ve
1e-07
-162.926162 380.54793 0
0 0

0101101
*
Ed
 1e-07 1 1 0
1  150 0 0 4.23799099999999
0

0101000
+196 0 -194 0 *
Ve
1e-07
-162.926162 366.093378 0
0 0

0101101
*
Ed
 1e-07 1 1 0
1  151 0 0 14.454552
0

0101000
+194 0 -192 0 *
Ve
1e-07
-165.882088 366.093378 0
0 0

0101101
*
Ed
 1e-07 1 1 0
1  152 0 0 2.95592600000001
0

0101000
+192 0 -190 0 *
Ve
1e-07
-165.882088 362.359681 0
0 0

0101101
*
Ed
 1e-07 1 1 0
1  153 0 0 3.73369699999995
0

0101000
+190 0 -188 0 *
Ve
1e-07
-164.981495 362.359681 0
0 0

0101101
*
Ed
 1e-07 1 1 0
1  154 0 0 0.900593000000015
0

0101000
+188 0 -186 0 *
Ve
1e-07
-164.981495 345.318939 0
0 0

0101101
*
Ed
 1e-07 1 1 0
1  155 0 0 17.040742
0

0101000
+186 0 -184 0 *
Ve
1e-07
-165.852325 345.318939 0
0 0

0101101
*
Ed
 1e-07 1 1 0
1  156 0 0 0.870830000000012
0

0101000
+184 0 -182 0 *
Ve
1e-07
-165.852325 342.028812 0
0 0

0101101
*
Ed
 1e-07 1 1 0
1  157 0 0 3.29012699999998
0

0101000
+182 0 -180 0 *
Ve
1e-07
-162.926162 342.028812 0
0 0

0101101
*
Ed
 1e-07 1 1 0
1  158 0 0 2.926163
0

0101000
+180 0 -178 0 *
Ve
1e-07
-162.926162 345.645712 0
0 0

0101101
*
Ed
 1e-07 1 1 0
1  159 0 0 3.61689999999999
0

0101000
+178 0 -176 0 *
Ve
1e-07
-161.221425 345.645712 0
0 0

0101101
*
Ed
 1e-07 1 1 0
1  160 0 0 1.70473699999999
0

0101000
+176 0 -174 0 *
Ve
1e-07
-161.221425 346.109228 0
0 0

0101101
*
Ed
 1e-07 1 1 0
1  161 0 0 0.46351599999997
0

0101000
+174 0 -172 0 *
Ve
1e-07
-162.926162 346.109228 0
0 0

0101101
*
Ed
 1e-07 1 1 0
1  162 0 0 1.70473699999999
0

0101000
+172 0 -170 0 *
Ve
1e-07
-162.926162 354.61861 0
0 0

0101101
*
Ed
 1e-07 1 1 0
1  163 0 0 8.50938200000002
0

0101000
+170 0 -168 0 *
Ve
1e-07
-153.538454 354.61861 0
0 0

0101101
*
Ed
 1e-07 1 1 0
1  164 0 0 9.387708
0

0101000
+168 0 -166 0 *
Ve
1e-07
-153.538454 346.301629 0
0 0

0101101
*
Ed
 1e-07 1 1 0
1  165 0 0 8.316981
0

0101000
+166 0 -164 0 *
Ve
1e-07
-151.811631 346.301629 0
0 0

0101101
*
Ed
 1e-07 1 1 0
1  166 0 0 1.726823
0

0101000
+164 0 -162 0 *
Ve
1e-07
-151.811631 360.75829 0
0 0

0101101
*
Ed
 1e-07 1 1 0
1  167 0 0 14.456661
0

0101000
+162 0 -160 0 *
Ve
1e-07
-136.950757 360.75829 0
0 0

0101101
*
Ed
 1e-07 1 1 0
1  168 0 0 14.860874
0

0101000
+160 0 -158 0 *
Ve
1e-07
-136.950757 361.416372 0
0 0

0101101
*
Ed
 1e-07 1 1 0
1  169 0 0 0.658082000000036
0

0101000
+158 0 -156 0 *
Ve
1e-07
-123.183118 361.416372 0
0 0

0101101
*
Ed
 1e-07 1 1 0
1  170 0 0 13.767639
0

0101000
+156 0 -154 0 *
Ve
1e-07
-123.183118 360.291055 0
0 0

0101101
*
Ed
 1e-07 1 1 0
1  171 0 0 1.12531700000005
0

0101000
+154 0 -152 0 *
Ve
1e-07
-121.739108 360.291055 0
0 0

0101101
*
Ed
 1e-07 1 1 0
1  172 0 0 1.44400999999999
0

0101000
+152 0 -150 0 *
Ve
1e-07
-121.739108 361.416372 0
0 0

0101101
*
Ed
 1e-07 1 1 0
1  173 0 0 1.12531700000005
0

0101000
+150 0 -148 0 *
Ve
1e-07
-117.02733 361.416372 0
0 0

0101101
*
Ed
 1e-07 1 1 0
1  174 0 0 4.711778
0

0101000
+148 0 -146 0 *
Ve
1e-07
-117.02733 387.788447 0
0 0

0101101
*
Ed
 1e-07 1 1 0
1  175 0 0 26.372075
0

0101000
+146 0 -144 0 *
Ve
1e-07
-116.297468 387.788447 0
0 0

0101101
*
Ed
 1e-07 1 1 0
1  176 0 0 0.729862000000011
0

0101000
+144 0 -142 0 *
Ve
1e-07
-116.297468 391.117526 0
0 0

0101101
*
Ed
 1e-07 1 1 0
1  177 0 0 3.32907899999998
0

0101000
+142 0 -140 0 *
Ve
1e-07
-111 391.117526 0
0 0

0101101
*
Ed
 1e-07 1 1 0
1  178 0 0 5.29746799999999
0

0101000
+140 0 -138 0 *
Ve
1e-07
-111 387.788447 0
0 0

0101101
*
Ed
 1e-07 1 1 0
1  179 0 0 3.32907899999998
0

0101000
+138 0 -136 0 *
Ve
1e-07
-108 387.788447 0
0 0

0101101
*
Ed
 1e-07 1 1 0
1  180 0 0 3
0

0101000
+136 0 -134 0 *
Ve
1e-07
-108 391.117526 0
0 0

0101101
*
Ed
 1e-07 1 1 0
1  181 0 0 3.32907899999998
0

0101000
+134 0 -132 0 *
Ve
1e-07
-98.735174 391.117526 0
0 0

0101101
*
Ed
 1e-07 1 1 0
1  182 0 0 9.264826
0

0101000
+132 0 -130 0 *
Ve
1e-07
-98.735174 387.788447 0
0 0

0101101
*
Ed
 1e-07 1 1 0
1  183 0 0 3.32907899999998
0

0101000
+130 0 -128 0 *
Ve
1e-07
-97.823414 387.788447 0
0 0

0101101
*
Ed
 1e-07 1 1 0
1  184 0 0 0.911760000000001
0

0101000
+128 0 -126 0 *
Ve
1e-07
-97.823414 373.814384 0
0 0

0101101
*
Ed
 1e-07 1 1 0
1  185 0 0 13.974063
0

0101000
+126 0 -124 0 *
Ve
1e-07
-111.202235 373.814384 0
0 0

0101101
*
Ed
 1e-07 1 1 0
1  186 0 0 13.378821
0

0101000
+124 0 -122 0 *
Ve
1e-07
-111.202235 370.280557 0
0 0

0101101
*
Ed
 1e-07 1 1 0
1  187 0 0 3.53382700000003
0

0101000
+122 0 -120 0 *
Ve
1e-07
-108.24695 370.280557 0
0 0

0101101
*
Ed
 1e-07 1 1 0
1  188 0 0 2.955285
0

0101000
+120 0 -118 0 *
Ve
1e-07
-108.24695 369.706179 0
0 0

0101101
*
Ed
 1e-07 1 1 0
1  189 0 0 0.574377999999967
0

0101000
+118 0 -116 0 *
Ve
1e-07
-107.189951 369.706179 0
0 0

0101101
*
Ed
 1e-07 1 1 0
1  190 0 0 1.056999
0

0101000
+116 0 -114 0 *
Ve
1e-07
-107.189951 370.280557 0
0 0

0101101
*
Ed
 1e-07 1 1 0
1  191 0 0 0.574377999999967
0

0101000
+114 0 -112 0 *
Ve
1e-07
-95.927868 370.280557 0
0 0

0101101
*
Ed
 1e-07 1 1 0
1  192 0 0 11.262083
0

0101000
+112 0 -110 0 *
Ve
1e-07
-95.927868 362.881965 0
0 0

0101101
*
Ed
 1e-07 1 1 0
1  193 0 0 7.39859200000001
0

0101000
+110 0 -108 0 *
Ve
1e-07
-107.189951 362.881965 0
0 0

0101101
*
Ed
 1e-07 1 1 0
1  194 0 0 11.262083
0

0101000
+108 0 -106 0 *
Ve
1e-07
-107.189951 364.850813 0
0 0

0101101
*
Ed
 1e-07 1 1 0
1  195 0 0 1.96884800000004
0

0101000
+106 0 -104 0 *
Ve
1e-07
-108.24695 364.850813 0
0 0

0101101
*
Ed
 1e-07 1 1 0
1  196 0 0 1.056999
0

0101000
+104 0 -102 0 *
Ve
1e-07
-108.24695 362.881965 0
0 0

0101101
*
Ed
 1e-07 1 1 0
1  197 0 0 1.96884800000004
0

0101000
+102 0 -100 0 *
Ve
1e-07
-111.012021 362.881965 0
0 0

0101101
*
Ed
 1e-07 1 1 0
1  198 0 0 2.76507100000001
0

0101000
+100 0 -98 0 *
Ve
1e-07
-111.012021 361.416372 0
0 0

0101101
*
Ed
 1e-07 1 1 0
1  199 0 0 1.46559299999996
0

0101000
+98 0 -96 0 *
Ve
1e-07
-104.345192 361.416372 0
0 0

0101101
*
Ed
 1e-07 1 1 0
1  200 0 0 6.66682900000001
0

0101000
+96 0 -94 0 *
Ve
1e-07
-104.345192 358.327715 0
0 0

0101101
*
Ed
 1e-07 1 1 0
1  201 0 0 3.08865700000001
0

0101000
+94 0 -92 0 *
Ve
1e-07
-103.841801 358.327715 0
0 0

0101101
*
Ed
 1e-07 1 1 0
1  202 0 0 0.503390999999993
0

0101000
+92 0 -90 0 *
Ve
1e-07
-103.841801 361.416372 0
0 0

0101101
*
Ed
 1e-07 1 1 0
1  203 0 0 3.08865700000001
0

0101000
+90 0 -88 0 *
Ve
1e-07
-97.846189 361.416372 0
0 0

0101101
*
Ed
 1e-07 1 1 0
1  204 0 0 5.99561200000001
0

0101000
+88 0 -86 0 *
Ve
1e-07
-97.846189 354.49577 0
0 0

0101101
*
Ed
 1e-07 1 1 0
1  205 0 0 6.92060200000003
0

0101000
+86 0 -84 0 *
Ve
1e-07
-103.841801 354.49577 0
0 0

0101101
*
Ed
 1e-07 1 1 0
1  206 0 0 5.99561200000001
0

0101000
+84 0 -82 0 *
Ve
1e-07
-103.841801 355.166551 0
0 0

0101101
*
Ed
 1e-07 1 1 0
1  207 0 0 0.670781000000034
0

0101000
+82 0 -80 0 *
Ve
1e-07
-104.345192 355.166551 0
0 0

0101101
*
Ed
 1e-07 1 1 0
1  208 0 0 0.503390999999993
0

0101000
+80 0 -78 0 *
Ve
1e-07
-104.345192 354.039272 0
0 0

0101101
*
Ed
 1e-07 1 1 0
1  209 0 0 1.12727900000004
0

0101000
+78 0 -76 0 *
Ve
1e-07
-97.846189 354.039272 0
0 0

0101101
*
Ed
 1e-07 1 1 0
1  210 0 0 6.499003
0

0101000
+76 0 -74 0 *
Ve
1e-07
-97.846189 348.410165 0
0 0

0101101
*
Ed
 1e-07 1 1 0
1  211 0 0 5.62910699999998
0

0101000
+74 0 -72 0 *
Ve
1e-07
-94.336283 348.410165 0
0 0

0101101
*
Ed
 1e-07 1 1 0
1  212 0 0 3.509906
0

0101000
+72 0 -70 0 *
Ve
1e-07
-94.336283 387.788447 0
0 0

0101101
*
Ed
 1e-07 1 1 0
1  213 0 0 39.378282
0

0101000
+70 0 -68 0 *
Ed
 1e-07 1 1 0
1  214 0 0 1.93587599999999
0

0101000
+68 0 -493 0 *
Wi

0101100
+491 0 +489 0 +487 0 +485 0 +483 0 +481 0 +479 0 +477 0 +475 0 +473 0 
+471 0 +469 0 +467 0 +465 0 +463 0 +461 0 +459 0 +457 0 +455 0 +453 0 
+451 0 +449 0 +447 0 +445 0 +443 0 +441 0 +439 0 +437 0 +435 0 +433 0 
+431 0 +429 0 +427 0 +425 0 +423 0 +421 0 +419 0 +417 0 +415 0 +413 0 
+411 0 +409 0 +407 0 +405 0 +403 0 +401 0 +399 0 +397 0 +395 0 +393 0 
+391 0 +389 0 +387 0 +385 0 +383 0 +381 0 +379 0 +377 0 +375 0 +373 0 
+371 0 +369 0 +367 0 +365 0 +363 0 +361 0 +359 0 +357 0 +355 0 +353 0 
+351 0 +349 0 +347 0 +345 0 +343 0 +341 0 +339 0 +337 0 +335 0 +333 0 
+331 0 +329 0 +327 0 +325 0 +323 0 +321 0 +319 0 +317 0 +315 0 +313 0 
+311 0 +309 0 +307 0 +305 0 +303 0 +301 0 +299 0 +297 0 +295 0 +293 0 
+291 0 +289 0 +287 0 +285 0 +283 0 +281 0 +279 0 +277 0 +275 0 +273 0 
+271 0 +269 0 +267 0 +265 0 +263 0 +261 0 +259 0 +257 0 +255 0 +253 0 
+251 0 +249 0 +247 0 +245 0 +243 0 +241 0 +239 0 +237 0 +235 0 +233 0 
+231 0 +229 0 +227 0 +225 0 +223 0 +221 0 +219 0 +217 0 +215 0 +213 0 
+211 0 +209 0 +207 0 +205 0 +203 0 +201 0 +199 0 +197 0 +195 0 +193 0 
+191 0 +189 0 +187 0 +185 0 +183 0 +181 0 +179 0 +177 0 +175 0 +173 0 
+171 0 +169 0 +167 0 +165 0 +163 0 +161 0 +159 0 +157 0 +155 0 +153 0 
+151 0 +149 0 +147 0 +145 0 +143 0 +141 0 +139 0 +137 0 +135 0 +133 0 
+131 0 +129 0 +127 0 +125 0 +123 0 +121 0 +119 0 +117 0 +115 0 +113 0 
+111 0 +109 0 +107 0 +105 0 +103 0 +101 0 +99 0 +97 0 +95 0 +93 0 
+91 0 +89 0 +87 0 +85 0 +83 0 +81 0 +79 0 +77 0 +75 0 +73 0 
+71 0 +69 0 +67 0 +66 0 *
Ve
1e-07
-112.587585 347.168814 0
0 0

0101101
*
Ve
1e-07
-112.587585 344.208706 0
0 0

0101101
*
Ed
 1e-07 1 1 0
1  215 0 0 2.96010799999999
2  1 2 0 0 2.96010799999999
2  2 3 0 0 2.96010799999999
0

0101000
+64 0 -63 0 *
Ve
1e-07
-110.541755 344.208706 0
0 0

0101101
*
Ed
 1e-07 1 1 0
1  216 0 0 2.04583000000001
2  3 2 0 0 2.04583000000001
2  4 3 0 0 2.04583000000001
0

0101000
+63 0 -61 0 *
Ve
1e-07
-110.541755 347.168814 0
0 0

0101101
*
Ed
 1e-07 1 1 0
1  217 0 0 2.96010799999999
2  5 2 0 0 2.96010799999999
2  6 3 0 0 2.96010799999999
0

0101000
+61 0 -59 0 *
Ed
 1e-07 1 1 0
1  218 0 0 2.04583000000001
2  7 2 0 0 2.04583000000001
2  8 3 0 0 2.04583000000001
0

0101000
+59 0 -64 0 *
Wi

0101100
+62 0 +60 0 +58 0 +57 0 *
Ve
1e-07
-178.015179 347.168814 0
0 0

0101101
*
Ve
1e-07
-178.015179 344.208706 0
0 0

0101101
*
Ed
 1e-07 1 1 0
1  219 0 0 2.96010799999999
2  9 4 0 0 2.96010799999999
2  10 5 0 0 2.96010799999999
0

0101000
+55 0 -54 0 *
Ve
1e-07
-175.969349 344.208706 0
0 0

0101101
*
Ed
 1e-07 1 1 0
1  220 0 0 2.04583
2  11 4 0 0 2.04583
2  12 5 0 0 2.04583
0

0101000
+54 0 -52 0 *
Ve
1e-07
-175.969349 347.168814 0
0 0

0101101
*
Ed
 1e-07 1 1 0
1  221 0 0 2.96010799999999
2  13 4 0 0 2.96010799999999
2  14 5 0 0 2.96010799999999
0

0101000
+52 0 -50 0 *
Ed
 1e-07 1 1 0
1  222 0 0 2.04583
2  15 4 0 0 2.04583
2  16 5 0 0 2.04583
0

0101000
+50 0 -55 0 *
Wi

0101100
+53 0 +51 0 +49 0 +48 0 *
Ve
1e-07
-178.015179 322.417571 0
0 0

0101101
*
Ve
1e-07
-178.015179 320.457463 0
0 0

0101101
*
Ed
 1e-07 1 1 0
1  223 0 0 1.96010799999999
2  17 6 0 0 1.96010799999999
2  18 7 0 0 1.96010799999999
0

0101000
+46 0 -45 0 *
Ve
1e-07
-175.969349 320.457463 0
0 0

0101101
*
Ed
 1e-07 1 1 0
1  224 0 0 2.04583
2  19 6 0 0 2.04583
2  20 7 0 0 2.04583
0

0101000
+45 0 -43 0 *
Ve
1e-07
-175.969349 322.417571 0
0 0

0101101
*
Ed
 1e-07 1 1 0
1  225 0 0 1.96010799999999
2  21 6 0 0 1.96010799999999
2  22 7 0 0 1.96010799999999
0

0101000
+43 0 -41 0 *
Ed
 1e-07 1 1 0
1  226 0 0 2.04583
2  23 6 0 0 2.04583
2  24 7 0 0 2.04583
0

0101000
+41 0 -46 0 *
Wi

0101100
+44 0 +42 0 +40 0 +39 0 *
Ve
1e-07
-137.196426 322.417571 0
0 0

0101101
*
Ve
1e-07
-137.196426 320.457463 0
0 0

0101101
*
Ed
 1e-07 1 1 0
1  227 0 0 1.96010799999999
2  25 8 0 0 1.96010799999999
2  26 9 0 0 1.96010799999999
0

0101000
+37 0 -36 0 *
Ve
1e-07
-135.150596 320.457463 0
0 0

0101101
*
Ed
 1e-07 1 1 0
1  228 0 0 2.04583
2  27 8 0 0 2.04583
2  28 9 0 0 2.04583
0

0101000
+36 0 -34 0 *
Ve
1e-07
-135.150596 322.417571 0
0 0

0101101
*
Ed
 1e-07 1 1 0
1  229 0 0 1.96010799999999
2  29 8 0 0 1.96010799999999
2  30 9 0 0 1.96010799999999
0

0101000
+34 0 -32 0 *
Ed
 1e-07 1 1 0
1  230 0 0 2.04583
2  31 8 0 0 2.04583
2  32 9 0 0 2.04583
0

0101000
+32 0 -37 0 *
Wi

0101100
+35 0 +33 0 +31 0 +30 0 *
Ve
1e-07
-178.015179 363.684234 0
0 0

0101101
*
Ve
1e-07
-178.015179 360.724127 0
0 0

0101101
*
Ed
 1e-07 1 1 0
1  231 0 0 2.96010699999999
2  33 10 0 0 2.96010699999999
2  34 11 0 0 2.96010699999999
0

0101000
+28 0 -27 0 *
Ve
1e-07
-175.969349 360.724127 0
0 0

0101101
*
Ed
 1e-07 1 1 0
1  232 0 0 2.04583
2  35 10 0 0 2.04583
2  36 11 0 0 2.04583
0

0101000
+27 0 -25 0 *
Ve
1e-07
-175.969349 363.684234 0
0 0

0101101
*
Ed
 1e-07 1 1 0
1  233 0 0 2.96010699999999
2  37 10 0 0 2.96010699999999
2  38 11 0 0 2.96010699999999
0

0101000
+25 0 -23 0 *
Ed
 1e-07 1 1 0
1  234 0 0 2.04583
2  39 10 0 0 2.04583
2  40 11 0 0 2.04583
0

0101000
+23 0 -28 0 *
Wi

0101100
+26 0 +24 0 +22 0 +21 0 *
Ve
1e-07
-71.646044 363.684234 0
0 0

0101101
*
Ve
1e-07
-71.646044 360.724127 0
0 0

0101101
*
Ed
 1e-07 1 1 0
1  235 0 0 2.96010699999999
2  41 12 0 0 2.96010699999999
2  42 13 0 0 2.96010699999999
0

0101000
+19 0 -18 0 *
Ve
1e-07
-69.600214 360.724127 0
0 0

0101101
*
Ed
 1e-07 1 1 0
1  236 0 0 2.04583000000001
2  43 12 0 0 2.04583000000001
2  44 13 0 0 2.04583000000001
0

0101000
+18 0 -16 0 *
Ve
1e-07
-69.600214 363.684234 0
0 0

0101101
*
Ed
 1e-07 1 1 0
1  237 0 0 2.96010699999999
2  45 12 0 0 2.96010699999999
2  46 13 0 0 2.96010699999999
0

0101000
+16 0 -14 0 *
Ed
 1e-07 1 1 0
1  238 0 0 2.04583000000001
2  47 12 0 0 2.04583000000001
2  48 13 0 0 2.04583000000001
0

0101000
+14 0 -19 0 *
Wi

0101100
+17 0 +15 0 +13 0 +12 0 *
Ve
1e-07
-137.196426 387.788447 0
0 0

0101101
*
Ve
1e-07
-137.196426 385.191656 0
0 0

0101101
*
Ed
 1e-07 1 1 0
1  239 0 0 2.596791
2  49 14 0 0 2.596791
2  50 15 0 0 2.596791
0

0101000
+10 0 -9 0 *
Ve
1e-07
-135.150596 385.191656 0
0 0

0101101
*
Ed
 1e-07 1 1 0
1  240 0 0 2.04583
2  51 14 0 0 2.04583
2  52 15 0 0 2.04583
0

0101000
+9 0 -7 0 *
Ve
1e-07
-135.150596 387.788447 0
0 0

0101101
*
Ed
 1e-07 1 1 0
1  241 0 0 2.596791
2  53 14 0 0 2.596791
2  54 15 0 0 2.596791
0

0101000
+7 0 -5 0 *
Ed
 1e-07 1 1 0
1  242 0 0 2.04583
2  55 14 0 0 2.04583
2  56 15 0 0 2.04583
0

0101000
+5 0 -10 0 *
Wi

0101100
+8 0 +6 0 +4 0 +3 0 *
Fa
0  1e-07 1 0

1111000
+65 0 +56 0 +47 0 +38 0 +29 0 +20 0 +11 0 +2 0 *

+1 0 